<svg xmlns="http://www.w3.org/2000/svg" xmlns:xlink="http://www.w3.org/1999/xlink" width="400" height="338" viewBox="0 0 400 338"><defs><linearGradient id="a" x1="0.5" x2="0.5" y2="1" gradientUnits="objectBoundingBox"><stop offset="0" stop-color="#055482"/><stop offset="1" stop-color="#30b992"/></linearGradient><clipPath id="f"><rect width="400" height="338"/></clipPath></defs><g id="e" clip-path="url(#f)"><path d="M286.669,113.4c36.978,32.362,77.448,65.906,81.392,103.295,4.046,37.487-28.61,78.825-65.6,102.011s-78.335,28.213-128.059,36.4C124.777,363.4,66.866,374.94,33.346,351.758s-42.719-81.1-21.805-118.08,72-52.987,105.54-85.447c33.543-32.358,49.524-81.093,74.288-89.779,24.764-8.779,58.308,22.594,95.3,54.952" transform="translate(15.608 -43.5)" fill="#f2f2f2"/><g transform="translate(287 30.704)"><rect width="82" height="44" rx="4" transform="translate(0 0.296)" fill="#f8e7c1"/><path d="M47.629,0H4.231A4.241,4.241,0,0,0,0,4.231V40.618a4.241,4.241,0,0,0,4.231,4.231h43.4Z" fill="#055482"/><path d="M82.264,3.687A4.231,4.231,0,0,0,78.084,0H4.48A4.231,4.231,0,0,0,.3,3.687Z" transform="translate(-0.264)" fill="#055482"/><path d="M77.5,361.5v7.978L88.97,361.5Z" transform="translate(-68.131 -317.8)" fill="#055482"/><line x2="32.76" transform="translate(7.434 18.798)" fill="none" stroke="#fff" stroke-linecap="round" stroke-miterlimit="10" stroke-width="2"/><line x2="32.76" transform="translate(7.434 24.238)" fill="none" stroke="#fff" stroke-linecap="round" stroke-miterlimit="10" stroke-width="2"/><line x2="32.76" transform="translate(7.434 29.678)" fill="none" stroke="#fff" stroke-linecap="round" stroke-miterlimit="10" stroke-width="2"/><line x2="32.76" transform="translate(7.434 35.117)" fill="none" stroke="#fff" stroke-linecap="round" stroke-miterlimit="10" stroke-width="2"/><circle cx="3.324" cy="3.324" r="3.324" transform="translate(34.392 7.918)" fill="#fff"/></g><g transform="translate(200.21 76.609)"><g transform="translate(-0.003)"><path d="M114.816,491.82c0,.621.18,4.27-.348,4.882-.952,1.107-8.662.6-9.022.243s-.583-1.12-.256-1.338,3.389-.839,3.8-1.128a3.451,3.451,0,0,0,.768-2.643" transform="translate(-60.974 -285.526)" fill="#1f161e"/><path d="M241.5,472.9c.264.558,1.984,3.775,1.766,4.559-.386,1.409-7.575,4.241-8.058,4.069s-1-.763-.8-1.1,2.705-2.2,2.961-2.643a3.471,3.471,0,0,0-.419-2.718" transform="translate(-136.059 -274.543)" fill="#1f161e"/><path d="M177.242,222.4c.13,3.1.721,46.978.721,46.978L198.1,327.61c-.587,1.376-6.086,3.242-6.871,2.936s-33.317-59.218-33.317-59.218" transform="translate(-91.673 -129.114)" fill="#022b43"/><path d="M112.478,221.4c-1.653,1.091.323,113,.323,113,.667.776,5.99.663,6.879,0s9.538-53.333,10.428-56.231S150.484,221.4,150.484,221.4,114.931,219.785,112.478,221.4Z" transform="translate(-64.915 -128.119)" fill="#055482"/><path d="M6.8,57.433C5.715,56.674,1.126,51.1.585,49.22s-.948-8.943,4.4-7.336S7.925,49.153,11.7,52.722" transform="translate(-0.164 -24.179)" fill="#f8cdba"/><rect width="6.195" height="13.498" transform="translate(0 16.513) rotate(-38.6)" fill="#1f161e"/><path d="M173.89,68.05c1.317,1.225,14.786,23.909,14.786,26.748s-3.108,20.062-4.895,23.737S173.89,68.05,173.89,68.05Z" transform="translate(-100.951 -39.506)" fill="#1f161e"/><path d="M129.5,53c19.387,0,21.92,68.32,20.553,71.067s-35.267,2.429-38.015,0S111.673,53,129.5,53Z" transform="translate(-64.488 -30.769)" fill="#30b992"/><path d="M146.69,47.154c0,1.216,6.711,1.309,6.711,0V39H146.69Z" transform="translate(-85.16 -22.641)" fill="#f8cdba"/><path d="M158.646,43.766c0-.726-1.678-3.23-2.936-2.806,1.581-.558,2.361-2.462,2.936-2.072Z" transform="translate(-90.396 -22.546)"/><circle cx="8.729" cy="8.729" r="8.729" transform="translate(53.179 1.644)" fill="#f8cdba"/><ellipse cx="1.455" cy="0.759" rx="1.455" ry="0.759" transform="translate(51.627 10.784)" fill="#fa9e9f"/><ellipse cx="1.455" cy="0.759" rx="1.455" ry="0.759" transform="translate(60.78 10.784)" fill="#fa9e9f"/><path d="M133.806,23.77c-.268.39-1.678,2.022-.193,2.68" transform="translate(-77.179 -13.8)" fill="none" stroke="#1f161e" stroke-linecap="round" stroke-miterlimit="10" stroke-width="0.69"/><path d="M141.56,33.272a2.513,2.513,0,0,0,1.468-1.032" transform="translate(-82.181 -18.717)" fill="none" stroke="#1f161e" stroke-linecap="round" stroke-miterlimit="10" stroke-width="0.69"/><path d="M139.335,5.285c0-3.028-4.224-5.285-7.164-5.285a50.672,50.672,0,0,0-11.325,1.472A2.986,2.986,0,0,0,119,4.266c0,2.357.839,3.825,3.456,4.194a8.133,8.133,0,0,1,.914-2.366,3.288,3.288,0,0,1,2.257-.038c.663.231,6.2,2.84,10.3,2.84.545.768,1.745,5.453,1.393,7.441,1.2.071,3.41-3.834,3.523-5.872A4.488,4.488,0,0,0,139.163,6.8C139.217,6.359,139.335,5.524,139.335,5.285Z" transform="translate(-69.084)"/><circle cx="1.921" cy="1.921" r="1.921" transform="translate(65.305 8.867)" fill="#f8cdba"/><path d="M79.289,80.181c-4.807,7.345-30.8,18.93-33.531,18.93-7.252,0-28.724-23.829-29.949-26.371,1.414-1.51,4.425-4.71,4.895-4.71s20.91,14.127,24.773,14.127S67.65,69.276,70.032,68.7" transform="translate(-9.177 -39.495)" fill="#30b992"/><path d="M129.64,73.307a45.849,45.849,0,0,1,6.476-3.687" transform="translate(-75.261 -40.418)" fill="none" stroke="#1f161e" stroke-linecap="round" stroke-linejoin="round" stroke-width="1"/><path d="M116.67,111.042c8.389-4.031,18.376-9.744,21.174-14.022" transform="translate(-67.731 -56.325)" fill="none" stroke="#1f161e" stroke-linecap="round" stroke-linejoin="round" stroke-width="1"/><path d="M113.44,134.365c.172-1.64,8.67-14.11,10.31-15.075-1.741.969-8.33,4.312-8.955,4.681C114.43,124.948,113.44,134.365,113.44,134.365Z" transform="translate(-65.856 -69.254)" fill="#1f161e"/></g></g><g transform="translate(27.395 198.075)"><g transform="translate(0)"><rect width="4.31" height="89.054" rx="2.155" transform="matrix(-0.967, 0.254, -0.254, -0.967, 234.658, 89.626)" fill="#969696"/><rect width="4.31" height="89.054" rx="2.155" transform="matrix(0.967, 0.254, -0.254, 0.967, 204.556, 3.501)" fill="#969696"/><rect width="4.31" height="89.054" rx="2.155" transform="matrix(0.967, 0.254, -0.254, 0.967, 174.828, 3.504)" fill="#d8d8d8"/><rect width="4.31" height="89.054" rx="2.155" transform="matrix(-0.967, 0.254, -0.254, -0.967, 204.553, 89.629)" fill="#d8d8d8"/><rect width="4.317" height="89.205" rx="2.158" transform="translate(53.574 3.339) rotate(14.452)" fill="#969696"/><rect width="4.317" height="89.205" rx="2.158" transform="translate(82.991 89.339) rotate(165.548)" fill="#969696"/><rect width="212.21" height="6.376" rx="3.188" transform="translate(11.148)" fill="#d8d8d8"/><rect width="4.31" height="89.054" rx="2.155" transform="matrix(0.967, 0.254, -0.254, 0.967, 22.643, 3.509)" fill="#d8d8d8"/><rect width="4.31" height="89.054" rx="2.155" transform="matrix(-0.967, 0.254, -0.254, -0.967, 52.372, 89.63)" fill="#d8d8d8"/></g></g><g transform="translate(56.457 170.308)"><g transform="translate(1 0.001)"><path d="M51.806,356.63H88.614a2.806,2.806,0,0,1,2.806,2.806v8.515H49v-8.515a2.806,2.806,0,0,1,2.806-2.806Z" transform="translate(-46.745 -339.876)" fill="#fff"/><path d="M718.758,14.508l-.334-14c-.016-.665-.545-.665-.561,0l-.333,14Z" transform="translate(-683.869 -0.01)" fill="#dadada"/><path d="M592.758,14.508l-.334-14c-.016-.665-.545-.665-.561,0l-.333,14Z" transform="translate(-563.788 -0.01)" fill="#dadada"/><path d="M69.758,14.5,69.424.5c-.016-.666-.544-.666-.561,0l-.334,14Z" transform="translate(-65.358 -0.001)" fill="#dadada"/><path d="M3.806,308.63H40.614a2.806,2.806,0,0,1,2.806,2.806v8.515H1v-8.515a2.806,2.806,0,0,1,2.806-2.806Z" transform="translate(-1 -294.131)" fill="none" stroke="#999" stroke-miterlimit="10" stroke-width="2"/><rect width="10.1" height="2.255" rx="1.127" transform="translate(4.98 19.666)" fill="#055482"/><rect width="4.698" height="2.255" rx="1.127" transform="translate(25.697 19.666)" fill="#30b992"/><rect width="4.698" height="2.255" rx="1.127" transform="translate(31.287 19.666)" fill="#30b992"/></g></g><g transform="translate(145.609 22.873)"><g transform="translate(1.1)"><path d="M20.46.821V2.384h8.765V.821C29.225.368,28.96,0,28.64,0h-7.6C20.723,0,20.46.372,20.46.821Z" transform="translate(-15.484 -1)" fill="#30b992"/><path d="M67.61.821V2.384h1.834V.821c0-.454-.055-.821-.123-.821H67.733C67.665,0,67.61.372,67.61.821Z" transform="translate(-52.951 -1)" fill="#30b992"/><rect width="40.662" height="40.662" rx="6" transform="translate(0 2.362)" fill="none" stroke="#999" stroke-miterlimit="10" stroke-width="2.19"/><circle cx="16.723" cy="16.723" r="16.723" transform="translate(3.608 5.97)" fill="#30b992"/><path d="M96.331,99.135,92.053,96.7,87.81,99.188l.028,4.923,4.278,2.432,4.247-2.488Z" transform="translate(-71.773 -78.878)" fill="none" stroke="#fff" stroke-linecap="round" stroke-miterlimit="10" stroke-width="2"/><line y1="12.117" transform="translate(20.387 10.627)" fill="none" stroke="#fff" stroke-linecap="round" stroke-miterlimit="10" stroke-width="2"/><line x2="8.404" transform="translate(20.387 22.744)" fill="none" stroke="#fff" stroke-linecap="round" stroke-miterlimit="10" stroke-width="2"/><circle cx="0.616" cy="0.616" r="0.616" transform="translate(5.442 22.076)" fill="#fff"/><circle cx="0.616" cy="0.616" r="0.616" transform="translate(33.948 22.076)" fill="#fff"/><circle cx="0.616" cy="0.616" r="0.616" transform="translate(19.696 36.76)" fill="#fff"/><circle cx="0.616" cy="0.616" r="0.616" transform="translate(19.696 7.167)" fill="#fff"/></g></g><g transform="translate(130.045 168.87)"><g transform="translate(0 0)"><path d="M96.555,28.767H53.92l7.724-26.56A3.1,3.1,0,0,1,64.631,0h36.178a3.056,3.056,0,0,1,2.986,3.876Z" transform="translate(-29.07 0.001)" fill="#333"/><ellipse cx="2.608" cy="2.608" rx="2.608" ry="2.608" transform="translate(48.792 11.775)" fill="#fff"/><rect width="29.915" height="1.867" transform="translate(0 26.906)" fill="#333"/></g></g><g transform="translate(117.75 227.931)"><g transform="translate(0 0)"><ellipse cx="29.085" cy="6.429" rx="29.085" ry="6.429" fill="#333"/><line x1="16.342" y2="51.128" transform="translate(12.743 6.429)" fill="none" stroke="#333" stroke-linecap="round" stroke-miterlimit="10" stroke-width="4"/><line x2="16.338" y2="51.128" transform="translate(29.085 6.429)" fill="none" stroke="#333" stroke-linecap="round" stroke-miterlimit="10" stroke-width="4"/><line y1="11.678" x2="18.218" transform="translate(18.107 29.094)" fill="none" stroke="#333" stroke-linecap="round" stroke-miterlimit="10" stroke-width="2"/><line x2="18.213" y2="11.678" transform="translate(21.771 29.094)" fill="none" stroke="#333" stroke-linecap="round" stroke-miterlimit="10" stroke-width="2"/></g></g><g transform="translate(326.711 216.614)"><g transform="translate(0.003 -0.002)"><path d="M64.491,44.285c6.544,1.243,5.377,40.3-7.185,37.936C45.444,79.979,56.507,42.78,64.491,44.285Z" transform="translate(-34.161 -29.002)" fill="#484848"/><path d="M1.6,58.01C6.808,55.065,28.607,82.5,18.635,88.134,9.215,93.463-4.741,61.6,1.6,58.01Z" transform="translate(-0.003 -37.884)" fill="url(#a)"/><path d="M49.4,172.746H36.254a2.153,2.153,0,0,1-2.139-1.915l-1.66-14.91a2.153,2.153,0,0,1,2.139-2.39H51a2.149,2.149,0,0,1,2.139,2.38l-1.588,14.91a2.156,2.156,0,0,1-2.142,1.925Z" transform="translate(-21.269 -100.649)" fill="#969696"/><path d="M76.453.078c4.984,1.45,1.164,31.608-8.38,28.822C59.063,26.279,70.388-1.686,76.453.078Z" transform="translate(-42.428 0.002)" fill="url(#a)"/><path d="M87.58,68.974c3.444,2.972-10.567,25.681-17.187,19.977C64.141,83.588,83.374,65.357,87.58,68.974Z" transform="translate(-45.336 -44.907)" fill="url(#a)"/><path d="M46.434,9.34c7.46,0,14.29,47.631,0,47.631C32.939,56.971,37.352,9.34,46.434,9.34Z" transform="translate(-24.839 -6.122)" fill="url(#a)"/><rect width="29.036" height="5.332" rx="2.666" transform="translate(7.046 49.64)" fill="#d8d8d8"/></g></g><g transform="translate(15.783 76.873)"><rect width="122" height="80" transform="translate(0.217 0.127)" fill="none" stroke="#999" stroke-miterlimit="10" stroke-width="1"/><line x2="121.479" transform="translate(0.499 4.808)" fill="none" stroke="#999" stroke-miterlimit="10" stroke-width="1"/><rect width="103.115" height="36.513" transform="translate(9.68 11.927)" fill="#f2f2f2"/><line x2="55.802" transform="translate(33.337 24.352)" fill="none" stroke="#999" stroke-miterlimit="10" stroke-width="1"/><line x2="55.802" transform="translate(33.337 54.279)" fill="none" stroke="#999" stroke-miterlimit="10" stroke-width="1"/><line x2="55.802" transform="translate(33.337 59.79)" fill="none" stroke="#999" stroke-miterlimit="10" stroke-width="1"/><line x2="55.802" transform="translate(33.337 65.302)" fill="none" stroke="#999" stroke-miterlimit="10" stroke-width="1"/><line x2="55.802" transform="translate(33.337 70.813)" fill="none" stroke="#999" stroke-miterlimit="10" stroke-width="1"/><circle cx="1" cy="1" r="1" transform="translate(2.217 2.127)" fill="#ab8de5"/><circle cx="1.033" cy="1.033" r="1.033" transform="translate(5.665 1.708)" fill="#73e5e2"/><ellipse cx="1.5" cy="1" rx="1.5" ry="1" transform="translate(8.217 2.127)" fill="#50b89d"/><rect width="12.761" height="4.398" transform="translate(47.118 30.183)" fill="#a5dccc"/><rect width="12.761" height="4.398" transform="translate(62.598 30.183)" fill="#a5dccc"/></g></g></svg>