<?xml version="1.0" encoding="utf-8"?>
<!-- Generator: Adobe Illustrator 25.3.1, SVG Export Plug-In . SVG Version: 6.00 Build 0)  -->
<svg version="1.1" id="Layer_1" xmlns="http://www.w3.org/2000/svg" xmlns:xlink="http://www.w3.org/1999/xlink" x="0px" y="0px"
	 viewBox="0 0 70 69.9" style="enable-background:new 0 0 70 69.9;" xml:space="preserve">
<style type="text/css">
	.st0{fill:#C5AA72;}
	.st1{fill:#FFFFFF;}
</style>
<g>
	<path class="st0" d="M38,25.1c0,2.5-1,4.8-2.8,6.6c-1.7,1.7-4.1,2.8-6.5,2.8h-3.2v6.2h3.2c4.2,0,8-1.6,10.9-4.5
		c2.9-2.9,4.5-6.8,4.5-10.9V13.8L38,20V25.1L38,25.1z"/>
	<path class="st0" d="M30.1,15.9c-2.9,2.9-4.5,6.8-4.5,10.9v4.8h3.1c1.7,0,3.1-1.4,3.1-3.1v-1.7c0-2.5,1-4.8,2.8-6.6l9.7-9.7V1.7
		L30.1,15.9z"/>
</g>
<g>
	<path class="st1" d="M25.8,53.1v-5.8h-4.9c-1.3,0-2.5,0.5-3.4,1.4s-1.4,2.1-1.4,3.4c0,2.7,2.2,4.9,4.9,4.9h1.9v2.1h3V57h2.6v-3
		h-1.7C26.2,54,25.8,53.6,25.8,53.1z M22.8,50.3V54h-0.6H21c-0.5,0-1-0.2-1.3-0.6c-0.4-0.4-0.6-0.8-0.6-1.3c0-1,0.8-1.9,1.9-1.9
		L22.8,50.3L22.8,50.3z"/>
	<path class="st1" d="M66.7,50c-0.4-1.2-1.3-2.2-2.6-2.6c-0.4-0.1-0.8-0.2-1.2-0.2h-1.8l3.1-3.1v-3.9l-7.1,7.1v2.9h5.8
		c0.5,0,1,0.4,1,1V54h-9.1c0.1-0.3,0.1-0.6,0.1-1v-3.2h-3V53c0,0.5-0.4,1-1,1h-1.4c0.1-0.3,0.1-0.6,0.1-1v-3.2h-3V53
		c0,0.5-0.4,1-1,1h-1.4c0.1-0.3,0.1-0.6,0.1-1v-3.2h-3V53c0,0.5-0.4,1-1,1h-1.4c0.1-0.3,0.1-0.6,0.1-1v-3.2h-3V53c0,0.5-0.4,1-1,1
		h-1.7v3h33.3v-5.8C66.8,50.8,66.8,50.4,66.7,50z"/>
	<path class="st1" d="M13.5,48.7L13.5,48.7c-0.9-0.9-2.1-1.4-3.4-1.4H5.2v5.8c0,0.5-0.4,1-1,1h-1v3h6.9c1.3,0,2.5-0.5,3.4-1.4
		c0.4-0.4,0.7-0.8,0.9-1.3c0.3-0.7,0.5-1.4,0.5-2.2s-0.2-1.5-0.5-2.2C14.2,49.5,13.9,49.1,13.5,48.7z M12,52.1c0,0.5-0.2,1-0.6,1.3
		S10.6,54,10.1,54H8.2v-3.8h1.9c0.5,0,1,0.2,1.3,0.6C11.8,51.2,12,51.6,12,52.1z"/>
	<rect x="29.5" y="54" class="st1" width="3" height="3"/>
</g>
<g>
	<path class="st1" d="M3.2,65.8c0.2,0,0.3-0.2,0.4-0.3l0-2l0.7,0v1.3l0,0.7c0,0.4-0.3,0.7-0.8,0.9L3.2,65.8z"/>
	<path class="st1" d="M8.4,64.3v1.2H5.2c-0.1,0-0.2,0-0.3-0.1c-0.1-0.1-0.2-0.1-0.2-0.2c0,0,0,0,0-0.1c0,0,0-0.1,0-0.1
		c0,0,0-0.1,0-0.1v-2.1h0.8v0.6h0v1.1c0,0.1,0,0.2,0,0.3c0,0.1,0.1,0.1,0.2,0.1h2.1v0c0-0.4-0.1-0.6-0.3-0.6H5.8v-0.7l0.5-0.7h0.8
		l-0.5,0.7h0.8c0.2,0,0.3,0,0.5,0.1c0.2,0.1,0.3,0.2,0.4,0.4C8.3,64,8.4,64.1,8.4,64.3z"/>
	<path class="st1" d="M10.4,65.8c0.2,0,0.3-0.2,0.4-0.3H9.8l-0.3-0.7h0c-0.1-0.1-0.1-0.3-0.1-0.5c0-0.2,0-0.3,0.1-0.4
		c0-0.1,0.1-0.2,0.2-0.3c0.1-0.1,0.2-0.2,0.3-0.2c0.1,0,0.3-0.1,0.4-0.1c0.2,0,0.4,0,0.5,0.1c0.2,0.1,0.3,0.2,0.4,0.4
		c0,0.1,0.1,0.1,0.1,0.2v1.5c0,0.4-0.3,0.7-0.8,0.9L10.4,65.8z M10.7,64L10.7,64c-0.1-0.1-0.2-0.1-0.3-0.1c-0.1,0-0.2,0-0.3,0.1
		c-0.1,0.1-0.1,0.2-0.1,0.3c0,0.1,0.1,0.3,0.2,0.4l0.5,0V64z"/>
	<path class="st1" d="M14.4,65.7c-0.1-0.1-0.2-0.1-0.3-0.1c-0.1,0-0.2,0-0.2,0.1s-0.1,0.2-0.1,0.3c0,0.1,0,0.2,0.1,0.2
		s0.2,0.1,0.2,0.1c0.1,0,0.2,0,0.3-0.1s0.1-0.2,0.1-0.2C14.5,65.9,14.4,65.8,14.4,65.7z"/>
	<path class="st1" d="M21.8,64.3v1.2h-8.7c-0.1,0-0.2,0-0.3-0.1c-0.1-0.1-0.2-0.1-0.2-0.2c0,0,0,0,0-0.1c0,0,0-0.1,0-0.1
		c0,0,0-0.1,0-0.1c0,0,0-0.1,0-0.2v-1.2h0.7v0.8c0,0.1,0,0.2,0,0.3c0,0.1,0.1,0.1,0.2,0.1h1.4c0.1,0,0.2,0,0.2-0.1c0,0,0-0.1,0-0.3
		v-0.9h0.7v1.3h0.3v-1.1h0.7v1.1h0.3v-1.2h0.7v1.2h0.1c0.1,0,0.2,0,0.2-0.1c0,0,0-0.1,0-0.3v-0.8h0.7v1.2h2.2v0
		c0-0.4-0.1-0.6-0.3-0.6h-1.5v-0.7l0.5-0.7h0.8L20,63.4h0.8c0.2,0,0.3,0,0.5,0.1c0.2,0.1,0.3,0.2,0.4,0.4
		C21.8,64,21.8,64.1,21.8,64.3z"/>
	<path class="st1" d="M25,64.3c0.3,0.1,0.5,0.4,0.5,0.8v0.1c0,0,0,0.1,0,0.1c0,0.2-0.1,0.3-0.1,0.5c-0.1,0.2-0.2,0.3-0.4,0.4
		c-0.1,0-0.2,0.1-0.3,0.1h-1c-0.1,0-0.2-0.1-0.3-0.1c-0.2-0.1-0.3-0.2-0.4-0.4c-0.1-0.1-0.1-0.3-0.1-0.5l0-0.1v-1h0.7l0,0.9
		c0,0.2,0.2,0.3,0.6,0.3h0.1c0.4,0,0.6-0.1,0.6-0.3c0,0,0,0,0,0c0,0,0,0,0-0.1h-0.5c-0.1-0.1-0.2-0.2-0.2-0.2
		c-0.1-0.1-0.1-0.2-0.2-0.3c-0.1-0.2-0.1-0.4,0-0.5c0-0.2,0.1-0.3,0.3-0.5c0.1-0.1,0.3-0.2,0.5-0.3c0.1,0,0.2,0,0.3,0l0,0.7
		c-0.1,0-0.2,0-0.3,0.1c-0.1,0.1-0.1,0.2-0.1,0.2H25z"/>
	<path class="st1" d="M25.6,65.8c0.2,0,0.3-0.2,0.4-0.3l0-2l0.7,0v1.3l0,0.7c0,0.4-0.3,0.7-0.8,0.9L25.6,65.8z M26.3,62.4
		c-0.1,0-0.2,0-0.3,0.1C26,62.6,26,62.6,26,62.7s0,0.2,0.1,0.3c0.1,0.1,0.2,0.1,0.3,0.1s0.2,0,0.3-0.1c0.1-0.1,0.1-0.2,0.1-0.3
		s0-0.2-0.1-0.3C26.5,62.4,26.4,62.4,26.3,62.4z"/>
	<path class="st1" d="M31,63.6v1.3c0,0,0,0.1,0,0.1c0,0,0,0.1,0,0.1c0,0,0,0.1,0,0.1c-0.1,0.1-0.1,0.2-0.2,0.2
		c-0.1,0-0.2,0.1-0.4,0.1h-2.6c-0.1,0-0.2,0-0.3-0.1c-0.1-0.1-0.2-0.1-0.2-0.2c0,0,0,0,0-0.1c0,0,0-0.1,0-0.1c0,0,0-0.1,0-0.1
		c0,0,0-0.1,0-0.2v-2h0.8v0.6h0v1.1c0,0.1,0,0.2,0,0.3c0,0.1,0.1,0.1,0.2,0.1h0.3v-1.1h0.7v1.1h0.3v-1.2h0.7v1.2h0
		c0.1,0,0.2,0,0.2-0.1c0,0,0-0.1,0-0.3v-0.8H31z"/>
	<path class="st1" d="M34.9,62.7c-0.1-0.1-0.2-0.1-0.3-0.1c-0.1,0-0.2,0-0.2,0.1s-0.1,0.1-0.1,0.2c0,0.1,0,0.2,0.1,0.2
		s0.2,0.1,0.2,0.1c0.1,0,0.2,0,0.3-0.1S35,63,35,62.9C35,62.8,34.9,62.7,34.9,62.7z"/>
	<path class="st1" d="M38.6,62.7c-0.1-0.1-0.2-0.1-0.2-0.1c-0.1,0-0.2,0-0.2,0.1C38,62.7,38,62.8,38,62.9c0,0.1,0,0.2,0.1,0.2
		c0.1,0.1,0.1,0.1,0.2,0.1c0.1,0,0.2,0,0.2-0.1c0.1-0.1,0.1-0.2,0.1-0.2C38.7,62.8,38.7,62.7,38.6,62.7z"/>
	<path class="st1" d="M38,63.6v0.8c0,0.1,0,0.2,0,0.3c0,0.1-0.1,0.1-0.2,0.1h-0.2c0,0,0-0.1,0-0.1c0-0.2,0-0.3-0.1-0.4
		c0-0.1-0.1-0.2-0.2-0.3c-0.1-0.1-0.2-0.2-0.4-0.2c-0.1-0.1-0.3-0.1-0.4-0.1c-0.3,0-0.6,0.1-0.8,0.3c-0.2,0.2-0.3,0.5-0.3,0.8
		c0,0,0,0.1,0,0.1H35v-1.2h-0.7v0.8c0,0.1,0,0.2,0,0.3c0,0.1-0.1,0.1-0.2,0.1c0,0,0,0,0,0h-0.2c0-0.3,0-0.5,0-0.6
		c0-0.1,0-0.2-0.1-0.3c-0.1-0.2-0.2-0.3-0.4-0.4c-0.2-0.1-0.3-0.1-0.5-0.1c-0.2,0-0.4,0-0.5,0.1c-0.1,0.1-0.2,0.1-0.2,0.2l0.5,0.5
		c0.1-0.1,0.2-0.1,0.3-0.1c0.3,0,0.4,0.2,0.4,0.4v0.3H32v0.7h3.8c0.1,0,0.1,0.1,0.2,0.1c0.1,0.1,0.3,0.1,0.4,0.1
		c0.2,0,0.3,0,0.4-0.1c0.1,0,0.1-0.1,0.2-0.1h1c0.1,0,0.2,0,0.3-0.1c0.1-0.1,0.2-0.1,0.2-0.2c0,0,0,0,0-0.1c0,0,0-0.1,0-0.1
		c0,0,0-0.1,0-0.1c0,0,0-0.1,0-0.2v-1.2H38z M36.7,64.9c-0.1,0.1-0.1,0.1-0.2,0.1c-0.1,0-0.2,0-0.2-0.1c-0.1-0.1-0.1-0.2-0.1-0.3
		c0-0.1,0-0.2,0.1-0.3c0.1-0.1,0.1-0.1,0.2-0.1c0.1,0,0.2,0,0.2,0.1s0.1,0.2,0.1,0.3S36.7,64.8,36.7,64.9z"/>
	<path class="st1" d="M39.3,65.5v-2.2h-0.1v-0.6h0.8v2.8H39.3z"/>
	<path class="st1" d="M44.2,62.7c-0.1-0.1-0.2-0.1-0.3-0.1c-0.1,0-0.2,0-0.2,0.1c-0.1,0.1-0.1,0.1-0.1,0.2c0,0.1,0,0.2,0.1,0.2
		c0.1,0.1,0.2,0.1,0.2,0.1c0.1,0,0.2,0,0.3-0.1c0.1-0.1,0.1-0.2,0.1-0.2C44.3,62.8,44.2,62.7,44.2,62.7z M43.2,62.7
		c-0.1-0.1-0.2-0.1-0.2-0.1s-0.2,0-0.2,0.1s-0.1,0.1-0.1,0.2c0,0.1,0,0.2,0.1,0.2s0.2,0.1,0.2,0.1s0.2,0,0.2-0.1s0.1-0.2,0.1-0.2
		C43.3,62.8,43.3,62.7,43.2,62.7z"/>
	<path class="st1" d="M43.6,63.6v0.8c0,0.1,0,0.2,0,0.3c0,0.1-0.1,0.1-0.2,0.1h-1v-0.8c0-0.1,0-0.1-0.1-0.2
		c-0.1-0.2-0.2-0.3-0.4-0.4c-0.2-0.1-0.3-0.1-0.5-0.1c-0.2,0-0.3,0-0.4,0.1c-0.1,0-0.2,0.1-0.3,0.2c-0.1,0.1-0.2,0.2-0.2,0.4
		c-0.1,0.1-0.1,0.3-0.1,0.4c0,0.2,0,0.3,0.1,0.5h0l0.3,0.7h0.9c0,0.2-0.2,0.3-0.4,0.3l0.3,0.5c0.5-0.2,0.7-0.4,0.8-0.9h1.3
		c0.1,0,0.2,0,0.4-0.1c0.1-0.1,0.2-0.1,0.2-0.2c0,0,0,0,0-0.1c0,0,0-0.1,0-0.1c0,0,0-0.1,0-0.1c0,0,0-0.1,0-0.2v-1.2H43.6z
		 M41.6,64.7H41c-0.1-0.1-0.2-0.3-0.2-0.4c0-0.1,0-0.2,0.1-0.3c0.1-0.1,0.2-0.1,0.3-0.1s0.2,0,0.3,0.1h0V64.7z"/>
	<path class="st1" d="M50.6,64.2c0-0.1-0.1-0.2-0.2-0.3s-0.2-0.2-0.3-0.2c-0.1-0.1-0.3-0.1-0.4-0.1c-0.3,0-0.6,0.1-0.8,0.3
		c-0.2,0.2-0.3,0.5-0.3,0.8c0,0,0,0.1,0,0.1h-0.6c0.2-0.5,0.3-0.8,0.2-0.9s-0.1-0.2-0.2-0.4c-0.1-0.1-0.2-0.2-0.3-0.2
		s-0.3-0.1-0.4-0.1h-0.2c-0.2,0-0.3,0-0.4,0.1c-0.1,0-0.2,0.1-0.3,0.2c-0.1,0.1-0.2,0.2-0.2,0.4s0,0.4,0.2,0.9H46
		c-0.1,0-0.1,0.1-0.2,0.1c-0.2,0.1-0.3,0.2-0.4,0.4c-0.1,0.2-0.1,0.3-0.1,0.5c0,0.2,0,0.3,0.1,0.4c0.1,0.1,0.1,0.2,0.2,0.3
		c0.1,0.1,0.2,0.2,0.3,0.2c0.1,0,0.3,0.1,0.4,0.1h0.1v-0.7c-0.1,0-0.2,0-0.3-0.1C46,66,46,65.9,46,65.8c0-0.1,0-0.2,0.1-0.3l0,0H49
		c0.1,0,0.1,0.1,0.2,0.1c0.1,0.1,0.3,0.1,0.4,0.1c0.1,0,0.3,0,0.4-0.1c0.1,0,0.2-0.1,0.3-0.2c0.1-0.1,0.2-0.2,0.2-0.4
		c0.1-0.1,0.1-0.3,0.1-0.4C50.7,64.4,50.7,64.3,50.6,64.2z M47.2,64.7h-0.3c-0.2-0.4-0.3-0.6-0.2-0.7c0.1-0.1,0.2-0.1,0.3-0.1h0.2
		c0.1,0,0.2,0,0.3,0.1C47.5,64.1,47.4,64.4,47.2,64.7z M49.8,64.9c-0.1,0.1-0.2,0.1-0.2,0.1c-0.1,0-0.2,0-0.2-0.1s-0.1-0.2-0.1-0.3
		c0-0.1,0-0.2,0.1-0.3c0.1-0.1,0.1-0.1,0.2-0.1c0.1,0,0.2,0,0.2,0.1c0.1,0.1,0.1,0.2,0.1,0.3S49.9,64.8,49.8,64.9z"/>
	<path class="st1" d="M53.2,65.7c-0.1-0.1-0.1-0.1-0.2-0.1c-0.1,0-0.2,0-0.2,0.1s-0.1,0.2-0.1,0.3c0,0.1,0,0.2,0.1,0.2
		s0.2,0.1,0.2,0.1c0.1,0,0.2,0,0.2-0.1s0.1-0.2,0.1-0.2C53.3,65.9,53.3,65.8,53.2,65.7z"/>
	<path class="st1" d="M54.3,64.3c0,0.2,0,0.3-0.1,0.5l-0.3,0.7h-2.2c-0.1,0-0.2,0-0.4-0.1c-0.1-0.1-0.2-0.1-0.2-0.2c0,0,0,0,0-0.1
		c0,0,0-0.1,0-0.1c0,0,0-0.1,0-0.1c0,0,0-0.1,0-0.2v-2h0.8v0.6h0v1.1c0,0.1,0,0.2,0,0.3c0,0.1,0.1,0.1,0.2,0.1h1.5
		c0.1-0.1,0.2-0.3,0.2-0.4c0-0.1,0-0.2-0.1-0.3c-0.1-0.1-0.2-0.1-0.3-0.1S53,64,52.9,64c-0.1,0-0.1,0.1-0.1,0.2l-0.6-0.3
		c0-0.1,0-0.1,0.1-0.2c0.1-0.2,0.2-0.3,0.4-0.4c0.2-0.1,0.3-0.1,0.5-0.1c0.2,0,0.3,0,0.4,0.1c0.1,0,0.2,0.1,0.3,0.2
		c0.1,0.1,0.2,0.2,0.2,0.4S54.3,64.1,54.3,64.3z"/>
	<path class="st1" d="M58.5,62.7c-0.1-0.1-0.2-0.1-0.2-0.1c-0.1,0-0.2,0-0.2,0.1c-0.1,0.1-0.1,0.1-0.1,0.2c0,0.1,0,0.2,0.1,0.2
		c0.1,0.1,0.1,0.1,0.2,0.1c0.1,0,0.2,0,0.2-0.1s0.1-0.2,0.1-0.2C58.6,62.8,58.5,62.7,58.5,62.7z"/>
	<path class="st1" d="M57.9,63.6v0.8c0,0.1,0,0.2,0,0.3c0,0.1-0.1,0.1-0.2,0.1h-0.4v-1.5h-0.6c-0.2,0-0.4,0-0.5,0
		c-0.1,0-0.2,0.1-0.3,0.1c-0.2,0.1-0.3,0.2-0.4,0.4c-0.1,0.2-0.1,0.3-0.1,0.6c0,0.3,0,0.5,0.1,0.6c0.1,0.1,0.2,0.3,0.4,0.4
		c0.1,0,0.2,0.1,0.3,0.1c0.1,0,0.3,0,0.5,0h1.3c0.1,0,0.2,0,0.3-0.1c0.1-0.1,0.2-0.1,0.2-0.2c0,0,0,0,0-0.1c0,0,0-0.1,0-0.1
		c0,0,0-0.1,0-0.1v-1.3H57.9z M56.5,64.8c-0.2,0-0.3,0-0.4-0.1C56,64.6,56,64.5,56,64.4c0-0.3,0.2-0.5,0.5-0.5h0V64.8z"/>
	<path class="st1" d="M62.2,64.2c0-0.1-0.1-0.2-0.2-0.3c-0.1-0.1-0.2-0.2-0.3-0.2c-0.1-0.1-0.3-0.1-0.4-0.1c-0.3,0-0.6,0.1-0.8,0.3
		c-0.2,0.2-0.3,0.5-0.3,0.8c0,0,0,0.1,0,0.1h-0.3c-0.1,0-0.2,0-0.2-0.1c0,0,0-0.1,0-0.3v-1.1h0.1v-0.6h-0.8v2c0,0.1,0,0.1,0,0.2
		c0,0,0,0.1,0,0.1c0,0,0,0.1,0,0.1c0,0,0,0.1,0,0.1c0.1,0.1,0.1,0.2,0.2,0.2c0.1,0,0.2,0.1,0.3,0.1h1c0.1,0,0.1,0.1,0.2,0.1
		c0.1,0.1,0.3,0.1,0.4,0.1s0.3,0,0.4-0.1c0.1,0,0.2-0.1,0.4-0.2c0.1-0.1,0.2-0.2,0.2-0.4c0-0.1,0.1-0.3,0.1-0.4
		C62.3,64.4,62.2,64.3,62.2,64.2z M61.4,64.9c-0.1,0.1-0.2,0.1-0.2,0.1s-0.2,0-0.2-0.1s-0.1-0.2-0.1-0.3c0-0.1,0-0.2,0.1-0.3
		s0.2-0.1,0.2-0.1s0.2,0,0.2,0.1c0.1,0.1,0.1,0.2,0.1,0.3S61.5,64.8,61.4,64.9z"/>
	<path class="st1" d="M66.6,63.6v1.2c0,0.1,0,0.1,0,0.2c0,0,0,0.1,0,0.1c0,0,0,0.1,0,0.1c0,0,0,0.1,0,0.1c-0.1,0.1-0.1,0.2-0.2,0.2
		c-0.1,0-0.2,0.1-0.4,0.1h-2.6c-0.1,0-0.2,0-0.3-0.1c-0.1-0.1-0.2-0.1-0.2-0.2c0,0,0,0-0.1-0.1c0,0,0-0.1,0-0.1c0,0,0-0.1,0-0.1
		c0,0,0-0.1,0-0.2v-2h0.8v0.6h0v1.1c0,0.1,0,0.2,0,0.3c0,0.1,0.1,0.1,0.2,0.1h0.3v-1.1h0.7v1.1h0.3v-1.2h0.7v1.2h0.1
		c0.1,0,0.2,0,0.2-0.1c0,0,0-0.1,0-0.3v-0.8H66.6z"/>
</g>
</svg>
