<svg xmlns="http://www.w3.org/2000/svg" viewBox="0 0 64 64">
    <path
        d="M6.1,55.09V15.88h7.38V9l.42-.05a29,29,0,0,1,7.3.77,26.51,26.51,0,0,1,11.23,5.87,1.31,1.31,0,0,0,.93.34H59.59V55.05H6.83C6.59,55.05,6.34,55.07,6.1,55.09Zm28.37-36V51.87h22V19.05ZM31.3,50v-.62q0-15.08,0-30.15a1,1,0,0,0-.34-.81,23.71,23.71,0,0,0-13-6.18c-.44-.06-.88-.08-1.32-.11V44.34a25.84,25.84,0,0,1,7.7,1.7A28.55,28.55,0,0,1,31.3,50ZM13.47,47.46V19H9.26V51.87H28.57A23.41,23.41,0,0,0,13.47,47.46Z" />
    <path d="M52.61,36.83v3.06H38.49V36.83Z" />
    <path d="M38.48,42.87H52.59V46H38.48Z" />
    <path d="M52.59,24.73v3.06H38.48V24.73Z" />
    <path d="M52.6,30.78v3.07H38.48V30.78Z" />
</svg>