<svg xmlns="http://www.w3.org/2000/svg" viewBox="0 0 64 64">
    <path
        d="M57.78,29.55c-.08-.66-.16-1.35-.28-2A25.66,25.66,0,0,0,45.19,9.73a24.51,24.51,0,0,0-13-3.64q-.66,0-1.32,0a25.43,25.43,0,0,0-18.35,8.79A24.71,24.71,0,0,0,6.23,29.39a25.3,25.3,0,0,0,7.64,21.08,25.28,25.28,0,0,0,14,7.11c.59.1,1.2.17,1.78.24l.84.09h3l.91-.12c.67-.08,1.36-.16,2-.28a25.49,25.49,0,0,0,14.82-8.24,25.71,25.71,0,0,0,6.51-14.66l.08-.76,0-.35v-3C57.86,30.18,57.82,29.87,57.78,29.55Zm-10,18.24A22.11,22.11,0,0,1,32,54.35H32a22.38,22.38,0,1,1,15.83-6.56Z" />
    <path
        d="M41.76,38.82A1.75,1.75,0,0,1,40.1,40a1.82,1.82,0,0,1-.9-.25,7,7,0,0,1-.59-.41l-.13-.1-2.31-1.74q-2.52-1.89-5.05-3.77a2.1,2.1,0,0,1-.92-1.81c0-1.67,0-3.35,0-5q0-3.36,0-6.72a1.83,1.83,0,0,1,1.75-2,1.92,1.92,0,0,1,.66.12,1.82,1.82,0,0,1,1.15,1.82c0,1.23,0,2.46,0,3.68v2.91c0,1.32,0,2.65,0,4a1,1,0,0,0,.44.88c2.28,1.7,4.55,3.4,6.82,5.12A1.75,1.75,0,0,1,41.76,38.82Z" />
</svg>