<svg xmlns="http://www.w3.org/2000/svg" viewBox="0 0 64 64">
    <path
        d="M57.1,38.66a1.89,1.89,0,0,1-2,1.19c-1.4-.05-2.8,0-4.25,0v8.41A1.59,1.59,0,0,1,49,50H33.61v3.89L34,54a1.56,1.56,0,0,1-.41,3.06c-1.29,0-2.58,0-3.87,0H24.43A1.63,1.63,0,0,1,22.6,55.7c-.11-.88.47-1.55,1.53-1.77V50H8.79c-1.3,0-1.89-.58-1.89-1.87V19.73c0-1.26.59-1.85,1.87-1.85H20.14a1.57,1.57,0,1,1,0,3.13h-10V46.87H47.66v-7H40a1.6,1.6,0,0,1-1.77-1.76c0-.94,0-1.89,0-2.84a16.8,16.8,0,0,0-.73-5.89c-.12-.4-.1-1-.37-1.17s-.84-.1-1.27-.1H24.49c-.88,0-1.12.23-1.12,1.09v3.61H35.81a1.58,1.58,0,0,1,1.56,2.16,1.59,1.59,0,0,1-1.61,1c-3.38,0-6.76,0-10.14,0H21.94a1.58,1.58,0,0,1-1.7-1.72c0-1.75,0-3.49,0-5.24a3.91,3.91,0,0,1,4-4c2,0,4,0,6,0h.59l0,.06a27,27,0,0,1-3-1.1A9,9,0,0,1,30.65,7a1.38,1.38,0,0,0,.27-.08h2.16c.09,0,.18.07.27.09a9,9,0,0,1,7.59,10c0,.28-.07.56-.11.87h8.33a1.56,1.56,0,0,1,1.66,1.65c0,1.52,0,3,0,4.56a2,2,0,0,1-.27.92,1.47,1.47,0,0,1-1.7.64,1.54,1.54,0,0,1-1.15-1.47c0-1,0-2.09,0-3.17h-.58c-2.39,0-4.77,0-7.16,0a.89.89,0,0,0-.81.39A8.69,8.69,0,0,1,38,22.62a9.12,9.12,0,0,1-4.94,2.29c1.22,0,2.42,0,3.63,0a.52.52,0,0,0,.33-.14,1.55,1.55,0,0,1,2.3-.24c1.24.82,2.47,1.66,3.72,2.46a1.82,1.82,0,0,0,.9.27c3.71,0,7.42,0,11.12,0a1.93,1.93,0,0,1,2,1.19ZM32,10a5.88,5.88,0,1,0,5.88,5.89A5.89,5.89,0,0,0,32,10ZM53.94,30.43h-.57c-3.38,0-6.76,0-10.14,0a3.41,3.41,0,0,1-1.32-.4,8.25,8.25,0,0,1-1-.66l-.13.06c1,2.36.6,4.82.68,7.27H53.94ZM30.4,53.93V50.86H27.32v3.07Z" />
    <path d="M28.85,42.19a1.57,1.57,0,1,1-1.55,1.57A1.59,1.59,0,0,1,28.85,42.19Z" />
</svg>