<svg xmlns="http://www.w3.org/2000/svg" viewBox="0 0 64 64">
    <path
        d="M57.89,45.05c-.09.38-.18.77-.29,1.16a7.54,7.54,0,0,1-7.18,5.5q-18.4,0-36.81,0a7.53,7.53,0,0,1-7.49-7.47q0-12.24,0-24.48a7.53,7.53,0,0,1,7.49-7.47q18.38,0,36.76,0a7.55,7.55,0,0,1,7.43,6.39,1.43,1.43,0,0,0,.09.27ZM32,15.31H13.94a4.56,4.56,0,0,0-4.79,4.8V43.87A4.56,4.56,0,0,0,14,48.69H50a4.56,4.56,0,0,0,4.84-4.85V20.18A4.57,4.57,0,0,0,50,15.31Z" />
    <path
        d="M25.94,32q0-3.66,0-7.33a1.56,1.56,0,0,1,2.56-1.39l11.64,7.28c1.32.83,1.31,2.08,0,2.91L28.47,40.74a1.58,1.58,0,0,1-1.75.16,1.62,1.62,0,0,1-.79-1.58Q25.95,35.66,25.94,32ZM29,27.17v9.66L36.73,32Z" />
</svg>