<?xml version="1.0" encoding="utf-8"?>
<!-- Generator: Adobe Illustrator 25.0.0, SVG Export Plug-In . SVG Version: 6.00 Build 0)  -->
<svg version="1.1" id="_x31_px" xmlns="http://www.w3.org/2000/svg" xmlns:xlink="http://www.w3.org/1999/xlink" x="0px" y="0px"
	 viewBox="0 0 512 512" style="enable-background:new 0 0 512 512;" xml:space="preserve">
<style type="text/css">
	.st0{fill:#FFFFFF;}
	.st1{fill:#A4AFC1;}
	.st2{fill:#F3F3F1;}
	.st3{fill:#30B992;}
	.st4{fill:#D5DBE1;}
	.st5{fill:#269475;enable-background:new    ;}
	.st6{opacity:0.2;enable-background:new    ;}
	.st7{fill:#444444;}
</style>
<path class="st0" d="M452.7,392.9c0-98.4,51-165.9,51-213.3s-27.3-147-245.3-147S8.3,166.5,8.3,218.6
	C8.3,462.8,452.7,567.1,452.7,392.9z"/>
<path class="st1" d="M96,486.5c-11.8,0-21.3-9.6-21.3-21.3s9.6-21.3,21.3-21.3s21.3,9.6,21.3,21.3S107.8,486.5,96,486.5z M96,458.1
	c-3.9,0-7.1,3.2-7.1,7.1s3.2,7.1,7.1,7.1s7.1-3.2,7.1-7.1S99.9,458.1,96,458.1z"/>
<path class="st2" d="M391.1,149.3h14.2c7.9,0,14.2,6.4,14.2,14.2v199.1c0,7.9-6.4,14.2-14.2,14.2H106.7c-7.9,0-14.2-6.4-14.2-14.2
	v-199c0-7.9,6.4-14.2,14.2-14.2h14.2h270.2V149.3z"/>
<path class="st2" d="M284.4,376.9c0,0,0,21.3,21.3,42.7h-99.6c21.3-21.3,21-42.7,21-42.7H284.4z"/>
<g>
	<path class="st3" d="M92.4,334.2v28.4c0,7.9,6.4,14.2,14.2,14.2h298.7c7.9,0,14.2-6.4,14.2-14.2v-28.4H92.4z"/>
	<path class="st3" d="M192,149.3v41.9c0,4.9,2.5,9.7,6.7,12.2c38.2,22.8,76.4,22.8,114.5,0c4.2-2.5,6.7-7.3,6.7-12.2v-41.9
		L192,149.3L192,149.3z"/>
	<path class="st3" d="M163.6,135.1L256,92.4l92.4,42.7L256,177.8L163.6,135.1z"/>
</g>
<path class="st4" d="M120.9,362.7V163.6c0-7.9,6.4-14.2,14.2-14.2h-14.2h-14.2c-7.9,0-14.2,6.4-14.2,14.2v199.1
	c0,7.9,6.4,14.2,14.2,14.2h28.4C127.3,376.9,120.9,370.5,120.9,362.7z"/>
<path class="st4" d="M227.3,376.9c0,0,0.3,21.3-21,42.7h28.4c21.3-21.3,21-42.7,21-42.7H227.3z"/>
<path class="st5" d="M120.9,362.7v-28.4H92.4v28.4c0,7.9,6.4,14.2,14.2,14.2H135C127.3,376.9,120.9,370.5,120.9,362.7z"/>
<path class="st6" d="M227.2,203.4c-4.2-2.5-6.7-7.3-6.7-12.2v-34.9l-28.4-7v41.9c0,4.9,2.5,9.7,6.7,12.2
	c23.8,14.2,47.7,19.5,71.5,16C255.9,217.3,241.5,211.9,227.2,203.4z"/>
<path class="st6" d="M192,135.1L270.2,99L256,92.4l-92.4,42.7l92.4,42.7l14.2-6.6L192,135.1z"/>
<path class="st7" d="M405.3,384H106.7c-11.8,0-21.3-9.6-21.3-21.3V163.6c0-11.8,9.6-21.3,21.3-21.3h14.2c3.9,0,7.1,3.2,7.1,7.1
	c0,3.9-3.2,7.1-7.1,7.1h-14.2c-3.9,0-7.1,3.2-7.1,7.1v199.1c0,3.9,3.2,7.1,7.1,7.1h298.7c3.9,0,7.1-3.2,7.1-7.1V163.6
	c0-3.9-3.2-7.1-7.1-7.1h-14.2c-3.9,0-7.1-3.2-7.1-7.1c0-3.9,3.2-7.1,7.1-7.1h14.2c11.8,0,21.3,9.6,21.3,21.3v199.1
	C426.7,374.4,417.1,384,405.3,384z"/>
<path class="st7" d="M305.8,426.7h-99.6c-2.9,0-5.5-1.7-6.6-4.4c-1.1-2.7-0.5-5.7,1.5-7.8c18.7-18.7,19-36.8,19-37.6
	c0-3.9,3.2-7.2,7.1-7.2h57.2c3.9,0,7.1,3.2,7.1,7.1c0,0.9,0.6,19,19.2,37.7c2,2,2.6,5.1,1.5,7.8
	C311.2,424.9,308.7,426.7,305.8,426.7z M221.5,412.4h69.1c-8-11.4-11.1-21.9-12.4-28.4h-44.5C232.4,390.6,229.4,401.1,221.5,412.4z
	 M291.6,376.9h0.1H291.6z"/>
<path class="st7" d="M419.6,341.3H92.4c-3.9,0-7.1-3.2-7.1-7.1s3.2-7.1,7.1-7.1h327.1c3.9,0,7.1,3.2,7.1,7.1
	C426.7,338.2,423.5,341.3,419.6,341.3z"/>
<path class="st7" d="M256,227.6c-20.4,0-40.7-6-60.9-18.1c-6.3-3.8-10.2-10.8-10.2-18.3v-41.9c0-3.9,3.2-7.1,7.1-7.1
	s7.1,3.2,7.1,7.1v41.9c0,2.5,1.3,4.9,3.3,6.1c36.1,21.5,71.2,21.5,107.2,0c2-1.2,3.3-3.6,3.3-6.1v-41.9c0-3.9,3.2-7.1,7.1-7.1
	s7.1,3.2,7.1,7.1v41.9c0,7.5-3.9,14.5-10.2,18.3C296.7,221.5,276.3,227.6,256,227.6z"/>
<path class="st7" d="M256,184.9c-1,0-2-0.2-3-0.7l-92.4-42.7c-2.5-1.2-4.1-3.7-4.1-6.5s1.6-5.3,4.1-6.5L253,86c1.9-0.9,4.1-0.9,6,0
	l92.4,42.7c2.5,1.2,4.1,3.7,4.1,6.5s-1.6,5.3-4.1,6.5L259,184.2C258,184.7,257,184.9,256,184.9z M180.5,135.1l75.5,34.8l75.5-34.8
	L256,100.3L180.5,135.1z"/>
</svg>
