<?xml version="1.0" encoding="utf-8"?>
<!-- Generator: Adobe Illustrator 25.0.0, SVG Export Plug-In . SVG Version: 6.00 Build 0)  -->
<svg version="1.1" id="Layer_1" xmlns="http://www.w3.org/2000/svg" xmlns:xlink="http://www.w3.org/1999/xlink" x="0px" y="0px"
	 viewBox="0 0 512 512" style="enable-background:new 0 0 512 512;" xml:space="preserve">
<style type="text/css">
	.st0{fill:#FFFFFF;}
	.st1{fill:#F3F3F1;}
	.st2{fill:#D5DBE1;}
	.st3{fill:#30B992;}
	.st4{fill:#269475;enable-background:new    ;}
	.st5{fill:#A4AFC1;}
	.st6{fill:#444444;}
</style>
<path class="st0" d="M389.9,55.7C291.6,57.5,223,7.8,175.7,8.7c-47.4,0.9-146.4,30-142.4,248S171.9,504.2,224,503.3
	C468.2,498.7,564.1,52.4,389.9,55.7z"/>
<path class="st1" d="M398.2,96h-160c-15.7,0-28.4,12.7-28.4,28.4v21.3v177.8v21.3c0,15.7,12.7,28.4,28.4,28.4h56.9h103.1V96z"/>
<path class="st2" d="M241.8,344.9v-21.3V145.8v-21.3c0-15.7,12.7-28.4,28.4-28.4h-32c-15.7,0-28.4,12.7-28.4,28.4v21.3v177.8v21.3
	c0,15.7,12.7,28.4,28.4,28.4h32C254.5,373.3,241.8,360.6,241.8,344.9z"/>
<path class="st3" d="M295.1,142.2v256c0,9.8,8,17.8,17.8,17.8c2,0,3.8-0.3,5.7-0.9l85.3-28.4c7-2.4,12.1-9.1,12.1-16.9v-256
	c0-9.8-8-17.8-17.8-17.8c-2,0-3.8,0.3-5.7,0.9l-85.3,28.4C300.2,127.7,295.1,134.4,295.1,142.2z"/>
<path class="st4" d="M327.1,394.7v-256c0-7.8,5.1-14.5,12.1-16.9L407.5,99c-2.7-1.7-5.8-3-9.3-3c-2,0-3.8,0.3-5.7,0.9l-85.3,28.4
	c-7,2.4-12.1,9.1-12.1,16.9v256c0,9.8,8,17.8,17.8,17.8c2,0,3.8-0.3,5.7-0.9l17.1-5.7C330.6,406.3,327.1,401,327.1,394.7z"/>
<g>
	<path class="st5" d="M150.5,51.4l10.1-10.1l20.1,20.1l-10.1,10.1L150.5,51.4z"/>
	<path class="st5" d="M148,119.3l20.1-20.1l10.1,10.1l-20.2,20L148,119.3z"/>
	<path class="st5" d="M205.8,61.5l20.1-20.1l10.1,10l-20.1,20.1L205.8,61.5z"/>
	<path class="st5" d="M421.3,458.7c-11.8,0-21.3-9.6-21.3-21.3s9.6-21.3,21.3-21.3s21.3,9.6,21.3,21.3S433,458.7,421.3,458.7z
		 M421.3,430.2c-3.9,0-7.1,3.2-7.1,7.1s3.2,7.1,7.1,7.1s7.1-3.2,7.1-7.1S425.2,430.2,421.3,430.2z"/>
</g>
<path class="st6" d="M96,224h135.1v21.3H96V224z"/>
<path class="st6" d="M185.3,295.5l-15.1-15.1l45.8-45.8l-45.8-45.8l15.1-15.1l53.3,53.3c4.2,4.2,4.2,10.9,0,15.1L185.3,295.5z"/>
<path class="st6" d="M312.9,426.7c-15.7,0-28.4-12.8-28.4-28.4v-256c0-12.1,7.7-23,19.3-27l85.5-28.5c19.3-5.9,37.5,8.3,37.5,27.1
	v256c0,12.1-7.7,23-19.2,27l-85.5,28.5C318.8,426.2,315.9,426.7,312.9,426.7z M398.2,106.7c-0.9,0-1.7,0.1-2.6,0.4l-85.1,28.4
	c-2.8,1-4.8,3.8-4.8,6.8v256c0,4.8,5.1,8.1,9.7,6.7l85.1-28.4c2.8-1,4.8-3.8,4.8-6.8v-256C405.3,109.9,402.1,106.7,398.2,106.7z"/>
<path class="st6" d="M220.4,145.8h-21.3v-21.3c0-21.6,17.5-39.1,39.1-39.1h160v21.3h-160c-9.8,0-17.8,8-17.8,17.8L220.4,145.8
	L220.4,145.8z"/>
<path class="st6" d="M295.1,384h-56.9c-21.6,0-39.1-17.5-39.1-39.1v-21.3h21.3v21.3c0,9.8,8,17.8,17.8,17.8h56.9V384z"/>
</svg>
