<?xml version="1.0" encoding="utf-8"?>
<!-- Generator: Adobe Illustrator 25.0.0, SVG Export Plug-In . SVG Version: 6.00 Build 0)  -->
<svg version="1.1" id="_x31__x2C_5" xmlns="http://www.w3.org/2000/svg" xmlns:xlink="http://www.w3.org/1999/xlink" x="0px"
	 y="0px" viewBox="0 0 512 512" style="enable-background:new 0 0 512 512;" xml:space="preserve">
<style type="text/css">
	.st0{fill:#FFFFFF;}
	.st1{fill:#A4AFC1;}
	.st2{fill:#30B992;}
	.st3{fill:#EFEFEF;}
	.st4{fill:#269475;enable-background:new    ;}
	.st5{fill:#D5DBE1;}
	.st6{fill:#444444;}
</style>
<path class="st0" d="M452.7,392.9c0-98.4,51-165.9,51-213.3s-27.2-147-245.3-147S8.3,166.5,8.3,218.6
	C8.3,462.8,452.7,567.1,452.7,392.9z"/>
<path class="st1" d="M401.8,114.2c-5.5,0-10.9-2.1-15.1-6.2c-8.3-8.3-8.3-21.8,0-30.2c8.3-8.3,21.8-8.3,30.2,0
	c8.3,8.3,8.3,21.8,0,30.2C412.7,112.2,407.2,114.2,401.8,114.2z M401.8,85.8c-1.8,0-3.6,0.7-5,2.1c-2.8,2.8-2.8,7.3,0,10.1
	c2.8,2.8,7.3,2.8,10.1,0c2.8-2.8,2.8-7.3,0-10.1C405.4,86.5,403.6,85.8,401.8,85.8z"/>
<path class="st2" d="M280.9,96c-11.8,0-21.3,9.5-21.3,21.3c0,7.8-6.4,14.2-14.2,14.2h-64c-7.8,0-14.2-6.4-14.2-14.2
	c0-11.8-9.5-21.3-21.3-21.3H280.9z"/>
<path class="st3" d="M316.4,124.4v263.1c0,15.6-12.8,28.4-28.4,28.4H138.7c-15.6,0-28.4-12.8-28.4-28.4V124.4
	c0-15.6,12.8-28.4,28.4-28.4h7.1c11.8,0,21.3,9.5,21.3,21.3c0,7.8,6.4,14.2,14.2,14.2h64c7.8,0,14.2-6.4,14.2-14.2
	c0-11.8,9.5-21.3,21.3-21.3h7.1C303.6,96,316.4,108.8,316.4,124.4z"/>
<path class="st4" d="M199.1,117.3c0-11.8-9.5-21.3-21.3-21.3h-32c11.8,0,21.3,9.5,21.3,21.3c0,7.8,6.4,14.2,14.2,14.2h32
	C205.5,131.6,199.1,125.2,199.1,117.3z"/>
<path class="st5" d="M291.6,117.3c0-7.5,3.9-14.1,9.7-17.9c-4-2.1-8.5-3.5-13.3-3.5h-7.1c-11.8,0-21.3,9.5-21.3,21.3
	c0,7.8-6.4,14.2-14.2,14.2h32C285.2,131.6,291.6,125.2,291.6,117.3z"/>
<path class="st5" d="M142.2,387.6V124.4c0-10.8,6.2-20.2,15.2-25c-3.3-2.2-7.3-3.5-11.6-3.5h-7.1c-15.6,0-28.4,12.8-28.4,28.4v263.1
	c0,15.6,12.8,28.4,28.4,28.4h32C155,416,142.2,403.2,142.2,387.6z"/>
<path class="st6" d="M245.3,142.2h-64c-13.7,0-24.9-11.2-24.9-24.9c0-5.9-4.8-10.7-10.7-10.7h-7.1c-5.9,0-10.7-4.8-10.7-10.7
	s4.8-10.7,10.7-10.7h7.1c17.6,0,32,14.4,32,32c0,2,1.6,3.6,3.6,3.6h64c2,0,3.6-1.6,3.6-3.6c0-17.6,14.4-32,32-32h7.1
	c5.9,0,10.7,4.8,10.7,10.7s-4.8,10.7-10.7,10.7h-7.1c-5.9,0-10.7,4.8-10.7,10.7C270.2,131.1,259.1,142.2,245.3,142.2z"/>
<path class="st6" d="M288,426.7H138.7c-21.6,0-39.1-17.5-39.1-39.1V124.4c0-21.6,17.5-39.1,39.1-39.1H288
	c21.6,0,39.1,17.5,39.1,39.1v28.7c0,5.9-4.8,10.7-10.7,10.7c-5.9,0-10.7-4.8-10.7-10.7v-28.7c0-9.8-8-17.8-17.8-17.8H138.7
	c-9.8,0-17.8,8-17.8,17.8v263.1c0,9.8,8,17.8,17.8,17.8H288c9.8,0,17.8-8,17.8-17.8c0-5.9,4.8-10.7,10.7-10.7
	c5.9,0,10.7,4.7,10.7,10.6C327.1,409.1,309.6,426.7,288,426.7L288,426.7z"/>
<path class="st6" d="M234.7,237.7H256v99.6h-21.3V237.7z"/>
<path class="st6" d="M327.1,337.3h-46.2c-5.9,0-10.7-4.8-10.7-10.7v-24.9c0-13.7,11.2-24.9,24.9-24.9h7.1c2,0,3.6-1.6,3.6-3.6v-10.7
	c0-2-1.6-3.6-3.6-3.6h-32v-21.3h32c13.7,0,24.9,11.2,24.9,24.9v10.7c0,13.7-11.2,24.9-24.9,24.9h-7.1c-2,0-3.6,1.6-3.6,3.6v14.2
	h35.6L327.1,337.3L327.1,337.3z"/>
<path class="st6" d="M373.3,298.2h-32v-21.3h32c2,0,3.6-1.6,3.6-3.6v-10.7c0-2-1.6-3.6-3.6-3.6h-32v-21.3h32
	c13.7,0,24.9,11.2,24.9,24.9v10.7C398.2,287,387.1,298.2,373.3,298.2z"/>
<path class="st6" d="M373.3,337.3h-32V316h32c2,0,3.6-1.6,3.6-3.6v-10.7c0-2-1.6-3.6-3.6-3.6h-32v-21.3h32
	c13.7,0,24.9,11.2,24.9,24.9v10.7C398.2,326.1,387.1,337.3,373.3,337.3z"/>
</svg>
