<svg id="Layer_1" data-name="Layer 1" xmlns="http://www.w3.org/2000/svg" viewBox="0 0 64 64"><title>education</title><path d="M60.21,20a2.17,2.17,0,0,1-1.55,1.34c-.68.2-1.34.48-2,.7a.46.46,0,0,0-.39.54q0,7.65,0,15.29a.55.55,0,0,0,.38.56,5,5,0,0,1,0,9,.62.62,0,0,0-.41.65c0,1.87,0,3.74,0,5.61a1.66,1.66,0,1,1-3.3,0c0-1.87,0-3.74,0-5.61a.61.61,0,0,0-.41-.65,5,5,0,0,1-.07-9c.26-.14.49-.21.48-.61q0-7.12,0-14.24a1.66,1.66,0,0,0,0-.24l-.86.29c-1,.34-2,.72-3,1a.61.61,0,0,0-.5.7c0,3.22,0,6.45,0,9.67A3.63,3.63,0,0,1,47,38.26a14,14,0,0,1-4.17,1.92,38.05,38.05,0,0,1-14.08,1.36,30.32,30.32,0,0,1-8.68-1.81,18.14,18.14,0,0,1-3.14-1.66,3.2,3.2,0,0,1-1.43-2.92c0-3.24,0-6.49,0-9.73a.68.68,0,0,0-.56-.77c-3.26-1.14-6.51-2.31-9.77-3.46a1.68,1.68,0,0,1-1.26-1.5A1.62,1.62,0,0,1,5.15,18l8.7-3.07q8.69-3.08,17.38-6.15a2.37,2.37,0,0,1,1.66,0q13,4.59,25.93,9.15a2.15,2.15,0,0,1,1.39,1.29Zm-49.68-.4.66.27,20.32,7.22a1.49,1.49,0,0,0,1.1,0L50.19,20.8l3.37-1.21-.41-.18Q42.83,15.77,32.5,12.14a1.43,1.43,0,0,0-.89,0q-6.49,2.27-13,4.57Zm8.31,6.49c0,.18-.05.29-.05.39,0,2.86,0,5.72,0,8.58a.86.86,0,0,0,.38.64,20.06,20.06,0,0,0,3,1.32,35.2,35.2,0,0,0,17.33.64,16.75,16.75,0,0,0,5.26-1.85,1,1,0,0,0,.54-1c0-2.7,0-5.39,0-8.08v-.67l-.7.23c-3.89,1.39-7.79,2.76-11.69,4.16a2.45,2.45,0,0,1-1.75,0c-3.08-1.12-6.17-2.21-9.26-3.3ZM54.58,41.26A1.64,1.64,0,0,0,53,42.91a1.66,1.66,0,1,0,1.63-1.65Z"/></svg>