<svg id="Layer_1" data-name="Layer 1" xmlns="http://www.w3.org/2000/svg" viewBox="0 0 64 64"><title>online-learning</title><path d="M55.76,44.18c-.6,0-1.19,0-1.74,0,.26-3.35.11-6.68.13-10v-3A12.83,12.83,0,1,0,35.73,18H12.54a6.24,6.24,0,0,0-2.19.37l-.35.15-.15.08a5,5,0,0,0-2,2,.67.67,0,0,0-.06.15,5.65,5.65,0,0,0-.53,2.54V39.85c0,1.43,0,2.85.08,4.33H5.83a2.93,2.93,0,0,0-3,3.11,8.17,8.17,0,0,0,8.14,8q12.27,0,24.54,0H50.19a8.16,8.16,0,0,0,8.35-7c0-.07.07-.12.09-.18V46.57A8.14,8.14,0,0,0,58,45.29,2.74,2.74,0,0,0,55.76,44.18ZM38.9,18a9.69,9.69,0,1,1,12,11.09,10,10,0,0,1-2.46.31,9.68,9.68,0,0,1-9.7-9.7A9.6,9.6,0,0,1,38.9,18Zm-28.41,5a1.72,1.72,0,0,1,1.72-1.71h23.5a12.82,12.82,0,0,0,12.74,11.3,13.32,13.32,0,0,0,2.46-.24v1.89a2,2,0,0,1,0,.23v7.85A1.69,1.69,0,0,1,49,44.17H26.24c0-1.67,0-3.27,0-4.87v-.18a4.9,4.9,0,0,0-1.1-3.24,6.76,6.76,0,0,0-.7-.72,1.74,1.74,0,0,1-.13-.15c1.59-2.75,1.28-5.41-.82-7.13A5.13,5.13,0,0,0,16.16,35s0,.08,0,.1a5.52,5.52,0,0,0-.79.82,5.14,5.14,0,0,0-1.12,3.24,4.68,4.68,0,0,0,0,.53c.07,1.48,0,3,0,4.5-.79,0-1.56.05-2.31,0a1.61,1.61,0,0,1-1.4-1.74V34.52a2,2,0,0,1,0-.34ZM23,44.16H17.51v-.52c0-1.52,0-3,0-4.51h0a1.75,1.75,0,0,1,.86-1.6,3.54,3.54,0,0,1,3.71,0,1.77,1.77,0,0,1,.9,1.63h0C22.94,40.8,23,42.45,23,44.16ZM18.39,31.83a1.85,1.85,0,1,1,1.79,1.87A1.84,1.84,0,0,1,18.39,31.83ZM50.76,52H11.06a4.89,4.89,0,0,1-5-4.3,2,2,0,0,1,0-.25H55.31A4.86,4.86,0,0,1,50.76,52Z"/><path d="M51.83,18.61a2,2,0,0,0-.43-.39l-3.52-2.43A1.69,1.69,0,0,0,46,15.6a1.66,1.66,0,0,0-.9,1.63v5a1.7,1.7,0,0,0,2.75,1.43c.93-.64,1.87-1.27,2.78-1.91l.75-.5A1.66,1.66,0,0,0,51.83,18.61Zm-4.1,2.62c-.19.12-.37.26-.56.39V17.78l.3.21L50,19.71Z"/></svg>