<svg id="Layer_1" data-name="Layer 1" xmlns="http://www.w3.org/2000/svg" viewBox="0 0 64 64"><title>teacher</title><path d="M7.81,25.83A7,7,0,0,1,9,23.18a5.52,5.52,0,0,1,4.42-2.25c2.56,0,5.13-.06,7.69,0a5.25,5.25,0,0,1,4.78,3c1.72,3.38,3.41,6.79,5.1,10.19a1.88,1.88,0,0,1-1.2,2.79,1.9,1.9,0,0,1-2.17-1.11l-3.35-6.69c-.56-1.12-1.13-2.24-1.68-3.37a1.76,1.76,0,0,0-1.66-1h-7.4a1.84,1.84,0,0,0-1.89,1.88c0,3.43,0,6.85,0,10.28a1.87,1.87,0,0,0,1.83,1.89,1.88,1.88,0,0,1,1.93,2q0,6.65,0,13.3a1.89,1.89,0,1,1-3.77,0c0-3.8,0-7.61,0-11.41a.57.57,0,0,0-.4-.62,5.56,5.56,0,0,1-3.28-4.1c0-.14-.07-.27-.1-.4Z"/><path d="M18,7.81a7.45,7.45,0,0,1,2.57,1.08,5.65,5.65,0,1,1-4.39-1l.31-.1Zm-.72,3.77a1.89,1.89,0,1,0,1.85,1.93A1.89,1.89,0,0,0,17.28,11.58Z"/><path d="M36.66,11.58h8a7.55,7.55,0,0,1,7.71,7.69c0,2.77,0,5.53,0,8.3a1.89,1.89,0,1,1-3.77-.06c0-2.69,0-5.37,0-8.06a3.79,3.79,0,0,0-4.08-4.09H28.21a1.89,1.89,0,1,1,0-3.77Z"/><path d="M48.56,39.88c0-.94,0-1.82,0-2.7a1.89,1.89,0,1,1,3.77,0v2.55a1.5,1.5,0,0,0,0,.17c.62,0,1.26,0,1.9,0a1.86,1.86,0,0,1,1.79,1.46,1.84,1.84,0,0,1-.94,2.07,2.25,2.25,0,0,1-1,.23H28.61a1.88,1.88,0,1,1,.05-3.76h19.9Z"/><path d="M22.9,44.08c0,3.36,0,6.73,0,10.09a1.89,1.89,0,0,1-3.77.14c0-.36,0-.72,0-1.08q0-9.55,0-19.09a1.9,1.9,0,0,1,1.16-1.93A1.87,1.87,0,0,1,22.9,34C22.91,37.36,22.9,40.72,22.9,44.08Z"/></svg>