<svg xmlns="http://www.w3.org/2000/svg" xmlns:xlink="http://www.w3.org/1999/xlink" x="0px" y="0px" viewBox="0 0 70 128"
	style="enable-background:new 0 0 70 128;" xml:space="preserve">
	<style type="text/css">
		.st0 {
			fill: #68c4b4;
		}
	</style>
	<g>
		<path class="st0" d="M45,76.8c0,8-3.1,15.5-8.7,21.1c-5.6,5.6-13.1,8.7-21.1,8.7H4.8v20.2h10.4c13.4,0,26-5.2,35.4-14.6
		c9.4-9.4,14.6-22,14.6-35.4V39.5L45,59.7V76.8L45,76.8z" />
		<path class="st0" d="M19.4,46.7C10,56.2,4.8,68.7,4.8,82.1v15.6h10.1c5.6,0,10.1-4.5,10.1-10.1v-5.5c0-8,3.1-15.5,8.7-21.1
		l31.5-31.5V0.9L19.4,46.7z" />
	</g>
</svg>