<?xml version="1.0" encoding="utf-8"?>
<!-- Generator: Adobe Illustrator 25.0.0, SVG Export Plug-In . SVG Version: 6.00 Build 0)  -->
<svg version="1.1" id="Layer_1" xmlns="http://www.w3.org/2000/svg" xmlns:xlink="http://www.w3.org/1999/xlink" x="0px" y="0px"
	 viewBox="0 0 30 30" style="enable-background:new 0 0 30 30;" xml:space="preserve">
<style type="text/css">
	.st0{fill:#EA222B;}
	.st1{fill:#F37E21;}
</style>
<path class="st0" d="M29.2,2.3c0.1,0,0.2,0,0.2,0c0.3,0,0.5,0.2,0.5,0.5C30,2.9,30,3,30,3c0,1.4,0,2.8,0,4.2c0,0.2-0.1,0.4-0.2,0.6
	c-0.1,0.1-0.2,0.1-0.3,0.1c-1.8,0-3.5,0.6-5,1.6c-0.9,0.6-1.6,1.2-2.3,2c-0.4,0.5-0.8,0.9-1.3,1.3c-1.2,1.1-2.6,1.7-4.2,2
	C15.8,14.9,15,15,14.2,15c-0.8,0-1.7,0-2.5,0c-0.1,0-0.3,0-0.4-0.1c-0.2-0.1-0.3-0.3-0.3-0.5c0-0.6,0-1.2,0-1.8c0-0.8,0-1.6,0-2.4
	c0-0.1,0-0.2,0-0.3c0.1-0.3,0.3-0.4,0.6-0.4c0.4,0,0.8,0,1.2,0c0.4,0,0.8,0,1.2,0c0.9-0.1,1.8-0.3,2.6-0.7c1.3-0.5,2.4-1.3,3.4-2.3
	c1-1,2.1-1.9,3.3-2.6c1-0.6,2.2-1.1,3.4-1.4c0.5-0.1,0.9-0.2,1.4-0.2c0.1,0,0.2,0,0.3,0C28.7,2.3,29,2.3,29.2,2.3z"/>
<path class="st0" d="M8.1,15.8c2.1,0,4.3,0,6.4,0c1.4,0,2.8-0.3,4.1-0.8c0.7-0.3,1.4-0.7,2.1-1.1c0.2-0.1,0.4-0.3,0.5-0.4
	c0.2-0.1,0.4-0.2,0.6,0c0.2,0.1,0.3,0.2,0.3,0.4c0,0.1,0,0.1,0,0.2c0,1.2,0,2.5,0,3.7c0,0.5-0.2,1-0.6,1.4c-0.8,0.8-1.8,1.3-2.9,1.6
	c-0.8,0.3-1.7,0.5-2.5,0.5c-0.6,0-1.1,0.1-1.7,0.1c-4.5,0-8.9,0-13.4,0c-0.1,0-0.3,0-0.4,0C0.3,21.2,0,20.9,0,20.5
	c0-1.3,0-2.5,0-3.8c0-0.5,0.4-0.9,0.9-0.9c0.9,0,1.7,0,2.6,0C5,15.8,6.6,15.8,8.1,15.8C8.1,15.8,8.1,15.8,8.1,15.8z"/>
<path class="st1" d="M17.4,22.2c1.5,0,2.8,1.2,2.7,2.7c0,1.6-1.3,2.7-2.7,2.7c-1.5,0-2.7-1.3-2.7-2.7C14.7,23.3,16.1,22.2,17.4,22.2
	z"/>
<path class="st1" d="M30,11.7c0,1.5-1.3,2.7-2.7,2.7c-1.4,0-2.7-1.2-2.7-2.7c0-1.6,1.3-2.7,2.7-2.7C28.6,9,30,10.1,30,11.7z"/>
<path class="st1" d="M4.7,27.7c-1.4,0-2.7-1.1-2.7-2.7c0-1.7,1.4-2.7,2.7-2.7c1.5,0,2.8,1.2,2.7,2.8C7.5,26.4,6.3,27.7,4.7,27.7z"/>
<path class="st1" d="M13.8,24.9c0,1.5-1.2,2.7-2.7,2.7c-1.4,0-2.7-1.1-2.7-2.7c0-1.8,1.5-2.8,2.7-2.8C12.6,22.2,13.8,23.5,13.8,24.9
	z"/>
</svg>
