<?xml version="1.0" encoding="utf-8"?>
<!-- Generator: Adobe Illustrator 23.1.0, SVG Export Plug-In . SVG Version: 6.00 Build 0)  -->
<svg version="1.1" id="Layer_1" xmlns="http://www.w3.org/2000/svg" xmlns:xlink="http://www.w3.org/1999/xlink" x="0px" y="0px"
	 viewBox="0 0 64 64" style="enable-background:new 0 0 64 64;" xml:space="preserve">
<style type="text/css">
	.st0{fill:#F9FAFA;}
	.st1{fill:#969BA0;}
</style>
<rect class="st0" width="64" height="64"/>
<g>
	<path class="st1" d="M49.7,21.3c0-0.2-0.3-0.4-0.5-0.4H14.5c-0.2,0-0.4,0.2-0.5,0.4L11.9,32v3.9c0,0.3,0.2,0.5,0.5,0.5h1.7v12.8
		c0,0.3,0.2,0.5,0.5,0.5h21.2c0.3,0,0.5-0.2,0.5-0.5V36.9c0-0.3,0.2-0.5,0.5-0.5h7.9c0.3,0,0.5,0.2,0.5,0.5v12.3
		c0,0.3,0.2,0.5,0.5,0.5h3.4c0.3,0,0.5-0.2,0.5-0.5V36.4h1.7c0.3,0,0.5-0.2,0.5-0.5V32L49.7,21.3z M31.4,45.3H19.1
		c-0.3,0-0.5-0.2-0.5-0.5v-7.9c0-0.3,0.2-0.5,0.5-0.5h12.3c0.3,0,0.5,0.2,0.5,0.5v7.9C31.9,45.1,31.6,45.3,31.4,45.3z"/>
	<path class="st1" d="M14.6,18.7h34.5c0.3,0,0.5-0.2,0.5-0.5v-3.4c0-0.3-0.2-0.5-0.5-0.5H14.6c-0.3,0-0.5,0.2-0.5,0.5v3.4
		C14.1,18.5,14.3,18.7,14.6,18.7z"/>
</g>
</svg>
