<svg xmlns="http://www.w3.org/2000/svg" xmlns:xlink="http://www.w3.org/1999/xlink" x="0px" y="0px"
	viewBox="0 0 722.8 295.5" style="enable-background:new 0 0 722.8 295.5;" xml:space="preserve">
	<style type="text/css">
		.st0 {
			fill: black;
		}
	</style>
	<g>
		<g>
			<path class="st0" d="M202.5,190.8v-45.1h-37.9c-10.1,0-19.6,3.9-26.8,11.1c-7.2,7.2-11.1,16.7-11.1,26.8c0,20.9,17,37.9,37.9,37.9
			h14.6v16.1h23.3v-16.1h20.3v-23.3h-13C205.8,198.2,202.5,194.9,202.5,190.8z M179.2,169.1v29.2h-4.9h-9.7c-3.9,0-7.6-1.5-10.3-4.3
			c-2.8-2.8-4.3-6.5-4.3-10.3c0-8,6.5-14.6,14.6-14.6H179.2z" />
			<path class="st0"
				d="M520.4,167.1c-3-9.4-10.5-16.9-19.9-19.9c-3-1-6.2-1.5-9.4-1.5h-14l24.4-24.4V91.1L446,146.6v22.4h45.1
			c4.1,0,7.4,3.3,7.4,7.4v21.8h-70.8c0.6-2.4,0.9-4.9,0.9-7.4v-24.8h-23.3v24.8c0,4.1-3.3,7.4-7.4,7.4H387c0.6-2.4,0.9-4.9,0.9-7.4
			v-24.8h-23.3v24.8c0,4.1-3.3,7.4-7.4,7.4h-10.9c0.6-2.4,0.9-4.9,0.9-7.4v-24.8h-23.3v24.8c0,4.1-3.3,7.4-7.4,7.4h-10.8
			c0.6-2.4,0.9-4.9,0.9-7.4v-24.8h-23.3v24.8c0,4.1-3.3,7.4-7.4,7.4H263v23.3h258.9v-45.1C521.9,173.3,521.4,170.1,520.4,167.1z" />
			<path class="st0" d="M107.1,156.8L107.1,156.8c-7.2-7.2-16.7-11.1-26.8-11.1H42.4v45.1c0,4.1-3.3,7.4-7.4,7.4h-8.7v23.3h54
			c10.1,0,19.6-3.9,26.8-11.1c2.9-2.9,5.4-6.3,7.2-10c2.6-5.2,3.9-10.9,3.9-16.8s-1.3-11.5-3.9-16.8
			C112.5,163.2,110.1,159.8,107.1,156.8z M94.9,183.7c0,3.9-1.5,7.5-4.3,10.3c-2.8,2.8-6.4,4.3-10.3,4.3H65.7v-29.2h14.6
			c3.9,0,7.5,1.5,10.3,4.3C93.4,176.1,94.9,179.8,94.9,183.7z" />
			<rect x="231.3" y="198.3" class="st0" width="23.3" height="23.3" />
		</g>
		<g>
			<path class="st0" d="M621.5,282.9" />
			<path class="st0" d="M656.5,162.8c0,15.8-6.1,30.7-17.3,41.8c-11.1,11.1-26,17.3-41.7,17.3l-20.6,0v40h20.5
			c26.5,0,51.4-10.3,70.1-29c18.7-18.7,29-43.6,29-70.1V89.1l-40,40L656.5,162.8L656.5,162.8z" />
			<path class="st0" d="M605.8,103.3c-18.7,18.7-29,43.6-29,70.1v30.8h20c11,0,20-9,20-20v-10.8c0-15.8,6.2-30.7,17.3-41.8l62.3-62.3
			V12.6L605.8,103.3z" />
		</g>
	</g>
</svg>