<svg xmlns="http://www.w3.org/2000/svg" viewBox="0 0 500 500"><defs><style>.cls-1{fill:#ebebeb;}.cls-2,.cls-7{fill:#27debf;}.cls-2,.cls-4{opacity:0.91;}.cls-3{opacity:0.1;}.cls-12,.cls-13,.cls-5{fill:#fff;}.cls-6{fill:#07c499;}.cls-8{fill:#37474f;}.cls-9{fill:#263238;}.cls-10{fill:#455a64;}.cls-11{fill:#f5f5f5;}.cls-12{opacity:0.4;}.cls-13{opacity:0.7;}.cls-14{fill:#e6e6e6;}</style></defs><title>Mesa de trabajo 1</title><g id="Floor"><g id="Floor-2" data-name="Floor"><path class="cls-1" d="M125.18,420.06c78.46,41.88,205.68,41.88,284.14,0s78.46-109.79,0-151.67-205.68-41.89-284.15,0S46.71,378.17,125.18,420.06Z"/></g></g><g id="Plants"><g id="Plants-2" data-name="Plants"><path class="cls-2" d="M432.4,316.15,421,309.54S418.14,285,420,266c2.62-26.68,19.85-58.79,40.41-51.25s-9.42,34.72-16.1,57.35S432.4,316.15,432.4,316.15Z"/><path class="cls-3" d="M432.4,316.15,421,309.54S418.14,285,420,266c2.62-26.68,19.85-58.79,40.41-51.25s-9.42,34.72-16.1,57.35S432.4,316.15,432.4,316.15Z"/><g class="cls-4"><path class="cls-5" d="M426.43,313.15a.43.43,0,0,1-.43-.38c-3.9-29.91,6.76-75.2,28.27-92.37a.44.44,0,0,1,.55.69c-21.28,17-31.81,61.89-27.95,91.56a.44.44,0,0,1-.38.5Z"/></g><path class="cls-6" d="M438.51,320.88l-8.15-4.7s-1.39-16.83,6.86-37.27c7.19-17.79,25-32.55,34-29.45s8.74,9.46,4.37,16.12S444.6,288.14,438.51,320.88Z"/><path class="cls-5" d="M433.46,321.33h0a.44.44,0,0,1-.41-.47c2.68-41.88,23.86-62.47,36.59-65.62a.45.45,0,0,1,.53.33.44.44,0,0,1-.32.53c-13.4,3.32-33.41,25.61-35.92,64.81A.45.45,0,0,1,433.46,321.33Z"/><path class="cls-7" d="M102.7,319.41s1.52-24.59-12.77-41.43-32.87-16.8-39-13.66-10.29,12.11.31,18.54,33.11,19.26,36.85,30.73Z"/><path class="cls-6" d="M102.7,319.41s1.52-24.59-12.77-41.43-32.87-16.8-39-13.66-10.29,12.11.31,18.54,33.11,19.26,36.85,30.73Z"/><path class="cls-5" d="M96,313.26a.55.55,0,0,1-.55-.5c-3-27.2-30.14-42.28-41-44a.55.55,0,0,1-.46-.63.57.57,0,0,1,.64-.46c11.08,1.74,38.89,17.16,41.9,45a.56.56,0,0,1-.49.61Z"/><path class="cls-6" d="M90.74,307c-3.58-8.16-7.63-11.82-19.28-9.88s-9.93,1.65-24.23-2c-6-1.53-12.77-1.77-18.53.82-4.87,2.19-8.51,6.66-3.79,11.38,5.3,5.3,13.21,7.08,19.09,11.73a9.18,9.18,0,0,1,3.06,3.69c1.54,3.93-1.54,8.35-.64,12.47s5.22,6.3,9.29,6.57,8.06-.95,12.11-1.41,8.59,0,11.38,3c3,3.19,3.07,8.28,5.85,11.66,4.18,5.07,14.45,6.47,20,3.3L119.52,350c9.6-12.93-5.49-23.18-13.47-33.21C102.19,311.91,92.89,311.92,90.74,307Z"/><path class="cls-5" d="M110.51,342.2a.56.56,0,0,1-.47-.26c-16.56-26.83-61.59-40.4-77.58-41.53a.57.57,0,0,1-.52-.6.58.58,0,0,1,.6-.51c16.15,1.15,61.67,14.88,78.44,42.06a.54.54,0,0,1-.18.76A.51.51,0,0,1,110.51,342.2Z"/><path class="cls-5" d="M58.06,329.56a.54.54,0,0,1-.44-.22.56.56,0,0,1,.11-.78c.58-.43,14.33-10.52,27.69-10.73h0a.55.55,0,0,1,.55.55.54.54,0,0,1-.54.56c-13,.2-26.91,10.41-27,10.51A.57.57,0,0,1,58.06,329.56Z"/></g></g><g id="Device"><g id="Laptop"><path class="cls-8" d="M109.48,351.63a10.3,10.3,0,0,0,4.8,8l134.56,77.68a10.61,10.61,0,0,0,9.6,0L442.55,331a9,9,0,0,0,0-15.95L308,237.37a10.55,10.55,0,0,0-9.6,0L114.28,343.66A10.3,10.3,0,0,0,109.48,351.63Z"/><path class="cls-9" d="M165,314.38l-50.71,29.28a9,9,0,0,0,0,15.95l134.56,77.68a9.74,9.74,0,0,0,4.8,1.15V314.38Z"/><path class="cls-10" d="M105,343.83a10.3,10.3,0,0,1-4.51-8.15V175.11a10.61,10.61,0,0,1,4.8-8.31L289.38,60.5a10.33,10.33,0,0,1,9.31-.17,10.33,10.33,0,0,1,4.5,8.15V229.05a10.64,10.64,0,0,1-4.8,8.32L114.28,343.66A10.28,10.28,0,0,1,105,343.83Z"/><path class="cls-9" d="M123,182.57l-21.12-12.19a9.82,9.82,0,0,0-1.41,4.73V335.68a10.3,10.3,0,0,0,4.51,8.15,10.28,10.28,0,0,0,9.3-.17l21-12.13Z"/><path class="cls-8" d="M109.48,180.32V340.89c0,3.06,2.15,4.3,4.8,2.77L298.39,237.37a10.64,10.64,0,0,0,4.8-8.32V68.48c0-3.06-2.15-4.31-4.8-2.77L114.28,172A10.61,10.61,0,0,0,109.48,180.32Z"/><path class="cls-10" d="M114.28,349.2l134.56,77.69a10.61,10.61,0,0,0,9.6,0l184.11-106.3c2.65-1.53,2.65-4,0-5.54L308,237.37a10.55,10.55,0,0,0-9.6,0L114.28,343.66C111.63,345.19,111.63,347.67,114.28,349.2Z"/><path class="cls-5" d="M116.87,180.91,295.81,77.6c1.59-.92,2.88-.17,2.88,1.66v139a6.37,6.37,0,0,1-2.88,5L116.87,326.56c-1.6.92-2.89.17-2.89-1.66v-139A6.35,6.35,0,0,1,116.87,180.91Z"/><path class="cls-9" d="M129.9,345.05l170.89-98.67a5.34,5.34,0,0,1,4.8,0l8.74,5.05c1.33.77,1.33,2,0,2.77L143.42,352.85a5.34,5.34,0,0,1-4.8,0l-8.72-5C128.57,347.05,128.57,345.81,129.9,345.05Z"/><path class="cls-9" d="M152.43,358.05l170.89-98.66a5.28,5.28,0,0,1,4.8,0l53.76,31c1.32.76,1.32,2,0,2.77L211.19,391.73a5.33,5.33,0,0,1-4.81,0l-53.95-30.92C151.1,360.05,151.1,358.82,152.43,358.05Z"/><path class="cls-10" d="M305.61,303.78l5.35-3.09c.23-.13.22-.36,0-.5l-6.18-3.57a1,1,0,0,0-.86,0l-5.35,3.09c-.23.13-.21.35,0,.5l6.19,3.57A.94.94,0,0,0,305.61,303.78ZM295.05,291.5l-5.35,3.09c-.22.13-.21.35,0,.49l6.19,3.58a.94.94,0,0,0,.85,0l5.35-3.09c.23-.13.22-.35,0-.49l-6.18-3.57A1,1,0,0,0,295.05,291.5Zm-17.28,10-9.06,5.23c-.22.13-.21.35,0,.49l6.19,3.57a.91.91,0,0,0,.85,0l9.06-5.23c.23-.13.21-.35,0-.49l-6.19-3.57A.94.94,0,0,0,277.77,301.48Zm9.46-5.46-5.35,3.09c-.22.13-.21.35,0,.49l6.19,3.57a.94.94,0,0,0,.85,0l5.35-3.09c.23-.13.22-.35,0-.49L288.09,296A.93.93,0,0,0,287.23,296Zm-21,12.12-5.35,3.08c-.22.14-.21.36,0,.5l6.19,3.57a.94.94,0,0,0,.85,0l5.35-3.09c.23-.13.22-.35,0-.5l-6.18-3.57A.93.93,0,0,0,266.24,308.14Zm-7.82,4.51-5.35,3.09c-.22.13-.21.35,0,.49l6.19,3.57a.94.94,0,0,0,.85,0l5.35-3.09c.23-.13.22-.35,0-.49l-6.18-3.57A1,1,0,0,0,258.42,312.65Zm24.34,14.53,5.35-3.09c.23-.13.21-.36,0-.5L281.89,320a.94.94,0,0,0-.85,0l-5.35,3.09c-.23.13-.22.36,0,.5l6.19,3.57A.94.94,0,0,0,282.76,327.18Zm-7.82,4.51,5.35-3.09c.23-.13.21-.35,0-.49l-6.19-3.57a.94.94,0,0,0-.85,0l-5.35,3.09c-.23.13-.21.35,0,.49l6.19,3.57A.94.94,0,0,0,274.94,331.69Zm-7.82,4.52,5.35-3.09c.23-.13.21-.36,0-.5l-6.19-3.57a.94.94,0,0,0-.85,0l-5.35,3.09c-.23.13-.21.36,0,.5l6.19,3.57A.94.94,0,0,0,267.12,336.21Zm-7.82,4.51,5.35-3.09c.23-.13.21-.35,0-.49l-6.19-3.57a.94.94,0,0,0-.85,0l-5.35,3.09c-.23.13-.21.35,0,.49l6.19,3.57A.94.94,0,0,0,259.3,340.72Zm38.49-32.43,5.35-3.09c.23-.13.22-.35,0-.49l-6.18-3.57a1,1,0,0,0-.86,0l-5.35,3.09c-.23.13-.21.35,0,.49l6.19,3.57A.94.94,0,0,0,297.79,308.29Zm-7.21,14.37,11.94-6.89c.22-.13.21-.35,0-.49l-15-8.68a.94.94,0,0,0-.85,0l-6.18,3.57c-.22.13-.21.35,0,.49l8,4.59c.24.15.26.37,0,.5l-4.94,2.85c-.23.13-.22.35,0,.49l6.19,3.57A.94.94,0,0,0,290.58,322.66Zm-40-5.5-5.35,3.09c-.22.14-.21.36,0,.5l6.19,3.57a.94.94,0,0,0,.85,0l5.35-3.09c.23-.13.22-.35,0-.5l-6.18-3.57A1,1,0,0,0,250.6,317.16Zm-7.82,4.52-5.35,3.09c-.22.13-.21.35,0,.49l6.19,3.57a.94.94,0,0,0,.85,0l5.35-3.09c.23-.13.22-.35,0-.49l-6.18-3.57A1,1,0,0,0,242.78,321.68Zm-39.07,50.63a.91.91,0,0,0,.85,0l5.35-3.08c.23-.14.21-.36,0-.5l-6.19-3.57a.94.94,0,0,0-.85,0l-5.35,3.09c-.23.13-.22.35,0,.5ZM180.22,357.8l-5.35,3.09c-.22.13-.21.35,0,.49l6.19,3.57a.94.94,0,0,0,.85,0l5.35-3.09c.23-.13.22-.35,0-.49l-6.18-3.57A1,1,0,0,0,180.22,357.8Zm12.59,10.59a.94.94,0,0,0,.85,0l5.35-3.09c.23-.13.22-.35,0-.49l-6.18-3.57a1,1,0,0,0-.86,0l-5.35,3.09c-.23.13-.21.35,0,.49Zm24.7,6.66,5.35-3.09c.23-.13.22-.35,0-.49l-6.18-3.57a1,1,0,0,0-.86,0L210.44,371c-.22.13-.21.35,0,.49l6.19,3.57A.94.94,0,0,0,217.51,375.05Zm-8.67,4.5a.94.94,0,0,0,.85,0l5.35-3.09c.23-.13.22-.35,0-.5l-6.18-3.57a1,1,0,0,0-.86,0l-5.35,3.09c-.22.14-.21.36,0,.5ZM188,353.28l-5.35,3.09c-.22.13-.21.36,0,.5l6.19,3.57a.94.94,0,0,0,.85,0l5.35-3.09c.23-.13.22-.36,0-.5l-6.18-3.57A1,1,0,0,0,188,353.28Zm39.1-22.57-5.35,3.09c-.22.13-.21.35,0,.49l6.19,3.57a.94.94,0,0,0,.85,0l5.35-3.09c.23-.13.22-.35,0-.49L228,330.73A1,1,0,0,0,227.14,330.71Zm-31.28,18.06-5.35,3.09c-.22.13-.21.35,0,.49l6.19,3.57a.94.94,0,0,0,.85,0l5.35-3.09c.23-.13.22-.35,0-.49l-6.18-3.57A1,1,0,0,0,195.86,348.77ZM235,326.19l-5.35,3.09c-.22.13-.21.36,0,.5l6.19,3.57a.94.94,0,0,0,.85,0l5.35-3.09c.23-.13.22-.35,0-.5l-6.18-3.57A1,1,0,0,0,235,326.19Zm-15.64,9L214,338.31c-.22.13-.21.36,0,.5l6.19,3.57a.94.94,0,0,0,.85,0l5.35-3.09c.23-.13.22-.36,0-.5l-6.18-3.57A1,1,0,0,0,219.32,335.22Zm-7.82,4.52-5.35,3.09c-.22.13-.21.35,0,.49l6.19,3.57a.94.94,0,0,0,.85,0l5.35-3.09c.23-.13.22-.35,0-.49l-6.18-3.57A1,1,0,0,0,211.5,339.74Zm-7.82,4.51-5.35,3.09c-.22.13-.21.36,0,.5l6.19,3.57a.94.94,0,0,0,.85,0l5.35-3.09c.23-.13.22-.36,0-.5l-6.18-3.57A1,1,0,0,0,203.68,344.25Zm40,5.5,5.35-3.09c.23-.13.21-.35,0-.49l-6.19-3.57a.94.94,0,0,0-.85,0l-5.35,3.09c-.23.13-.22.35,0,.49l6.19,3.57A.94.94,0,0,0,243.66,349.75Zm68.68-68.23L307,284.61c-.23.13-.21.35,0,.49l6.19,3.57a.91.91,0,0,0,.85,0l5.35-3.09c.23-.13.21-.35,0-.49l-6.19-3.57A.94.94,0,0,0,312.34,281.52ZM302.87,287l-5.35,3.09c-.22.13-.21.35,0,.49l6.19,3.57a.94.94,0,0,0,.85,0l5.35-3.09c.23-.13.22-.35,0-.49L303.73,287A1,1,0,0,0,302.87,287Zm17.29-10-5.35,3.09c-.23.13-.21.35,0,.49l6.19,3.57a.94.94,0,0,0,.85,0l5.35-3.09c.23-.13.22-.35,0-.49L321,277A.91.91,0,0,0,320.16,277Zm-40.48,41.74,5.35-3.09c.23-.13.22-.35,0-.5l-6.18-3.57a1,1,0,0,0-.86,0l-5.35,3.09c-.22.13-.21.36,0,.5l6.19,3.57A.94.94,0,0,0,279.68,318.75Zm49.15-46.24a.94.94,0,0,0-.85,0l-5.35,3.09c-.23.13-.21.35,0,.49l6.19,3.58a.94.94,0,0,0,.85,0l5.35-3.09c.23-.13.22-.35,0-.49Zm-77.35,72.73,5.35-3.09c.23-.14.21-.36,0-.5l-6.19-3.57a.94.94,0,0,0-.85,0l-5.35,3.09c-.23.13-.22.36,0,.5l6.19,3.57A.94.94,0,0,0,251.48,345.24Zm95.9-55.37,5.35-3.09c.23-.13.21-.35,0-.49l-6.19-3.58a.94.94,0,0,0-.85,0l-5.35,3.09c-.23.13-.22.35,0,.49l6.18,3.57A1,1,0,0,0,347.38,289.87Zm-16.66-.59,5.35-3.09c.23-.13.21-.35,0-.49l-6.19-3.57a.94.94,0,0,0-.85,0l-5.35,3.09c-.23.13-.22.35,0,.49l6.19,3.57A.94.94,0,0,0,330.72,289.28Zm6.95-11.67a.94.94,0,0,0-.85,0l-5.35,3.09c-.23.13-.22.36,0,.5l6.19,3.57a.94.94,0,0,0,.85,0l5.35-3.09c.23-.13.21-.36,0-.5Zm1.65-.95,15,8.68a1,1,0,0,0,.86,0l5.35-3.09c.23-.13.21-.35,0-.49l-15-8.67a.94.94,0,0,0-.85,0l-5.35,3.09C339.06,276.3,339.07,276.52,339.32,276.66Zm-18.14,10-5.35,3.09c-.23.13-.22.36,0,.5l6.19,3.57a.94.94,0,0,0,.85,0l5.35-3.09c.23-.14.21-.36,0-.5L322,286.64A.94.94,0,0,0,321.18,286.62Zm-58.86,34L257,323.69c-.23.13-.21.36,0,.5l6.19,3.57a.94.94,0,0,0,.85,0l5.35-3.09c.23-.13.22-.36,0-.5l-6.18-3.57A1,1,0,0,0,262.32,320.6Zm76.38-26.23a1,1,0,0,0,.86,0l5.35-3.09c.23-.13.21-.35,0-.49l-6.19-3.57a.94.94,0,0,0-.85,0l-5.35,3.09c-.23.13-.22.35,0,.49Zm-68.56,21.72-5.35,3.09c-.23.13-.21.35,0,.49l6.19,3.57a.94.94,0,0,0,.85,0l5.35-3.09c.23-.13.22-.35,0-.49L271,316.11A1,1,0,0,0,270.14,316.09Zm-58.61,51.7a.94.94,0,0,0,.85,0l5.35-3.09c.23-.13.21-.35,0-.49l-6.19-3.57a.91.91,0,0,0-.85,0l-5.35,3.09c-.23.13-.21.35,0,.49Zm-11.77-11.07-5.35,3.09c-.23.13-.21.35,0,.5l6.19,3.57a.94.94,0,0,0,.85,0l5.35-3.09c.23-.14.22-.36,0-.5l-6.18-3.57A1,1,0,0,0,199.76,356.72Zm20.44,6.57,5.35-3.08c.23-.14.21-.36,0-.5l-6.19-3.57a.94.94,0,0,0-.85,0l-5.35,3.09c-.23.13-.22.35,0,.5l6.19,3.57A.91.91,0,0,0,220.2,363.29Zm7.82-4.51,5.35-3.09c.23-.13.21-.35,0-.49l-6.19-3.57a.94.94,0,0,0-.85,0L221,354.7c-.23.13-.22.35,0,.49l6.19,3.57A.94.94,0,0,0,228,358.78Zm7.82-4.52,5.35-3.08c.23-.14.21-.36,0-.5L235,347.11a.94.94,0,0,0-.85,0l-5.35,3.09c-.23.13-.22.36,0,.5l6.19,3.57A.91.91,0,0,0,235.84,354.26Zm-28.26-2.05-5.35,3.09c-.23.13-.21.35,0,.49l6.19,3.57a.94.94,0,0,0,.85,0l5.35-3.09c.23-.13.22-.35,0-.49l-6.18-3.57A1,1,0,0,0,207.58,352.21Zm7.82-4.52-5.35,3.09c-.23.13-.21.35,0,.5l6.19,3.57a.94.94,0,0,0,.85,0l5.35-3.09c.23-.14.22-.36,0-.5l-6.18-3.57A1,1,0,0,0,215.4,347.69Zm31.28-18.06-5.35,3.09c-.23.13-.21.36,0,.5l6.19,3.57a.94.94,0,0,0,.85,0l5.35-3.09c.23-.13.22-.36,0-.5l-6.18-3.57A1,1,0,0,0,246.68,329.63Zm-7.82,4.52-5.35,3.09c-.22.13-.21.35,0,.49l6.19,3.57a.94.94,0,0,0,.85,0l5.35-3.09c.23-.13.22-.35,0-.49l-6.18-3.57A1,1,0,0,0,238.86,334.15Zm15.64-9-5.35,3.09c-.23.13-.21.35,0,.49l6.19,3.57a.94.94,0,0,0,.85,0l5.35-3.09c.23-.13.22-.35,0-.49l-6.18-3.57A1,1,0,0,0,254.5,325.12Zm-31.28,18.06-5.35,3.09c-.22.13-.21.35,0,.49l6.19,3.57a.94.94,0,0,0,.85,0l5.35-3.09c.23-.13.22-.35,0-.49l-6.18-3.57A1,1,0,0,0,223.22,343.18Zm7.82-4.52-5.35,3.09c-.23.13-.21.36,0,.5l6.19,3.57a.94.94,0,0,0,.85,0l5.35-3.09c.23-.13.22-.36,0-.5l-6.18-3.57A1,1,0,0,0,231,338.66Zm-5.71,31.88,5.35-3.09c.23-.13.22-.35,0-.5l-6.18-3.57a.93.93,0,0,0-.86,0l-5.35,3.08c-.22.14-.21.36,0,.5l6.19,3.57A.94.94,0,0,0,225.33,370.54Zm-45.89-4.64-6.18-3.57a1,1,0,0,0-.86,0l-5.35,3.09c-.23.13-.21.35,0,.5l6.19,3.57a.94.94,0,0,0,.85,0l5.35-3.09C179.7,366.27,179.69,366,179.44,365.9Zm11.72,3.44L185,365.77a1,1,0,0,0-.86,0l-8.23,4.76c-.23.13-.21.35,0,.49l6.19,3.57a.94.94,0,0,0,.85,0l8.23-4.75C191.42,369.7,191.41,369.48,191.16,369.34ZM170,359l-6.19-3.57a.91.91,0,0,0-.85,0l-6.58,3.8c-.23.13-.22.35,0,.49l6.18,3.57a.93.93,0,0,0,.86,0l6.58-3.8C170.21,359.36,170.2,359.14,170,359Zm5.05-2.92a.94.94,0,0,0,.85,0L181.2,353c.23-.13.22-.35,0-.49L175,349a1,1,0,0,0-.86,0L168.78,352c-.22.13-.21.35,0,.49Zm27.06,17.18-6.19-3.57a.94.94,0,0,0-.85,0l-10.29,5.94c-.23.13-.21.35,0,.49l6.19,3.57a.94.94,0,0,0,.85,0l10.29-5.94C202.32,373.62,202.3,373.4,202.06,373.26Zm5.13,7.24L201,376.93a1,1,0,0,0-.86,0l-6.58,3.8c-.23.13-.22.35,0,.49l6.19,3.58a.91.91,0,0,0,.85,0l6.58-3.8C207.45,380.86,207.44,380.64,207.19,380.5Zm25.95-58a1,1,0,0,0,.86,0l5.35-3.09c.22-.13.21-.35,0-.49l-6.19-3.57a.94.94,0,0,0-.85,0l-5.35,3.09c-.23.13-.22.35,0,.49Zm-15.64,9a1,1,0,0,0,.86,0l5.35-3.09c.22-.13.21-.35,0-.49l-6.19-3.57a.94.94,0,0,0-.85,0l-5.35,3.09c-.23.13-.22.35,0,.49Zm-34.68,20a.94.94,0,0,0,.85,0L189,348.5c.23-.14.22-.36,0-.5l-6.18-3.57a1,1,0,0,0-.86,0l-5.35,3.09c-.22.13-.21.35,0,.5ZM225.32,327a1,1,0,0,0,.86,0l5.35-3.09c.22-.13.21-.35,0-.5l-6.19-3.57a.94.94,0,0,0-.85,0L219.11,323c-.23.14-.22.36,0,.5Zm-15.64,9a1,1,0,0,0,.86,0l5.35-3.09c.22-.13.21-.36,0-.5l-6.19-3.57a.94.94,0,0,0-.85,0L203.47,332c-.23.14-.22.36,0,.5Zm1.81,45a.94.94,0,0,0-.85,0l-8.23,4.75c-.23.14-.22.36,0,.5l6.18,3.57a1,1,0,0,0,.86,0l8.23-4.76c.23-.13.21-.35,0-.49Zm-13-38.54a.94.94,0,0,0,.85,0l5.35-3.09c.23-.14.22-.36,0-.5l-6.18-3.57a1,1,0,0,0-.86,0l-5.35,3.09c-.22.13-.21.35,0,.5Zm-7.82,4.51a.94.94,0,0,0,.85,0l5.35-3.09c.23-.13.22-.35,0-.49l-6.18-3.57a1,1,0,0,0-.86,0L184.42,343c-.22.13-.21.35,0,.49Zm165.73-49.61a.93.93,0,0,0-.86,0L342.34,305c-.22.13-.21.35,0,.49l6.19,3.58a.91.91,0,0,0,.85,0l13.18-7.6c.22-.13.21-.35,0-.49Zm-17.29,10a.91.91,0,0,0-.85,0l-5.35,3.09c-.23.13-.22.35,0,.49l6.18,3.57a1,1,0,0,0,.86,0l5.35-3.09c.23-.13.21-.35,0-.49ZM233.15,366l5.35-3.09c.23-.13.22-.35,0-.49l-6.18-3.57a1,1,0,0,0-.86,0l-5.35,3.09c-.22.13-.21.35,0,.49L232.3,366A.91.91,0,0,0,233.15,366Zm90.29-49.57a.91.91,0,0,0-.85,0l-5.35,3.09c-.23.13-.22.35,0,.49l6.18,3.57a1,1,0,0,0,.86,0l5.35-3.09c.23-.13.21-.35,0-.49Zm40.75-23.53a1,1,0,0,0-.86,0L358,296c-.22.13-.21.35,0,.49l6.19,3.58a.91.91,0,0,0,.85,0l5.36-3.08c.22-.14.21-.36,0-.5Zm14-.94-15-8.68a.94.94,0,0,0-.85,0L357,286.37c-.23.14-.22.36,0,.5l15,8.67a.94.94,0,0,0,.85,0l5.36-3.09C378.45,292.34,378.44,292.12,378.2,292Zm-84,41.34a.94.94,0,0,0-.85,0l-6.59,3.8c-.23.13-.21.35,0,.49l6.19,3.58a.94.94,0,0,0,.85,0l6.59-3.8c.22-.13.21-.35,0-.49ZM314,321.91a1,1,0,0,0-.86,0l-8.23,4.76c-.23.13-.21.35,0,.49l6.19,3.57a.94.94,0,0,0,.85,0l8.23-4.75c.23-.14.22-.36,0-.5Zm-37.87,21.86a.94.94,0,0,0-.85,0l-44,25.43c-.23.13-.22.35,0,.49l6.18,3.58a1,1,0,0,0,.86,0l44-25.42c.22-.13.21-.35,0-.5ZM229.6,370.62a.94.94,0,0,0-.85,0l-6.59,3.8c-.23.13-.21.35,0,.49l6.19,3.57a.94.94,0,0,0,.85,0l6.59-3.8c.23-.13.21-.35,0-.49Zm55.56-32.08a.94.94,0,0,0-.85,0l-6.58,3.8c-.23.13-.22.35,0,.49l6.18,3.57a.93.93,0,0,0,.86,0l6.58-3.8c.23-.13.22-.35,0-.49Zm-64.61,37.31a1,1,0,0,0-.86,0l-6.58,3.81c-.23.13-.22.35,0,.49l6.18,3.57a1,1,0,0,0,.86,0l6.58-3.8c.23-.13.22-.36,0-.5Zm82.72-47.76a.94.94,0,0,0-.85,0l-6.59,3.8c-.22.13-.21.36,0,.5l6.18,3.57a1,1,0,0,0,.86,0l6.58-3.81c.23-.13.22-.35,0-.49Zm28-16.16a.94.94,0,0,0-.85,0L325.06,315c-.23.13-.22.35,0,.49l6.18,3.58a.93.93,0,0,0,.86,0l5.35-3.08c.23-.14.21-.36,0-.5Zm17.14-12.44,5.35-3.09c.22-.13.21-.35,0-.5l-6.19-3.57a.94.94,0,0,0-.85,0l-5.35,3.09c-.23.13-.22.36,0,.5l6.18,3.57A1,1,0,0,0,348.4,299.49Zm-35-.23,5.35-3.09c.23-.13.22-.35,0-.49l-6.18-3.57a1,1,0,0,0-.86,0l-5.35,3.09c-.23.13-.21.35,0,.49l6.19,3.57A.94.94,0,0,0,313.43,299.26ZM295.71,329.9l15.64-9c.23-.13.22-.35,0-.49l-6.18-3.57a1,1,0,0,0-.86,0l-15.64,9c-.22.13-.21.35,0,.49l6.19,3.57A.91.91,0,0,0,295.71,329.9Zm44-25.92a1,1,0,0,0,.86,0l5.35-3.09c.22-.13.21-.35,0-.49l-6.19-3.57a.94.94,0,0,0-.85,0l-5.35,3.09c-.23.13-.22.35,0,.49Zm-8-5.08,5.35-3.09c.23-.13.21-.35,0-.49l-6.19-3.58a.94.94,0,0,0-.85,0l-5.35,3.09c-.23.13-.22.35,0,.49l6.18,3.57A1,1,0,0,0,331.74,298.9Zm-43.85,35.52,5.35-3.09c.23-.13.22-.35,0-.49L287,327.26a.93.93,0,0,0-.86,0l-5.35,3.09c-.22.13-.21.35,0,.49L287,334.4A.94.94,0,0,0,287.89,334.42ZM322.44,314a.91.91,0,0,0,.85,0l5.35-3.09c.23-.13.21-.35,0-.49l-6.19-3.57a.94.94,0,0,0-.85,0l-5.35,3.09c-.23.13-.21.35,0,.49Zm-73.65,43,5.35-3.09c.23-.13.22-.35,0-.49l-6.18-3.57a1,1,0,0,0-.86,0l-5.35,3.09c-.22.13-.21.35,0,.49l6.19,3.57A.91.91,0,0,0,248.79,357Zm7.82-4.51,5.35-3.09c.23-.13.22-.35,0-.5l-6.18-3.57a.93.93,0,0,0-.86,0l-5.35,3.08c-.22.14-.21.36,0,.5l6.19,3.57A.94.94,0,0,0,256.61,352.48Zm-15.64,9,5.35-3.09c.23-.13.22-.35,0-.5l-6.18-3.57a.93.93,0,0,0-.86,0l-5.35,3.08c-.22.14-.21.36,0,.5l6.19,3.57A.94.94,0,0,0,241,361.51Zm31.28-18.06,5.35-3.09c.23-.13.22-.35,0-.49l-6.18-3.58a.93.93,0,0,0-.86,0l-5.35,3.08c-.22.14-.21.36,0,.5l6.19,3.57A.94.94,0,0,0,272.25,343.45ZM264.43,348l5.35-3.09c.23-.13.22-.35,0-.49l-6.18-3.57a1,1,0,0,0-.86,0l-5.35,3.09c-.22.13-.21.35,0,.49l6.19,3.57A.91.91,0,0,0,264.43,348Zm15.64-9,5.35-3.09c.23-.13.22-.35,0-.49l-6.18-3.57a1,1,0,0,0-.86,0L273,334.85c-.22.13-.21.35,0,.49l6.19,3.58A.94.94,0,0,0,280.07,338.93Zm35.78-66.79a.94.94,0,0,0,.85,0l5.35-3.09c.23-.13.22-.35,0-.49l-1.64-.95a1,1,0,0,0-.86,0l-5.35,3.09c-.22.13-.21.35,0,.49ZM277.37,297a.93.93,0,0,0,.86,0l5.35-3.08c.22-.14.21-.36,0-.5l-6.19-3.57a.94.94,0,0,0-.85,0l-5.35,3.09c-.23.13-.22.35,0,.5ZM293,288a.93.93,0,0,0,.86,0l5.35-3.08c.23-.14.21-.36,0-.5L293,280.81a.94.94,0,0,0-.85,0l-5.35,3.09c-.23.13-.22.35,0,.49Zm-25.19,14.54a1,1,0,0,0,.86,0l5.35-3.09c.23-.13.21-.35,0-.49l-6.19-3.58a.91.91,0,0,0-.85,0l-5.35,3.09c-.23.13-.22.35,0,.49Zm17.37-10a1,1,0,0,0,.86,0l5.35-3.09c.22-.13.21-.35,0-.49l-6.19-3.57a.91.91,0,0,0-.85,0L279,288.4c-.23.13-.22.35,0,.49Zm-33,19.06a1,1,0,0,0,.86,0l5.35-3.09c.23-.13.21-.35,0-.5l-6.19-3.57a.91.91,0,0,0-.85,0L246,307.45c-.23.14-.22.36,0,.5ZM260,307a.93.93,0,0,0,.86,0l5.35-3.09c.23-.13.21-.35,0-.49L260,299.87a.94.94,0,0,0-.85,0l-5.35,3.09c-.23.13-.22.35,0,.49Zm40.21-25.83a.94.94,0,0,0,.85,0l5.35-3.09c.23-.13.22-.35,0-.49l-1.64-.95a.93.93,0,0,0-.86,0l-5.35,3.09c-.22.13-.21.35,0,.49Zm23.46-13.54a.91.91,0,0,0,.85,0l5.35-3.09c.23-.13.22-.35,0-.49l-1.64-.95a1,1,0,0,0-.86,0L322,266.18c-.22.13-.21.35,0,.5Zm13,7.5a.94.94,0,0,0,.85,0l5.35-3.09c.23-.13.21-.35,0-.49L336.65,268a.94.94,0,0,0-.85,0l-5.35,3.09c-.23.13-.21.35,0,.49ZM356.22,295l5.35-3.09c.22-.13.21-.35,0-.49l-6.19-3.57a.94.94,0,0,0-.85,0l-5.35,3.09c-.23.13-.22.35,0,.49l6.18,3.57A1,1,0,0,0,356.22,295ZM308,276.66a.91.91,0,0,0,.85,0l5.35-3.09c.23-.13.22-.35,0-.49l-1.64-.95a1,1,0,0,0-.86,0l-5.35,3.09c-.22.13-.21.35,0,.5ZM244.36,316a.93.93,0,0,0,.86,0l5.35-3.09c.23-.13.21-.35,0-.49l-6.19-3.57a.94.94,0,0,0-.85,0L238.15,312c-.23.13-.22.35,0,.49Z"/><polygon class="cls-9" points="276.16 364.64 334.73 330.83 370.76 351.63 312.2 385.44 276.16 364.64"/></g></g><g id="Window"><g id="Tab"><path class="cls-11" d="M146,194.25,320.54,93.5c3.42-2,6.21-.36,6.21,3.58V232.24a6.41,6.41,0,0,1-2.88,5L144.93,340.54c-1.59.91-2.88.16-2.88-1.67V201.16A8.83,8.83,0,0,1,146,194.25Z"/><path class="cls-6" d="M326.75,100.32V97.08c0-3.94-2.79-5.55-6.21-3.58L146,194.25a8.83,8.83,0,0,0-4,6.91V207Z"/><path class="cls-5" d="M300.73,107.7a4.71,4.71,0,0,0-2.14,3.7c0,1.36,1,1.91,2.14,1.23a4.72,4.72,0,0,0,2.13-3.7C302.86,107.57,301.91,107,300.73,107.7Z"/><path class="cls-5" d="M309.21,102.8a4.73,4.73,0,0,0-2.14,3.7c0,1.36,1,1.92,2.14,1.23a4.7,4.7,0,0,0,2.13-3.7C311.34,102.67,310.39,102.12,309.21,102.8Z"/><path class="cls-5" d="M317.69,97.9a4.73,4.73,0,0,0-2.14,3.7c0,1.37,1,1.92,2.14,1.24a4.72,4.72,0,0,0,2.13-3.7C319.82,97.77,318.87,97.22,317.69,97.9Z"/></g></g><g id="Magnifying_Glass" data-name="Magnifying Glass"><g id="Lens"><rect class="cls-8" x="169.48" y="268.94" width="7.84" height="33.26" transform="translate(166.02 -48.44) rotate(30)"/><rect class="cls-9" x="173.13" y="269.92" width="3.92" height="33.26" transform="translate(166.74 -49.16) rotate(30)"/><path class="cls-7" d="M143.45,354.26c-3.09,5.38-17.72-3.16-14.67-8.47L167,286.21a.75.75,0,0,1,1-.24l7.67,4.43a.74.74,0,0,1,.29,1Z"/><path class="cls-3" d="M143.45,354.26,176,291.38a.74.74,0,0,0-.29-1l-3.49-2-37.28,66.23C138.3,356.27,142.05,356.69,143.45,354.26Z"/><path class="cls-7" d="M255.76,214c0-.45,0-.89-.07-1.34s-.06-.87-.1-1.31c0-.28-.06-.57-.09-.86-.08-.75-.19-1.5-.31-2.21-.06-.32-.11-.65-.18-1s-.12-.61-.19-.91c-.18-.82-.38-1.62-.62-2.39-.12-.36-.23-.73-.35-1.08a1.77,1.77,0,0,1-.06-.17c-.13-.36-.25-.7-.39-1s-.31-.78-.48-1.14-.25-.55-.39-.81a4.48,4.48,0,0,0-.29-.58,6.56,6.56,0,0,0-.37-.69.75.75,0,0,0-.09-.15c-.11-.2-.23-.4-.35-.6s-.17-.26-.24-.38a20.55,20.55,0,0,0-1.91-2.54l-.36-.4-.3-.31-.38-.39a13.8,13.8,0,0,0-1.16-1c-.19-.16-.39-.32-.59-.46s-.39-.3-.6-.45-.66-.45-1-.64l-.27-.17,0,0h0l-15.72-9.07h0l-.09-.06a19.71,19.71,0,0,0-9.87-2.49c-5.15,0-11,1.68-17.11,5.23-21.14,12.21-38.29,41.9-38.29,66.32,0,12.18,4.26,20.74,11.15,24.75l.07,0h0l15.72,9.06s0,0,0,0l.07,0h0l.19.1a8.82,8.82,0,0,0,.91.48c.37.19.76.35,1.15.51s.7.28,1,.39c.19.06.38.12.57.16a3.28,3.28,0,0,0,.61.18c.21.07.41.11.62.16l.46.1c.26.05.55.11.83.14a.58.58,0,0,0,.19,0c.33.06.66.1,1,.14,5.7.6,12.34-1,19.43-5.1,21.15-12.21,38.3-41.91,38.3-66.32C255.79,215.13,255.78,214.55,255.76,214ZM230.1,196.71a34.06,34.06,0,0,1,1.21,9.31c0,21.54-15.76,48.83-34.41,59.6a33.56,33.56,0,0,1-8.73,3.63,34.54,34.54,0,0,1-1.21-9.33c0-21.54,15.76-48.83,34.42-59.6A32.93,32.93,0,0,1,230.1,196.71Z"/><path class="cls-6" d="M189.88,284.41l-15.26-8.81c-6.89-4-11.15-12.59-11.15-24.74,0-10.9,3.42-22.83,9.06-33.79l15.73,9.07c-5.66,11-9.06,22.89-9.06,33.78C179.2,271.83,183.25,280.28,189.88,284.41Z"/><path class="cls-12" d="M255.76,214c0-.45,0-.89-.07-1.34s-.06-.87-.1-1.31c0-.28-.06-.57-.09-.86-.08-.75-.19-1.5-.31-2.21-.06-.32-.11-.65-.18-1s-.12-.61-.19-.91c-.18-.82-.38-1.62-.62-2.39-.12-.36-.23-.73-.35-1.08a1.77,1.77,0,0,1-.06-.17c-.13-.36-.25-.7-.39-1s-.31-.78-.48-1.14-.25-.55-.39-.81a4.48,4.48,0,0,0-.29-.58,6.56,6.56,0,0,0-.37-.69.75.75,0,0,0-.09-.15c-.11-.2-.23-.4-.35-.6s-.17-.26-.24-.38a20.55,20.55,0,0,0-1.91-2.54l-.36-.4-.3-.31-.38-.39a13.8,13.8,0,0,0-1.16-1c-.19-.16-.39-.32-.59-.46s-.39-.3-.6-.45-.66-.45-1-.64c-7-4.23-16.67-3.73-27.41,2.47-21.15,12.21-38.29,41.9-38.29,66.32,0,12.37,4.39,21,11.48,24.93a8.82,8.82,0,0,0,.91.48c.37.19.76.35,1.15.51s.7.28,1,.39c.19.06.38.12.57.16a3.28,3.28,0,0,0,.61.18c.21.07.41.11.62.16l.46.1c.26.05.55.11.83.14a.58.58,0,0,0,.19,0c.33.06.66.1,1,.14,5.7.6,12.34-1,19.43-5.1,21.15-12.21,38.3-41.91,38.3-66.32C255.79,215.13,255.78,214.55,255.76,214Zm-42.15,61.34c-4.74,2.74-9.31,4.19-13.22,4.19-7.33,0-10.7-5-12.22-10.25a34.54,34.54,0,0,1-1.21-9.33c0-21.54,15.76-48.83,34.42-59.6a32.93,32.93,0,0,1,8.72-3.61,19.26,19.26,0,0,1,4.5-.57c12.12,0,13.41,13.69,13.41,19.58C248,237.25,232.27,264.55,213.61,275.31Z"/><path class="cls-6" d="M248,215.72c0,21.53-15.74,48.83-34.4,59.59-4.74,2.74-9.31,4.19-13.22,4.19-7.33,0-10.7-5-12.22-10.25a33.56,33.56,0,0,0,8.73-3.63c18.65-10.77,34.41-38.06,34.41-59.6a34.06,34.06,0,0,0-1.21-9.31,19.26,19.26,0,0,1,4.5-.57C246.72,196.14,248,209.83,248,215.72Z"/><path class="cls-13" d="M241.32,212c0,21.53-15.75,48.83-34.41,59.6-4.74,2.73-9.31,4.18-13.22,4.18a14,14,0,0,1-2.31-.19,17.12,17.12,0,0,1-3.21-6.3,34.54,34.54,0,0,1-1.21-9.33c0-21.54,15.76-48.83,34.42-59.6a32.93,32.93,0,0,1,8.72-3.61,19.26,19.26,0,0,1,4.5-.57,14.15,14.15,0,0,1,2.32.19C240.75,200.84,241.32,208.09,241.32,212Z"/></g></g><g id="Search_Tab" data-name="Search Tab"><g id="Search_Taba" data-name="Search Taba"><path class="cls-14" d="M268.18,189.5v24.55c0,1.84,1.29,2.58,2.88,1.67L432,122.81a6.37,6.37,0,0,0,2.88-5V93.26c0-1.83-1.29-2.58-2.88-1.66L271.06,184.51A6.37,6.37,0,0,0,268.18,189.5Z"/><path class="cls-6" d="M271.06,184.51,299.72,168v31.21l-28.66,16.55c-1.59.91-2.88.17-2.88-1.67V189.5A6.37,6.37,0,0,1,271.06,184.51Z"/><path class="cls-5" d="M290.24,181.59c-1.81-1.05-4.1-.88-6.44.47a16.57,16.57,0,0,0-7.59,13.15,7.16,7.16,0,0,0,1.52,4.73l-3.05,5.28a1.66,1.66,0,0,0,2.88,1.66l3.05-5.28a5.56,5.56,0,0,0,1,.1,7.8,7.8,0,0,0,3.85-1.15,16.54,16.54,0,0,0,7.59-13.15C293.05,184.7,292.06,182.63,290.24,181.59Zm-6.44,16.08c-1.25.72-2.39.89-3.11.47s-1.15-1.49-1.15-2.93a13.34,13.34,0,0,1,5.92-10.27,4.62,4.62,0,0,1,2.19-.7,1.86,1.86,0,0,1,.93.23c.73.42,1.15,1.49,1.15,2.93A13.35,13.35,0,0,1,283.8,197.67Z"/></g></g></svg>