<svg id="Layer_1" data-name="Layer 1" xmlns="http://www.w3.org/2000/svg" xmlns:xlink="http://www.w3.org/1999/xlink" viewBox="0 0 64 64"><defs><style>.cls-1{fill:url(#linear-gradient);}.cls-2{fill:url(#linear-gradient-2);}.cls-3{fill:url(#linear-gradient-3);}.cls-4{fill:url(#linear-gradient-4);}.cls-5{fill:url(#linear-gradient-5);}.cls-6{fill:url(#linear-gradient-6);}.cls-7{fill:url(#linear-gradient-7);}.cls-8{fill:url(#linear-gradient-8);}.cls-9{fill:url(#linear-gradient-9);}.cls-10{fill:url(#linear-gradient-10);}.cls-11{fill:url(#linear-gradient-11);}.cls-12{fill:url(#linear-gradient-12);}.cls-13{fill:url(#linear-gradient-13);}.cls-14{fill:url(#linear-gradient-14);}.cls-15{fill:#8ac9fe;}.cls-16{fill:url(#linear-gradient-15);}.cls-17{fill:url(#linear-gradient-16);}</style><linearGradient id="linear-gradient" x1="45.84" y1="138.86" x2="51.03" y2="130.75" gradientTransform="matrix(1, 0, 0, -1, 0.16, 150.42)" gradientUnits="userSpaceOnUse"><stop offset="0" stop-color="#eaf6ff"/><stop offset="1" stop-color="#b3dafe"/></linearGradient><linearGradient id="linear-gradient-2" x1="49.63" y1="136.29" x2="37.3" y2="136.29" gradientTransform="matrix(1, 0, 0, -1, 0.16, 150.42)" gradientUnits="userSpaceOnUse"><stop offset="0" stop-color="#8ac9fe" stop-opacity="0"/><stop offset="0.07" stop-color="#85c2f3" stop-opacity="0.07"/><stop offset="0.37" stop-color="#6fa2c3" stop-opacity="0.37"/><stop offset="0.64" stop-color="#608ca0" stop-opacity="0.64"/><stop offset="0.86" stop-color="#567e8b" stop-opacity="0.86"/><stop offset="1" stop-color="#537983"/></linearGradient><linearGradient id="linear-gradient-3" x1="48.29" y1="133.67" x2="48.29" y2="127.67" xlink:href="#linear-gradient-2"/><linearGradient id="linear-gradient-4" x1="19.96" y1="139.54" x2="44.86" y2="88.61" xlink:href="#linear-gradient"/><linearGradient id="linear-gradient-5" x1="28.13" y1="99.71" x2="28.13" y2="93.91" gradientTransform="matrix(1, 0, 0, -1, 0.16, 150.42)" gradientUnits="userSpaceOnUse"><stop offset="0" stop-color="#d8ecfe" stop-opacity="0"/><stop offset="0.79" stop-color="#9bd1fe" stop-opacity="0.79"/><stop offset="1" stop-color="#8ac9fe"/></linearGradient><linearGradient id="linear-gradient-6" x1="37.91" y1="117.96" x2="52.73" y2="117.96" xlink:href="#linear-gradient-5"/><linearGradient id="linear-gradient-7" x1="47.4" y1="96.08" x2="38.29" y2="105.2" xlink:href="#linear-gradient-2"/><linearGradient id="linear-gradient-8" x1="41.11" y1="107.74" x2="48.28" y2="99.34" gradientTransform="matrix(1, 0, 0, -1, 0.16, 150.42)" gradientUnits="userSpaceOnUse"><stop offset="0" stop-color="#fe9738"/><stop offset="1" stop-color="#fd4755"/></linearGradient><linearGradient id="linear-gradient-9" x1="43.25" y1="98.83" x2="43.25" y2="112.47" gradientTransform="matrix(1, 0, 0, -1, 0.16, 150.42)" gradientUnits="userSpaceOnUse"><stop offset="0" stop-color="#fe7701" stop-opacity="0"/><stop offset="0.6" stop-color="#ca4324" stop-opacity="0.6"/><stop offset="1" stop-color="#ac2538"/></linearGradient><linearGradient id="linear-gradient-10" x1="37.15" y1="121.39" x2="50.98" y2="107.55" gradientTransform="matrix(1, 0, 0, -1, 0.16, 150.42)" gradientUnits="userSpaceOnUse"><stop offset="0" stop-color="#fee97d"/><stop offset="1" stop-color="#fac600"/></linearGradient><linearGradient id="linear-gradient-11" x1="51.53" y1="107" x2="39.73" y2="118.8" gradientTransform="matrix(1, 0, 0, -1, 0.16, 150.42)" gradientUnits="userSpaceOnUse"><stop offset="0" stop-color="#db841d" stop-opacity="0"/><stop offset="0.23" stop-color="#d98224" stop-opacity="0.23"/><stop offset="0.56" stop-color="#d27c36" stop-opacity="0.56"/><stop offset="0.94" stop-color="#c77354" stop-opacity="0.94"/><stop offset="1" stop-color="#c5715a"/></linearGradient><linearGradient id="linear-gradient-12" x1="43.25" y1="113.19" x2="43.25" y2="106.51" xlink:href="#linear-gradient-11"/><linearGradient id="linear-gradient-13" x1="40.74" y1="117.8" x2="47.14" y2="111.4" gradientTransform="matrix(1, 0, 0, -1, 0.16, 150.42)" gradientUnits="userSpaceOnUse"><stop offset="0" stop-color="#fbecb1"/><stop offset="0.28" stop-color="#fceda7"/><stop offset="0.75" stop-color="#fdef8d"/><stop offset="1" stop-color="#fef17d"/></linearGradient><linearGradient id="linear-gradient-14" x1="43.25" y1="112.98" x2="43.25" y2="107.04" xlink:href="#linear-gradient-11"/><linearGradient id="linear-gradient-15" x1="24.67" y1="21.7" x2="32.13" y2="21.7" gradientUnits="userSpaceOnUse"><stop offset="0" stop-color="#a2e62e"/><stop offset="0.12" stop-color="#97df30"/><stop offset="0.34" stop-color="#7acb36"/><stop offset="0.62" stop-color="#4aac3f"/><stop offset="0.96" stop-color="#09804c"/><stop offset="1" stop-color="#017b4e"/></linearGradient><linearGradient id="linear-gradient-16" x1="24.67" y1="17.47" x2="32.13" y2="17.47" xlink:href="#linear-gradient-15"/></defs><title>certificate</title><path class="cls-1" d="M45,20h4.07a3.14,3.14,0,0,0,3.13-3.14v-6a3.6,3.6,0,1,0-7.2,0Z"/><path class="cls-2" d="M45,20h4.07a3.14,3.14,0,0,0,3.13-3.14v-6a3.6,3.6,0,1,0-7.2,0Z"/><path class="cls-3" d="M52.24,12.05v4.78A3.14,3.14,0,0,1,49.11,20H45V12.05Z"/><path class="cls-4" d="M48.64,7.21A3.62,3.62,0,0,0,45,10.82V53.64a3.14,3.14,0,0,1-3.13,3.15h-27a3.14,3.14,0,0,1-3.13-3.15V13a5.8,5.8,0,0,1,5.8-5.81Z"/><path class="cls-5" d="M11.76,47.81v5.83a3.14,3.14,0,0,0,3.13,3.15h27A3.14,3.14,0,0,0,45,53.64V47.81Z"/><path class="cls-6" d="M36.27,56.79h5.64A3.14,3.14,0,0,0,45,53.64V10.82a3.61,3.61,0,0,1,3.6-3.61H36.27Z"/><path class="cls-7" d="M38.8,45.84v4.6l5.38,5.37A3.18,3.18,0,0,0,45,53.64v-7.8Z"/><path class="cls-8" d="M45.08,48.88l1.51,1.51a1.37,1.37,0,0,0,2.33-1V39.61H38.23v9.81a1.37,1.37,0,0,0,2.34,1l1.5-1.51A2.13,2.13,0,0,1,45.08,48.88Z"/><path class="cls-9" d="M48.92,49.42V39.61H38.23v1l10,10a1.36,1.36,0,0,0,.68-1.19Z"/><path class="cls-10" d="M52,35.57l-.8,1.07a1.48,1.48,0,0,0-.29.91v1.33a1.48,1.48,0,0,1-1,1.44l-1.28.4a1.44,1.44,0,0,0-.77.56L47,42.37a1.5,1.5,0,0,1-1.69.55l-1.26-.43a1.44,1.44,0,0,0-1,0l-1.26.43a1.49,1.49,0,0,1-1.7-.55l-.77-1.09a1.44,1.44,0,0,0-.77-.56l-1.27-.4a1.49,1.49,0,0,1-1-1.44l0-1.33a1.48,1.48,0,0,0-.3-.91l-.8-1.07a1.5,1.5,0,0,1,0-1.78l.8-1.07a1.48,1.48,0,0,0,.3-.91l0-1.33a1.48,1.48,0,0,1,1-1.44l1.27-.4a1.49,1.49,0,0,0,.77-.56L40.14,27a1.49,1.49,0,0,1,1.7-.55l1.26.43a1.57,1.57,0,0,0,1,0l1.26-.43A1.48,1.48,0,0,1,47,27l.77,1.09a1.49,1.49,0,0,0,.77.56l1.28.4a1.47,1.47,0,0,1,1,1.44v1.33a1.48,1.48,0,0,0,.29.91l.8,1.07a1.5,1.5,0,0,1,0,1.78Z"/><path class="cls-11" d="M39.11,39.14l3.51,3.51.48-.16a1.44,1.44,0,0,1,1,0l1.26.43A1.5,1.5,0,0,0,47,42.37l.77-1.09a1.44,1.44,0,0,1,.77-.56l1.28-.4a1.48,1.48,0,0,0,1-1.44V37.55a1.48,1.48,0,0,1,.29-.91l.8-1.07a1.52,1.52,0,0,0,.27-1.18L48,30.22Z"/><path class="cls-12" d="M35,35.06a1.7,1.7,0,0,0,.24.51l.8,1.07a1.48,1.48,0,0,1,.3.91l0,1.33a1.49,1.49,0,0,0,1,1.44l1.27.4a1.44,1.44,0,0,1,.77.56l.77,1.09a1.51,1.51,0,0,0,1.7.55l1.26-.43a1.44,1.44,0,0,1,1,0l1.26.43A1.5,1.5,0,0,0,47,42.37l.77-1.09a1.44,1.44,0,0,1,.77-.56l1.28-.4a1.48,1.48,0,0,0,1-1.44V37.55a1.54,1.54,0,0,1,.29-.91l.8-1.07a1.51,1.51,0,0,0,.25-.51Z"/><circle class="cls-13" cx="43.58" cy="34.68" r="6.31"/><path class="cls-14" d="M43.58,41a6.32,6.32,0,0,0,6.31-6.31H37.27A6.31,6.31,0,0,0,43.58,41Z"/><path class="cls-15" d="M32.78,34a1.5,1.5,0,0,0-1.5-1.5H17.58a1.5,1.5,0,1,0,0,3h13.7A1.5,1.5,0,0,0,32.78,34Z"/><path class="cls-15" d="M28.9,41.06a1.5,1.5,0,0,0-1.5-1.5H17.58a1.5,1.5,0,0,0,0,3H27.4A1.5,1.5,0,0,0,28.9,41.06Z"/><path class="cls-15" d="M28.9,48.16a1.5,1.5,0,0,0-1.5-1.5H17.58a1.5,1.5,0,0,0,0,3H27.4A1.5,1.5,0,0,0,28.9,48.16Z"/><path class="cls-16" d="M29.64,20.86a3.65,3.65,0,0,1-1.1,2.63A3.73,3.73,0,0,1,26,24.59H24.67v2.48H26a5.94,5.94,0,0,0,4.35-1.81,6.2,6.2,0,0,0,1.82-4.35V16.32L29.64,18.8v2.06Z"/><path class="cls-17" d="M26.49,17.18a6.18,6.18,0,0,0-1.82,4.35v1.91h1.24a1.27,1.27,0,0,0,1.25-1.24v-.67a3.64,3.64,0,0,1,1.1-2.63L32.13,15V11.49Z"/></svg>