<svg id="Layer_1" data-name="Layer 1" xmlns="http://www.w3.org/2000/svg" xmlns:xlink="http://www.w3.org/1999/xlink" viewBox="0 0 64 64"><defs><style>.cls-1{fill:url(#linear-gradient);}.cls-2{fill:url(#linear-gradient-2);}.cls-3{fill:url(#linear-gradient-3);}.cls-4{fill:url(#linear-gradient-4);}.cls-5{fill:url(#linear-gradient-5);}.cls-6{fill:url(#linear-gradient-6);}.cls-7{fill:url(#linear-gradient-7);}.cls-8{fill:url(#linear-gradient-8);}.cls-9{fill:url(#linear-gradient-9);}.cls-10{fill:url(#linear-gradient-10);}.cls-11{fill:url(#linear-gradient-11);}.cls-12{fill:url(#linear-gradient-12);}.cls-13{fill:url(#linear-gradient-13);}.cls-14{fill:url(#linear-gradient-14);}.cls-15{fill:url(#linear-gradient-15);}.cls-16{fill:url(#linear-gradient-16);}.cls-17{fill:url(#linear-gradient-17);}</style><linearGradient id="linear-gradient" x1="23.46" y1="300.8" x2="51.75" y2="272.51" gradientTransform="matrix(1, 0, 0, -1, 0.16, 318.75)" gradientUnits="userSpaceOnUse"><stop offset="0" stop-color="#d0ebff"/><stop offset="1" stop-color="#9acefe"/></linearGradient><linearGradient id="linear-gradient-2" x1="31.47" y1="295.23" x2="39.33" y2="266.95" gradientTransform="matrix(1, 0, 0, -1, 0.16, 318.75)" gradientUnits="userSpaceOnUse"><stop offset="0" stop-color="#fff"/><stop offset="1" stop-color="#efe2dd"/></linearGradient><linearGradient id="linear-gradient-3" x1="31.71" y1="293.69" x2="31.71" y2="309.97" gradientTransform="matrix(1, 0, 0, -1, 0.16, 318.75)" gradientUnits="userSpaceOnUse"><stop offset="0" stop-color="#9e9797" stop-opacity="0"/><stop offset="0.36" stop-color="#9b9494" stop-opacity="0.36"/><stop offset="0.63" stop-color="#928b8b" stop-opacity="0.63"/><stop offset="0.87" stop-color="#827a7a" stop-opacity="0.87"/><stop offset="1" stop-color="#766e6e"/></linearGradient><linearGradient id="linear-gradient-4" x1="31.71" y1="310.15" x2="31.71" y2="304.7" gradientTransform="matrix(1, 0, 0, -1, 0.16, 318.75)" gradientUnits="userSpaceOnUse"><stop offset="0" stop-color="#7a8c98"/><stop offset="1" stop-color="#465a61"/></linearGradient><linearGradient id="linear-gradient-5" x1="42.29" y1="282.74" x2="27.61" y2="297.42" xlink:href="#linear-gradient-3"/><linearGradient id="linear-gradient-6" x1="29.54" y1="295.5" x2="33.8" y2="291.23" gradientTransform="matrix(1, 0, 0, -1, 0.16, 318.75)" gradientUnits="userSpaceOnUse"><stop offset="0" stop-color="#fe646f"/><stop offset="1" stop-color="#ca2e43"/></linearGradient><linearGradient id="linear-gradient-7" x1="31.71" y1="292.54" x2="31.71" y2="285.22" gradientTransform="matrix(1, 0, 0, -1, 0.16, 318.75)" gradientUnits="userSpaceOnUse"><stop offset="0" stop-color="#ca2e43" stop-opacity="0"/><stop offset="0.61" stop-color="#a8283b" stop-opacity="0.61"/><stop offset="1" stop-color="#972437"/></linearGradient><linearGradient id="linear-gradient-8" x1="30.73" y1="293.67" x2="32.7" y2="291.71" xlink:href="#linear-gradient-2"/><linearGradient id="linear-gradient-9" x1="15.26" y1="277.1" x2="21.2" y2="267.94" xlink:href="#linear-gradient-6"/><linearGradient id="linear-gradient-10" x1="28.12" y1="277.1" x2="34.05" y2="267.94" xlink:href="#linear-gradient-6"/><linearGradient id="linear-gradient-11" x1="40.97" y1="277.1" x2="46.91" y2="267.94" xlink:href="#linear-gradient-6"/><linearGradient id="linear-gradient-12" x1="31.72" y1="275.05" x2="31.72" y2="270.05" xlink:href="#linear-gradient-7"/><linearGradient id="linear-gradient-13" x1="9.06" y1="270.29" x2="14.99" y2="261.12" xlink:href="#linear-gradient-6"/><linearGradient id="linear-gradient-14" x1="21.69" y1="270.14" x2="27.63" y2="260.98" xlink:href="#linear-gradient-6"/><linearGradient id="linear-gradient-15" x1="34.54" y1="270.14" x2="40.48" y2="260.98" xlink:href="#linear-gradient-6"/><linearGradient id="linear-gradient-16" x1="47.37" y1="270.19" x2="53.11" y2="261.33" xlink:href="#linear-gradient-6"/><linearGradient id="linear-gradient-17" x1="31.71" y1="264.16" x2="31.71" y2="259.65" xlink:href="#linear-gradient-7"/></defs><title>blackboard</title><path class="cls-1" d="M52.82,42.62H11.18a2.71,2.71,0,0,1-2.71-2.71V9.07H55.53V39.91a2.71,2.71,0,0,1-2.71,2.71Z"/><path class="cls-2" d="M50.51,39.49h-37a2.41,2.41,0,0,1-2.41-2.41v-28H52.92v28A2.41,2.41,0,0,1,50.51,39.49Z"/><path class="cls-3" d="M8.47,9.07v3.27L38.75,42.62H52.82a2.71,2.71,0,0,0,2.71-2.71V9.07Z"/><path class="cls-4" d="M56.38,12.34H7.62a1.43,1.43,0,0,1-1.43-1.43V7.62A1.43,1.43,0,0,1,7.62,6.19H56.38a1.43,1.43,0,0,1,1.43,1.43v3.29A1.43,1.43,0,0,1,56.38,12.34Z"/><path class="cls-5" d="M55.53,39.91v-.18L36,20.24,28,28.32l14.3,14.3H52.82a2.71,2.71,0,0,0,2.71-2.71Z"/><circle class="cls-6" cx="32" cy="24.28" r="5.71"/><path class="cls-7" d="M37.71,24.28a5.71,5.71,0,1,1-11.42,0Z"/><path class="cls-8" d="M35.51,23.3,31.3,20.52a1.18,1.18,0,0,0-1.82,1v5.56a1.17,1.17,0,0,0,1.82,1l4.21-2.78a1.17,1.17,0,0,0,0-2Z"/><path class="cls-9" d="M25.55,50.83H12.64v-7.9a5,5,0,0,1,5-5h2.89a5,5,0,0,1,5,5v7.9Z"/><path class="cls-10" d="M38.45,50.83H25.55v-7.9a5,5,0,0,1,5-5h2.9a5,5,0,0,1,5,5v7.9Z"/><path class="cls-11" d="M51.36,50.83H38.45v-7.9a5,5,0,0,1,5-5h2.89a5,5,0,0,1,5,5v7.9Z"/><path class="cls-12" d="M46.35,37.92H43.46a5,5,0,0,0-5,5,5,5,0,0,0-5-5h-2.9a5,5,0,0,0-5,5,5,5,0,0,0-5-5H17.65a5,5,0,0,0-5,5v7.9H51.36v-7.9A5,5,0,0,0,46.35,37.92Z"/><path class="cls-13" d="M19.1,57.81H7.56a1.37,1.37,0,0,1-1.37-1.37V49.91a5,5,0,0,1,5-5h2.89a5,5,0,0,1,5,5v7.9Z"/><path class="cls-14" d="M32,57.81H19.1v-7.9a5,5,0,0,1,5-5H27a5,5,0,0,1,5,5v7.9Z"/><path class="cls-15" d="M44.9,57.81H32v-7.9a5,5,0,0,1,5-5h2.9a5,5,0,0,1,5,5v7.9Z"/><path class="cls-16" d="M56.44,57.81H44.9v-7.9a5,5,0,0,1,5-5H52.8a5,5,0,0,1,5,5v6.53a1.37,1.37,0,0,1-1.37,1.37Z"/><path class="cls-17" d="M6.19,50.82v5.62a1.37,1.37,0,0,0,1.37,1.37H56.44a1.37,1.37,0,0,0,1.37-1.37V50.82Z"/></svg>