<svg id="Layer_1" data-name="Layer 1" xmlns="http://www.w3.org/2000/svg" xmlns:xlink="http://www.w3.org/1999/xlink" viewBox="0 0 64 64"><defs><style>.cls-1{fill:url(#linear-gradient);}.cls-2{fill:url(#linear-gradient-2);}.cls-3{fill:url(#linear-gradient-3);}.cls-4{fill:url(#linear-gradient-4);}.cls-5{fill:url(#linear-gradient-5);}.cls-6{fill:url(#linear-gradient-6);}.cls-7{fill:url(#linear-gradient-7);}.cls-8{fill:url(#linear-gradient-8);}.cls-9{fill:url(#linear-gradient-9);}.cls-10{fill:url(#linear-gradient-10);}.cls-11{fill:url(#linear-gradient-11);}.cls-12{fill:url(#linear-gradient-12);}.cls-13{fill:url(#linear-gradient-13);}.cls-14{fill:url(#linear-gradient-14);}.cls-15{fill:url(#linear-gradient-15);}</style><linearGradient id="linear-gradient" x1="14.07" y1="-33.64" x2="48.95" y2="-68.52" gradientTransform="matrix(1, 0, 0, -1, 0.16, -17.91)" gradientUnits="userSpaceOnUse"><stop offset="0" stop-color="#f7e07d"/><stop offset="1" stop-color="#e69642"/></linearGradient><linearGradient id="linear-gradient-2" x1="57.64" y1="-50.57" x2="53.51" y2="-50.13" gradientTransform="matrix(1, 0, 0, -1, 0.16, -17.91)" gradientUnits="userSpaceOnUse"><stop offset="0" stop-color="#d52c1c" stop-opacity="0"/><stop offset="0.28" stop-color="#d12c1e" stop-opacity="0.28"/><stop offset="0.57" stop-color="#c42c23" stop-opacity="0.57"/><stop offset="0.87" stop-color="#af2b2c" stop-opacity="0.87"/><stop offset="1" stop-color="#a42b31"/></linearGradient><linearGradient id="linear-gradient-3" x1="31.71" y1="-62.44" x2="31.71" y2="-71.35" xlink:href="#linear-gradient-2"/><linearGradient id="linear-gradient-4" x1="46.86" y1="-60.88" x2="46.86" y2="-69.03" xlink:href="#linear-gradient-2"/><linearGradient id="linear-gradient-5" x1="712.93" y1="-60.88" x2="712.93" y2="-69.03" gradientTransform="translate(732.52 -17.91) rotate(180)" xlink:href="#linear-gradient-2"/><linearGradient id="linear-gradient-6" x1="31.71" y1="-56.48" x2="31.71" y2="-64.18" gradientTransform="matrix(1, 0, 0, -1, 0.16, -17.91)" gradientUnits="userSpaceOnUse"><stop offset="0" stop-color="#eef4ff"/><stop offset="1" stop-color="#cfe7fd"/></linearGradient><linearGradient id="linear-gradient-7" x1="31.71" y1="-58.55" x2="31.71" y2="-71.72" gradientTransform="matrix(1, 0, 0, -1, 0.16, -17.91)" gradientUnits="userSpaceOnUse"><stop offset="0" stop-color="#8aaadc" stop-opacity="0"/><stop offset="1" stop-color="#8aaadc"/></linearGradient><linearGradient id="linear-gradient-8" x1="37.79" y1="-60.88" x2="30.61" y2="-60.88" xlink:href="#linear-gradient-7"/><linearGradient id="linear-gradient-9" x1="2.91" y1="-29.62" x2="33.5" y2="-60.21" xlink:href="#linear-gradient-6"/><linearGradient id="linear-gradient-10" x1="12.35" y1="-50.69" x2="34.73" y2="-73.07" gradientTransform="matrix(1, 0, 0, -1, 0.16, -17.91)" gradientUnits="userSpaceOnUse"><stop offset="0" stop-color="#fff"/><stop offset="1" stop-color="#cfe7fd"/></linearGradient><linearGradient id="linear-gradient-11" x1="20.3" y1="-42.74" x2="42.68" y2="-65.12" xlink:href="#linear-gradient-10"/><linearGradient id="linear-gradient-12" x1="31.35" y1="-36.13" x2="53.75" y2="-58.53" xlink:href="#linear-gradient-6"/><linearGradient id="linear-gradient-13" x1="53.56" y1="-46.69" x2="33.77" y2="-32.87" xlink:href="#linear-gradient-7"/><linearGradient id="linear-gradient-14" x1="34.29" y1="-31.5" x2="42.41" y2="-39.61" gradientTransform="matrix(1, 0, 0, -1, 0.16, -17.91)" gradientUnits="userSpaceOnUse"><stop offset="0" stop-color="#dc4955"/><stop offset="1" stop-color="#c4237c"/></linearGradient><linearGradient id="linear-gradient-15" x1="39.15" y1="-36.25" x2="39.15" y2="-42.68" gradientTransform="matrix(1, 0, 0, -1, 0.16, -17.91)" gradientUnits="userSpaceOnUse"><stop offset="0" stop-color="#8a1958" stop-opacity="0"/><stop offset="1" stop-color="#8a1958"/></linearGradient></defs><title>ebook</title><path class="cls-1" d="M56,15.71a34.55,34.55,0,0,0-24,.62,34.58,34.58,0,0,0-24-.62,2.47,2.47,0,0,0-1.69,2.36v31a2.5,2.5,0,0,0,3.19,2.41,34.29,34.29,0,0,1,17.84-.4h0a1.7,1.7,0,0,0,1.7,1.7h6a1.7,1.7,0,0,0,1.7-1.7,34.29,34.29,0,0,1,17.84.4,2.5,2.5,0,0,0,3.19-2.41v-31A2.5,2.5,0,0,0,56,15.71Z"/><path class="cls-2" d="M57.72,18.07v31a2.45,2.45,0,0,1-.47,1.46A2.41,2.41,0,0,0,56,49.62c-1-.35-2.09-.65-3.14-.9a3.33,3.33,0,0,1-2.55-3.24V14.29A35.59,35.59,0,0,1,56,15.71a2.5,2.5,0,0,1,1.7,2.36Z"/><path class="cls-3" d="M6.28,38.66V49.07a2.5,2.5,0,0,0,3.19,2.41,34.29,34.29,0,0,1,17.84-.4h0a1.7,1.7,0,0,0,1.7,1.7h6a1.7,1.7,0,0,0,1.7-1.7,34.29,34.29,0,0,1,17.84.4,2.5,2.5,0,0,0,3.19-2.41V38.66Z"/><path class="cls-4" d="M54.53,51.48a2.5,2.5,0,0,0,3.19-2.41V38.66h-21V51.08A34.29,34.29,0,0,1,54.53,51.48Z"/><path class="cls-5" d="M9.47,51.48a2.5,2.5,0,0,1-3.19-2.41V38.66h21V51.08A34.29,34.29,0,0,0,9.47,51.48Z"/><path class="cls-6" d="M53.9,16a31.57,31.57,0,0,0-21.9.56A31.57,31.57,0,0,0,10.08,16a2.27,2.27,0,0,0-1.54,2.15V46.41a2.28,2.28,0,0,0,2.92,2.19,29.87,29.87,0,0,1,15.86-.36h0a1.54,1.54,0,0,0,1.55,1.55h6.26a1.54,1.54,0,0,0,1.55-1.55,29.87,29.87,0,0,1,15.86.36,2.28,2.28,0,0,0,2.92-2.19V18.13A2.27,2.27,0,0,0,53.9,16Z"/><path class="cls-7" d="M53.9,16a31.57,31.57,0,0,0-21.9.56A31.57,31.57,0,0,0,10.08,16a2.27,2.27,0,0,0-1.54,2.15V46.41a2.28,2.28,0,0,0,2.92,2.19,29.87,29.87,0,0,1,15.86-.36h0a1.54,1.54,0,0,0,1.55,1.55h6.26a1.54,1.54,0,0,0,1.55-1.55,29.87,29.87,0,0,1,15.86.36,2.28,2.28,0,0,0,2.92-2.19V18.13A2.27,2.27,0,0,0,53.9,16Z"/><path class="cls-8" d="M32,36.64V49.79h3.13a1.54,1.54,0,0,0,1.55-1.55,29.87,29.87,0,0,1,15.86.36,2.28,2.28,0,0,0,2.92-2.19V36.64Z"/><path class="cls-9" d="M10.1,13A2.28,2.28,0,0,0,8.54,15.2V43.47a2.28,2.28,0,0,0,2.9,2.2,31.58,31.58,0,0,1,20.56,1v-33A31.52,31.52,0,0,0,10.1,13Z"/><path class="cls-10" d="M27.81,43.24a41.73,41.73,0,0,0-14.95,0,1.18,1.18,0,0,1-1.5-1.18v-2.4a2,2,0,0,1,1.5-1.83,41.28,41.28,0,0,1,15,0,2,2,0,0,1,1.5,1.83v2.4a1.18,1.18,0,0,1-1.5,1.18Z"/><path class="cls-11" d="M27.81,34.73a41.28,41.28,0,0,0-14.95,0,1.18,1.18,0,0,1-1.5-1.19V16.26a2,2,0,0,1,1.5-1.84,41.73,41.73,0,0,1,15,0,2,2,0,0,1,1.5,1.84V33.54a1.18,1.18,0,0,1-1.5,1.19Z"/><path class="cls-12" d="M53.9,13a31.52,31.52,0,0,0-21.9.57V46.66a31.58,31.58,0,0,1,20.56-1,2.28,2.28,0,0,0,2.9-2.2V15.2A2.28,2.28,0,0,0,53.9,13Z"/><path class="cls-13" d="M53.9,13a31.36,31.36,0,0,0-18.24-.63,1.39,1.39,0,0,0-1,1.34V25.49L54.48,45.35a2.27,2.27,0,0,0,1-1.88V15.2A2.28,2.28,0,0,0,53.9,13Z"/><path class="cls-14" d="M34.32,13.76V24.87a.78.78,0,0,0,1.32.55l2.51-2.51a1.85,1.85,0,0,1,2.63,0l2.51,2.51a.78.78,0,0,0,1.32-.55V12.52a1.3,1.3,0,0,0-1.32-1.3,31.86,31.86,0,0,0-7.9,1.13A1.46,1.46,0,0,0,34.32,13.76Z"/><path class="cls-15" d="M34.32,17.67v7.2a.78.78,0,0,0,1.32.55l2.51-2.51a1.85,1.85,0,0,1,2.63,0l2.51,2.51a.78.78,0,0,0,1.32-.55v-7.2Z"/></svg>