<svg id="Layer_1" data-name="Layer 1" xmlns="http://www.w3.org/2000/svg" viewBox="0 0 64 64"><defs><style>.cls-1{fill:#343434;}.cls-2{fill:#e86224;}.cls-3{fill:#68c5b4;}</style></defs><title>footer-icon-files</title><path class="cls-1" d="M17,57.87l-.61-.19a5.51,5.51,0,0,1-4.13-5.33q0-20.34,0-40.68a5.52,5.52,0,0,1,5.56-5.54H36.39a5.38,5.38,0,0,1,3.8,1.49q4.86,4.58,9.7,9.17a5.72,5.72,0,0,1,1.81,4.33c0,10.29,0,20.58,0,30.87a5.68,5.68,0,0,1-4.65,5.8s-.08.06-.12.08ZM35.93,9.16H18.17A2.59,2.59,0,0,0,15.31,12V52a2.59,2.59,0,0,0,2.87,2.88H45.81A2.59,2.59,0,0,0,48.67,52V21.29H39.55a3.51,3.51,0,0,1-3.62-3.59V9.16ZM47,18.26l-8-7.61v6.81c0,.64.16.8.81.8H47Z"/><path class="cls-2" d="M31.66,29.37h-11a1.52,1.52,0,1,1,0-3c2.19,0,4.38,0,6.56,0H42.73a1.52,1.52,0,1,1,0,3Z"/><path class="cls-2" d="M31.75,34.43h11a1.51,1.51,0,0,1,.48,3,2,2,0,0,1-.54.06h-22a1.51,1.51,0,1,1,0-3Z"/><path class="cls-3" d="M24.23,45.54H20.65a1.52,1.52,0,1,1,0-3h7.16a1.52,1.52,0,1,1,0,3Z"/></svg>