<svg id="Layer_1" data-name="Layer 1" xmlns="http://www.w3.org/2000/svg" viewBox="0 0 64 64"><defs><style>.cls-1{fill:#343434;}.cls-2{fill:#68c5b4;}.cls-3{fill:#e86224;}</style></defs><title>footer-icon-quality</title><path class="cls-1" d="M53.4,18.48H44.12a.85.85,0,0,1-.88-.54q-.6-1.23-1.23-2.46c-.37-.74-.74-1.48-1.1-2.23a1.46,1.46,0,0,0-1.47-.9H32l-7.4,0v-.12h0v.12a1.5,1.5,0,0,0-1.5.93c-.38.79-.77,1.57-1.16,2.35s-.77,1.53-1.14,2.3a.91.91,0,0,1-.91.56H10.48A4.24,4.24,0,0,0,7.27,19.9a5.23,5.23,0,0,0-1.13,2.24V48a.75.75,0,0,1,.08.18,4.35,4.35,0,0,0,4.41,3.5H53.41a4.3,4.3,0,0,0,4.45-4.45V22.92A4.31,4.31,0,0,0,53.4,18.48ZM55.3,47a1.86,1.86,0,0,1-2.11,2.12H10.87A1.89,1.89,0,0,1,8.7,46.92V23.21c0-1.5.67-2.17,2.17-2.17H21a1.59,1.59,0,0,0,1.64-1c.44-.92.9-1.84,1.35-2.73.32-.62.63-1.25.94-1.88a.8.8,0,0,1,.8-.5H38.3a.82.82,0,0,1,.82.54l1.06,2.13c.42.84.84,1.68,1.25,2.52a1.51,1.51,0,0,0,1.53.95H53.18a1.86,1.86,0,0,1,2.12,2.11Z"/><path class="cls-2" d="M39.29,27.78A18.21,18.21,0,0,0,37,27.66H35.2a1.28,1.28,0,0,0-1.42,1.43v12a1.26,1.26,0,0,0,1.32,1.33h1.41c.33,0,.66,0,1,0a12.33,12.33,0,0,0,2.36-.19,7.37,7.37,0,0,0-.57-14.46Zm3.47,8.61a4.84,4.84,0,0,1-4.46,3.5c-.2,0-.41,0-.62,0h-1.3V30.25h.23l1,0a5.43,5.43,0,0,1,3.28.88A4.82,4.82,0,0,1,42.76,36.39Z"/><path class="cls-2" d="M30.22,28.93V41.06a1.28,1.28,0,1,1-2.56,0V36.37H21V41.2a1.27,1.27,0,0,1-1.29,1.26,1.24,1.24,0,0,1-1.26-1.27c0-1.69,0-3.39,0-5.08v-7a1.28,1.28,0,0,1,1.28-1.39v-.13h0v.13A1.26,1.26,0,0,1,21,29.05v4.74h6.62V28.93A1.27,1.27,0,0,1,29,27.67,1.24,1.24,0,0,1,30.22,28.93Z"/><path class="cls-3" d="M51.64,25.9a1.29,1.29,0,0,1-2.19.89,1.32,1.32,0,0,1-.37-.93A1.29,1.29,0,0,1,51.27,25,1.29,1.29,0,0,1,51.64,25.9Z"/></svg>