<svg id="Layer_1" data-name="Layer 1" xmlns="http://www.w3.org/2000/svg" xmlns:xlink="http://www.w3.org/1999/xlink" viewBox="0 0 64 64"><defs><style>.cls-1{fill:url(#linear-gradient);}.cls-2{fill:url(#linear-gradient-2);}.cls-3{fill:url(#linear-gradient-3);}.cls-4{fill:url(#linear-gradient-4);}.cls-5{fill:url(#linear-gradient-5);}.cls-6{fill:url(#linear-gradient-6);}.cls-7{fill:url(#linear-gradient-7);}.cls-8{fill:url(#linear-gradient-8);}.cls-9{fill:url(#linear-gradient-9);}.cls-10{fill:url(#linear-gradient-10);}.cls-11{fill:url(#linear-gradient-11);}.cls-12{fill:url(#linear-gradient-12);}.cls-13{fill:url(#linear-gradient-13);}.cls-14{fill:url(#linear-gradient-14);}.cls-15{fill:url(#linear-gradient-15);}.cls-16{fill:url(#linear-gradient-16);}.cls-17{fill:url(#linear-gradient-17);}</style><linearGradient id="linear-gradient" x1="20.4" y1="116.86" x2="24.13" y2="110.85" gradientTransform="matrix(1.04, 0, 0, -1.04, -5.7, 154.8)" gradientUnits="userSpaceOnUse"><stop offset="0" stop-color="#f1b0a2"/><stop offset="1" stop-color="#ca6e59"/></linearGradient><linearGradient id="linear-gradient-2" x1="20.22" y1="112.1" x2="29.13" y2="99.16" xlink:href="#linear-gradient"/><linearGradient id="linear-gradient-3" x1="23.58" y1="100.94" x2="23.58" y2="95.43" gradientTransform="matrix(1.04, 0, 0, -1.04, -5.7, 154.8)" gradientUnits="userSpaceOnUse"><stop offset="0" stop-color="#ca6e59" stop-opacity="0"/><stop offset="1" stop-color="#883f2e"/></linearGradient><linearGradient id="linear-gradient-4" x1="150.33" y1="224.04" x2="167.14" y2="206.66" gradientTransform="translate(271.69 -122.59) rotate(90) scale(1.04)" gradientUnits="userSpaceOnUse"><stop offset="0" stop-color="#ffdfcf"/><stop offset="1" stop-color="#ffa78f"/></linearGradient><linearGradient id="linear-gradient-5" x1="159.27" y1="216.04" x2="159.27" y2="223.39" gradientTransform="translate(271.69 -122.59) rotate(90) scale(1.04)" gradientUnits="userSpaceOnUse"><stop offset="0" stop-color="#ffb09e" stop-opacity="0"/><stop offset="1" stop-color="#ec806b"/></linearGradient><linearGradient id="linear-gradient-6" x1="159.28" y1="224.43" x2="164.97" y2="224.43" xlink:href="#linear-gradient-4"/><linearGradient id="linear-gradient-7" x1="160.07" y1="213.25" x2="155.84" y2="221.52" xlink:href="#linear-gradient-5"/><linearGradient id="linear-gradient-8" x1="147.88" y1="224.29" x2="155.5" y2="224.29" xlink:href="#linear-gradient-4"/><linearGradient id="linear-gradient-9" x1="154.11" y1="225.05" x2="159.79" y2="225.05" xlink:href="#linear-gradient-4"/><linearGradient id="linear-gradient-10" x1="164.46" y1="223.76" x2="170.15" y2="223.76" xlink:href="#linear-gradient-4"/><linearGradient id="linear-gradient-11" x1="148.17" y1="221.9" x2="166.64" y2="202.81" xlink:href="#linear-gradient-4"/><linearGradient id="linear-gradient-12" x1="151.69" y1="213.98" x2="151.69" y2="231.67" gradientTransform="translate(271.69 -122.59) rotate(90) scale(1.04)" gradientUnits="userSpaceOnUse"><stop offset="0" stop-color="#f89580" stop-opacity="0"/><stop offset="1" stop-color="#c5715a"/></linearGradient><linearGradient id="linear-gradient-13" x1="160.99" y1="210.74" x2="149.86" y2="226.74" xlink:href="#linear-gradient-12"/><linearGradient id="linear-gradient-14" x1="-77.18" y1="-2826.53" x2="-71.94" y2="-2826.53" gradientTransform="matrix(0.97, 0.4, 0.4, -0.97, 1240.57, -2685.69)" gradientUnits="userSpaceOnUse"><stop offset="0" stop-color="#ccfc5c"/><stop offset="0.16" stop-color="#c6f95a"/><stop offset="0.37" stop-color="#b6f053"/><stop offset="0.6" stop-color="#9be248"/><stop offset="0.85" stop-color="#76cf38"/><stop offset="1" stop-color="#5cc12d"/></linearGradient><linearGradient id="linear-gradient-15" x1="2831.99" y1="-7786.37" x2="2837.24" y2="-7786.37" gradientTransform="matrix(-0.4, 0.97, 0.97, 0.4, 8662.75, 395.55)" xlink:href="#linear-gradient-14"/><linearGradient id="linear-gradient-16" x1="353.71" y1="-5891.18" x2="358.95" y2="-5891.18" gradientTransform="matrix(0.4, 0.96, 0.96, -0.4, 5589.49, -2682.45)" xlink:href="#linear-gradient-14"/><linearGradient id="linear-gradient-17" x1="5890.99" y1="-7357.17" x2="5896.24" y2="-7357.17" gradientTransform="matrix(-0.96, 0.4, 0.4, 0.96, 8659.51, 4744.46)" xlink:href="#linear-gradient-14"/></defs><title>handshake</title><path class="cls-1" d="M27.57,43.43V33.91a4.38,4.38,0,0,0-4.38-4.38H18.27A10.25,10.25,0,0,0,8,39.78l2.68-2.09a10.54,10.54,0,0,1,6.47-2.22h3a2,2,0,0,1,2,2V41.7a3.57,3.57,0,0,0,3.57,3.57A1.84,1.84,0,0,0,27.57,43.43Z"/><path class="cls-2" d="M33.58,41.08A2.69,2.69,0,0,0,32.48,39a1.83,1.83,0,0,1-.6-2.11,3.38,3.38,0,0,0,.21-1.12A2.71,2.71,0,0,0,29.38,33H13.94a7.2,7.2,0,0,0-4.32,1.43H6.42a.82.82,0,0,0-.82.82V50.12a.82.82,0,0,0,.81.82A3.54,3.54,0,0,1,9,52a8.34,8.34,0,0,0,6.08,2.62h13a2.75,2.75,0,0,0,2.76-2.76,2.87,2.87,0,0,0-.23-1,1.88,1.88,0,0,1,.57-2.2,2.71,2.71,0,0,0,1.06-2.18,2.78,2.78,0,0,0-.24-1,1.9,1.9,0,0,1,.54-2.24,2.69,2.69,0,0,0,1-2.13Z"/><path class="cls-3" d="M5.6,50.12a.82.82,0,0,0,.81.82A3.54,3.54,0,0,1,9,52a8.34,8.34,0,0,0,6.08,2.62h13a2.75,2.75,0,0,0,2.76-2.76,2.87,2.87,0,0,0-.23-1,1.88,1.88,0,0,1,.57-2.2,2.71,2.71,0,0,0,1.06-2.18,2.87,2.87,0,0,0-.23-1H5.6Z"/><path class="cls-4" d="M37.9,33H50.24a7.18,7.18,0,0,1,4.32,1.43h3.2a.82.82,0,0,1,.82.82V50.12a.82.82,0,0,1-.82.82,3.57,3.57,0,0,0-2.6,1.1,8.37,8.37,0,0,1-6.08,2.62H37.9Z"/><path class="cls-5" d="M37.9,54.66H49.08a8.36,8.36,0,0,0,8.36-8.37V40.22a7.2,7.2,0,0,0-7.2-7.2H37.9Z"/><path class="cls-6" d="M34.66,49.25h5.1a2.71,2.71,0,1,0,0-5.41H34.61a2.71,2.71,0,0,0-2.71,2.65A2.75,2.75,0,0,0,34.66,49.25Z"/><path class="cls-7" d="M38.83,45a1.84,1.84,0,0,0,.91.24,3.57,3.57,0,0,0,3.57-3.57V37.47a2,2,0,0,1,2-2h3a10.54,10.54,0,0,1,6.47,2.22l2.66,2.08c0,.15,0,.3,0,.45v6.07a8.36,8.36,0,0,1-8.36,8.37h-.62Z"/><path class="cls-8" d="M34.8,38.43h3.1v-.74A4.67,4.67,0,0,1,42.57,33H34.8a2.71,2.71,0,1,0,0,5.41Z"/><path class="cls-9" d="M33.35,43.84h6.41a2.71,2.71,0,1,0,0-5.41H33.3a2.7,2.7,0,0,0-2.7,2.65,2.74,2.74,0,0,0,2.75,2.76Z"/><path class="cls-10" d="M36.06,54.66h3.7a2.71,2.71,0,1,0,0-5.41H36A2.71,2.71,0,0,0,33.3,51.9,2.75,2.75,0,0,0,36.06,54.66Z"/><path class="cls-11" d="M37.9,43.43V33.91a4.38,4.38,0,0,1,4.37-4.38h4.92A10.25,10.25,0,0,1,57.44,39.78l-2.67-2.09a10.54,10.54,0,0,0-6.47-2.22h-3a2,2,0,0,0-2,2V41.7a3.57,3.57,0,0,1-3.57,3.57A1.84,1.84,0,0,1,37.9,43.43Z"/><path class="cls-12" d="M43.31,37.47v-.54a4.87,4.87,0,0,1,4.88-4.87h2.39A6.71,6.71,0,0,1,57,36.82a10.34,10.34,0,0,1,.43,3l-2.67-2.09a10.54,10.54,0,0,0-6.47-2.22h-3a2,2,0,0,0-2,2Z"/><path class="cls-13" d="M43.78,43a11.87,11.87,0,0,1,2.67-7.52H48.3a10.54,10.54,0,0,1,6.47,2.22l2.66,2.08c0,.15,0,.3,0,.45v6.07a8.37,8.37,0,0,1-6.89,8.24c-5.13-1.33-6.77-6-6.77-11.54Z"/><path class="cls-14" d="M38.09,16.93A2,2,0,0,1,37,14.35l1.57-3.79a2,2,0,1,1,3.65,1.51l-1.57,3.79A2,2,0,0,1,38.09,16.93Z"/><path class="cls-15" d="M10.16,22.37a2,2,0,0,1,2.58-1.07l3.79,1.57A2,2,0,1,1,15,26.51L11.24,25a2,2,0,0,1-1.08-2.58Z"/><path class="cls-16" d="M46.58,25.41a2,2,0,0,1,1.07-2.58l3.79-1.57A2,2,0,0,1,53,24.9l-3.79,1.57a2,2,0,0,1-2.58-1.06Z"/><path class="cls-17" d="M23,9.51a2,2,0,0,1,2.58,1.07l1.58,3.79a2,2,0,0,1-3.65,1.51l-1.57-3.79A2,2,0,0,1,23,9.51Z"/></svg>