<svg id="Layer_1" data-name="Layer 1" xmlns="http://www.w3.org/2000/svg" xmlns:xlink="http://www.w3.org/1999/xlink" viewBox="0 0 64 64"><defs><style>.cls-1{fill:url(#linear-gradient);}.cls-2{fill:url(#linear-gradient-2);}.cls-3{fill:url(#linear-gradient-3);}.cls-4{fill:url(#linear-gradient-4);}.cls-5{fill:url(#linear-gradient-5);}.cls-6{fill:url(#linear-gradient-6);}.cls-7{fill:url(#linear-gradient-7);}.cls-8{fill:url(#linear-gradient-8);}.cls-9{fill:url(#linear-gradient-9);}.cls-10{fill:url(#linear-gradient-10);}.cls-11{fill:url(#linear-gradient-11);}.cls-12{fill:url(#linear-gradient-12);}.cls-13{fill:url(#linear-gradient-13);}.cls-14{fill:url(#linear-gradient-14);}.cls-15{fill:url(#linear-gradient-15);}.cls-16{fill:url(#linear-gradient-16);}.cls-17{fill:url(#linear-gradient-17);}.cls-18{fill:url(#linear-gradient-18);}.cls-19{fill:url(#linear-gradient-19);}.cls-20{fill:url(#linear-gradient-20);}</style><linearGradient id="linear-gradient" x1="30.1" y1="-29.7" x2="37.06" y2="-36.67" gradientTransform="matrix(1, 0, 0, -1, -0.17, -17.91)" gradientUnits="userSpaceOnUse"><stop offset="0" stop-color="#5a5a5a"/><stop offset="1" stop-color="#464646"/></linearGradient><linearGradient id="linear-gradient-2" x1="32" y1="-29.41" x2="32" y2="-33.29" gradientTransform="matrix(1, 0, 0, -1, -0.17, -17.91)" gradientUnits="userSpaceOnUse"><stop offset="0" stop-color="#464646" stop-opacity="0"/><stop offset="0.33" stop-color="#3e3e3e" stop-opacity="0.33"/><stop offset="0.85" stop-color="#282828" stop-opacity="0.85"/><stop offset="1" stop-color="#202020"/></linearGradient><linearGradient id="linear-gradient-3" x1="29" y1="-29.08" x2="34.98" y2="-35.06" gradientTransform="matrix(1, 0, 0, -1, -0.17, -17.91)" gradientUnits="userSpaceOnUse"><stop offset="0" stop-color="#eef4ff"/><stop offset="1" stop-color="#cfe7fd"/></linearGradient><linearGradient id="linear-gradient-4" x1="32" y1="-30.58" x2="32" y2="-33.09" gradientTransform="matrix(1, 0, 0, -1, -0.17, -17.91)" gradientUnits="userSpaceOnUse"><stop offset="0" stop-color="#8aaadc" stop-opacity="0"/><stop offset="1" stop-color="#8aaadc"/></linearGradient><linearGradient id="linear-gradient-5" x1="32.19" y1="-33.39" x2="34.9" y2="-26.22" xlink:href="#linear-gradient-4"/><linearGradient id="linear-gradient-6" x1="13.81" y1="-30.77" x2="17.47" y2="-34.43" gradientTransform="matrix(1, 0, 0, -1, -0.17, -17.91)" gradientUnits="userSpaceOnUse"><stop offset="0" stop-color="#f7e07d"/><stop offset="1" stop-color="#e69642"/></linearGradient><linearGradient id="linear-gradient-7" x1="15.72" y1="-31.78" x2="16.17" y2="-34.04" gradientTransform="matrix(1, 0, 0, -1, -0.17, -17.91)" gradientUnits="userSpaceOnUse"><stop offset="0" stop-color="#d52c1c" stop-opacity="0"/><stop offset="0.28" stop-color="#d12c1e" stop-opacity="0.28"/><stop offset="0.57" stop-color="#c42c23" stop-opacity="0.57"/><stop offset="0.87" stop-color="#af2b2c" stop-opacity="0.87"/><stop offset="1" stop-color="#a42b31"/></linearGradient><linearGradient id="linear-gradient-8" x1="12.79" y1="-34.71" x2="42.61" y2="-64.54" xlink:href="#linear-gradient"/><linearGradient id="linear-gradient-9" x1="52" y1="-73.93" x2="30.05" y2="-51.97" gradientTransform="matrix(1, 0, 0, -1, -0.17, -17.91)" gradientUnits="userSpaceOnUse"><stop offset="0" stop-color="#464646" stop-opacity="0"/><stop offset="1" stop-color="#202020"/></linearGradient><linearGradient id="linear-gradient-10" x1="31.85" y1="-61.53" x2="31.85" y2="-77.12" xlink:href="#linear-gradient-9"/><linearGradient id="linear-gradient-11" x1="26.17" y1="-48.1" x2="38.84" y2="-60.77" xlink:href="#linear-gradient"/><linearGradient id="linear-gradient-12" x1="31.85" y1="-48.91" x2="31.85" y2="-41.55" xlink:href="#linear-gradient-9"/><linearGradient id="linear-gradient-13" x1="31.85" y1="-57.07" x2="31.85" y2="-65.4" xlink:href="#linear-gradient-9"/><linearGradient id="linear-gradient-14" x1="28.41" y1="-50.33" x2="41.78" y2="-63.7" xlink:href="#linear-gradient-9"/><linearGradient id="linear-gradient-15" x1="-701.17" y1="9703.1" x2="-687.8" y2="9689.73" gradientTransform="matrix(-1, 0, 0, 1, -670.79, -9703.75)" xlink:href="#linear-gradient-9"/><linearGradient id="linear-gradient-16" x1="24.79" y1="-46.71" x2="33.9" y2="-55.83" xlink:href="#linear-gradient-9"/><linearGradient id="linear-gradient-17" x1="21.61" y1="-43.53" x2="43.09" y2="-65.02" xlink:href="#linear-gradient-3"/><linearGradient id="linear-gradient-18" x1="-708.87" y1="9710.8" x2="-691.04" y2="9692.97" gradientTransform="matrix(-1, 0, 0, 1, -670.79, -9703.75)" xlink:href="#linear-gradient-3"/><linearGradient id="linear-gradient-19" x1="31.85" y1="-60.95" x2="31.85" y2="-69.85" xlink:href="#linear-gradient-4"/><linearGradient id="linear-gradient-20" x1="51.32" y1="-42.07" x2="47.98" y2="-38.73" xlink:href="#linear-gradient"/></defs><title>multimedia</title><path class="cls-1" d="M43.35,16.64H20.56l2.58-7.89a2.23,2.23,0,0,1,2.12-1.54H38.65a2.23,2.23,0,0,1,2.12,1.54Z"/><path class="cls-2" d="M20.56,16.64H43.35l-2-6.12H22.56Z"/><path class="cls-3" d="M40.38,16.38H23.54l1.9-5.83A1.65,1.65,0,0,1,27,9.42H36.9a1.65,1.65,0,0,1,1.57,1.13Z"/><path class="cls-4" d="M40.38,16.38H23.54l1.9-5.83A1.65,1.65,0,0,1,27,9.42H36.9a1.65,1.65,0,0,1,1.57,1.13Z"/><path class="cls-5" d="M23.54,16.38H40.38l-1.33-4H24.86Z"/><path class="cls-6" d="M19.66,17.18H12.14V13.87a1.65,1.65,0,0,1,1.65-1.65H18a1.65,1.65,0,0,1,1.65,1.65v3.31Z"/><path class="cls-7" d="M19.66,17.18H12.14V13.87a1.65,1.65,0,0,1,1.65-1.65H18a1.65,1.65,0,0,1,1.65,1.65v3.31Z"/><path class="cls-8" d="M46.24,56.79H17.38A10.36,10.36,0,0,1,7,46.43V25.74A10.36,10.36,0,0,1,17.38,15.38H46.24A10.36,10.36,0,0,1,56.6,25.74V46.43A10.36,10.36,0,0,1,46.24,56.79Z"/><path class="cls-9" d="M32,18.85a17.41,17.41,0,0,0-11.73,30.3l7.63,7.64H46.24A10.36,10.36,0,0,0,56.6,46.43V36.27L44.88,24.55A17.38,17.38,0,0,0,32,18.85Z"/><path class="cls-10" d="M7,40.71v5.72A10.36,10.36,0,0,0,17.38,56.79H46.24A10.36,10.36,0,0,0,56.6,46.43V40.71Z"/><circle class="cls-11" cx="31.81" cy="36.08" r="12.25"/><circle class="cls-12" cx="31.81" cy="36.08" r="12.25"/><path class="cls-13" d="M19.84,38.68a12.25,12.25,0,0,0,23.94,0Z"/><path class="cls-14" d="M38.16,29.74a9,9,0,1,0,2.63,6.34,8.94,8.94,0,0,0-2.63-6.34Z"/><path class="cls-15" d="M25.46,42.43a9,9,0,1,0-2.62-6.35,9,9,0,0,0,2.62,6.35Z"/><path class="cls-16" d="M27.14,40.76a6.6,6.6,0,1,0-1.94-4.68A6.6,6.6,0,0,0,27.14,40.76Z"/><path class="cls-17" d="M31.81,53.51A17.43,17.43,0,1,1,49.23,36.08,17.44,17.44,0,0,1,31.81,53.51Zm0-30.48a13,13,0,1,0,13.05,13A13.07,13.07,0,0,0,31.81,23Z"/><path class="cls-18" d="M31.81,20.81A15.28,15.28,0,1,1,16.54,36.08,15.3,15.3,0,0,1,31.81,20.81Zm0,26.71A11.44,11.44,0,1,0,20.37,36.08,11.45,11.45,0,0,0,31.81,47.52Z"/><path class="cls-19" d="M43.25,36.18a11.44,11.44,0,0,1-22.88,0h-6a17.42,17.42,0,0,0,34.84,0Z"/><circle class="cls-20" cx="48.66" cy="21.63" r="2.92"/></svg>