<svg id="Capa_1" enable-background="new 0 0 512 512" height="512" viewBox="0 0 512 512" width="512" xmlns="http://www.w3.org/2000/svg"><g><g><path d="m317.776 418.513h35.036v63.649h-35.036z" fill="#e1e9ee"/><path d="m317.776 418.513h17.518v63.649h-17.518z" fill="#d4e1e6"/><path d="m444.884 482.163h-22.856c0-13.686-11.095-24.781-24.781-24.781h-123.907c-13.686 0-24.781 11.095-24.781 24.781h-22.856c-8.239 0-14.919 6.679-14.919 14.919 0 8.239 6.679 14.919 14.919 14.919h219.181c8.239 0 14.919-6.679 14.919-14.919 0-8.24-6.679-14.919-14.919-14.919z" fill="#bbcfd4"/><path d="m273.336 457.376c-13.686 0-24.777 11.1-24.777 24.786l.023.002h-22.872c-8.244 0-14.926 6.672-14.926 14.917 0 4.122 1.67 7.849 4.374 10.543 2.703 2.703 6.43 4.373 10.552 4.373h66.653c-4.122 0-7.849-1.67-10.552-4.373-2.703-2.694-4.374-6.421-4.374-10.543 0-8.244 6.682-14.917 14.926-14.917h-.053l.053-.002h3.846c0-13.686 11.091-24.786 24.777-24.786z" fill="#a3b8bf"/><path d="m194.193 264.282c4.268 0 7.726 3.459 7.726 7.726v42.578c0 53.044 43.159 96.199 96.21 96.199h74.327c53.05 0 96.21-43.155 96.21-96.199v-38.993h-16.896c-4.268 0-7.726-3.459-7.726-7.726s3.459-7.726 7.726-7.726h16.891v-16.923c0-4.267 3.459-7.726 7.726-7.726 4.268 0 7.726 3.459 7.726 7.726l.004 71.368c0 61.565-50.092 111.651-111.662 111.651h-74.327c-61.571 0-111.662-50.086-111.662-111.651v-42.578c0-4.267 3.459-7.726 7.727-7.726z" fill="#d4e1e6"/><path d="m437.332 159.987v168.85h-204.077v-168.85" fill="#a3b8bf"/><path d="m289.88 159.987v168.85h-56.625v-168.85" fill="#8d9fad"/><g fill="#e1e9ee"><path d="m429.875 172.776h-189.162c-10.634 0-17.749-10.855-13.61-20.65 16.038-37.954 53.609-64.59 97.408-64.59h21.567c43.798 0 81.369 26.636 97.407 64.59 4.139 9.795-2.976 20.65-13.61 20.65z"/><path d="m451.78 213.098c0 7.979-6.468 14.448-14.448 14.448h-204.077c-7.979 0-14.448-6.468-14.448-14.448 0-7.979 6.468-14.448 14.448-14.448h204.077c7.979 0 14.448 6.468 14.448 14.448z"/><path d="m240.71 308.187h189.168c10.633 0 17.748 10.854 13.61 20.649-16.034 37.955-53.612 64.591-97.411 64.591h-21.567c-43.798 0-81.376-26.636-97.411-64.591-4.137-9.794 2.978-20.649 13.611-20.649z"/><path d="m451.78 267.866c0 7.979-6.468 14.448-14.448 14.448h-204.077c-7.979 0-14.448-6.468-14.448-14.448 0-7.979 6.468-14.448 14.448-14.448h204.077c7.979.001 14.448 6.469 14.448 14.448z"/></g><path d="m283.725 152.128c-4.14 9.793 2.975 20.649 13.61 20.649h-56.625c-10.635 0-17.75-10.856-13.61-20.649 16.042-37.957 53.616-64.591 97.414-64.591h21.567c5.976 0 11.825.493 17.529 1.454-36.121 6.018-66.028 30.357-79.885 63.137z" fill="#d4e1e6"/><path d="m289.88 227.546h-56.626c-7.983 0-14.443-6.469-14.443-14.443v-.008c0-7.974 6.461-14.443 14.443-14.443h56.626c-7.983 0-14.452 6.469-14.452 14.443v.008c0 7.973 6.47 14.443 14.452 14.443z" fill="#d4e1e6"/><path d="m363.61 391.974c-5.704.961-11.553 1.454-17.529 1.454h-21.567c-43.806 0-81.381-26.634-97.414-64.591-4.14-9.793 2.975-20.649 13.61-20.649h56.626c-10.635 0-17.75 10.856-13.61 20.649 13.848 32.78 43.763 57.119 79.884 63.137z" fill="#d4e1e6"/><path d="m289.88 282.314h-56.626c-7.983 0-14.443-6.469-14.443-14.443v-.009c0-7.974 6.461-14.443 14.443-14.443h56.626c-7.983 0-14.452 6.469-14.452 14.443v.009c0 7.974 6.47 14.443 14.452 14.443z" fill="#d4e1e6"/></g><circle cx="176.005" cy="148.128" fill="#94cdf7" r="148.123"/><path d="m205.771 293.257c-9.611 1.957-19.563 2.988-29.762 2.988-81.805 0-148.128-66.312-148.128-148.117.001-81.816 66.323-148.128 148.129-148.128 10.199 0 20.15 1.03 29.762 2.987-67.539 13.774-118.367 73.523-118.367 145.141s50.828 131.356 118.366 145.129z" fill="#88bdf4"/><path d="m241.102 123.63-81.303-46.94c-18.858-10.888-42.431 2.722-42.431 24.498v93.881c0 21.776 23.573 35.385 42.431 24.498l81.303-46.94c18.858-10.89 18.858-38.109 0-48.997z" fill="#687780"/><path d="m160.48 219.172-.68.391c-18.862 10.889-42.433-2.72-42.433-24.497v-93.879c0-21.778 23.57-35.386 42.433-24.497l.68.392c-7.901 4.842-13.485 13.505-13.485 24.106v93.879c0 10.6 5.584 19.263 13.485 24.105z" fill="#4e5959"/></g></svg>