<?xml version="1.0" encoding="utf-8"?>
<!-- Generator: Adobe Illustrator 23.1.0, SVG Export Plug-In . SVG Version: 6.00 Build 0)  -->
<svg version="1.1" id="Layer_1" xmlns="http://www.w3.org/2000/svg" xmlns:xlink="http://www.w3.org/1999/xlink" x="0px" y="0px"
	 viewBox="0 0 64 64" style="enable-background:new 0 0 64 64;" xml:space="preserve">
<style type="text/css">
	.st0{fill:#F2F2F2;}
	.st1{fill:#B2B2B2;}
</style>
<rect x="0" y="0" class="st0" width="64" height="64"/>
<g>
	<path class="st1" d="M11.8,26.8c0.1-0.6,0.2-1.3,0.4-1.9c1.3-5,5.6-8.3,10.9-8.3c5.9,0,11.9,0,17.8,0c5.6,0,9.8,3.8,10.9,8.3
		c0.2,0.8,0.3,1.7,0.4,2.6c0,1.6,0.1,3.2-0.1,4.8c-0.4,4.7-3.9,8.7-8.5,9.7c-0.9,0.2-1.8,0.3-2.8,0.3c-5.8,0-11.5,0-17.3,0
		c-0.3,0-0.6,0.1-0.8,0.2c-3.5,1.6-7,3.3-10.6,4.9c-0.1,0.1-0.2,0.1-0.4,0.1C11.8,40.5,11.8,33.6,11.8,26.8z M14.2,43.5
		c0.2-0.1,0.3-0.1,0.4-0.2c2.5-1.2,5-2.3,7.5-3.5c0.3-0.1,0.5-0.2,0.8-0.2c5.9,0,11.8,0,17.7,0c0.6,0,1.1,0,1.6-0.1
		c3.6-0.5,6.7-3.5,7.1-7c0.2-1.9,0.2-3.8,0.1-5.6c-0.3-4.4-4-7.8-8.4-7.9c-6.2,0-12.4,0-18.6,0c-1.9,0-3.6,0.6-5.1,1.8
		c-2.3,1.8-3.4,4.1-3.4,7c0,5.1,0,10.2,0,15.3C14.2,43.2,14.2,43.3,14.2,43.5z"/>
	<path class="st1" d="M23.7,32.1c-1.3,0-2.3-1.1-2.3-2.4c0-1.3,1.1-2.3,2.4-2.3c1.3,0,2.3,1.1,2.3,2.3C26,31.1,25,32.2,23.7,32.1z"
		/>
	<path class="st1" d="M40.2,32.1c-1.3,0-2.4-1.1-2.3-2.4c0-1.3,1.1-2.3,2.3-2.3c1.3,0,2.4,1,2.4,2.3C42.6,31.1,41.6,32.1,40.2,32.1z
		"/>
	<path class="st1" d="M32,32.1c-1.3,0-2.4-1.1-2.4-2.4c0-1.3,1.1-2.3,2.4-2.3c1.3,0,2.3,1.1,2.3,2.3C34.3,31.1,33.3,32.1,32,32.1z"
		/>
</g>
</svg>
