<svg xmlns="http://www.w3.org/2000/svg" xmlns:xlink="http://www.w3.org/1999/xlink" width="400" height="338" viewBox="0 0 400 338"><defs><clipPath id="b"><rect width="400" height="338"/></clipPath></defs><g id="a" clip-path="url(#b)"><g transform="translate(270 24)"><rect width="60.51" height="41.81" rx="12" fill="#d8d8d8"/><rect width="9.1" height="28.35" transform="translate(12.52 6.73)" fill="#055482"/><rect width="9.1" height="9.5" transform="translate(25.71 25.58)" fill="#055482"/><rect width="9.1" height="17.49" transform="translate(38.89 17.59)" fill="#055482"/></g><g transform="translate(49.742 18.742)"><g transform="translate(-0.166 -0.166)"><circle cx="150.5" cy="150.5" r="150.5" transform="translate(0.424 0.424)" fill="#f2f2f2"/></g></g><g transform="translate(-16.369 71.135)"><circle cx="2.155" cy="2.155" r="2.155" transform="translate(125.262 164.719)" fill="#fff" stroke="#969696" stroke-linecap="round" stroke-linejoin="round" stroke-width="1.14"/><rect width="22.439" height="35.832" transform="translate(85.404 179.165)" fill="#e8e8e8"/><rect width="22.439" height="48.123" transform="translate(116.191 166.874)" fill="#e8e8e8"/><rect width="22.439" height="79.852" transform="translate(146.978 135.145)" fill="#e8e8e8"/><rect width="22.439" height="103.42" transform="translate(177.765 111.577)" fill="#e8e8e8"/><path d="M73.92,235.424,96.6,204.836l30.819-11.877L158.2,160.952l30.819-23.568L209.069,93.52" transform="translate(0 -25.807)" fill="none" stroke="#969696" stroke-linecap="round" stroke-linejoin="round" stroke-width="2.31"/><line x1="4.555" y1="14.942" transform="translate(204.514 52.771)" fill="none" stroke="#1f161e" stroke-linecap="round" stroke-miterlimit="10" stroke-width="1"/><ellipse cx="10.884" cy="2.613" rx="10.884" ry="2.613" transform="translate(190.372 60.364)" fill="#f8cdba"/><path d="M151.965,332.88c0,.955-.323,6.561.477,7.51,1.452,1.716,13.316,1.026,13.877.477s.9-1.71.406-2.052-5.2-1.329-5.806-1.781a5.405,5.405,0,0,1-1.148-4.071" transform="translate(-27.67 -110.741)" fill="#1f161e"/><path d="M181.735,309.19c.761.561,5.432,3.69,5.7,4.9.5,2.194-7.2,11.245-7.974,11.361s-1.935-.3-1.884-.9,2.071-4.955,2.09-5.736a5.258,5.258,0,0,0-2.581-3.374" transform="translate(-36.609 -102.335)" fill="#1f161e"/><path d="M108,150.876s-7.206,61.736-5.806,65.2c.794,1.935,48.336,43.1,48.336,43.1l5.058-6.645-29.936-35.168-6.871-65.42C116.733,150.341,114.075,148.792,108,150.876Z" transform="translate(-9.968 -45.802)" fill="#022b43"/><path d="M149.21,151.594V267.723H138.63L119.32,150.948S136.591,144.355,149.21,151.594Z" transform="translate(-16.11 -45.21)" fill="#055482"/><path d="M117.338,68.33c25.3,0,79.116,8.91,80.9,9.032v9.465s-53.478,3.426-58.826,3.871c-.413,4.252-2.9,31.613-4.419,32.574s-33.974-.348-35.071-1.29c-.194,2.187-1.761,15.729-1.761,15.729-8.542-4.968-18.9-29.916-18.9-32.774,0-15.632,14.394-32.987,15.923-33.845S107.479,68.33,117.338,68.33Z" transform="translate(-1.895 -16.869)" fill="#30b992"/><path d="M139.2,65.566c0,1.632-8.981,1.755-8.981,0V54.65H139.2Z" transform="translate(-19.977 -12.015)" fill="#f8cdba"/><path d="M130.22,61.134c0-.974,2.219-4.323,3.936-3.755-2.116-.748-3.161-3.29-3.936-2.768Z" transform="translate(-19.977 -11.976)"/><path d="M110.647,134.632c-.374-2.516-1.794-23.561-.852-30.542" transform="translate(-12.617 -29.558)" fill="none" stroke="#1f161e" stroke-linecap="round" stroke-miterlimit="10" stroke-width="0.62"/><circle cx="11.665" cy="11.665" r="11.665" transform="translate(107.056 22.99)" fill="#f8cdba"/><ellipse cx="1.948" cy="1.013" rx="1.948" ry="1.013" transform="translate(128.565 35.209)" fill="#fa9e9f"/><ellipse cx="1.948" cy="1.013" rx="1.948" ry="1.013" transform="translate(116.333 35.209)" fill="#fa9e9f"/><path d="M154.28,41.45c.361.516,2.232,2.7.258,3.581" transform="translate(-28.515 -7.331)" fill="none" stroke="#1f161e" stroke-linecap="round" stroke-miterlimit="10" stroke-width="0.69"/><path d="M147.536,50.241A3.2,3.2,0,0,1,145.6,48.86" transform="translate(-25.435 -9.96)" fill="none" stroke="#1f161e" stroke-linecap="round" stroke-miterlimit="10" stroke-width="0.69"/><path d="M124.956,27.855c0-4.045,5.645-7.065,9.574-7.065a67.644,67.644,0,0,1,15.136,1.968,3.961,3.961,0,0,1,2.445,3.735c0,3.148-1.148,5.11-4.619,5.613a10.774,10.774,0,0,0-1.226-3.161,4.381,4.381,0,0,0-3.013-.052c-.884.31-8.29,3.794-13.761,3.794-.735,1.026-2.335,7.3-1.865,9.948-1.606.09-4.561-5.129-4.71-7.865a6,6,0,0,1,2.245-4.9C125.1,29.313,124.956,28.177,124.956,27.855Z" transform="translate(-17.385)"/><circle cx="2.568" cy="2.568" r="2.568" transform="translate(109.043 32.642)" fill="#f8cdba"/><path d="M167.621,103H158.75s8.265,6.781,7.639,12.426C166.711,112.3,167.621,103,167.621,103Z" transform="translate(-30.101 -29.171)"/><circle cx="2.155" cy="2.155" r="2.155" transform="translate(94.468 177.01)" fill="#fff" stroke="#969696" stroke-linecap="round" stroke-linejoin="round" stroke-width="1.14"/><circle cx="2.155" cy="2.155" r="2.155" transform="translate(156.049 132.99)" fill="#fff" stroke="#969696" stroke-linecap="round" stroke-linejoin="round" stroke-width="1.14"/><circle cx="2.155" cy="2.155" r="2.155" transform="translate(186.836 109.422)" fill="#fff" stroke="#969696" stroke-linecap="round" stroke-linejoin="round" stroke-width="1.14"/></g><g transform="translate(136.754 71.08) rotate(180)"><path d="M48.17,2,66.494,42.2,48.17,52.751Z" transform="translate(-26.74 -1.11)" fill="#e2e2e2"/><path d="M18.324,0,0,40.2,18.324,50.751Z" fill="#fadb93" opacity="0.57"/><path d="M41.19,0,59.514,40.2,41.19,50.751Z" transform="translate(-22.866)" fill="#78e5e1"/><path d="M71.531,87.109a5.085,5.085,0,0,1-.681-2.558,5.138,5.138,0,0,1,3-4.671" transform="translate(-39.331 -44.343)" fill="none" stroke="#000" stroke-miterlimit="10" stroke-width="0.41"/></g><g transform="translate(245 105.613)"><g transform="translate(0 1)"><rect width="120.949" height="168.021" rx="10" transform="translate(14.204 0)" fill="none" stroke="#666" stroke-miterlimit="10" stroke-width="2"/><rect width="119.553" height="126.179" transform="translate(14.903 17.652)" fill="#e2e2e2"/><circle cx="8.499" cy="8.499" r="8.499" transform="translate(66.18 147.1)" fill="#fadb93"/><circle cx="2.367" cy="2.367" r="2.367" transform="translate(123.017 26.704)" fill="#055482"/><circle cx="2.367" cy="2.367" r="2.367" transform="translate(123.017 33.377)" fill="#055482"/><circle cx="2.367" cy="2.367" r="2.367" transform="translate(123.017 40.051)" fill="#055482"/><circle cx="2.367" cy="2.367" r="2.367" transform="translate(123.017 46.724)" fill="#055482"/><circle cx="2.367" cy="2.367" r="2.367" transform="translate(123.017 53.399)" fill="#055482"/><circle cx="2.367" cy="2.367" r="2.367" transform="translate(123.017 60.071)" fill="#055482"/><circle cx="15.115" cy="15.115" r="15.115" transform="translate(25.809 29.841)" fill="none" stroke="#666" stroke-miterlimit="10" stroke-width="0.82"/><line x2="66.178" transform="translate(40.924 44.956)" fill="none" stroke="#666" stroke-miterlimit="10" stroke-width="0.63"/><line x2="106.441" transform="translate(0 73.726)" fill="none" stroke="#666" stroke-miterlimit="10" stroke-width="0.63"/><line x2="106.441" transform="translate(0 80.742)" fill="none" stroke="#666" stroke-miterlimit="10" stroke-width="0.63"/><line x2="106.441" transform="translate(0 87.758)" fill="none" stroke="#666" stroke-miterlimit="10" stroke-width="0.63"/><rect width="20.255" height="20.255" transform="translate(22.916 115.361)" fill="#30b992"/><rect width="20.255" height="20.255" transform="translate(50.674 115.361)" fill="#30b992"/><rect width="20.255" height="20.255" transform="translate(78.429 115.361)" fill="#30b992"/><rect width="20.255" height="20.255" transform="translate(106.186 115.361)" fill="#30b992"/></g></g><g transform="translate(257 265.439)"><path d="M48.17,2,66.494,42.2,48.17,52.751Z" transform="translate(-26.74 -1.11)" fill="#e2e2e2"/><path d="M18.324,0,0,40.2,18.324,50.751Z" fill="#fadb93" opacity="0.57"/><path d="M41.19,0,59.514,40.2,41.19,50.751Z" transform="translate(-22.866)" fill="#78e5e1"/><path d="M71.531,87.109a5.085,5.085,0,0,1-.681-2.558,5.138,5.138,0,0,1,3-4.671" transform="translate(-39.331 -44.343)" fill="none" stroke="#000" stroke-miterlimit="10" stroke-width="0.41"/></g><g transform="translate(196.002 29.12) rotate(30)"><g transform="translate(0 0)"><path d="M32.106,44.246h5.4A2.15,2.15,0,0,0,39.646,42.1V9a2.114,2.114,0,0,0-.63-1.511L32.223.63A2.114,2.114,0,0,0,30.712,0H10.541A2.15,2.15,0,0,0,8.4,2.141v3.2" transform="translate(-0.843 0)" fill="#fbdc8e"/><path d="M22.195,5.94H2.4A2.411,2.411,0,0,0,0,8.351V47.766a2.411,2.411,0,0,0,2.42,2.411H28.853a2.411,2.411,0,0,0,2.411-2.411V14.991a2.438,2.438,0,0,0-.7-1.709L23.9,6.624a2.438,2.438,0,0,0-1.709-.684Z" transform="translate(0 -0.596)" fill="#d8d8d8"/><path d="M33.85,14.091H27.13a1.35,1.35,0,0,1-1.35-1.35V5.94" transform="translate(-2.586 -0.596)" fill="#969696"/><path d="M42.26,8.1H35.54a1.35,1.35,0,0,1-1.35-1.35V0" transform="translate(-3.43 0)" fill="#64ccc4"/><rect width="8.061" height="1.691" rx="0.846" transform="translate(3.527 9.411)" fill="#969696"/><rect width="8.061" height="1.691" rx="0.846" transform="translate(3.527 13.477)" fill="#969696"/><rect width="24.948" height="1.691" rx="0.846" transform="translate(3.158 20.432)" fill="#969696"/><rect width="24.948" height="1.691" rx="0.846" transform="translate(3.158 24.426)" fill="#969696"/><rect width="24.948" height="1.691" rx="0.846" transform="translate(3.158 28.421)" fill="#969696"/></g></g></g></svg>