<?xml version="1.0" encoding="utf-8"?>
<!-- Generator: Adobe Illustrator 25.0.0, SVG Export Plug-In . SVG Version: 6.00 Build 0)  -->
<svg version="1.1" id="Layer_1" xmlns="http://www.w3.org/2000/svg" xmlns:xlink="http://www.w3.org/1999/xlink" x="0px" y="0px"
	 viewBox="0 0 400 255" style="enable-background:new 0 0 400 255;" xml:space="preserve">
<style type="text/css">
	.st0{clip-path:url(#SVGID_2_);}
	.st1{fill:#F2F2F2;}
	.st2{opacity:0.4;fill:#F2F2F2;enable-background:new    ;}
	.st3{fill:url(#SVGID_3_);}
	.st4{fill:none;stroke:#FBDC8E;stroke-width:3.0016;stroke-linecap:round;stroke-miterlimit:10.0052;}
	.st5{fill:#E2E2E2;}
	.st6{fill:#78E5E1;}
	.st7{fill:none;stroke:#000000;stroke-width:0.41;stroke-miterlimit:10;}
	.st8{fill:none;stroke:#000000;stroke-width:0.4092;stroke-miterlimit:10.0051;}
	.st9{opacity:0.57;}
	.st10{fill:#FADB93;}
	.st11{fill:#6B6B6B;}
	.st12{fill:none;stroke:#6B6B6B;stroke-width:3;stroke-miterlimit:10;}
	.st13{fill:#1F161E;}
	.st14{fill:#022B43;}
	.st15{fill:#2A487A;}
	.st16{fill:#30B992;}
	.st17{fill:#F8CDBA;}
	.st18{fill:none;stroke:#1F161E;stroke-width:0.55;stroke-linecap:round;stroke-miterlimit:10;}
	.st19{fill:#FA9E9F;}
	.st20{fill:#B37361;}
	.st21{fill:#333333;}
	.st22{fill:#FFFFFF;}
	.st23{fill:url(#SVGID_4_);}
	.st24{fill:none;stroke:#FBDC8E;stroke-width:3;stroke-linecap:round;stroke-miterlimit:10;}
	.st25{fill:#8E554A;}
	.st26{fill:#B27363;}
	.st27{fill:none;stroke:#30B992;stroke-width:2;stroke-linecap:round;stroke-linejoin:round;}
	.st28{fill:none;stroke:#30B992;stroke-width:11;stroke-linecap:round;stroke-miterlimit:10;}
	.st29{fill:#055482;}
	.st30{fill-rule:evenodd;clip-rule:evenodd;fill:#055482;}
	.st31{fill:#F8DA96;}
	.st32{fill:#FBDC8E;}
	.st33{fill:#D8D8D8;}
	.st34{fill:#969696;}
	.st35{fill:none;stroke:#969696;stroke-width:0.82;stroke-linecap:round;stroke-linejoin:round;stroke-miterlimit:4;}
	.st36{font-family:'SegoeUI-Bold';}
	.st37{font-size:1px;}
</style>
<g>
	<defs>
		<rect id="SVGID_1_" width="400" height="255"/>
	</defs>
	<clipPath id="SVGID_2_">
		<use xlink:href="#SVGID_1_"  style="overflow:visible;"/>
	</clipPath>
	<g id="c" class="st0">
		<g transform="translate(6388 -504.365)">
			<g transform="translate(-6374 643.645)">
				<path class="st1" d="M289.4,113c0.1-1.3,0.1-2.5,0.1-3.8C289.5,48.9,224.7,0,144.8,0S0,48.9,0,109.3c0,1.3,0,2.5,0.1,3.8
					L289.4,113z"/>
				<path class="st2" d="M372.2,113c0-0.9,0.1-1.8,0.1-2.7c0-42.6-48.4-77.2-108.1-77.2s-108.1,34.5-108.1,77.2c0,0.9,0,1.8,0.1,2.7
					H372.2z"/>
			</g>
			<g transform="matrix(0.914, 0.407, -0.407, 0.914, -6314.801, 681.949)">
				<g transform="translate(0 0)">
					
						<linearGradient id="SVGID_3_" gradientUnits="userSpaceOnUse" x1="-99.9088" y1="424.7709" x2="-99.9088" y2="423.7709" gradientTransform="matrix(35.6161 -24.0104 -15.8597 -53.9201 10314.5771 20504.8262)">
						<stop  offset="0" style="stop-color:#055482"/>
						<stop  offset="1" style="stop-color:#30B992"/>
					</linearGradient>
					<path class="st3" d="M30.9,0.7c8,3.7,9,17.2,7.5,20.2c-2.3,4.8-10.8,11.8-13.1,16.7c-1,2.1-9.3,23.7-17,21.2
						C1.4,56.5-2.3,46.6,1.6,39.7c5.7-10.2,8-23.9,10-27.5C14.3,7.4,23.1-2.8,30.9,0.7z"/>
					<path class="st4" d="M5.4,79.4c0-4.9,3-44.5,17.2-60.7"/>
					<line class="st4" x1="17.6" y1="26.2" x2="14.5" y2="14.4"/>
				</g>
			</g>
			<g transform="translate(-6206.778 630.42) rotate(-22)">
				<g transform="translate(0 0)">
					
						<rect x="2.5" y="1.3" transform="matrix(-0.9829 0.1841 -0.1841 -0.9829 17.6423 17.307)" class="st5" width="11" height="16.4"/>
					
						<rect x="3.1" y="8.8" transform="matrix(-0.9829 0.1841 -0.1841 -0.9829 9.3461 18.2084)" class="st6" width="1.4" height="1.4"/>
					
						<rect x="10.1" y="7.5" transform="matrix(-0.9829 0.1841 -0.1841 -0.9829 22.9011 14.3418)" class="st6" width="1.4" height="1.4"/>
					
						<rect x="7.8" y="8" transform="matrix(-0.9829 0.1841 -0.1841 -0.9829 18.3826 15.6293)" class="st6" width="1.4" height="1.4"/>
					
						<rect x="5.4" y="8.4" transform="matrix(-0.9835 0.1809 -0.1809 -0.9835 13.7248 16.9524)" class="st6" width="1.4" height="1.4"/>
					
						<rect x="2.7" y="6.7" transform="matrix(-0.9829 0.1841 -0.1841 -0.9829 8.1655 14.0661)" class="st6" width="1.4" height="1.4"/>
					
						<rect x="9.7" y="5.4" transform="matrix(-0.9829 0.1841 -0.1841 -0.9829 21.7208 10.2034)" class="st6" width="1.4" height="1.4"/>
					
						<rect x="7.4" y="5.8" transform="matrix(-0.9829 0.1841 -0.1841 -0.9829 17.2023 11.4909)" class="st6" width="1.4" height="1.4"/>
					
						<rect x="5" y="6.3" transform="matrix(-0.9835 0.1809 -0.1809 -0.9835 12.5719 12.8196)" class="st6" width="1.4" height="1.4"/>
					
						<rect x="1.4" y="0.9" transform="matrix(-0.9829 0.1841 -0.1841 -0.9829 15.4311 16.7123)" class="st7" width="11" height="16.4"/>
					
						<rect x="1.6" y="2.3" transform="matrix(-0.9829 0.1841 -0.1841 -0.9829 12.3313 5.827)" class="st7" width="8.5" height="2.3"/>
					
						<rect x="2.2" y="6.3" transform="matrix(-0.9829 0.1841 -0.1841 -0.9829 7.1525 13.3881)" class="st7" width="1.4" height="1.4"/>
					
						<rect x="9.2" y="5" transform="matrix(-0.9829 0.1841 -0.1841 -0.9829 20.7112 9.5191)" class="st7" width="1.4" height="1.4"/>
					
						<rect x="6.8" y="5.5" transform="matrix(-0.9835 0.1809 -0.1809 -0.9835 16.082 10.8694)" class="st8" width="1.4" height="1.4"/>
					
						<rect x="4.6" y="5.9" transform="matrix(-0.9829 0.1841 -0.1841 -0.9829 11.6706 12.0966)" class="st7" width="1.4" height="1.4"/>
					
						<rect x="2.7" y="8.5" transform="matrix(-0.9829 0.1841 -0.1841 -0.9829 8.3789 17.6782)" class="st7" width="1.4" height="1.4"/>
					
						<rect x="9.6" y="7.2" transform="matrix(-0.9829 0.1841 -0.1841 -0.9829 21.9302 13.8159)" class="st7" width="1.4" height="1.4"/>
					
						<rect x="7.3" y="7.7" transform="matrix(-0.9829 0.1841 -0.1841 -0.9829 17.4156 15.1011)" class="st7" width="1.4" height="1.4"/>
					
						<rect x="4.9" y="8.1" transform="matrix(-0.9835 0.1809 -0.1809 -0.9835 12.7645 16.422)" class="st8" width="1.4" height="1.4"/>
					<g transform="translate(3.36 9.619)" class="st9">
						
							<rect x="0.1" y="1.4" transform="matrix(-0.9835 0.1809 -0.1809 -0.9835 2.0114 4.0428)" class="st10" width="1.4" height="1.4"/>
						
							<rect x="7.1" y="0.1" transform="matrix(-0.9829 0.1841 -0.1841 -0.9829 15.6954 0.1949)" class="st10" width="1.4" height="1.4"/>
						
							<rect x="4.8" y="0.6" transform="matrix(-0.9829 0.1841 -0.1841 -0.9829 11.1768 1.4804)" class="st10" width="1.4" height="1.4"/>
						
							<rect x="2.5" y="1" transform="matrix(-0.9829 0.1841 -0.1841 -0.9829 6.6582 2.766)" class="st10" width="1.4" height="1.4"/>
					</g>
					
						<rect x="3" y="10.7" transform="matrix(-0.9835 0.1809 -0.1809 -0.9835 9.4463 21.9686)" class="st8" width="1.4" height="1.4"/>
					
						<rect x="10" y="9.4" transform="matrix(-0.9835 0.1809 -0.1809 -0.9835 22.9898 18.1914)" class="st8" width="1.4" height="1.4"/>
					
						<rect x="7.7" y="9.9" transform="matrix(-0.9829 0.1841 -0.1841 -0.9829 18.6401 19.3934)" class="st7" width="1.4" height="1.4"/>
					
						<rect x="5.3" y="10.3" transform="matrix(-0.9835 0.1809 -0.1809 -0.9835 13.9638 20.7126)" class="st8" width="1.4" height="1.4"/>
					<g transform="translate(3.762 11.822)" class="st9">
						
							<rect x="0.1" y="1.4" transform="matrix(-0.9835 0.1809 -0.1809 -0.9835 2.0103 4.0309)" class="st10" width="1.4" height="1.4"/>
						
							<rect x="7.1" y="0.1" transform="matrix(-0.9829 0.1841 -0.1841 -0.9829 15.7152 0.193)" class="st10" width="1.4" height="1.4"/>
						
							<rect x="4.8" y="0.6" transform="matrix(-0.9829 0.1841 -0.1841 -0.9829 11.1966 1.4786)" class="st10" width="1.4" height="1.4"/>
						
							<rect x="2.5" y="1" transform="matrix(-0.9829 0.1841 -0.1841 -0.9829 6.674 2.7645)" class="st10" width="1.4" height="1.4"/>
					</g>
					
						<rect x="3.5" y="12.9" transform="matrix(-0.9829 0.1841 -0.1841 -0.9829 10.8221 26.2634)" class="st7" width="1.4" height="1.4"/>
					
						<rect x="10.4" y="11.6" transform="matrix(-0.9829 0.1841 -0.1841 -0.9829 24.3812 22.3983)" class="st7" width="1.4" height="1.4"/>
					
						<rect x="8.1" y="12.1" transform="matrix(-0.9829 0.1841 -0.1841 -0.9829 19.8627 23.6859)" class="st7" width="1.4" height="1.4"/>
					
						<rect x="5.7" y="12.5" transform="matrix(-0.9835 0.1809 -0.1809 -0.9835 15.1584 24.9957)" class="st8" width="1.4" height="1.4"/>
				</g>
			</g>
			<g transform="translate(-6202.511 685.175)">
				<g transform="translate(0 0)">
					<ellipse class="st11" cx="36" cy="7.9" rx="36" ry="7.9"/>
					<line class="st12" x1="36" y1="7.9" x2="15.8" y2="71.2"/>
					<line class="st12" x1="36" y1="7.9" x2="56.2" y2="71.2"/>
					<line class="st12" x1="22.4" y1="50.4" x2="44.9" y2="36"/>
					<line class="st12" x1="26.9" y1="36" x2="49.4" y2="50.4"/>
				</g>
			</g>
			<g transform="translate(-6279.424 583.763)">
				<path class="st13" d="M44.1,166.1c0,0.7-0.4,5.4,0.4,5.8s10.3,0.7,10.8,0.3s0.7-1.3,0.3-1.6s-4-1-4.6-1.3
					c-0.7-0.9-1.1-2-0.9-3.1"/>
				<path class="st14" d="M4.8,65.8c-0.1,1.2,6.9,42.3,6.9,43.6s-10.8,51-10.8,51l5.8,2.6c0,0,19.7-41.8,20.1-44.4
					S7.9,65.8,4.8,65.8z"/>
				<path class="st15" d="M4.8,65.8C5.2,67,43.6,166.6,43.6,166.6h7.5L24.2,60.1L4.8,65.8z"/>
				<path class="st16" d="M10.9,20.7c12.3,0,13.7,22.3,13.7,25.4s0.4,13-0.3,13.9c-1.1,0.5-18.3,6.3-19.4,5.7S-5.1,20.7,10.9,20.7z"
					/>
				<path class="st13" d="M4.9,45.8c0,1-0.2,7.6,1.4,8.9s15.1,2.9,15.1,4.7c0,0.8,0.2,1.6-1.4,2.1c1.1-0.4,4.2-1.5,4.2-1.5
					c0.3-0.6,0.4-1.2,0.3-1.9C24.3,57.9,4.9,45.8,4.9,45.8z"/>
				<path class="st17" d="M14,16.2L8.7,15c0,0-0.6,6.6-0.7,7.2s4.3,1.1,4.4,0.6S14,16.2,14,16.2z"/>
				<path class="st13" d="M8.5,16.9c0-0.1,1.7,1,2.4,1.3s-2.5,0.6-2.7,1.9C8.3,19.2,8.5,17.1,8.5,16.9z"/>
				<circle class="st17" cx="13" cy="11.6" r="6.9"/>
				<path class="st16" d="M25,55l-0.8,3.1c-3.2-0.5-15-2.6-17.2-5.9c-2.5-3.8-3-13.4-3-13.9c0.7,0.2,7.9,1.7,8.8,1.7
					c-0.2,1.1-0.7,7-0.6,8.6C12.8,50,20.8,53.5,25,55z"/>
				<path class="st17" d="M34.5,55.3c0,0.4-1.1,3.3-2.6,3.3c-2.4,0-3.2-0.6-4.1-0.7c-1.3-0.1-1.8,0.4-2.9,0.3c-0.1,0-0.4,0-0.7-0.1
					L25,55c1,0.3,1.7,0.5,2.2,0.6c1,0,1.5-0.6,2.1-0.6C30.7,55.1,34.5,54.9,34.5,55.3z"/>
				<path class="st18" d="M4.1,38.3c-0.2-4.2,0.4-12.5,5.4-11.8"/>
				<path class="st13" d="M1.6,160.5c-0.2,0.5-2.2,4.6-1.4,6s6.5,4.2,7.2,4s0.8-1,0.3-1.9s-2.7-1.9-2.9-2.7
					c-0.1-1.3,0.3-2.6,1.2-3.5"/>
				<ellipse class="st19" cx="15.7" cy="13.8" rx="1.4" ry="0.7"/>
				<path class="st13" d="M8,16.4c-1.2-0.6-2.8-3-2.8-6.4c0-8.7,10.5-8.5,11.6-8.9C18,0.7,19.3,0.3,20.5,0C22.3,0,23,4.8,23,5.5
					c0,2.1-1.3,4-3.2,4.7c-0.3-0.8-0.7-1.7-1.2-2.4c-0.5,0.3-7.5,2.8-8.7,3.1C10.3,12.3,7.9,15.2,8,16.4z"/>
				<path class="st17" d="M19.7,10.3c0.5,0,1.2,2,1.1,2.4s-1.2,0.8-1.7,0.8S19,10.3,19.7,10.3z"/>
				<path class="st18" d="M15.3,15.5c0,0.5,0.3,0.9,0.8,1"/>
				<circle class="st17" cx="9.3" cy="11.2" r="1.8"/>
				<rect x="22.4" y="37.5" class="st20" width="34.6" height="17.8"/>
			</g>
			<g transform="translate(-6212.766 654.979)">
				<g transform="translate(0 0)">
					<path class="st21" d="M83.4,35.6H30.7l9.5-32.8C40.8,1.1,42.3,0,44,0h44.7c2.1,0,3.8,1.6,3.8,3.7c0,0.4,0,0.7-0.1,1.1
						L83.4,35.6z"/>
					<circle class="st22" cx="63.5" cy="17.8" r="3.2"/>
					<rect x="0" y="33.3" class="st21" width="37" height="2.3"/>
				</g>
			</g>
			<g transform="translate(-6362.605 619.656)">
				<g transform="translate(0)">
					
						<linearGradient id="SVGID_4_" gradientUnits="userSpaceOnUse" x1="-219.8767" y1="410.3116" x2="-219.8767" y2="409.3116" gradientTransform="matrix(49.523 0 0 -113.455 10913.7139 46551.8984)">
						<stop  offset="0" style="stop-color:#055482"/>
						<stop  offset="1" style="stop-color:#30B992"/>
					</linearGradient>
					<path class="st23" d="M21.6,0c11.1,0,14.8,7.5,14.8,12.7c0,10.9-2.4,8.5-2.4,19.7c0,12.1,15.5,27.4,15.5,48.3
						c0,28.6-24.9,32.7-28,32.7C5.8,113.5,0,96.2,0,85.7c0-12.4,10.9-25.7,10.9-37.7c0-8.8-2.9-12.2-2.9-25.8C8.1,8.5,16,0,21.6,0z"
						/>
					<line class="st24" x1="20.7" y1="137.1" x2="20.7" y2="18"/>
					<line class="st24" x1="20.7" y1="95.3" x2="39.2" y2="76.4"/>
					<line class="st24" x1="20.3" y1="42.2" x2="14.3" y2="36.3"/>
					<line class="st24" x1="20.7" y1="26.3" x2="29" y2="18"/>
				</g>
			</g>
			<g transform="translate(-6069.192 632.76)">
				<g transform="translate(0 0)">
					<path class="st25" d="M5.6,24.1c14.1-4.9,26.1,14.4,29.3,19.5c14.1,22.6,2.2,42.3-4.1,44.5C19.9,92.1,8,74.4,4.7,68.8
						C-1,59.2,0.7,45.9,0.1,41.9S1.8,25.4,5.6,24.1z"/>
					<path class="st26" d="M42,0.1c8.9-1.3,14,6.1,15.6,10.3c2.6,6.8,8.1,10.5,8.1,19.3c0,20.4-12.4,36.8-18,36.8
						c-12.3,0-16.9-12.9-16.9-18.4c0-9.3,2.4-20.4,2.2-23.2C32.4,19.2,28.9,2,42,0.1z"/>
					<path class="st27" d="M13,39.5c3.1,4,19,41.3,22.2,82.9"/>
					<path class="st27" d="M23.2,38.1c-0.3,1.3-3.1,8.9-5.4,11.5"/>
					<path class="st27" d="M8.9,62c2.1,1.4,8.3,2.8,14.5,2.8"/>
					<path class="st27" d="M31.2,71c-1.2,1.7-2.9,3-4.8,3.9"/>
					<path class="st27" d="M45.7,25.1c3.7,24.5-5.1,86.9-5.4,97.3"/>
					<path class="st27" d="M54.6,27.2c-2.1,2.6-4.8,4.7-7.9,6.1"/>
					<path class="st27" d="M37.4,45.6c1.9,0.9,5.5,2.4,9,2.4"/>
				</g>
			</g>
			<g transform="translate(-6338.677 504)">
				<path class="st16" d="M271.4,27.9c3.7,0,6.7,3.1,6.6,6.8c0,3.6-3,6.6-6.6,6.6H8.1c-3.7,0-6.7-3.1-6.6-6.8c0-3.6,3-6.6,6.6-6.6
					H271.4 M271.4,26.5H8.1c-4.5,0-8.2,3.5-8.2,8c0,4.5,3.5,8.2,8,8.2c0.1,0,0.1,0,0.2,0h263.3c4.5,0,8.1-3.7,8-8.2
					C279.4,30.1,275.8,26.5,271.4,26.5z"/>
				<line class="st28" x1="8.7" y1="34.6" x2="206.8" y2="34.6"/>
				<rect x="194.5" y="0" class="st29" width="29" height="15.1"/>
				<path class="st30" d="M209.1,22.9l5.2-9.1h-10.4L209.1,22.9z"/>
				<path class="st22" d="M207,3.6c1-0.1,1.9,0.7,2,1.7s-0.7,1.9-1.7,2c-0.1,0-0.2,0-0.3,0c-1,0.1-1.9-0.7-2-1.7c0-0.1,0-0.1,0-0.2
					c0-1,0.8-1.9,1.9-1.9C206.9,3.6,207,3.6,207,3.6z M211,3.7h1.1l-4.8,7.5h-1.1L211,3.7z M207,4.8c-0.3,0-0.6,0.2-0.6,0.7
					c0,0.3,0.2,0.6,0.5,0.7c0,0,0.1,0,0.1,0c0.3,0,0.6-0.2,0.6-0.6c0,0,0-0.1,0-0.1c0.1-0.3-0.2-0.6-0.5-0.7
					C207.1,4.8,207.1,4.8,207,4.8z M211.4,7.5c1,0.1,1.8,1,1.8,2c-0.1,1-1,1.8-2,1.8c-1-0.1-1.8-0.9-1.8-1.9c0-1,0.8-1.9,1.8-1.9
					C211.3,7.5,211.3,7.5,211.4,7.5L211.4,7.5z M211.4,8.7c-0.4,0-0.6,0.2-0.6,0.7c0,0.3,0.2,0.6,0.5,0.7c0,0,0.1,0,0.1,0
					c0.3,0,0.6-0.2,0.6-0.5c0,0,0-0.1,0-0.1c0-0.3-0.2-0.6-0.5-0.7C211.4,8.7,211.4,8.7,211.4,8.7z"/>
			</g>
			<g transform="translate(-6170.022 625.103)">
				<g transform="translate(0 0)">
					<path class="st16" d="M25.1,15.5l-3.7-3.3h3.8L25.1,15.5z"/>
					<path class="st16" d="M21.9,13.1H6.5C2.9,13.1,0,10.2,0,6.5v0C0,2.9,2.9,0,6.5,0h15.4c3.6,0,6.5,2.9,6.5,6.5v0
						C28.5,10.2,25.5,13.1,21.9,13.1z"/>
					<circle class="st22" cx="18.5" cy="6.8" r="1.5"/>
					<circle class="st22" cx="14.5" cy="6.8" r="1.5"/>
					<circle class="st22" cx="10.5" cy="6.8" r="1.5"/>
				</g>
			</g>
			<g transform="translate(-6206.496 581.671) rotate(-22)">
				<g transform="translate(0 0)">
					<path class="st31" d="M5,3.4l8.2,0c2.8,0,5,2.2,5,5l0,8.2c0,2.8-2.2,5-5,5l-8.2,0c-2.8,0-5-2.2-5-5l0-8.2C0,5.7,2.2,3.4,5,3.4z
						"/>
					<circle class="st29" cx="17.7" cy="4" r="4"/>
					<path class="st22" d="M18.7,4.9c0,0.6-0.5,1-1.3,1c-0.4,0-0.9-0.2-1.1-0.5l0.5-0.4c0.1,0.2,0.3,0.3,0.6,0.3
						c0.3,0,0.5-0.2,0.5-0.4c0-0.2-0.2-0.4-0.5-0.4l-0.3,0V3.8l0.1,0c0.4,0,0.6-0.2,0.6-0.4c0-0.2-0.2-0.3-0.4-0.3
						c-0.2,0-0.4,0.1-0.6,0.3l-0.4-0.5c0.3-0.3,0.7-0.5,1.1-0.5c0.5-0.1,1,0.3,1.1,0.8c0,0,0,0.1,0,0.1c0,0.3-0.2,0.5-0.5,0.7
						C18.4,4.1,18.7,4.5,18.7,4.9z"/>
				</g>
			</g>
			<g transform="translate(-6143.415 573.608) rotate(20)">
				<g transform="translate(0 0)">
					<path class="st32" d="M19.8,28l3.4,0c0.7,0,1.4-0.6,1.4-1.4l0-21c0-0.4-0.1-0.7-0.4-1l-4.3-4.3c-0.3-0.3-0.6-0.4-1-0.4L6.1,0
						C5.4,0,4.8,0.6,4.8,1.4l0,2"/>
					<path class="st33" d="M14.1,3.4l-12.5,0C0.7,3.4,0,4.1,0,4.9l0,25c0,0.8,0.7,1.5,1.5,1.5c0,0,0,0,0,0l16.7,0
						c0.8,0,1.5-0.7,1.5-1.5c0,0,0,0,0,0l0-20.8c0-0.4-0.2-0.8-0.4-1.1l-4.2-4.2C14.8,3.5,14.5,3.4,14.1,3.4z"/>
					<path class="st34" d="M19.8,8.5l-4.3,0c-0.5,0-0.9-0.4-0.9-0.9l0-4.3"/>
					<path class="st16" d="M24.6,5.1l-4.3,0c-0.5,0-0.9-0.4-0.9-0.9l0-4.3"/>
					<path class="st34" d="M2.8,6l4,0c0.3,0,0.5,0.2,0.5,0.5l0,0C7.3,6.8,7.1,7,6.8,7l-4,0C2.5,7,2.2,6.8,2.2,6.5l0,0
						C2.2,6.2,2.5,6,2.8,6z"/>
					<path class="st34" d="M2.8,8.5l4,0c0.3,0,0.5,0.2,0.5,0.5l0,0c0,0.3-0.2,0.5-0.5,0.5l-4,0c-0.3,0-0.5-0.2-0.5-0.5l0,0
						C2.2,8.8,2.5,8.5,2.8,8.5z"/>
					<path class="st34" d="M2.5,12.9l14.7,0c0.3,0,0.5,0.2,0.5,0.5l0,0c0,0.3-0.2,0.5-0.5,0.5L2.5,14C2.2,14,2,13.8,2,13.5l0,0
						C2,13.2,2.2,12.9,2.5,12.9z"/>
					<path class="st34" d="M2.5,15.5l14.7,0c0.3,0,0.5,0.2,0.5,0.5l0,0c0,0.3-0.2,0.5-0.5,0.5l-14.7,0C2.2,16.5,2,16.3,2,16l0,0
						C2,15.7,2.2,15.5,2.5,15.5z"/>
					<path class="st34" d="M2.5,18l14.7,0c0.3,0,0.5,0.2,0.5,0.5l0,0c0,0.3-0.2,0.5-0.5,0.5l-14.7,0c-0.3,0-0.5-0.2-0.5-0.5l0,0
						C2,18.2,2.2,18,2.5,18z"/>
				</g>
			</g>
			<g transform="matrix(0.848, -0.53, 0.53, 0.848, -6125.524, 627.348)">
				<g transform="translate(0 0)">
					<path class="st33" d="M2.7,3.3l17,0c1.5,0,2.6,1.2,2.6,2.7v9.4c0,1.5-1.2,2.7-2.6,2.7l-17,0C1.2,18,0,16.8,0,15.4L0,6
						C0,4.5,1.2,3.3,2.7,3.3z"/>
					<line class="st35" x1="0.7" y1="3.8" x2="11.1" y2="10.7"/>
					<line class="st35" x1="22.3" y1="3.3" x2="11.1" y2="10.7"/>
					<circle class="st32" cx="22.3" cy="3.3" r="3.2"/>
					<text transform="matrix(1 0 0 1 21.382 1.0003)" class="st22 st36 st37">1</text>
				</g>
			</g>
		</g>
	</g>
</g>
</svg>
