<?xml version="1.0" encoding="utf-8"?>
<!-- Generator: Adobe Illustrator 25.0.0, SVG Export Plug-In . SVG Version: 6.00 Build 0)  -->
<svg version="1.1" id="Layer_1" xmlns="http://www.w3.org/2000/svg" xmlns:xlink="http://www.w3.org/1999/xlink" x="0px" y="0px"
	 viewBox="0 0 400 266" style="enable-background:new 0 0 400 266;" xml:space="preserve">
<style type="text/css">
	.st0{clip-path:url(#SVGID_2_);}
	.st1{fill:#F2F2F2;}
	.st2{fill:#99574A;}
	.st3{fill:#B37361;}
	.st4{fill:none;stroke:#FBDC8E;stroke-width:3;stroke-linecap:round;stroke-miterlimit:10;}
	.st5{fill:none;stroke:#000000;stroke-miterlimit:10;}
	.st6{fill:#E8EFF4;}
	.st7{fill:#AB8DE5;}
	.st8{fill:#73E5E2;}
	.st9{fill:#50B89D;}
	.st10{fill:url(#SVGID_3_);}
	.st11{fill:#B27363;}
	.st12{fill:#98574C;}
	.st13{fill:none;stroke:#B27363;stroke-width:20;stroke-miterlimit:10;}
	.st14{fill:#FADB93;}
	.st15{fill:none;stroke:#B27363;stroke-width:9;stroke-miterlimit:10;}
	.st16{fill:none;stroke:#D8D8D8;stroke-width:7;stroke-linecap:round;stroke-linejoin:round;}
	.st17{fill:#022B43;}
	.st18{fill:#055482;}
	.st19{fill:#1F161E;}
	.st20{fill:#30B992;}
	.st21{fill:#55B79D;}
	.st22{fill:#F8CDBA;}
	.st23{fill:none;stroke:#1F161E;stroke-linecap:round;stroke-linejoin:round;}
	.st24{fill:#969696;}
	.st25{fill:#FA9E9F;}
	.st26{fill:none;stroke:#1F161E;stroke-width:0.69;stroke-linecap:round;stroke-miterlimit:10;}
	.st27{fill:#B2CAD8;}
	.st28{fill:#F8DA96;}
	.st29{fill:none;stroke:#055482;stroke-width:2;stroke-miterlimit:10;}
	.st30{fill:#FFFFFF;}
</style>
<g>
	<defs>
		<rect id="SVGID_1_" width="400" height="266"/>
	</defs>
	<clipPath id="SVGID_2_">
		<use xlink:href="#SVGID_1_"  style="overflow:visible;"/>
	</clipPath>
	<g id="b" class="st0">
		<g transform="translate(-76 -211)">
			<path class="st1" d="M380.2,233.5c18.6,23,12.9,66,9.8,105.8s-3.3,76.7-21.9,101.7c-18.6,25-55.4,38.2-88.7,34.6
				c-33.3-3.6-62.9-24-92.2-49c-29.3-25-58.2-54.7-57.3-83.5c0.9-28.8,31.5-56.7,60.8-79.7c29.3-23,57.2-41.2,92.5-48.7
				C318.7,207.3,361.6,210.5,380.2,233.5"/>
			<g transform="translate(138.985 342.779)">
				<path class="st2" d="M44.4,0L16.9,109.9H72L44.4,0z"/>
				<path class="st3" d="M18.3,34.4L0,109.9h36.5L18.3,34.4z"/>
				<line class="st4" x1="18.3" y1="58.3" x2="18.3" y2="109.9"/>
				<line class="st4" x1="44.4" y1="31.4" x2="44.4" y2="109.9"/>
				<line class="st4" x1="18.3" y1="77.6" x2="23.1" y2="72.7"/>
				<line class="st4" x1="18.3" y1="98.5" x2="10.7" y2="90.9"/>
				<line class="st4" x1="44.4" y1="53.8" x2="38.9" y2="48.3"/>
				<line class="st4" x1="44.4" y1="85.5" x2="55.4" y2="74.6"/>
			</g>
			<g transform="translate(258.862 211.162)">
				<g transform="translate(0 0)">
					<rect x="0" y="0" class="st5" width="217.1" height="142.8"/>
					<line class="st5" x1="0" y1="7.6" x2="217.1" y2="7.6"/>
					<rect x="16.4" y="20.3" class="st6" width="131.1" height="65.3"/>
					<line class="st5" x1="19.4" y1="96" x2="119.1" y2="96"/>
					<line class="st5" x1="19.4" y1="105.9" x2="119.1" y2="105.9"/>
					<line class="st5" x1="19.4" y1="115.7" x2="119.1" y2="115.7"/>
					<line class="st5" x1="19.4" y1="125.6" x2="119.1" y2="125.6"/>
					<circle class="st7" cx="4.7" cy="3.9" r="1.8"/>
					<circle class="st8" cx="11.1" cy="3.9" r="1.8"/>
					<circle class="st9" cx="17.4" cy="3.9" r="1.8"/>
					
						<linearGradient id="SVGID_3_" gradientUnits="userSpaceOnUse" x1="-371.3115" y1="522.2065" x2="-371.3115" y2="521.2065" gradientTransform="matrix(19.8 0 0 -22.869 7434.332 11983.7988)">
						<stop  offset="0" style="stop-color:#055482"/>
						<stop  offset="1" style="stop-color:#30B992"/>
					</linearGradient>
					<path class="st10" d="M92.3,52.9L72.5,41.5v22.9L92.3,52.9z"/>
					<rect x="154.7" y="20.3" class="st6" width="55.4" height="30.9"/>
					<rect x="154.7" y="59.8" class="st6" width="55.4" height="30.9"/>
					<rect x="154.7" y="99.3" class="st6" width="55.4" height="30.9"/>
				</g>
			</g>
			<g transform="translate(228.631 309.967)">
				<g transform="translate(115.307 127.807) rotate(-30)">
					<g transform="translate(0 0)">
						
							<rect x="0" y="6.8" transform="matrix(-1 2.341061e-06 -2.341061e-06 -1 44.0961 43.982)" class="st11" width="44.1" height="30.3"/>
						<path class="st12" d="M44.1,6.8L0,6.8L8,0l28,0L44.1,6.8z"/>
						<path class="st12" d="M17.3,12.2l9.6,0c0.6,0,1.1,0.5,1.1,1.1l0,0c0,0.6-0.5,1.1-1.1,1.1l-9.6,0c-0.6,0-1.1-0.5-1.1-1.1l0,0
							C16.2,12.7,16.7,12.2,17.3,12.2z"/>
						<line class="st13" x1="22.1" y1="0" x2="22.1" y2="7"/>
						
							<rect x="19.2" y="32.1" transform="matrix(-1 2.341061e-06 -2.341061e-06 -1 44.2411 69.311)" class="st12" width="5.9" height="5.2"/>
						
							<rect x="11" y="20.8" transform="matrix(-1 2.341061e-06 -2.341061e-06 -1 44.0961 47.714)" class="st14" width="22" height="6.1"/>
						<line class="st15" x1="13.6" y1="22.9" x2="30.5" y2="22.9"/>
						<line class="st15" x1="13.6" y1="24.8" x2="30.5" y2="24.8"/>
					</g>
				</g>
				<g transform="translate(104.984 96.47) rotate(-30)">
					<g transform="translate(0 0)">
						
							<rect x="0" y="6.8" transform="matrix(-1 2.341061e-06 -2.341061e-06 -1 44.0961 43.982)" class="st11" width="44.1" height="30.3"/>
						<path class="st12" d="M44.1,6.8L0,6.8L8,0l28,0L44.1,6.8z"/>
						<path class="st12" d="M17.3,12.2l9.6,0c0.6,0,1.1,0.5,1.1,1.1l0,0c0,0.6-0.5,1.1-1.1,1.1l-9.6,0c-0.6,0-1.1-0.5-1.1-1.1l0,0
							C16.2,12.7,16.7,12.2,17.3,12.2z"/>
						<line class="st13" x1="22.1" y1="0" x2="22.1" y2="7"/>
						
							<rect x="19.2" y="32.1" transform="matrix(-1 2.341061e-06 -2.341061e-06 -1 44.2411 69.311)" class="st12" width="5.9" height="5.2"/>
						
							<rect x="11" y="20.8" transform="matrix(-1 2.341061e-06 -2.341061e-06 -1 44.0961 47.714)" class="st14" width="22" height="6.1"/>
						<line class="st15" x1="13.6" y1="22.9" x2="30.5" y2="22.9"/>
						<line class="st15" x1="13.6" y1="24.8" x2="30.5" y2="24.8"/>
					</g>
				</g>
				<g transform="translate(0 0)">
					<g transform="translate(0)">
						<line class="st16" x1="132.9" y1="160.8" x2="82.4" y2="76.7"/>
						<path class="st17" d="M26.7,77.9c0.1,1.9,0.7,26.9,2.9,33.8c-3.4,4.5-27.7,36.1-27.8,36.8s4.1,4.5,4.8,4.5s38.1-30.4,40-32.4
							s2.8-10.3,2.8-10.3"/>
						<path class="st18" d="M25.7,70.1c0,23.5,30,46.4,35.9,49.7c1.2,2.5,20.3,42,20.8,43.1c2,0.1,3.9-0.6,5.2-2.1
							c-0.4-1.5-9.4-46.8-10.6-49.6S60.8,80.3,56.5,74.8"/>
						<path class="st19" d="M2.8,149.4c-0.4,0.4-2.8,2.5-2.8,3.2c-0.1,1.3,5,5.8,5.4,5.8s1.1-0.3,1-0.7s-1.6-2.6-1.7-3.1
							c0.1-0.8,0.5-1.6,1.2-2.1"/>
						<path class="st19" d="M82.6,162.4c0.2,0.5,1.2,3.5,1.9,3.9c1.1,0.6,7.3-2.3,7.5-2.7s0.1-1.1-0.2-1.2s-3,0.4-3.5,0.3
							c-0.7-0.4-1.3-1.1-1.5-1.9"/>
						<path class="st20" d="M46.7,22.4c7.5,0,10.6,12.1,10.6,15.7c0,5.7-3.3,28.3-0.9,36.7c-3,0.5-27-1.5-30.8-4.8
							C25.7,47.2,39.6,22.4,46.7,22.4z"/>
						<path class="st21" d="M53.9,27.1c1.4-0.4,35.6-7.1,36.4-7.3c0.9,2.1,1.5,4.3,1.7,6.5c-1.5,0.8-34.6,11.8-34.6,11.8"/>
						<path class="st22" d="M90.2,19.8c1.7-0.3,14.2-3.2,14.5-3.3s0.6-0.2,0.6,0c0.5,2.1-3.3,2.8-5,3.3c0.5,1.7,0.7,3-0.5,3.7
							c-1.1,0.6-3.1,1.3-8.1,1"/>
						<path class="st23" d="M56.1,50.6c-0.8-1.9-1.2-3.8-1.3-5.8"/>
						<path class="st23" d="M46.3,29.5c-5.6,0-8,9.3-8,12.8c0,3.8,0.8,7.6,2.4,11.1"/>
						<path class="st21" d="M57.3,38.1l6-2c-0.4-3.6-1.7-7.1-3.7-10.2c-3.2,0.6-5.4,1.1-5.7,1.2"/>
						<ellipse class="st22" cx="81" cy="73.8" rx="5.5" ry="4.5"/>
						<path class="st20" d="M56.1,50.6c-4.5,2.6-12.4,3.5-15.4,2.9C48,69.4,70.3,75,76.8,76.7c1.4-2.2,2.3-4.7,2.7-7.3
							C76.7,68.1,60.9,62.1,56.1,50.6z"/>
						<ellipse class="st24" cx="81.9" cy="75.3" rx="2.4" ry="2.6"/>
						<line class="st16" x1="133.7" y1="162.3" x2="165.2" y2="143.4"/>
						<circle class="st24" cx="133.6" cy="162.5" r="4.3"/>
						<path class="st19" d="M56.8,34.3c0.3,1.3,0.5,2.5,0.6,3.8c0.7-0.2,3.9-1.3,3.9-1.3S58.1,36.6,56.8,34.3z"/>
						<path class="st19" d="M51,65.5c0.4,1.5,3.1,9.2-2.8,9c2.5,0.2,6.8,0.5,8.3,0.3c-0.4-2.1-0.7-4.1-0.8-6.2
							C55,68.2,51,65.5,51,65.5z"/>
						<path class="st22" d="M50.9,25.5c-0.5,0.9-5.4-2-4.8-2.9l3.5-5.9l4.8,2.9L50.9,25.5z"/>
						<path class="st19" d="M47.5,20.2c0.3-0.5,3.2-1.8,4-1c-0.9-1.1-1.3-2.6-1.9-2.6L47.5,20.2z"/>
						<circle class="st22" cx="56" cy="13.6" r="7.3"/>
						
							<ellipse transform="matrix(0.1033 -0.9946 0.9946 0.1033 40.482 76.6543)" class="st25" cx="62.8" cy="15.9" rx="0.6" ry="1.2"/>
						
							<ellipse transform="matrix(0.1033 -0.9946 0.9946 0.1033 34.4108 68.3399)" class="st25" cx="55.1" cy="15.1" rx="0.6" ry="1.2"/>
						<path class="st26" d="M59.9,14.3c0.2,0.4,1.2,1.8-0.1,2.3"/>
						<path class="st26" d="M57.2,17.8c-0.5-0.2-0.9-0.5-1.1-1"/>
						<circle class="st22" cx="50.1" cy="12.6" r="1.6"/>
						<path class="st19" d="M51.2,14.1c-0.1,0.3-1.1,2.6-2.3,2.5c-0.6,0-0.9-0.5-1.3-0.9c-1-1.2-1-2.7-1-3.3c0-0.7,0.1-1.8,0.4-3
							c0.3-1.2,0.9-3.4,2.7-4.8c0.9-0.7,1.7-0.9,3.1-1.3c2.5-0.6,5-1.3,7.5-0.2c0.9,0.4,2.8,1.2,3.2,3.1c0.5,1.9-0.9,3.6-1.1,3.9
							c-0.3-0.6-0.7-1.2-1.2-1.7c0.2,0.5-0.5,1.4-9.7,3.8C51,12.5,51.6,13,51.2,14.1z"/>
					</g>
				</g>
			</g>
			<g transform="translate(76 236.232)">
				<path class="st27" d="M0,24.3c0-5.4,13.3-6.5,18.6-6.5c10.7,0,11.4-6.1,20.3-6.1c7.8,0,11.8,6.3,19,6.3C73.5,18,77,0,92.2,0
					c15.4,0,14.6,18.8,29,18.8c7.3,0,51.2,1.4,51.2,5.5L0,24.3z"/>
			</g>
			<g transform="translate(203.408 273.952)">
				<g transform="translate(0 0)">
					<path class="st28" d="M4.6,0h68c2.8,0,5,2.2,5,5v14c0,2.8-2.2,5-5,5h-68c-2.8,0-5-2.2-5-5V5C-0.4,2.3,1.8,0,4.6,0z"/>
					<line class="st29" x1="58.9" y1="9.5" x2="64.3" y2="14.9"/>
					<line class="st29" x1="68.4" y1="9.5" x2="63.1" y2="14.9"/>
					<path class="st30" d="M7.3,13.6h1.6c0.1,0.5,0.5,0.9,1,0.8c0.5,0,0.9-0.2,0.9-0.7c0-0.3-0.2-0.5-0.8-0.7l-0.8-0.3
						c-1.5-0.4-1.8-1.4-1.8-2c0.1-1.2,1.1-2.2,2.3-2.1c0,0,0.1,0,0.1,0c1.2-0.1,2.2,0.7,2.4,1.9c0,0.1,0,0.2,0,0.2h-1.6
						c0-0.5-0.4-0.8-0.9-0.8c-0.4,0-0.7,0.3-0.8,0.7c0,0.1,0,0.5,0.7,0.6l0.7,0.2c1,0.3,2,0.8,2,2.1c0,1.5-1.3,2.1-2.6,2.1
						c-1.2,0.2-2.4-0.7-2.5-2C7.3,13.8,7.3,13.7,7.3,13.6z"/>
					<path class="st30" d="M18.2,14.3v1.4h-4.6v-7h4.5v1.4h-2.9v1.4h2.5V13h-2.5v1.3L18.2,14.3z"/>
					<path class="st30" d="M19.5,8.7h1.6v5.6h2.6v1.4h-4.2V8.7z"/>
					<path class="st30" d="M29.3,14.3v1.4h-4.6v-7h4.5v1.4h-2.9v1.4h2.5V13h-2.5v1.3L29.3,14.3z"/>
					<path class="st30" d="M30,12.2c0-2,1.6-3.6,3.6-3.6c1.2,0,2.3,0.6,3,1.6L35.3,11c-0.3-0.6-1-0.9-1.6-0.9c-1.2,0-2,1-2,2.2
						c0,1.1,0.9,2,2,2c0.7,0,1.3-0.3,1.6-0.9l1.2,0.9c-1.1,1.6-3.3,2-5,0.9C30.6,14.5,30,13.4,30,12.2L30,12.2z"/>
					<path class="st30" d="M42.3,10.1h-1.9v5.6h-1.6v-5.6H37V8.7h5.3V10.1z"/>
				</g>
			</g>
		</g>
	</g>
</g>
</svg>
