<?xml version="1.0" encoding="utf-8"?>
<!-- Generator: Adobe Illustrator 25.0.0, SVG Export Plug-In . SVG Version: 6.00 Build 0)  -->
<svg version="1.1" id="Layer_1" xmlns="http://www.w3.org/2000/svg" xmlns:xlink="http://www.w3.org/1999/xlink" x="0px" y="0px"
	 viewBox="0 0 403 338" style="enable-background:new 0 0 403 338;" xml:space="preserve">
<style type="text/css">
	.st0{clip-path:url(#SVGID_2_);}
	.st1{fill:#F2F2F2;}
	.st2{fill:#333333;}
	.st3{fill:none;stroke:#333333;stroke-width:4;stroke-linecap:round;stroke-miterlimit:10;}
	.st4{fill:none;stroke:#333333;stroke-width:2;stroke-linecap:round;stroke-miterlimit:10;}
	.st5{fill:#30B992;}
	.st6{fill:#022B43;}
	.st7{fill:#055482;}
	.st8{fill:#F8CDBA;}
	.st9{fill:#FA9E9F;}
	.st10{fill:none;stroke:#1F161E;stroke-linecap:round;stroke-miterlimit:10;}
	.st11{fill:#D8D8D8;}
	.st12{fill:#969696;}
	.st13{fill:none;stroke:#AB8DE5;stroke-width:2;stroke-miterlimit:10;}
	.st14{fill:#FCD995;}
	.st15{fill:#1F171E;}
	.st16{fill:#FFFFFF;}
	.st17{fill:url(#SVGID_3_);}
	.st18{fill:url(#SVGID_4_);}
	.st19{fill:url(#SVGID_5_);}
	.st20{fill:url(#SVGID_6_);}
	.st21{fill:url(#SVGID_7_);}
	.st22{fill:#2A487A;}
</style>
<g>
	<defs>
		<rect id="SVGID_1_" width="403" height="338"/>
	</defs>
	<clipPath id="SVGID_2_">
		<use xlink:href="#SVGID_1_"  style="overflow:visible;"/>
	</clipPath>
	<g id="f" class="st0">
		<g transform="translate(-83 -115)">
			<path class="st1" d="M395.7,176.7c40.4,35.4,84.6,72,88.9,112.8c4.4,40.9-31.3,86.1-71.7,111.4s-85.6,30.8-139.9,39.8
				c-54.2,9-117.5,21.7-154.1-3.7s-46.7-88.6-23.8-129s78.6-57.9,115.3-93.3c36.6-35.3,54.1-88.6,81.1-98.1
				C318.7,107.1,355.3,141.4,395.7,176.7"/>
			<g transform="translate(146.711 147.913)">
				<g transform="translate(72.716 193.138)">
					<g transform="translate(0 0)">
						<ellipse class="st2" cx="29.2" cy="6.5" rx="29.2" ry="6.5"/>
						<line class="st3" x1="29.2" y1="6.5" x2="12.8" y2="57.8"/>
						<line class="st3" x1="29.2" y1="6.5" x2="45.6" y2="57.8"/>
						<line class="st4" x1="18.2" y1="41" x2="36.5" y2="29.2"/>
						<line class="st4" x1="21.9" y1="29.2" x2="40.2" y2="41"/>
					</g>
				</g>
				<g transform="translate(68.085 58.821)">
					<g transform="translate(0 0)">
						<path class="st2" d="M110.2,188.1c0,1.1-0.6,8,0.6,8.7s15.4,1,16,0.4s1-2,0.5-2.4s-6-1.5-6.8-2c-1.1-1.3-1.6-3-1.4-4.7"/>
						<path class="st5" d="M68,97.6l8-2.8c-0.3-14.5-3.7-46.8-8.5-51.7C66.3,42,43.9,40,39.9,40c-23.8,0-30.8,2.7-32.6,4.5
							C1.7,50.1,0,75.8,0,84.8s25.5,13.7,25.5,13.7l29.9,2.1c0,0,6.6,0.7,12.2,1C67.7,99.9,68,97.6,68,97.6z"/>
						<path class="st6" d="M91.7,106c2.2-0.6,23.8-4.2,28.5,0.5s19.5,71,19.5,72.6h-11.9l-16.1-34.6"/>
						<path class="st7" d="M13,100.1c-0.5,2.7-3.8,5.6-3.8,20.4c0,20.4,16.7,20.8,22.7,20.8c18.7,0,49-5.6,51-6.6
							c1.4,2.3,26.3,53.3,26.4,54.4h11.5c0,0-7.1-76.3-20-84.9C96.7,101.4,22.6,98.4,13,100.1z"/>
						<path class="st8" d="M80.4,85.2c-3,0-5.5,0.7-12.3,2.1l-0.4,13.1c6.5-2.6,8-6.2,9.9-6.2c4.7,0,7.2,2.4,9.9,2.4
							c1.9,0,5.4-1.5,5.4-3.6C92.9,88.6,84.1,85.2,80.4,85.2z"/>
						<path class="st2" d="M128.4,178.1c0,1.1-0.6,8,0.6,8.7s15.4,1,16,0.4s1-2,0.5-2.4s-6-1.5-6.8-2c-1.1-1.3-1.6-3-1.4-4.7"/>
						<path class="st8" d="M44.1,43.1c0,1.8-10.1,1.8-10.1,0V28.9h10.1V43.1z"/>
						<path class="st2" d="M40.8,33.5c-0.9,0-6.8,2.6-6.8,4.1v-7.7C35.5,29.9,40.8,33.5,40.8,33.5z"/>
						<ellipse class="st8" cx="42.8" cy="21.9" rx="12.3" ry="12.3"/>
						<path class="st2" d="M55.5,12.3c-1.5,2.4-4.7,3.5-8.1,3.5c-2.9,0-7.2-0.9-10.2,0.9c-1.6,0.9-3.5,3-3.9,7.3
							c-0.2,2.6-0.2,4.3-0.8,4.4c-0.9,0.2-2.5-2.6-3.3-4.8c-0.7-2.1-0.7-3.8-0.7-4.6c0-0.5,0.1-2.2,0.8-4.2c1.5-4.3,4.8-6.6,5.9-7.4
							c3.2-2.2,6.2-2.7,8-3c1.8-0.3,5.2-0.8,8.9,0.8c1.2,0.5,2.6,1.1,3.7,2.6c1.4,2,1.3,4.2,1.2,4.5c-0.3,3-2.5,4.6-2.8,4.9
							c-0.4-0.8-0.9-1.6-1.4-2.4"/>
						<ellipse class="st8" cx="33.6" cy="23.5" rx="2.6" ry="2.6"/>
						<ellipse class="st9" cx="55.2" cy="23.1" rx="2" ry="1.1"/>
						<ellipse class="st9" cx="42.4" cy="23.1" rx="2" ry="1.1"/>
						<path class="st10" d="M50.2,20.9c0.4,0.5,2.3,2.8,0.3,3.7"/>
						<path class="st10" d="M46.4,27.3c-0.8-0.2-1.6-0.7-2.1-1.4"/>
						<path class="st10" d="M62.6,60.2c0.9,2,5.4,21,5.4,27"/>
						<path class="st5" d="M60.8,95.3c-9.4,3-34.6,15.6-52,15.6c-8.6,0-8.8-6.2-8.8-27.5l23.4,0c-0.2,0.5-1.9,6.3-1.9,8.8
							c0,1.4,1.4,1.7,2.2,1.7c0.6,0,21.4-5,34.4-7.1L60.8,95.3z"/>
						<path class="st8" d="M79,93.5c0,2.1-3.5,3.6-5.4,3.6c-2.8,0-5.2-2.4-9.9-2.4c-0.6,0-1.6,0.2-2.9,0.7l-2.7-8.6
							c3.6-0.6,6.6-1,8.4-1C70.3,85.7,79,89.1,79,93.5z"/>
						<path class="st10" d="M28.3,64.7c-0.6,1.6-5,18.4-5.5,20.5"/>
					</g>
				</g>
				<g transform="translate(168.432 -14)">
					<path class="st11" d="M1.2,58.8h134.1c0.7,0,1.2,0.6,1.2,1.2v0.5c0,0.7-0.6,1.2-1.2,1.2H1.2c-0.7,0-1.2-0.6-1.2-1.2V60
						C0,59.4,0.6,58.8,1.2,58.8z"/>
					<path class="st12" d="M49.9,0h7.7c1.4,0,2.6,1.1,2.6,2.6v53.7c0,1.4-1.1,2.6-2.6,2.6h-7.7c-1.4,0-2.6-1.1-2.6-2.6V2.6
						C47.3,1.1,48.5,0,49.9,0z"/>
					<path class="st11" d="M62.3,13.8h2.2c1.2,0,2.1,1,2.1,2.1v40.8c0,1.2-1,2.1-2.1,2.1h-2.2c-1.2,0-2.1-1-2.1-2.1V15.9
						C60.2,14.7,61.2,13.8,62.3,13.8z"/>
					<path class="st12" d="M68.7,13.8H71c1.1,0,2.1,0.9,2.1,2.1v40.9c0,1.1-0.9,2.1-2.1,2.1h-2.3c-1.1,0-2.1-0.9-2.1-2.1V15.8
						C66.6,14.7,67.6,13.8,68.7,13.8z"/>
					<path class="st11" d="M73.9,18l1.9-0.9c1.1-0.5,2.4,0,2.9,1.1l16.9,36.9c0.5,1.1,0,2.4-1.1,2.9l-1.9,0.9
						c-1.1,0.5-2.4,0-2.9-1.1L72.8,20.9C72.3,19.8,72.7,18.5,73.9,18z"/>
					<ellipse class="st11" cx="53.8" cy="40.3" rx="3.6" ry="3.6"/>
					<path class="st11" d="M50.5,46.1H57c0.5,0,0.9,0.4,0.9,0.9l0,0c0,0.5-0.4,0.9-0.9,0.9h-6.5c-0.5,0-0.9-0.4-0.9-0.9l0,0
						C49.7,46.5,50,46.1,50.5,46.1z"/>
					<path class="st11" d="M50.5,50.5H57c0.5,0,0.9,0.4,0.9,0.9l0,0c0,0.5-0.4,0.9-0.9,0.9h-6.5c-0.5,0-0.9-0.4-0.9-0.9l0,0
						C49.7,50.9,50,50.5,50.5,50.5z"/>
					<path class="st12" d="M63.4,19.9L63.4,19.9c0.4,0,0.7,0.3,0.7,0.7V52c0,0.4-0.3,0.7-0.7,0.7h0c-0.4,0-0.7-0.3-0.7-0.7V20.6
						C62.8,20.2,63.1,19.9,63.4,19.9z"/>
					<path class="st11" d="M30.1,60.3h5.8c1.3,0,2.3,1,2.3,2.3v0c0,1.3-1,2.3-2.3,2.3h-5.8c-1.3,0-2.3-1-2.3-2.3v0
						C27.8,61.3,28.8,60.3,30.1,60.3z"/>
					<path class="st11" d="M100.7,60.3h5.8c1.3,0,2.3,1,2.3,2.3v0c0,1.3-1,2.3-2.3,2.3h-5.8c-1.3,0-2.3-1-2.3-2.3v0
						C98.4,61.3,99.4,60.3,100.7,60.3z"/>
				</g>
				<g transform="translate(33.186 140.557)">
					<g transform="translate(0 0)">
						<path class="st13" d="M3.6,3.3L3.6,3.3c2,0,3.6,1.6,3.6,3.6v2.1c0,2-1.6,3.6-3.6,3.6h0c-2,0-3.6-1.6-3.6-3.6V6.8
							C0,4.9,1.6,3.3,3.6,3.3z"/>
						<path class="st14" d="M3.3,1.1v12.3c0,1.9,1.5,3.4,3.4,3.4h10.2c1.9,0,3.4-1.5,3.4-3.4V1.1H3.3z"/>
						<path class="st15" d="M2.3,0h19c0.2,0,0.5,0.2,0.5,0.5l0,0c0,0.2-0.2,0.5-0.5,0.5h-19c-0.2,0-0.5-0.2-0.5-0.5l0,0
							C1.9,0.2,2.1,0,2.3,0z"/>
						<ellipse class="st16" cx="11.9" cy="9" rx="2.9" ry="2.9"/>
					</g>
				</g>
				<g transform="translate(258.444 160.253)">
					<g transform="translate(0 0)">
						
							<linearGradient id="SVGID_3_" gradientUnits="userSpaceOnUse" x1="-510.623" y1="372.3428" x2="-510.623" y2="371.3428" gradientTransform="matrix(21.922 0 0 -51.2112 11228.9922 19088.6191)">
							<stop  offset="0" style="stop-color:#055482"/>
							<stop  offset="1" style="stop-color:#30B992"/>
						</linearGradient>
						<path class="st17" d="M40.8,20.6c8.8,1.7,7.2,54.2-9.7,51C15.2,68.6,30,18.5,40.8,20.6z"/>
						
							<linearGradient id="SVGID_4_" gradientUnits="userSpaceOnUse" x1="-512.7132" y1="371.3065" x2="-512.7132" y2="370.3065" gradientTransform="matrix(28.5229 0 0 -41.6102 14638.3145 15476.8867)">
							<stop  offset="0" style="stop-color:#055482"/>
							<stop  offset="1" style="stop-color:#30B992"/>
						</linearGradient>
						<path class="st18" d="M2.1,27.1c7-4,36.3,32.9,22.9,40.5C12.4,74.7-6.4,31.9,2.1,27.1z"/>
						<path class="st12" d="M37.8,96.9H20.2c-1.5,0-2.7-1.1-2.9-2.6L15,74.3c-0.2-1.6,1-3,2.6-3.2c0.1,0,0.2,0,0.3,0H40
							c1.6,0,2.9,1.3,2.9,2.9c0,0.1,0,0.2,0,0.3l-2.1,20.1C40.6,95.8,39.3,96.9,37.8,96.9L37.8,96.9z"/>
						
							<linearGradient id="SVGID_5_" gradientUnits="userSpaceOnUse" x1="-509.0825" y1="370.9529" x2="-509.0825" y2="369.9529" gradientTransform="matrix(18.7277 0 0 -39.1084 9573.3047 14507.3623)">
							<stop  offset="0" style="stop-color:#055482"/>
							<stop  offset="1" style="stop-color:#30B992"/>
						</linearGradient>
						<path class="st19" d="M45.8,0.1c6.7,2,1.6,42.5-11.3,38.8C22.4,35.3,37.6-2.3,45.8,0.1z"/>
						
							<linearGradient id="SVGID_6_" gradientUnits="userSpaceOnUse" x1="-511.89" y1="368.8275" x2="-511.89" y2="367.8275" gradientTransform="matrix(25.4989 0 0 -28.7268 13097.4326 10626.9551)">
							<stop  offset="0" style="stop-color:#055482"/>
							<stop  offset="1" style="stop-color:#30B992"/>
						</linearGradient>
						<path class="st20" d="M56.8,32.4c4.6,4-14.2,34.5-23.1,26.9C25.3,52,51.2,27.5,56.8,32.4z"/>
						
							<linearGradient id="SVGID_7_" gradientUnits="userSpaceOnUse" x1="-510.9395" y1="373.243" x2="-510.9395" y2="372.243" gradientTransform="matrix(22.7181 0 0 -64.05 11636.4678 23910.5508)">
							<stop  offset="0" style="stop-color:#055482"/>
							<stop  offset="1" style="stop-color:#30B992"/>
						</linearGradient>
						<path class="st21" d="M29,4.3c10,0,19.2,64,0,64C10.9,68.4,16.8,4.3,29,4.3z"/>
						<path class="st11" d="M13.1,66.8h31.9c2,0,3.6,1.6,3.6,3.6l0,0c0,2-1.6,3.6-3.6,3.6H13.1c-2,0-3.6-1.6-3.6-3.6l0,0
							C9.5,68.4,11.1,66.8,13.1,66.8z"/>
					</g>
				</g>
				<g transform="translate(0 157.475)">
					<g transform="translate(0)">
						<path class="st12" d="M256,99.2L256,99.2c-1.3,0.3-2.6-0.4-2.9-1.7L229.4,7.4c-0.3-1.3,0.4-2.6,1.7-2.9l0,0
							c1.3-0.3,2.6,0.4,2.9,1.7l23.7,90.2C258,97.6,257.2,98.9,256,99.2z"/>
						<path class="st12" d="M227.4,4.5L227.4,4.5c1.3,0.3,2,1.6,1.7,2.9l-23.7,90.2c-0.3,1.3-1.6,2-2.9,1.7l0,0
							c-1.3-0.3-2-1.6-1.7-2.9l23.7-90.2C224.8,4.9,226.1,4.1,227.4,4.5z"/>
						<path class="st11" d="M194.7,4.5L194.7,4.5c1.3,0.3,2,1.6,1.7,2.9l-23.7,90.2c-0.3,1.3-1.6,2-2.9,1.7l0,0
							c-1.3-0.3-2-1.6-1.7-2.9l23.7-90.2C192.1,4.9,193.4,4.1,194.7,4.5z"/>
						<path class="st11" d="M222.8,99.2L222.8,99.2c-1.3,0.3-2.6-0.4-2.9-1.7L196.2,7.4c-0.3-1.3,0.4-2.6,1.7-2.9l0,0
							c1.3-0.3,2.6,0.4,2.9,1.7l23.7,90.2C224.8,97.6,224.1,98.9,222.8,99.2z"/>
						<path class="st12" d="M61.3,4.3L61.3,4.3c1.3,0.3,2,1.6,1.7,2.9L39.7,97.6c-0.3,1.3-1.6,2-2.9,1.7l0,0c-1.3-0.3-2-1.6-1.7-2.9
							L58.4,6C58.7,4.7,60,3.9,61.3,4.3z"/>
						<path class="st12" d="M89,98.9L89,98.9c-1.3,0.3-2.6-0.4-2.9-1.7L62.8,6.7c-0.3-1.3,0.4-2.6,1.7-2.9l0,0
							c1.3-0.3,2.6,0.4,2.9,1.7L90.7,96C91.1,97.3,90.3,98.6,89,98.9z"/>
						<path class="st11" d="M15.8,0h226.5c1.9,0,3.5,1.6,3.5,3.5v0c0,1.9-1.6,3.5-3.5,3.5H15.8c-1.9,0-3.5-1.6-3.5-3.5v0
							C12.3,1.6,13.8,0,15.8,0z"/>
						<path class="st11" d="M27.2,4.5L27.2,4.5c1.3,0.3,2,1.6,1.7,2.9L5.2,97.5c-0.3,1.3-1.6,2-2.9,1.7l0,0c-1.3-0.3-2-1.6-1.7-2.9
							L24.3,6.2C24.6,4.9,25.9,4.1,27.2,4.5z"/>
						<path class="st11" d="M55.3,99.2L55.3,99.2c-1.3,0.3-2.6-0.4-2.9-1.7L28.8,7.4c-0.3-1.3,0.4-2.6,1.7-2.9l0,0
							c1.3-0.3,2.6,0.4,2.9,1.7L57,96.3C57.4,97.6,56.6,98.9,55.3,99.2z"/>
					</g>
				</g>
				<g transform="translate(26.023 13.202)">
					<g transform="translate(0 0)">
						<path class="st5" d="M73.7,43.5l-11-9.7h11.2L73.7,43.5z"/>
						<path class="st5" d="M66.8,36.1H18.1C8.1,36.1,0,28,0,18.1v0C0,8.1,8.1,0,18.1,0h48.8c10,0,18.1,8.1,18.1,18.1v0
							C84.9,28,76.8,36.1,66.8,36.1z"/>
						<ellipse class="st16" cx="53.7" cy="18.5" rx="3.2" ry="3.2"/>
						<ellipse class="st16" cx="42.3" cy="18.3" rx="3.3" ry="3.3"/>
						<ellipse class="st16" cx="31.2" cy="18.5" rx="3.2" ry="3.2"/>
					</g>
				</g>
				<g transform="translate(184.989 72.815)">
					<g transform="translate(0 0)">
						<path class="st22" d="M11.2,45.1l11-9.7H11L11.2,45.1z"/>
						<path class="st22" d="M19,0h47c10.5,0,19,8.5,19,19l0,0c0,10.5-8.5,19-19,19H19c-10.5,0-19-8.5-19-19l0,0C0,8.5,8.5,0,19,0z"
							/>
						<ellipse class="st16" cx="31.2" cy="19" rx="3.2" ry="3.6"/>
						<ellipse class="st16" cx="42.7" cy="18.9" rx="3.3" ry="3.3"/>
						<ellipse class="st16" cx="54.2" cy="19" rx="3.6" ry="3.6"/>
					</g>
				</g>
				<g transform="translate(134.317 128.759)">
					<g transform="translate(0 0)">
						<path class="st2" d="M67.8,28.9H25l7.8-26.7c0.4-1.3,1.6-2.2,3-2.2h36.4c1.7,0,3.1,1.3,3.1,3c0,0.3,0,0.6-0.1,0.9L67.8,28.9z"
							/>
						<ellipse class="st16" cx="51.7" cy="14.5" rx="2.6" ry="2.6"/>
						<rect x="0" y="27" class="st2" width="30.1" height="1.9"/>
					</g>
				</g>
			</g>
		</g>
	</g>
</g>
</svg>
