<?xml version="1.0" encoding="utf-8"?>
<!-- Generator: Adobe Illustrator 25.0.0, SVG Export Plug-In . SVG Version: 6.00 Build 0)  -->
<svg version="1.1" id="Layer_1" xmlns="http://www.w3.org/2000/svg" xmlns:xlink="http://www.w3.org/1999/xlink" x="0px" y="0px"
	 viewBox="0 0 400 255" style="enable-background:new 0 0 400 255;" xml:space="preserve">
<style type="text/css">
	.st0{clip-path:url(#SVGID_2_);}
	.st1{fill:#F0F0F0;}
	.st2{fill:#FFFFFF;}
	.st3{fill:none;stroke:#000000;stroke-width:1.0005;stroke-miterlimit:10.0052;}
	.st4{fill:#F2F2F2;}
	.st5{opacity:0.7;fill:#50B89D;enable-background:new    ;}
	.st6{font-family:'SegoeUI';}
	.st7{font-size:3.0016px;}
	.st8{fill:none;stroke:#000000;stroke-miterlimit:10;}
	.st9{fill:#DADADA;}
	.st10{fill:#FFFFFF;stroke:#000000;stroke-miterlimit:10;}
	.st11{fill:#F7D994;}
	.st12{fill:#AD91FA;}
	.st13{fill:#7CE4DF;}
	.st14{fill:none;stroke:#FFFFFF;stroke-width:4;stroke-linecap:round;stroke-miterlimit:10;}
	.st15{fill:none;stroke:#333333;stroke-linecap:round;stroke-miterlimit:10;}
	.st16{fill:#DBDBDB;}
	.st17{fill:#F8DA96;}
	.st18{fill:#30B992;}
	.st19{fill:#055482;}
	.st20{fill:url(#SVGID_3_);}
	.st21{fill:#F8CDBA;}
	.st22{fill:#1F161E;}
	.st23{fill:#FA9E9F;}
	.st24{fill:none;stroke:#1F161E;stroke-width:0.69;stroke-linecap:round;stroke-miterlimit:10;}
	.st25{fill:#333333;}
	.st26{fill:none;stroke:#FFFFFF;stroke-width:3;stroke-linecap:round;stroke-miterlimit:10;}
	.st27{fill:none;stroke:#333333;stroke-width:4;stroke-linecap:round;stroke-miterlimit:10;}
	.st28{fill:none;stroke:#333333;stroke-width:2;stroke-linecap:round;stroke-miterlimit:10;}
	.st29{fill:#022B43;}
	.st30{fill:none;stroke:#1F161E;stroke-linecap:round;stroke-miterlimit:10;}
	.st31{fill:#D8D8D8;}
	.st32{fill:url(#SVGID_4_);}
	.st33{fill:url(#SVGID_5_);}
	.st34{fill:#969696;}
	.st35{fill:url(#SVGID_6_);}
	.st36{fill:url(#SVGID_7_);}
	.st37{fill:url(#SVGID_8_);}
</style>
<g>
	<defs>
		<rect id="SVGID_1_" width="400" height="255"/>
	</defs>
	<clipPath id="SVGID_2_">
		<use xlink:href="#SVGID_1_"  style="overflow:visible;"/>
	</clipPath>
	<g id="g" class="st0">
		<g transform="translate(-93 -192)">
			<path class="st1" d="M383.1,211.5c19.9,12.8,28.9,42.4,31.3,71c2.4,28.6-1.9,56.2-12.1,86.2c-10.3,30-26.5,62.5-52,73.6
				c-25.6,11.2-60.5,0.9-86.7-16c-26.2-16.9-43.7-40.6-60.2-66.3s-31.7-53.4-33.3-84.5c-1.6-31.2,10.6-65.9,34.8-77.9
				c24.2-12,60.5-1.2,94,2.1S363.2,198.7,383.1,211.5z"/>
			<g transform="translate(150 213.196)">
				<g transform="matrix(0.995, -0.105, 0.105, 0.995, 24.614, 7.087)">
					<g transform="translate(0 0)">
						
							<rect x="9.4" y="0" transform="matrix(-1 2.531423e-06 -2.531423e-06 -1 66.0161 72.9749)" class="st2" width="47.1" height="73"/>
						<line class="st3" x1="0" y1="44.5" x2="48.3" y2="44.5"/>
						<line class="st3" x1="0" y1="49.3" x2="48.3" y2="49.3"/>
						<line class="st3" x1="0" y1="54.1" x2="48.3" y2="54.1"/>
						<line class="st3" x1="0" y1="58.9" x2="48.3" y2="58.9"/>
						<circle class="st4" cx="32.9" cy="21.2" r="12.3"/>
						
							<rect x="48.3" y="25.9" transform="matrix(-1 2.531423e-06 -2.531423e-06 -1 116.1251 69.9929)" class="st5" width="19.5" height="18.1"/>
						<text transform="matrix(0.9995 0 0 0.9995 53.3141 35.2942)" class="st2 st6 st7">&lt; / &gt;</text>
					</g>
				</g>
				<g transform="translate(15.66 72.398)">
					<g transform="translate(0)">
						<path class="st1" d="M53.2,19.3H7.4c-1.4,0-2.6,1.2-2.6,2.6v27c0,1.4,1.2,2.6,2.6,2.6c0,0,0,0,0,0h8.7c0,0,0-0.1,0-0.1v-4.8
							c0-1.7,1.4-3.1,3.1-3.1h22.1c1.7,0,3.1,1.4,3.1,3.1v4.9h8.7c1.4,0,2.6-1.2,2.6-2.6l0,0V22C55.8,20.5,54.6,19.3,53.2,19.3z"/>
						<path class="st8" d="M49,15.4H3.1c-1.4,0-2.6,1.2-2.6,2.6v27c0,1.4,1.2,2.6,2.6,2.6h8.7c0,0,0-0.1,0-0.1v-4.8
							c0-1.7,1.4-3.1,3.1-3.1h22.1c1.7,0,3.1,1.4,3.1,3.1v4.9H49c1.4,0,2.6-1.2,2.6-2.6V18C51.6,16.5,50.4,15.4,49,15.4z"/>
						<rect x="5.7" y="12.4" class="st9" width="40.8" height="2.9"/>
						<path class="st9" d="M11.1,3.8H41c1.4,0,2.6,1.1,2.6,2.6c0,0,0,0,0,0v9h-35v-9C8.6,5,9.7,3.8,11.1,3.8L11.1,3.8z"/>
						<rect x="12.3" y="43.4" width="28" height="3"/>
						<line class="st8" x1="0.3" y1="43.4" x2="52.3" y2="43.4"/>
						<path class="st10" d="M36.5,45.1h-21l-2.3,4.3h25.6L36.5,45.1z"/>
						<path class="st1" d="M14.5,0h23.1c1.3,0,2.3,1,2.3,2.3v13.1H12.2V2.3C12.2,1,13.3,0,14.5,0z"/>
						<path class="st11" d="M20.7,30.4h21.5c1.6,0,2.9,1.3,2.9,2.9l0,0c0,1.6-1.3,2.9-2.9,2.9H20.7c-1.6,0-2.9-1.3-2.9-2.9l0,0
							C17.8,31.7,19.1,30.4,20.7,30.4z"/>
						<circle class="st11" cx="8.4" cy="22.1" r="2.1"/>
						<circle class="st12" cx="14.4" cy="22.1" r="2.1"/>
						<circle class="st13" cx="20.4" cy="22.1" r="2.1"/>
						<line class="st14" x1="16.1" y1="4.5" x2="36" y2="4.5"/>
						<line class="st14" x1="16.1" y1="8" x2="36" y2="8"/>
						<line class="st14" x1="16.1" y1="11.5" x2="26.1" y2="11.5"/>
					</g>
				</g>
				<g transform="translate(167.343 1.427)">
					<g transform="translate(0 0)">
						<line class="st15" x1="3.6" y1="9.8" x2="38.1" y2="1"/>
						<path class="st1" d="M4,9h27.3c2.2,0,4,1.8,4,4v12.3c0,2.2-1.8,4-4,4H4c-2.2,0-4-1.8-4-4V13C0,10.7,1.8,9,4,9z"/>
						<rect x="4.2" y="12.4" class="st16" width="13.4" height="13.4"/>
						<circle class="st17" cx="23.6" cy="14.5" r="2"/>
						<circle class="st18" cx="30.7" cy="14.5" r="1.3"/>
						<circle class="st19" cx="23.6" cy="14.5" r="0.6"/>
						<rect x="35.3" y="13.2" class="st16" width="1.2" height="4.4"/>
						<circle class="st17" cx="38" cy="1" r="1"/>
						<rect x="20.7" y="17.8" class="st16" width="5.8" height="1.3"/>
						<rect x="27.8" y="17.8" class="st16" width="5.8" height="1.3"/>
						<rect x="20.7" y="20.4" class="st16" width="5.8" height="1.3"/>
						<rect x="27.8" y="20.4" class="st16" width="5.8" height="1.3"/>
					</g>
				</g>
				<g transform="translate(190.762 49.307)">
					<g transform="translate(0 0)">
						
							<linearGradient id="SVGID_3_" gradientUnits="userSpaceOnUse" x1="-444.0509" y1="450.697" x2="-444.0509" y2="449.697" gradientTransform="matrix(90 0 0 -40 40009.8164 18028.377)">
							<stop  offset="0" style="stop-color:#055482"/>
							<stop  offset="1" style="stop-color:#30B992"/>
						</linearGradient>
						<path class="st20" d="M8.2,0.5h74c4.4,0,8,3.6,8,8v24c0,4.4-3.6,8-8,8h-74c-4.4,0-8-3.6-8-8v-24C0.2,4.1,3.8,0.5,8.2,0.5z"/>
						<circle class="st2" cx="20.2" cy="19.9" r="12.9"/>
						<path class="st21" d="M18.4,31.4c-0.2,0.9-5.1,0-4.9-1l1.2-6l4.9,1L18.4,31.4z"/>
						<path class="st22" d="M14,28c0.1-0.5,2.2-2.5,3-2c-1.1-0.6-1.9-1.8-2.3-1.6L14,28z"/>
						<circle class="st21" cx="20" cy="21.2" r="6.5"/>
						
							<ellipse transform="matrix(0.1033 -0.9946 0.9946 0.1033 0.2173 46.7725)" class="st23" cx="26" cy="23.3" rx="0.6" ry="1.1"/>
						
							<ellipse transform="matrix(0.1033 -0.9946 0.9946 0.1033 -5.1929 39.3533)" class="st23" cx="19.2" cy="22.6" rx="0.6" ry="1.1"/>
						<path class="st24" d="M23.5,21.8c0.2,0.3,1.1,1.6-0.1,2"/>
						<path class="st24" d="M21.1,25c-0.4-0.2-0.8-0.5-1-0.9"/>
						<path class="st25" d="M26.7,15.7c-1,0.7-2.6,1.7-4.6,2c-2.9,0.5-4.2-0.4-5.8,0.5c-0.9,0.5-2,1.7-2.2,4.1
							c-0.1,1.3,0,2.3-0.5,2.5c-0.4,0.2-1.1-0.3-1.4-0.6c-0.3-0.3-0.5-0.7-0.8-2.4c-0.2-1.2-0.3-1.8-0.3-2.3c0-1.2,0.3-2.1,0.5-2.6
							c0.1-0.4,0.8-1.9,2.3-3.4c2.5-2.4,5.6-2.8,6.8-2.9c1.1-0.1,3.3-0.2,5.2,1.1c0.6,0.4,1.9,1.2,2.1,2.6c0.2,0.9-0.1,1.7-0.2,2
							c-0.5,1.3-1.5,1.9-1.9,2.1c-0.3-0.5-0.5-0.9-0.8-1.4"/>
						<circle class="st21" cx="14.7" cy="20.4" r="1.4"/>
						<line class="st26" x1="39.8" y1="12.2" x2="83.6" y2="12.2"/>
						<line class="st26" x1="39.8" y1="17.3" x2="83.6" y2="17.3"/>
						<line class="st26" x1="39.8" y1="22.5" x2="83.6" y2="22.5"/>
						<line class="st26" x1="39.8" y1="27.7" x2="83.6" y2="27.7"/>
					</g>
				</g>
				<g transform="translate(88.813 154.299)">
					<g transform="translate(0 0)">
						<ellipse class="st25" cx="24.9" cy="5.5" rx="24.9" ry="5.5"/>
						<line class="st27" x1="24.9" y1="5.5" x2="10.9" y2="49.3"/>
						<line class="st27" x1="24.9" y1="5.5" x2="38.9" y2="49.3"/>
						<line class="st28" x1="15.5" y1="34.9" x2="31.1" y2="24.9"/>
						<line class="st28" x1="18.6" y1="24.9" x2="34.2" y2="34.9"/>
					</g>
				</g>
				<g transform="translate(84.867 39.829)">
					<g transform="translate(0 0)">
						<path class="st25" d="M93.9,160.3c0,0.9-0.5,6.8,0.5,7.4s13.1,0.9,13.7,0.3s0.9-1.7,0.4-2s-5.1-1.3-5.8-1.7
							c-0.9-1.1-1.4-2.6-1.2-4"/>
						<path class="st18" d="M58,83.2l6.8-2.4c-0.3-12.3-3.2-39.9-7.3-44c-1-1-20-2.6-23.4-2.6c-20.3,0-26.3,2.3-27.8,3.8
							C1.5,42.7,0,64.6,0,72.3S21.7,84,21.7,84l25.4,1.8c0,0,5.6,0.6,10.4,0.9C57.7,85.1,58,83.2,58,83.2z"/>
						<path class="st29" d="M78.1,90.3c1.9-0.5,20.3-3.6,24.3,0.4s16.6,60.5,16.6,61.8h-10.2l-13.7-29.5"/>
						<path class="st19" d="M11.1,85.3c-0.5,2.3-3.2,4.8-3.2,17.4c0,17.4,14.2,17.8,19.4,17.8c15.9,0,41.7-4.7,43.5-5.6
							c1.2,1.9,22.4,45.4,22.5,46.4h9.8c0,0-6.1-65-17-72.4C82.4,86.4,19.3,83.9,11.1,85.3z"/>
						<path class="st21" d="M68.5,72.6c-2.6,0-4.7,0.6-10.5,1.8l-0.3,11.1c5.5-2.2,6.8-5.3,8.4-5.3c4,0,6.1,2.1,8.5,2.1
							c1.6,0,4.6-1.3,4.6-3.1C79.1,75.5,71.7,72.6,68.5,72.6z"/>
						<path class="st25" d="M109.4,151.8c0,0.9-0.5,6.8,0.5,7.4s13.1,0.9,13.7,0.3s0.9-1.7,0.4-2s-5.1-1.3-5.8-1.7
							c-0.9-1.1-1.4-2.6-1.2-4"/>
						<path class="st21" d="M37.6,36.7c0,1.5-8.6,1.5-8.6,0V24.6h8.6V36.7z"/>
						<path class="st25" d="M34.8,28.6c-0.8,0-5.8,2.2-5.8,3.5v-6.5C30.2,25.5,34.8,28.6,34.8,28.6z"/>
						<circle class="st21" cx="36.5" cy="18.7" r="10.5"/>
						<path class="st25" d="M47.3,10.5c-1.5,1.1-3.9,2.5-6.9,3c-4.3,0.7-6.2-0.7-8.7,0.8c-1.4,0.8-3,2.6-3.3,6.2
							c-0.2,1.9,0.1,3.4-0.7,3.8c-0.6,0.3-1.6-0.5-2-0.9c-0.4-0.4-0.7-1-1.2-3.5c-0.3-1.8-0.5-2.6-0.5-3.4c0-1.8,0.5-3.2,0.8-3.9
							c0.2-0.5,1.1-2.9,3.4-5c3.7-3.6,8.3-4.2,10.2-4.3c1.7-0.1,4.9-0.3,7.8,1.6c0.9,0.6,2.8,1.8,3.2,3.9c0.3,1.4-0.2,2.5-0.3,2.9
							c-0.7,1.9-2.3,2.9-2.8,3.1c-0.4-0.7-0.8-1.4-1.2-2.1"/>
						<circle class="st21" cx="28.6" cy="20" r="2.2"/>
						<ellipse class="st23" cx="47" cy="19.7" rx="1.7" ry="0.9"/>
						<ellipse class="st23" cx="36.2" cy="19.7" rx="1.7" ry="0.9"/>
						<path class="st30" d="M42.8,17.8c0.3,0.5,2,2.4,0.2,3.2"/>
						<path class="st30" d="M39.6,23.3c-0.7-0.2-1.3-0.6-1.7-1.2"/>
						<path class="st30" d="M53.4,51.3c0.8,1.7,4.6,17.9,4.6,23"/>
						<path class="st18" d="M52.7,80.9c-7.2,2-29.8,13.5-45.2,13.5C0.2,94.5,0,89.2,0,71l19.9,0c-0.8,2.4-1.3,4.9-1.6,7.5
							c0,1.2,1.2,1.5,1.9,1.5c0.6,0,20.7-4.8,31.4-6.4L52.7,80.9z"/>
						<path class="st21" d="M67.4,79.7c0,1.8-3,3-4.6,3c-2.4,0-4.5-2.1-8.5-2.1c-0.4,0-0.9,0.1-1.6,0.3l-1-7.4
							c2.1-0.3,3.9-0.5,5-0.5C59.9,73.1,67.4,76,67.4,79.7z"/>
						<path class="st30" d="M24.1,55.1c-0.9,3.6-1.8,6.6-2.4,8.6c-0.9,3.1-1.4,5-2.3,8.9c-1,4.2-1.4,6.2-0.4,7
							c0.8,0.6,2,0.3,2.5,0.2c3.5-0.9,10.2-2.3,19.1-4.2"/>
					</g>
				</g>
				<path class="st31" d="M125,31.1h93.9c0.6,0,1,0.5,1,1v0c0,0.6-0.5,1-1,1H125c-0.6,0-1-0.5-1-1v0C123.9,31.5,124.4,31.1,125,31.1
					z"/>
				<path class="st31" d="M145.1,32.1h4.1c0.9,0,1.6,0.7,1.6,1.6v0c0,0.9-0.7,1.6-1.6,1.6h-4.1c-0.9,0-1.6-0.7-1.6-1.6v0
					C143.5,32.8,144.2,32.1,145.1,32.1z"/>
				<path class="st31" d="M194.8,32.1h4.1c0.9,0,1.6,0.7,1.6,1.6v0c0,0.9-0.7,1.6-1.6,1.6h-4.1c-0.9,0-1.6-0.7-1.6-1.6v0
					C193.1,32.8,193.9,32.1,194.8,32.1z"/>
				<g transform="translate(236.044 126.273)">
					<g transform="translate(0 0)">
						
							<linearGradient id="SVGID_4_" gradientUnits="userSpaceOnUse" x1="-480.8931" y1="374.2988" x2="-480.8931" y2="373.2988" gradientTransform="matrix(18.6839 0 0 -43.644 9014.8545 16353.3652)">
							<stop  offset="0" style="stop-color:#055482"/>
							<stop  offset="1" style="stop-color:#30B992"/>
						</linearGradient>
						<path class="st32" d="M34.8,17.5c7.5,1.4,6.2,46.2-8.2,43.5C12.9,58.4,25.6,15.8,34.8,17.5z"/>
						
							<linearGradient id="SVGID_5_" gradientUnits="userSpaceOnUse" x1="-483.3576" y1="372.8607" x2="-483.3576" y2="371.8607" gradientTransform="matrix(24.3087 0 0 -35.4613 11761.9707 13244.9316)">
							<stop  offset="0" style="stop-color:#055482"/>
							<stop  offset="1" style="stop-color:#30B992"/>
						</linearGradient>
						<path class="st33" d="M1.8,23.1c6-3.4,31,28.1,19.5,34.5C10.6,63.7-5.4,27.2,1.8,23.1z"/>
						<path class="st34" d="M32.2,82.6H17.2c-1.3,0-2.3-0.9-2.5-2.2l-1.9-17.1c-0.2-1.4,0.8-2.6,2.2-2.7c0.1,0,0.2,0,0.3,0h18.8
							c1.4,0,2.5,1.1,2.5,2.5c0,0.1,0,0.2,0,0.3l-1.8,17.1C34.6,81.7,33.5,82.6,32.2,82.6z"/>
						
							<linearGradient id="SVGID_6_" gradientUnits="userSpaceOnUse" x1="-479.0751" y1="372.3702" x2="-479.0751" y2="371.3702" gradientTransform="matrix(15.9597 0 0 -33.33 7679.4253 12411.085)">
							<stop  offset="0" style="stop-color:#055482"/>
							<stop  offset="1" style="stop-color:#30B992"/>
						</linearGradient>
						<path class="st35" d="M39,0.1c5.7,1.7,1.3,36.2-9.6,33C19.1,30.1,32-1.9,39,0.1z"/>
						
							<linearGradient id="SVGID_7_" gradientUnits="userSpaceOnUse" x1="-482.3875" y1="369.4207" x2="-482.3875" y2="368.4207" gradientTransform="matrix(21.733 0 0 -24.4818 10521.9053 9071.126)">
							<stop  offset="0" style="stop-color:#055482"/>
							<stop  offset="1" style="stop-color:#30B992"/>
						</linearGradient>
						<path class="st36" d="M48.4,27.6C52.4,31,36.3,57,28.7,50.5C21.6,44.3,43.6,23.4,48.4,27.6z"/>
						
							<linearGradient id="SVGID_8_" gradientUnits="userSpaceOnUse" x1="-481.2658" y1="375.548" x2="-481.2658" y2="374.548" gradientTransform="matrix(19.3614 0 0 -54.586 9342.6377 20503.3555)">
							<stop  offset="0" style="stop-color:#055482"/>
							<stop  offset="1" style="stop-color:#30B992"/>
						</linearGradient>
						<path class="st37" d="M24.7,3.7c8.6,0,16.4,54.6,0,54.6C9.3,58.3,14.3,3.7,24.7,3.7z"/>
						<path class="st31" d="M11.1,56.9h27.2c1.7,0,3.1,1.4,3.1,3.1l0,0c0,1.7-1.4,3.1-3.1,3.1H11.1c-1.7,0-3.1-1.4-3.1-3.1l0,0
							C8.1,58.3,9.4,56.9,11.1,56.9z"/>
					</g>
				</g>
				<g transform="translate(0 123.905)">
					<g transform="translate(0)">
						<path class="st34" d="M218.1,84.6L218.1,84.6c-1.1,0.3-2.2-0.4-2.5-1.4L195.5,6.3c-0.3-1.1,0.4-2.2,1.4-2.5l0,0
							c1.1-0.3,2.2,0.4,2.5,1.4l20.2,76.9C219.9,83.2,219.2,84.3,218.1,84.6z"/>
						<path class="st34" d="M193.8,3.8L193.8,3.8c1.1,0.3,1.7,1.4,1.4,2.5l-20.2,76.9c-0.3,1.1-1.4,1.7-2.5,1.4l0,0
							c-1.1-0.3-1.7-1.4-1.4-2.5l20.2-76.9C191.6,4.2,192.7,3.5,193.8,3.8z"/>
						<path class="st31" d="M165.9,3.8L165.9,3.8c1.1,0.3,1.7,1.4,1.4,2.5l-20.2,76.9c-0.3,1.1-1.4,1.7-2.5,1.4l0,0
							c-1.1-0.3-1.7-1.4-1.4-2.5l20.2-76.9C163.7,4.2,164.8,3.5,165.9,3.8z"/>
						<path class="st31" d="M189.9,84.6L189.9,84.6c-1.1,0.3-2.2-0.4-2.5-1.4L167.2,6.3c-0.3-1.1,0.4-2.2,1.4-2.5l0,0
							c1.1-0.3,2.2,0.4,2.5,1.4l20.2,76.9C191.6,83.2,191,84.3,189.9,84.6z"/>
						<path class="st34" d="M52.2,3.6L52.2,3.6c1.1,0.3,1.7,1.4,1.5,2.5L33.8,83.2c-0.3,1.1-1.4,1.7-2.5,1.5l0,0
							c-1.1-0.3-1.7-1.4-1.5-2.5L49.7,5.1C50,4,51.1,3.4,52.2,3.6z"/>
						<path class="st34" d="M75.9,84.3L75.9,84.3c-1.1,0.3-2.2-0.4-2.5-1.5L53.5,5.7c-0.3-1.1,0.4-2.2,1.5-2.5l0,0
							c1.1-0.3,2.2,0.4,2.5,1.5l19.9,77.1C77.6,82.9,77,84,75.9,84.3z"/>
						<path class="st31" d="M13.4,0h193.1c1.7,0,3,1.3,3,3l0,0c0,1.7-1.3,3-3,3H13.4c-1.7,0-3-1.3-3-3l0,0C10.5,1.3,11.8,0,13.4,0z"
							/>
						<path class="st31" d="M23.2,3.8L23.2,3.8c1.1,0.3,1.7,1.4,1.4,2.5L4.4,83.1c-0.3,1.1-1.4,1.7-2.5,1.4l0,0
							c-1.1-0.3-1.7-1.4-1.4-2.5L20.7,5.2C21,4.2,22.1,3.5,23.2,3.8z"/>
						<path class="st31" d="M47.2,84.6L47.2,84.6c-1.1,0.3-2.2-0.4-2.5-1.4L24.5,6.3c-0.3-1.1,0.4-2.2,1.4-2.5l0,0
							c1.1-0.3,2.2,0.4,2.5,1.4l20.2,76.9C48.9,83.2,48.2,84.3,47.2,84.6z"/>
					</g>
				</g>
				<g transform="translate(141.311 99.431)">
					<g transform="translate(0 0)">
						<path class="st25" d="M57.8,24.6H21.3l6.6-22.7C28.2,0.8,29.3,0,30.5,0h31c1.4,0,2.6,1.1,2.7,2.6c0,0.3,0,0.5-0.1,0.7
							L57.8,24.6z"/>
						<circle class="st2" cx="44" cy="12.3" r="2.2"/>
						<rect x="0" y="23" class="st25" width="25.6" height="1.6"/>
					</g>
				</g>
			</g>
		</g>
	</g>
</g>
</svg>
