<?xml version="1.0" encoding="utf-8"?>
<!-- Generator: Adobe Illustrator 23.1.0, SVG Export Plug-In . SVG Version: 6.00 Build 0)  -->
<svg version="1.1" id="Layer_1" xmlns="http://www.w3.org/2000/svg" xmlns:xlink="http://www.w3.org/1999/xlink" x="0px" y="0px"
	 viewBox="0 0 2000 1210" style="enable-background:new 0 0 2000 1210;" xml:space="preserve">
<style type="text/css">
	.st0{fill:#E8F8FE;enable-background:new;}
	.st1{fill:#F5FCFF;enable-background:new;}
	.st2{fill:#FFFFFF;}
	.st3{opacity:0.15;fill:#68c4b4;enable-background:new;}
</style>
<rect class="st0" width="2000" height="1210"/>
<path class="st1" d="M1999.9,1079.8v130.1H-0.1c0-35.8,0-72.3,0-109.5c0-46.5,0-93.9,0-141.7c0-41,0-82.2,0-123.5v-74.3
	c0-41.7,0-83.3,0-124.3v-194c24.9,3.6,55.1,10.6,87.6,23.8C156.7,494.7,200,538,230.2,568.6c32.3,32.7,52.7,61.5,70.8,87.1
	c30.9,43.7,51.3,81.4,62.3,103.1c10.9,21.4,17.7,37.4,31.3,69.4c10.2,23.9,12,36.1,30.6,87.5c4.4,12,8.9,24.3,16,40.2
	c4.7,10.6,11,24.5,20.8,41.2c6,10.3,17.3,28.3,34,48.3c27.8,33.2,55,53.1,61.3,57.5c59.1,42.3,118.9,52.1,145,56.1
	c36.8,5.6,66.2,4.2,86.5,3.1c36.6-2,67.2-7.8,89.9-13.3c24-7.5,60.3-18.8,104.5-32.5c51.6-15.9,88.7-27.2,99.4-30.5
	c49.9-15.2,128-39.8,251.2-80.7c71.5-23.1,143-46.3,214.5-69.4c31.8-8.3,60.1-12.8,83.1-15.3c38.2-4.1,67.3-3.5,86.8-2.7
	c22.5,0.9,49.7,2.2,84.8,9.9c22,4.8,43.7,9.7,69.1,22.5c19.1,9.6,36.9,22,42.5,25.9c9.1,6.4,14.6,10.1,21.8,16.3
	c13.2,11.5,22.2,22.8,29.4,32c7.4,9.4,12.4,16.8,13.4,18.4c9,13.5,15.6,26.1,20.4,36.5l0,0
	C1999.7,1079.4,1999.8,1079.6,1999.9,1079.8z"/>
<path class="st2" d="M2000,1079.8v130.1H0V481.1c16.5,1.6,38.2,5,62.9,12.3c2.1,0.6,35.7,10.7,69.7,29.1
	c10.9,5.9,21.5,12.5,31.8,19.6C236.5,592,289.8,665,306.5,688.2c8.5,11.7,17.9,25.6,27.8,41.6c13.1,21.1,27,45.8,40.6,74.1
	c10.1,20.7,17.9,38,23.2,50.3c0,0,4.8,11,24.1,58c9.2,25.4,18.3,50.9,27.5,76.3c12.4,33.1,34,75.3,71.9,114.3
	c76.5,78.7,169.6,93.5,193.7,97c36,5.2,65.2,3.2,89.3,1.6c66.6-4.4,135.7-26.8,135.7-26.8c69.2-20.5,144.2-43.8,224.2-70.3
	c28.7-8.7,57.4-17.4,86.2-26.1c20.5-7.2,47.7-16.7,79.5-27.9c181.1-63.4,214.5-72.6,261.4-85.1c28.5-7.6,83.7-21.8,155.9-20.8
	c78.7,1.1,122,19.4,136.9,26.2c20.7,9.5,47.7,21.9,72.2,49C1967.3,1031.5,1984.7,1055,2000,1079.8z"/>
<path class="st3" d="M2000,0v534.4c-40.5,14.2-84.1,22-129.4,22.4h-3c-13.2,0-26.3-0.6-39.1-1.9C1625.6,535.3,1467,364.3,1467,156.2
	c0-55.4,11.3-108.2,31.6-156.2H2000z"/>
<path class="st3" d="M2000,449.8v245.3c-13.1,4.5-27.1,7.1-41.8,7.2h-1c-71.7,0-129.9-58.1-129.9-129.9c0-5.9,0.4-11.8,1.2-17.5
	c3.9-28.9,17.2-54.7,36.8-74.3c23.5-23.5,56-38,91.8-38C1972.2,442.6,1986.6,445.1,2000,449.8z"/>
</svg>
