<?xml version="1.0" encoding="utf-8"?>
<!-- Generator: Adobe Illustrator 25.0.0, SVG Export Plug-In . SVG Version: 6.00 Build 0)  -->
<svg version="1.1" id="Layer_1" xmlns="http://www.w3.org/2000/svg" xmlns:xlink="http://www.w3.org/1999/xlink" x="0px" y="0px"
	 viewBox="0 0 256 256" style="enable-background:new 0 0 256 256;" xml:space="preserve">
<g>
	<path d="M238.3,91.4c1.3,1.3,2.6,2.5,4.2,3.5c0.6,0.4,1.2,0.6,1.9,0.5c0.9-0.1,1.5,0.4,1.6,1.2c0.2,0.8-0.2,1.4-1,1.7
		c-0.7,0.2-1.1,0.7-1.5,1.2c-1,1.6-1.6,3.3-2.1,5.1c9.2,5.1,14.5,12.7,14.6,23.3c0.1,10.6-5,18.3-14.2,23.5c0.5,1.8,1,3.7,2,5.4
		c0.3,0.5,0.7,0.9,1.2,1.1c0.8,0.3,1.1,1,0.9,1.8c-0.2,0.7-0.8,1.2-1.6,1c-1.2-0.2-2.2,0.3-3.1,0.9c-0.8,0.6-1.6,1.3-2.4,2
		c-0.3,0.3-0.6,0.6-0.9,0.8c5.5,9,6.2,18.3,1,27.5c-5.2,9.2-13.5,13.3-24,13.3c-0.2,1-0.5,2-0.7,3c-0.1,0.6-0.2,1.3-0.3,2
		c-0.1,0.8,0,1.6,0.6,2.3c0.5,0.6,0.4,1.4-0.2,1.9c-0.5,0.5-1.4,0.6-1.9,0.1c-0.9-0.8-1.9-0.9-2.9-0.8c-1.5,0.1-3,0.4-4.5,0.8
		c0.2,10.5-3.7,18.9-12.9,24.3c-9.1,5.3-18.3,4.8-27.4-0.5c0,0-0.1,0-0.1,0c-1.3,1.3-2.5,2.6-3.5,4.1c-0.4,0.6-0.6,1.2-0.5,1.9
		c0.1,0.8-0.4,1.4-1.2,1.6c-0.7,0.2-1.5-0.2-1.7-0.9c-0.2-0.7-0.7-1.2-1.3-1.6c-1.6-1-3.3-1.5-5-2c-5.1,9.2-12.7,14.5-23.3,14.6
		c-10.6,0.1-18.3-5.1-23.5-14.2c-1.8,0.5-3.7,1-5.4,2c-0.5,0.3-0.9,0.7-1.1,1.2c-0.3,0.8-1.1,1.1-1.9,0.8c-0.7-0.2-1.1-0.9-1-1.7
		c0.2-0.8,0-1.4-0.4-2.1c-0.9-1.6-2.1-2.9-3.4-4.3c-0.1,0.1-0.3,0.1-0.4,0.2c-4.9,3.2-10.2,4.6-15.9,4.2c-6.4-0.4-11.9-2.9-16.5-7.3
		c-4-3.8-6.4-8.5-7.5-14c-0.3-1.8-0.5-3.6-0.4-5.4c0-0.7,0-0.8-0.7-0.9c-1.5-0.2-2.9-0.6-4.4-0.8c-0.8-0.1-1.6,0-2.2,0.5
		c-0.6,0.5-1.5,0.4-2-0.2c-0.5-0.6-0.6-1.4,0-2c0.6-0.7,0.8-1.5,0.8-2.4c0-1.6-0.3-3.1-0.7-4.6c-0.1-0.4-0.3-0.4-0.6-0.4
		c-12.6,0.7-23.8-7.7-26.7-20c-1.6-6.8-0.6-13.3,3-19.4c0.1-0.2,0.3-0.4,0.4-0.7c0,0,0,0,0-0.1c0-0.1-0.1-0.2-0.1-0.2
		c-1.2-1-2.4-2.1-3.7-3.1c-0.7-0.5-1.5-0.9-2.4-0.7c-0.7,0.1-1.4-0.5-1.5-1.1c-0.2-0.7,0.1-1.5,0.8-1.7c1.1-0.4,1.7-1.2,2.2-2.1
		c0.7-1.4,1.2-2.8,1.6-4.3c-9.3-5-14.2-12.7-14.7-23.3c0.2-10.5,5.1-18.3,14.2-23.5c0-0.2,0-0.4-0.1-0.5c-0.5-1.4-1-2.9-1.6-4.3
		c-0.3-0.8-0.8-1.4-1.6-1.7c-0.7-0.3-1-1-0.8-1.7c0.2-0.7,0.9-1.3,1.6-1.1c1,0.2,1.8-0.1,2.7-0.6c1.4-0.8,2.6-1.9,3.7-3
		c-5.5-9-6.2-18.2-1-27.4c5.2-9.2,13.5-13.4,24.1-13.3c0.2-1.2,0.5-2.4,0.7-3.6c0.1-0.6,0.1-1.2,0.2-1.8c0-0.7-0.1-1.2-0.5-1.8
		c-0.5-0.6-0.4-1.5,0.2-2c0.6-0.5,1.4-0.6,1.9-0.1c0.7,0.6,1.5,0.8,2.3,0.8c1.7,0,3.4-0.4,5-0.8C50.8,31,54.8,22.7,64,17.3
		c9.1-5.3,18.3-4.8,27.5,0.5c1.3-1.4,2.7-2.8,3.7-4.5c0.2-0.5,0.3-0.9,0.3-1.5c-0.1-0.9,0.4-1.5,1.1-1.7c0.8-0.2,1.5,0.2,1.8,1
		c0.2,0.7,0.7,1.1,1.2,1.5c0.5,0.3,1.1,0.6,1.6,0.9c1.1,0.5,2.3,0.8,3.4,1.3c5-9.3,12.7-14.3,23.3-14.7c10.5,0.3,18.3,5.1,23.5,14.2
		c0.1,0,0.2,0,0.3,0c1.6-0.5,3.2-0.9,4.7-1.7c0.6-0.3,1.2-0.7,1.5-1.5c0.3-0.7,1.1-1,1.8-0.8c0.7,0.2,1.2,0.8,1.1,1.6
		c-0.2,1.1,0.2,1.9,0.7,2.8c0.8,1.3,1.9,2.5,3,3.6c9-5.5,18.2-6.2,27.4-1c9.2,5.2,13.3,13.5,13.3,24.1c1.2,0.2,2.4,0.5,3.6,0.7
		c0.7,0.1,1.5,0.1,2.2,0.2c0.5,0,0.9-0.1,1.3-0.4c0.7-0.5,1.6-0.5,2.1,0.1c0.4,0.5,0.5,1.5,0,2.1c-0.6,0.7-0.7,1.5-0.7,2.4
		c0,1.6,0.4,3.2,0.8,4.8c10.5-0.2,18.9,3.7,24.3,12.8C244.2,73,243.6,82.3,238.3,91.4z M163.8,93.2c-0.2,0-0.3-0.1-0.4-0.1
		c-0.3,0-0.6,0-0.9,0c-3.8,0-7.5,0.9-11,2.4c-2,0.8-3.9,1.9-5.8,3c-0.2,0.1-0.5,0.2-0.8,0.4c0-1,0-1.8,0-2.6c0-2-0.1-4-0.5-6
		c-0.6-3.5-1.7-6.7-3.5-9.8c-0.1-0.3-0.3-0.5-0.5-0.8c-5.4,3.2-9.3,7.7-12.4,13.2c-3.1-5.5-7-10-12.4-13.1c-0.1,0.1-0.2,0.1-0.2,0.2
		c-0.1,0.1-0.2,0.3-0.3,0.5c-1.8,3-2.9,6.3-3.5,9.8c-0.5,2.5-0.6,5.1-0.5,7.7c0,0.3,0,0.6,0,1.1c-0.4-0.2-0.7-0.4-0.9-0.5
		c-1.5-0.8-2.9-1.7-4.4-2.4c-4-1.9-8.2-2.9-12.6-2.9c-0.3,0-0.5,0-0.9,0.1c0,0.3,0,0.5,0,0.8c0,1.9,0.3,3.8,0.7,5.7
		c0.8,3.5,2.1,6.7,3.9,9.8c0.2,0.3,0.4,0.7,0.6,1.1c-6.3-0.1-12.1,1.1-17.5,4.2c0.2,0.4,0.4,0.7,0.5,1c1.5,2.5,3.3,4.7,5.4,6.7
		c2.1,2,4.5,3.6,7.1,5c0.4,0.2,0.9,0.5,1.4,0.8c-6.1,3.2-11.1,7.3-14.4,13.5c5.5,3.1,11.3,4.3,17.6,4.2c-3.2,5.4-5.2,11-5.2,17.3
		c0.5,0,0.8,0.1,1.2,0.1c3.7-0.1,7.3-0.9,10.7-2.2c2.1-0.8,4.1-1.9,6.1-3.1c0.2-0.1,0.5-0.3,0.9-0.4c0,0.9,0,1.6,0,2.4
		c0,2.3,0.2,4.5,0.6,6.7c0.6,3.2,1.7,6.3,3.3,9.1c0.2,0.3,0.4,0.6,0.6,0.9c5.4-3.2,9.4-7.7,12.4-13.2c3.1,5.5,7,10,12.4,13.2
		c3.6-5.9,4.7-12.4,4.5-19.2c3,1.8,5.9,3.4,9,4.3c3.2,1,6.4,1.6,9.8,1.4c0-0.3,0.1-0.5,0.1-0.7c-0.1-1.5-0.2-3-0.5-4.5
		c-0.7-4-2.1-7.7-4.2-11.2c-0.2-0.3-0.3-0.6-0.5-0.9c0.3,0,0.5,0,0.7,0c2.2-0.1,4.5-0.2,6.7-0.6c3.4-0.6,6.6-1.6,9.5-3.3
		c0.2-0.1,0.4-0.3,0.6-0.4c0-0.1,0-0.2-0.1-0.2c-0.1-0.2-0.2-0.4-0.3-0.5c-1.8-3.1-4.1-5.7-6.8-8c-2-1.7-4.2-3-6.4-4.3
		c-0.2-0.1-0.4-0.3-0.7-0.5c0.5-0.3,0.9-0.5,1.3-0.8c1.6-1,3.3-2,4.8-3.2c3.2-2.4,5.8-5.3,7.8-8.7c0.1-0.3,0.3-0.5,0.4-0.8
		c-0.1-0.1-0.1-0.1-0.2-0.2c-0.2-0.1-0.4-0.2-0.5-0.3c-2.3-1.2-4.7-2.1-7.2-2.8c-2.8-0.7-5.7-1-8.6-1c-0.3,0-0.6,0-1,0
		C161.9,105,163.8,99.4,163.8,93.2z M130.6,222.2c0.3-0.1,0.5-0.2,0.6-0.4c1-0.9,2.1-1.7,3.1-2.6c3.9-3.8,6.3-8.4,7.8-13.6
		c0.9-3.1,1.4-6.2,1.6-9.4c0.1-0.8,0-1.5,0-2.3c-1.9,0.3-3.8,0.7-5.7,1c-1.9,0.3-3.7,0.5-5.7,0.7c0.6,1.9,1.2,3.8,1.7,5.6
		c2.5-0.5,4.1,0.2,4.8,2c0.6,1.6,0,3.4-1.5,4.2c-1.4,0.8-3.3,0.6-4.4-0.7c-0.5-0.6-0.8-1.3-0.9-2.1c-0.1-1.2,0.5-2.2,1.4-3
		c-1.1-1.9-2.1-3.9-3.2-5.8c-0.1-0.1-0.3-0.3-0.4-0.3c-0.4,0-0.9,0-1.4,0.1c-0.3,8.1-0.6,16.1-0.9,24.2
		C129.3,220,130.2,220.7,130.6,222.2z M177.3,208.3c0.1-0.1,0.2-0.1,0.2-0.1c0.1-0.2,0.2-0.5,0.3-0.7c2.3-5.3,2.7-10.9,1.8-16.6
		c-0.7-4.2-2.2-8.2-4.1-12.1c-0.3-0.5-0.6-1.1-0.9-1.7c-2.8,2.7-5.8,5-9,7.2c1.5,1.4,2.9,2.7,4.4,4.1c0.7-0.8,1.5-1.3,2.5-1.4
		c1-0.1,1.9,0.2,2.7,0.9c1.3,1.1,1.5,3,0.7,4.4c-0.9,1.4-2.6,2-4.2,1.4c-1.8-0.7-2.5-2.2-2.1-4.8c-1.9-1.2-3.8-2.3-5.8-3.5
		c-0.3,0.2-0.5,0.3-0.7,0.4c-0.3,0.2-0.5,0.3-0.8,0.5c3.8,7.2,7.6,14.3,11.3,21.4C175.1,207.1,176.3,207.2,177.3,208.3z M94.7,187
		c-4.3,6.8-8.5,13.6-12.8,20.5c1.4,0.8,1.8,2,1.4,3.5c0.7-0.1,1.2-0.1,1.8-0.2c4.5-0.7,8.5-2.4,12.2-4.9c4.8-3.3,8.4-7.7,11.5-12.6
		c0-0.1,0.1-0.2,0.1-0.3c-3.7-1.1-7.2-2.5-10.7-4.2c-0.5,2-1,3.9-1.3,5.9c2.2,0.6,3.3,2,3.2,3.8c-0.2,1.7-1.5,3.1-3.2,3.2
		c-1.7,0.2-3.3-1-3.7-2.7c-0.2-0.8-0.1-1.6,0.3-2.4c0.5-1.1,1.5-1.7,2.7-2c0-0.2,0-0.4,0-0.6c0-1.7,0.1-3.4,0.1-5.1
		C96.2,187.6,96.1,187.6,94.7,187z M211,172.9c-0.2-1.2-0.3-2.4-0.6-3.5c-0.9-4.4-2.9-8.4-5.7-11.9c-3.2-4-7.1-7.2-11.4-9.9
		c-0.1-0.1-0.2-0.1-0.4-0.2c-1.1,3.6-2.4,7.1-4.1,10.5c2,0.5,3.9,0.9,5.8,1.3c0.2-1,0.7-1.9,1.5-2.4c0.9-0.6,1.8-0.7,2.8-0.5
		c1.7,0.4,2.8,1.9,2.7,3.6c-0.1,1.7-1.4,3.1-3.2,3.3c-1.9,0.2-3.2-0.9-3.9-3.3c-2.2,0-4.4-0.1-6.7-0.1c-0.3,0.6-0.6,1.1-0.9,1.6
		c6.9,4.3,13.7,8.6,20.5,12.8C208.5,173,208.7,172.6,211,172.9z M67.7,170.1c1.6,1.9,1.8,3.6,0.6,5.1c-1.1,1.3-2.9,1.7-4.4,0.9
		c-1.5-0.8-2.2-2.5-1.7-4.1c0.3-0.8,0.7-1.5,1.4-1.9c1-0.7,2.2-0.7,3.3-0.3c1.1-1.9,2.3-3.8,3.4-5.6c0.1-0.1,0.1-0.3,0-0.4
		c-0.2-0.4-0.4-0.7-0.7-1.2c-7.2,3.8-14.3,7.6-21.4,11.3c0.2,0.7,0.6,1.3,0.3,1.9c-0.2,0.6-0.5,1.2-0.8,1.8c0.5,0.2,1,0.5,1.6,0.7
		c5.4,2.2,11,2.4,16.7,1.3c4.3-0.8,8.3-2.4,12.1-4.4c0.2-0.1,0.4-0.2,0.7-0.4c-2.7-2.8-5-5.8-7.2-8.9
		C70.4,167.2,69.1,168.6,67.7,170.1z M222.3,125.4c-0.2-0.3-0.4-0.6-0.6-0.8c-2.1-2.9-4.8-5.3-7.9-7.1c-6-3.6-12.6-5-19.5-5.3
		c-0.1,0-0.3,0-0.5,0.1c0.9,3.6,1.4,7.3,1.7,11c1.9-0.6,3.8-1.1,5.6-1.7c-0.4-2.3,0.4-3.9,2.2-4.5c1.6-0.6,3.4,0.1,4.2,1.6
		c0.8,1.4,0.5,3.3-0.7,4.4c-0.7,0.6-1.4,0.8-2.3,0.8c-1.3,0-2.2-0.7-3-1.6c-2,1.1-3.9,2.1-5.8,3.2c0,0.3,0,0.6,0,0.9
		c0,0.3,0,0.6,0.1,0.9c8.1,0.3,16.1,0.6,24.2,0.9C220.1,126.6,220.9,125.8,222.3,125.4z M33.8,130.6c0.3,0.4,0.4,0.7,0.6,0.9
		c2.9,3.9,6.6,6.7,11,8.7c4.8,2.2,9.9,3.2,15.1,3.5c0.5,0,1,0,1.6,0c-0.3-1.2-0.5-2.5-0.7-3.7c-0.2-1.3-0.4-2.5-0.6-3.8
		c-0.2-1.2-0.3-2.4-0.4-3.7c-1.9,0.6-3.8,1.2-5.7,1.7c0.3,1,0.3,1.9-0.1,2.8c-0.4,0.9-1.1,1.5-2,1.8c-1.6,0.5-3.4-0.1-4.2-1.6
		c-0.8-1.5-0.5-3.3,0.8-4.4c0.6-0.5,1.3-0.8,2.2-0.8c1.2,0,2.2,0.5,3,1.5c0.3-0.2,0.6-0.3,0.9-0.5c1.5-0.8,3-1.7,4.5-2.5
		c0.4-0.2,0.6-0.5,0.5-0.9c0-0.3-0.1-0.6-0.1-1c-8.1-0.3-16.1-0.6-24.2-0.9C36,129.4,35.3,130.3,33.8,130.6z M208.4,78.7
		c-0.4-0.2-0.7-0.4-1.1-0.5c-5.4-2.3-11.1-2.7-16.8-1.6c-4.5,0.8-8.7,2.5-12.8,4.6c-0.2,0.1-0.3,0.2-0.5,0.3
		c2.5,2.7,4.8,5.5,6.9,8.6c1.4-1.5,2.7-2.9,4-4.3c-1.4-2-1.4-3.8-0.1-5.1c1.1-1.2,3.1-1.4,4.4-0.5c1.7,1.1,1.8,2.9,1.3,4.3
		c-0.3,0.8-0.8,1.3-1.6,1.7c-1.1,0.6-2.3,0.5-3.5,0c-1.1,1.8-2.2,3.6-3.2,5.3c-0.1,0.1-0.1,0.4,0,0.6c0.2,0.4,0.5,0.9,0.8,1.3
		c7.2-3.8,14.3-7.6,21.4-11.3C207.1,80.8,207.3,79.7,208.4,78.7z M45.2,83.2c0,0.2-0.1,0.2-0.1,0.3c0,0.2,0,0.4,0,0.6
		c0.5,4.6,2.2,8.9,4.8,12.7c3.3,4.9,7.7,8.6,12.7,11.7c0.1,0.1,0.3,0.1,0.5,0.2c1.1-3.6,2.4-7,4-10.4c-2-0.5-3.8-0.9-5.7-1.3
		c-0.1,0.3-0.2,0.6-0.4,0.9c-0.7,1.6-2.5,2.3-4.2,1.8c-1.3-0.4-2.7-1.7-2.4-3.8c0.2-1.6,1.6-2.9,3.2-3c1.8-0.1,3.3,1,3.7,2.7
		c0.1,0.2,0.1,0.4,0.2,0.7c0.6,0,1.1,0,1.6,0c1.5,0,3,0.1,4.5,0.1c0.3,0,0.6,0.1,0.7-0.3c0.2-0.4,0.4-0.7,0.6-1.2
		c-6.9-4.3-13.7-8.6-20.5-12.9C47.6,83.3,46.5,83.6,45.2,83.2z M128.3,36.2c0.3,8.1,0.6,16.1,0.9,24.1c1,0.1,1,0.1,1.4-0.6
		c0.8-1.5,1.6-3,2.5-4.5c0.1-0.2,0.2-0.4,0.3-0.6c-1.9-1.6-2.3-3.3-1.3-5c0.8-1.4,2.6-2,4.2-1.5c1.6,0.6,2.6,2.2,2.2,4
		c-0.2,0.8-0.5,1.5-1.2,2c-0.9,0.8-2,1-3.2,0.7c-0.6,1.8-1.1,3.6-1.7,5.5c2,0.2,3.9,0.4,5.8,0.7c1.9,0.3,3.8,0.7,5.8,1.1
		c-0.1-1.1-0.1-2.1-0.2-3.1c-0.2-3-0.7-5.8-1.5-8.7c-1.6-5.4-4.2-10.1-8.3-14c-1-0.9-2.1-1.8-3.2-2.5
		C129.8,35.6,129.8,35.6,128.3,36.2z M172.9,45.2c-0.2,0-0.4,0-0.5,0c-0.9,0.1-1.8,0.2-2.6,0.4c-4.5,0.9-8.5,2.8-12.1,5.6
		c-4.1,3.2-7.4,7.1-10.1,11.5c-0.1,0.1-0.1,0.3-0.2,0.5c3.5,1.1,6.9,2.4,10.2,4c0.4-2,0.9-3.8,1.3-5.7c-2.1-1-3-2.5-2.6-4.3
		c0.4-1.7,1.9-2.7,3.7-2.6c1.6,0.1,3,1.4,3.2,3.2c0.1,0.8-0.1,1.6-0.6,2.2c-0.7,1.1-1.8,1.5-3.1,1.6c0,1,0,2,0,2.9
		c0,1-0.1,2.1-0.1,3.1c0,0.3,0,0.5,0.3,0.7c0.4,0.2,0.8,0.4,1.3,0.7c4.3-6.9,8.6-13.7,12.9-20.5C172.8,47.5,172.5,46.5,172.9,45.2z
		 M78.7,47.7c-0.2,0.4-0.4,0.7-0.5,1.1c-2.2,5.1-2.6,10.4-1.8,15.8c0.8,4.9,2.5,9.5,4.8,13.8c0.1,0.1,0.2,0.3,0.3,0.5
		c2.7-2.6,5.6-4.8,8.6-6.9c-1.5-1.4-2.9-2.7-4.3-4c-0.3,0.2-0.5,0.4-0.7,0.5c-1.2,0.8-2.9,0.8-4-0.1c-1.2-0.9-1.7-2.4-1.3-3.8
		c0.6-1.9,2.5-2.9,4.3-2.4c1.9,0.5,2.9,2.5,2.4,4.4c-0.1,0.2-0.1,0.5-0.2,0.7c1.9,1.2,3.8,2.3,5.7,3.4c0.5-0.3,0.9-0.5,1.4-0.9
		c-3.8-7.2-7.6-14.3-11.3-21.4C80.6,49,79.6,48.7,78.7,47.7z M121.4,54.9c-0.2,0-0.4,0-0.5,0.1c-2.6,0.4-4.7-2.1-3.8-4.6
		c0.5-1.4,1.7-2.3,3.2-2.3c1.6,0,2.9,0.8,3.4,2.2c0.5,1.4,0.1,2.9-1,3.9c-0.2,0.2-0.4,0.3-0.6,0.5c0.2,0.4,0.4,0.8,0.6,1.1
		c0.8,1.4,1.5,2.8,2.3,4.1c0.1,0.2,0.3,0.5,0.5,0.5c0.5,0,0.9,0,1.5-0.1c0.3-8.1,0.6-16.1,0.9-24.2c-1.3-0.2-2.1-1-2.4-2.3
		c-0.3,0.2-0.6,0.4-0.9,0.6c-3.5,2.6-6.2,5.9-8.2,9.7c-2.8,5.4-3.9,11.3-4.2,17.3c0,0.2,0,0.4,0,0.7c3.6-0.9,7.2-1.4,10.9-1.7
		C122.5,58.6,122,56.8,121.4,54.9z M174.8,79.1c0.7-1.6,1.5-2.9,2.1-4.4c2.6-6.1,3.9-12.3,3-19c-0.4-2.6-1.1-5.1-2.2-7.4
		c-0.1-0.2-0.2-0.3-0.3-0.5c-0.9,0.9-1.9,1.1-3.1,0.8c-3.8,7.1-7.5,14.3-11.3,21.4c0.8,0.7,0.8,0.7,1.6,0.2c1.4-0.9,2.9-1.7,4.3-2.6
		c0.2-0.1,0.4-0.3,0.5-0.4c-0.9-2.2-0.5-3.9,1.1-4.9c1.5-0.9,3.4-0.6,4.5,0.7c1.1,1.2,1.1,3.1,0.1,4.4c-0.5,0.6-1.1,1.1-1.9,1.3
		c-1.2,0.3-2.3,0-3.3-0.9c-1.4,1.3-2.8,2.6-4.2,4C168.9,74,171.9,76.4,174.8,79.1z M82.3,48.3c4.3,6.9,8.6,13.7,12.9,20.5
		c0.9-0.3,0.9-0.3,0.9-1.1c0-1.4,0-2.8-0.1-4.2c0-0.5-0.1-1.1-0.1-1.6c-2.3-0.4-3.5-1.6-3.5-3.5c0-1.8,1.1-3.2,2.9-3.5
		c1.6-0.3,3.3,0.6,3.9,2.2c0.3,0.8,0.3,1.6,0,2.4c-0.4,1.2-1.2,1.9-2.4,2.3c0.4,1.9,0.8,3.7,1.3,5.6c1.9-0.8,3.6-1.6,5.4-2.3
		c1.8-0.7,3.6-1.3,5.5-2c-0.1-0.2-0.1-0.3-0.2-0.4c-2.2-3.5-4.8-6.8-7.9-9.6c-4.5-4-9.6-6.8-15.6-7.7c-0.6-0.1-1.3-0.1-2-0.2
		C83.5,46.4,83.3,47.5,82.3,48.3z M187.9,96.3c2.1-0.1,4.3-0.1,6.4-0.2c0.3-1.8,0.5-2.2,1-2.8c0.7-0.7,1.6-1.1,2.6-1.1
		c1.7,0,3.1,1.2,3.4,2.7c0.3,1.8-0.5,3.4-2.2,4c-1.8,0.7-3.4,0-4.7-2.2c-1.8,0.4-3.6,0.8-5.6,1.3c1.7,3.5,3.1,7.1,4.2,10.8
		c0.2-0.1,0.3-0.1,0.4-0.2c4-2.5,7.6-5.4,10.6-9c3.4-4.1,5.7-8.6,6.6-13.9c0.1-0.8,0.4-1.7,0.2-2.6c-1.2,0.3-2.2,0.1-3-0.9
		c-6.9,4.3-13.7,8.6-20.5,12.9C187.5,95.7,187.7,96,187.9,96.3z M71.7,90.5c0.6-0.9,1.2-1.7,1.8-2.5c0.6-0.8,1.2-1.5,1.8-2.3
		c0.6-0.8,1.2-1.5,1.9-2.2c0.6-0.7,1.3-1.4,2-2.2c-1-0.5-1.8-0.9-2.6-1.3c-5.7-2.7-11.6-4.3-17.9-4c-3.5,0.2-6.9,0.9-10.1,2.4
		c-0.2,0.1-0.4,0.2-0.5,0.3c0.3,0.5,0.6,1,0.7,1.4c0.1,0.5,0.1,1.1,0.1,1.7c7,3.7,14.1,7.5,21.3,11.3c0.2-0.3,0.3-0.5,0.4-0.7
		c-1.1-1.9-2.3-3.7-3.4-5.5c-2.3,0.8-3.9,0.4-4.9-1.2c-0.9-1.4-0.6-3.3,0.7-4.4c1.2-1.1,3.1-1.1,4.4-0.1c0.6,0.5,1.1,1.1,1.2,1.9
		c0.3,1.2,0,2.4-0.9,3.4C69.1,87.7,70.4,89,71.7,90.5z M201.2,133.7c1.5-2.1,3.1-2.6,4.8-1.8c1.5,0.7,2.3,2.4,1.9,4
		c-0.4,1.7-1.8,2.7-3.6,2.7c-0.8,0-1.5-0.3-2.1-0.9c-0.9-0.8-1.2-2-1.1-3.2c-1.8-0.6-3.6-1.1-5.5-1.7c-0.3,3.8-0.8,7.5-1.7,11.3
		c0.3,0,0.6,0,0.9,0c1.3-0.1,2.6-0.2,4-0.3c3.2-0.3,6.4-1,9.4-2.2c4.9-1.8,9.2-4.6,12.6-8.6c0.6-0.7,1.1-1.4,1.7-2.2
		c-1.2-0.3-2-1-2.3-2.1c-0.6,0-1.2,0.1-1.8,0.1c-1.9,0.1-3.8,0.1-5.6,0.2c-3.6,0.1-7.2,0.3-10.7,0.4c-1.8,0.1-3.6,0.1-5.4,0.2
		c-0.2,0-0.4,0.1-0.7,0.1c0,0.4,0,0.8,0,1.1C197.6,131.7,199.4,132.7,201.2,133.7z M62.2,112.1c-0.3,0-0.5,0-0.6,0
		c-1.9,0.2-3.9,0.3-5.8,0.6c-4.2,0.6-8.2,1.8-12,3.8c-3.8,2.1-7.1,4.8-9.6,8.4c-0.1,0.2-0.2,0.4-0.4,0.6c1.2,0.3,1.9,0.9,2.2,2
		c0.2,0,0.4,0,0.6,0c1.3,0,2.6-0.1,4-0.1c2.3-0.1,4.5-0.1,6.8-0.2c3.7-0.1,7.3-0.3,11-0.4c0.7,0,1.3-0.1,1.9-0.1
		c0.1-0.8,0.1-0.8-0.4-1.1c-1.2-0.6-2.3-1.3-3.5-1.9c-0.6-0.3-1.1-0.6-1.7-0.9c-1.7,1.9-3.4,2.4-5,1.4c-1.4-0.8-2.1-2.6-1.5-4.2
		c0.5-1.4,1.9-2.5,3.5-2.3c0.9,0.1,1.7,0.4,2.3,1.1c0.8,0.9,1.1,2,0.9,3.2c1.8,0.6,3.6,1.1,5.5,1.7
		C60.8,119.7,61.3,115.9,62.2,112.1z M61.9,159.9c-0.3,2.4-1.4,3.7-3.2,3.9c-1.7,0.1-3.2-0.9-3.7-2.5c-0.5-1.7,0.2-3.4,1.8-4.1
		c0.7-0.4,1.5-0.5,2.3-0.3c1.3,0.3,2.1,1.1,2.6,2.2c1.9-0.4,3.7-0.9,5.6-1.3c-1.7-3.5-3.1-7-4.2-10.7c-0.2,0.1-0.3,0.1-0.4,0.2
		c-4.1,2.6-7.9,5.6-11,9.4c-3.3,4-5.5,8.5-6.4,13.7c-0.1,0.8-0.3,1.6-0.2,2.5c1.1-0.3,2-0.1,2.9,0.6c6.9-4.3,13.7-8.6,20.5-12.9
		c-0.3-0.8-0.3-0.8-0.9-0.8c-1.1,0-2.3,0-3.4,0C63.4,159.9,62.7,159.9,61.9,159.9z M207.3,174.6c-7.1-3.8-14.3-7.6-21.5-11.3
		c-0.2,0.4-0.4,0.6-0.6,0.9c1.1,1.8,2.2,3.6,3.3,5.4c2.2-1.1,3.8-0.9,5,0.5c1.1,1.3,1,3.2-0.1,4.5c-1,1.2-2.9,1.6-4.3,0.8
		c-0.7-0.4-1.2-1-1.6-1.7c-0.5-1.3-0.3-2.4,0.4-3.6c-1.3-1.4-2.5-2.8-3.9-4.1c-2.2,3.2-4.5,6-7.1,8.8c0.3,0.2,0.6,0.3,0.8,0.5
		c1.7,0.8,3.3,1.6,5,2.3c5.2,2.1,10.7,3.1,16.3,2.5c3-0.3,5.9-1.1,8.7-2.4c0.1-0.1,0.2-0.2,0.4-0.3
		C207.4,176.3,207.3,176.2,207.3,174.6z M112.1,193.8c0,0.4,0,0.7,0,1c0.1,2.2,0.3,4.5,0.7,6.7c0.8,4.3,2.1,8.3,4.3,12.1
		c1.9,3.3,4.4,6,7.5,8.2c0.2,0.2,0.5,0.3,0.8,0.5c0.2-0.8,0.5-1.5,1.2-1.8c0.6-0.3,0.8-0.7,0.6-1.3c0,0,0-0.1,0-0.2
		c-0.1-2.3-0.1-4.5-0.2-6.8c-0.1-3.4-0.3-6.8-0.4-10.2c-0.1-1.9-0.1-3.9-0.2-5.8c0-0.1-0.1-0.3-0.1-0.4c-0.9-0.1-0.9-0.1-1.3,0.6
		c-0.8,1.4-1.5,2.8-2.3,4.1c-0.1,0.2-0.2,0.5-0.4,0.7c2.1,1.4,2.7,3,1.9,4.8c-0.7,1.6-2.4,2.4-4.1,2c-1.6-0.4-2.7-1.9-2.6-3.6
		c0.1-2,1.5-3.1,3.9-3.3c0.6-1.8,1.1-3.6,1.6-5.4C119.4,195.3,115.8,194.7,112.1,193.8z M147.2,193c0.1,0.2,0.1,0.2,0.1,0.3
		c0.2,0.4,0.5,0.7,0.7,1.1c2.7,4.2,5.9,7.9,10,10.8c3.7,2.7,7.8,4.6,12.3,5.4c0.8,0.1,1.7,0.3,2.5,0.2c0-0.5-0.1-1,0-1.5
		c0.1-0.5,0.3-0.9,0.6-1.4c-4.3-6.8-8.6-13.6-12.9-20.5c-0.4,0.2-0.6,0.3-1,0.5c0,2.1,0.1,4.2,0.1,6.3c1.1-0.1,2,0.1,2.8,0.7
		c0.8,0.6,1.2,1.5,1.3,2.5c0.1,1.7-0.9,3.2-2.5,3.6c-1.6,0.5-3.3-0.2-4.1-1.7c-0.4-0.7-0.5-1.5-0.3-2.3c0.2-1.2,1-2,2.1-2.6
		c-0.4-1.9-0.9-3.7-1.3-5.6C154.2,190.6,150.7,191.9,147.2,193z M81.4,207.4c3.8-7.2,7.6-14.3,11.4-21.5c-0.6-0.6-0.6-0.6-1.3-0.2
		c-1.5,0.9-3,1.8-4.4,2.7c-0.1,0.1-0.3,0.2-0.4,0.3c1,2.3,0.7,4-0.9,5.1c-1.4,0.9-3.2,0.8-4.4-0.4c-1.2-1.1-1.4-3-0.5-4.4
		c0.4-0.7,1.1-1.2,1.8-1.4c1.2-0.4,2.3-0.1,3.3,0.5c1.4-1.3,2.8-2.6,4.2-3.9c-3.2-2.2-6.1-4.5-8.8-7.1c-0.2,0.3-0.3,0.4-0.4,0.6
		c-0.5,1.1-1.1,2.1-1.6,3.2c-2.4,5.4-3.8,11-3.5,17c0.2,3.4,1,6.7,2.4,9.9c0.1,0.2,0.2,0.3,0.3,0.6
		C79.4,207.5,80.3,207.2,81.4,207.4z M161.4,147.2c0.7,1.8,1.5,3.4,2.1,5.1c0.6,1.7,1.1,3.4,1.4,5.2c0.3,1.8,0.4,3.6,0.6,5.3
		c0.1,0,0.1,0,0.1,0c0.1,0,0.2,0,0.3,0c2.2-0.3,4.3-0.9,6.2-2c4.2-2.4,6.4-6,6.4-10.9c0-2.3-0.5-4.5-1.4-6.7
		c-0.1-0.1-0.1-0.3-0.3-0.4C172.1,145.7,166.9,147,161.4,147.2z M79.3,143c-0.1,0.3-0.2,0.5-0.3,0.7c-0.6,1.6-1.1,3.2-1.3,4.9
		c-0.3,2.9,0.2,5.7,1.8,8.2c1.6,2.5,3.9,4.1,6.7,5.2c1.5,0.5,2.9,0.9,4.5,1c0-0.1,0.1-0.1,0.1-0.2c0-0.2,0-0.3,0-0.5
		c0.1-2.2,0.3-4.3,0.8-6.4c0.6-2.7,1.6-5.4,2.9-7.9c0.1-0.2,0.2-0.5,0.3-0.8C89.3,147.1,84.1,145.8,79.3,143z M79.3,113.3
		c2.4-1.3,4.8-2.3,7.4-3.1c2.6-0.7,5.3-1,8.1-1.2c-1.3-2.5-2.3-5-3-7.6c-0.7-2.6-1-5.3-1.1-8c-1.4,0-3.6,0.5-5.3,1.3
		c-3.3,1.4-5.9,3.7-7.1,7.2c-1.4,3.9-0.8,7.6,0.8,11.3C79.2,113.2,79.3,113.2,79.3,113.3z M161.3,108.9c1.2,0.1,2.3,0.2,3.4,0.3
		c1.1,0.1,2.2,0.3,3.2,0.6c1,0.2,2.1,0.5,3.1,0.8c1,0.3,2.1,0.7,3.1,1.2c1,0.4,1.9,0.9,2.9,1.4c0.1-0.1,0.1-0.2,0.2-0.3
		c0.1-0.1,0.1-0.3,0.2-0.4c0.9-2.2,1.4-4.5,1.3-6.9c-0.1-3.2-1.3-6-3.7-8.3c-2.1-2-4.6-3.1-7.3-3.7c-0.7-0.2-1.4-0.2-2.2-0.4
		C165.4,98.8,163.8,103.9,161.3,108.9z M128.2,166.4c-3,4.8-6.8,8.6-11.5,11.4c0.8,1.3,2.4,3,4,4.1c4,2.8,8.2,3.4,12.7,1.4
		c2.6-1.2,4.6-3.1,6.3-5.3c0-0.1,0-0.1,0-0.2C134.9,175,131.2,171.1,128.2,166.4z M139.6,78.4c-0.1-0.2-0.1-0.2-0.2-0.3
		c-1.4-1.8-3-3.4-4.9-4.5c-3.3-1.9-6.8-2.4-10.4-1.1c-3.1,1.1-5.5,3.2-7.4,5.8c0,0.1,0,0.1,0,0.2c4.8,2.8,8.5,6.6,11.5,11.3
		C131.1,85.1,134.8,81.2,139.6,78.4z M108.3,162.6c-1.8,0.7-3.4,1.3-5.1,1.9c-1.7,0.6-3.5,1-5.3,1.2c-1.8,0.2-3.5,0.3-5.3,0.5
		c0,0.1,0,0.2,0,0.3c0.3,1.7,0.8,3.4,1.5,5c1.8,3.7,4.5,6.2,8.4,7.3c3.4,0.9,6.7,0.4,9.9-0.8c0.1-0.1,0.3-0.1,0.4-0.2
		C110.1,173.2,108.7,168.1,108.3,162.6z M143.3,177.9c0.3,0.1,0.5,0.2,0.8,0.3c2.1,0.8,4.4,1.2,6.7,1.1c3.4-0.1,6.4-1.4,8.8-3.9
		c2-2.1,3.2-4.7,3.9-7.5c0.1-0.6,0.2-1.1,0.3-1.8c-5.5,0.1-10.7-1.2-15.7-3.6C147.6,168,146.2,173.1,143.3,177.9z M143.2,78.3
		c2.9,4.8,4.3,9.9,4.7,15.4c5-2.4,10.1-3.7,15.7-3.6c-0.8-4.8-2.6-8.9-6.9-11.4C152.4,76.1,147.8,76.5,143.2,78.3z M178.8,139.8
		c3.2-2.2,7-6.9,6.5-12.9c-0.3-3.7-3.7-9.3-6.5-10.5c-2.6,4.8-6.3,8.5-10.9,11.7C172.4,131.2,176.1,135,178.8,139.8z M108.2,93.7
		c0.4-5.5,1.9-10.7,4.7-15.3c-0.1-0.1-0.2-0.1-0.2-0.2c-0.1,0-0.1-0.1-0.2-0.1c-2.6-1-5.3-1.5-8.1-1.1c-2.8,0.4-5.3,1.5-7.4,3.5
		c-2.3,2.2-3.6,5-4.2,8.1c-0.1,0.4-0.1,0.9-0.2,1.4C98.1,90,103.2,91.3,108.2,93.7z M88.4,128.2c-4.6-3.1-8.3-6.9-11-11.7
		c-2.2,1.5-4.5,4.4-5.6,7c-1.1,2.9-1.2,5.8-0.2,8.8c0.8,2.2,2,4,3.6,5.7c0.7,0.7,1.3,1.3,2.2,1.9C80.1,135.1,83.8,131.3,88.4,128.2z
		 M45.2,46.5c-0.4,1.9-0.8,3.8-1.2,5.7c-0.7,3-1.6,5.9-2.3,8.9c-0.7,3.1-1.2,6.2-1,9.4c0.1,1.9,0.5,3.7,1.4,5.4
		c0.3,0.6,0.7,1.3,1.3,1.8c0.6-0.2,0.9-0.5,0.9-1.2c0-0.6,0.1-1.2,0.2-1.8c1.1-6.7,3.8-12.7,8.2-17.9c0.4-0.5,0.9-1,1.3-1.5
		C51.1,52.3,48.1,49.4,45.2,46.5z M212.7,178.4c-0.7,0.2-0.9,0.7-1,1.3c0,0.6-0.1,1.2-0.2,1.7c-1.2,7.3-4.3,13.6-9.3,19.1
		c-0.1,0.1-0.2,0.3-0.3,0.4c1.5,1.8,8.4,8.5,8.9,8.8c0-0.4,0.1-0.8,0.1-1.1c0.5-2.3,1-4.5,1.5-6.8c1.1-4.3,2.4-8.5,2.7-13
		c0.2-2.2,0.1-4.4-0.5-6.6C214.4,180.9,213.7,179.6,212.7,178.4z M240.4,97.2c-0.7-0.6-1.3-1-1.9-1.5c-1-0.9-2.1-1.9-3.1-2.9
		c-2.5-2.4-4.9-4.9-7.5-7.2c-2-1.8-4.2-3.4-6.6-4.6c-1.8-0.9-3.7-1.4-5.7-1.3c-0.6,0-1.2,0-1.7,0.3c0,0.9,0,0.9,0.6,1.3
		c6.4,4.7,10.9,10.8,13.3,18.4c0.1,0.2,0.2,0.5,0.3,0.8C232.2,99.4,236.2,98.3,240.4,97.2z M154.2,27.5c1.1-4,2.2-8,3.2-12.1
		c-1.5,0.5-2.8,1-4.2,1.4c-3.1,0.9-6.2,1.7-9.3,2.6c-3,0.8-5.9,1.9-8.5,3.4c-1.8,1-3.4,2.2-4.6,3.8c-0.6,0.9-1.2,1.8-1.5,2.8
		c0.7,0.5,0.7,0.5,1.3,0.3c3.6-1.6,7.5-2.7,11.4-3.1c2.4-0.2,4.8-0.3,7.2,0C150.9,27,152.5,27.3,154.2,27.5z M240.7,157.5
		c-0.1-0.3-0.1-0.5-0.2-0.6c-0.5-1.3-1-2.6-1.4-3.9c-0.8-2.8-1.5-5.5-2.3-8.3c-0.9-3-1.9-6-3.4-8.8c-1.1-2-2.4-3.8-4.3-5.2
		c-0.8-0.6-1.7-1.1-2.6-1.3c-0.5,0.8-0.5,0.8-0.2,1.5c1.7,3.9,2.8,8,3.1,12.3c0.2,3.5,0,7-0.8,10.4c0,0.2-0.1,0.4-0.1,0.7
		C232.6,155.3,236.6,156.4,240.7,157.5z M15.5,98.6c0.6,1.8,1.2,3.6,1.7,5.3c0.9,3.2,1.8,6.5,2.8,9.8c0.8,2.8,1.9,5.5,3.5,7.9
		c1.2,1.8,2.6,3.4,4.4,4.4c0.5,0.3,1.1,0.5,1.6,0.7c0.5-0.8,0.5-0.8,0.2-1.5c-2-4.3-3-8.9-3.1-13.7c-0.1-2.6,0.1-5.3,0.6-7.9
		c0.1-0.6,0.2-1.2,0.4-1.8C23.5,100.8,19.5,99.7,15.5,98.6z M98.6,240.7c0.3-0.1,0.4-0.1,0.5-0.2c1.3-0.5,2.7-1,4-1.4
		c3.1-0.9,6.3-1.7,9.4-2.6c3.1-0.9,6-2,8.8-3.7c2-1.2,3.7-2.7,4.8-4.7c0.3-0.5,0.5-1,0.7-1.5c-0.5-0.5-1-0.5-1.5-0.2
		c-7.1,3.2-14.5,4-22.2,2.4c-0.4-0.1-0.7-0.1-1.2-0.2C100.8,232.6,99.7,236.6,98.6,240.7z M46.5,210.9
		C46.4,210.9,46.5,211,46.5,210.9c2,0.2,3.8,0.6,5.6,1.1c3.6,0.9,7.2,1.9,10.8,2.7c2.9,0.6,5.8,0.9,8.7,0.6c2-0.3,3.8-0.9,5.4-2
		c0.2-0.2,0.5-0.4,0.7-0.6c-0.2-0.7-0.7-0.9-1.3-0.9c-0.6,0-1.2-0.1-1.7-0.2c-7.2-1.2-13.6-4.2-19-9.2c-0.1-0.1-0.3-0.2-0.3-0.3
		C52.3,205.1,49.4,208,46.5,210.9z M97.2,15.8C97.1,15.9,97,15.9,97,16c-1.4,2-3.1,3.6-4.8,5.3c-1.7,1.8-3.5,3.5-5.2,5.3
		c-2,2.1-3.8,4.3-5.2,6.7c-1.1,1.8-1.9,3.8-2.1,5.9c-0.1,0.9,0,1.9,0.2,2.8c0.6,0.2,1,0,1.4-0.5c4.7-6.5,10.9-10.9,18.6-13.3
		c0.2-0.1,0.4-0.1,0.6-0.2C99.4,23.9,98.3,19.9,97.2,15.8z M176.2,214c-0.7-0.2-1.1,0.1-1.4,0.6c-1.1,1.7-2.5,3.2-3.9,4.6
		c-4.2,4.1-9.1,7-14.7,8.7c-0.2,0.1-0.4,0.2-0.6,0.2c1.1,4.1,2.1,8.1,3.3,12.1c0.9-1,1.6-2,2.4-2.8c2.2-2.3,4.5-4.6,6.8-6.9
		c2-2.1,3.9-4.2,5.5-6.6c1.2-1.8,2.1-3.6,2.6-5.7C176.4,216.9,176.5,215.5,176.2,214z M15.8,158.9c0.2,0.2,0.4,0.3,0.5,0.4
		c1,0.9,2.1,1.7,3,2.6c2.4,2.3,4.7,4.6,7.1,6.9c2,1.9,4.2,3.7,6.6,5.2c1.8,1.1,3.7,2,5.8,2.3c1.1,0.2,2.3,0.2,3.4-0.1
		c0.2-0.6,0-1-0.5-1.4c-1.6-1.1-3.1-2.4-4.5-3.9c-4.1-4.2-7-9-8.8-14.6c-0.1-0.2-0.2-0.5-0.3-0.8C23.9,156.7,19.9,157.8,15.8,158.9z
		 M209.6,45.2c-1.7-0.4-3.5-0.7-5.3-1.1c-3.1-0.8-6.2-1.6-9.4-2.4c-2.9-0.7-5.9-1.1-8.9-1c-1.8,0.1-3.6,0.4-5.2,1.1
		c-0.9,0.4-1.7,0.9-2.4,1.6c0.2,0.6,0.6,0.9,1.2,0.9c0.7,0,1.5,0.2,2.2,0.3c7,1.2,13.1,4.2,18.4,8.9c0.2,0.2,0.4,0.4,0.6,0.5
		C203.8,51,206.7,48.1,209.6,45.2z M171.3,25.1c0.6-1.3,1.4-2.1,2.7-2.3c1.3-0.2,2.3,0.4,3.2,1.4c1.2-1.9,3.8-2.6,5.7-0.4
		c0.1-0.1,0.2-0.2,0.3-0.3c1.2-1.8,3.8-1.8,5-0.3c0.2,0.3,0.5,0.3,0.8,0.4c1.9,0.5,2.9,2.4,2.2,4.3c-0.1,0.2-0.2,0.4-0.2,0.6
		c1.2,0.2,2.2,0.8,2.7,1.9c0.5,1.1,0.3,2.2-0.2,3.3c1.3,0.1,2.2,0.7,2.7,1.8c0.5,1.1,0.4,2.2-0.2,3.3c1.5,0.4,3,0.8,4.6,1.1
		c0-3.3-0.6-6.3-2-9.2c-1.9-4-4.7-7.2-8.6-9.5c-7.5-4.5-16.5-3.5-22.1,0.3C169,22.7,170.1,23.9,171.3,25.1z M73.2,232.3
		c-0.1,0.2-0.2,0.3-0.3,0.5c-1.2,1.5-3.4,1.7-4.8,0.4c-0.3-0.3-0.7-0.5-1.2-0.7c-1.3-0.4-2.2-1.6-2.2-3c0-0.6,0.2-1.3,0.3-2
		c-1.1-0.1-2-0.7-2.6-1.8c-0.5-1.1-0.4-2.2,0.2-3.2c-2.4-0.5-3.8-2.4-2.5-5.2c-1.5-0.4-2.9-0.7-4.4-1.1c-0.4,5,2.3,13.4,9.8,18.2
		c7.9,5,17.2,3.8,22.7,0.1c-1.1-1.2-2.3-2.3-3.4-3.5c-0.5,1.3-1.3,2.1-2.7,2.3c-1.3,0.2-2.4-0.3-3.2-1.4
		C77.4,234.1,75,234.3,73.2,232.3z M109.4,240.6c3.2,6,10.4,11.2,19.4,10.9c9.2-0.4,15.6-6.3,18-11.3c-1.6-0.4-3.1-0.9-4.7-1.4
		c0.2,1.4-0.1,2.5-1.2,3.4c-1,0.8-2.2,0.9-3.4,0.4c-0.3,2.7-2.3,4-4.8,3.2c0,0.2,0,0.4-0.1,0.6c-0.3,2-2.1,3.2-4.1,2.7
		c-0.4-0.1-0.7-0.1-1,0c-2,0.5-3.8-0.8-4-2.8c0-0.2-0.1-0.3-0.1-0.5c-0.2,0.1-0.4,0.1-0.6,0.2c-2,0.5-3.7-0.7-4.1-2.6
		c0-0.2-0.1-0.4-0.2-0.7c-1.2,0.5-2.2,0.4-3.2-0.3c-1-0.7-1.4-1.8-1.5-3C112.4,239.7,110.9,240.1,109.4,240.6z M24.2,177.1
		c-0.9-0.8-1.5-1.7-1.4-3c0.1-1.2,0.8-2.1,1.8-2.6c-0.6-0.6-1.1-1.2-1.6-1.7c-0.5-0.5-1.1-1-1.6-1.6c-3.9,6.2-4.4,15.6,0.8,23.1
		c2.6,3.7,6,6.3,10.2,7.9c2.6,1,5.2,1.4,8.1,1.3c-0.4-1.7-0.8-3.2-1.2-4.8c-1.1,0.8-2.2,1.2-3.5,0.7c-1.3-0.5-1.8-1.5-2.1-2.8
		c-1.1,0.6-2.2,0.7-3.3,0.1c-1.1-0.5-1.6-1.5-1.8-2.7c-0.2,0.1-0.3,0.1-0.4,0.1c-2,1-4.3-0.3-4.6-2.2c0-0.2-0.2-0.4-0.4-0.6
		c-1.5-1.5-1.4-3.7,0.3-5.1c0.1-0.1,0.2-0.2,0.4-0.3C22,181.4,21.7,178.8,24.2,177.1z M142.2,16.8c1.5-0.4,3-0.8,4.4-1.3
		c-2.7-5.3-9.8-11.3-19.5-10.9C118.6,5,112,10.4,109.3,16c1.6,0.4,3.1,0.9,4.8,1.4c-0.2-1.4,0.1-2.5,1.1-3.4
		c1.1-0.8,2.2-0.8,3.5-0.4c0.1-0.8,0.2-1.5,0.7-2.1c0.5-0.6,1.1-1,1.9-1.2c0.7-0.2,1.4,0.1,2.2,0.2c0-0.2,0.1-0.2,0.1-0.3
		c0.3-2.2,2-3.4,4.2-2.9c0.3,0.1,0.6,0,0.9,0c2-0.5,3.9,0.8,4.1,2.8c0,0.1,0,0.3,0.1,0.5c0.3-0.1,0.5-0.1,0.7-0.2
		c1.8-0.5,3.8,0.8,4,2.8c0,0.2,0.1,0.3,0.1,0.5C139.6,12.8,142,13.7,142.2,16.8z M234.8,87.9c3.5-5.3,4.6-14.6-0.3-22.3
		c-2.6-4-6-6.8-10.4-8.5c-2.6-1-5.4-1.5-8.3-1.4c0.5,1.7,0.8,3.2,1.3,4.8c1.1-0.9,2.2-1.1,3.5-0.7c1.2,0.5,1.9,1.5,2.1,2.8
		c1.1-0.6,2.2-0.7,3.3-0.1c1.1,0.5,1.6,1.5,1.8,2.7c0.2-0.1,0.2-0.1,0.3-0.1c2-1,4.2,0.1,4.7,2.2c0.1,0.2,0.2,0.5,0.4,0.7
		c1.4,1.5,1.3,3.7-0.4,4.9c-0.1,0.1-0.2,0.2-0.4,0.4c1,0.8,1.5,1.8,1.4,3c-0.1,1.2-0.8,2.1-1.8,2.7c1,0.8,1.5,1.8,1.4,3
		c-0.1,1.3-0.8,2.1-1.9,2.7C232.6,85.8,233.7,86.8,234.8,87.9z M87.9,21.3c-6-3.7-14.9-4.3-22.2,0.3c-7.7,4.9-10.4,13.2-9.9,18.8
		c1.6-0.4,3.1-0.8,4.8-1.2c-0.9-1.1-1.1-2.2-0.7-3.5c0.5-1.3,1.5-1.9,2.8-2.1c-1.2-2.8,0.2-4.6,2.6-5.1c-0.1-0.1-0.1-0.3-0.2-0.4
		c-0.9-2.1,0.4-4.2,2.2-4.5c0.3-0.1,0.5-0.3,0.7-0.5c1.4-1.4,3.6-1.3,4.9,0.3c0.1,0.2,0.2,0.3,0.4,0.5c1.8-1.9,4.1-1.8,5.7,0.3
		c2-2.2,4.5-1.5,5.7,0.5C85.8,23.5,86.8,22.4,87.9,21.3z M240.6,146.7c6-3.2,11.7-10.9,10.8-20.7c-0.8-8-6.2-14.4-11.2-16.7
		c-0.4,1.6-0.9,3.1-1.3,4.7c1.4-0.2,2.5,0.1,3.3,1.1c0.8,1,0.9,2.2,0.4,3.5c1.2,0.1,2.3,0.5,2.9,1.5c0.7,1,0.6,2.1,0.3,3.2
		c0.1,0,0.2,0.1,0.3,0.1c2,0,3.7,2.1,2.9,4.2c-0.1,0.3,0,0.6,0,0.9c0.5,2-0.7,3.8-2.8,4.1c-0.2,0-0.3,0.1-0.5,0.1
		c0.4,1.1,0.4,2.2-0.3,3.2c-0.7,1-1.7,1.4-2.9,1.5c0.4,1.2,0.4,2.2-0.3,3.3c-0.7,1-1.7,1.4-3,1.5
		C239.7,143.7,240.1,145.2,240.6,146.7z M10.3,132.7c-0.2,0-0.3,0-0.4-0.1c-2.1-0.3-3.3-2.1-2.8-4.1c0.1-0.3,0.1-0.6,0-1
		c-0.5-2,0.7-3.8,2.7-4c0.2,0,0.3-0.1,0.5-0.1c-0.7-2.6,0.5-4.5,3.2-4.8c-0.4-1.1-0.4-2.2,0.3-3.3c0.7-1,1.8-1.4,3-1.4
		c-0.4-1.5-0.9-3-1.3-4.5c-5.9,3.1-11.7,10.7-10.8,20.4c0.4,4.8,2.3,8.9,5.5,12.5c1.6,1.8,3.5,3.3,5.8,4.5c0.5-1.6,0.9-3.1,1.3-4.7
		c-3.3,0.2-4.6-2.3-3.8-4.7C11.1,137.3,9.5,135.5,10.3,132.7z M24.1,79c-2-1.5-2.4-3.7-0.4-5.8c-0.1-0.1-0.1-0.1-0.2-0.2
		c-1.8-1.1-1.9-3.8-0.4-5.1c0.2-0.2,0.3-0.5,0.4-0.7c0.5-1.9,2.4-2.9,4.3-2.3c0.2,0.1,0.4,0.2,0.6,0.3c0.5-2.2,2.3-3.7,5.1-2.6
		c0.2-1.2,0.7-2.1,1.8-2.6c1.1-0.5,2.2-0.4,3.3,0.2c0.4-0.8,1.1-4,1.1-4.5c-6.1-0.2-14.9,3.1-19.3,12c-3.6,7.4-2.2,15.8,1.2,20.5
		c1.2-1.1,2.3-2.2,3.5-3.4c-1.3-0.5-2.1-1.3-2.3-2.6C22.6,80.8,23.2,79.8,24.1,79z M168.2,234.8c6.7,4.1,16.1,4.2,23.4-1.1
		c7-5.1,9.2-13.2,8.7-18c-1.6,0.4-3.1,0.8-4.7,1.2c1.8,2.4,0.6,5.1-2.1,5.6c0.1,0.2,0.1,0.3,0.2,0.5c0.8,2-0.2,3.9-2.2,4.5
		c-0.2,0-0.3,0.1-0.5,0.2c0,0.1,0.1,0.2,0.1,0.3c0.8,1.5,0.3,4.1-2.2,4.7c-0.2,0.1-0.5,0.2-0.7,0.4c-1.5,1.5-3.7,1.3-5-0.3
		c-0.1-0.1-0.2-0.3-0.3-0.4c-0.8,1-1.7,1.5-2.9,1.4c-1.2-0.1-2.1-0.7-2.7-1.8c-1.7,1.9-4.2,2-5.8-0.4
		C170.3,232.6,169.3,233.7,168.2,234.8z M222.5,193.5c-0.2,1.2-0.7,2.2-1.8,2.7c-1.1,0.6-2.2,0.3-3.3-0.2c-0.4,1.5-0.8,3-1.1,4.5
		c5.3,0.4,14.2-2.5,18.9-11c4.3-7.7,2.9-16.5-0.6-21.6c-1.2,1.1-2.3,2.2-3.5,3.4c1.3,0.5,2.1,1.4,2.3,2.7c0.2,1.3-0.4,2.4-1.4,3.2
		c1.1,0.7,1.7,1.5,1.8,2.8c0.1,1.2-0.5,2.1-1.4,2.9c0.2,0.1,0.2,0.2,0.3,0.2c1.8,1.2,2,3.7,0.4,5.1c-0.2,0.2-0.3,0.5-0.4,0.7
		c-0.6,2-2.4,2.9-4.4,2.2c-0.2-0.1-0.4-0.1-0.6-0.2C227,193.7,224.7,194.5,222.5,193.5z M226.2,125.8c0,0,0.1,0.1,0.1,0.1
		c0.3-0.1,0.7-0.2,1-0.4c1.9-0.8,3.4-2.2,4.6-3.9c1.4-1.9,2.5-4.1,3.2-6.4c0.9-2.9,1.8-5.9,2.6-8.8c0.7-2.4,1.3-4.8,2.3-7
		c0.1-0.2,0.1-0.4,0.3-0.7c-4,1.1-7.9,2.1-11.8,3.2c1,4,1.2,8.1,0.9,12.1C229,118.2,227.9,122.1,226.2,125.8z M130.2,226.2
		c0.1,0.3,0.1,0.5,0.2,0.6c0.4,1.2,1.1,2.3,2,3.3c1.3,1.4,2.8,2.5,4.5,3.3c2.6,1.4,5.4,2.3,8.3,3.1c3,0.9,6.1,1.7,9.1,2.6
		c1,0.3,2,0.8,3.1,1.2c-1.1-4-2.1-7.8-3.2-11.8C145.9,230.4,138,229.7,130.2,226.2z M55.4,54c6.1-5.6,13.3-9,21.8-9.8
		c-0.3-0.3-0.5-0.5-0.7-0.7c-1.3-1-2.8-1.7-4.5-2c-2.6-0.5-5.2-0.3-7.7,0.1c-2.9,0.5-5.8,1.2-8.6,2c-2.5,0.7-4.9,1.3-7.4,1.7
		c-0.5,0.1-1,0.1-1.4,0.2C49.6,48.2,52.5,51.1,55.4,54z M209.2,210.7c-2.8-2.8-5.7-5.7-8.5-8.6c-6,5.6-13.3,8.9-21.8,9.8
		c0.2,0.2,0.4,0.4,0.5,0.5c1,0.8,2,1.4,3.2,1.8c2.5,0.9,5.1,0.8,7.8,0.5c2.9-0.4,5.8-1.1,8.6-1.8c2.8-0.7,5.5-1.6,8.4-2
		C208.1,210.9,208.7,210.8,209.2,210.7z M175.2,41.9c0.1,0,0.1,0,0.2-0.1c0.1-0.5,0.2-0.9,0.2-1.4c0.1-2-0.3-3.8-1.1-5.6
		c-1.1-2.4-2.6-4.5-4.4-6.4c-2-2.2-4.2-4.4-6.3-6.5c-1.6-1.7-3.3-3.4-4.6-5.4c-0.1-0.1-0.2-0.1-0.3-0.2c-1.1,3.9-2.1,7.8-3.1,11.7
		C163.8,30.5,170.3,35.1,175.2,41.9z M27.6,154.1c-1.9-8.3-1.2-16.2,2.3-23.9c-0.3,0.1-0.5,0.1-0.6,0.2c-1.7,0.6-3.2,1.7-4.4,3.1
		c-1.5,1.8-2.6,3.9-3.5,6.1c-1.2,3-2,6.2-2.9,9.4c-0.7,2.7-1.4,5.5-2.7,8.1c0,0.1,0,0.2,0,0.3C19.8,156.2,23.6,155.2,27.6,154.1z
		 M80.9,214.2c-0.1,0-0.1,0-0.2,0c-0.1,0.8-0.2,1.6-0.2,2.3c0,1.8,0.6,3.6,1.4,5.2c1.1,2.2,2.5,4.1,4.1,5.9c2.2,2.4,4.5,4.7,6.8,7.1
		c1.5,1.6,3,3.1,4.2,4.9c0,0.1,0.1,0.1,0.3,0.2c1.1-4,2.1-7.9,3.2-11.8C92.3,225.6,85.8,221,80.9,214.2z M99,15.8
		c-0.1,0-0.1,0.1-0.2,0.1c1,3.9,2.1,7.8,3.1,11.6c1.6-0.3,3.1-0.5,4.6-0.7c3.4-0.4,6.8-0.3,10.2,0.3c3,0.5,5.8,1.4,8.6,2.6
		c0.2,0.1,0.3,0.1,0.6,0.2c-0.4-1.4-1.1-2.6-2-3.6c-1.1-1.3-2.5-2.3-4-3.2c-2.3-1.3-4.7-2.2-7.3-3c-2.7-0.8-5.5-1.5-8.2-2.3
		C102.6,17.3,100.8,16.7,99,15.8z M202.1,55.4c5.6,6.1,9,13.3,9.8,21.8c0.3-0.2,0.4-0.4,0.6-0.6c0.5-0.8,1.1-1.6,1.4-2.4
		c1.2-2.7,1.2-5.5,0.8-8.3c-0.3-2.8-1-5.5-1.7-8.2c-0.7-2.7-1.3-5.3-2-8c-0.2-1-0.3-1.9-0.4-2.8C207.9,49.6,205.1,52.5,202.1,55.4z
		 M41.9,80.9c0-0.1,0-0.1,0-0.2c-0.4-0.1-0.8-0.1-1.3-0.2c-2.1-0.2-4,0.3-5.8,1.1c-2.4,1.1-4.5,2.6-6.4,4.4c-2.2,2-4.3,4.2-6.5,6.2
		c-1.7,1.7-3.5,3.4-5.5,4.7c-0.1,0-0.1,0.1-0.2,0.2c3.9,1.1,7.8,2.1,11.8,3.2C30.5,92.3,35.1,85.8,41.9,80.9z M228.1,155.7
		c-2.5,8.1-7.1,14.6-13.9,19.5c0.1,0.1,0.1,0.2,0.1,0.2c0.1,0,0.2,0.1,0.3,0.1c2.2,0.4,4.2,0,6.3-0.8c2.4-1,4.5-2.4,6.4-4.2
		c2.6-2.4,5.1-4.8,7.6-7.3c1.5-1.4,2.9-2.8,4.6-4c0.1-0.1,0.2-0.2,0.4-0.4C235.9,157.8,232,156.8,228.1,155.7z M45.4,209.4
		c0.5-0.3,8-7.8,8.6-8.5c-0.9-1-1.8-2-2.6-3.1c-0.8-1.1-1.6-2.2-2.3-3.4c-0.7-1.2-1.3-2.4-1.9-3.6c-0.6-1.2-1-2.5-1.5-3.8
		c-0.4-1.3-0.8-2.6-1.1-4c-0.3-1.3-0.4-2.6-0.7-4.1c-0.3,0.3-0.5,0.5-0.6,0.7c-0.8,1-1.3,2.1-1.7,3.2c-0.8,2.6-0.7,5.3-0.4,7.9
		c0.4,2.9,1.1,5.7,1.8,8.5c0.6,2.5,1.2,5,1.8,7.6C45.2,207.7,45.3,208.5,45.4,209.4z M35.8,137.6c-1.4,2.6-1.7,12.1-0.4,14.4
		c1.8-0.3,13.7-3.6,14.1-3.9c-1.5-0.2-3.1-0.3-4.7-0.5c-2.8-0.4-5.4-1.4-7.9-2.5c-0.5-0.2-0.7-0.6-0.5-1c0.2-0.4,0.5-0.5,1-0.3
		c0.3,0.1,0.6,0.2,0.9,0.4c4.8,2.2,9.9,2.8,15.1,2.3c0.1,0,0.3-0.1,0.4-0.1C47.2,144.9,41,142.3,35.8,137.6z M146.3,202
		c-1.4,6.9-4,13.1-8.8,18.4c3.3,1,6.5,1.3,9.8,1.1c1.6-0.1,3.2-0.3,4.7-0.8c-1.3-4.8-2.6-9.6-3.8-14.3c-0.2,0.4-0.2,0.8-0.2,1.1
		c-0.2,3.7-1,7.3-2.5,10.7c-0.1,0.3-0.2,0.6-0.4,0.8c-0.2,0.5-0.6,0.6-1,0.5c-0.4-0.1-0.5-0.5-0.4-1c0.1-0.2,0.2-0.4,0.3-0.6
		c2.2-4.9,2.9-10,2.5-15.3C146.4,202.4,146.3,202.2,146.3,202z M107.9,49.7c0,0,0.1,0,0.1,0c0-0.3,0-0.6,0.1-0.9
		c0.1-3.2,0.7-6.3,1.8-9.2c0.3-0.9,0.7-1.7,1.1-2.6c0.2-0.5,0.6-0.6,1-0.5c0.4,0.1,0.5,0.5,0.4,1c-0.1,0.2-0.1,0.4-0.2,0.6
		c-1.9,4.1-2.7,8.5-2.6,13c0,1,0.1,2,0.2,3c0.1,0,0.1,0,0.2,0c0.7-3.4,1.6-6.7,3-9.8c1.4-3.1,3.3-6,5.6-8.6
		c-3.2-1.4-12-1.6-14.5-0.3C105.3,40.2,106.6,44.9,107.9,49.7z M202.1,109.8c0,0.1,0,0.1,0,0.2c0.8,0.2,1.7,0.4,2.5,0.6
		c0.8,0.2,1.6,0.4,2.4,0.7c0.8,0.2,1.6,0.5,2.5,0.8c0.8,0.3,1.6,0.6,2.4,1c0.8,0.4,1.6,0.7,2.3,1.2c0.7,0.4,1.5,0.8,2.2,1.3
		c0.7,0.5,1.4,1,2.1,1.5c0.7,0.5,1.3,1.1,2,1.6c1.4-3.8,1.6-12.3,0.3-14.4c-2.1,0.4-13.8,3.6-14.3,3.9c1.1,0.1,2.2,0.1,3.3,0.3
		c3.2,0.4,6.3,1.3,9.2,2.6c0.1,0.1,0.3,0.1,0.4,0.2c0.3,0.2,0.4,0.5,0.3,0.9c-0.1,0.4-0.5,0.5-0.9,0.5c-0.2,0-0.4-0.1-0.6-0.2
		c-3.2-1.5-6.6-2.4-10.1-2.6C206.1,109.5,204,109.6,202.1,109.8z M184.6,185.9c0.1,0.2,0.1,0.3,0.2,0.4c1.6,3,2.7,6.2,3.2,9.5
		c0.1,0.8,0.2,1.7,0.3,2.5c0.1,0.5-0.2,0.9-0.6,1c-0.4,0.1-0.7-0.2-0.8-0.7c-0.1-0.2-0.1-0.5-0.1-0.8c-0.1-0.9-0.2-1.8-0.4-2.6
		c-0.8-4.5-2.8-8.4-5.4-12.1c-0.1-0.1-0.1-0.2-0.2-0.2c2.2,6.6,3.2,13.3,1.6,20.4c5-1.2,9.1-3.5,12.7-6.9
		C191.6,192.9,188.1,189.5,184.6,185.9z M60.9,59.7c0.8,1,10,10.2,10.5,10.4c-0.1-0.2-0.2-0.4-0.2-0.5c-1.6-3.1-2.7-6.3-3.2-9.8
		c-0.1-0.8-0.2-1.5-0.3-2.3c0-0.4,0.2-0.7,0.6-0.7c0.4-0.1,0.7,0.2,0.9,0.6c0,0.1,0,0.3,0.1,0.5c0.2,1.2,0.3,2.3,0.5,3.5
		c0.8,4.2,2.7,8,5.2,11.5c0.1,0.1,0.2,0.2,0.3,0.4c-2.3-6.6-3.1-13.3-1.6-20.4C68.7,54,64.5,56.3,60.9,59.7z M149.2,54.9
		c0,0,0.1,0.1,0.1,0.1c4.5-5.3,9.9-9.5,16.7-11.7c-3.5-3.7-7.6-6.1-12.4-7.6c-1.3,4.9-2.6,9.6-3.9,14.4c0.2-0.1,0.4-0.3,0.5-0.4
		c2.2-3.6,5-6.5,8.5-8.9c0.1-0.1,0.2-0.2,0.3-0.2c0.4-0.2,0.7-0.1,1,0.2c0.2,0.3,0.2,0.7-0.1,1c-0.2,0.2-0.4,0.3-0.6,0.5
		c-4.1,2.9-7.2,6.8-9.5,11.3C149.6,54,149.4,54.4,149.2,54.9z M212.7,166c2.9-2.2,7.3-9.5,7.5-12.4c-4.7-1.3-9.5-2.5-14.3-3.8
		c0.1,0.2,0.3,0.4,0.4,0.5c3.5,2.2,6.4,5,8.8,8.3c0.1,0.2,0.3,0.3,0.3,0.5c0.1,0.4,0,0.8-0.3,0.9c-0.3,0.2-0.6,0.1-0.9-0.1
		c-0.2-0.2-0.3-0.4-0.5-0.6c-3.1-4.4-7.2-7.5-12-9.8c-0.2-0.1-0.4-0.1-0.5-0.2C206.5,153.9,210.6,159.2,212.7,166z M106.3,206
		c-0.2,0.1-0.2,0.1-0.3,0.1c-0.1,0.1-0.2,0.3-0.3,0.4c-1.3,2.1-2.9,4.1-4.7,5.8c-1.2,1.1-2.5,2.1-3.8,3.1c-0.4,0.3-0.8,0.3-1.1-0.1
		c-0.3-0.3-0.2-0.8,0.2-1.1c0.3-0.2,0.5-0.4,0.8-0.6c4.2-3.1,7.3-7.1,9.5-11.8c0.1-0.2,0.2-0.4,0.2-0.6c-1.7,1.6-3.2,3.2-4.9,4.8
		c-1.7,1.5-3.6,2.8-5.6,4c-2,1.1-4.1,2-6.3,2.8c3.5,3.6,7.6,6.1,12.4,7.6C103.8,215.6,105,210.8,106.3,206z M43.3,90.1
		c-3.7,3.5-6.1,7.6-7.6,12.4c4.9,1.3,9.6,2.6,14.5,3.9c-0.1-0.1-0.1-0.2-0.1-0.2c-0.1-0.1-0.2-0.2-0.4-0.3c-2.4-1.5-4.6-3.2-6.4-5.3
		c-0.9-1.1-1.8-2.2-2.6-3.3c-0.3-0.4-0.3-0.9,0.1-1.1c0.3-0.2,0.8-0.2,1.1,0.2c0.1,0.2,0.3,0.4,0.4,0.5c3.1,4.3,7.2,7.4,11.9,9.7
		c0.2,0.1,0.4,0.2,0.6,0.2C49.6,102.2,45.5,96.9,43.3,90.1z M52.9,73.6c7-1.5,13.7-0.7,20.3,1.6C73.1,75,73,75,72.9,74.9
		c-3.3-2.3-6.7-4.1-10.6-5c-1.5-0.3-3.1-0.5-4.6-0.8c-0.5-0.1-0.9-0.4-0.8-0.8c0-0.4,0.4-0.7,0.9-0.7c0.4,0,0.8,0.1,1.1,0.1
		c3.2,0.4,6.3,1.2,9.3,2.6c0.7,0.3,1.3,0.6,1.9,0.9c-3.4-3.4-6.9-6.9-10.4-10.4C56.4,64.5,54.1,68.6,52.9,73.6z M196.4,61
		c-0.8,0.6-10.1,9.9-10.4,10.5c0.2-0.1,0.4-0.2,0.6-0.3c1.6-0.8,3.3-1.5,5-2.1c2.2-0.7,4.5-1.1,6.8-1.3c0.6-0.1,0.9,0.2,1,0.6
		c0.1,0.4-0.3,0.8-0.8,0.9c-0.1,0-0.2,0-0.2,0c-1.2,0.2-2.3,0.3-3.5,0.5c-4.2,0.8-8,2.7-11.5,5.1c-0.1,0.1-0.3,0.2-0.4,0.3
		c3.3-1,6.6-1.9,10-2.2c3.4-0.3,6.8-0.2,10.4,0.6C202.1,68.7,199.8,64.6,196.4,61z M54,109.8c0-0.1,0-0.1,0-0.2
		c-0.5,0-0.9,0-1.4-0.1c-2.4-0.2-4.8-0.1-7.1,0.3c-2.6,0.4-5,1.2-7.4,2.2c-0.2,0.1-0.4,0.2-0.6,0.2c-0.4,0.1-0.7-0.1-0.8-0.4
		c-0.1-0.3,0-0.7,0.3-0.9c0.1-0.1,0.2-0.1,0.3-0.2c3.3-1.5,6.8-2.5,10.5-2.7c0.6,0,1.3-0.1,1.9-0.1c-4.7-1.4-9.4-2.7-14.2-3.9
		c-1.3,3.8-1,12.4,0.5,14.4C41,113.6,47.2,111.1,54,109.8z M183.1,180.9c0,0.1,0,0.1-0.1,0.2c0.3,0.2,0.7,0.5,1.1,0.7
		c3.7,2.4,7.6,4.2,12,4.9c0.9,0.1,1.7,0.2,2.6,0.4c0.4,0.1,0.7,0.4,0.6,0.8c-0.1,0.4-0.4,0.7-0.8,0.7c-0.3,0-0.6-0.1-0.8-0.1
		c-3.9-0.4-7.5-1.5-10.9-3.3c-0.2-0.1-0.4-0.2-0.6-0.3c0,0.1-0.1,0.1-0.1,0.2c3.4,3.4,6.9,6.9,10.3,10.3c2.7-2.1,6.9-9.9,6.9-12.7
		C196.3,184.1,189.6,183.2,183.1,180.9z M202.1,146.4c0.3,0,0.6,0.1,0.9,0.1c1.4,0,2.9,0.1,4.3,0c1.3-0.1,2.6-0.2,3.9-0.4
		c2.4-0.4,4.6-1.2,6.8-2.1c0.3-0.1,0.6-0.2,0.9-0.3c0.3-0.1,0.6,0.1,0.7,0.5c0.1,0.3,0,0.6-0.2,0.8c-0.1,0.1-0.3,0.2-0.4,0.2
		c-3.6,1.6-7.4,2.7-11.3,2.8c-0.3,0-0.7,0.1-1,0.1c0,0,0,0.1,0,0.1c4.7,1.3,9.4,2.5,14.1,3.8c1.3-2.8,1.1-11.8-0.4-14.4
		C215.1,142.4,208.9,145,202.1,146.4z M107.9,206.5c0,0-0.1,0-0.1,0c-1.3,4.7-2.5,9.5-3.8,14.2c3.2,1.3,11.4,1,14.4-0.4
		c-0.2-0.2-0.3-0.4-0.5-0.6c-1.4-1.6-2.6-3.3-3.7-5.2c-2.1-3.7-3.5-7.7-4.3-11.8c0-0.2-0.1-0.4-0.2-0.7c-0.1,0.2-0.2,0.4-0.2,0.6
		c0,0.2,0,0.4,0,0.6c-0.3,3.9,0,7.7,1.2,11.4c0.4,1.3,1,2.5,1.4,3.8c0.2,0.5,0.1,0.9-0.3,1.1c-0.4,0.2-0.8,0-1-0.5
		c-1.3-2.8-2.2-5.6-2.6-8.7C108.1,209.1,108,207.8,107.9,206.5z M59.7,195.2c0.2-0.1,0.3-0.2,0.4-0.3c3.3-3.3,6.6-6.7,9.9-10
		c0,0,0-0.1,0-0.1c0,0,0,0-0.1-0.1c-0.1,0-0.2,0.1-0.3,0.1c-3.3,1.7-6.7,2.9-10.4,3.3c-0.6,0.1-1.1,0.2-1.7,0.2
		c-0.5,0-0.7-0.2-0.8-0.7c0-0.4,0.2-0.7,0.6-0.8c0.3-0.1,0.6-0.1,0.9-0.1c1.2-0.2,2.3-0.3,3.5-0.6c4-0.9,7.6-2.7,11-5
		c0.1-0.1,0.2-0.2,0.3-0.3c-6.6,2.2-13.3,3.1-20.3,1.6C54,187.4,56.3,191.5,59.7,195.2z M106.3,50c0,0,0.1,0,0.1,0
		c-1.3-4.7-2.5-9.5-3.8-14.3c-4.8,1.5-8.9,4-12.4,7.6c6.8,2.2,12.2,6.3,16.7,11.5c0-0.3-0.1-0.5-0.2-0.7c-2.2-4.7-5.3-8.8-9.6-11.8
		c-0.2-0.2-0.5-0.4-0.7-0.6c-0.3-0.3-0.3-0.7-0.1-1c0.2-0.3,0.6-0.3,0.9-0.2c0.1,0,0.3,0.1,0.4,0.2c3.3,2.4,6.1,5.3,8.3,8.7
		C106,49.6,106.1,49.8,106.3,50z M137.7,35.8c4.8,5.2,7.3,11.4,8.7,18.2c0.1-0.3,0.2-0.6,0.2-0.8c0.3-5.1-0.2-10-2.3-14.8
		c-0.2-0.3-0.3-0.7-0.4-1.1c-0.1-0.4,0.1-0.6,0.4-0.8c0.3-0.2,0.7,0,0.9,0.3c0.1,0.1,0.1,0.2,0.1,0.3c1.7,3.8,2.8,7.8,2.8,12.1
		c0,0.1,0,0.3,0,0.4c0.1,0,0.1,0,0.2,0c1.3-4.7,2.6-9.5,3.8-14.2C147.9,34.1,141.5,34.3,137.7,35.8z M75.2,183c-0.1,0-0.1,0-0.2-0.1
		c-0.4,0.6-0.8,1.1-1.1,1.7c-2.3,3.6-4,7.5-4.6,11.9c-0.1,0.7-0.2,1.3-0.3,2c-0.1,0.5-0.4,0.8-0.9,0.8c-0.4,0-0.7-0.3-0.6-0.9
		c0-0.2,0-0.4,0-0.5c0.4-4,1.5-7.8,3.4-11.3c0.1-0.2,0.1-0.3,0.2-0.5c-3.4,3.4-6.9,6.9-10.4,10.3c3.6,3.3,7.8,5.6,12.7,6.8
		C72,196.2,72.9,189.6,75.2,183z M54.7,149.2c-0.2,0.1-0.5,0.2-0.7,0.3c-4.8,2.3-8.9,5.4-11.9,9.8c-0.1,0.2-0.3,0.4-0.5,0.5
		c-0.5,0.3-1.1,0-1.1-0.6c0-0.3,0.1-0.5,0.3-0.8c2.4-3.3,5.3-6.1,8.7-8.3c0.2-0.1,0.3-0.2,0.5-0.3c0,0,0-0.1-0.1-0.1
		c-4.7,1.3-9.4,2.5-14.1,3.8c0.7,3.8,5.4,11.3,7.6,12.2C45.4,159.1,49.5,153.8,54.7,149.2z M195.1,59.7c-1.8-2.5-10.1-6.9-12.6-6.7
		c0.8,3.3,0.9,6.7,0.6,10.1c-0.3,3.4-1.1,6.7-2.2,9.9c0.4-0.5,0.8-1,1.1-1.5c2.3-3.5,3.9-7.3,4.6-11.5c0.1-0.8,0.2-1.7,0.4-2.5
		c0.1-0.6,0.4-0.8,0.9-0.7c0.4,0.1,0.6,0.4,0.6,0.9c-0.2,1.1-0.3,2.3-0.5,3.4c-0.5,2.8-1.5,5.4-2.8,8c-0.1,0.3-0.2,0.5-0.4,0.8
		C188.3,66.5,191.7,63.1,195.1,59.7z M212.9,90.3c-0.1,0.1-0.2,0.1-0.2,0.1c-0.1,0.2-0.2,0.4-0.2,0.6c-0.7,2.2-1.7,4.3-3,6.3
		c-2.1,3.4-4.6,6.3-7.6,8.9c-0.2,0.2-0.4,0.3-0.6,0.5c0.3,0,0.5,0,0.6-0.1c4.8-2.3,8.9-5.4,12-9.8c0.1-0.2,0.3-0.4,0.4-0.5
		c0.3-0.3,0.7-0.3,1,0c0.3,0.2,0.3,0.6,0.2,0.9c-0.1,0.2-0.2,0.3-0.3,0.5c-2.4,3.3-5.3,6.1-8.8,8.2c-0.1,0.1-0.3,0.2-0.4,0.3
		c0,0,0,0.1,0.1,0.1c4.7-1.3,9.4-2.5,14.2-3.8C218.9,97.7,216.5,93.7,212.9,90.3z M165.9,212.8c-6.8-2.2-12.2-6.2-16.7-11.5
		c0,0.2,0,0.4,0.1,0.5c0.8,1.7,1.8,3.4,2.9,5c1.9,2.7,4.1,5,6.8,7c0.2,0.2,0.5,0.4,0.7,0.6c0.3,0.3,0.4,0.7,0.1,1
		c-0.2,0.3-0.6,0.4-1,0.1c-0.1-0.1-0.2-0.2-0.4-0.3c-3.3-2.4-6-5.2-8.2-8.6c-0.1-0.1-0.1-0.2-0.2-0.3c-0.1-0.1-0.1-0.1-0.4-0.3
		c1.3,4.9,2.5,9.6,3.8,14.3C158.4,218.9,162.4,216.4,165.9,212.8z M33.8,152.5c-0.1-0.3-0.1-0.6-0.1-0.8c-0.4-1.9-0.6-3.8-0.6-5.7
		c-0.1-3.1,0.4-6.1,1.3-9.1c0.1-0.4,0.1-0.7-0.2-1c-1-1.2-1.9-2.3-2.8-3.5c-0.1-0.1-0.2-0.3-0.3-0.4c-1.4,2.4-2.8,8.7-2.9,12.9
		c0,3,0.3,6,1,8.9C30.7,153.3,32.2,152.9,33.8,152.5z M103.6,33.8c0.3,0,0.5-0.1,0.6-0.1c2.6-0.5,5.3-0.8,7.9-0.6
		c2.4,0.1,4.7,0.5,7,1.2c0.4,0.1,0.7,0.1,1.1-0.2c1.1-0.9,2.3-1.8,3.5-2.8c0.2-0.1,0.3-0.2,0.5-0.4c-4.6-2-9.2-2.9-14.1-2.8
		c-2.6,0-5.2,0.3-7.8,1C102.8,30.7,103.2,32.2,103.6,33.8z M153.8,29.1c-7.5-1.8-14.8-1.2-21.8,1.9c0.1,0.1,0.2,0.1,0.2,0.2
		c1.3,1,2.6,2,3.8,3c0.3,0.3,0.6,0.2,0.9,0.1c3.2-1,6.5-1.4,9.9-1.2c1.4,0.1,2.8,0.3,4.2,0.5c0.5,0.1,0.9,0.2,1.5,0.3
		C153,32.2,153.4,30.7,153.8,29.1z M29.2,102.3c-0.9,2.8-1.5,8.2-0.7,13.6c0.5,2.8,1.2,5.6,2.4,8.3c0.2-0.3,0.3-0.5,0.5-0.7
		c0.9-1.1,1.7-2.2,2.6-3.3c0.4-0.4,0.4-0.8,0.3-1.3c-0.8-2.6-1.2-5.3-1.3-8c0-2.2,0.2-4.4,0.7-6.6c0.1-0.3,0.1-0.5,0.1-0.8
		C32.2,103.1,30.7,102.7,29.2,102.3z M131.9,225.2c3.7,1.6,7.5,2.5,11.5,2.7c3.5,0.2,6.9,0,10.3-1c-0.4-1.6-0.8-3.1-1.3-4.7
		c-5.5,1.2-10.9,1-16.1-0.6C134.9,222.9,133.4,224,131.9,225.2z M45.9,76.2c0.3-0.1,0.4-0.2,0.6-0.2c1.4-0.6,2.8-1.2,4.2-1.7
		c0.4-0.2,0.6-0.4,0.7-0.8c1.2-5,3.5-9.4,6.9-13.2c0.1-0.2,0.3-0.3,0.3-0.4c-1.2-1.2-2.3-2.3-3.4-3.4c-2.4,2.2-5.4,6.8-7.1,10.9
		C47,70.1,46.2,73,45.9,76.2z M222.3,103.6c0,0.2,0,0.3,0.1,0.4c0.2,1.5,0.5,3,0.6,4.5c0.3,3.6-0.1,7.2-1.2,10.7
		c-0.1,0.4,0,0.7,0.2,1c1,1.2,1.9,2.4,2.8,3.6c0.1,0.1,0.2,0.2,0.3,0.4c1.7-4.1,2.6-8.2,2.8-12.5c0.1-3.1-0.2-6.3-1-9.4
		C225.4,102.8,223.9,103.2,222.3,103.6z M179.9,210.3c3.3-0.4,6.4-1.2,9.3-2.5c3.9-1.7,7.4-3.9,10.4-6.8c-1.2-1.2-2.3-2.3-3.5-3.4
		c-0.1,0.1-0.2,0.2-0.3,0.3c-3.9,3.5-8.3,5.8-13.4,7c-0.4,0.1-0.5,0.3-0.7,0.6c-0.5,1.4-1.1,2.8-1.7,4.3
		C180.1,209.9,180,210,179.9,210.3z M102.3,227c3.7,0.9,7.4,1.2,11.1,0.9c3.7-0.3,7.3-1.2,10.7-2.7c-1.4-1.2-2.8-2.3-4.2-3.4
		c-0.1-0.1-0.3-0.1-0.5-0.1c-0.2,0-0.4,0.1-0.6,0.2c-4.4,1.3-8.9,1.5-13.4,0.7c-0.6-0.1-1.2-0.2-1.8-0.3
		C103.1,223.8,102.7,225.4,102.3,227z M225.2,131.9c-0.2,0.2-0.2,0.3-0.3,0.4c-0.9,1.1-1.7,2.3-2.6,3.4c-0.4,0.5-0.5,0.9-0.4,1.5
		c1.2,4.1,1.5,8.3,0.9,12.5c-0.1,0.9-0.3,1.8-0.5,2.8c1.6,0.4,3.1,0.8,4.7,1.3c1-4,1.3-8.1,0.8-12.1
		C227.4,138.3,226.6,135.1,225.2,131.9z M154,34.2c0.3,0.1,0.5,0.2,0.8,0.3c1.7,0.6,3.4,1.3,5,2.2c2.8,1.5,5.3,3.4,7.4,5.8
		c0.3,0.4,0.6,0.4,1.1,0.3c1-0.2,1.9-0.4,2.9-0.5c0.6-0.1,1.3-0.1,2.1-0.2c-4.7-6.2-10.7-10.3-18.1-12.5
		C154.9,31.1,154.4,32.6,154,34.2z M59.8,58.5C59.8,58.5,59.9,58.5,59.8,58.5c0.2-0.1,0.3-0.2,0.4-0.3c3.8-3.4,8.2-5.8,13.2-6.9
		c0.4-0.1,0.6-0.3,0.8-0.7c0.5-1.4,1.1-2.8,1.7-4.2c0.1-0.1,0.1-0.3,0.1-0.5c-7.2,0.6-15.2,4.6-19.7,9.3
		C57.6,56.3,58.7,57.4,59.8,58.5z M210.2,180c-1.8,0.7-3.6,1.4-5.4,2.2c-1.2,5.4-3.7,10.1-7.4,14.1c1.2,1.2,2.3,2.3,3.5,3.5
		C206.1,194.2,209.2,187.6,210.2,180z M82.8,214.2c4.7,6.1,10.6,10.2,18,12.4c0.4-1.6,0.8-3.2,1.3-4.7c-0.3-0.1-0.5-0.2-0.6-0.2
		c-3.1-1-5.9-2.4-8.5-4.3c-1.5-1.1-2.9-2.3-4.2-3.7c-0.2-0.2-0.4-0.4-0.7-0.3C86.3,213.6,84.6,213.9,82.8,214.2z M100.9,29.5
		c-0.3,0.1-0.6,0.1-0.8,0.2c-2.4,0.8-4.7,1.8-6.9,3c-3.9,2.2-7.1,5.1-9.9,8.6c-0.2,0.2-0.4,0.4-0.4,0.6c1.7,0.3,3.4,0.5,5.1,0.8
		c0.4,0.1,0.7-0.1,0.9-0.4c3.5-3.7,7.6-6.3,12.5-7.9c0.2-0.1,0.5-0.2,0.7-0.3C101.7,32.6,101.3,31.1,100.9,29.5z M42,82.8
		c-6.1,4.7-10.2,10.7-12.5,18c1.6,0.4,3.2,0.8,4.7,1.3c0.1-0.4,0.2-0.6,0.3-0.9c1.6-4.8,4.2-8.9,7.9-12.3c0.3-0.3,0.4-0.6,0.3-1.1
		c-0.2-1.5-0.4-3-0.6-4.4C42.1,83.2,42,83,42,82.8z M214.1,82.9c0,0.2-0.1,0.3-0.1,0.4c-0.2,1.5-0.4,3.1-0.6,4.6
		c-0.1,0.5,0,0.8,0.4,1.1c3.7,3.5,6.4,7.7,7.9,12.6c0.1,0.2,0.1,0.4,0.2,0.6c1.6-0.4,3.1-0.8,4.7-1.3c-1.3-4.4-3.4-8.4-6.2-11.9
		C218.6,86.7,216.5,84.6,214.1,82.9z M173.2,214.2c-1.8-0.3-3.4-0.5-5-0.8c-0.5-0.1-0.7,0-1,0.3c-3.5,3.8-7.8,6.4-12.7,8
		c-0.2,0.1-0.3,0.1-0.5,0.2c0.4,1.6,0.8,3.1,1.3,4.7C162.6,224.4,168.6,220.3,173.2,214.2z M197.6,59.9c0,0,0.1,0.1,0.1,0.2
		c3.6,3.9,6,8.4,7.1,13.5c0.1,0.4,0.4,0.5,0.7,0.7c1.4,0.5,2.8,1.1,4.2,1.7c0.2,0.1,0.3,0.1,0.6,0.2c-1-7.7-4.1-14.2-9.3-19.7
		C199.8,57.6,198.7,58.7,197.6,59.9z M51.1,182.1c-1.8-0.7-3.5-1.4-5.2-2.1c0.1,2.8,1.5,7.9,3.6,11.9c1.5,2.9,3.4,5.5,5.5,7.7
		c1.2-1.2,2.3-2.3,3.5-3.5c-1.8-1.9-3.3-4.1-4.6-6.5C52.6,187.3,51.7,184.7,51.1,182.1z M180.1,45.9c0,0.1,0,0.2,0,0.2
		c0.8,1.6,1.4,3.1,2,4.8c0,0.2,0.3,0.3,0.4,0.4c0.2,0.1,0.4,0.1,0.6,0.2c4.8,1.2,9.1,3.5,12.8,6.8c0.2,0.1,0.3,0.3,0.4,0.4
		c1.2-1.2,2.3-2.3,3.4-3.4C194.2,49.9,187.6,46.8,180.1,45.9z M221.9,154c-0.1,0.3-0.2,0.5-0.2,0.6c-0.4,1-0.7,2-1.1,2.9
		c-1.6,3.7-3.9,6.9-6.8,9.6c-0.4,0.4-0.5,0.7-0.4,1.2c0.3,1.1,0.4,2.3,0.5,3.5c0.1,0.4,0.1,0.9,0.2,1.5c6.2-4.7,10.3-10.7,12.5-18.1
		C225,154.9,223.5,154.5,221.9,154z M42,173.3c0.1-0.3,0.1-0.4,0.1-0.6c0-1.5,0.3-3,0.6-4.5c0.1-0.4,0-0.7-0.3-1
		c-3.7-3.5-6.4-7.7-8-12.6c-0.1-0.2-0.1-0.4-0.2-0.6c-1.6,0.4-3.1,0.8-4.7,1.3C31.7,162.6,35.8,168.6,42,173.3z M76.1,210.2
		c-0.1-0.3-0.2-0.5-0.3-0.7c-0.5-1.3-1.1-2.5-1.5-3.8c-0.2-0.6-0.5-0.8-1.1-1c-4.2-1-8-2.8-11.4-5.5c-0.7-0.5-1.4-1.1-2-1.7
		c-1.1,1.1-2.3,2.3-3.4,3.4C59.7,205.1,70.1,210,76.1,210.2z M215.2,53.8c9.2,0,16.5,3.6,21.2,11.5c4.7,7.9,4.3,16.1-0.1,24
		c0.4,0.5,0.7,0.9,1.1,1.3c4.8-7.3,5.7-17.9,0.1-26.7c-5.9-9.3-15.9-12.3-22.7-11.6C214.9,52.8,215.1,53.3,215.2,53.8z M215.2,204
		c7.7,0.6,18.6-3.4,23.7-14.3c4.3-9,2.2-19-1.9-24.3c-0.4,0.3-0.8,0.7-1.1,1c4.6,8,5.1,16.1,0.6,24.1c-4.5,8-11.8,11.7-20.9,11.9
		C215.5,202.9,215.4,203.5,215.2,204z M166.5,20.1c7.9-4.6,16-5.1,24-0.6c8,4.5,11.7,11.7,11.9,20.9c0.5,0.1,1.1,0.3,1.6,0.4
		c0.5-7.4-3.1-17.6-12.8-23c-9.2-5.1-19.6-3.4-25.9,1.1C165.7,19.4,166.1,19.7,166.5,20.1z M40.9,202.3c-9.2,0-16.5-3.6-21.2-11.5
		c-4.7-7.9-4.3-16.1,0.2-24.2c-0.2-0.2-0.4-0.3-0.7-0.5c-0.2-0.2-0.4-0.4-0.6-0.6c-0.2,0.2-0.3,0.4-0.4,0.6
		c-3.2,5.4-4.3,11.3-3.1,17.5c1.3,7,5,12.5,11,16.4c4.4,2.9,9.2,4.1,14.4,4c0.2,0,0.5-0.1,0.8-0.1C41.1,203.3,41,202.8,40.9,202.3z
		 M14.6,105.8C7.8,109,0.2,117.9,1.2,130c0.4,5.2,2.3,9.8,5.6,13.8c2.3,2.7,5,4.9,8.2,6.5c0.2-0.6,0.3-1.1,0.4-1.6
		c-8-4.6-12.5-11.3-12.6-20.6c-0.1-9.2,4.3-16,12.1-20.8C14.9,106.9,14.7,106.4,14.6,105.8z M89.7,235.9c-8,4.6-16,5.1-24.1,0.6
		c-8.1-4.5-11.8-11.8-12-21c-0.5-0.1-1.1-0.3-1.6-0.4c-0.6,7.5,3.2,18.2,13.9,23.5c9.1,4.5,19.3,2.5,24.8-1.7
		C90.4,236.7,90,236.3,89.7,235.9z M165.5,237.3c0,0.1,0.1,0.2,0.1,0.3c0.2,0.1,0.4,0.3,0.6,0.4c5.1,2.9,10.5,4.1,16.4,3.2
		c5.5-0.8,10.2-3.2,14.1-7.1c5-5.1,7.4-11.2,7.3-18.3c0-0.3-0.1-0.5-0.1-0.9c-0.6,0.2-1,0.3-1.5,0.4c0,9.2-3.6,16.5-11.5,21.2
		c-7.9,4.7-16.1,4.3-24.1-0.1c-0.2,0.2-0.4,0.4-0.6,0.5C165.9,236.9,165.7,237.1,165.5,237.3z M20.1,89.7c-4.6-7.9-5.1-16-0.6-24.1
		c4.5-8.1,11.8-11.8,21-12c0.1-0.5,0.3-1.1,0.4-1.6c-7-0.6-17.3,2.7-22.9,12.6c-5.1,9-3.7,19.4,1,26c0.1-0.1,0.2-0.1,0.3-0.2
		C19.6,90.2,19.9,90,20.1,89.7z M107.3,15.4c4.6-8,11.3-12.5,20.5-12.6c9.2-0.1,16,4.3,20.8,12.1c0.5-0.1,1-0.3,1.6-0.4
		C147,7.7,138,0.1,125.9,1.2c-10.3,0.9-17.7,8.1-20.1,13.9C106.4,15.2,106.8,15.3,107.3,15.4z M90.5,18.7C84,14.1,73.1,12.8,64,18.4
		c-9.7,6-12.5,16.4-11.7,22.8c0.5-0.1,1-0.3,1.5-0.4c0-9.2,3.6-16.5,11.5-21.2c7.9-4.7,16-4.3,24.1,0.1
		C89.7,19.5,90.1,19.1,90.5,18.7z M241.5,150.3c7.5-3.7,14.1-12.5,13.5-23.6c-0.6-10.4-7.5-18-13.9-20.8c-0.1,0.5-0.3,1-0.4,1.5
		c8,4.6,12.5,11.3,12.6,20.6c0.1,9.2-4.3,16.1-12.2,20.8C241.2,149.2,241.4,149.7,241.5,150.3z M105.8,241.5
		c3.4,7.1,12,14,23.4,13.5c5.3-0.3,10.1-2.1,14.3-5.4c2.9-2.3,5.2-5.1,6.9-8.5c-0.6-0.2-1.1-0.3-1.6-0.4c-4.6,8-11.4,12.5-20.6,12.6
		c-9.2,0.1-16-4.3-20.8-12.2C106.9,241.2,106.4,241.4,105.8,241.5z M185.2,134.6c-1.4,2.6-3.4,4.7-5.7,6.5c0.5,1.3,1,2.6,1.3,3.9
		c0.3,1.3,0.5,2.6,0.8,4C183,146.7,185.3,137.7,185.2,134.6z M26.2,73.6c1.2-0.1,2.2-0.2,3.3-0.2c1.8,0,3.5,0.6,5.2,1.3
		c0.3,0.1,0.6,0.2,0.9,0.4c-2.6-2-5-4.2-5.8-7.5c-0.8,0.3-1.5,0.6-2.2,0.8c-0.7,0.2-1.5,0.3-2.3,0.4C25.9,70.3,26,72,26.2,73.6z
		 M127.7,21.8c0.4-3.4,1-6.6,3.6-9.1c-1.3-1-2.5-1.9-3.3-3.4c-1,1.5-2.4,2.4-3.8,3.4C126.7,15.2,127.3,18.4,127.7,21.8z M67.6,226.4
		c0.3,0.8,0.6,1.5,0.8,2.2c0.2,0.7,0.3,1.5,0.4,2.3c1.5-0.8,3.2-0.8,4.9-1.1c-0.9-3.3,0.1-6.4,1.3-9.4
		C73.1,223.1,71,225.5,67.6,226.4z M181.6,107c-0.2,2.8-1,5.4-2.1,7.9c2.4,1.8,4.3,4,5.8,6.6C184.7,116.5,183.6,111.7,181.6,107z
		 M21.6,128.4c-3.3-0.4-6.5-1-8.9-3.6c-1,1.3-2,2.5-3.3,3.2c0.6,0.6,1.3,1.2,1.8,1.8c0.5,0.6,1,1.3,1.5,2
		C15.2,129.4,18.3,128.8,21.6,128.4z M243.4,124.2c-2.5,2.6-5.7,3.1-9.1,3.5c3.3,0.4,6.6,1,9.1,3.6c1-1.3,2-2.5,3.4-3.3
		C245.3,127,244.4,125.6,243.4,124.2z M220.4,181c2.6,2,5.1,4.1,5.9,7.5c0.8-0.3,1.5-0.6,2.2-0.8c0.7-0.2,1.5-0.3,2.4-0.4
		c-0.8-1.5-0.9-3.2-1.1-4.9C226.5,183.3,223.5,182.3,220.4,181z M128.4,234.5c-0.4,3.3-1,6.5-3.5,8.9c0.6,0.5,1.2,1,1.8,1.5
		c0.5,0.6,1,1.2,1.5,1.7c0.6-0.6,1.1-1.2,1.8-1.8c0.6-0.5,1.3-1,2-1.5C129.4,240.9,128.8,237.8,128.4,234.5z M230.9,68.6
		c-1.9-0.1-3.3-0.9-4.9-1.5c-0.9,3.4-3.2,5.4-5.9,7.4c1.6-0.5,3.1-1,4.7-1.4c1.6-0.4,3.2-0.3,4.8,0.1C229.8,71.5,230,70,230.9,68.6z
		 M67,30c0.9,0.4,1.8,0.8,2.6,1.2c1.7,1,3.1,2.5,4.2,4.1c0.2,0.2,0.3,0.4,0.5,0.6c-0.5-1.6-1.1-3-1.4-4.6c-0.3-1.6-0.3-3.2,0.2-4.8
		c-1.6-0.2-3.1-0.5-4.5-1.3C68.4,27,67.7,28.5,67,30z M25.2,187.5c1.8,0.1,3.3,0.9,4.9,1.6c0.9-3.3,3.2-5.4,5.9-7.4
		c-1.7,0.5-3.1,1-4.6,1.4c-1.6,0.4-3.2,0.3-4.8-0.1C26.3,184.6,26.1,186.1,25.2,187.5z M182.9,229.6c1.6,0.2,3.1,0.5,4.5,1.3
		c0.1-1.8,0.9-3.3,1.6-4.9c-3.4-0.9-5.5-3.3-7.5-5.9C182.9,223.2,183.9,226.2,182.9,229.6z M142.5,179.2c-0.6,0.8-1.2,1.5-1.8,2.2
		c-0.6,0.7-1.2,1.3-1.9,1.9c-0.7,0.6-1.4,1.1-2.2,1.7c3.1-0.1,13-3,14.3-4.2C148,180.9,145.2,180.3,142.5,179.2z M105.5,181
		c4.5,2,9.2,3.4,14.1,4c-2.2-1.6-4.1-3.6-5.7-5.8C111.1,180.3,108.4,180.9,105.5,181z M181,35.5c1.2-1.3,2.2-2.5,3.4-3.6
		c1.2-1.1,2.6-1.8,4.2-2.2c-0.3-0.8-0.6-1.5-0.8-2.2c-0.2-0.7-0.3-1.5-0.4-2.3c-1.5,0.8-3.2,0.8-4.9,1.1
		C183.3,29.6,182.3,32.5,181,35.5z M119.5,71.3c-3.9,0.3-13,3-14.2,4.2c3-0.1,5.7,0.5,8.5,1.6C115.4,74.8,117.2,72.8,119.5,71.3z
		 M142.4,77c0.9-0.3,1.8-0.7,2.7-0.9c0.9-0.2,1.9-0.4,2.8-0.6c0.9-0.1,1.9-0.1,2.8-0.2c-4.5-2.1-9.3-3.5-14.3-4.2
		c1.1,0.9,2.2,1.8,3.1,2.7C140.6,74.8,141.5,75.9,142.4,77z M74.5,107.2c-1.5,2.8-3.7,12-3.5,14.4c1.4-2.7,3.4-4.8,5.6-6.5
		c-0.5-1.3-1-2.6-1.3-3.9C75,109.9,74.8,108.6,74.5,107.2z M71,134.9c0.5,4.9,1.7,9.6,3.6,14.2c0.3-2.7,1-5.3,2.1-7.8
		C74.4,139.5,72.5,137.4,71,134.9z M165.2,166c-0.4,2.9-1.2,5.6-2.8,8.2c2.2-1.1,10-8.7,10.6-10.3C170.6,165.1,168,165.7,165.2,166z
		 M93.8,174.3c-1.5-2.5-2.3-5.3-2.7-8.1c-1.4-0.3-2.7-0.4-4-0.8c-1.3-0.3-2.5-0.8-3.8-1.2C86.3,168,89.8,171.4,93.8,174.3z
		 M83.2,92.2c2.5-1.1,5-1.7,7.7-2c0.2-1,0.4-1.9,0.6-2.9c0.3-0.9,0.6-1.8,0.9-2.7c0.4-0.9,0.8-1.7,1.2-2.5
		C89.7,85,86.2,88.3,83.2,92.2z M165.2,90.2c2.7,0.3,5.3,0.9,7.8,2c-3-3.9-6.5-7.2-10.5-10.1C163.9,84.6,164.8,87.3,165.2,90.2z
		 M178.5,37.3c0.5-1.9,0.6-3.8,0.3-5.7c-0.3-1.7-0.8-3.3-1.5-4.8c-0.2-0.4-0.4-0.6-0.9-0.6c-0.8,0-1.6,0-2.4,0c-0.5,0-1,0-1.7,0.1
		C175.2,29.7,177.6,33.1,178.5,37.3z M26.3,83.6c0.1,0,0.1,0.1,0.2,0.1c3.2-2.7,6.7-5.2,10.9-6.1c-0.3-0.1-0.5-0.2-0.7-0.2
		c-1.8-0.3-3.6-0.3-5.4,0c-1.6,0.3-3.1,0.8-4.5,1.5c-0.4,0.2-0.6,0.5-0.6,0.9c0,0.6,0,1.3,0,1.9C26.2,82.3,26.3,82.9,26.3,83.6z
		 M74.8,39.1c-0.1-0.2-0.1-0.3-0.2-0.3c-2.8-2.4-6.1-3.7-9.7-4c-0.4,0-0.6,0.1-0.8,0.5c-0.6,1-1.2,2-1.7,3.1
		c-0.1,0.1-0.1,0.3-0.2,0.5C66.4,38.1,70.6,37.7,74.8,39.1z M39,181.4c-2.7,2.9-4.1,6.4-4.2,10.3c1.1,0.8,3.4,2.1,4,2.2
		C38.1,189.7,37.7,185.5,39,181.4z M181.4,217.1c0,0,0,0.1-0.1,0.1c0.2,0.2,0.4,0.4,0.7,0.6c2.7,2.1,5.6,3.3,9,3.5
		c0.5,0,0.8-0.1,1-0.6c0.5-1,1.1-1.9,1.7-2.9c0.1-0.1,0.1-0.3,0.2-0.4c-2.1,0.2-4.2,0.5-6.2,0.6
		C185.5,218.1,183.5,217.7,181.4,217.1z M217.1,74.7c0.8-0.7,1.4-1.5,1.9-2.4c1.4-2.3,2.2-4.7,2.3-7.4c0-0.4-0.1-0.7-0.5-0.9
		c-1-0.5-2-1.1-3-1.7c-0.1-0.1-0.3-0.1-0.4-0.2c0.2,2.1,0.5,4.2,0.6,6.3C218,70.6,217.7,72.7,217.1,74.7z M218.8,178.5
		c2,0.6,4,0.6,6.1,0.2c1.6-0.3,3.1-0.8,4.5-1.5c0.4-0.2,0.5-0.4,0.5-0.8c0-1.2,0-2.3,0-3.5c0-0.2-0.1-0.3-0.1-0.6
		C226.4,175.2,223,177.6,218.8,178.5z M17.8,140.5c1.5-4.1,3.2-7.9,6.5-10.8c-0.1,0-0.2-0.1-0.2,0c-3.6,1.2-6.4,3.4-8.5,6.5
		c-0.2,0.3-0.2,0.5,0,0.8c0.6,1,1.2,2.1,1.9,3.2C17.6,140.3,17.7,140.3,17.8,140.5z M240.6,119.5c-0.6-1.3-1.9-3.5-2.4-3.8
		c-1.4,4-3.2,7.8-6.5,10.7C234.4,126.2,239.2,122.4,240.6,119.5z M140.4,238.4c0-0.1,0-0.1,0-0.2c-4-1.4-7.8-3.2-10.7-6.4
		c1.2,3.8,3.5,6.7,6.9,8.9C137.9,239.9,139.2,239.2,140.4,238.4z M115.5,17.8c4.1,1.5,8,3.2,10.9,6.5c0-0.2,0-0.4-0.1-0.6
		c-0.5-1.3-1.1-2.5-1.8-3.6c-1.1-1.6-2.5-3-4.2-4.2c-0.5-0.3-0.9-0.5-1.4-0.1c-0.4,0.3-0.8,0.5-1.2,0.7
		C117,16.9,116.3,17.3,115.5,17.8z M83.8,229.8c-2.8-3.4-5.3-6.8-6.1-11.1c-1.1,2.5-0.5,8.3,1.5,11.1
		C80.6,229.8,82.1,229.8,83.8,229.8z M37.2,179.3c0,0,0-0.1,0-0.1c-0.1,0-0.2-0.1-0.3-0.1c-1.2-0.5-2.5-0.9-3.7-1.4
		c-2.1-1-4-2.4-5.8-3.9c-0.2-0.2-0.4-0.3-0.8-0.6c0,0.4,0,0.7,0,0.9c0,0.9,0.1,1.9,0.1,2.8c0,0.5,0.1,0.7,0.6,0.9
		c2.6,1.3,5.4,1.8,8.4,1.6C36.1,179.5,36.6,179.4,37.2,179.3z M181.2,38.1c0,0.1,0.1,0.2,0.1,0.2c4-1.1,7.9-0.8,12-0.1
		c-0.2-0.3-0.3-0.5-0.4-0.7c-0.5-0.8-1-1.6-1.5-2.5c-0.3-0.5-0.6-0.6-1.1-0.6c-3.3,0.3-6.2,1.4-8.8,3.4
		C181.5,37.9,181.3,38,181.2,38.1z M217.8,181.2c0.5,2,0.8,4,0.7,6c-0.1,2-0.3,4-0.5,6.1c1.2-0.7,2.3-1.4,3.4-2
		c0.3-0.2,0.3-0.5,0.2-0.7c-0.2-2.5-0.9-4.9-2.2-7.1C219,182.6,218.5,181.8,217.8,181.2z M173.4,229.5c0.2,0,0.5,0,0.7,0
		c1,0,2,0,3,0c0.5,0,0.7-0.2,0.9-0.6c1.5-3,2-6.2,1.5-9.5c0-0.1,0-0.2-0.1-0.3c0-0.1-0.1-0.1-0.2-0.3c-0.5,2.1-1.3,3.9-2.3,5.6
		C175.7,226.2,174.5,227.8,173.4,229.5z M74.9,217.8c-4,1.1-8,0.7-12.2,0c0.8,1.4,1.5,2.6,2.3,3.8C68.8,221.5,72.1,220.3,74.9,217.8
		z M38.2,62.8c-0.3,0.1-0.4,0.2-0.6,0.3c-0.9,0.5-1.7,1-2.6,1.5c-0.6,0.3-0.7,0.6-0.6,1.2c0.3,3.3,1.5,6.3,3.6,8.9
		c0.1,0.1,0.2,0.1,0.2,0.2C37.2,70.9,37.5,66.9,38.2,62.8z M232.3,129.2c3,2.9,4.6,6.5,6.1,10.4c0.2-0.3,0.3-0.5,0.4-0.7
		c0.5-0.9,1-1.7,1.5-2.6c0.2-0.4,0.2-0.7,0-1c-1.2-1.7-2.6-3.1-4.3-4.3C234.9,130.2,233.7,129.6,232.3,129.2z M219,76.9
		c0.2,0.1,0.3,0.1,0.5,0.2c1,0.4,2.1,0.7,3.1,1.1c2.3,1,4.3,2.5,6.2,4.1c0.2,0.2,0.4,0.3,0.7,0.6c0-0.3,0-0.5,0-0.7c0-1,0-2,0-3
		c0-0.5-0.2-0.7-0.6-0.9C225.8,76.7,222.4,76.3,219,76.9z M17.6,116.4c-0.7,1.2-1.2,2.2-1.8,3.1c-0.4,0.6-0.3,0.9,0.1,1.4
		c1.8,2.6,4.1,4.4,7,5.7c0.3,0.1,0.5,0.2,0.8,0.3C20.8,124,19.1,120.4,17.6,116.4z M139.7,17.6c-1.2-0.7-2.2-1.2-3.3-1.8
		c-0.4-0.3-0.7-0.3-1.2,0c-2.4,1.7-4.3,3.8-5.5,6.4c-0.2,0.5-0.4,1-0.6,1.4c0,0,0.1,0.1,0.1,0.1C132.1,20.8,135.7,19.1,139.7,17.6z
		 M120.2,240.6c2.8-1.4,6.3-5.7,6.7-8.3c-0.1,0.1-0.2,0.2-0.3,0.3c-0.7,0.6-1.5,1.3-2.2,1.9c-2.1,1.6-4.4,2.6-6.8,3.6
		c-0.3,0.1-0.6,0.3-1.1,0.5C117.8,239.3,119,239.9,120.2,240.6z M78.5,26.7c-1.8,3.3-2.3,6.8-1.6,10.5c0.1-0.1,0.2-0.3,0.2-0.5
		c0.4-1,0.7-2.1,1.2-3.1c1-2.3,2.5-4.3,4-6.2c0.2-0.2,0.3-0.4,0.5-0.7c-0.2,0-0.3-0.1-0.4-0.1C81.1,26.6,79.8,26.6,78.5,26.7z
		 M177.9,26.3c0.8,1.6,1.3,3.2,1.6,4.8c0.3,1.7,0.2,3.3,0.2,5c0.4-0.8,0.8-1.6,1.2-2.4c0.5-1.3,0.9-2.7,1-4.1c0.1-1.1,0-2.3-0.4-3.3
		C180.3,26.3,179.2,26.3,177.9,26.3z M26.3,74.6c0,1.2,0,2.3,0,3.5c1.1-0.4,2.1-0.8,3.2-1.1c1.1-0.3,2.2-0.5,3.4-0.6
		c1.1-0.1,2.2,0,3.2,0c-2-1.1-4-2-6.3-2.2C28.6,74.1,27.4,74.1,26.3,74.6z M222.1,64.8c-0.2,3.5-1.4,6.6-3.3,9.4
		c1.5-0.9,2.9-1.9,4.1-3.2c0.9-1,1.7-2.1,2.1-3.4c0.1-0.3,0.2-0.7,0.3-1.1C224.2,66,223.2,65.5,222.1,64.8z M36.5,180.4
		c0,0,0-0.1,0-0.1c-1.6,0.1-3.3,0.1-4.9-0.1c-1.7-0.3-3.2-0.8-4.8-1.6c0,1.3-0.1,2.4-0.1,3.5c1.1,0.4,2.2,0.5,3.3,0.4
		c1.9-0.1,3.6-0.8,5.3-1.5C35.6,180.8,36,180.6,36.5,180.4z M229.5,77.6c0-1.3,0-2.4,0-3.6c-1.7-0.6-3.4-0.6-5.1-0.1
		c-1.7,0.4-3.2,1-4.7,2C223.1,75.5,226.3,76.1,229.5,77.6z M190.6,33.7c-0.6-1.1-1.1-2.1-1.7-3.2c-1.8,0.3-3.2,1.3-4.5,2.4
		c-1.2,1.1-2.9,3.4-3.1,4.1c1.4-1,2.8-1.8,4.4-2.4C187.2,34.1,188.8,33.8,190.6,33.7z M120.3,15c2.9,1.9,5,4.5,6.5,7.6
		c0.1-0.2,0.1-0.3,0.1-0.5c-0.2-1.4-0.3-2.8-0.6-4.1c-0.4-1.6-1.1-3.1-2.2-4.3c-0.2-0.2-0.4-0.4-0.6-0.5
		C122.4,13.8,121.4,14.4,120.3,15z M229.8,177.9c-0.3,0.1-0.6,0.2-0.8,0.3c-0.6,0.2-1.1,0.5-1.7,0.7c-2.1,0.7-4.3,0.9-6.5,0.8
		c-0.3,0-0.5-0.1-0.9,0.1c1.9,1,3.8,1.8,5.9,2.1c1.2,0.2,2.3,0.1,3.5-0.2c0.2,0,0.4-0.2,0.5-0.2c0-0.6,0-1.2,0-1.8
		C229.8,179.2,229.8,178.6,229.8,177.9z M182.1,229.5c0.5-1.4,0.5-2.8,0.3-4.3c-0.3-1.9-1.1-3.6-1.9-5.4c0-0.1-0.1-0.2-0.1-0.3
		c0,1.8,0,3.5-0.3,5.1c-0.3,1.6-0.8,3.2-1.5,4.8C179.8,229.5,180.9,229.5,182.1,229.5z M14.9,135.7c0.8-0.9,1.4-1.8,2.2-2.6
		c0.8-0.8,1.7-1.5,2.6-2.2c0.9-0.6,1.9-1.1,3-1.7c-1.7,0.1-3.3,0.3-4.8,0.6c-1.6,0.4-3.1,1.1-4.3,2.3c-0.2,0.2-0.4,0.4-0.5,0.6
		C13.8,133.7,14.4,134.7,14.9,135.7z M75.8,36.4c-0.1-1.7-0.1-3.3,0.2-5c0.3-1.6,0.8-3.2,1.5-4.8c-1.3,0-2.4,0-3.5,0
		C72.9,29.1,73.8,32.9,75.8,36.4z M67.2,225.5c2.5-0.2,6.8-3.8,7.7-6.5c-2.8,2.1-5.9,3.2-9.3,3.5C66.1,223.6,66.6,224.6,67.2,225.5z
		 M135.7,241.1c-0.7-0.6-1.4-1.1-2-1.6c-0.6-0.6-1.2-1.2-1.7-1.8c-0.5-0.7-1-1.4-1.5-2.1c-0.4-0.7-0.8-1.4-1.2-2.1
		c-0.1,0.5-0.1,0.9,0,1.3c0.2,1.8,0.5,3.6,1.3,5.3c0.5,1.1,1.2,2.1,2.1,2.8C133.7,242.3,134.7,241.8,135.7,241.1z M128.5,22.5
		c0.1,0,0.1,0,0.2,0c1.4-3.1,3.4-5.6,6.3-7.6c-1.1-0.6-2.1-1.2-3-1.8c-1,0.8-1.6,1.7-2.1,2.8c-0.7,1.5-1,3.1-1.2,4.7
		C128.6,21.3,128.6,21.9,128.5,22.5z M233.5,128.5c0,0.1,0,0.1-0.1,0.2c1.5,0.7,3,1.5,4.3,2.6c1.3,1.1,2.4,2.3,3.4,3.7
		c0.7-1.1,1.2-2,1.8-3c-0.8-1-1.9-1.7-3.1-2.2c-1.4-0.6-2.9-0.9-4.5-1.1C234.7,128.6,234.1,128.6,233.5,128.5z M66.6,30.9
		c-0.6,1-1.1,2-1.8,3.1c3.5,0.2,6.6,1.4,9.4,3.4c-1.4-2.3-3-4.4-5.5-5.8C68.1,31.2,67.4,30.9,66.6,30.9z M124.1,243
		c0.2-0.2,0.5-0.4,0.7-0.6c0.9-1,1.5-2.2,1.9-3.4c0.5-1.4,0.7-2.9,0.8-4.4c0-0.3,0-0.7,0-1c-1.5,3.1-3.6,5.6-6.4,7.6
		C122.1,241.7,123.1,242.3,124.1,243z M243,123.5c-0.6-1-1.2-2-1.9-3.1c-2,2.9-4.5,5-7.6,6.5C237,126.7,240.3,126.2,243,123.5z
		 M13.1,124.1c0.6,0.8,1.3,1.3,2,1.7c1.4,0.9,3,1.3,4.7,1.5c0.9,0.1,1.8,0.2,2.8,0.3c0-0.1,0-0.1,0.1-0.2c-3.2-1.4-5.7-3.5-7.7-6.4
		C14.4,122.1,13.8,123.1,13.1,124.1z M34,191.3c0.2-3.5,1.4-6.6,3.4-9.4c-0.2,0-0.2,0-0.3,0c-1.8,1.2-3.5,2.5-4.8,4.3
		c-0.7,1-1.3,2.1-1.5,3.3C31.9,190.1,32.8,190.6,34,191.3z M189.5,225.3c0.6-1.1,1.2-2.1,1.8-3.2c-3.5-0.2-6.6-1.4-9.4-3.3
		C183.7,221.7,185.8,224.4,189.5,225.3z M78.2,229.8c-0.8-1.6-1.3-3.2-1.6-4.9c-0.3-1.6-0.3-3.3-0.2-4.9c-0.9,1.5-1.5,3-1.9,4.7
		c-0.4,1.5-0.4,2.9-0.1,4.4c0.2,0.8,0.3,0.8,1,0.8c0.5,0,1.1-0.1,1.6-0.1C77.3,229.8,77.7,229.8,78.2,229.8z M37,74.8
		c-2-2.8-3.1-5.9-3.3-9.3c-1.1,0.6-2.1,1.1-3.2,1.7C31.3,70.9,34,72.9,37,74.8z M225.5,188.9c-0.2-2.6-3.9-6.9-6.5-7.6
		c2,2.8,3.2,5.8,3.4,9.3C223.5,190,224.5,189.5,225.5,188.9z M130.6,68.3c1,0.1,1.9,0.1,2.9,0.2c0.2-1.8,0.3-3.6,0.5-5.5
		c-1.1-0.1-2.1-0.2-3.2-0.2C130.8,64.6,130.7,66.4,130.6,68.3z M124.5,62.8c-1-0.1-2.6,0-3.2,0.3c0.2,1.8,0.4,3.5,0.6,5.4
		c1-0.1,1.9-0.2,2.9-0.2C124.7,66.4,124.6,64.6,124.5,62.8z M68.7,120.2c-1.9-0.2-3.7-0.6-5.5-0.7c-0.1,1.1-0.2,2-0.3,3.1
		c1.9,0.2,3.7,0.3,5.6,0.5C68.5,122.1,68.6,121.2,68.7,120.2z M116.2,69.4c-0.4-1.8-0.7-3.6-1.1-5.5c-1.1,0.2-2,0.5-3.1,0.7
		c0.5,1.8,0.9,3.6,1.4,5.4C114.3,69.8,115.2,69.6,116.2,69.4z M126.1,62.7c0.1,1.8,0.1,3.6,0.2,5.5c1,0,1.9,0,2.9,0
		c0-1.9,0.1-3.6,0.1-5.4C128.2,62.5,127.2,62.7,126.1,62.7z M63.3,136.8c1.8-0.2,3.6-0.5,5.5-0.7c-0.1-1-0.2-1.9-0.3-2.9
		c-1.9,0.2-3.7,0.3-5.6,0.5c0.1,1,0.2,1.8,0.3,2.7C63.2,136.6,63.2,136.7,63.3,136.8z M70.5,111.6c-1.8-0.5-3.6-1-5.4-1.5
		c-0.3,1.1-0.5,2-0.8,3.1c1.9,0.4,3.6,0.9,5.5,1.2C70.1,113.5,70.3,112.6,70.5,111.6z M63.4,117.9c1.9,0.3,3.7,0.6,5.5,0.9
		c0.2-1,0.3-1.9,0.5-2.9c-1.9-0.4-3.6-0.8-5.5-1.1C63.8,115.8,63.6,116.8,63.4,117.9z M120.5,68.7c-0.3-1.9-0.4-3.7-0.8-5.6
		c-1.1,0.2-2.1,0.3-3.1,0.5c0.3,1.9,0.7,3.7,1,5.5C118.6,69,119.5,68.9,120.5,68.7z M62.8,132.1c1.9-0.1,3.7-0.2,5.5-0.3
		c0-1,0-1.9,0-2.9c-1.9,0-3.7,0.1-5.5,0.1C62.8,130,62.8,131,62.8,132.1z M66.6,105.6c-0.4,1.1-0.7,2-1,3c1.8,0.6,3.6,1.1,5.4,1.7
		c0.3-1,0.6-1.8,0.9-2.7C70.1,106.8,68.4,106.2,66.6,105.6z M140.3,63.8c-0.3,1.9-0.7,3.7-1,5.5c1,0.2,1.9,0.4,2.8,0.6
		c0.4-1.8,0.9-3.6,1.3-5.4C142.4,64.2,141.4,64,140.3,63.8z M73.8,91.5c1.6,1.1,3.1,2.1,4.7,3.1c0.6-0.8,1.1-1.6,1.7-2.4
		c-1.5-1.1-3-2.2-4.5-3.4C75,89.8,74.4,90.6,73.8,91.5z M99.8,75.3c-0.9-1.7-1.8-3.3-2.7-4.9c-1,0.5-1.8,1-2.7,1.6
		c1,1.6,1.9,3.2,2.9,4.8C98.2,76.3,99,75.8,99.8,75.3z M107.8,71.8c-0.7-1.8-1.3-3.5-1.9-5.2c-1.1,0.4-2,0.7-2.9,1.2
		c0.7,1.7,1.4,3.4,2.1,5.1C106,72.5,106.9,72.1,107.8,71.8z M107.4,66c0.6,1.9,1.2,3.6,1.8,5.3c1-0.3,1.8-0.6,2.8-0.9
		c-0.5-1.8-1-3.5-1.5-5.4C109.4,65.4,108.4,65.7,107.4,66z M135,68.6c1,0.1,1.9,0.3,2.9,0.4c0.3-1.9,0.6-3.6,0.9-5.5
		c-1.1-0.2-2.1-0.4-3.2-0.4C135.4,65,135.2,66.8,135,68.6z M86.6,77.4c1.2,1.5,2.4,2.9,3.6,4.3c0.8-0.6,1.5-1.2,2.3-1.8
		c-1.1-1.5-2.2-3-3.4-4.5C88.2,76.2,87.5,76.8,86.6,77.4z M81,91.1c0.7-0.8,1.2-1.5,1.8-2.2c-1.4-1.2-2.8-2.4-4.2-3.7
		c-0.7,0.8-1.3,1.6-2,2.4C78.1,88.8,79.6,89.9,81,91.1z M69.5,140.4c-0.2-1-0.3-1.9-0.5-2.9c-1.9,0.3-3.6,0.6-5.5,0.9
		c0.2,1.1,0.4,2.1,0.6,3.1C65.9,141.2,67.6,140.8,69.5,140.4z M69.1,99.7c1.7,0.8,3.4,1.6,5,2.4c0.5-0.9,0.9-1.7,1.3-2.6
		c-1.7-0.9-3.3-1.8-4.9-2.7C70,97.9,69.6,98.8,69.1,99.7z M70.5,144.6c-0.3-1-0.5-1.9-0.7-2.8c-1.8,0.4-3.6,0.8-5.4,1.3
		c0.3,1.1,0.5,2,0.8,3.1C67,145.6,68.7,145.2,70.5,144.6z M96.1,77.5c-1-1.6-2-3.1-3-4.7c-0.9,0.6-1.7,1.2-2.6,1.8
		c1.1,1.6,2.2,3.1,3.2,4.6C94.5,78.6,95.3,78.1,96.1,77.5z M77.7,95.8c-1.6-1-3.1-2-4.7-3c-0.6,0.9-1.1,1.8-1.6,2.7
		c1.7,1,3.2,1.9,4.9,2.8C76.7,97.5,77.2,96.7,77.7,95.8z M72.4,106.1c0.4-0.9,0.7-1.8,1.1-2.7c-1.7-0.8-3.4-1.5-5.1-2.3
		c-0.4,1-0.8,1.9-1.2,2.9C69,104.8,70.7,105.5,72.4,106.1z M68.3,124.5c-1.8-0.1-3.6-0.3-5.5-0.3c0,1.1,0,2.1,0,3
		c0.9,0.2,5,0.2,5.5,0C68.3,126.4,68.3,125.5,68.3,124.5z M103.7,73.4c-0.8-1.7-1.5-3.4-2.3-5.1c-1,0.5-1.9,0.9-2.9,1.4
		c0.9,1.7,1.7,3.3,2.5,5C102,74.2,102.8,73.8,103.7,73.4z M129.3,188c-1,0-1.9,0-2.9,0c-0.1,1.8-0.2,3.6-0.1,5.4c1.1,0,2,0,3,0
		C129.3,191.6,129.3,189.9,129.3,188z M86.9,84.7c0.4-0.4,0.7-0.7,1.1-1c0.3-0.3,0.7-0.6,1.1-1c-1.2-1.4-2.4-2.8-3.6-4.2
		c-0.8,0.7-1.6,1.4-2.3,2.2C84.4,82,85.6,83.3,86.9,84.7z M146.3,71c0.6-1.8,1.1-3.5,1.7-5.3c-1.1-0.3-2-0.6-3-0.9
		c-0.5,1.8-1,3.6-1.4,5.4C144.5,70.5,145.4,70.8,146.3,71z M66.7,150.7c1.8-0.7,3.5-1.3,5.2-1.9c-0.3-1-0.6-1.8-1-2.7
		c-1.8,0.6-3.5,1.1-5.3,1.7C66,148.8,66.3,149.7,66.7,150.7z M147.7,71.5c0.9,0.3,1.8,0.7,2.7,1c0.7-1.7,1.4-3.4,2.1-5.1
		c-1-0.4-2-0.8-3-1.1C148.9,68.1,148.3,69.8,147.7,71.5z M80.2,164.1c-0.6-0.8-1.1-1.6-1.7-2.4c-1.5,1-3,2.1-4.6,3.1
		c0.6,0.9,1.2,1.7,1.8,2.6C77.3,166.3,78.7,165.2,80.2,164.1z M68.5,155.1c1.7-0.8,3.4-1.5,5-2.3c-0.4-0.9-0.8-1.8-1.1-2.7
		c-1.8,0.7-3.4,1.4-5.2,2.1C67.7,153.2,68.1,154.1,68.5,155.1z M77.7,160.5c-0.5-0.9-1-1.6-1.5-2.5c-1.6,0.9-3.2,1.8-4.8,2.8
		c0.6,0.9,1.1,1.8,1.7,2.7C74.7,162.4,76.2,161.5,77.7,160.5z M158.2,76.4c0.9-1.6,1.8-3.2,2.8-4.8c-1-0.6-1.8-1.1-2.8-1.5
		c-0.9,1.7-1.7,3.3-2.5,4.9C156.6,75.4,157.4,75.9,158.2,76.4z M74.2,154.2c-1.7,0.8-3.3,1.6-5,2.4c0.5,1,0.9,1.9,1.5,2.8
		c1.6-0.9,3.2-1.8,4.8-2.6C75,155.9,74.6,155.1,74.2,154.2z M166.3,75c-1.1,1.5-2.1,3-3.2,4.5c0.8,0.6,1.5,1.2,2.3,1.7
		c1.2-1.5,2.3-2.9,3.4-4.3C168,76.3,167.2,75.7,166.3,75z M162.4,72.4c-1,1.6-1.9,3.1-2.9,4.7c0.8,0.5,1.6,1,2.4,1.6
		c1.1-1.5,2.1-3,3.1-4.6C164.1,73.5,163.3,73,162.4,72.4z M185.2,96.2c-1.6,0.9-3.2,1.8-4.8,2.7c0.5,0.9,0.9,1.7,1.4,2.6
		c1.7-0.8,3.3-1.6,4.9-2.5C186.1,98,185.7,97.1,185.2,96.2z M154.4,74.3c0.8-1.7,1.6-3.3,2.4-5c-1-0.4-1.9-0.9-2.9-1.3
		c-0.7,1.7-1.5,3.4-2.2,5.1C152.7,73.5,153.5,73.9,154.4,74.3z M193.5,126.5c-0.1-1.1-0.1-2.1-0.2-3.2c-1.9,0.2-3.6,0.2-5.4,0.4
		c0,1,0.1,1.9,0.1,2.9C189.8,126.6,191.6,126.6,193.5,126.5z M134.1,193.1c-0.2-1.8-0.3-3.5-0.5-5.4c-1,0.1-1.9,0.1-2.9,0.2
		c0.1,1.8,0.2,3.6,0.2,5.5C132,193.3,133,193.4,134.1,193.1z M179.7,97.6c1.6-0.9,3.1-1.9,4.7-2.8c-0.6-0.9-1.1-1.8-1.7-2.7
		c-1.6,1-3.1,2-4.6,3C178.6,96,179.1,96.8,179.7,97.6z M175.6,91.6c0.6,0.8,1.1,1.5,1.7,2.3c1.5-1.1,3-2.1,4.5-3.1
		c-0.6-0.9-1.2-1.7-1.9-2.5C178.4,89.4,177,90.5,175.6,91.6z M187.7,133.9c-0.1,1-0.2,1.9-0.3,2.9c1.8,0.3,3.6,0.5,5.4,0.8
		c0.1-1.1,0.3-2.1,0.4-3.1C191.3,134.2,189.6,134,187.7,133.9z M187.7,122.3c1.8-0.2,3.6-0.3,5.4-0.5c-0.1-1.1-0.3-2.1-0.4-3.1
		c-1.8,0.3-3.6,0.5-5.4,0.8C187.5,120.4,187.6,121.3,187.7,122.3z M137.9,187.2c-1,0.1-1.9,0.3-2.9,0.4c0.2,1.8,0.4,3.6,0.7,5.4
		c1.1-0.2,2.1-0.2,3.1-0.5C138.5,190.7,138.2,189,137.9,187.2z M78.8,171.1c1.4-1.2,2.8-2.4,4.2-3.6c-0.6-0.8-1.2-1.5-1.9-2.2
		c-1.5,1.2-2.9,2.3-4.3,3.4C77.5,169.5,78.1,170.3,78.8,171.1z M170.1,78c-1.2,1.5-2.4,2.8-3.5,4.2c0.8,0.7,1.4,1.3,2.2,1.9
		c1.3-1.4,2.5-2.7,3.7-4C171.6,79.4,170.9,78.7,170.1,78z M187.1,118c1.9-0.3,3.6-0.6,5.4-0.9c-0.2-1.1-0.3-2.1-0.6-3.1
		c-1.8,0.4-3.5,0.8-5.3,1.2C186.8,116.1,187,117,187.1,118z M112.1,191.5c1.1,0.2,2.1,0.5,3.1,0.7c0.4-1.8,0.7-3.6,1.1-5.4
		c-1-0.2-1.9-0.4-2.8-0.6C112.9,188,112.5,189.7,112.1,191.5z M193.3,132.8c0-1.1,0.2-2.1,0.1-3.2c-1.8,0-3.6,0-5.4,0
		c0,1,0,1.9,0,2.8C189.7,132.5,191.4,132.7,193.3,132.8z M185.1,109.5c1.8-0.6,3.4-1.1,5.2-1.7c-0.4-1-0.7-2-1.1-3
		c-1.8,0.7-3.5,1.3-5.1,2C184.4,107.8,184.7,108.6,185.1,109.5z M186.3,113.7c1.7-0.4,3.4-0.9,5.2-1.3c-0.3-1.1-0.5-2-0.9-3
		c-1.8,0.5-3.4,1-5.2,1.6c0.2,0.9,0.4,1.6,0.6,2.4C186.2,113.5,186.2,113.6,186.3,113.7z M124.5,193.4c0.2-1.1,0.4-4.9,0.2-5.4
		c-0.9-0.1-1.8-0.1-2.7-0.2c-0.2,1.8-0.4,3.6-0.6,5.4C122.5,193.2,123.5,193.3,124.5,193.4z M176.9,84.6c-1.4,1.3-2.7,2.4-4.1,3.7
		c0.7,0.8,1.3,1.5,1.9,2.2c1.4-1.2,2.8-2.3,4.3-3.5C178.2,86.2,177.6,85.4,176.9,84.6z M120.5,187.5c-1-0.1-1.9-0.3-2.9-0.4
		c-0.3,1.8-0.6,3.6-0.9,5.4c1.1,0.2,2.1,0.3,3.1,0.5C120.1,191.1,120.3,189.4,120.5,187.5z M89.3,180.7c1.1-1.5,2.2-3,3.3-4.4
		c-0.8-0.6-1.5-1.2-2.3-1.8c-1.2,1.4-2.3,2.8-3.5,4.3C87.7,179.5,88.4,180.1,89.3,180.7z M187.1,138.2c-0.2,1-0.4,1.9-0.5,2.9
		c1.8,0.4,3.5,0.8,5.3,1.2c0.2-1.1,0.4-2.1,0.6-3.1C190.7,138.8,189,138.5,187.1,138.2z M85.6,177.8c1.2-1.4,2.4-2.8,3.6-4.2
		c-0.8-0.7-1.5-1.3-2.2-1.9c-1.3,1.4-2.5,2.7-3.8,4C84,176.4,84.7,177,85.6,177.8z M107.8,184.5c-0.9-0.4-1.8-0.7-2.7-1
		c-0.7,1.7-1.4,3.3-2.1,5.1c1,0.4,1.9,0.8,2.9,1.1C106.6,187.9,107.2,186.2,107.8,184.5z M90.6,181.6c0.9,0.6,1.7,1.2,2.6,1.7
		c1-1.6,2-3.1,2.9-4.6c-0.8-0.6-1.6-1.1-2.4-1.6C92.7,178.6,91.7,180.1,90.6,181.6z M85.8,85.8c-1.4-1.3-2.6-2.6-4-3.9
		c-0.6,0.7-1.3,1.4-2.1,2.2c1.4,1.3,2.8,2.5,4.1,3.8C84.5,87.1,85.2,86.4,85.8,85.8z M187.3,100.5c-1.7,0.8-3.3,1.6-5,2.3
		c0.4,0.9,0.8,1.8,1.2,2.6c1.7-0.7,3.4-1.4,5.1-2.1C188.2,102.4,187.8,101.4,187.3,100.5z M143.5,191.6c-0.4-1.8-0.8-3.5-1.3-5.3
		c-1,0.2-1.9,0.4-2.8,0.6c0.3,1.8,0.7,3.5,1,5.3C141.4,192.1,142.4,191.9,143.5,191.6z M191.6,143.8c-1.8-0.4-3.5-0.9-5.3-1.3
		c-0.3,1-0.5,1.8-0.8,2.8c1.8,0.5,3.4,1,5.2,1.5C191,145.8,191.3,144.8,191.6,143.8z M81.9,174.4c1.3-1.3,2.6-2.6,3.9-3.9
		c-0.6-0.6-1.2-1.2-2-1.9c-1.3,1.2-2.6,2.4-4,3.6C80.6,173.1,81.3,173.8,81.9,174.4z M154.5,181.9c-0.9,0.4-1.8,0.8-2.6,1.2
		c0.7,1.7,1.4,3.3,2.2,5c1-0.5,1.9-0.9,2.9-1.3C156,185.1,155.3,183.5,154.5,181.9z M107.5,190.2c1.1,0.3,2,0.6,3,0.9
		c0.5-1.8,1-3.5,1.4-5.3c-0.9-0.3-1.8-0.5-2.7-0.8C108.6,186.7,108.1,188.4,107.5,190.2z M97.4,179.5c-0.9,1.6-1.9,3.1-2.8,4.7
		c0.9,0.5,1.8,1,2.8,1.6c0.9-1.7,1.7-3.2,2.6-4.8C99,180.5,98.2,180,97.4,179.5z M143.6,186c0.5,1.8,0.9,3.5,1.4,5.2
		c1-0.3,2-0.6,3-0.9c-0.5-1.8-1.1-3.5-1.7-5.2C145.4,185.5,144.5,185.7,143.6,186z M175.8,83.4c-0.8-0.8-1.5-1.5-2.3-2.2
		c-1.3,1.3-2.5,2.6-3.8,3.9c0.7,0.7,1.4,1.3,2.1,2C173.1,85.9,174.4,84.7,175.8,83.4z M98.7,186.5c1,0.5,1.9,0.9,2.9,1.3
		c0.8-1.7,1.5-3.3,2.2-5c-0.9-0.4-1.7-0.8-2.6-1.2C100.4,183.3,99.6,184.8,98.7,186.5z M166.4,181c0.9-0.7,1.7-1.3,2.5-1.9
		c-1.2-1.5-2.3-2.8-3.4-4.2c-0.4,0.3-0.8,0.6-1.2,0.9c-0.4,0.3-0.7,0.6-1.1,0.9C164.3,178.1,165.3,179.5,166.4,181z M147.8,184.7
		c0.6,1.7,1.2,3.4,1.8,5.1c1-0.3,2-0.7,3-1.1c-0.7-1.7-1.3-3.3-2-5C149.6,184,148.7,184.3,147.8,184.7z M184.4,161.3
		c-1.6-1-3.1-1.8-4.7-2.8c-0.5,0.9-1,1.6-1.5,2.5c1.5,1,3,2,4.5,3C183.3,163,183.8,162.2,184.4,161.3z M185.1,146.6
		c-0.3,1-0.6,1.8-1,2.7c1.7,0.7,3.4,1.3,5.1,1.9c0.4-1,0.7-2,1-3C188.5,147.8,186.8,147.2,185.1,146.6z M181.8,154.7
		c-0.5,0.9-0.9,1.7-1.4,2.6c1.6,0.9,3.1,1.7,4.7,2.6c0.5-0.9,1-1.8,1.5-2.8C185,156.3,183.4,155.5,181.8,154.7z M179.9,167.8
		c0.6-0.9,1.2-1.7,1.9-2.6c-1.5-1.1-3-2.1-4.5-3.1c-0.6,0.8-1.1,1.5-1.7,2.3C177.1,165.6,178.5,166.7,179.9,167.8z M158.3,179.8
		c-0.9,0.5-1.7,0.9-2.5,1.4c0.8,1.6,1.7,3.2,2.5,4.8c0.9-0.5,1.8-1,2.8-1.5C160.1,182.9,159.2,181.4,158.3,179.8z M162.4,183.7
		c0.9-0.6,1.8-1.2,2.6-1.7c-1.1-1.5-2.1-3-3.1-4.5c-0.8,0.6-1.6,1.1-2.4,1.6C160.5,180.6,161.4,182.1,162.4,183.7z M188.6,152.8
		c-1.7-0.7-3.3-1.4-5-2.1c-0.4,0.9-0.8,1.8-1.2,2.6c1.7,0.8,3.3,1.5,4.9,2.3C187.8,154.7,188.2,153.8,188.6,152.8z M172.5,176
		c-1.3-1.4-2.5-2.7-3.7-4c-0.8,0.7-1.4,1.3-2.2,1.9c1.2,1.4,2.3,2.7,3.5,4.1C170.9,177.4,171.7,176.7,172.5,176z M179,169.1
		c-1.4-1.2-2.8-2.3-4.2-3.4c-0.6,0.8-1.2,1.5-1.9,2.2c1.4,1.2,2.7,2.4,4,3.6C177.6,170.7,178.3,169.9,179,169.1z M175.8,172.6
		c-1.4-1.3-2.7-2.5-3.8-3.5c-0.8,0.7-1.5,1.3-2.2,1.9c1.3,1.3,2.5,2.6,3.7,3.8C174.3,174.1,175,173.4,175.8,172.6z M78.4,25.8
		c0-1-0.4-1.8-1.2-2.3c-0.9-0.5-1.8-0.5-2.6,0.1c-0.7,0.5-1,1.2-1,2.1C75.2,25.8,76.8,26,78.4,25.8z M25.7,182.5
		c0.1-1.6,0.2-3.1,0.1-4.7c-1.5-0.1-2.7,1-2.7,2.4C23.2,181.5,24.4,182.6,25.7,182.5z M241.3,136.1c0.8,0.6,1.6,0.7,2.5,0.2
		c0.9-0.5,1.4-1.2,1.4-2.3c0-0.9-0.4-1.6-1.4-2.1C243,133.4,242.2,134.7,241.3,136.1z M191.7,34c1-0.5,1.5-1.2,1.5-2.2
		c0-1-0.5-1.8-1.4-2.2c-0.8-0.4-1.6-0.3-2.3,0.2C190.1,31.2,190.9,32.5,191.7,34z M120,241.3c-0.6,1-0.6,1.9-0.1,2.8
		c0.5,0.8,1.3,1.2,2.3,1.1c0.8-0.1,1.5-0.5,1.9-1.4C122.7,243,121.3,242.2,120,241.3z M182.5,230.4c-1.6-0.2-3.2-0.2-4.8-0.2
		c-0.1,1.4,0.8,2.5,2,2.6C181.3,233,182.4,232.1,182.5,230.4z M230.3,78.4c0.9,0,1.7-0.4,2.2-1.2c0.5-0.9,0.5-1.7,0-2.6
		c-0.5-0.7-1.2-1.1-2.1-1.1C230.2,74.4,230.1,77.6,230.3,78.4z M33.9,64.4c-0.6-1.5-2.4-1.8-3.5-1.1c-1.2,0.8-1.5,2.3-0.6,3.4
		C31.2,65.9,32.5,65.2,33.9,64.4z M222.1,191.7c0.9,1.4,2.3,1.8,3.5,1.1c1.2-0.7,1.5-2.1,0.7-3.4
		C224.9,190.1,223.5,190.9,222.1,191.7z M64.4,222.1c-1,0.5-1.5,1.3-1.4,2.3c0,1,0.5,1.8,1.4,2.2c0.8,0.3,1.6,0.4,2.3-0.2
		C65.9,224.9,65.2,223.5,64.4,222.1z M136.1,14.8c0.6-1,0.6-1.8,0.1-2.7c-0.5-0.9-1.3-1.3-2.3-1.2c-0.9,0.1-1.5,0.5-2,1.3
		C133.4,13.1,134.7,13.9,136.1,14.8z M14.7,120c-1.3-0.9-2.8-0.5-3.5,0.8c-0.7,1.2-0.2,2.6,1.1,3.2C13.1,122.7,13.9,121.4,14.7,120z
		 M230.3,79.3c0,0.1-0.1,0.1-0.1,0.2c0,1.3,0,2.5,0,3.8c0,0.6,0.4,0.8,1,0.5c0.9-0.5,1.4-1.6,1.2-2.6
		C232.3,80.1,231.5,79.4,230.3,79.3z M230.6,177.8c0,1.6-0.1,3.2,0.1,4.7c1.3-0.2,2.1-1.1,2.1-2.4
		C232.9,178.8,232,177.9,230.6,177.8z M73.6,230.7c0.2,1.5,1.3,2.3,2.6,2.2c1.2-0.1,2.1-1.1,2.1-2.2
		C76.7,230.7,75.2,230.7,73.6,230.7z M176.8,230.3c-0.1,0-0.2-0.1-0.3-0.1c-1.2,0-2.4,0-3.6,0c-0.4,0-0.7,0.2-0.8,0.5
		c0.3,1.3,1.7,1.9,2.7,1.7C175.9,232.3,176.8,231.4,176.8,230.3z M136.9,15.2c1.2,0.7,2.3,1.4,3.5,2c0.5,0.3,0.9-0.1,0.9-0.7
		c0-1-0.7-2-1.7-2.4C138.6,13.8,137.6,14.2,136.9,15.2z M63.9,221.3c-0.7-1.2-1.3-2.3-2-3.4c-0.3-0.4-0.7-0.5-1-0.1
		c-0.7,0.8-0.7,2.1,0,3C61.6,221.7,62.8,221.9,63.9,221.3z M221.4,192.2c-1.2,0.7-2.3,1.3-3.4,2c-0.5,0.3-0.5,0.8,0,1.1
		c0.9,0.6,2.1,0.5,2.9-0.2C221.7,194.4,221.9,193.3,221.4,192.2z M192.2,34.7c0.7,1.2,1.4,2.4,2.1,3.5c0.3,0.5,0.8,0.4,1.1-0.1
		c0.6-0.9,0.5-2.1-0.2-2.9C194.4,34.4,193.3,34.2,192.2,34.7z M132.2,244.1c0.9,1.2,2.3,1.4,3.4,0.6c1-0.7,1.2-2,0.6-3
		C134.9,242.5,133.5,243.3,132.2,244.1z M25.4,73.6c-1.5,0-2.3,1.5-2.2,2.4c0.1,1.3,1.1,2.2,2.2,2.2C25.4,76.8,25.4,75.2,25.4,73.6z
		 M25.8,176.8c0,0,0.1-0.1,0.1-0.1c0-1.3,0-2.6-0.1-3.9c0-0.5-0.4-0.7-0.9-0.5c-0.9,0.4-1.3,1.2-1.4,2.1
		C23.5,175.6,24.6,176.8,25.8,176.8z M15.2,119.1c0.4-0.8,0.9-1.6,1.3-2.4c0.2-0.4,0.4-0.7,0.6-1.1c0.3-0.6,0.1-0.9-0.6-1
		c-0.7,0-1.2,0.2-1.7,0.6C13.6,116.5,13.8,118.3,15.2,119.1z M119.2,240.9c-1.2-0.7-2.4-1.4-3.6-2c-0.2-0.1-0.5,0-0.7,0
		c-0.4,1.3,0.4,2.5,1.3,2.9C117.3,242.3,118.4,242,119.2,240.9z M241.7,119.8c0.7,1.4,1.5,2.7,2.4,4c1.1-0.7,1.3-2,0.7-3.1
		C244.2,119.6,242.9,119.2,241.7,119.8z M29.6,189.7c-0.5,1.4,0,2.7,1.2,3.2c1.1,0.5,2.4,0.1,2.9-1C32.3,191.2,31,190.5,29.6,189.7z
		 M79.3,25.8c0,0,0.1,0.1,0.1,0.1c1.3,0,2.7,0,4-0.1c0.4,0,0.6-0.4,0.4-0.8c-0.4-1-1.5-1.5-2.7-1.3C80.2,23.8,79.4,24.6,79.3,25.8z
		 M241,137c0,0-0.1,0-0.1,0.1c-0.6,1.1-1.3,2.2-1.9,3.4c-0.3,0.5,0,0.9,0.6,0.9c1,0,2-0.6,2.4-1.7C242.3,138.7,241.9,137.7,241,137z
		 M182.5,25.4c-0.2-1.4-1.3-2.2-2.5-2.2c-1.2,0.1-2.2,1-2.3,2.3C179.3,25.5,180.9,25.5,182.5,25.4z M14.4,136.3
		c-0.8-1.4-1.6-2.8-2.4-4.1c-1.1,0.8-1.3,2-0.7,3.1C11.8,136.4,13,136.9,14.4,136.3z M189.7,226.5c1.2,0.6,2.5,0.1,3.1-1
		c0.6-1.1,0.3-2.4-0.9-3.1C191.2,223.7,190.5,225.1,189.7,226.5z M34.7,63.9c0.1,0,0.2-0.1,0.3-0.1c1-0.6,2-1.2,3.1-1.8
		c0.3-0.2,0.4-0.5,0.4-0.8c-0.8-1-2.3-0.9-3.1-0.3C34.5,61.6,34.2,62.8,34.7,63.9z M66.4,29.6c-1.3-0.6-2.6-0.1-3.2,1.2
		c-0.5,1.1-0.1,2.4,0.9,2.9C64.9,32.3,65.7,31,66.4,29.6z M226.5,66.4c0.6-1.3,0-2.8-1.3-3.3c-1.1-0.4-2.5,0.1-2.7,1
		C223.8,64.9,225.1,65.6,226.5,66.4z M123.9,12c-0.6-1.1-2.2-1.4-3.3-0.7c-1,0.7-1.3,1.9-0.8,3.1C121.2,13.6,122.5,12.8,123.9,12z
		 M232.2,68.4c-1.3,1.2-1.6,2.7-1.8,4.3c1,0.3,2.1-0.3,2.6-1.2C233.5,70.3,233.2,69.2,232.2,68.4z M24.3,67.7c1.6,0.6,3.1,0,4.6-0.6
		c-0.4-1.1-1.4-1.7-2.4-1.6C25.3,65.6,24.4,66.5,24.3,67.7z M128.4,8c0.3,1.7,1.5,2.7,2.8,3.6c0.8-0.9,0.8-2,0.2-2.9
		C130.7,7.8,129.6,7.5,128.4,8z M248.1,128.5c-1.2,0-2.8,1.3-3.6,2.8c0.9,0.7,2,0.8,2.9,0.1C248.2,130.8,248.7,129.3,248.1,128.5z
		 M67.7,231.8c0.6-1.6-0.1-3.1-0.7-4.6c-1.2,0.5-1.8,1.6-1.5,2.7C65.8,231,66.6,231.8,67.7,231.8z M25.7,183.4
		c-1.4-0.1-2.3,0.5-2.7,1.6c-0.4,1,0,2,0.9,2.7C25.2,186.6,25.4,185,25.7,183.4z M72.6,25.7c0.3-1.1-0.3-2.2-1.4-2.6
		c-1.1-0.5-2.3-0.1-2.9,0.9C69.5,25.2,71.1,25.4,72.6,25.7z M187.7,232.3c-0.7-1.1-2.5-1.8-4.2-1.7c-0.2,1.1,0.4,2.1,1.4,2.5
		C185.9,233.5,187,233.2,187.7,232.3z M11.7,124.8c-0.8-0.9-2.3-0.7-3-0.1c-0.9,0.7-1.2,1.9-0.6,2.9
		C9.7,127.3,10.6,126.1,11.7,124.8z M231.8,188.4c-1.6-0.6-3.1,0-4.6,0.6c0.5,1.2,1.5,1.7,2.6,1.5
		C230.9,190.4,231.7,189.6,231.8,188.4z M189,28.9c1.2-0.5,1.7-1.4,1.6-2.6c-0.1-0.9-1-2-2.2-2C187.8,25.9,188.4,27.4,189,28.9z
		 M124.8,244.4c-0.8,1-0.8,2.3,0.1,3.2c0.7,0.8,1.9,1,2.8,0.4C127.3,246.4,126.1,245.4,124.8,244.4z M79.3,230.6
		c0.3,1.3,1.5,2.1,2.7,1.9c1.1-0.2,1.9-1,1.9-1.9C82.4,230.6,80.9,230.6,79.3,230.6z M230.6,176.8c1.3-0.3,2-1.4,1.9-2.6
		c-0.1-1.1-1-2-1.9-2C230.6,173.7,230.6,175.2,230.6,176.8z M127.6,8c-1-0.5-2-0.3-2.7,0.5c-0.8,0.8-0.9,1.8-0.2,2.8
		C125.9,10.5,127.1,9.6,127.6,8z M24.3,188.4c0.2,1.2,0.9,1.9,1.9,2.1c1,0.2,2.2-0.3,2.5-1.2C27.3,188.7,25.9,188,24.3,188.4z
		 M187.7,23.9c-0.7-1-1.8-1.3-2.8-0.9c-0.9,0.4-1.5,1.3-1.4,2.3C185,25.1,186.5,25,187.7,23.9z M25.4,72.7c-0.3-1.5-0.3-3.1-1.5-4.2
		C23,69.1,22.6,70,23,71C23.3,72.1,24.2,72.7,25.4,72.7z M231.8,67.7c-0.1-1.1-0.9-2-2-2.1c-1-0.2-2,0.4-2.3,1.3
		C228.8,67.4,230.2,68.1,231.8,67.7z M11.3,131.5c-0.7-1.5-2.3-2.9-3.4-2.9c-0.4,0.9-0.2,1.9,0.6,2.6C9.3,131.9,10.3,132,11.3,131.5
		z M128.4,248.1c1.2,0.4,2.2,0.1,2.9-0.8c0.6-0.8,0.7-1.8,0.1-2.6C130.2,245.6,128.9,246.5,128.4,248.1z M232.2,187.7
		c0.9-0.8,1.2-1.7,0.9-2.7c-0.3-1-1.1-1.6-2.3-1.7C230.9,185,231.1,186.5,232.2,187.7z M67.5,24.3c-1.2,0.2-1.9,1-2,2.1
		c-0.1,0.9,0.4,1.8,1.2,2.2C67.6,27.3,68,25.2,67.5,24.3z M189.3,227.4c-0.6,1.5-1.3,2.8-0.9,4.4c1.1-0.1,1.8-0.8,2.1-1.8
		C190.8,229,190.3,228,189.3,227.4z M244.7,124.6c1,1.3,1.8,2.5,3.4,3c0.5-0.9,0.1-2.1-0.6-2.8C246.7,124.2,245.8,124.1,244.7,124.6
		z M72.7,230.8c-1.6,0.2-3.1,0.3-4.3,1.5c0.8,0.9,1.7,1.2,2.7,0.9C72,232.8,72.6,231.9,72.7,230.8z M221.5,63.6c0.4-1.1,0-2.2-1-2.8
		c-1-0.6-2.2-0.4-3,0.5C218.8,62,220.1,62.8,221.5,63.6z M137.2,241.2c0.6,0.9,2.2,1,3,0.5c1-0.6,1.4-1.7,1-2.8
		C139.8,239.7,138.5,240.5,137.2,241.2z M118.9,14.9c-0.8-1-2-1.1-3.1-0.4c-1,0.6-1.3,1.8-0.9,2.7C116.3,16.4,117.6,15.6,118.9,14.9
		z M34.5,192.5c-0.2,1.5,0.2,2.4,1.3,2.9c0.9,0.4,2.2,0.2,2.8-0.6C37.3,194.1,35.9,193.3,34.5,192.5z M17.2,141.1
		c-0.8-1.3-1.6-2.6-2.3-4c-1.1,0.8-1,2.2-0.5,3C15,141.1,16.1,141.5,17.2,141.1z M241.2,119c1-1,1.1-2.3,0.3-3.2
		c-0.7-0.9-1.8-1.2-2.6-0.7C239.7,116.3,240.4,117.6,241.2,119z M61.3,38.6c0.4-0.7,0.8-1.4,1.2-2c0.4-0.7,0.8-1.3,1.1-2
		c-1.3-0.3-2.3,0.1-2.8,1.2C60.2,36.8,60.4,37.8,61.3,38.6z M192.5,221.5c1.3,0.4,2.5-0.2,3-1.4c0.4-1,0.1-2.2-0.7-2.6
		C194,218.9,193.3,220.2,192.5,221.5z M176.7,25.4c-0.2-1.2-1.2-1.9-2.5-1.9c-1.1,0.1-2,0.9-2,1.9C173.7,25.4,175.2,25.4,176.7,25.4
		z M25.5,79.4c-1.3,0.3-2,1.3-1.9,2.6c0.1,1,1,1.9,1.9,1.9C25.5,82.4,25.5,80.9,25.5,79.4z"/>
	<path d="M100.5,157.9c-0.1,0.4-0.1,0.8-0.2,1.1c-0.3,1.2-1.6,2-2.9,1.8c-1.3-0.2-2.2-1.3-2.2-2.6c0-1.3,0.9-2.5,2.2-2.6
		c0.6,0,0.8-0.3,1.1-0.8c0.9-2,1.7-4.1,2.1-6.3c0.2-1,0.2-1.9,0.1-2.9c-0.2-1.2-0.7-2.2-1.7-2.9c-0.7-0.5-1.4-0.9-2.2-1.2
		c-2.4-1-4.9-1.3-7.5-1.5c-0.5,0.8-1.2,1.5-2.2,1.6c-0.7,0.1-1.3-0.1-1.9-0.5c-1.1-0.8-1.4-2.2-0.7-3.4c0.7-1.3,2.1-1.6,3.9-0.9
		c2.3-1.5,4.5-3.2,6.1-5.5c1.7-2.4,1.7-4.5,0-6.9c-1.4-1.9-3.2-3.4-5-4.7c-0.3-0.3-0.7-0.5-1-0.7c-0.6,0.2-1.1,0.4-1.6,0.4
		c-1.3,0.1-2.4-0.7-2.7-1.9c-0.3-1.2,0.2-2.5,1.3-3c1.1-0.6,2.5-0.3,3.2,0.7c0.4,0.5,0.7,0.6,1.3,0.6c2-0.2,4.1-0.5,6-1.2
		c0.6-0.2,1.1-0.4,1.7-0.7c2.3-1.2,3.2-2.9,3-5.7c-0.2-2-0.8-3.8-1.6-5.6c-0.3-0.7-0.6-1.4-0.9-2.1c-0.5-0.1-0.8-0.1-1.2-0.2
		c-1.3-0.4-2-1.6-1.8-3c0.2-1.3,1.4-2.2,2.7-2.1c1.3,0.1,2.4,1.1,2.5,2.4c0,0.5,0.2,0.7,0.6,0.9c2,1,4.1,1.8,6.3,2.2
		c1,0.2,2,0.3,3,0.1c1.2-0.2,2.3-0.8,3-1.8c0.4-0.6,0.8-1.1,1.1-1.8c1.1-2.5,1.5-5.2,1.7-7.8c-1.7-1.3-2-2.6-1.2-3.9
		c0.7-1.2,2.2-1.6,3.4-1c1.4,0.7,1.7,2,1,4c1.5,2.2,3.1,4.4,5.4,6c0.3,0.2,0.7,0.4,1,0.6c1.6,0.9,3.3,0.9,5,0.1
		c1.2-0.6,2.2-1.4,3.1-2.4c1-1.2,2-2.4,2.9-3.6c0.2-0.2,0.3-0.5,0.4-0.7c-0.4-0.8-0.7-1.5-0.4-2.4c0.3-1.1,1.3-1.8,2.4-1.9
		c1.1,0,2.2,0.7,2.6,1.7c0.4,1.1,0.1,2.3-0.8,2.9c-0.4,0.3-0.6,0.6-0.5,1.1c0.2,2.1,0.5,4.2,1.2,6.3c0.2,0.5,0.4,1.1,0.7,1.6
		c1.2,2.3,2.9,3.2,5.8,2.9c2.6-0.3,5-1.2,7.4-2.3c0.4-0.2,0.4-0.5,0.4-0.8c0.1-1.1,0.7-1.8,1.6-2.2c1-0.4,2-0.2,2.8,0.5
		c0.8,0.8,1,1.7,0.7,2.7c-0.3,1-1.1,1.6-2.1,1.8c-0.2,0-0.4,0-0.7,0.1c-0.5,1.1-1,2.3-1.5,3.4c-0.6,1.7-1.1,3.5-1.1,5.3
		c0,2,0.9,3.5,2.6,4.5c1.6,1,3.4,1.4,5.2,1.8c1.2,0.2,2.4,0.3,3.6,0.5c0.2-0.2,0.3-0.4,0.4-0.6c0.8-1.1,2.3-1.4,3.5-0.7
		c1.1,0.7,1.6,2.1,1,3.3c-0.6,1.2-2,1.9-3.3,1.3c-0.6-0.3-1-0.1-1.5,0.2c-1.9,1.4-3.7,2.8-5.2,4.7c-0.3,0.4-0.5,0.8-0.7,1.1
		c-1,1.8-0.9,3.5,0.1,5.3c0.9,1.5,2.1,2.8,3.4,3.9c0.8,0.7,1.7,1.3,2.5,1.9c0.4,0.3,0.7,0.3,1.2,0.1c1.6-0.7,3.2,0.2,3.6,1.8
		c0.3,1.1-0.3,2.3-1.3,2.9c-1.1,0.6-2.4,0.3-3.2-0.6c-0.2-0.2-0.3-0.4-0.5-0.7c-1.1,0.1-2.2,0.2-3.3,0.4c-1.6,0.2-3.1,0.6-4.5,1.3
		c-0.4,0.2-0.9,0.4-1.3,0.7c-1.6,1-2.3,2.4-2.3,4.3c0,1.8,0.4,3.5,1,5.2c0.4,1,0.8,2,1.2,3c0.2,0.5,0.4,0.7,1,0.7
		c1.1,0.1,2,0.9,2.2,2c0.3,1.1-0.2,2.3-1.2,2.8c-1.5,0.9-3.8,0.1-4-1.9c0-0.4-0.1-0.7-0.5-0.8c-2-0.9-4-1.8-6.2-2.2
		c-0.9-0.2-1.8-0.2-2.7-0.2c-2,0.1-3.3,1.2-4.2,3c-0.9,1.7-1.4,3.6-1.7,5.5c-0.1,1-0.2,2-0.4,3c0.8,0.5,1.5,1.1,1.6,2.1
		c0.1,0.7,0,1.4-0.4,2c-0.8,1.1-2.3,1.4-3.5,0.7c-1.1-0.7-1.8-2.2-0.8-3.9c-0.9-1.4-1.9-2.7-3-4c-0.9-1-1.8-1.8-3-2.5
		c-2-1.2-3.9-1.3-5.9,0c-0.9,0.6-1.8,1.3-2.6,2.1c-1.3,1.3-2.4,2.8-3.4,4.3c0.5,0.8,0.6,1.6,0.3,2.5c-0.2,0.7-0.7,1.1-1.3,1.4
		c-1.2,0.6-2.7,0.2-3.4-0.9c-0.8-1.3-0.4-2.7,1.2-3.9c-0.1-1-0.2-2-0.3-3c-0.2-1.7-0.6-3.4-1.4-5c-0.4-0.7-0.8-1.4-1.3-2
		c-0.8-1-2-1.4-3.3-1.5c-1.3-0.1-2.5,0.1-3.7,0.4C104,156.3,102.2,157.1,100.5,157.9z M117.5,89.3c0,0.4-0.1,0.9-0.2,1.4
		c-0.2,1.9-0.5,3.7-1.1,5.5c-0.5,1.5-1.1,2.8-2.2,4c-0.7,0.7-1.5,1.3-2.4,1.6c-1.5,0.5-3,0.5-4.5,0.2c-2.4-0.4-4.6-1.2-6.7-2.2
		c-0.2-0.1-0.5-0.4-0.8-0.2c-0.3,0.3,0,0.5,0.1,0.8c0.5,1.3,1.1,2.6,1.6,4c0.6,1.6,0.9,3.3,0.8,5.1c-0.1,1.7-0.6,3.3-1.9,4.5
		c-0.9,0.8-2,1.4-3.1,1.9c-2.3,0.9-4.6,1.3-7.1,1.5c-0.3,0-0.8-0.2-0.9,0.3c-0.1,0.4,0.4,0.5,0.6,0.7c1.5,1.1,3,2.2,4.3,3.6
		c1,1.1,1.9,2.2,2.5,3.6c0.7,1.6,0.7,3.3,0,5c-0.6,1.4-1.5,2.6-2.6,3.7c-1.3,1.4-2.9,2.6-4.5,3.7c-0.2,0.1-0.4,0.3-0.4,0.5
		c0,0.4,0.4,0.2,0.6,0.3c1.2,0.2,2.4,0.3,3.5,0.5c2,0.4,3.9,0.9,5.6,2c1.6,1,2.7,2.4,3,4.3c0.2,1.2,0.2,2.3,0,3.5
		c-0.4,2.3-1.2,4.4-2.1,6.5c-0.1,0.2-0.2,0.5-0.3,0.7c0,0.1,0,0.3,0.1,0.3c0.1,0.1,0.2,0.1,0.3,0.1c0.1,0,0.3-0.1,0.4-0.2
		c1-0.4,1.9-0.8,2.9-1.2c2.1-0.8,4.2-1.3,6.5-1.2c2.1,0.1,3.7,1,4.9,2.7c0.8,1.1,1.3,2.3,1.7,3.6c0.6,1.9,0.9,3.9,1.1,5.9
		c0,0.3-0.1,0.6,0.4,0.7c0.1-0.2,0.3-0.4,0.5-0.6c0.9-1.1,1.8-2.3,2.7-3.4c1.1-1.3,2.5-2.4,4-3.2c2-1,4-1,5.9,0
		c0.8,0.4,1.6,1,2.3,1.6c1.7,1.4,3.1,3.1,4.3,4.9c0.1,0.2,0.2,0.4,0.4,0.6c0.1,0.1,0.3,0.2,0.4,0.2c0.1,0,0.2-0.2,0.2-0.3
		c0-0.1,0-0.2,0-0.2c0.2-1.4,0.3-2.9,0.6-4.3c0.4-1.8,1-3.6,2-5.2c1.1-1.6,2.5-2.5,4.4-2.8c1.2-0.2,2.3-0.1,3.5,0.1
		c2.2,0.4,4.3,1.2,6.3,2.1c0.2,0.1,0.4,0.2,0.6,0.2c0.3,0.1,0.4-0.1,0.4-0.4c-0.1-0.2-0.2-0.4-0.2-0.6c-0.4-1.1-0.9-2.1-1.3-3.2
		c-0.7-1.9-1.1-3.8-1-5.8c0.1-2.1,0.9-3.8,2.6-5c1.2-0.9,2.6-1.5,4.1-1.9c1.8-0.5,3.7-0.8,5.6-0.9c0.3,0,0.6,0.1,0.8-0.4
		c-0.2-0.2-0.5-0.3-0.7-0.5c-1.1-0.9-2.3-1.8-3.4-2.7c-1.3-1.1-2.3-2.4-3.1-3.9c-1-2-1.1-4.1,0-6.1c0.4-0.8,0.9-1.5,1.4-2.2
		c1.4-1.8,3.2-3.2,5.1-4.5c0.2-0.1,0.4-0.3,0.6-0.4c0.1-0.1,0.2-0.2,0.1-0.3c0-0.1-0.2-0.2-0.3-0.2c-0.3-0.1-0.6-0.1-0.9-0.1
		c-1.2-0.2-2.4-0.3-3.5-0.5c-1.8-0.4-3.5-0.9-5.1-1.9c-1.7-1.1-2.7-2.5-3-4.5c-0.2-1.2-0.1-2.4,0.1-3.6c0.4-2.2,1.2-4.2,2.1-6.2
		c0.1-0.2,0.2-0.4,0.3-0.6c0.1-0.3-0.1-0.5-0.4-0.4c-0.2,0.1-0.4,0.2-0.6,0.2c-1,0.4-2,0.9-3,1.2c-1.9,0.7-3.9,1.2-6,1.1
		c-2-0.1-3.8-0.8-5-2.5c-0.6-0.8-1.1-1.7-1.4-2.7c-0.7-1.7-1-3.4-1.3-5.2c-0.1-0.7-0.1-1.4-0.2-2.1c0-0.1-0.1-0.3-0.2-0.3
		c-0.1,0-0.3,0.1-0.4,0.2c-0.1,0.1-0.2,0.3-0.3,0.4c-0.9,1.1-1.7,2.2-2.6,3.3c-1.2,1.4-2.6,2.6-4.3,3.4c-1.8,0.9-3.7,1-5.5,0.1
		c-1.7-0.7-3-1.9-4.2-3.2c-1.1-1.2-2-2.5-3-3.7C118.1,89.5,118,89.1,117.5,89.3z"/>
	<g>
		<path d="M47.9,57.2c-0.8,0-1.4-0.6-1.4-1.4c0-0.8,0.6-1.4,1.4-1.4c0.8,0,1.4,0.6,1.5,1.4C49.4,56.6,48.8,57.2,47.9,57.2z"/>
		<path d="M45.8,60.2c0.5,0,0.9,0.4,0.9,0.9c0,0.4-0.4,0.9-0.9,0.9c-0.5,0-0.9-0.4-0.9-0.9C44.9,60.6,45.3,60.2,45.8,60.2z"/>
		<path d="M209.7,200.4c0,0.9-0.6,1.4-1.4,1.4c-0.8,0-1.4-0.6-1.4-1.4c0-0.8,0.6-1.5,1.4-1.5C209,199,209.7,199.6,209.7,200.4z"/>
		<path d="M210.4,194.2c0.5,0,0.9,0.4,0.9,0.9c0,0.5-0.4,0.9-0.9,0.9c-0.5,0-0.9-0.4-0.9-0.9C209.5,194.6,209.8,194.2,210.4,194.2z"
			/>
		<path d="M230.8,96.2c-0.8,0-1.4-0.6-1.4-1.4c0-0.8,0.6-1.4,1.5-1.4c0.8,0,1.4,0.6,1.4,1.4C232.3,95.6,231.7,96.2,230.8,96.2z"/>
		<path d="M228.1,90.3c0,0.5-0.3,0.9-0.8,0.9c-0.5,0-0.9-0.4-0.9-0.9c0-0.5,0.4-0.8,0.9-0.8C227.8,89.4,228.1,89.8,228.1,90.3z"/>
		<path d="M152.2,22.5c0,0.8-0.7,1.4-1.5,1.4c-0.8,0-1.4-0.7-1.4-1.4c0-0.8,0.7-1.5,1.5-1.4C151.5,21,152.2,21.7,152.2,22.5z"/>
		<path d="M145.9,23.3c0,0.5-0.4,0.9-0.9,0.9c-0.5,0-0.9-0.4-0.9-0.9c0-0.5,0.4-0.8,0.9-0.8C145.6,22.5,145.9,22.8,145.9,23.3z"/>
		<path d="M233.7,152.1c-0.8,0-1.5-0.6-1.5-1.4c0-0.8,0.7-1.5,1.5-1.5c0.8,0,1.4,0.6,1.4,1.4C235.2,151.4,234.6,152,233.7,152.1z"/>
		<path d="M233.8,145c0,0.5-0.4,0.8-0.9,0.8c-0.5,0-0.9-0.4-0.9-0.8c0-0.5,0.4-0.9,0.9-0.9C233.4,144.1,233.8,144.5,233.8,145z"/>
		<path d="M23.9,105.6c0,0.8-0.6,1.4-1.5,1.4c-0.8,0-1.4-0.6-1.4-1.4c0-0.8,0.7-1.5,1.4-1.5C23.2,104.1,23.9,104.7,23.9,105.6z"/>
		<path d="M24.2,111.2c0,0.5-0.4,0.9-0.8,0.9c-0.5,0-0.9-0.4-0.9-0.9c0-0.5,0.4-0.9,0.9-0.9C23.8,110.3,24.2,110.7,24.2,111.2z"/>
		<path d="M105.4,235.1c-0.8,0-1.5-0.7-1.4-1.5c0-0.8,0.7-1.4,1.5-1.4c0.8,0,1.4,0.7,1.4,1.4C106.9,234.5,106.3,235.1,105.4,235.1z"
			/>
		<path d="M112,232.9c0,0.5-0.4,0.9-1,0.8c-0.5,0-0.8-0.4-0.8-0.9c0-0.5,0.4-0.9,0.9-0.9C111.6,232,112,232.4,112,232.9z"/>
		<path d="M55.6,206.8c0.8,0,1.4,0.6,1.4,1.4c0,0.8-0.6,1.4-1.4,1.4c-0.8,0-1.5-0.7-1.5-1.4C54.2,207.5,54.8,206.8,55.6,206.8z"/>
		<path d="M61.8,210.4c0,0.5-0.4,0.9-0.9,0.9c-0.5,0-0.9-0.4-0.9-0.9c0-0.5,0.4-0.9,0.9-0.9C61.5,209.5,61.8,209.9,61.8,210.4z"/>
		<path d="M94.9,23.9c0.8,0,1.4,0.6,1.4,1.4c0,0.8-0.6,1.4-1.4,1.4c-0.8,0-1.5-0.6-1.5-1.4C93.4,24.6,94.1,23.9,94.9,23.9z"/>
		<path d="M90.4,28c0.5,0,0.9,0.3,0.9,0.9c0,0.5-0.4,0.9-0.9,0.9c-0.5,0-0.8-0.4-0.8-0.9C89.5,28.4,89.9,28,90.4,28z"/>
		<path d="M161.4,232.3c-0.8,0-1.5-0.6-1.5-1.4c0-0.8,0.6-1.4,1.4-1.4c0.8,0,1.5,0.6,1.4,1.4C162.7,231.6,162.1,232.2,161.4,232.3z"
			/>
		<path d="M165.8,226.4c0.5,0,0.9,0.3,0.9,0.8c0,0.5-0.4,0.9-0.9,1c-0.5,0-0.9-0.4-0.9-0.9C164.9,226.8,165.3,226.4,165.8,226.4z"/>
		<path d="M26.7,161.3c0,0.8-0.7,1.4-1.5,1.4c-0.8,0-1.4-0.7-1.4-1.5c0-0.8,0.7-1.4,1.4-1.4C26.1,159.9,26.7,160.5,26.7,161.3z"/>
		<path d="M28.8,166.7c-0.5,0-0.9-0.4-0.8-1c0-0.5,0.4-0.8,0.9-0.8c0.5,0,0.9,0.4,0.9,0.9C29.7,166.3,29.3,166.7,28.8,166.7z"/>
		<path d="M201.9,47.9c0,0.8-0.7,1.4-1.5,1.4c-0.8,0-1.4-0.6-1.4-1.4c0-0.8,0.7-1.4,1.5-1.5C201.3,46.4,201.9,47,201.9,47.9z"/>
		<path d="M194.2,45.8c0-0.5,0.3-0.9,0.8-0.9c0.5,0,0.9,0.4,1,0.9c0,0.5-0.4,0.9-0.9,0.9C194.6,46.6,194.2,46.2,194.2,45.8z"/>
		<path d="M235,105.3c0,0.8-0.6,1.4-1.4,1.4c-0.8,0-1.4-0.6-1.4-1.4c0-0.8,0.6-1.4,1.4-1.4C234.4,103.9,235,104.5,235,105.3z"/>
		<path d="M233.8,110.8c0,0.5-0.3,0.9-0.8,0.9c-0.5,0-0.9-0.4-0.9-0.9c0-0.5,0.4-0.8,0.9-0.8C233.5,109.9,233.8,110.3,233.8,110.8z"
			/>
		<path d="M150.7,235c-0.8,0-1.4-0.6-1.4-1.5c0-0.8,0.7-1.4,1.4-1.4c0.8,0,1.4,0.7,1.4,1.5C152.2,234.4,151.6,235,150.7,235z"/>
		<path d="M146.2,233c-0.1,0.5-0.5,0.8-0.9,0.8c-0.5,0-0.9-0.5-0.8-1c0-0.5,0.5-0.8,1-0.8C145.9,232.1,146.2,232.5,146.2,233z"/>
		<path d="M57.1,48.1c0,0.8-0.7,1.4-1.5,1.4c-0.8,0-1.4-0.6-1.4-1.4c0-0.8,0.7-1.5,1.4-1.5C56.5,46.7,57.1,47.4,57.1,48.1z"/>
		<path d="M60.8,46.8c-0.5,0-0.9-0.3-0.9-0.8c0-0.5,0.3-0.9,0.9-0.9c0.5,0,0.9,0.3,0.9,0.8C61.6,46.4,61.3,46.8,60.8,46.8z"/>
		<path d="M200.5,209.5c-0.8,0-1.4-0.6-1.4-1.5c0-0.8,0.7-1.4,1.4-1.4c0.8,0,1.5,0.7,1.5,1.5C201.9,208.9,201.3,209.5,200.5,209.5z"
			/>
		<path d="M195.4,211.1c-0.5,0-0.8-0.4-0.8-0.9c0-0.5,0.4-0.9,0.9-0.9c0.5,0,0.9,0.4,0.9,0.9C196.3,210.7,195.9,211.2,195.4,211.1z"
			/>
		<path d="M161.1,26.7c-0.8,0-1.4-0.6-1.4-1.5c0-0.8,0.6-1.4,1.4-1.4c0.8,0,1.5,0.6,1.5,1.4C162.6,26.1,161.9,26.7,161.1,26.7z"/>
		<path d="M166.4,28.6c0,0.5-0.3,0.9-0.9,0.9c-0.6,0-0.9-0.3-0.9-0.9c0-0.5,0.4-0.8,0.9-0.8C166.1,27.7,166.4,28.1,166.4,28.6z"/>
		<path d="M23.9,150.7c0,0.8-0.6,1.5-1.4,1.5c-0.8,0-1.4-0.6-1.5-1.4c0-0.8,0.6-1.5,1.4-1.5C23.3,149.3,23.9,149.9,23.9,150.7z"/>
		<path d="M24.1,145.3c0,0.5-0.4,0.9-0.9,0.9c-0.5,0-0.9-0.4-0.9-0.9c0-0.5,0.3-0.9,0.8-0.9C23.6,144.4,24,144.7,24.1,145.3z"/>
		<path d="M95,229.4c0.8,0,1.5,0.7,1.4,1.5c0,0.8-0.7,1.4-1.5,1.4c-0.8,0-1.4-0.6-1.4-1.4C93.5,230,94.2,229.3,95,229.4z"/>
		<path d="M90.6,228.4c-0.5,0-0.9-0.4-0.9-0.9c0-0.5,0.4-0.9,0.9-0.9c0.5,0,0.9,0.4,0.9,0.9C91.4,228,91,228.4,90.6,228.4z"/>
		<path d="M106.8,22.6c0,0.8-0.6,1.4-1.4,1.4c-0.8,0-1.4-0.6-1.4-1.4c0-0.8,0.7-1.5,1.4-1.5C106.2,21.2,106.8,21.8,106.8,22.6z"/>
		<path d="M110.9,24.1c-0.5,0-0.9-0.4-0.9-0.9c0-0.5,0.4-0.9,0.9-0.9c0.5,0,0.9,0.4,0.9,0.8C111.8,23.7,111.4,24.1,110.9,24.1z"/>
		<path d="M209.5,55.6c0,0.8-0.6,1.4-1.5,1.4c-0.8,0-1.4-0.6-1.4-1.4c0-0.8,0.7-1.4,1.5-1.4C208.9,54.2,209.5,54.8,209.5,55.6z"/>
		<path d="M210.3,59.8c0.5,0,0.9,0.4,0.9,0.9c0,0.5-0.4,0.9-0.9,0.8c-0.5,0-0.9-0.5-0.9-1C209.4,60.1,209.8,59.8,210.3,59.8z"/>
		<path d="M25.4,93.7c0.8,0,1.4,0.6,1.4,1.4c0,0.8-0.6,1.5-1.4,1.4c-0.7,0-1.4-0.7-1.4-1.4C23.9,94.3,24.6,93.7,25.4,93.7z"/>
		<path d="M29.6,90.7c0,0.5-0.4,0.9-0.9,0.9c-0.5,0-0.9-0.4-0.9-0.9c0-0.5,0.4-0.9,0.9-0.9C29.2,89.8,29.6,90.2,29.6,90.7z"/>
		<path d="M232.2,161.1c0,0.8-0.6,1.4-1.5,1.4c-0.8,0-1.4-0.6-1.4-1.4c0-0.8,0.6-1.5,1.4-1.5C231.6,159.7,232.2,160.3,232.2,161.1z"
			/>
		<path d="M227.5,164.7c0.5,0,0.8,0.4,0.8,0.9c0,0.5-0.4,0.9-0.9,0.9c-0.5,0-0.8-0.4-0.8-0.9C226.6,165,227,164.7,227.5,164.7z"/>
		<path d="M49.4,200.5c0,0.8-0.6,1.5-1.4,1.5c-0.8,0-1.5-0.7-1.5-1.5c0-0.8,0.6-1.4,1.4-1.4C48.8,199,49.4,199.6,49.4,200.5z"/>
		<path d="M45.8,194.5c0.5,0,0.9,0.3,0.9,0.8c0,0.5-0.4,0.9-0.9,0.9c-0.5,0-0.9-0.4-0.9-0.9C45,194.9,45.3,194.5,45.8,194.5z"/>
	</g>
	<path d="M101.8,138.3c0,0,0-0.2,0-0.4c0.1-0.5-0.1-0.8-0.3-1.2c-0.7-0.9-1-1.9-0.8-3.1c0.1-0.4,0-0.6-0.2-0.9
		c-1-1.4-1.5-2.9-1.5-4.6c0-1.7,0.5-3.3,1.5-4.7c0.3-0.4,0.3-0.7,0.3-1.2c-0.2-1.1,0.1-2.1,0.8-2.9c0.3-0.3,0.4-0.7,0.3-1.1
		c-0.2-3.7,1.4-6.4,4.7-8c0.3-0.2,0.5-0.3,0.6-0.7c0.4-1.1,1.2-1.9,2.4-2.4c0.3-0.1,0.5-0.3,0.6-0.6c1.5-3.2,4.4-4.9,7.9-4.8
		c0.5,0,0.9-0.1,1.3-0.4c0.9-0.7,1.9-0.9,3-0.7c0.3,0.1,0.6,0,0.9-0.2c1.3-1,2.7-1.5,4.3-1.6c1.9-0.1,3.6,0.4,5.1,1.5
		c0.3,0.2,0.6,0.3,1,0.3c1.1-0.2,2.2,0.1,3.1,0.8c0.3,0.3,0.7,0.4,1.1,0.3c3.9-0.3,6.9,2,8,4.8c0.1,0.3,0.3,0.5,0.6,0.6
		c1.2,0.4,2,1.3,2.5,2.4c0.1,0.3,0.3,0.5,0.6,0.6c3.1,1.5,4.7,4.1,4.7,7.6c0,0.2,0,0.4-0.1,0.6c-0.1,0.3,0,0.5,0.2,0.8
		c0.8,0.9,1.1,2.1,0.9,3.3c0,0.4,0,0.7,0.3,1c2,2.9,2,6.4,0,9.4c-0.2,0.3-0.3,0.5-0.2,0.8c0.2,1.2-0.1,2.4-0.9,3.4
		c-0.2,0.2-0.2,0.5-0.2,0.8c0.4,3.4-1.4,6.6-4.5,8.1c-0.5,0.2-0.8,0.5-1,1c-0.4,1-1.1,1.7-2.1,2.1c-0.5,0.2-0.7,0.5-0.9,0.9
		c-1.6,3.1-4.1,4.5-7.5,4.5c-0.2,0-0.4,0-0.6-0.1c-0.3-0.1-0.5,0-0.7,0.2c-1,0.8-2.1,1.1-3.3,0.9c-0.4,0-0.6,0-0.9,0.2
		c-2.9,2-6.5,2-9.4,0c-0.3-0.2-0.5-0.3-0.8-0.3c-1.3,0.2-2.4-0.1-3.4-0.9c-0.2-0.2-0.4-0.2-0.7-0.2c-3.6,0.3-6.7-1.5-8.2-4.7
		c-0.2-0.3-0.4-0.6-0.7-0.7c-1.1-0.4-1.9-1.2-2.3-2.3c-0.1-0.3-0.3-0.5-0.6-0.7C103.5,144.6,101.7,141.5,101.8,138.3z M124.3,124.5
		c1.3,2.5,1.3,4.9,0,7.3c3.1-1.2,4.2-1.2,7.2-0.1c-0.2-0.8-0.5-1.6-0.7-2.4c-0.2-0.8-0.2-1.7,0-2.5c0.2-0.8,0.5-1.5,0.8-2.4
		C129.2,125.8,126.8,125.8,124.3,124.5z M123,121.7c1.3,1.8,3.1,2.8,5.3,2.7c2-0.1,3.6-1,4.7-2.7C130.6,119.4,125.8,119.3,123,121.7
		z M131.9,101.3c-2.1-1.8-5.9-1.7-7.8,0c1.2,0.8,1.7,2,2,3.4c0.1,0.6,0.3,1.2,0.5,1.7c1,0,1.9,0,2.9,0c0.2-0.9,0.5-1.8,0.7-2.6
		c0.2-0.9,0.7-1.6,1.4-2.2C131.7,101.5,131.8,101.4,131.9,101.3z M118,103c-2.5-0.5-5.8,1.4-6.7,3.9c0.2,0.1,0.4,0.1,0.6,0.2
		c0.8,0.2,1.5,0.5,2,1.1c0.4,0.4,0.9,0.9,1.3,1.3c0.2,0.2,0.5,0.5,0.7,0.7c0.9-0.5,1.7-1,2.5-1.5c-0.2-0.8-0.4-1.6-0.6-2.3
		c-0.2-0.7-0.3-1.4-0.2-2.2C117.8,103.7,117.9,103.3,118,103z M154.8,132c1.7-2.1,1.7-6-0.1-7.8c-0.8,1.3-2.1,1.7-3.5,2
		c-0.5,0.1-1.1,0.3-1.6,0.4c0,0.5,0,1,0,1.5c0,0.5,0,0.9,0,1.4c0.9,0.2,1.8,0.5,2.6,0.7c0.9,0.2,1.6,0.7,2.2,1.3
		C154.5,131.7,154.6,131.8,154.8,132z M103,118.1c1.4-0.7,2.8-0.4,4.1,0c0.5,0.2,1,0.3,1.5,0.4c0.5-0.9,1-1.7,1.5-2.5
		c-0.5-0.5-0.9-1-1.4-1.4c-1-0.9-1.6-1.9-1.8-3.2c0,0-0.1-0.1-0.1-0.1C104,112.4,102.5,116,103,118.1z M137.6,147.5
		c0.2,0.8,0.4,1.6,0.6,2.4c0.3,1,0.3,1.9-0.1,2.8c-0.1,0.1-0.1,0.3-0.1,0.4c2.9,0.5,6.2-1.9,6.7-3.9c0,0-0.1-0.1-0.1-0.1
		c-1.2-0.1-2.1-0.7-2.9-1.6c-0.4-0.4-0.7-0.8-1.1-1.1c-0.1-0.1-0.3-0.3-0.4-0.4C139.2,146.6,138.4,147,137.6,147.5z M149.2,111.3
		c-0.1,1.5-0.9,2.5-1.9,3.4c-0.4,0.4-0.8,0.9-1.3,1.3c0.5,0.9,1,1.7,1.5,2.5c0.9-0.2,1.8-0.5,2.6-0.7c0.8-0.2,1.7-0.2,2.5,0.1
		c0.2,0.1,0.4,0.1,0.6,0.1C153.6,115.3,151.6,112.1,149.2,111.3z M106.4,129.5c0-1,0-2,0-2.9c-0.9-0.2-1.7-0.5-2.5-0.7
		c-0.9-0.2-1.7-0.7-2.3-1.4c-0.1-0.1-0.2-0.2-0.3-0.4c-1.9,2.3-1.6,6.2,0,7.8c0.8-1.2,1.9-1.6,3.2-1.9
		C105.2,129.9,105.8,129.7,106.4,129.5z M149.2,144.8c2.4-0.6,4.6-4.5,3.9-6.7c-0.1,0-0.1,0-0.2,0c-1.1,0.4-2.2,0.4-3.3,0
		c-0.7-0.2-1.4-0.4-2.1-0.6c-0.5,0.9-1,1.7-1.5,2.6c0.5,0.5,1,0.9,1.5,1.4C148.4,142.4,149.1,143.4,149.2,144.8z M140.2,110.1
		c0.4-0.5,0.9-0.9,1.3-1.4c0.9-1,1.9-1.7,3.2-1.9c0,0,0.1-0.1,0.1-0.1c-1.1-2.5-4.4-4.4-6.7-3.8c0.1,0.5,0.3,1,0.3,1.5
		c0,0.8-0.2,1.5-0.3,2.2c-0.1,0.6-0.3,1.3-0.5,1.9C138.4,109.1,139.2,109.6,140.2,110.1z M134.6,123.2c-3.6,2.1-3.7,7.6-0.2,9.9
		C136.6,130.8,137,126.2,134.6,123.2z M118.1,153.2c-0.4-0.9-0.5-1.9-0.3-2.8c0.2-0.9,0.5-1.9,0.7-2.8c-0.9-0.5-1.7-1-2.6-1.5
		c-0.6,0.6-1.1,1.2-1.7,1.8c-0.7,0.7-1.5,1.2-2.6,1.4c-0.1,0-0.2,0.1-0.3,0.1C112.2,151.7,115.4,153.6,118.1,153.2z M106.9,144.8
		c0.1-1.5,1-2.5,2-3.5c0.4-0.4,0.8-0.8,1.2-1.2c-0.5-0.9-1-1.7-1.5-2.5c-0.7,0.2-1.3,0.3-1.9,0.5c-1.2,0.4-2.3,0.5-3.5,0
		c-0.1,0-0.1,0-0.2,0C102.4,140.6,104.5,144,106.9,144.8z M124.1,154.8c2.2,1.8,6.2,1.6,7.8-0.1c-1.1-0.8-1.6-1.9-1.9-3.2
		c-0.1-0.4-0.2-0.8-0.3-1.2c-0.2-0.7-0.2-0.7-0.9-0.7c-0.5,0-0.9,0-1.4,0c-0.3,0-0.5,0-0.9,0c-0.2,0.8-0.4,1.6-0.6,2.4
		c-0.2,0.9-0.6,1.6-1.2,2.2C124.5,154.5,124.3,154.6,124.1,154.8z M121.7,133.1c1.8-1.4,2.7-3.1,2.6-5.3c-0.1-2-1.4-4-2.7-4.5
		C119.3,125.9,119.3,130.4,121.7,133.1z M132.9,134.5c-1.3-1.7-2.9-2.6-5.1-2.5c-2,0-3.6,0.9-4.8,2.5
		C125.8,136.8,130.4,136.8,132.9,134.5z M113.8,111.9c0.5-0.4,0.9-0.8,1.4-1.1c-0.8-0.8-1.5-1.5-2.3-2.2c-1.2-1-2.9-0.8-4,0.3
		c-1.1,1.1-1.2,2.8-0.3,4c0.6,0.8,1.4,1.5,2.2,2.3c0.4-0.5,0.8-0.9,1.2-1.5c-0.3-0.3-0.6-0.5-0.9-0.7c-0.4-0.3-0.7-0.7-1-1
		c-0.4-0.4-0.4-1.1-0.1-1.6c0.3-0.5,0.9-0.7,1.5-0.6c0.3,0.1,0.6,0.3,0.8,0.5C112.7,110.8,113.2,111.3,113.8,111.9z M136.6,108.2
		c0.2-0.9,0.5-1.8,0.7-2.6c0.4-1.6-0.5-3.3-2.1-3.7c-1.6-0.5-3.3,0.4-3.8,2c-0.2,0.7-0.4,1.4-0.6,2.1c0,0.2-0.1,0.4-0.1,0.6
		c0.5,0.1,0.9,0.2,1.3,0.2c0.1,0,0.2,0,0.3,0c0.1-0.3,0.2-0.5,0.2-0.7c0.2-0.5,0.3-1.1,0.5-1.6c0.2-0.7,0.9-1.1,1.5-0.9
		c0.7,0.1,1.1,0.7,1.1,1.5c0,0.2-0.1,0.4-0.2,0.7c-0.2,0.6-0.3,1.2-0.5,1.9C135.5,107.8,136,108,136.6,108.2z M123.8,106.9
		c0.6-0.1,1.1-0.2,1.7-0.3c-0.3-1-0.5-2-0.8-2.9c-0.5-1.4-2-2.2-3.5-1.9c-1.5,0.3-2.5,1.6-2.5,3.1c0.1,1.1,0.5,2.2,0.8,3.3
		c0.6-0.2,1-0.4,1.6-0.6c-0.1-0.3-0.1-0.5-0.2-0.7c-0.2-0.6-0.3-1.2-0.5-1.8c-0.1-0.7,0.3-1.3,0.9-1.5c0.6-0.2,1.3,0.1,1.6,0.7
		c0.1,0.2,0.1,0.4,0.2,0.6C123.4,105.5,123.6,106.2,123.8,106.9z M107.5,135c-0.3,0.1-0.6,0.2-0.9,0.2c-0.5,0.1-1,0.3-1.6,0.4
		c-0.8,0.1-1.4-0.3-1.6-1c-0.2-0.7,0.2-1.3,0.9-1.6c0.2-0.1,0.4-0.1,0.7-0.2c0.6-0.2,1.1-0.3,1.7-0.5c-0.1-0.6-0.2-1.1-0.3-1.7
		c-0.8,0.2-1.6,0.4-2.3,0.6c-0.3,0.1-0.5,0.2-0.8,0.3c-1.4,0.7-2.1,2.3-1.6,3.8c0.5,1.5,2,2.4,3.6,2c0.8-0.2,1.5-0.4,2.3-0.6
		c0.1,0,0.3-0.1,0.4-0.2C107.9,136,107.7,135.5,107.5,135z M149.5,125.5c0.9-0.3,1.8-0.5,2.7-0.7c1.6-0.5,2.5-2.2,2-3.8
		c-0.5-1.7-2.1-2.6-3.8-2.2c-0.7,0.2-1.4,0.4-2.1,0.5c-0.2,0-0.3,0.1-0.5,0.2c0.2,0.5,0.4,1,0.6,1.5c0.8-0.2,1.5-0.4,2.3-0.6
		c0.8-0.2,1.5,0.2,1.7,0.9c0.2,0.8-0.2,1.5-1,1.7c-0.5,0.1-0.9,0.2-1.4,0.4c-0.3,0.1-0.6,0.2-0.9,0.3
		C149.4,124.4,149.4,124.9,149.5,125.5z M148,136.6c0.9,0.2,1.8,0.5,2.6,0.7c1.5,0.4,3.1-0.5,3.6-2c0.5-1.4-0.1-3.1-1.5-3.8
		c-1-0.5-2.1-0.6-3.2-1c-0.1,0.6-0.2,1.2-0.2,1.7c0.3,0.1,0.6,0.2,0.8,0.2c0.5,0.2,1.1,0.3,1.6,0.5c0.6,0.2,0.9,0.8,0.8,1.5
		c-0.1,0.6-0.6,1.1-1.3,1c-0.3,0-0.6-0.1-0.9-0.2c-0.6-0.1-1.2-0.3-1.8-0.4c-0.1,0.3-0.2,0.6-0.3,0.9
		C148.1,136.1,148.1,136.3,148,136.6z M108.1,119.6c-0.6-0.3-2.7-0.9-3.3-0.9c-1.5,0-2.7,1-3,2.5c-0.3,1.4,0.5,3,1.9,3.5
		c0.9,0.3,1.9,0.5,2.9,0.8c0.1-0.6,0.2-1.1,0.3-1.7c-0.8-0.2-1.6-0.4-2.3-0.6c-0.8-0.2-1.2-0.9-1-1.7c0.2-0.7,0.9-1.1,1.7-0.9
		c0.6,0.1,1.2,0.3,1.8,0.5c0.2,0,0.4,0.1,0.6,0.1C107.8,120.5,108,120.1,108.1,119.6z M110.7,141c-0.8,0.8-1.5,1.5-2.2,2.3
		c-0.9,1.2-0.8,2.8,0.3,3.9c1,1.1,2.7,1.3,3.9,0.5c0.9-0.6,1.6-1.5,2.4-2.3c-0.5-0.4-0.9-0.7-1.5-1.2c-0.3,0.4-0.6,0.8-0.9,1.1
		c-0.3,0.3-0.5,0.6-0.8,0.8c-0.5,0.4-1.1,0.3-1.6,0c-0.4-0.3-0.6-1-0.4-1.5c0.1-0.3,0.3-0.5,0.5-0.7c0.5-0.5,1-1,1.5-1.5
		C111.4,141.9,111.1,141.5,110.7,141z M130.6,149.6c0.3,1.1,0.5,2.1,0.9,3.1c0.5,1.3,2.1,2,3.4,1.7c1.4-0.3,2.6-1.6,2.4-3
		c-0.1-1.1-0.5-2.2-0.7-3.3c-0.6,0.2-1.1,0.4-1.7,0.6c0.1,0.5,0.3,1,0.4,1.4c0.1,0.4,0.2,0.8,0.3,1.3c0,0.7-0.4,1.2-1.1,1.3
		c-0.6,0.1-1.2-0.2-1.5-0.8c-0.1-0.2-0.1-0.5-0.2-0.7c-0.2-0.6-0.3-1.2-0.5-1.8C131.7,149.4,131.2,149.5,130.6,149.6z M119.5,148
		c-0.2,0.7-0.4,1.4-0.6,2c-0.1,0.3-0.2,0.5-0.2,0.8c-0.2,1.6,0.6,3,2.1,3.5c1.4,0.5,3-0.1,3.7-1.4c0.5-1,0.7-2.1,0.9-3.2
		c-0.2-0.1-0.3-0.1-0.4-0.1c-0.4-0.1-0.8-0.1-1.3-0.2c-0.1,0.3-0.2,0.6-0.3,0.9c-0.1,0.5-0.2,1-0.4,1.5c-0.3,0.7-0.9,1-1.7,0.8
		c-0.6-0.2-1.1-0.8-0.9-1.5c0.1-0.6,0.3-1.1,0.4-1.7c0.1-0.2,0.1-0.5,0.2-0.7C120.5,148.4,120.1,148.2,119.5,148z M141,145.4
		c0.7,0.7,1.3,1.3,1.9,1.9c1.2,1.1,3.1,1.1,4.3,0c1.2-1.1,1.3-3,0.2-4.2c-0.6-0.7-1.3-1.3-2-2c-0.4,0.5-0.7,0.9-1.1,1.3
		c0.2,0.2,0.4,0.4,0.6,0.6c0.4,0.4,0.8,0.7,1.1,1.1c0.5,0.6,0.5,1.4,0,1.9c-0.5,0.5-1.3,0.5-1.9,0c-0.3-0.3-0.6-0.6-0.9-0.9
		c-0.3-0.3-0.5-0.5-0.8-0.8C141.9,144.7,141.5,145,141,145.4z M142.3,111.8c0.2-0.2,0.4-0.4,0.6-0.6c0.4-0.4,0.7-0.7,1.1-1.1
		c0.6-0.6,1.4-0.6,2,0c0.5,0.6,0.5,1.3-0.1,2c-0.3,0.3-0.6,0.6-1,1c-0.2,0.2-0.4,0.5-0.7,0.7c0.4,0.5,0.7,0.9,1.1,1.3
		c0.8-0.7,1.5-1.4,2.2-2.1c1-1.2,0.9-3-0.3-4.1c-1.1-1.1-2.8-1.3-4-0.3c-0.8,0.6-1.4,1.5-2.1,2.2
		C141.4,111.1,141.8,111.5,142.3,111.8z M125.1,107.8c0.1,0.4,0.1,0.7,0.1,0.9c0.5,2.6,0.9,5.1,1.4,7.7c0.1,0.6,0.2,1.3,0.3,1.9
		c0.1,0.3,0.2,0.6,0.5,0.3c0.2-1.2,0.1-10.5-0.1-11.1C126.6,107.7,125.9,107.8,125.1,107.8z M132.3,108.1c-0.4,0.9-2,10.4-1.9,11
		c0.5,0.1,0.5-0.3,0.5-0.6c1.1-3.1,2.2-6.1,3.3-9.2c0.1-0.2,0.1-0.4,0.2-0.7C133.7,108.5,133,108.3,132.3,108.1z M121.6,108.7
		c0.1,0.2,0.1,0.3,0.1,0.4c1.2,3.2,2.3,6.3,3.5,9.5c0.1,0.2,0.1,0.6,0.5,0.5c0.3-0.1,0.1-0.4,0.1-0.7c-0.4-2.5-0.9-5-1.3-7.5
		c-0.2-0.9-0.3-1.8-0.5-2.8C123.1,108.3,122.4,108.4,121.6,108.7z M137.8,110.1c-0.7-0.4-1.4-0.8-2.1-1c-0.1,0.2-0.2,0.4-0.2,0.6
		c-1.1,3.1-2.2,6.1-3.3,9.2c-0.1,0.2-0.4,0.6,0,0.7c0.4,0.2,0.4-0.3,0.5-0.5c1.6-2.8,3.2-5.6,4.8-8.4
		C137.6,110.6,137.7,110.4,137.8,110.1z M123.9,119.9c0.1-0.3,0.3-0.4,0.3-0.5c0-0.1-0.1-0.3-0.1-0.4c-1.1-3.1-2.2-6.1-3.4-9.2
		c-0.1-0.2-0.2-0.4-0.3-0.6c-0.7,0.3-1.4,0.7-2.1,1C120.1,113.4,122,116.6,123.9,119.9z M112.6,114.6c0.2,0.2,0.3,0.2,0.4,0.3
		c2.6,2.2,5.1,4.3,7.7,6.5c0.1,0.1,0.2,0.1,0.2,0.2c0.2,0.2,0.4,0,0.5-0.2c-2.3-2.8-4.7-5.6-7.1-8.4
		C113.8,113.5,113.3,114,112.6,114.6z M108,124.1c0.4,0.1,0.6,0.2,0.9,0.2c2.2,0.4,4.5,0.8,6.7,1.2c0.9,0.2,1.8,0.3,2.8,0.5
		c0.2,0,0.6,0.2,0.7-0.4c-3.5-1.3-6.9-2.5-10.4-3.8C108.4,122.6,108.2,123.3,108,124.1z M133.6,120.7c2.4-2.9,4.8-5.7,7.2-8.6
		c-0.7-0.5-1.3-0.9-1.9-1.4c-0.1,0.2-0.3,0.3-0.3,0.5c-1.7,2.9-3.3,5.7-5,8.6c-0.1,0.1-0.2,0.3-0.2,0.4
		C133.4,120.3,133.5,120.5,133.6,120.7z M115.3,112.1c2.4,2.9,4.8,5.7,7.1,8.5c0.6-0.3,0.2-0.6,0.1-0.8c-1.6-2.9-3.3-5.7-5-8.6
		c-0.1-0.1-0.2-0.3-0.3-0.5C116.6,111.2,116,111.6,115.3,112.1z M144.2,115.5c-2.9,2.4-5.7,4.8-8.5,7.2c0.3,0.6,0.6,0.2,0.8,0.1
		c2.8-1.6,5.6-3.2,8.5-4.9c0.2-0.1,0.4-0.2,0.6-0.4C145.1,116.8,144.7,116.2,144.2,115.5z M110.6,117.4c0.2,0.1,0.3,0.3,0.5,0.3
		c2.9,1.7,5.7,3.3,8.6,5c0.1,0.1,0.2,0.1,0.3,0.2c0.3,0.1,0.4,0,0.4-0.3c-2.8-2.3-5.6-4.7-8.5-7.1
		C111.5,116.2,111,116.8,110.6,117.4z M136.6,124.5c3.5-1.3,7-2.5,10.5-3.8c-0.4-0.8-0.7-1.4-1-2.2c-0.2,0.1-0.3,0.1-0.4,0.2
		c-2.9,1.7-5.8,3.4-8.8,5.1c-0.1,0.1-0.3,0.1-0.3,0.2C136.6,124.1,136.6,124.3,136.6,124.5z M137.1,125.9c0.1,0,0.2,0.1,0.3,0.1
		c3.5-0.6,7-1.2,10.6-1.9c-0.2-0.8-0.3-1.6-0.7-2.3c-2.9,1.1-5.7,2.1-8.6,3.1c-0.5,0.2-1,0.4-1.4,0.5
		C137.2,125.5,137,125.6,137.1,125.9z M134.8,121.6c0.1,0,0.1,0,0.2,0c2.8-2.3,5.6-4.7,8.4-7.1c-0.6-0.6-1.1-1.1-1.7-1.7
		c-0.2,0.2-0.4,0.4-0.6,0.6c-2,2.4-4,4.8-6,7.2c-0.1,0.2-0.3,0.3-0.4,0.5C134.7,121.3,134.7,121.5,134.8,121.6z M110,118.5
		c-0.4,0.8-0.7,1.5-1,2.2c0.2,0.1,0.3,0.2,0.4,0.2c3.2,1.2,6.3,2.3,9.5,3.5c0.2,0.1,0.5,0.3,0.6-0.1c0.1-0.3-0.2-0.4-0.4-0.5
		c-1.9-1.1-3.8-2.2-5.7-3.3C112.3,119.8,111.2,119.2,110,118.5z M108.7,134.7c1.9-0.7,3.7-1.3,5.5-2c1.5-0.5,3-1.1,4.4-1.6
		c0.2-0.1,0.5-0.1,0.4-0.5c-0.6-0.1-10.2,1.5-11,1.9C108.3,133.2,108.4,133.9,108.7,134.7z M137,130.4c0.1,0.3,0.1,0.4,0.1,0.5
		c0.1,0.1,0.3,0.1,0.4,0.2c3.1,1.1,6.2,2.3,9.3,3.4c0.2,0.1,0.3,0.1,0.6,0.1c0.2-0.7,0.4-1.5,0.6-2.3
		C144.4,131.7,140.7,131.1,137,130.4z M127.4,137.4c-0.2,0.1-0.4,0.1-0.4,0.2c-0.1,0.2-0.1,0.4-0.1,0.6c-0.6,3.2-1.1,6.4-1.7,9.6
		c0,0.2,0,0.4,0,0.6c0.8,0.1,1.5,0.1,2.3,0.2C127.4,144.8,127.4,141.1,127.4,137.4z M118.7,128.9c-0.6-0.2-10.4-0.2-11.1,0
		c0,0.3,0,0.5,0,0.8c0,0.4,0.1,0.9,0.2,1.4c0.3,0,0.5,0,0.7-0.1c2.2-0.4,4.5-0.8,6.7-1.2c1-0.2,2-0.4,3.1-0.6
		C118.6,129.3,118.8,129.3,118.7,128.9z M119.8,132.3c-0.4-0.4-0.6-0.2-0.9-0.1c-3.1,1.1-6.2,2.2-9.2,3.4c-0.2,0.1-0.4,0.2-0.6,0.3
		c0.3,0.7,0.7,1.4,1,2.1C113.4,136,116.5,134.2,119.8,132.3z M118.9,127.6c-0.2-0.2-0.3-0.4-0.4-0.4c-0.2-0.1-0.4-0.1-0.7-0.1
		c-2.8-0.5-5.7-1-8.5-1.5c-0.5-0.1-1-0.1-1.5-0.2c-0.1,0.8-0.1,1.5-0.2,2.3C111.3,127.6,115,127.6,118.9,127.6z M134.4,147.6
		c0-0.2,0-0.3,0-0.3c-1.2-3.3-2.4-6.5-3.6-9.8c0-0.1-0.1-0.2-0.1-0.3c0,0,0,0-0.1,0c0,0-0.1,0-0.1,0c-0.3,0.3-0.3,0.3,0.1,2.1
		c0.1,0.7,0.3,1.5,0.4,2.2c0.1,0.7,0.3,1.4,0.4,2.2c0.1,0.7,0.2,1.5,0.4,2.2c0.2,0.7,0.2,1.5,0.5,2.2
		C133,147.9,133.6,147.8,134.4,147.6z M148.5,128.9c-3.8,0-7.4,0-11.2,0c0.2,0.2,0.2,0.4,0.3,0.4c0.2,0.1,0.5,0.1,0.7,0.2
		c2.5,0.4,5,0.9,7.5,1.3c0.8,0.1,1.6,0.3,2.5,0.4C148.4,130.4,148.4,129.7,148.5,128.9z M128.7,118.9c0.2-0.2,0.4-0.2,0.4-0.3
		c0.1-0.2,0.1-0.4,0.2-0.7c0.5-2.9,1-5.7,1.5-8.6c0.1-0.5,0.1-0.9,0.2-1.5c-0.8-0.1-1.6-0.1-2.3-0.2
		C128.7,111.4,128.7,115.1,128.7,118.9z M137.4,127.6c3.7,0,7.3,0,11.1,0c-0.1-0.8-0.1-1.5-0.2-2.3c-0.3,0-0.5,0-0.7,0.1
		c-2.3,0.4-4.5,0.8-6.7,1.2c-1,0.2-2,0.4-3.1,0.6C137.6,127.2,137.3,127.2,137.4,127.6z M147,135.8c-1.5-0.7-9.9-3.7-10.5-3.7
		c-0.2,0.5,0.2,0.5,0.5,0.6c2.9,1.7,5.7,3.3,8.6,5c0.1,0.1,0.3,0.1,0.5,0.2C146.4,137.2,146.7,136.5,147,135.8z M120.5,133.6
		c-0.2-0.4-0.5-0.1-0.7,0c-2.9,1.7-5.8,3.3-8.7,5c-0.1,0.1-0.3,0.2-0.4,0.3c0.3,0.5,0.7,1,1,1.4c0.1,0.1,0.2,0.3,0.3,0.4
		C113.1,140.2,120.2,134.1,120.5,133.6z M123.9,148.2c0.1-0.3,0.1-0.6,0.2-0.8c0.4-2.1,0.7-4.1,1.1-6.2c0.2-1.1,0.4-2.2,0.6-3.3
		c0-0.3,0.2-0.6-0.3-0.9c-0.7,1.7-1.3,3.5-1.9,5.2c-0.6,1.7-1.3,3.5-1.9,5.3C122.4,147.7,123.1,147.9,123.9,148.2z M140.7,144.2
		c-1.2-1.5-2.4-2.9-3.6-4.3c-1.2-1.4-2.3-2.9-3.6-4.2c-0.4,0.4-0.1,0.6,0,0.8c1.6,2.8,3.3,5.7,4.9,8.5c0.1,0.2,0.2,0.3,0.4,0.5
		C139.4,145.1,140,144.7,140.7,144.2z M114.5,143.4c2.4-2.9,4.8-5.7,7.1-8.5c-0.3-0.5-0.5-0.1-0.7,0c-2.5,2.1-5.1,4.2-7.6,6.4
		c-0.2,0.1-0.3,0.2-0.6,0.4C113.4,142.4,113.9,142.9,114.5,143.4z M135.5,133.8c2.8,2.4,5.6,4.7,8.5,7.1c0.5-0.7,0.9-1.3,1.4-1.9
		c-0.3-0.2-0.5-0.3-0.7-0.4c-2.3-1.3-4.5-2.6-6.8-3.9c-0.6-0.4-1.2-0.7-1.8-1.1C135.9,133.4,135.7,133.4,135.5,133.8z M131.8,136.7
		c1.2,3.4,2.5,6.8,3.8,10.4c0.8-0.4,1.4-0.7,2.1-1c-0.1-0.2-0.2-0.4-0.3-0.5c-1.5-2.6-3-5.2-4.5-7.7c-0.2-0.4-0.4-0.7-0.6-1.1
		C132.2,136.6,132.1,136.5,131.8,136.7z M117.4,145.6c1.9-3.3,3.7-6.4,5.6-9.6c-0.4-0.4-0.6,0-0.7,0.2c-2.1,2.5-4.3,5.1-6.4,7.7
		c-0.1,0.1-0.2,0.3-0.3,0.5C116.1,144.7,116.7,145.1,117.4,145.6z M120.5,147.1c0.1-0.3,0.2-0.6,0.3-0.8c0.9-2.6,1.9-5.2,2.8-7.8
		c0.2-0.5,0.4-1,0.6-1.5c0.1-0.2,0.1-0.4-0.3-0.5c-1.8,3.1-3.7,6.3-5.5,9.6C119.1,146.5,119.8,146.8,120.5,147.1z M134.7,134.6
		c-0.1,0.2-0.2,0.4-0.2,0.4c0.1,0.2,0.2,0.3,0.3,0.4c2.1,2.5,4.1,4.9,6.2,7.4c0.2,0.2,0.3,0.4,0.5,0.5c0.7-0.5,1.3-1.2,1.6-1.7
		C140.4,139.3,137.6,137,134.7,134.6z M131,148.4c0-0.2,0-0.4,0-0.5c-0.3-2-0.7-3.9-1-5.8c-0.2-1.3-0.5-2.7-0.7-4
		c0-0.2,0-0.5-0.5-0.5c0,3.7,0,7.4,0,11.2C129.5,148.5,130.2,148.4,131,148.4z"/>
</g>
</svg>
