<?xml version="1.0" encoding="utf-8"?>
<!-- Generator: Adobe Illustrator 25.0.0, SVG Export Plug-In . SVG Version: 6.00 Build 0)  -->
<svg version="1.1" id="Layer_1" xmlns="http://www.w3.org/2000/svg" xmlns:xlink="http://www.w3.org/1999/xlink" x="0px" y="0px"
	 viewBox="0 0 100 100" style="enable-background:new 0 0 100 100;" xml:space="preserve">
<style type="text/css">
	.st0{opacity:0.4;}
	.st1{fill:#FFFFFF;}
</style>
<g class="st0">
	<path class="st1" d="M56.7,58.5c0,5.4-2.1,10.3-5.9,14.2c-3.6,3.6-8.8,5.9-13.9,5.9h-7V92h7c9,0,17.3-3.4,23.5-9.8
		c6.2-6.2,9.8-14.7,9.8-23.5V34L56.7,47.4V58.5L56.7,58.5z"/>
	<path class="st1" d="M39.7,38.7c-6.2,6.2-9.8,14.7-9.8,23.5v10.3h6.7c3.6,0,6.7-3.1,6.7-6.7v-3.6c0-5.4,2.1-10.3,5.9-14.2l20.9-21
		V8L39.7,38.7z"/>
</g>
</svg>
