<svg xmlns="http://www.w3.org/2000/svg" xmlns:xlink="http://www.w3.org/1999/xlink" x="0px" y="0px" viewBox="0 0 70 67.5"
	style="enable-background:new 0 0 70 67.5;" xml:space="preserve">
	<style type="text/css">
		.st0 {
			fill: #68c4b4;
		}

		.st1 {
			fill: #68c4b4;
		}
	</style>
	<g>
		<path class="st0" d="M37.5,27.5c0,2.1-0.8,4-2.3,5.5c-1.4,1.4-3.4,2.3-5.4,2.3h-2.7v5.2h2.7c3.5,0,6.7-1.3,9.1-3.8
		c2.4-2.4,3.8-5.7,3.8-9.1v-9.6l-5.2,5.2V27.5L37.5,27.5z" />
		<path class="st0" d="M30.9,19.8c-2.4,2.4-3.8,5.7-3.8,9.1v4h2.6c1.4,0,2.6-1.2,2.6-2.6v-1.4c0-2.1,0.8-4,2.3-5.5l8.1-8.1V7.9
		L30.9,19.8z" />
		<path class="st1" d="M25.8,53.1v-5.8h-4.9c-1.3,0-2.5,0.5-3.4,1.4c-0.9,0.9-1.4,2.1-1.4,3.4c0,2.7,2.2,4.9,4.9,4.9h1.9v2.1h3V57
		h2.6v-3h-1.7C26.2,54,25.8,53.6,25.8,53.1z M22.8,50.3V54h-0.6h-1.2c-0.5,0-1-0.2-1.3-0.6c-0.4-0.4-0.6-0.8-0.6-1.3
		c0-1,0.8-1.9,1.9-1.9H22.8L22.8,50.3z" />
		<path class="st1" d="M66.7,50c-0.4-1.2-1.3-2.2-2.6-2.6c-0.4-0.1-0.8-0.2-1.2-0.2h-1.8l3.1-3.1v-3.9l-7.1,7.1v2.9h5.8
		c0.5,0,1,0.4,1,1V54h-9.1c0.1-0.3,0.1-0.6,0.1-1v-3.2h-3v3.2c0,0.5-0.4,1-1,1h-1.4c0.1-0.3,0.1-0.6,0.1-1v-3.2h-3v3.2
		c0,0.5-0.4,1-1,1h-1.4c0.1-0.3,0.1-0.6,0.1-1v-3.2h-3v3.2c0,0.5-0.4,1-1,1h-1.4c0.1-0.3,0.1-0.6,0.1-1v-3.2h-3v3.2c0,0.5-0.4,1-1,1
		h-1.7v3h33.3v-5.8C66.8,50.8,66.8,50.4,66.7,50z" />
		<path class="st1" d="M13.5,48.7L13.5,48.7c-0.9-0.9-2.1-1.4-3.4-1.4H5.2v5.8c0,0.5-0.4,1-1,1H3.2v3h6.9c1.3,0,2.5-0.5,3.4-1.4
		c0.4-0.4,0.7-0.8,0.9-1.3c0.3-0.7,0.5-1.4,0.5-2.2s-0.2-1.5-0.5-2.2C14.2,49.5,13.9,49.1,13.5,48.7z M12,52.1c0,0.5-0.2,1-0.6,1.3
		S10.6,54,10.1,54H8.2v-3.8h1.9c0.5,0,1,0.2,1.3,0.6C11.8,51.2,12,51.6,12,52.1z" />
		<rect x="29.5" y="54" class="st1" width="3" height="3" />
	</g>
</svg>