<?xml version="1.0" encoding="utf-8"?>
<!-- Generator: Adobe Illustrator 25.0.0, SVG Export Plug-In . SVG Version: 6.00 Build 0)  -->
<svg version="1.1" id="Layer_1" xmlns="http://www.w3.org/2000/svg" xmlns:xlink="http://www.w3.org/1999/xlink" x="0px" y="0px"
	 viewBox="0 0 100 100" style="enable-background:new 0 0 100 100;" xml:space="preserve">
<style type="text/css">
	.st0{fill:#07C499;}
	.circle{
		fill:#07C499;
		animation: opacity 0.6s infinite;
		opacity: 0;
	}
	.st1{
		animation-delay: .1s;
	}
	.st2{
		animation-delay: .2s;
	}
	.st3{
		animation-delay: .3s;
	}
	@keyframes opacity {
		0% {opacity: 0.1;}
		50%{opacity:1;}
		100% {opacity: 0.1;}
	}
</style>
<g>
	<path class="st0" d="M55.9,46.3c0,4.8-1.8,9.1-5.2,12.5C47.5,62,43,64,38.4,64h-6.1v11.8h6.1c8,0,15.2-3,20.7-8.6
		c5.5-5.5,8.6-13,8.6-20.7V24.7L55.9,36.5V46.3L55.9,46.3z"/>
	<path class="st0" d="M40.9,28.8c-5.5,5.5-8.6,13-8.6,20.7v9.1h5.9c3.2,0,5.9-2.7,5.9-5.9v-3.2c0-4.8,1.8-9.1,5.2-12.5l18.4-18.4
		V1.7L40.9,28.8z"/>
</g>
<circle class="circle st1" cx="64.8" cy="94.1" r="4.9"/>
<circle class="circle st2" cx="50" cy="94.1" r="4.9"/>
<circle class="circle st3" cx="35.3" cy="94.1" r="4.9"/>
</svg>
