<svg id="Layer_1" data-name="Layer 1" xmlns="http://www.w3.org/2000/svg" xmlns:xlink="http://www.w3.org/1999/xlink" viewBox="0 0 64 64"><defs><style>.cls-1{fill:url(#linear-gradient);}.cls-2{fill:url(#linear-gradient-2);}.cls-3{fill:url(#linear-gradient-3);}.cls-4{fill:url(#linear-gradient-4);}.cls-5{fill:url(#linear-gradient-5);}.cls-6{fill:url(#linear-gradient-6);}.cls-7{fill:url(#linear-gradient-7);}.cls-8{fill:#fff;}.cls-9{fill:#ff9356;}.cls-10{fill:url(#linear-gradient-8);}.cls-11{fill:url(#linear-gradient-9);}.cls-12{fill:url(#linear-gradient-10);}</style><linearGradient id="linear-gradient" x1="23.29" y1="-40.17" x2="49.15" y2="-66.04" gradientTransform="matrix(1, 0, 0, -1, -0.5, -17.91)" gradientUnits="userSpaceOnUse"><stop offset="0" stop-color="#ffce47"/><stop offset="1" stop-color="#ff9356"/></linearGradient><linearGradient id="linear-gradient-2" x1="34.95" y1="-70.63" x2="34.95" y2="-73.99" gradientTransform="matrix(1, 0, 0, -1, -0.5, -17.91)" gradientUnits="userSpaceOnUse"><stop offset="0" stop-color="#ff9356" stop-opacity="0"/><stop offset="1" stop-color="#ff4181"/></linearGradient><linearGradient id="linear-gradient-3" x1="50.91" y1="-50.29" x2="44.92" y2="-49.24" xlink:href="#linear-gradient-2"/><linearGradient id="linear-gradient-4" x1="18.12" y1="-38.47" x2="43.98" y2="-64.33" gradientTransform="matrix(1, 0, 0, -1, -0.5, -17.91)" gradientUnits="userSpaceOnUse"><stop offset="0" stop-color="#ffe0ea"/><stop offset="1" stop-color="#ff80ab"/></linearGradient><linearGradient id="linear-gradient-5" x1="29.79" y1="-70.16" x2="29.79" y2="-72.57" gradientTransform="matrix(1, 0, 0, -1, -0.5, -17.91)" gradientUnits="userSpaceOnUse"><stop offset="0" stop-color="#ff4181" stop-opacity="0"/><stop offset="1" stop-color="#ff4181"/></linearGradient><linearGradient id="linear-gradient-6" x1="31.79" y1="-72.61" x2="31.56" y2="-67.68" xlink:href="#linear-gradient-5"/><linearGradient id="linear-gradient-7" x1="24.03" y1="-36.04" x2="50.61" y2="-72.47" gradientTransform="matrix(1, 0, 0, -1, -0.5, -17.91)" gradientUnits="userSpaceOnUse"><stop offset="0" stop-color="#fff5d9"/><stop offset="1" stop-color="#ffce47"/></linearGradient><linearGradient id="linear-gradient-8" x1="37.12" y1="-35.42" x2="16.02" y2="-14.33" gradientTransform="matrix(1, 0, 0, -1, -0.5, -17.91)" gradientUnits="userSpaceOnUse"><stop offset="0" stop-color="#ff9356" stop-opacity="0"/><stop offset="1" stop-color="#ff755c"/></linearGradient><linearGradient id="linear-gradient-9" x1="20.26" y1="-29.33" x2="26.7" y2="-35.77" xlink:href="#linear-gradient-7"/><linearGradient id="linear-gradient-10" x1="32.43" y1="-65.91" x2="32.43" y2="-70.28" xlink:href="#linear-gradient-8"/></defs><title>blog</title><path class="cls-1" d="M21,56.71H48.15a3,3,0,0,0,3-3V14.51a3,3,0,0,0-3-2.95H21a3,3,0,0,0-2.95,2.95V53.76a3,3,0,0,0,2.95,3Z"/><path class="cls-2" d="M18.09,47.17v6.59a3,3,0,0,0,2.95,3H48.15a3,3,0,0,0,3-3V47.17Z"/><path class="cls-3" d="M48.15,11.56h-2.4V52.35H51.1V14.51A3,3,0,0,0,48.15,11.56Z"/><path class="cls-4" d="M15.85,55H43a3,3,0,0,0,2.95-3V12.81a3,3,0,0,0-2.95-3H15.85a3,3,0,0,0-2.95,3V52.05a3,3,0,0,0,2.95,3Z"/><path class="cls-5" d="M12.9,46.8v5.25a3,3,0,0,0,2.95,3H43a3,3,0,0,0,2.95-3V46.8Z"/><path class="cls-6" d="M16.62,51.74,19.88,55H43a3,3,0,0,0,2.95-3v-.31Z"/><path class="cls-7" d="M45.75,7.29H25.92a3.26,3.26,0,0,0-2.3,1l-7.11,7.11a3.22,3.22,0,0,0-1,2.3V49.53a2.83,2.83,0,0,0,2.82,2.82H45.75a2.82,2.82,0,0,0,2.81-2.82V10.11a2.82,2.82,0,0,0-2.81-2.82Z"/><path class="cls-8" d="M33.08,16.74H21.84a1.93,1.93,0,0,0-1.93,1.93V27A1.92,1.92,0,0,0,21.84,29H33.08A1.92,1.92,0,0,0,35,27V18.67A1.93,1.93,0,0,0,33.08,16.74Z"/><path class="cls-9" d="M27.61,36h-6.8a.9.9,0,0,1-.9-.9v-1.8a.9.9,0,0,1,.9-.9h6.8a.9.9,0,0,1,.9.9v1.8A.9.9,0,0,1,27.61,36Z"/><path class="cls-9" d="M43.3,36H31.44a.9.9,0,0,1-.9-.9v-1.8a.9.9,0,0,1,.9-.9H43.3a.9.9,0,0,1,.9.9v1.8A.9.9,0,0,1,43.3,36Z"/><path class="cls-9" d="M36.51,41.47H43.3a.9.9,0,0,0,.9-.91v-1.8a.9.9,0,0,0-.9-.9H36.51a.9.9,0,0,0-.9.9v1.8A.9.9,0,0,0,36.51,41.47Z"/><path class="cls-9" d="M20.81,41.47H32.67a.91.91,0,0,0,.91-.91v-1.8a.9.9,0,0,0-.91-.9H20.81a.9.9,0,0,0-.9.9v1.8a.9.9,0,0,0,.9.91Z"/><path class="cls-9" d="M27.61,46.9h-6.8a.9.9,0,0,1-.9-.9V44.19a.9.9,0,0,1,.9-.9h6.8a.9.9,0,0,1,.9.9V46A.91.91,0,0,1,27.61,46.9Z"/><path class="cls-9" d="M43.3,46.9H31.44a.9.9,0,0,1-.9-.9V44.19a.9.9,0,0,1,.9-.9H43.3a.9.9,0,0,1,.9.9V46A.9.9,0,0,1,43.3,46.9Z"/><path class="cls-10" d="M48.56,49.53V10.11a2.82,2.82,0,0,0-2.81-2.82H25.92a3.26,3.26,0,0,0-2.3,1l-7.11,7.11A3.24,3.24,0,0,0,15.62,17L48.54,49.92c0-.12,0-.25,0-.39Z"/><path class="cls-11" d="M15.65,16.87l0,.13h8.63a1.1,1.1,0,0,0,1.1-1.1V7.34l-.21,0a3.52,3.52,0,0,0-1.7.93l-6.86,6.86a3.49,3.49,0,0,0-.93,1.69Z"/><path class="cls-12" d="M15.55,46.8v2.73a2.83,2.83,0,0,0,2.82,2.82H45.75a2.82,2.82,0,0,0,2.81-2.82V46.8Z"/></svg>