<?xml version="1.0" encoding="utf-8"?>
<!-- Generator: Adobe Illustrator 25.0.0, SVG Export Plug-In . SVG Version: 6.00 Build 0)  -->
<svg version="1.1" id="Capa_1" xmlns="http://www.w3.org/2000/svg" xmlns:xlink="http://www.w3.org/1999/xlink" x="0px" y="0px"
	 viewBox="0 0 512 512" style="enable-background:new 0 0 512 512;" xml:space="preserve">
<style type="text/css">
	.st0{fill:#FFFFFF;}
</style>
<g>
	<g>
		<g>
			<g>
				<path class="st0" d="M370.8,29.3v146c0,2.7-1,5.2-2.9,7c-1.8,1.8-4.3,2.9-6.9,2.9h-89.3l-43.9,17.5c-1.1,0.5-2.4,0.8-3.7,0.8
					c-2,0-3.9-0.6-5.6-1.8c-2.7-1.9-4.2-4.9-4.2-8.1v-8.4h-26.6c-2.7,0-5.2-1.1-6.9-2.9c-1.8-1.8-2.9-4.3-2.9-6.9V87.5
					c0-5.4,4.4-9.8,9.8-9.8c5.4,0,9.8,4.4,9.8,9.8v77.9h26.7c2.7,0,5.2,1.1,6.9,2.9c1.8,1.8,2.9,4.3,2.9,6.9v3.8l32.1-12.8
					c1.1-0.5,2.4-0.8,3.7-0.8h81.4V39.1H197.4v21c0,5.4-4.4,9.8-9.8,9.8c-5.4,0-9.8-4.4-9.8-9.8V29.3c0-2.7,1-5.2,2.9-6.9
					c1.7-1.8,4.3-2.9,6.9-2.9H361c2.7,0,5.2,1.1,6.9,2.9C369.8,24.2,370.8,26.8,370.8,29.3z"/>
			</g>
		</g>
	</g>
</g>
<g>
	<g>
		<g>
			<g>
				<path class="st0" d="M443,409h-17.5v-10.8c17.4-15.8,27.4-38.1,27.4-61.4v-26c5.4-27.6,2.8-48.2-8-61.5
					c-6.2-7.6-13.7-11-19.4-12.4V209c0-5.4-4.4-9.8-9.8-9.8h-16.5c-33.6,0-71.5,2.2-94.3,28.1c-16.4,18.7-22.1,45.9-17.5,83.1v26.5
					c0,23.4,10,45.7,27.4,61.5V409h-17.5c-20.5,0-37.2,16.7-37.2,37.2v36.5c0,5.4,4.4,9.8,9.8,9.8h200.7c5.4,0,9.8-4.4,9.8-9.8
					v-36.5C480.3,425.7,463.5,409,443,409z M319.4,240.2c17.5-19.8,50.3-21.4,79.7-21.4h6.8v26.7c0,2.8,1.1,5.4,3,7.2
					c1.8,1.7,4.2,2.6,6.7,2.6h0.7c1.4,0,8.4,0.3,13.4,6.5c2.6,3.1,4.4,7.4,5.4,12.7c-1.5-0.9-3.3-1.5-5.2-1.5c-1.1,0-2.1,0.2-3,0.5
					c-0.1,0-0.2,0-0.4,0.1c-9.7,3-42.9,12.7-63,12.7c-19.8,0-37.9-9.8-41.3-11.8c0,0,0,0,0,0c-1.5-1-3.3-1.5-5.1-1.5
					c-3.1,0-5.9,1.4-7.9,3.9l-3.6,4.8C306.2,263.7,310.9,249.8,319.4,240.2z M306.9,336.8v-24.1l12.9-17.2
					c9,4.2,25.4,10.5,43.7,10.5c18.9,0,45.9-6.9,61.4-11.3l8.4,16.9v25.2c0,34.8-28.3,63.1-63.2,63.1
					C335.2,399.9,306.9,371.6,306.9,336.8z M405.8,411.5v2.2l-18.2,12.2l-7.7-3.8v-2.9C389.1,417.9,397.8,415.4,405.8,411.5z
					 M360.2,419v2.3l-11.3,4.6l-14.6-11.7v-2.7C342.5,415.4,351.2,417.9,360.2,419z M332.8,472.9h-25.9v-7.7h25.9V472.9z
					 M461.6,473.9h-110v-18.5c0-4.9-3.9-8.8-8.8-8.8h-45.6c-4.9,0-8.8,4-8.8,8.8v18.5h-9.7v-27.7c0-10.2,8.3-18.5,18.5-18.5h24.2
					l20.4,16.2c0.1,0.1,0.2,0.2,0.4,0.3c0.1,0.1,0.2,0.1,0.3,0.2c0.1,0,0.1,0.1,0.2,0.1c0.2,0.2,0.5,0.4,0.8,0.5
					c0.2,0.1,0.4,0.2,0.7,0.3l0.3,0c0.1,0,0.2,0.1,0.3,0.1c0.3,0.1,0.6,0.2,0.9,0.2h0l0.3,0.1c0.5,0.1,1,0.1,1.4,0.1h0.9
					c0.2,0,0.4,0,0.5-0.1c0.1,0,0.1,0,0.2,0c0.2,0,0.4,0,0.5-0.1c0.1,0,0.2,0,0.3-0.1c0.2,0,0.3-0.1,0.5-0.1c0.2,0,0.3-0.1,0.5-0.2
					l19-7.6l14.9,7.4h0c0.1,0,0.3,0.1,0.5,0.1c0.1,0,0.1,0,0.2,0.1c0.1,0.1,0.2,0.1,0.4,0.1c0,0,0.1,0,0.1,0l0.2,0.1h0.1
					c0.2,0.1,0.5,0.2,0.7,0.2c0.1,0,0.2,0,0.3,0.1l0.3,0h0.2c0.1,0,0.2,0,0.3,0c0.2,0,0.4,0.1,0.6,0.1c0.4,0,0.8,0,1.2-0.1
					c0.1,0,0.3,0,0.5-0.1c0.2,0,0.4-0.1,0.5-0.1c0.2,0,0.3-0.1,0.4-0.1h0.4l0.2-0.1c0,0,0.1,0,0.1,0c0.1,0,0.2,0,0.2-0.1
					c0.3-0.1,0.6-0.3,0.7-0.4l0.6-0.3l0.1-0.1l25.1-16.7h24.7c10.2,0,18.5,8.3,18.5,18.5V473.9z"/>
			</g>
		</g>
	</g>
</g>
<g>
	<g>
		<g>
			<g>
				<path class="st0" d="M214.9,409h-26.7v-3.6c22.9-15.4,36.5-41,36.5-68.6v-10.9l5.1,1.8c1,0.3,2,0.6,3.3,0.6c2,0,4-0.6,5.6-1.8
					c2.6-1.9,4.2-4.9,4.2-8c0-41.7-8.1-72.9-24.2-92.6c-13.4-16.4-31.8-24.7-54.7-24.7c-24.8,0-48.3,10.1-58,15l-14.7-7
					c-1.3-0.6-2.8-1-4.3-1c-1.7,0-3.3,0.5-4.9,1.4c-2.9,1.7-28.3,18.1-23.2,81.9v45.3c0,27.6,13.6,53.2,36.5,68.6v3.6H69
					c-20.5,0-37.2,16.7-37.2,37.2v36.5c0,5.4,4.4,9.8,9.9,9.8h200.7c5.4,0,9.8-4.4,9.8-9.8v-36.5C252.2,425.7,235.5,409,214.9,409z
					 M89.3,230l12.9,6.1c1.3,0.6,2.8,1,4.3,1c1.6,0,3.2-0.4,4.8-1.2l0.1-0.1l0.1,0c0.9-0.5,26.4-14.8,52.8-14.8
					c18.3,0,32.5,7.2,42.3,21.3c9.6,13.9,15.2,34.8,16.5,62.2l-114.2-40.8c-1-0.3-2-0.6-3.3-0.6c-1.4,0-2.9,0.3-4.3,1l0,0l0,0
					l-22.9,11.5C78.3,248.5,85.3,235.3,89.3,230z M78.8,336.8v-39.6l27.3-13.7l99,35.3v17.9c0,34.8-28.3,63.1-63.1,63.1
					C107.2,399.9,78.8,371.6,78.8,336.8z M168.6,415.2v3.6c0,14.7-11.9,26.7-26.6,26.7c-14.7,0-26.7-12-26.7-26.7v-3.6
					c8.5,2.9,17.5,4.3,26.7,4.3h0.8C151.5,419.5,160.2,418,168.6,415.2z M232.3,472.9H51.5v-26.7c0-9.7,7.8-17.5,17.5-17.5h27.7
					c2.1,9.8,7.4,18.7,15,25.3c8.4,7.2,19.1,11.2,30.2,11.2s21.8-4,30.2-11.2c7.7-6.7,13-15.7,15-25.3h27.6
					c9.7,0,17.5,7.8,17.5,17.5V472.9z"/>
			</g>
		</g>
	</g>
</g>
<g>
	<g>
		<g>
			<g>
				<path class="st0" d="M282.1,138.8v9.1c0,4.3-3.5,7.8-7.8,7.8s-7.8-3.5-7.8-7.8v-9.1c0-4.3,3.5-7.9,7.8-7.9
					S282.1,134.4,282.1,138.8z"/>
				<path class="st0" d="M305.9,79.4c0,8.5-3.3,16.4-9.3,22.4c-3.8,3.8-8.4,6.5-13.5,8v10.6c0,4.2-2.9,7.7-6.9,8.6h0
					c-0.6,0.1-1.2,0.2-1.9,0.2c-0.6,0-1.3-0.1-1.9-0.2h0c-3.9-0.9-6.9-4.4-6.9-8.6v-18.2c0-4.9,4-8.9,8.8-8.9h0.1
					c3.7,0,7.1-1.5,9.8-4.1c2.7-2.6,4.1-6.2,4.1-9.9c0-3.7-1.5-7.2-4.1-9.9c-2.7-2.7-6.2-4.1-9.9-4.1c-3.7,0-7.2,1.5-9.9,4.1
					c-2.6,2.6-4.1,6.2-4.1,9.9c0,4.8-4,8.8-8.8,8.8s-8.8-4-8.8-8.8c0-8.5,3.3-16.4,9.3-22.4c6-6,14-9.3,22.4-9.3
					c8.5,0,16.4,3.3,22.4,9.3C302.7,63.2,305.9,71.1,305.9,79.4z"/>
			</g>
		</g>
	</g>
</g>
</svg>
