<svg id="Layer_1" data-name="Layer 1" xmlns="http://www.w3.org/2000/svg" xmlns:xlink="http://www.w3.org/1999/xlink" viewBox="0 0 64 64"><defs><style>.cls-1{fill:url(#linear-gradient);}.cls-2{fill:url(#linear-gradient-2);}.cls-3{fill:url(#linear-gradient-3);}.cls-4{fill:url(#linear-gradient-4);}.cls-5{fill:url(#linear-gradient-5);}.cls-6{fill:url(#linear-gradient-6);}.cls-7{fill:#8ac9fe;}.cls-8{fill:url(#linear-gradient-7);}.cls-9{fill:url(#linear-gradient-8);}.cls-10{fill:url(#linear-gradient-9);}.cls-11{fill:url(#linear-gradient-10);}.cls-12{fill:#fff;opacity:0.2;isolation:isolate;}.cls-13{fill:url(#linear-gradient-11);}.cls-14{fill:url(#linear-gradient-12);}.cls-15{fill:url(#linear-gradient-13);}.cls-16{fill:url(#linear-gradient-14);}.cls-17{fill:url(#linear-gradient-15);}.cls-18{fill:url(#linear-gradient-16);}.cls-19{fill:url(#linear-gradient-17);}.cls-20{fill:url(#linear-gradient-18);}.cls-21{fill:url(#linear-gradient-19);}</style><linearGradient id="linear-gradient" x1="45.44" y1="138.86" x2="50.64" y2="130.75" gradientTransform="matrix(1, 0, 0, -1, 0.49, 150.42)" gradientUnits="userSpaceOnUse"><stop offset="0" stop-color="#eaf6ff"/><stop offset="1" stop-color="#b3dafe"/></linearGradient><linearGradient id="linear-gradient-2" x1="49.23" y1="136.29" x2="36.91" y2="136.29" gradientTransform="matrix(1, 0, 0, -1, 0.49, 150.42)" gradientUnits="userSpaceOnUse"><stop offset="0" stop-color="#8ac9fe" stop-opacity="0"/><stop offset="0.07" stop-color="#85c2f3" stop-opacity="0.07"/><stop offset="0.37" stop-color="#6fa2c3" stop-opacity="0.37"/><stop offset="0.64" stop-color="#608ca0" stop-opacity="0.64"/><stop offset="0.86" stop-color="#567e8b" stop-opacity="0.86"/><stop offset="1" stop-color="#537983"/></linearGradient><linearGradient id="linear-gradient-3" x1="47.9" y1="133.67" x2="47.9" y2="127.67" xlink:href="#linear-gradient-2"/><linearGradient id="linear-gradient-4" x1="19.57" y1="139.54" x2="44.46" y2="88.61" xlink:href="#linear-gradient"/><linearGradient id="linear-gradient-5" x1="27.74" y1="99.71" x2="27.74" y2="93.91" gradientTransform="matrix(1, 0, 0, -1, 0.49, 150.42)" gradientUnits="userSpaceOnUse"><stop offset="0" stop-color="#d8ecfe" stop-opacity="0"/><stop offset="0.79" stop-color="#9bd1fe" stop-opacity="0.79"/><stop offset="1" stop-color="#8ac9fe"/></linearGradient><linearGradient id="linear-gradient-6" x1="37.52" y1="117.96" x2="52.34" y2="117.96" xlink:href="#linear-gradient-5"/><linearGradient id="linear-gradient-7" x1="24.61" y1="21.7" x2="32.06" y2="21.7" gradientUnits="userSpaceOnUse"><stop offset="0" stop-color="#a2e62e"/><stop offset="0.12" stop-color="#97df30"/><stop offset="0.34" stop-color="#7acb36"/><stop offset="0.62" stop-color="#4aac3f"/><stop offset="0.96" stop-color="#09804c"/><stop offset="1" stop-color="#017b4e"/></linearGradient><linearGradient id="linear-gradient-8" x1="24.61" y1="17.47" x2="32.06" y2="17.47" xlink:href="#linear-gradient-7"/><linearGradient id="linear-gradient-9" x1="52.69" y1="-372.31" x2="54.69" y2="-370.31" gradientTransform="translate(420.65 98.71) rotate(-90)" gradientUnits="userSpaceOnUse"><stop offset="0" stop-color="#e6e6e6"/><stop offset="1" stop-color="#999"/></linearGradient><linearGradient id="linear-gradient-10" x1="54.66" y1="-370.55" x2="54.66" y2="-374.93" gradientTransform="translate(420.65 98.71) rotate(-90)" gradientUnits="userSpaceOnUse"><stop offset="0" stop-color="#e6e6e6" stop-opacity="0"/><stop offset="0.14" stop-color="#dcdcdc" stop-opacity="0.14"/><stop offset="0.38" stop-color="#c2c2c2" stop-opacity="0.38"/><stop offset="0.69" stop-color="#979797" stop-opacity="0.69"/><stop offset="1" stop-color="#666"/></linearGradient><linearGradient id="linear-gradient-11" x1="65.12" y1="72.97" x2="59.03" y2="66.88" gradientTransform="translate(-31.49 99.39) rotate(-90)" gradientUnits="userSpaceOnUse"><stop offset="0" stop-color="#4d4d4d"/><stop offset="1" stop-color="#333"/></linearGradient><linearGradient id="linear-gradient-12" x1="55.35" y1="63.2" x2="69.24" y2="77.09" xlink:href="#linear-gradient-11"/><linearGradient id="linear-gradient-13" x1="69.25" y1="-388.39" x2="62.84" y2="-381.97" gradientTransform="translate(420.65 98.71) rotate(-90)" gradientUnits="userSpaceOnUse"><stop offset="0" stop-color="#b3b3b3"/><stop offset="1" stop-color="#fff" stop-opacity="0"/></linearGradient><linearGradient id="linear-gradient-14" x1="46.45" y1="-366.67" x2="47.77" y2="-365.34" gradientTransform="translate(420.65 98.71) rotate(-90)" xlink:href="#linear-gradient-11"/><linearGradient id="linear-gradient-15" x1="49.97" y1="-366.3" x2="49.97" y2="-372.17" gradientTransform="translate(420.65 98.71) rotate(-90)" gradientUnits="userSpaceOnUse"><stop offset="0" stop-color="#4d4d4d" stop-opacity="0"/><stop offset="1"/></linearGradient><linearGradient id="linear-gradient-16" x1="49.58" y1="-370.92" x2="53.45" y2="-367.05" xlink:href="#linear-gradient-9"/><linearGradient id="linear-gradient-17" x1="51.19" y1="-367.34" x2="51.19" y2="-373.71" xlink:href="#linear-gradient-10"/><linearGradient id="linear-gradient-18" x1="51.55" y1="-370.69" x2="50.7" y2="-369.83" xlink:href="#linear-gradient-9"/><linearGradient id="linear-gradient-19" x1="50.12" y1="-369.26" x2="49.26" y2="-368.4" xlink:href="#linear-gradient-9"/></defs><title>certificate-search</title><path class="cls-1" d="M45,20H49a3.15,3.15,0,0,0,3.14-3.14v-6a3.6,3.6,0,1,0-7.2,0Z"/><path class="cls-2" d="M45,20H49a3.15,3.15,0,0,0,3.14-3.14v-6a3.6,3.6,0,1,0-7.2,0Z"/><path class="cls-3" d="M52.18,12.05v4.78A3.15,3.15,0,0,1,49,20H45V12.05Z"/><path class="cls-4" d="M48.58,7.21A3.6,3.6,0,0,0,45,10.82V53.64a3.15,3.15,0,0,1-3.14,3.15h-27a3.15,3.15,0,0,1-3.14-3.15V13A5.81,5.81,0,0,1,17.5,7.21Z"/><path class="cls-5" d="M11.69,47.81v5.83a3.15,3.15,0,0,0,3.14,3.15h27A3.15,3.15,0,0,0,45,53.64V47.81Z"/><path class="cls-6" d="M36.2,56.79h5.64A3.15,3.15,0,0,0,45,53.64V10.82a3.61,3.61,0,0,1,3.6-3.61H36.2Z"/><path class="cls-7" d="M32.72,34a1.5,1.5,0,0,0-1.5-1.5H17.52a1.5,1.5,0,1,0,0,3h13.7A1.5,1.5,0,0,0,32.72,34Z"/><path class="cls-7" d="M28.83,41.06a1.5,1.5,0,0,0-1.5-1.5H17.52a1.5,1.5,0,1,0,0,3h9.81A1.5,1.5,0,0,0,28.83,41.06Z"/><path class="cls-7" d="M28.83,48.16a1.5,1.5,0,0,0-1.5-1.5H17.52a1.5,1.5,0,1,0,0,3h9.81A1.5,1.5,0,0,0,28.83,48.16Z"/><path class="cls-8" d="M29.58,20.86a3.65,3.65,0,0,1-1.1,2.63,3.75,3.75,0,0,1-2.58,1.1H24.61v2.48H25.9a5.94,5.94,0,0,0,4.35-1.81,6.23,6.23,0,0,0,1.81-4.35V16.32L29.58,18.8v2.06Z"/><path class="cls-9" d="M26.42,17.18a6.21,6.21,0,0,0-1.81,4.35v1.91h1.24a1.26,1.26,0,0,0,1.24-1.24v-.67a3.64,3.64,0,0,1,1.1-2.63L32.06,15V11.49Z"/><polygon class="cls-10" points="50.78 46.28 47.97 49.08 43.62 44.73 46.42 41.93 50.78 46.28"/><polygon class="cls-11" points="50.24 45.75 46.42 41.93 43.62 44.73 44.63 45.75 50.24 45.75"/><circle class="cls-12" cx="38.66" cy="37.1" r="9.82"/><path class="cls-13" d="M31.26,44.49a10.46,10.46,0,1,0,0-14.79A10.47,10.47,0,0,0,31.26,44.49Zm2.4-2.39a7.07,7.07,0,1,1,10,0A7.06,7.06,0,0,1,33.66,42.1Z"/><path class="cls-14" d="M31.71,30.16a9.82,9.82,0,1,0,13.89,0A9.82,9.82,0,0,0,31.71,30.16ZM44.08,42.53a7.68,7.68,0,1,1,0-10.86A7.68,7.68,0,0,1,44.08,42.53Z"/><path class="cls-15" d="M32.68,37.9c1.24,1.24,3.77.73,5.64-1.14s2.38-4.39,1.14-5.63-3.77-.73-5.64,1.14S31.44,36.66,32.68,37.9Z"/><path class="cls-16" d="M54.07,56.1a43.77,43.77,0,0,0-5.53-5.53A1.42,1.42,0,0,1,48,49a6.18,6.18,0,0,1,2.55-2.54,1.42,1.42,0,0,1,1.61.57,43.61,43.61,0,0,0,5.52,5.52,1.42,1.42,0,0,1,.57,1.61,6.16,6.16,0,0,1-2.54,2.54A1.42,1.42,0,0,1,54.07,56.1Z"/><path class="cls-17" d="M50.52,46.42A6.18,6.18,0,0,0,48,49a1.42,1.42,0,0,0,.57,1.61l.24.2h6.91A42.55,42.55,0,0,1,52.13,47,1.43,1.43,0,0,0,50.52,46.42Z"/><polygon class="cls-18" points="51.84 46.81 48.36 50.28 46.95 48.86 50.42 45.39 51.84 46.81"/><polygon class="cls-19" points="47.34 49.26 48.79 49.26 51.54 46.51 50.42 45.39 46.95 48.86 47.34 49.26"/><path class="cls-20" d="M50.69,45.93l-3.2,3.21a.62.62,0,0,1-.86,0h0a.6.6,0,0,1,0-.86l3.21-3.21a.61.61,0,0,1,.85,0h0A.6.6,0,0,1,50.69,45.93Z"/><path class="cls-21" d="M52.13,47.37l-3.21,3.2a.59.59,0,0,1-.85,0h0a.59.59,0,0,1,0-.85l3.21-3.21a.59.59,0,0,1,.85,0h0A.6.6,0,0,1,52.13,47.37Z"/></svg>