<svg version="1.1" id="Layer_1" xmlns="http://www.w3.org/2000/svg" xmlns:xlink="http://www.w3.org/1999/xlink" x="0px"
	y="0px" viewBox="0 0 64 64" style="enable-background:new 0 0 64 64;" xml:space="preserve" fill="#fff">
	<g>
		<path d="M6.2,14.3c0,1.3,0,2.4,0,3.6c0,0.2,0.2,0.7,0.4,0.7c1.8,0.9,2.6,2.4,2.5,4.5c0,0.9,0,1.9,0,2.6c0,0.9-0.7,1.5-1.5,1.5
		c-2,0-4,0-5.9,0c-1,0-1.7-0.6-1.7-1.5c0-1.1-0.1-2.2,0-3.3c0.1-1.7,0.9-3,2.3-3.6C2.9,18.4,3,18.2,3,17.7c0-1.9,0-3.5,0-5.4
		c0-0.9,0.4-1.5,1.2-1.9C13.1,7.1,22.1,3.8,31,0.5c1.8-0.7,3.4-0.7,5.2,0C44.9,3.8,54,7,62.8,10.3c0.7,0.3,1.3,0.7,1.2,1.7
		c0,0.8-0.6,1.2-1.2,1.5c-8.7,3.3-17.7,6.7-26.6,9.9c-1.9,0.7-3.5,0.7-5.4-0.1c-7.8-3-15.7-5.8-23.6-8.7C6.9,14.5,6.5,14.4,6.2,14.3
		z M57.9,12.2c0-0.1,0-0.1,0-0.2C50.3,9.1,42.6,6.3,35,3.5C33.9,3,33,3.1,31.7,3.6c-7.3,2.6-14.4,5.3-21.7,8c-0.3,0.1-0.6,0.2-1,0.4
		c0.4,0.2,0.7,0.3,0.9,0.4c7.2,2.6,14.2,5.2,21.2,7.8c1.5,0.7,3,0.6,4.6,0c4.8-1.9,9.8-3.5,14.6-5.4C53,13.9,55.5,13,57.9,12.2z
		 M6.1,24.3c0-1,0.4-2.1-0.7-2.8c-0.4-0.2-1.2-0.2-1.7,0c-1,0.7-0.7,1.8-0.7,2.8C4.1,24.3,5.1,24.3,6.1,24.3z" />
		<path d="M51.9,28.8c0,2,0,3.9,0,5.7c0,1-0.4,1.7-1.3,2c-8.8,3.2-17.8,3.9-27,2c-2.3-0.6-4.6-1.3-7-2c-0.9-0.3-1.3-0.8-1.3-1.9
		c0-3.9,0-7.7,0-11.7c0-1.1,0.7-1.9,1.5-1.9c0.9,0,1.5,0.7,1.5,1.9c0,3.3,0,6.7,0,10c0,0.7,0.2,0.9,0.8,1.1
		c9.6,3.1,19.1,3.1,28.6,0.1c0.8-0.3,1.1-0.7,1.1-1.4c0-3.3,0-6.6,0-9.9c0-0.7,0.3-1.4,1-1.5c0.6-0.1,1.2,0.1,1.7,0.4
		c0.3,0.2,0.4,0.8,0.4,1.3C52,24.9,51.9,26.9,51.9,28.8L51.9,28.8z" />
	</g>
	<path
		d="M8.4,51.6c0.1-0.8,0.2-1.7,0.4-2.4c0.3-1.4,0.8-2.9,1.8-4c1-1.2,2.2-1.8,3.9-1.5c3.4,0.4,6.9,0.7,10.3,1
	c2.6,0.2,5.4,0.6,8,0.8c0.8,0.1,1.7-0.1,2.4-0.1c3.9-0.3,7.7-0.8,11.4-1.1c1.8-0.2,3.6-0.3,5.4-0.6c1.4-0.1,2.5,0.4,3.5,1.4
	c1.1,1.3,1.7,2.9,2,4.5c0.2,1,0.2,2,0.3,3c0,1-0.6,1.7-1.5,1.7c-0.2,0-0.4,0-0.8,0c0,0.6,0.1,1.1,0.1,1.8c0.1,1.2,0.1,2.4-0.2,3.6
	c-0.4,1.8-1.8,2.6-3.5,2.4c-3.3-0.4-6.7-0.7-10-1c-1.9-0.2-6.5-0.7-6.8-0.7c-2.5,0.6-5,0.8-7.7,0.4c-0.9,0.1-3.4,0.4-4.3,0.5
	c-3.1,0.3-6.2,0.7-9.1,0.9c-1.2,0.1-2.2-0.4-3.1-1.3c-1.2-1.3-1.8-3.1-2.1-4.7c-0.1-0.7-0.2-1.2-0.3-1.9C8.4,53.1,8.4,52.4,8.4,51.6
	z M25.4,47.6c-0.2,0-0.3-0.1-0.6-0.1c-3.4-0.3-6.8-0.7-10.2-1c-1.4-0.1-1.7,0-2.3,1.3c-0.1,0.2-0.1,0.3-0.2,0.6
	c-0.9,2.4-1,5-0.3,7.5c0.2,0.9,0.7,1.8,1,2.5c0.2,0.6,0.8,0.8,1.4,0.7c2.8-0.3,5.5-0.6,8.3-0.9c1-0.1,1.9-0.2,3-0.3
	c-1.3-1.5-2.1-3.2-2.1-5.2C23.3,50.8,24,49.1,25.4,47.6z M36.6,57.4c4.1,0.4,8,0.8,12,1.2c-0.8-2-1.1-4-1.1-5.9c0-2,0.3-4,1.1-5.9
	c-4.1,0.4-8,0.8-12,1.2c1.1,1.4,1.7,3,1.7,4.7C38.2,54.5,37.7,56,36.6,57.4z M35.4,52.8c0-2.5-2.1-4.6-4.5-4.6
	c-2.5,0-4.5,2.1-4.5,4.5c0,2.5,2,4.6,4.5,4.6C33.3,57.3,35.4,55.3,35.4,52.8z M55,51.3c-0.1-0.6-0.1-1-0.2-1.4
	c-0.2-1.1-0.6-2.2-1.3-3.1c-0.4-0.6-0.9-0.6-1.3,0c-0.3,0.4-0.7,1-1,1.7c-0.4,0.9-0.6,1.9-0.7,2.9C52,51.3,53.4,51.3,55,51.3z
	 M52.5,59.2c0.1-0.2,0.1-0.2,0.1-0.3c0.3-1.4,0.1-3,0-4.4c0-0.1-0.1-0.2-0.2-0.2c-0.7,0-1.3,0-2,0C50.8,56,51,57.9,52.5,59.2z" />
</svg>