<svg id="Layer_1" data-name="Layer 1" xmlns="http://www.w3.org/2000/svg" viewBox="0 0 64 64"><defs><style>.cls-1{fill:#343434;}.cls-2{fill:#e86224;}.cls-3{fill:#68c5b4;}</style></defs><title>footer-icon-certificate</title><path class="cls-1" d="M53.58,35.54a10.37,10.37,0,0,0-6.5-7.38A1.12,1.12,0,0,1,46.26,27q0-3.18,0-6.36c0-3.81,0-7.75,0-11.62a3.38,3.38,0,0,0-3.43-3.47c-4.88,0-9.8,0-14.64,0s-9.8,0-14.65,0V5.28h0v.25a3.44,3.44,0,0,0-2.44,1,3.5,3.5,0,0,0-1,2.48c0,12.76,0,25.71,0,38.5A3.42,3.42,0,0,0,13.6,51c2.8,0,5.82,0,9.54,0H36.31V52c0,.49,0,1,0,1.46,0,1.13,0,2.31,0,3.46a1.47,1.47,0,0,0,.89,1.6h.61L39,57.89c1.28-.72,2.55-1.44,3.82-2.18a1.27,1.27,0,0,1,.64-.19,1.17,1.17,0,0,1,.62.19l3.82,2.18,1.17.65h.6a1.51,1.51,0,0,0,.89-1.61c0-2.09,0-4.21,0-6.26,0-1.38,0-2.75,0-4.13a2,2,0,0,1,.57-1.46A10.41,10.41,0,0,0,53.58,35.54Zm-17.27,12v1H13.81c-1.06,0-1.28-.23-1.28-1.31V9.21c0-1.06.23-1.29,1.29-1.29H42.61c1.06,0,1.29.23,1.29,1.29V27.46h-.49a10.46,10.46,0,0,0-7.65,17.62,1.89,1.89,0,0,1,.56,1.49A8.09,8.09,0,0,0,36.31,47.57Zm11.78,7.69-.75-.42-.41-.23-.88-.5-2-1.12a1.43,1.43,0,0,0-.69-.2,1.36,1.36,0,0,0-.71.22L40.61,54.2l-.66.38-.33.17-.18.1-.73.39V47.38l.68.26a11.12,11.12,0,0,0,4,.78,10.89,10.89,0,0,0,4-.78l.69-.27Zm1-11.6A8,8,0,0,1,43.41,46h0a8.09,8.09,0,1,1,8.13-8.1A8,8,0,0,1,49.11,43.66Z"/><path class="cls-2" d="M35.31,15.15A1.11,1.11,0,0,1,35,16a1.41,1.41,0,0,1-1,.38h-14a1.2,1.2,0,0,1-1.34-1.17,1.15,1.15,0,0,1,.31-.83,1.39,1.39,0,0,1,1-.37H34A1.19,1.19,0,0,1,35.31,15.15Z"/><path class="cls-2" d="M35.31,21.94A1.19,1.19,0,0,1,34,23.11H19.78a1.18,1.18,0,0,1-.37-2.31,1.92,1.92,0,0,1,.47-.05H34a1.37,1.37,0,0,1,1,.36A1.17,1.17,0,0,1,35.31,21.94Z"/><path class="cls-2" d="M29.4,28.65a1.16,1.16,0,0,1-.33.85,1.24,1.24,0,0,1-.91.35H19.83a1.24,1.24,0,0,1-.91-.35,1.19,1.19,0,0,1,.91-2h8.33A1.17,1.17,0,0,1,29.4,28.65Z"/><path class="cls-3" d="M47,36.1c-1.08,1.67-2.24,3.42-3.46,5.19a1.08,1.08,0,0,1-.9.5,1.18,1.18,0,0,1-.66-.2c-.88-.53-1.75-1.12-2.61-1.72a1.16,1.16,0,0,1-.3-1.64,1.17,1.17,0,0,1,1-.52,1.31,1.31,0,0,1,.68.2c.25.15.49.31.74.48l.38.25.42.28.27-.42.51-.76,1.41-2.09.17-.27a5.81,5.81,0,0,1,.4-.57,1.17,1.17,0,0,1,.95-.48,1.2,1.2,0,0,1,.64.19A1.16,1.16,0,0,1,47,36.1Z"/></svg>