<svg id="Layer_1" data-name="Layer 1" xmlns="http://www.w3.org/2000/svg" viewBox="0 0 64 64"><defs><style>.cls-1{fill:#343434;}.cls-2{fill:#e86224;}.cls-3{fill:#68c5b4;}</style></defs><title>footer-icon--support</title><path class="cls-1" d="M53.8,45.84A3.75,3.75,0,0,1,50.54,43a5.28,5.28,0,0,1-.13-1.32c0-3.17.05-6.34,0-9.51a3.92,3.92,0,0,1,3.29-4.32C53.5,19,46.38,9.22,35.1,7.64A21.83,21.83,0,0,0,10.25,27.86l.61.15a3.64,3.64,0,0,1,2.69,3.19c.07.89,0,1.78,0,2.67,0,2.67,0,5.34,0,8a3.7,3.7,0,0,1-3.7,3.95,5.57,5.57,0,0,1-5.14-3.1,5.39,5.39,0,0,1-.66-2.67c0-2.15,0-4.3,0-6.45a5.61,5.61,0,0,1,3-5,.71.71,0,0,0,.45-.66,24.06,24.06,0,0,1,6.05-14.82A23.46,23.46,0,0,1,26,5.51a23.86,23.86,0,0,1,21.89,5.06,23.76,23.76,0,0,1,8.25,14.21c.19,1,.23,2.1.38,3.14a.92.92,0,0,0,.35.59A5.76,5.76,0,0,1,59.9,33.8c0,2.05,0,4.11,0,6.17a5.66,5.66,0,0,1-3,5.15.76.76,0,0,0-.41.74,31,31,0,0,1-.15,4.1,8,8,0,0,1-7.71,6.61q-1.89,0-3.78,0a.58.58,0,0,0-.63.37,3.87,3.87,0,0,1-3.63,2.32c-1.44,0-2.89,0-4.33,0a4,4,0,0,1-3.87-3.9,3.92,3.92,0,0,1,3.47-4.08,38.47,38.47,0,0,1,5.26,0,3.72,3.72,0,0,1,3.11,2.22c.09.17.32.4.48.4,1.46,0,2.93,0,4.38-.07a5.34,5.34,0,0,0,4.72-5.09C53.82,47.78,53.8,46.84,53.8,45.84Zm-42.91-9c0-1.72,0-3.44,0-5.17a1,1,0,0,0-1.15-1.12,3.05,3.05,0,0,0-2.95,3.08q-.06,3.23,0,6.45a3.06,3.06,0,0,0,2.8,3.06c.89,0,1.3-.33,1.3-1.24C10.9,40.22,10.89,38.53,10.89,36.84Zm42.22,0V42c0,.83.41,1.21,1.25,1.18a3.07,3.07,0,0,0,2.86-3.06c0-2.15,0-4.3,0-6.45a3.09,3.09,0,0,0-2.57-3.05c-1-.18-1.54.25-1.54,1.26ZM38.47,56.59h2a1.34,1.34,0,0,0,1.44-1.35,1.31,1.31,0,0,0-1.43-1.35H36.53a1.3,1.3,0,0,0-1.44,1.34,1.34,1.34,0,0,0,1.44,1.36Z"/><path class="cls-2" d="M23.45,40.59c-2.72-.22-4.6-1.45-5.46-4a6.17,6.17,0,0,1-.29-2c0-3.67,0-7.34,0-11a5.71,5.71,0,0,1,5.91-5.93H40.39a5.71,5.71,0,0,1,5.93,5.92q0,5.5,0,11a5.71,5.71,0,0,1-6,6c-2.22,0-4.44,0-6.67,0a1.18,1.18,0,0,0-.92.37c-1.53,1.54-3.05,3.08-4.62,4.59a2.71,2.71,0,0,1-4.39-.74,3.86,3.86,0,0,1-.31-1.39C23.42,42.46,23.45,41.54,23.45,40.59Zm2.72,3.08c.25-.23.41-.36.55-.5,1.55-1.54,3.11-3.08,4.64-4.64A2.1,2.1,0,0,1,33,37.86c2.46,0,4.93,0,7.39,0a3,3,0,0,0,3.22-3.22q0-5.53,0-11.07a2.92,2.92,0,0,0-3.18-3.18H30.19c-2.28,0-4.56,0-6.84,0a2.82,2.82,0,0,0-2.92,2.74q-.06,6,0,12a2.79,2.79,0,0,0,2.49,2.69c.58.07,1.18.05,1.77.07a1.31,1.31,0,0,1,1.44,1.46c0,1.22,0,2.45,0,3.67C26.14,43.18,26.16,43.36,26.17,43.67Z"/><path class="cls-3" d="M34,29.31a2,2,0,1,1-2-2A2,2,0,0,1,34,29.31Z"/><path class="cls-3" d="M25.51,27.35a2,2,0,0,1,0,4,2,2,0,0,1,0-4Z"/><path class="cls-3" d="M40.45,29.34a2,2,0,0,1-2,2,2,2,0,1,1,0-4A2,2,0,0,1,40.45,29.34Z"/></svg>