<svg id="Layer_1" data-name="Layer 1" xmlns="http://www.w3.org/2000/svg" viewBox="0 0 64 64"><title>Artboard 1</title><path d="M33.14,61.85H32a.61.61,0,0,0-.14-.1A3.15,3.15,0,0,1,29.4,59l-.69-4.43c-.14-.91-.29-1.82-.44-2.73a3.73,3.73,0,0,0-.43,0,4.54,4.54,0,0,1-4.08-1.36q-5.07-5.05-10.11-10.13a4.65,4.65,0,0,1-1.41-3c0-.49,0-1,0-1.52a.71.71,0,0,0-.22-.07c-1.84-.29-3.68-.54-5.51-.87a12.68,12.68,0,0,1-2.72-.72,3.1,3.1,0,0,1-1.47-2.06V31a7.09,7.09,0,0,1,.46-1.05c2.05-3.14,4.1-6.27,6.2-9.37A4.13,4.13,0,0,1,12.2,18.7c2.78-.23,5.56-.44,8.34-.68a1.43,1.43,0,0,0,.81-.43c.86-.89,1.67-1.84,2.52-2.74A39.92,39.92,0,0,1,49.23,2.48l3.23-.33h4.77a2.79,2.79,0,0,0,.39.1,4.55,4.55,0,0,1,4.17,4.28,46.23,46.23,0,0,1-.61,11A39.94,39.94,0,0,1,56.49,31a45.3,45.3,0,0,1-9.94,11.69,1.27,1.27,0,0,0-.53,1c-.18,2.69-.42,5.38-.62,8.07a4.74,4.74,0,0,1-2.28,3.78c-1.7,1.12-3.38,2.27-5.09,3.37S34.77,60.85,33.14,61.85ZM54,5.7V5.61c-1.25.09-2.51.15-3.77.28A37,37,0,0,0,36.58,9.68,41.77,41.77,0,0,0,18.74,27.79c-.19.36,0,.52.18.74q8.32,8.32,16.64,16.69a.58.58,0,0,0,.84.11c1.39-.85,2.85-1.59,4.19-2.51A41.65,41.65,0,0,0,53.93,28.39,35.69,35.69,0,0,0,58,14.88c.26-2.58.26-5.19.31-7.78,0-1-.37-1.35-1.39-1.39S55,5.7,54,5.7Zm-36.94,26c0,.1-.1.21-.14.34-.39,1.48-.76,3-1.16,4.44A1.42,1.42,0,0,0,16.26,38c.72.68,1.4,1.4,2.1,2.1q3.87,3.87,7.73,7.75a1.42,1.42,0,0,0,1.46.47c.77-.2,1.56-.32,2.33-.52s1.67-.51,2.5-.76ZM42.35,45.87A39.71,39.71,0,0,1,31.69,51l1.1,7.12L33,58c2.78-1.84,5.57-3.67,8.33-5.54a1.52,1.52,0,0,0,.54-.9,13.24,13.24,0,0,0,.18-1.79C42.15,48.51,42.25,47.25,42.35,45.87ZM18.13,21.72c-1.91.16-3.82.3-5.72.51a1.45,1.45,0,0,0-.83.65C9.79,25.55,8,28.25,6.25,30.94a3.08,3.08,0,0,0-.19.37l7,1.08c.78-1.9,1.44-3.73,2.27-5.47S17.17,23.48,18.13,21.72Z"/><path d="M2.31,59.63a16.68,16.68,0,0,1,1.12-1.37q5.06-5.1,10.15-10.16a2.63,2.63,0,0,1,1.23-.68,1.52,1.52,0,0,1,1.68.79,1.67,1.67,0,0,1-.07,1.91,2.73,2.73,0,0,1-.42.48Q10.81,55.82,5.6,61a11.13,11.13,0,0,1-1.08.84H3.59a2.63,2.63,0,0,1-1.28-1.29Z"/><path d="M2.31,49.37a10,10,0,0,1,1-1.41C5,46.22,6.7,44.52,8.4,42.8a1.8,1.8,0,0,1,1.78-.61A1.71,1.71,0,0,1,11.07,45q-2.86,3-5.84,5.85a1.7,1.7,0,0,1-2.77-.68l-.15-.37Z"/><path d="M14.29,61.85,14,61.72a1.73,1.73,0,0,1-.71-2.85C15.17,56.92,17.09,55,19,53.1a1.74,1.74,0,0,1,2.45,2.46q-2.84,2.89-5.73,5.73a5,5,0,0,1-1,.56Z"/><path d="M43.06,29.68A8.74,8.74,0,1,1,51.85,21,8.68,8.68,0,0,1,43.06,29.68ZM37.89,21a5.24,5.24,0,1,0,10.47,0,5.24,5.24,0,1,0-10.47,0Z"/></svg>