<svg id="Layer_1" data-name="Layer 1" xmlns="http://www.w3.org/2000/svg" xmlns:xlink="http://www.w3.org/1999/xlink" viewBox="0 0 64 64"><defs><style>.cls-1{fill:url(#linear-gradient);}.cls-2{fill:url(#linear-gradient-2);}.cls-3{fill:url(#linear-gradient-3);}.cls-4{fill:url(#linear-gradient-4);}.cls-5{fill:url(#linear-gradient-5);}.cls-6{fill:url(#linear-gradient-6);}.cls-7{fill:url(#linear-gradient-7);}.cls-8{fill:url(#linear-gradient-8);}.cls-9{fill:url(#linear-gradient-9);}.cls-10{fill:url(#linear-gradient-10);}.cls-11{fill:#fff;}.cls-12{fill:url(#linear-gradient-11);}.cls-13{fill:url(#linear-gradient-12);}.cls-14{fill:url(#linear-gradient-13);}</style><linearGradient id="linear-gradient" x1="32.04" y1="269.65" x2="32.04" y2="262.61" gradientTransform="matrix(1, 0, 0, -1, -0.17, 318.75)" gradientUnits="userSpaceOnUse"><stop offset="0" stop-color="#5a5a5a"/><stop offset="1" stop-color="#444"/></linearGradient><linearGradient id="linear-gradient-2" x1="36.62" y1="263.52" x2="36.62" y2="274.31" gradientTransform="matrix(1, 0, 0, -1, -0.17, 318.75)" gradientUnits="userSpaceOnUse"><stop offset="0" stop-color="#433f43" stop-opacity="0"/><stop offset="1" stop-color="#1a1a1a"/></linearGradient><linearGradient id="linear-gradient-3" x1="30.5" y1="292.89" x2="51.35" y2="272.04" xlink:href="#linear-gradient"/><linearGradient id="linear-gradient-4" x1="32.04" y1="278.29" x2="32.04" y2="273.21" xlink:href="#linear-gradient-2"/><linearGradient id="linear-gradient-5" x1="21.44" y1="301.95" x2="46.59" y2="276.8" gradientTransform="matrix(1, 0, 0, -1, -0.17, 318.75)" gradientUnits="userSpaceOnUse"><stop offset="0" stop-color="#dc4955"/><stop offset="1" stop-color="#c4237c"/></linearGradient><linearGradient id="linear-gradient-6" x1="47.17" y1="279.73" x2="40.78" y2="286.12" gradientTransform="matrix(1, 0, 0, -1, -0.17, 318.75)" gradientUnits="userSpaceOnUse"><stop offset="0" stop-color="#d8ecfe" stop-opacity="0"/><stop offset="0.79" stop-color="#fff" stop-opacity="0.79"/><stop offset="1" stop-color="#fff"/></linearGradient><linearGradient id="linear-gradient-7" x1="32.04" y1="264.08" x2="32.04" y2="260.61" xlink:href="#linear-gradient-2"/><linearGradient id="linear-gradient-8" x1="36.79" y1="272.36" x2="30.84" y2="282.04" gradientTransform="matrix(1, 0, 0, -1, -0.17, 318.75)" gradientUnits="userSpaceOnUse"><stop offset="0" stop-color="#8a1958" stop-opacity="0"/><stop offset="1" stop-color="#8a1958"/></linearGradient><linearGradient id="linear-gradient-9" x1="19.13" y1="293.99" x2="26.31" y2="286.81" gradientTransform="matrix(1, 0, 0, -1, -0.17, 318.75)" gradientUnits="userSpaceOnUse"><stop offset="0" stop-color="#eef4ff"/><stop offset="1" stop-color="#cfe7fd"/></linearGradient><linearGradient id="linear-gradient-10" x1="24.44" y1="288.62" x2="25.91" y2="285.9" gradientTransform="matrix(1, 0, 0, -1, -0.17, 318.75)" gradientUnits="userSpaceOnUse"><stop offset="0" stop-color="#8aaadc" stop-opacity="0"/><stop offset="1" stop-color="#8aaadc"/></linearGradient><linearGradient id="linear-gradient-11" x1="38.3" y1="288.63" x2="41.76" y2="285.17" gradientTransform="matrix(1, 0, 0, -1, -0.17, 318.75)" gradientUnits="userSpaceOnUse"><stop offset="0" stop-color="#fee45a"/><stop offset="1" stop-color="#fe9738"/></linearGradient><linearGradient id="linear-gradient-12" x1="38.1" y1="285.78" x2="39.66" y2="284.23" gradientTransform="matrix(1, 0, 0, -1, -0.17, 318.75)" gradientUnits="userSpaceOnUse"><stop offset="0" stop-color="#fe7701" stop-opacity="0"/><stop offset="0.19" stop-color="#f87204" stop-opacity="0.19"/><stop offset="0.43" stop-color="#e7630c" stop-opacity="0.43"/><stop offset="0.71" stop-color="#cb4b19" stop-opacity="0.71"/><stop offset="1" stop-color="#a72b2b"/></linearGradient><linearGradient id="linear-gradient-13" x1="41.15" y1="288.83" x2="42.7" y2="287.27" xlink:href="#linear-gradient-12"/></defs><title>webinar</title><path class="cls-1" d="M45.07,54.7a10.86,10.86,0,0,0-5.6-3.56,4.84,4.84,0,0,1-3.35-4.61V43.1H27.88v3.43a4.84,4.84,0,0,1-3.35,4.61,10.86,10.86,0,0,0-5.6,3.56c-.76,1.07.31,2.34,2,2.34H43.11C44.76,57,45.83,55.77,45.07,54.7Z"/><path class="cls-2" d="M45.07,54.7a10.86,10.86,0,0,0-5.6-3.56,4.84,4.84,0,0,1-3.35-4.61V43.1H27.88v2.45L39.37,57h3.74C44.76,57,45.83,55.77,45.07,54.7Z"/><path class="cls-3" d="M52.37,45.55H11.63A4.67,4.67,0,0,1,7,40.87V11.63A4.67,4.67,0,0,1,11.63,7H52.37A4.67,4.67,0,0,1,57,11.63V40.87a4.67,4.67,0,0,1-4.67,4.68Z"/><path class="cls-4" d="M7,31.31v9.56a4.67,4.67,0,0,0,4.67,4.68H52.37A4.67,4.67,0,0,0,57,40.87V31.31Z"/><path class="cls-5" d="M49.76,42.17H14.24a4,4,0,0,1-4-4V14.29a4,4,0,0,1,4-3.95H49.76a4,4,0,0,1,4,3.95V38.22A4,4,0,0,1,49.76,42.17Z"/><path class="cls-6" d="M42.74,28.79l-4.68,4.68,8.7,8.7h3a4,4,0,0,0,3.73-2.63Z"/><path class="cls-7" d="M24.53,51.14a10.86,10.86,0,0,0-5.6,3.56c-.76,1.07.31,2.34,2,2.34H43.11c1.65,0,2.72-1.27,2-2.34a10.86,10.86,0,0,0-5.6-3.56,4.35,4.35,0,0,1-.63-.25H25.16a4.35,4.35,0,0,1-.63.25Z"/><path class="cls-8" d="M31.18,24.43a3.52,3.52,0,0,0-.92-.78l-8.47-4.88a3.35,3.35,0,0,0-5,2.9v9.77A3.3,3.3,0,0,0,18,34l8.38,8.33H41.79a1.79,1.79,0,0,0,1.79-1.79V36.78Z"/><path class="cls-9" d="M30.2,23.52l-8.46-4.88a3.35,3.35,0,0,0-5,2.9v9.77a3.35,3.35,0,0,0,5,2.9l8.46-4.89a3.35,3.35,0,0,0,0-5.8Z"/><path class="cls-10" d="M30.2,23.52l-8.46-4.88a3.35,3.35,0,0,0-5,2.9v9.77a3.35,3.35,0,0,0,5,2.9l8.46-4.89a3.35,3.35,0,0,0,0-5.8Z"/><path class="cls-11" d="M37.51,19.33H48.69a.74.74,0,1,0,0-1.47H37.51a.74.74,0,1,0,0,1.47Z"/><path class="cls-11" d="M37.51,22.54h8.58a.74.74,0,0,0,0-1.48H37.51a.74.74,0,0,0,0,1.48Z"/><path class="cls-11" d="M48.26,21.06a.74.74,0,0,0,0,1.48h.84a.74.74,0,1,0,0-1.48Z"/><path class="cls-11" d="M37.51,26.2h5.94a.74.74,0,1,0,0-1.47H37.51a.74.74,0,1,0,0,1.47Z"/><path class="cls-12" d="M39.26,33.35l1-1,2.1,2.1a.68.68,0,0,0,1,0l.41-.41a.69.69,0,0,0,0-1L41.65,31l1-1a1,1,0,0,0-.48-1.6l-4.25-.87a1,1,0,0,0-1.12,1.12l.87,4.25a1,1,0,0,0,1.6.48Z"/><path class="cls-13" d="M37.66,32.87a1,1,0,0,0,1.6.48l1-1L36.86,29Z"/><path class="cls-14" d="M42.16,28.37l-3.91-.8,3.4,3.4,1-1a1,1,0,0,0-.48-1.6Z"/></svg>