<svg id="Layer_1" data-name="Layer 1" xmlns="http://www.w3.org/2000/svg" xmlns:xlink="http://www.w3.org/1999/xlink" viewBox="0 0 64 64"><defs><style>.cls-1{fill:url(#linear-gradient);}.cls-2{fill:url(#linear-gradient-2);}.cls-3{fill:url(#linear-gradient-3);}.cls-4{fill:url(#linear-gradient-4);}.cls-5{fill:url(#linear-gradient-5);}.cls-6{fill:url(#linear-gradient-6);}.cls-7{fill:url(#linear-gradient-7);}.cls-8{fill:url(#linear-gradient-8);}.cls-9{fill:url(#linear-gradient-9);}.cls-10{fill:url(#linear-gradient-10);}.cls-11{fill:url(#linear-gradient-11);}.cls-12{fill:url(#linear-gradient-12);}.cls-13{fill:url(#linear-gradient-13);}.cls-14{fill:url(#linear-gradient-14);}.cls-15{fill:url(#linear-gradient-15);}.cls-16{fill:url(#linear-gradient-16);}.cls-17{fill:url(#linear-gradient-17);}.cls-18{fill:url(#linear-gradient-18);}.cls-19{fill:url(#linear-gradient-19);}.cls-20{fill:url(#linear-gradient-20);}.cls-21{fill:url(#linear-gradient-21);}.cls-22{fill:url(#linear-gradient-22);}.cls-23{fill:url(#linear-gradient-23);}.cls-24{fill:url(#linear-gradient-24);}.cls-25{fill:url(#linear-gradient-25);}.cls-26{fill:url(#linear-gradient-26);}.cls-27{fill:url(#linear-gradient-27);}</style><linearGradient id="linear-gradient" x1="7.04" y1="309.19" x2="10.44" y2="309.19" gradientTransform="matrix(1, 0, 0, -1, 0.49, 318.75)" gradientUnits="userSpaceOnUse"><stop offset="0" stop-color="#fee97d"/><stop offset="1" stop-color="#fac600"/></linearGradient><linearGradient id="linear-gradient-2" x1="14.03" y1="309.19" x2="17.43" y2="309.19" xlink:href="#linear-gradient"/><linearGradient id="linear-gradient-3" x1="21.01" y1="309.19" x2="24.41" y2="309.19" xlink:href="#linear-gradient"/><linearGradient id="linear-gradient-4" x1="28" y1="309.19" x2="31.39" y2="309.19" xlink:href="#linear-gradient"/><linearGradient id="linear-gradient-5" x1="34.98" y1="309.19" x2="38.38" y2="309.19" xlink:href="#linear-gradient"/><linearGradient id="linear-gradient-6" x1="41.97" y1="309.19" x2="45.36" y2="309.19" xlink:href="#linear-gradient"/><linearGradient id="linear-gradient-7" x1="17.35" y1="1136.73" x2="20.75" y2="1136.73" gradientTransform="translate(0.49 -1085.53)" xlink:href="#linear-gradient"/><linearGradient id="linear-gradient-8" x1="24.34" y1="1136.73" x2="27.74" y2="1136.73" gradientTransform="translate(0.49 -1085.53)" xlink:href="#linear-gradient"/><linearGradient id="linear-gradient-9" x1="31.32" y1="1136.73" x2="34.72" y2="1136.73" gradientTransform="translate(0.49 -1085.53)" xlink:href="#linear-gradient"/><linearGradient id="linear-gradient-10" x1="38.31" y1="1136.73" x2="41.7" y2="1136.73" gradientTransform="translate(0.49 -1085.53)" xlink:href="#linear-gradient"/><linearGradient id="linear-gradient-11" x1="45.29" y1="1136.73" x2="48.69" y2="1136.73" gradientTransform="translate(0.49 -1085.53)" xlink:href="#linear-gradient"/><linearGradient id="linear-gradient-12" x1="52.28" y1="1136.73" x2="55.67" y2="1136.73" gradientTransform="translate(0.49 -1085.53)" xlink:href="#linear-gradient"/><linearGradient id="linear-gradient-13" x1="13.35" y1="304.88" x2="40.66" y2="277.57" gradientTransform="matrix(1, 0, 0, -1, 0.49, 318.75)" gradientUnits="userSpaceOnUse"><stop offset="0" stop-color="#fd4755"/><stop offset="1" stop-color="#d2024e"/></linearGradient><linearGradient id="linear-gradient-14" x1="26.2" y1="290.92" x2="26.2" y2="272.59" gradientTransform="matrix(1, 0, 0, -1, 0.49, 318.75)" gradientUnits="userSpaceOnUse"><stop offset="0" stop-color="#c00148" stop-opacity="0"/><stop offset="0.15" stop-color="#a7103e" stop-opacity="0.15"/><stop offset="0.35" stop-color="#8e1f33" stop-opacity="0.35"/><stop offset="0.55" stop-color="#7c2a2c" stop-opacity="0.55"/><stop offset="0.76" stop-color="#713128" stop-opacity="0.76"/><stop offset="1" stop-color="#6d3326"/></linearGradient><linearGradient id="linear-gradient-15" x1="12.29" y1="298.66" x2="40.12" y2="298.66" gradientTransform="matrix(1, 0, 0, -1, 0.49, 318.75)" gradientUnits="userSpaceOnUse"><stop offset="0" stop-color="#a2e62e"/><stop offset="0.12" stop-color="#97de30"/><stop offset="0.34" stop-color="#79cb36"/><stop offset="0.62" stop-color="#4aab3f"/><stop offset="0.96" stop-color="#09804c"/><stop offset="1" stop-color="#017b4e"/></linearGradient><linearGradient id="linear-gradient-16" x1="17.36" y1="296" x2="36.72" y2="276.64" xlink:href="#linear-gradient-15"/><linearGradient id="linear-gradient-17" x1="16.96" y1="291.94" x2="16.96" y2="286.2" gradientTransform="matrix(1, 0, 0, -1, 0.49, 318.75)" gradientUnits="userSpaceOnUse"><stop offset="0" stop-color="#017b4e" stop-opacity="0"/><stop offset="0.48" stop-color="#01754a" stop-opacity="0.48"/><stop offset="1" stop-color="#026841"/></linearGradient><linearGradient id="linear-gradient-18" x1="35.45" y1="291.94" x2="35.45" y2="286.2" xlink:href="#linear-gradient-17"/><linearGradient id="linear-gradient-19" x1="19.72" y1="292.54" x2="31" y2="281.27" xlink:href="#linear-gradient"/><linearGradient id="linear-gradient-20" x1="26.2" y1="291.33" x2="26.2" y2="285.53" gradientTransform="matrix(1, 0, 0, -1, 0.49, 318.75)" gradientUnits="userSpaceOnUse"><stop offset="0" stop-color="#fac600" stop-opacity="0"/><stop offset="0.69" stop-color="#d68c3d" stop-opacity="0.69"/><stop offset="1" stop-color="#c5715a"/></linearGradient><linearGradient id="linear-gradient-21" x1="29.61" y1="281.31" x2="44.94" y2="265.98" xlink:href="#linear-gradient-13"/><linearGradient id="linear-gradient-22" x1="3.32" y1="288.77" x2="13.28" y2="278.81" xlink:href="#linear-gradient-13"/><linearGradient id="linear-gradient-23" x1="6.73" y1="285.37" x2="15.69" y2="276.4" gradientTransform="matrix(1, 0, 0, -1, 0.49, 318.75)" gradientUnits="userSpaceOnUse"><stop offset="0" stop-color="#c00148" stop-opacity="0"/><stop offset="0.38" stop-color="#9f153a" stop-opacity="0.38"/><stop offset="1" stop-color="#6d3326"/></linearGradient><linearGradient id="linear-gradient-24" x1="36.57" y1="269.54" x2="36.57" y2="261.6" xlink:href="#linear-gradient-23"/><linearGradient id="linear-gradient-25" x1="22.6" y1="272.59" x2="50.43" y2="272.59" xlink:href="#linear-gradient-15"/><linearGradient id="linear-gradient-26" x1="28.57" y1="290.1" x2="45.96" y2="272.71" xlink:href="#linear-gradient-15"/><linearGradient id="linear-gradient-27" x1="34.05" y1="285.85" x2="39.54" y2="280.37" xlink:href="#linear-gradient"/></defs><title>workshop</title><path class="cls-1" d="M11,10.76H7.56V7.63a1.7,1.7,0,0,1,1.7-1.69h0A1.7,1.7,0,0,1,11,7.63v3.13Z"/><path class="cls-2" d="M18,10.76H14.57V7.63a1.7,1.7,0,0,1,1.7-1.69h0A1.69,1.69,0,0,1,18,7.63v3.13Z"/><path class="cls-3" d="M25,10.76H21.58V7.63a1.7,1.7,0,0,1,1.7-1.69h0A1.7,1.7,0,0,1,25,7.63Z"/><path class="cls-4" d="M32,10.76H28.6V7.63a1.7,1.7,0,0,1,1.7-1.69h0A1.7,1.7,0,0,1,32,7.63Z"/><path class="cls-5" d="M39,10.76H35.61V7.63a1.7,1.7,0,0,1,1.7-1.69h0A1.7,1.7,0,0,1,39,7.63Z"/><path class="cls-6" d="M46,10.76H42.62V7.63a1.7,1.7,0,0,1,1.7-1.69h0A1.7,1.7,0,0,1,46,7.63Z"/><path class="cls-7" d="M21.32,53.24H17.91v3.13a1.7,1.7,0,0,0,1.7,1.69h0a1.7,1.7,0,0,0,1.7-1.69Z"/><path class="cls-8" d="M28.33,53.24H24.92v3.13a1.7,1.7,0,0,0,1.7,1.69h0a1.69,1.69,0,0,0,1.69-1.69Z"/><path class="cls-9" d="M35.35,53.24H31.94v3.13a1.69,1.69,0,0,0,1.69,1.69h0a1.7,1.7,0,0,0,1.7-1.69Z"/><path class="cls-10" d="M42.36,53.24H39v3.13a1.7,1.7,0,0,0,1.7,1.69h0a1.7,1.7,0,0,0,1.7-1.69Z"/><path class="cls-11" d="M49.37,53.24H46v3.13a1.7,1.7,0,0,0,1.7,1.69h0a1.7,1.7,0,0,0,1.7-1.69Z"/><path class="cls-12" d="M56.38,53.24H53v3.13a1.7,1.7,0,0,0,1.7,1.69h0a1.7,1.7,0,0,0,1.7-1.69V53.24Z"/><path class="cls-13" d="M47.66,41.86H8.53a2.59,2.59,0,0,1-2.59-2.59V11.47A1.61,1.61,0,0,1,7.56,9.85H46a1.62,1.62,0,0,1,1.63,1.62Z"/><path class="cls-14" d="M5.94,24V39.28a2.58,2.58,0,0,0,2.6,2.58H47.66V24Z"/><path class="cls-15" d="M16.76,15.33a2.24,2.24,0,0,0-1.91,1.06l-1.68,2.7A2.25,2.25,0,0,0,17,21.44l1.68-2.71A2.23,2.23,0,0,0,16.76,15.33Zm23.67,3.76-1.68-2.7a2.26,2.26,0,0,0-1.92-1.06,2.23,2.23,0,0,0-1.92,3.4l1.68,2.71a2.25,2.25,0,0,0,3.84-2.35Z"/><path class="cls-16" d="M32.17,41.86h2.27l5.06-8.15a3.2,3.2,0,0,0,0-3.42L29.59,14.34a3.3,3.3,0,0,0-5.59,0l-9.91,16a3.24,3.24,0,0,0,0,3.42l5.06,8.15h2.27L15.74,32.7a1.31,1.31,0,0,1,0-1.4l9.9-15.95a1.34,1.34,0,0,1,1.16-.64,1.32,1.32,0,0,1,1.15.64l9.91,16a1.31,1.31,0,0,1,0,1.4Z"/><path class="cls-17" d="M15.74,31.3,20.25,24H18l-3.89,6.26a3.24,3.24,0,0,0,0,3.42l5.06,8.15h2.27L15.74,32.7a1.31,1.31,0,0,1,0-1.4Z"/><path class="cls-18" d="M39.5,30.29,35.61,24H33.34l4.52,7.27a1.31,1.31,0,0,1,0,1.4l-5.69,9.16h2.27l5.06-8.15A3.2,3.2,0,0,0,39.5,30.29Z"/><path class="cls-19" d="M35.11,32.84a1.59,1.59,0,0,0,0-1.68L28.18,20a1.63,1.63,0,0,0-2.77,0L18.48,31.16a1.59,1.59,0,0,0,0,1.68l5.6,9h5.43Z"/><path class="cls-20" d="M35.11,31.16,30.68,24H22.91l-4.43,7.13a1.59,1.59,0,0,0,0,1.68l5.6,9h5.43l5.6-9A1.59,1.59,0,0,0,35.11,31.16Z"/><path class="cls-21" d="M56.43,54.55H18a1.63,1.63,0,0,1-1.64-1.62V34.12a2.58,2.58,0,0,0-2.6-2.58H48.33l1,.22,1-.22h5.15a2.58,2.58,0,0,1,2.6,2.58V52.93A1.62,1.62,0,0,1,56.43,54.55Z"/><path class="cls-22" d="M16.34,41.86H8.54a2.58,2.58,0,0,0,2.6-2.58V34.12a2.6,2.6,0,0,1,5.2,0Z"/><path class="cls-23" d="M16.34,41.86H8.54a2.58,2.58,0,0,0,2.6-2.58V34.12a2.6,2.6,0,0,1,5.2,0Z"/><path class="cls-24" d="M16.34,41.81V52.93A1.63,1.63,0,0,0,18,54.55H56.43a1.62,1.62,0,0,0,1.63-1.62V41.81Z"/><path class="cls-25" d="M23.52,44.91l1.68,2.7a2.25,2.25,0,0,0,1.92,1.06A2.23,2.23,0,0,0,29,45.27l-1.68-2.71a2.25,2.25,0,0,0-3.83,2.35Zm23.66,3.76a2.26,2.26,0,0,0,1.92-1.06l1.68-2.7a2.25,2.25,0,0,0-3.84-2.35l-1.68,2.71A2.23,2.23,0,0,0,47.18,48.67Z"/><path class="cls-26" d="M34.35,49.66a3.3,3.3,0,0,0,5.59,0l9.91-15.95a3.17,3.17,0,0,0,.46-2.17h-2a1.32,1.32,0,0,1-.12,1.16L38.3,48.65a1.32,1.32,0,0,1-1.15.64A1.34,1.34,0,0,1,36,48.65L26.09,32.7A1.32,1.32,0,0,1,26,31.54H24a3.28,3.28,0,0,0,.46,2.17Z"/><path class="cls-27" d="M35.76,44a1.64,1.64,0,0,0,2.77,0l6.93-11.17a1.57,1.57,0,0,0,.17-1.3h-17a1.61,1.61,0,0,0,.17,1.3Z"/></svg>