<?xml version="1.0" encoding="utf-8"?>
<!-- Generator: Adobe Illustrator 25.0.0, SVG Export Plug-In . SVG Version: 6.00 Build 0)  -->
<svg version="1.1" id="Layer_1" xmlns="http://www.w3.org/2000/svg" xmlns:xlink="http://www.w3.org/1999/xlink" x="0px" y="0px"
	 viewBox="0 0 512 512" style="enable-background:new 0 0 512 512;" xml:space="preserve">
<style type="text/css">
	.st0{fill:#FFFFFF;}
	.st1{fill:#30B992;}
	.st2{fill:#269475;enable-background:new    ;}
	.st3{fill:#A4AFC1;}
	.st4{fill:#444444;}
</style>
<path class="st0" d="M496.4,289.5c-53.8-82.4-48.1-166.8-74-206.5S319.2-25.1,136.6,94.1S0.5,343,29,386.7
	C162.6,591.1,591.7,435.4,496.4,289.5z"/>
<circle class="st1" cx="213.3" cy="170.7" r="60.4"/>
<path class="st1" d="M152.9,280.9h120.9c31.4,0,56.9,25.5,56.9,56.9v49.8H96v-49.8C96,306.4,121.5,280.9,152.9,280.9z"/>
<path class="st2" d="M184.9,170.7c0-27.8,18.9-51,44.4-58c-5.1-1.4-10.4-2.4-16-2.4c-33.4,0-60.4,27.1-60.4,60.4
	s27.1,60.4,60.4,60.4c5.6,0,10.9-1,16-2.4C203.8,221.7,184.9,198.5,184.9,170.7z"/>
<path class="st2" d="M184.9,280.9h-32c-31.4,0-56.9,25.5-56.9,56.9v49.8h32v-49.8C128,306.4,153.5,280.9,184.9,280.9z"/>
<g>
	<path class="st3" d="M313.6,55.5l10.1-10.1l20.1,20.1l-10.1,10.1L313.6,55.5z"/>
	<path class="st3" d="M371.5,113.4l10.1-10.1l20.1,20.1l-10.1,10.1L371.5,113.4z"/>
	<path class="st3" d="M311.2,123.5l20.1-20.1l10.1,10.1l-20.1,20.1L311.2,123.5z"/>
	<path class="st3" d="M369,65.7l20.1-20.1l10.1,10.1l-20.2,20L369,65.7z"/>
</g>
<path class="st4" d="M213.3,241.8c-39.2,0-71.1-31.9-71.1-71.1s31.9-71.1,71.1-71.1s71.1,31.9,71.1,71.1S252.5,241.8,213.3,241.8z
	 M213.3,120.9c-27.4,0-49.8,22.3-49.8,49.8s22.3,49.8,49.8,49.8s49.8-22.3,49.8-49.8S240.8,120.9,213.3,120.9z"/>
<path class="st4" d="M330.7,398.2H96c-5.9,0-10.7-4.8-10.7-10.7v-49.8c0-37.2,30.3-67.6,67.6-67.6h120.9c37.2,0,67.6,30.3,67.6,67.6
	v49.8C341.3,393.4,336.6,398.2,330.7,398.2z M106.7,376.9H320v-39.1c0-25.5-20.7-46.2-46.2-46.2H152.9c-25.5,0-46.2,20.7-46.2,46.2
	V376.9z"/>
<path class="st4" d="M295.1,224H416v21.3H295.1V224z"/>
<path class="st4" d="M366.6,299.1l-15-15.1l49.4-49.4l-49.4-49.4l15.1-15.1l56.9,56.9c4.2,4.2,4.2,10.9,0,15.1L366.6,299.1z"/>
</svg>
