<svg version="1.1" id="Layer_1" xmlns="http://www.w3.org/2000/svg" xmlns:xlink="http://www.w3.org/1999/xlink" x="0px"
	y="0px" viewBox="0 0 200 200" style="enable-background:new 0 0 200 200;" xml:space="preserve">
	<style type="text/css">
		.st0 {
			fill: #F1F1F4;
		}

		.st1 {
			fill: none;
		}

		.st2 {
			fill: #cdf3eb;
		}
	</style>
	<rect class="st0" width="200" height="200" />
	<path d="M-909.2-43.1c0,0,0.2,0,0.6,0c0,0-0.1,0-0.1,0.1C-909-43-909.2-43-909.2-43.1z" />
	<path d="M-909.2-43.6c0,0,0.4,0,1.1,0l-0.1,0.1C-908.8-43.5-909.2-43.5-909.2-43.6z" />
	<path d="M-909.2-44c0,0,0.6,0,1.6,0c0,0-0.1,0.1-0.1,0.1C-908.6-44-909.2-44-909.2-44z" />
	<path d="M-909.2-44.5c0,0,0.8,0,2.1-0.1c0,0-0.1,0.1-0.1,0.1C-908.4-44.5-909.2-44.5-909.2-44.5z" />
	<path d="M-909.2-45c0,0,1-0.1,2.7-0.1c-0.1,0-0.1,0.1-0.1,0.1C-908.2-45-909.2-45-909.2-45z" />
	<path d="M-909.2-45.5c0,0,1.3-0.1,3.2-0.1c-0.1,0-0.1,0.1-0.1,0.1C-908-45.5-909.2-45.5-909.2-45.5z" />
	<path d="M-909.2-46c0,0,1.5-0.1,3.7-0.1c0,0.1-0.1,0.1-0.1,0.2C-907.8-46-909.2-46-909.2-46z" />
	<path d="M-909.2-46.5c0,0,1.7-0.1,4.2-0.1c0,0.1-0.1,0.1-0.2,0.2C-907.5-46.5-909.2-46.5-909.2-46.5z" />
	<path d="M-909.2-47c0,0,2-0.1,4.7-0.1c-0.1,0-0.1,0.1-0.2,0.2C-907.3-47-909.2-47-909.2-47z" />
	<path d="M-909.2-47.5c0,0,2.2-0.1,5.2-0.1c-0.1,0-0.1,0.1-0.2,0.2C-907-47.4-909.2-47.5-909.2-47.5z" />
	<path d="M-909.2-48c0,0,2.5-0.1,5.7-0.1c-0.1,0.1-0.1,0.1-0.2,0.2C-906.8-47.9-909.2-48-909.2-48z" />
	<path d="M-909.2-48.5c0,0,2.8-0.1,6.2-0.1c-0.1,0.1-0.1,0.1-0.2,0.2C-906.5-48.4-909.2-48.5-909.2-48.5z" />
	<path d="M-909.2-49c0,0,3-0.1,6.7-0.1c-0.1,0.1-0.1,0.1-0.2,0.2C-906.2-48.9-909.2-49-909.2-49z" />
	<path d="M-901.9-49.6c-0.1,0.1-0.1,0.1-0.2,0.2c-3.8,0-7,0-7-0.1S-905.8-49.6-901.9-49.6z" />
	<path d="M-901.4-50.1c-0.1,0.1-0.2,0.1-0.2,0.2c-4.1,0-7.5,0-7.5-0.1S-905.6-50.1-901.4-50.1z" />
	<path d="M-900.9-50.6c-0.1,0.1-0.1,0.2-0.2,0.2c-4.3,0-8,0-8-0.1S-905.3-50.6-900.9-50.6z" />
	<path d="M-900.4-51.1c-0.1,0.1-0.2,0.2-0.2,0.2c-4.5,0-8.6-0.1-8.6-0.1S-904.9-51.1-900.4-51.1z" />
	<path d="M-899.8-51.6c-0.1,0.1-0.2,0.1-0.2,0.2c-4.7,0-9.1,0-9.1-0.1C-909.2-51.6-904.6-51.6-899.8-51.6z" />
	<path d="M-899.3-52.2c-0.1,0.1-0.2,0.2-0.3,0.3c-4.9,0-9.6-0.1-9.6-0.1S-904.3-52.1-899.3-52.2z" />
	<path d="M-909.2-42.6c0,0,0.2-0.2,0.5-0.5c3.1,0.1,19.5,0.1,19.5,0.2C-889.2-42.7-909.2-42.7-909.2-42.6z" />
	<path d="M-908.6-43.1c0.1-0.1,0.3-0.3,0.4-0.4c4.1,0.1,19,0.1,19,0.2S-905.3-43.2-908.6-43.1z" />
	<path d="M-908.1-43.6c0.1-0.1,0.3-0.3,0.4-0.4c4.7,0.1,18.5,0.1,18.5,0.2C-889.2-43.7-903.9-43.7-908.1-43.6z" />
	<path d="M-907.5-44.1c0.1-0.1,0.3-0.3,0.4-0.4c5.1,0.1,18,0.1,18,0.2C-889.2-44.2-902.8-44.2-907.5-44.1z" />
	<path d="M-907-44.6c0.1-0.1,0.3-0.2,0.4-0.4c5.4,0.1,17.5,0.1,17.5,0.2C-889.2-44.7-901.9-44.7-907-44.6z" />
	<path d="M-906.5-45.1c0.1-0.1,0.2-0.2,0.4-0.4c5.6,0.1,17,0.1,17,0.2C-889.2-45.2-901.1-45.2-906.5-45.1z" />
	<path d="M-906-45.6c0.1-0.1,0.2-0.2,0.4-0.3c5.7,0.1,16.5,0.1,16.5,0.2C-889.2-45.7-900.4-45.7-906-45.6z" />
	<path d="M-905.5-46.1c0.1-0.1,0.2-0.2,0.4-0.3c5.8,0.1,16,0.1,16,0.2C-889.2-46.2-899.7-46.2-905.5-46.1z" />
	<path d="M-905-46.6c0.1-0.1,0.2-0.2,0.3-0.3c5.9,0,15.5,0.1,15.5,0.2C-889.2-46.7-899.1-46.7-905-46.6z" />
	<path d="M-904.5-47.1c0.1-0.1,0.2-0.2,0.3-0.3c5.9,0,15,0.1,15,0.2C-889.2-47.2-898.6-47.2-904.5-47.1z" />
	<path d="M-904-47.6c0.1-0.1,0.2-0.2,0.3-0.3c5.9,0,14.5,0.1,14.5,0.2C-889.2-47.7-898-47.7-904-47.6z" />
	<path d="M-903.5-48.1c0.1-0.1,0.2-0.2,0.3-0.3c5.9,0,14,0.1,14,0.1S-897.5-48.2-903.5-48.1z" />
	<path d="M-903-48.6l0.3-0.3c5.8,0,13.5,0.1,13.5,0.2S-897.1-48.7-903-48.6z" />
	<path d="M-896.7-52.2c-0.8,0-1.7,0-2.6,0c0.1-0.1,0.2-0.2,0.2-0.2C-898.3-52.3-897.5-52.3-896.7-52.2z" />
	<path
		d="M-894.3-51.7c-1.7,0-3.6,0-5.5,0c0.1-0.1,0.2-0.2,0.3-0.3c1.5,0,3,0,4.4,0C-894.9-51.8-894.6-51.7-894.3-51.7z" />
	<path
		d="M-892.9-51.2c-2.1,0-4.8,0-7.5,0c0.1-0.1,0.2-0.2,0.3-0.3c2.4,0,4.8,0,6.8,0C-893.2-51.3-893-51.2-892.9-51.2z" />
	<path
		d="M-891.8-50.7c-2.3,0-5.9,0-9.1,0.1c0.1-0.1,0.2-0.2,0.3-0.3c3,0,6.3,0,8.5,0.1C-892-50.8-891.9-50.7-891.8-50.7z" />
	<path
		d="M-890.9-50.2c-2.3,0-6.7,0-10.5,0.1c0.1-0.1,0.2-0.2,0.3-0.3c3.7,0,7.7,0.1,10,0.1C-891-50.3-890.9-50.2-890.9-50.2z" />
	<path
		d="M-890-49.7c-2.1,0-7.4,0.1-11.9,0.1c0.1-0.1,0.2-0.2,0.3-0.3c4.3,0,9.3,0.1,11.4,0.1C-890.2-49.8-890.1-49.7-890-49.7z" />
	<path d="M-889.4-49.3C-889.4-49.3-889.4-49.3-889.4-49.3c-1.2,0.1-7.8,0.1-13,0.2c0.1-0.1,0.2-0.2,0.3-0.3
	C-897-49.4-890.8-49.3-889.4-49.3z" />
	<line class="st1" x1="-367.1" y1="-52.3" x2="-367.1" y2="-62.5" />
	<path class="st2" d="M200,0v200H0v-99.3c0-6.6,0.6-13,1.8-19.2c1.8-9.3,4.9-18.1,9-26.3c3.2-6.2,6.9-12,11.3-17.4
	c5.2-6.5,11.3-12.4,18-17.4c5.7-4.3,11.8-8,18.3-11c8.5-3.9,17.6-6.7,27.2-8.2c4.9-0.7,9.9-1.1,15-1.1H200z" />
	<path class="st0" d="M165,162.9c-2.4,2.4-5.6,3.7-8.8,3.7s-6.4-1.2-8.8-3.7L22.1,37.7c5.2-6.5,11.3-12.4,18-17.4l125,125
	C169.9,150.1,169.9,158,165,162.9z" />
	<path class="st0" d="M147.8,73.9l-7.1,7.1c-2.9,2.9-7.7,2.9-10.6,0L58.4,9.3c8.5-3.9,17.6-6.7,27.2-8.2l62.2,62.2
	C150.8,66.2,150.8,71,147.8,73.9z" />
	<polygon class="st0" points="192.7,42.9 175,60.6 114.4,0 149.8,0 " />
	<path class="st0"
		d="M34,160.6c-2.5,2.5-5.7,3.7-8.9,3.7s-6.4-1.2-8.8-3.7L0,144.3v-35.4l34,34C38.9,147.8,38.9,155.8,34,160.6z" />
	<path class="st0" d="M105.6,149.8l-17.7,17.7L1.8,81.4c1.8-9.3,4.9-18.1,9-26.3L105.6,149.8z" />
</svg>