<?xml version="1.0" standalone="no"?>
<!DOCTYPE svg PUBLIC "-//W3C//DTD SVG 20010904//EN"
 "http://www.w3.org/TR/2001/REC-SVG-20010904/DTD/svg10.dtd">
<svg version="1.0" xmlns="http://www.w3.org/2000/svg"
 width="800.000000pt" height="533.000000pt" viewBox="0 0 800.000000 533.000000"
 preserveAspectRatio="xMidYMid meet">

<g transform="translate(0.000000,533.000000) scale(0.100000,-0.100000)"
fill="#000000" stroke="none">
<path d="M2845 5205 c-49 -24 -166 -148 -205 -215 -19 -35 -43 -68 -52 -73
-12 -8 -49 -3 -146 21 -141 35 -166 37 -209 21 -73 -27 -133 -135 -118 -212 8
-44 46 -149 59 -166 22 -28 84 -58 196 -95 162 -53 199 -79 378 -258 62 -61
192 -156 287 -209 33 -18 92 -54 130 -79 39 -26 108 -69 154 -96 123 -72 168
-125 129 -151 -7 -4 -74 -8 -148 -8 -152 -1 -172 -7 -237 -75 -35 -37 -69 -94
-106 -181 -9 -20 -29 -52 -45 -70 -16 -19 -40 -55 -52 -81 -29 -61 -38 -68
-105 -75 -52 -6 -62 -11 -126 -69 -78 -72 -94 -76 -202 -48 -37 9 -81 14 -112
10 -86 -9 -164 -22 -171 -29 -10 -9 -23 -86 -24 -134 0 -39 -21 -156 -69 -383
-48 -225 -111 -322 -241 -371 -102 -38 -235 -106 -297 -152 -77 -57 -129 -123
-179 -224 -38 -76 -39 -81 -41 -193 -1 -63 -7 -158 -14 -210 -6 -52 -12 -156
-13 -230 -1 -74 -7 -155 -14 -180 -6 -25 -13 -53 -14 -62 -2 -10 -25 -49 -53
-87 -47 -65 -56 -72 -157 -122 -91 -45 -107 -57 -116 -83 -14 -47 18 -95 108
-165 86 -67 83 -59 99 -220 6 -52 14 -98 20 -104 5 -5 38 -3 86 7 49 10 128
16 216 16 115 0 148 3 196 21 73 26 85 41 108 124 16 60 16 77 6 154 -7 47
-16 101 -21 120 -7 27 -5 45 12 85 23 54 106 183 130 204 8 6 50 16 94 22 43
6 106 17 139 25 33 8 105 21 160 30 55 9 149 26 209 37 78 14 134 18 198 15
68 -4 124 1 227 20 157 28 493 41 671 26 58 -5 133 -7 167 -5 61 4 64 5 125
63 34 33 69 63 77 68 25 11 103 4 136 -13 41 -22 48 -20 72 13 20 26 28 29
113 35 68 6 101 13 133 32 49 28 72 30 81 8 7 -17 25 -14 90 17 l40 19 25 -24
c38 -36 131 -96 148 -96 8 0 17 9 20 20 7 25 34 26 158 4 50 -9 111 -18 136
-21 l47 -5 19 103 c20 104 20 104 47 101 17 -2 33 3 40 13 10 14 16 12 52 -23
30 -29 51 -41 85 -46 59 -9 127 7 145 33 8 11 35 29 59 40 l45 20 -17 35 c-16
34 -15 37 7 79 14 27 34 48 51 54 18 7 34 26 49 59 25 55 23 85 -22 287 l-21
98 30 32 c16 17 56 72 88 121 32 49 105 147 162 218 56 71 106 140 109 155 5
18 -2 43 -24 87 -17 33 -40 85 -51 114 -12 29 -32 74 -45 101 -22 43 -46 151
-34 151 3 0 31 -9 64 -20 32 -12 86 -28 118 -36 33 -9 115 -38 182 -65 67 -27
131 -49 142 -49 28 0 115 -48 201 -111 86 -63 211 -142 261 -165 50 -24 135
-22 168 3 47 35 88 98 125 194 49 125 108 218 247 388 63 77 134 168 158 201
23 33 53 65 66 70 20 7 126 121 126 135 0 2 -20 46 -44 99 -33 70 -61 113
-108 163 -35 37 -72 79 -83 93 -37 48 -140 123 -213 157 -40 19 -119 46 -175
60 -105 27 -187 32 -398 23 -81 -4 -89 -2 -160 32 -56 26 -95 55 -150 109
l-74 73 -80 -1 c-411 -7 -474 -4 -572 23 -53 14 -139 44 -192 66 -53 22 -163
62 -246 89 -149 49 -151 50 -205 108 -65 69 -153 120 -270 156 -47 15 -105 38
-130 50 -71 38 -161 72 -210 81 -25 4 -133 8 -240 9 -107 0 -231 4 -275 8
-110 11 -414 87 -655 163 -233 74 -372 114 -394 114 -12 0 -35 -7 -51 -15z
m415 -109 c512 -157 728 -196 997 -183 158 8 240 -7 365 -66 51 -25 125 -55
163 -67 113 -36 204 -89 266 -154 57 -59 58 -59 225 -116 93 -32 208 -74 256
-93 161 -68 256 -87 440 -90 89 -1 208 2 264 7 65 6 103 5 107 -1 19 -30 -190
-260 -302 -332 -79 -50 -115 -61 -212 -61 -93 0 -150 -16 -237 -68 -80 -47
-150 -62 -312 -66 -104 -2 -127 -6 -242 -44 -70 -23 -187 -53 -260 -67 -73
-15 -167 -33 -208 -42 -97 -20 -640 -23 -708 -4 -24 7 -109 16 -190 21 -81 4
-155 11 -165 15 -10 4 -21 21 -24 37 -9 44 -47 78 -173 152 -63 38 -128 78
-145 90 -16 12 -57 37 -90 56 -111 62 -239 154 -306 220 -192 189 -211 202
-385 261 -149 50 -189 76 -215 137 -33 76 -42 134 -29 184 18 68 86 128 145
128 14 0 79 -14 146 -31 164 -41 179 -37 237 76 24 47 149 175 189 192 40 18
64 13 403 -91z m3178 -843 c53 -52 87 -76 147 -101 86 -37 128 -41 300 -28 89
7 113 5 216 -18 64 -15 145 -38 180 -52 73 -30 167 -92 209 -137 15 -18 60
-66 99 -108 46 -49 83 -101 106 -148 56 -114 56 -118 -7 -182 -29 -30 -66 -62
-82 -72 -15 -11 -47 -49 -70 -85 -24 -37 -90 -123 -148 -192 -120 -143 -176
-229 -219 -337 -44 -112 -74 -164 -112 -202 -32 -30 -41 -34 -92 -33 -50 0
-67 6 -143 53 -48 29 -123 78 -167 109 -121 87 -175 116 -235 130 -30 7 -96
30 -146 51 -50 21 -131 49 -180 63 -49 14 -109 32 -133 41 -72 25 -75 24 -67
-46 4 -38 19 -89 41 -136 19 -41 35 -77 35 -79 0 -2 18 -43 40 -90 28 -59 39
-92 34 -107 -4 -12 -50 -76 -103 -142 -53 -66 -128 -167 -166 -224 -39 -57
-80 -111 -92 -121 -13 -10 -23 -24 -23 -31 0 -8 14 -87 32 -177 l32 -162 -22
-46 c-15 -30 -32 -48 -51 -55 -41 -15 -78 -95 -63 -139 11 -30 10 -32 -21 -45
-18 -7 -42 -24 -55 -38 -43 -46 -156 -42 -198 6 -12 14 -32 30 -44 37 -20 11
-25 10 -35 -4 -9 -11 -21 -14 -43 -10 -29 6 -31 4 -37 -32 -15 -85 -33 -165
-38 -170 -3 -3 -72 6 -153 19 -151 25 -184 24 -184 -8 0 -8 -2 -15 -4 -15 -11
0 -104 66 -138 98 -35 33 -39 35 -56 19 -10 -9 -34 -23 -54 -31 -35 -15 -37
-15 -43 4 -8 26 -13 25 -88 -10 -46 -21 -84 -31 -147 -36 -77 -7 -88 -10 -113
-37 -27 -29 -27 -29 -54 -11 -17 10 -50 19 -83 20 -62 2 -103 -17 -134 -63
-10 -15 -34 -38 -54 -51 -33 -22 -44 -23 -151 -20 -64 2 -231 3 -371 2 -218
-1 -272 -4 -373 -23 -82 -15 -155 -22 -239 -22 -82 1 -152 -6 -217 -19 -53
-11 -114 -21 -136 -24 -48 -6 -144 -24 -200 -37 -22 -5 -87 -16 -144 -24 -56
-8 -110 -20 -118 -27 -28 -23 -103 -135 -133 -200 -28 -59 -30 -70 -21 -109
22 -97 33 -199 26 -235 -26 -139 -57 -155 -310 -165 -99 -4 -200 -12 -224 -18
-24 -7 -46 -9 -49 -7 -2 3 -8 47 -13 97 -14 155 -13 152 -93 216 -83 67 -103
88 -112 115 -14 45 3 62 113 116 97 48 112 59 150 111 69 95 87 163 89 351 1
74 7 176 14 225 7 50 12 140 11 200 l-2 110 45 93 c69 141 145 212 320 298
l136 67 67 -36 c64 -33 366 -117 422 -117 16 0 29 -17 55 -67 43 -87 73 -118
141 -149 114 -53 262 -53 430 0 44 13 120 34 168 46 87 22 90 22 215 6 100
-13 447 -46 485 -46 4 0 7 -7 7 -15 0 -24 37 -90 71 -130 31 -35 31 -35 113
-34 120 1 301 22 319 37 9 8 34 46 57 85 54 96 144 235 172 264 12 12 20 24
17 26 -5 4 -152 109 -158 114 -2 1 6 19 18 39 20 34 21 38 5 55 -16 17 -15 21
11 56 16 21 41 49 57 61 39 33 58 73 58 127 0 51 -6 49 112 49 l86 1 74 53
c40 29 87 59 103 68 17 8 47 42 68 75 38 59 93 99 135 99 31 0 92 64 92 96 0
46 32 122 69 166 48 56 100 78 188 78 82 0 73 -10 99 119 21 108 11 344 -22
507 -6 31 -4 33 60 69 85 47 152 65 250 65 66 0 88 5 140 29 102 49 247 185
335 314 17 26 34 47 35 47 2 0 35 -30 74 -67z m-900 -490 c6 -32 17 -125 23
-207 10 -132 10 -161 -6 -253 -10 -57 -22 -106 -27 -109 -5 -3 -37 -8 -71 -10
-87 -6 -140 -28 -185 -79 -37 -42 -72 -127 -72 -175 0 -27 -63 -90 -91 -90
-34 0 -93 -38 -119 -76 -35 -52 -76 -92 -154 -147 -96 -69 -117 -76 -213 -70
l-82 6 -11 -27 c-5 -15 -7 -32 -4 -37 15 -25 -8 -80 -52 -121 -25 -24 -55 -58
-66 -76 -17 -28 -19 -37 -8 -56 10 -19 9 -29 -5 -55 -20 -39 -17 -42 69 -102
69 -46 75 -55 51 -73 -15 -11 -96 -136 -167 -258 -22 -36 -47 -73 -56 -82 -13
-11 -60 -17 -197 -24 -99 -5 -184 -7 -190 -5 -20 7 -85 106 -91 139 -8 41 -1
40 -209 54 -149 10 -396 37 -403 45 -2 1 14 11 35 21 59 29 79 75 88 202 4 59
7 124 6 144 -2 34 2 39 36 56 38 18 40 22 28 54 -6 14 5 23 49 42 31 14 59 32
63 42 3 9 1 46 -6 83 -6 36 -11 73 -10 81 4 78 2 83 -32 112 -19 16 -57 40
-84 53 -28 12 -57 30 -64 39 -13 15 -12 22 7 56 37 65 40 81 17 100 -13 11
-20 9 -38 -9 -44 -41 -64 -23 -42 39 8 23 13 46 10 50 -3 4 -26 11 -52 15 -51
7 -93 42 -125 102 -31 60 -88 57 -162 -8 l-48 -42 -56 29 c-32 16 -61 30 -67
32 -22 7 33 -31 78 -54 l48 -25 51 46 c81 73 113 72 158 -5 32 -55 66 -80 119
-87 41 -6 42 -6 35 -37 -14 -60 -11 -81 14 -84 13 -2 32 4 43 14 30 27 43 5
23 -42 -9 -21 -22 -46 -30 -55 -12 -14 -12 -19 6 -42 12 -15 38 -31 59 -37 21
-5 58 -27 81 -48 37 -32 43 -43 41 -73 -4 -51 -3 -59 9 -122 7 -31 9 -64 6
-73 -3 -8 -31 -26 -62 -40 -53 -23 -56 -26 -50 -54 5 -27 2 -31 -28 -44 l-33
-14 -7 -129 c-7 -137 -15 -180 -41 -220 -20 -30 -104 -68 -215 -98 -47 -12
-127 -35 -178 -50 -82 -24 -105 -27 -205 -23 -97 3 -120 8 -174 32 -68 31 -94
59 -141 152 -29 58 -33 62 -74 68 -102 16 -338 81 -391 108 l-59 29 44 28 c76
48 117 109 156 231 28 86 102 456 103 512 0 23 3 61 7 83 l7 40 60 8 c33 4 79
10 103 13 27 4 67 0 107 -11 40 -11 82 -16 111 -12 40 4 54 13 105 63 34 33
68 59 81 59 71 5 110 19 132 49 13 17 27 41 31 54 4 13 19 38 34 55 31 36 47
64 87 152 35 77 74 126 127 156 38 22 55 24 172 26 72 2 146 3 165 4 56 2 321
-20 375 -32 82 -17 579 -24 660 -10 251 45 427 85 540 122 122 40 138 43 255
45 69 1 141 7 160 12 64 18 67 17 78 -45z"/>
<path d="M3118 4714 c-5 -4 -8 -36 -8 -70 0 -52 3 -65 19 -74 25 -13 186 -13
211 0 12 7 27 7 45 0 18 -7 33 -7 46 1 17 9 20 19 17 77 -2 40 -7 65 -13 62
-5 -3 -8 -29 -7 -57 4 -49 2 -53 -18 -53 -13 0 -20 5 -17 13 6 17 -11 47 -28
47 -17 0 -39 -36 -30 -50 4 -6 -33 -10 -99 -10 l-105 0 -3 61 c-2 33 -6 57
-10 53z m262 -94 c0 -5 -7 -10 -15 -10 -8 0 -15 5 -15 10 0 6 7 10 15 10 8 0
15 -4 15 -10z"/>
<path d="M3487 4713 c-4 -3 -7 -32 -7 -64 0 -67 16 -89 64 -89 77 0 129 39
101 76 -13 18 -15 18 -45 2 l-30 -17 0 45 c0 32 -4 44 -12 41 -9 -2 -12 -21
-10 -56 4 -50 3 -53 -20 -49 -21 3 -23 8 -24 56 -1 53 -5 67 -17 55z m143
-103 c0 -5 -12 -10 -26 -10 -14 0 -23 4 -19 10 3 6 15 10 26 10 10 0 19 -4 19
-10z"/>
<path d="M3340 4690 c0 -5 5 -10 10 -10 6 0 10 5 10 10 0 6 -4 10 -10 10 -5 0
-10 -4 -10 -10z"/>
<path d="M3370 4690 c0 -5 5 -10 10 -10 6 0 10 5 10 10 0 6 -4 10 -10 10 -5 0
-10 -4 -10 -10z"/>
<path d="M3002 4639 c2 -6 8 -10 13 -10 5 0 11 4 13 10 2 6 -4 11 -13 11 -9 0
-15 -5 -13 -11z"/>
<path d="M3050 4596 c0 -8 5 -18 10 -21 36 -22 -15 -53 -66 -41 -21 6 -25 12
-21 31 6 32 -11 33 -19 1 -10 -39 11 -66 52 -66 51 0 74 15 74 50 0 34 -9 60
-21 60 -5 0 -9 -6 -9 -14z"/>
<path d="M4011 4248 c-1 -35 30 -44 100 -31 27 6 52 7 54 2 7 -10 45 -3 59 11
17 17 -3 24 -29 10 -19 -10 -28 -10 -39 -1 -11 9 -15 9 -19 -1 -4 -10 -7 -10
-15 1 -7 9 -12 10 -16 2 -4 -6 -25 -11 -46 -11 -32 0 -39 4 -43 23 -4 19 -4
18 -6 -5z"/>
<path d="M3940 4209 c0 -11 25 -22 39 -17 6 1 -1 8 -14 15 -14 6 -25 7 -25 2z"/>
<path d="M3917 4149 c-21 -12 -22 -42 -3 -58 20 -16 56 3 56 29 0 25 -30 41
-53 29z"/>
<path d="M5683 2655 c-38 -16 -43 -43 -13 -70 24 -21 18 -35 -16 -35 -15 0
-24 -6 -24 -15 0 -20 44 -20 60 0 12 14 10 42 -4 76 -5 12 1 19 23 27 17 6 31
16 31 21 0 15 -18 13 -57 -4z"/>
<path d="M5343 2599 c-20 -20 -15 -27 12 -21 26 5 26 4 -5 -27 -20 -20 -30
-37 -26 -47 3 -9 6 -19 6 -24 0 -14 69 -32 96 -26 32 8 31 25 -1 18 -29 -5
-75 21 -75 43 0 21 41 55 66 55 21 0 41 16 33 25 -2 2 -24 6 -49 10 -31 4 -49
2 -57 -6z"/>
<path d="M5550 2557 c0 -7 6 -19 13 -26 10 -10 5 -18 -23 -42 l-34 -29 28 0
c22 0 30 7 39 30 6 17 17 30 24 30 23 0 14 26 -12 38 -33 15 -35 15 -35 -1z"/>
<path d="M5390 2520 c0 -5 7 -10 15 -10 8 0 15 5 15 10 0 6 -7 10 -15 10 -8 0
-15 -4 -15 -10z"/>
<path d="M5021 2156 c-9 -11 -8 -15 6 -20 10 -4 14 -4 10 0 -4 4 -2 13 4 21 7
8 8 13 1 13 -5 0 -15 -6 -21 -14z"/>
<path d="M4880 2130 c0 -13 11 -13 30 0 12 8 11 10 -7 10 -13 0 -23 -4 -23
-10z"/>
<path d="M4973 2113 c4 -3 2 -12 -4 -20 -9 -9 -8 -13 0 -13 6 0 11 2 11 4 0 2
3 11 6 20 4 10 1 16 -7 16 -7 0 -9 -3 -6 -7z"/>
<path d="M5010 2109 c0 -5 5 -7 10 -4 6 3 10 8 10 11 0 2 -4 4 -10 4 -5 0 -10
-5 -10 -11z"/>
<path d="M4870 2096 c0 -8 7 -17 16 -20 23 -9 24 -4 2 17 -14 13 -18 14 -18 3z"/>
<path d="M4877 1912 c-22 -24 -21 -55 1 -75 37 -34 92 -11 92 38 0 50 -60 73
-93 37z m71 -4 c21 -21 14 -57 -14 -70 -31 -14 -57 -1 -62 29 -6 40 48 69 76
41z"/>
<path d="M4896 1894 c-28 -28 6 -64 39 -41 18 14 12 42 -10 51 -8 3 -21 -2
-29 -10z"/>
<path d="M4010 3450 c0 -5 5 -10 10 -10 6 0 10 5 10 10 0 6 -4 10 -10 10 -5 0
-10 -4 -10 -10z"/>
<path d="M4190 3421 c0 -52 -13 -59 -40 -21 -12 16 -30 35 -41 40 -16 9 -19 7
-19 -10 0 -13 9 -24 24 -30 22 -8 54 -47 44 -54 -2 -2 -14 -10 -28 -19 l-24
-17 26 0 c15 0 33 8 40 19 14 19 14 19 25 1 19 -29 142 -26 213 7 l55 25 -45
20 c-29 13 -50 16 -59 11 -21 -13 -26 -34 -7 -27 9 3 24 3 34 -1 16 -7 15 -8
-3 -15 -34 -15 -85 -11 -92 5 -5 14 -7 14 -23 0 -10 -9 -27 -15 -37 -13 -14 3
-19 14 -21 61 -3 64 -22 79 -22 18z"/>
<path d="M4586 3452 c-3 -5 -2 -38 2 -73 l7 -64 198 -1 c184 -1 199 0 208 18
11 20 3 61 -11 53 -4 -3 -6 -14 -3 -25 6 -23 -15 -28 -24 -5 -5 14 -7 14 -23
0 -15 -14 -18 -14 -30 0 -11 14 -14 14 -24 0 -9 -13 -33 -15 -141 -13 l-130 3
-3 58 c-3 52 -13 70 -26 49z"/>
<path d="M3990 3400 c-22 -22 -25 -36 -9 -45 7 -5 3 -15 -11 -30 -12 -13 -20
-31 -18 -42 5 -25 52 -46 88 -38 41 9 38 21 -5 21 -68 0 -73 49 -7 69 37 11
44 35 8 28 -13 -3 -27 1 -31 7 -9 15 13 30 32 23 7 -3 13 -1 13 5 0 8 -22 22
-36 22 -2 0 -13 -9 -24 -20z"/>
<path d="M4500 3370 c-15 -28 -6 -50 20 -50 27 0 25 -14 -5 -38 -31 -25 -32
-34 -3 -30 13 2 29 15 37 32 28 59 -19 142 -49 86z"/>
<path d="M4400 3280 c0 -5 5 -10 10 -10 6 0 10 5 10 10 0 6 -4 10 -10 10 -5 0
-10 -4 -10 -10z"/>
<path d="M4260 3270 c0 -5 4 -10 9 -10 6 0 13 5 16 10 3 6 -1 10 -9 10 -9 0
-16 -4 -16 -10z"/>
<path d="M3612 2972 c-7 -5 -10 -16 -6 -25 5 -13 1 -17 -17 -17 -12 0 -19 -3
-16 -7 4 -3 1 -13 -5 -22 -9 -11 -5 -10 9 2 19 17 39 19 163 18 129 -2 141 0
138 15 -4 21 -28 31 -28 12 0 -12 -22 -14 -112 -14 -111 1 -113 1 -111 24 3
25 3 25 -15 14z"/>
<path d="M3080 2935 c-18 -22 -1 -50 31 -50 20 0 24 5 24 30 0 23 -5 31 -21
33 -11 2 -27 -4 -34 -13z"/>
<path d="M3518 2923 c7 -3 16 -2 19 1 4 3 -2 6 -13 5 -11 0 -14 -3 -6 -6z"/>
<path d="M2921 2894 c0 -11 3 -14 6 -6 3 7 2 16 -1 19 -3 4 -6 -2 -5 -13z"/>
<path d="M2773 2880 c2 -24 5 -25 66 -25 49 0 65 4 69 15 4 12 2 13 -9 3 -7
-7 -35 -13 -61 -13 -41 0 -50 4 -58 23 -10 22 -10 22 -7 -3z"/>
<path d="M2747 2873 c4 -11 3 -14 -5 -9 -7 4 -12 2 -12 -3 0 -6 7 -11 15 -11
8 0 15 9 15 20 0 11 -4 20 -10 20 -5 0 -6 -7 -3 -17z"/>
<path d="M3020 2882 c0 -7 -4 -10 -10 -7 -5 3 -10 1 -10 -5 0 -7 -6 -10 -14
-7 -9 4 -16 -3 -19 -15 -5 -16 -3 -18 6 -9 6 6 28 11 48 11 21 0 41 5 45 11 4
7 1 10 -7 7 -8 -3 -19 2 -26 11 -9 11 -12 12 -13 3z"/>
<path d="M3488 2849 c-37 -21 -4 -78 33 -59 21 12 25 40 7 58 -14 14 -18 14
-40 1z"/>
<path d="M2795 2450 c-4 -6 6 -10 24 -10 16 0 33 5 36 10 4 6 -6 10 -24 10
-16 0 -33 -4 -36 -10z"/>
<path d="M2449 2413 c-5 -32 5 -129 15 -135 20 -13 291 -9 304 4 16 16 16 71
0 65 -7 -2 -12 -14 -11 -26 3 -21 1 -22 -140 -19 l-142 3 -3 58 c-2 31 -7 57
-12 57 -6 0 -11 -3 -11 -7z"/>
<path d="M2819 2413 c-1 -5 -1 -33 1 -63 3 -84 20 -86 20 -2 0 41 -4 72 -10
72 -5 0 -11 -3 -11 -7z"/>
<path d="M2999 2413 c-1 -5 -1 -32 1 -60 2 -46 -1 -53 -17 -53 -10 0 -24 5
-30 11 -19 19 -34 1 -20 -22 11 -18 8 -24 -23 -50 l-34 -29 27 0 c21 0 33 8
45 30 15 26 23 30 67 32 28 1 67 0 87 -1 29 -2 40 3 53 22 16 25 11 61 -9 54
-6 -2 -10 -14 -8 -25 2 -17 -2 -22 -17 -22 -16 0 -21 6 -21 25 0 33 -22 41
-54 20 l-26 -17 0 46 c0 25 -4 46 -10 46 -5 0 -11 -3 -11 -7z m79 -95 c-5 -16
-48 -24 -48 -10 0 11 17 20 38 21 8 1 12 -5 10 -11z"/>
<path d="M3066 2401 c-4 -7 -5 -15 -2 -18 9 -9 19 4 14 18 -4 11 -6 11 -12 0z"/>
<path d="M3136 2402 c-3 -6 -1 -14 5 -17 15 -10 25 3 12 16 -7 7 -13 7 -17 1z"/>
<path d="M2365 2370 c-4 -6 5 -20 19 -31 15 -11 24 -25 21 -30 -8 -12 -55 -12
-55 1 0 6 -4 10 -10 10 -22 0 -10 -40 14 -46 57 -14 86 40 46 84 -24 25 -26
26 -35 12z"/>
<path d="M2750 2235 c0 -8 5 -15 10 -15 6 0 10 7 10 15 0 8 -4 15 -10 15 -5 0
-10 -7 -10 -15z"/>
</g>
</svg>
