<?xml version="1.0" standalone="no"?>
<!DOCTYPE svg PUBLIC "-//W3C//DTD SVG 20010904//EN"
 "http://www.w3.org/TR/2001/REC-SVG-20010904/DTD/svg10.dtd">
<svg version="1.0" xmlns="http://www.w3.org/2000/svg"
 width="584.000000pt" height="574.000000pt" viewBox="0 0 584.000000 574.000000"
 preserveAspectRatio="xMidYMid meet">
<metadata>
Created by potrace 1.16, written by Peter Selinger 2001-2019
</metadata>
<g transform="translate(0.000000,574.000000) scale(0.100000,-0.100000)"
fill="#000000" stroke="none">
<path d="M70 2860 l0 -2811 57 6 c43 4 4565 25 5511 25 111 0 132 -2 132 -15
0 -9 9 -15 25 -15 16 0 25 6 25 15 0 8 5 15 10 15 6 0 10 11 10 25 0 14 -4 25
-10 25 -7 0 -10 930 -10 2770 l0 2770 -2875 0 -2875 0 0 -2810z m5700 16 l0
-2744 -1312 -6 c-722 -3 -1994 -9 -2825 -12 l-1513 -6 0 2756 0 2756 2825 0
2825 0 0 -2744z"/>
<path d="M695 5464 c-72 -36 -175 -93 -229 -126 -54 -33 -133 -78 -175 -100
-82 -42 -111 -69 -111 -101 0 -23 84 -168 144 -246 22 -30 86 -93 141 -140
349 -298 928 -855 940 -903 3 -13 -1 -53 -9 -89 -15 -75 -10 -128 24 -229 44
-130 99 -226 192 -330 138 -156 294 -308 403 -395 101 -80 227 -188 323 -277
l52 -49 -10 -62 c-13 -82 -13 -278 1 -314 12 -32 90 -115 204 -216 83 -73 165
-171 165 -197 0 -8 -34 -58 -76 -110 -96 -121 -236 -315 -258 -357 -9 -18 -16
-39 -16 -49 0 -25 56 -73 169 -144 162 -103 179 -110 243 -110 51 0 71 7 166
56 202 105 301 125 392 79 40 -20 62 -43 122 -127 93 -132 169 -208 244 -246
79 -40 127 -46 233 -31 121 17 113 25 212 -215 46 -112 121 -220 172 -250 61
-34 92 -39 151 -22 69 20 123 61 187 140 40 50 64 70 109 90 69 31 68 31 198
6 113 -21 145 -17 163 23 11 25 13 8 -81 666 l-41 283 25 202 c55 432 64 566
51 698 -7 68 -5 81 14 122 13 26 47 67 78 93 126 109 140 126 158 188 21 69
16 157 -14 256 -11 35 -22 91 -26 124 -13 123 -56 310 -80 351 -31 53 -152
165 -219 203 -28 16 -77 39 -108 51 -84 31 -137 95 -179 212 -51 141 -113 188
-309 233 -41 9 -92 22 -113 27 -22 5 -58 27 -81 48 -77 71 -98 201 -51 315 14
33 28 76 31 96 9 53 -19 138 -69 205 -63 87 -79 116 -141 259 -117 269 -189
324 -348 266 -178 -65 -488 -131 -610 -131 -44 0 -99 -5 -122 -12 -55 -17
-131 -94 -180 -186 -46 -84 -111 -153 -188 -199 -84 -51 -103 -51 -169 -1 -31
24 -109 90 -173 148 -195 175 -236 197 -355 187 -51 -4 -83 -15 -156 -52 -112
-58 -135 -57 -230 15 -35 27 -170 117 -300 200 -144 93 -243 164 -257 183 -29
41 -48 56 -73 57 -11 0 -79 -30 -150 -66z m229 -123 c28 -20 132 -89 231 -152
99 -62 214 -139 255 -170 96 -71 125 -82 203 -77 47 3 75 11 112 33 72 43 103
53 163 54 75 1 104 -15 217 -119 134 -125 245 -213 299 -240 38 -18 51 -20 83
-11 52 15 49 16 68 -31 28 -70 23 -138 -15 -212 -32 -61 -33 -67 -21 -106 14
-47 68 -110 142 -167 l49 -37 -48 -20 c-66 -29 -111 -59 -151 -100 l-34 -35
38 -63 c53 -88 111 -165 167 -222 41 -41 46 -50 33 -60 -23 -17 -56 -115 -57
-166 0 -25 9 -71 21 -104 l20 -59 -67 7 c-184 18 -368 -51 -592 -223 -51 -39
-96 -71 -100 -71 -4 0 -56 51 -116 113 -214 220 -257 281 -314 442 -32 94 -39
160 -21 208 17 43 13 104 -8 145 -22 43 -437 457 -649 648 -187 168 -342 302
-369 321 -27 18 -88 98 -141 187 l-42 69 93 50 c50 27 112 63 136 80 24 16
107 63 184 103 l140 72 20 -24 c11 -14 42 -42 71 -63z m2867 -91 c29 -16 65
-78 145 -253 40 -87 90 -182 112 -210 85 -113 93 -160 48 -272 -25 -62 -28
-78 -24 -155 3 -57 11 -100 26 -132 l21 -48 -47 -21 c-26 -12 -77 -23 -113
-26 -58 -5 -69 -3 -88 16 -17 17 -21 33 -21 87 0 61 -2 67 -32 95 -18 17 -45
37 -59 46 -30 18 -52 50 -44 64 4 5 23 18 44 28 60 31 67 46 37 76 -14 14 -36
25 -49 25 -14 0 -34 8 -46 18 -18 15 -21 29 -23 122 l-3 105 -44 24 c-43 24
-43 24 -37 68 5 36 1 54 -23 102 -28 54 -67 170 -59 175 9 7 225 74 241 75 10
1 27 -4 38 -9z m-307 -112 c3 -17 22 -68 42 -114 27 -65 34 -90 29 -117 -9
-45 6 -72 53 -96 l37 -19 0 -102 c0 -99 1 -102 28 -125 15 -13 43 -27 62 -31
43 -8 44 -18 5 -34 -39 -16 -71 -56 -63 -78 3 -9 21 -33 40 -53 28 -29 31 -38
20 -47 -50 -42 -182 -57 -250 -29 -20 9 -67 34 -105 56 -86 50 -144 62 -173
35 -20 -18 -21 -18 -71 39 -27 31 -55 57 -62 57 -7 0 -34 14 -60 31 -31 19
-68 32 -100 36 -66 8 -136 43 -168 85 -30 39 -68 112 -68 130 0 7 19 29 43 49
23 20 57 63 76 95 110 190 128 203 291 205 77 0 137 8 225 29 160 37 161 37
169 -2z m-817 -440 c55 -113 134 -174 241 -186 26 -3 62 -14 82 -26 19 -12 48
-28 65 -36 16 -8 51 -42 78 -75 52 -65 83 -81 89 -44 7 50 30 47 160 -21 122
-65 123 -65 203 -64 80 0 115 11 178 51 27 17 29 17 43 -1 8 -12 14 -44 14
-82 0 -74 17 -101 74 -114 47 -10 131 3 198 32 l48 20 39 -35 c54 -48 59 -51
200 -86 140 -34 228 -74 246 -111 7 -14 25 -56 40 -95 14 -38 41 -90 60 -114
l33 -45 -39 -28 c-56 -40 -123 -130 -170 -229 l-42 -86 -48 46 c-111 108 -164
139 -220 127 -22 -4 -38 0 -59 16 -29 21 -117 48 -135 42 -19 -8 -105 -170
-117 -222 -9 -36 -18 -52 -29 -52 -30 0 -125 32 -204 70 -70 34 -83 43 -98 79
-20 45 -53 72 -112 91 -50 16 -135 100 -199 198 -52 79 -69 92 -116 92 -58 0
-153 75 -243 193 -15 21 -51 50 -80 67 -137 77 -279 201 -293 255 -6 23 -1 41
21 80 39 70 45 159 16 235 l-21 55 27 22 c16 13 33 23 39 23 5 0 19 -19 31
-42z m142 -647 c52 -27 121 -89 121 -110 0 -11 79 -91 114 -116 27 -19 28 -23
18 -50 -9 -25 -11 -26 -11 -8 -1 23 -16 39 -25 25 -2 -4 -1 -23 3 -42 6 -30
11 -35 36 -35 28 0 30 2 29 38 -1 32 1 37 15 31 9 -4 35 -9 58 -12 40 -4 46
-8 89 -73 59 -90 133 -170 178 -194 40 -22 44 -39 16 -73 -16 -19 -25 -22 -51
-17 -27 6 -30 10 -26 34 3 14 9 34 13 45 5 14 3 17 -11 15 -11 -3 -23 -19 -30
-44 -10 -35 -12 -37 -16 -15 -6 36 -35 33 -31 -3 2 -23 -1 -28 -28 -33 -36 -8
-35 -28 3 -32 18 -2 29 3 37 18 l12 22 19 -20 c10 -11 43 -26 74 -33 68 -15
87 -2 89 58 1 21 4 37 9 36 4 -2 11 -3 16 -3 5 0 16 -11 24 -24 16 -24 15 -25
-39 -67 -74 -57 -125 -131 -154 -223 -14 -42 -30 -76 -37 -76 -7 0 -41 27 -77
61 -48 45 -69 72 -81 109 -18 55 -64 130 -109 178 l-30 32 26 0 c16 0 33 9 42
22 19 27 22 82 4 75 -7 -2 -12 -16 -11 -31 2 -22 -2 -26 -27 -26 -31 0 -46 15
-42 43 5 30 -18 18 -24 -13 -7 -33 -16 -37 -34 -15 -7 8 -47 37 -89 63 -108
67 -226 193 -311 331 l-33 53 39 34 c29 25 157 91 182 94 1 0 29 -13 61 -29z
m2005 -432 c14 -11 52 -31 85 -44 108 -42 235 -145 274 -221 19 -39 34 -105
57 -259 10 -71 28 -166 39 -209 39 -149 25 -207 -70 -280 -86 -67 -115 -100
-150 -171 l-30 -60 7 -131 c7 -144 -3 -284 -43 -579 -13 -104 -26 -225 -26
-267 l-2 -78 -28 0 c-16 0 -44 -7 -63 -16 -29 -14 -37 -14 -51 -3 -29 24 -72
129 -66 159 4 23 -2 36 -36 72 -37 41 -101 162 -101 192 0 34 -37 47 -166 56
-71 5 -143 10 -160 10 l-31 0 23 91 c30 113 30 162 3 236 -16 41 -37 72 -78
111 -104 100 -185 152 -382 249 l-195 96 27 96 c15 53 32 109 38 125 l11 28
29 -39 c45 -63 100 -103 140 -103 50 0 256 102 308 153 23 22 45 54 49 70 6
27 8 29 43 23 103 -16 150 -18 184 -7 l36 12 -6 84 c-7 94 7 186 39 255 83
185 114 236 179 302 36 37 71 68 76 68 6 0 22 -9 37 -21z m-1957 -88 c51 -33
112 -78 137 -101 54 -50 119 -149 137 -209 16 -55 137 -172 200 -193 32 -11
51 -26 76 -62 41 -59 41 -73 3 -81 -16 -4 -57 -26 -90 -51 -33 -24 -62 -44
-65 -44 -2 0 -51 -20 -109 -45 -139 -59 -182 -69 -217 -48 -27 16 -28 15 -103
-47 -42 -34 -76 -64 -76 -65 0 -6 329 -284 405 -342 44 -34 116 -84 160 -110
l80 -48 -3 -106 -3 -105 -29 4 c-35 5 -101 -26 -147 -70 l-31 -30 -34 25 c-65
50 -126 70 -218 71 -47 1 -105 -3 -130 -7 l-45 -8 -142 130 c-78 72 -145 141
-149 153 -11 35 -6 193 10 288 10 64 11 89 2 99 -20 25 -319 285 -413 359
l-92 73 52 43 c137 111 297 201 412 231 64 16 198 20 257 6 57 -13 64 4 33 80
-36 91 -41 132 -20 182 9 23 21 52 26 65 5 12 14 22 22 22 7 0 54 -27 104 -59z
m1280 -32 c24 -11 43 -25 43 -30 0 -5 29 -9 63 -9 51 0 68 -4 82 -20 10 -11
40 -34 66 -51 27 -17 58 -46 69 -65 21 -33 21 -34 3 -111 -10 -47 -17 -115
-17 -171 1 -91 0 -93 -25 -99 -24 -6 -152 15 -193 32 -14 6 -19 -2 -29 -41
-17 -66 -69 -113 -176 -159 -49 -21 -97 -44 -108 -51 -45 -32 -98 -4 -165 88
-46 63 -56 64 -85 7 -15 -28 -75 -233 -75 -255 0 -7 48 -36 108 -64 246 -120
287 -142 345 -184 34 -24 92 -73 128 -108 74 -71 89 -104 89 -203 0 -53 -28
-187 -43 -201 -22 -22 -398 155 -434 204 -47 64 -148 100 -328 117 -45 5 -87
16 -117 32 -67 36 -214 149 -388 297 l-152 130 34 28 c65 56 73 60 101 47 20
-9 37 -9 74 0 83 21 280 108 328 145 26 19 67 43 92 52 44 17 45 18 40 56 -3
24 -21 59 -46 93 -46 61 -48 71 -24 141 24 71 78 148 133 189 l47 35 99 -47
c109 -51 180 -73 236 -73 36 0 36 1 43 48 3 27 19 73 34 103 68 132 72 135
148 98z m-566 -1423 c97 -18 141 -39 183 -87 24 -29 70 -57 172 -108 220 -108
269 -122 462 -131 159 -7 192 -15 192 -45 0 -29 65 -153 97 -187 27 -28 34
-43 31 -62 -8 -39 59 -165 99 -189 30 -17 32 -17 65 3 27 16 87 28 88 18 1 -2
27 -182 59 -400 66 -457 73 -409 -59 -384 -89 17 -132 11 -220 -34 -44 -22
-73 -47 -114 -99 -62 -77 -108 -111 -165 -118 -34 -5 -43 -1 -79 31 -44 40
-106 154 -163 296 -58 147 -122 194 -235 171 -164 -32 -258 12 -379 179 -117
162 -133 179 -197 211 -114 57 -237 39 -439 -65 -127 -65 -164 -74 -210 -50
-28 14 -243 148 -258 160 -9 8 104 166 245 345 131 165 124 144 75 224 -23 37
-40 69 -39 71 2 1 34 7 71 12 113 15 207 -9 294 -75 l33 -24 67 51 c70 54 73
55 168 38 15 -2 19 2 17 17 -10 69 -14 160 -8 199 7 44 9 46 39 46 18 -1 66
-7 108 -14z"/>
<path d="M1944 4632 c-20 -14 -24 -41 -6 -52 13 -8 2 -10 -45 -7 -60 3 -61 3
-60 -22 2 -18 -4 -26 -22 -30 -21 -6 -22 -8 -7 -20 20 -17 46 -7 53 19 5 19
14 20 144 20 114 0 139 3 139 14 0 18 -38 46 -62 46 -21 0 -24 -16 -5 -23 6
-3 2 -6 -10 -6 -20 -1 -23 4 -23 34 0 19 -4 35 -10 35 -5 0 -10 -16 -10 -35 0
-38 -13 -44 -43 -21 -17 13 -17 15 -1 24 9 5 14 14 10 21 -8 13 -26 14 -42 3z"/>
<path d="M1828 3888 c-24 -6 -38 -16 -39 -26 -2 -23 -1 -24 6 -43 5 -14 0 -16
-27 -14 -18 2 -39 4 -46 4 -7 1 -17 11 -21 24 -9 22 -9 22 -16 -6 -13 -49 5
-57 119 -54 l101 2 3 29 c5 41 -14 57 -28 22 -8 -23 -13 -25 -29 -16 -36 19
-32 30 14 42 25 7 44 17 41 23 -2 5 -9 9 -15 8 -6 -2 -11 2 -11 7 0 11 -2 11
-52 -2z"/>
<path d="M2149 3841 c-6 -17 -19 -31 -32 -34 -25 -5 -100 -1 -134 8 -25 6 -41
-11 -24 -28 18 -18 13 -33 -14 -45 -32 -15 -32 -32 1 -32 19 0 28 7 37 30 l11
30 91 1 c49 1 102 0 116 -1 15 -1 29 5 32 14 7 17 -25 61 -54 77 -17 9 -21 6
-30 -20z"/>
<path d="M3786 4050 c-72 -22 -108 -99 -80 -169 54 -135 251 -91 247 56 -2 79
-87 137 -167 113z m111 -55 c32 -32 35 -40 30 -76 -6 -48 -21 -68 -65 -86 -65
-27 -129 13 -139 86 -5 36 -2 44 30 76 27 27 43 35 72 35 29 0 45 -8 72 -35z"/>
<path d="M3785 3998 c-50 -29 -59 -81 -21 -124 47 -56 146 -20 146 52 0 32
-51 84 -82 84 -13 0 -32 -6 -43 -12z"/>
<path d="M4502 2498 c-18 -18 -14 -27 10 -20 14 3 19 2 14 -6 -9 -15 -192 -16
-201 -2 -15 24 -27 9 -21 -25 7 -35 7 -35 -29 -35 -28 0 -37 5 -44 22 l-8 23
-8 -25 c-6 -18 -3 -28 15 -42 12 -10 31 -18 41 -18 20 0 59 33 59 50 0 6 37
10 92 10 66 0 105 5 135 18 49 20 55 37 16 45 -16 3 -35 8 -43 12 -9 3 -21 0
-28 -7z"/>
</g>
</svg>
