<?xml version="1.0" standalone="no"?>
<!DOCTYPE svg PUBLIC "-//W3C//DTD SVG 20010904//EN"
 "http://www.w3.org/TR/2001/REC-SVG-20010904/DTD/svg10.dtd">
<svg version="1.0" xmlns="http://www.w3.org/2000/svg"
 width="1846.000000pt" height="1477.000000pt" viewBox="0 0 1846.000000 1477.000000"
 preserveAspectRatio="xMidYMid meet">

<g transform="translate(0.000000,1477.000000) scale(0.100000,-0.100000)"
fill="#000000" stroke="none">
<path d="M4211 14729 c-64 -20 -155 -89 -197 -152 -16 -23 -31 -44 -34 -47
-15 -13 -48 -69 -60 -100 -36 -95 -123 -264 -168 -326 -100 -138 -302 -572
-392 -844 -12 -35 -28 -76 -36 -92 -8 -15 -14 -36 -14 -46 0 -11 -7 -25 -15
-32 -9 -7 -23 -29 -32 -48 -20 -43 -118 -149 -170 -185 -21 -15 -72 -36 -113
-48 -41 -12 -101 -30 -133 -40 -79 -26 -126 -24 -171 6 -80 54 -209 105 -266
105 -37 0 -69 -29 -100 -91 -44 -85 -193 -259 -223 -259 -7 0 -61 -20 -122
-44 -96 -38 -113 -49 -138 -84 -15 -22 -43 -50 -62 -62 -19 -12 -35 -26 -35
-31 0 -17 -56 -38 -121 -45 -35 -3 -71 -10 -79 -14 -9 -5 -40 -52 -69 -106
l-54 -97 22 -61 c12 -33 30 -70 40 -81 32 -35 70 -109 96 -185 19 -56 34 -81
63 -106 26 -22 47 -54 67 -103 15 -39 43 -89 62 -110 18 -22 33 -43 33 -49 0
-5 -27 -32 -60 -61 -32 -28 -93 -92 -135 -141 -42 -49 -87 -92 -98 -96 -38
-11 -57 -36 -78 -103 -17 -55 -20 -92 -20 -216 1 -165 8 -135 -89 -355 -23
-52 -60 -138 -83 -190 -22 -52 -49 -104 -59 -116 -15 -17 -82 -48 -208 -96
-35 -13 -59 -50 -72 -111 -10 -49 -9 -56 18 -111 17 -35 41 -67 58 -77 44 -27
202 -167 231 -205 41 -54 81 -44 136 36 23 35 54 13 73 -54 14 -47 14 -59 1
-102 -21 -72 -22 -126 -2 -154 9 -14 17 -39 17 -56 0 -24 9 -40 35 -63 20 -17
41 -31 49 -31 7 0 40 -24 73 -53 34 -29 88 -70 120 -92 32 -22 74 -52 93 -67
19 -15 56 -36 82 -48 25 -11 58 -34 73 -52 15 -17 46 -46 70 -64 24 -19 54
-53 67 -76 26 -48 79 -88 117 -88 14 -1 51 -9 81 -20 38 -13 82 -19 141 -20
85 0 86 0 117 34 24 27 420 276 438 276 5 0 257 155 293 180 14 10 73 46 131
80 58 34 145 86 194 116 50 30 97 53 105 52 11 -2 18 -20 23 -53 9 -66 30
-173 73 -380 23 -108 38 -208 40 -273 4 -97 3 -106 -19 -135 -42 -56 -58 -96
-51 -128 5 -21 1 -37 -14 -58 -12 -16 -21 -40 -21 -54 0 -36 55 -104 132 -162
36 -27 115 -90 176 -140 61 -49 142 -114 179 -142 37 -29 92 -71 121 -94 30
-22 68 -60 84 -84 17 -25 44 -48 59 -54 15 -5 52 -32 83 -60 63 -57 90 -67
138 -53 18 6 56 13 83 17 96 12 174 42 253 97 46 32 57 35 84 27 43 -12 77
-46 87 -88 11 -42 26 -247 23 -309 -3 -62 13 -111 51 -153 29 -33 210 -162
289 -208 76 -43 209 -121 287 -169 46 -29 92 -52 102 -52 10 0 30 -16 46 -36
15 -20 46 -45 69 -54 23 -10 51 -31 62 -48 14 -19 42 -37 84 -52 34 -12 85
-35 113 -50 27 -15 61 -31 75 -35 41 -13 77 -43 84 -71 4 -14 16 -38 27 -53
38 -51 -1 -85 -78 -68 -40 10 -45 8 -71 -16 -16 -15 -37 -27 -48 -27 -29 0
-55 -22 -73 -61 -12 -25 -27 -38 -61 -50 -37 -13 -49 -24 -64 -58 -17 -35 -26
-43 -63 -52 -46 -12 -57 -22 -82 -72 -17 -33 -32 -37 -92 -22 -19 5 -33 0 -56
-19 -39 -33 -48 -32 -163 3 -131 40 -168 43 -300 25 -63 -8 -178 -20 -255 -25
-156 -10 -168 -16 -181 -87 -6 -28 -2 -46 16 -77 12 -22 42 -78 67 -125 25
-47 60 -103 79 -125 54 -62 96 -129 167 -268 37 -70 86 -156 110 -190 24 -34
52 -82 62 -106 16 -37 36 -54 144 -127 114 -77 149 -100 219 -149 27 -20 28
-39 2 -72 -49 -62 -4 -124 110 -153 41 -10 84 -18 95 -17 19 2 20 -5 23 -198
2 -112 -2 -237 -9 -285 -6 -47 -13 -152 -15 -235 -5 -175 -9 -209 -33 -251
-16 -27 -19 -63 -22 -295 -4 -289 7 -433 46 -614 3 -16 8 -39 9 -50 2 -11 5
-22 6 -25 1 -3 3 -9 4 -15 13 -55 21 -77 40 -94 25 -23 141 -82 201 -101 166
-53 285 -176 285 -294 l0 -50 -97 -91 c-185 -170 -180 -165 -187 -220 -3 -28
-16 -86 -27 -130 -12 -44 -25 -102 -31 -130 -5 -27 -16 -72 -24 -99 -19 -58
-38 -235 -31 -285 3 -20 14 -71 26 -115 24 -90 26 -128 10 -241 -11 -75 -10
-84 9 -122 40 -77 211 -185 323 -202 95 -15 233 15 358 79 67 34 236 132 271
157 15 11 44 18 75 19 28 1 80 9 118 19 62 16 71 22 123 81 62 70 91 80 135
46 58 -45 128 -56 198 -31 49 17 73 18 235 12 178 -6 182 -7 261 -41 63 -27
96 -50 155 -107 135 -130 231 -144 494 -72 46 13 76 38 83 71 32 148 34 159
24 189 -19 54 -14 96 17 122 15 13 38 27 51 30 41 11 105 61 169 133 34 38 62
74 62 79 0 5 11 24 25 43 14 18 27 50 31 69 9 58 35 133 60 176 13 23 32 74
41 115 22 89 54 142 139 232 35 36 64 75 64 85 0 10 -18 47 -40 80 -62 96 -75
136 -60 183 27 83 154 196 313 279 44 22 95 55 115 72 29 26 41 30 69 26 25
-4 55 3 112 28 73 31 81 32 101 18 24 -17 49 -15 180 15 81 18 85 20 94 52 7
22 19 37 40 46 17 7 39 22 48 33 13 16 30 21 63 21 38 0 51 -6 85 -36 40 -36
42 -37 80 -24 35 12 41 11 66 -9 44 -34 66 -27 123 37 35 42 70 68 116 91 44
22 70 42 80 62 16 31 31 35 111 30 23 -1 60 3 82 9 33 8 48 8 79 -5 63 -26 94
-4 156 111 15 29 27 59 27 68 0 28 69 95 106 102 19 3 53 21 76 40 24 19 49
34 56 34 7 0 32 18 56 40 35 32 51 40 82 40 53 0 77 19 99 77 21 58 42 83 67
83 69 0 138 80 138 160 0 84 -71 179 -149 200 -43 11 -71 54 -71 107 0 27 -26
90 -52 125 -11 16 -3 47 31 118 4 8 31 28 59 43 46 25 86 67 176 182 30 39 78
65 120 65 65 0 127 72 134 156 4 46 1 54 -29 88 -18 21 -51 46 -74 57 -46 22
-185 159 -185 183 0 19 -105 133 -139 150 -14 7 -43 16 -64 20 -41 8 -52 18
-216 191 -57 60 -110 125 -118 145 -8 19 -41 87 -74 152 -32 64 -59 127 -59
140 0 12 -7 44 -15 71 -8 26 -12 47 -9 47 9 0 -40 87 -100 175 -33 50 -92 122
-130 160 -39 39 -80 83 -93 99 l-22 29 19 38 c25 48 25 87 0 167 -11 35 -20
74 -20 86 0 23 4 26 82 59 59 26 78 74 78 198 0 157 35 209 139 209 48 0 65 6
111 35 64 42 82 43 104 10 9 -13 36 -47 61 -75 24 -27 60 -83 78 -122 37 -80
58 -103 162 -178 140 -101 181 -126 225 -139 82 -24 225 -108 297 -174 26 -24
42 -30 99 -35 67 -5 70 -7 127 -61 64 -60 107 -136 107 -188 0 -18 -9 -56 -21
-84 -26 -68 -35 -165 -19 -215 7 -21 32 -70 55 -109 24 -38 50 -86 58 -106 8
-20 26 -47 40 -60 14 -13 41 -55 61 -94 33 -66 80 -121 136 -159 30 -20 91
-20 147 -1 23 8 50 12 60 9 10 -4 46 -17 80 -30 77 -30 136 -30 219 -2 59 21
66 22 91 8 18 -10 30 -30 40 -63 9 -31 27 -60 51 -83 20 -19 76 -73 124 -119
75 -72 93 -85 131 -90 55 -9 184 11 216 32 13 8 52 20 85 25 34 5 76 11 94 15
28 4 39 0 65 -25 18 -16 47 -37 66 -47 71 -36 224 8 406 115 54 32 124 40 143
17 6 -7 18 -44 28 -82 17 -73 44 -126 72 -148 41 -30 66 -70 71 -110 5 -37 11
-44 46 -61 104 -49 198 -79 280 -87 189 -21 386 -32 533 -32 191 1 208 7 257
92 24 41 46 62 91 88 32 19 68 43 79 53 23 22 123 69 158 76 52 9 125 50 176
98 29 28 70 67 91 86 36 34 37 36 43 130 7 106 2 124 -71 244 -22 37 -45 90
-51 117 -6 27 -18 66 -26 85 -30 73 -16 132 54 230 26 37 44 75 51 112 27 133
33 152 57 184 13 18 38 58 53 89 16 31 47 71 68 88 22 17 49 50 61 73 12 24
34 63 48 87 26 43 26 44 9 96 -9 28 -16 70 -16 92 0 22 -7 60 -15 83 -8 23
-13 46 -10 50 3 5 1 11 -5 15 -6 4 -7 11 -4 17 4 6 -44 60 -105 119 l-112 109
15 54 c29 97 20 151 -38 231 -12 17 -32 62 -44 101 -28 90 -52 121 -105 135
-23 6 -46 14 -52 19 -23 17 -114 41 -180 46 -114 9 -178 32 -243 86 -31 27
-75 54 -97 60 -22 6 -51 19 -65 29 -43 29 -123 57 -179 63 -29 3 -72 12 -95
19 -22 8 -67 23 -99 32 -47 15 -65 28 -100 69 -23 28 -51 68 -62 89 -11 20
-22 37 -26 37 -4 0 -12 14 -19 31 -7 17 -92 110 -188 206 -118 119 -181 190
-194 219 -10 24 -25 49 -33 56 -138 128 -344 276 -478 344 -17 9 -59 42 -92
74 -86 82 -214 140 -307 140 -33 0 -40 4 -57 38 -10 20 -33 47 -50 60 -18 13
-35 38 -42 62 -9 31 -19 42 -38 46 -85 19 -101 37 -101 120 0 37 -6 59 -21 78
-11 14 -35 54 -53 88 -25 49 -42 68 -81 91 -27 16 -85 63 -129 104 -44 42
-100 84 -124 94 -27 12 -75 51 -126 102 -61 63 -93 88 -131 101 -27 10 -73 34
-101 53 -63 41 -94 103 -94 186 0 39 -5 58 -17 69 -22 19 -59 38 -82 43 -39 7
-130 77 -195 151 -61 66 -71 84 -78 128 -18 117 -27 289 -21 412 3 72 7 196 8
275 2 149 19 259 48 316 23 44 21 95 -4 127 -12 15 -57 52 -100 82 -44 31 -79
62 -79 70 0 7 -12 43 -26 78 -20 50 -41 79 -94 130 -37 36 -74 66 -82 66 -8 0
-31 16 -53 35 -21 20 -86 59 -144 87 -95 46 -114 52 -186 56 -58 3 -91 0 -118
-11 l-37 -16 -24 37 c-12 20 -32 58 -43 83 -17 38 -28 49 -57 59 -48 15 -58
12 -201 -62 -115 -61 -121 -66 -173 -138 -98 -136 -112 -162 -112 -201 0 -21
-5 -50 -11 -66 -6 -15 -15 -57 -19 -92 -12 -89 -35 -112 -117 -113 -53 -1 -73
5 -156 46 -80 39 -103 46 -154 46 -77 0 -113 24 -113 76 0 26 -9 45 -40 78
-45 49 -167 116 -211 116 -51 0 -141 -29 -176 -57 -137 -111 -142 -111 -188 8
-18 44 -25 82 -25 129 0 66 -1 68 -56 139 -43 55 -69 78 -115 101 -32 17 -69
30 -81 30 -36 0 -85 35 -124 90 -20 27 -39 50 -43 50 -10 0 -91 77 -91 86 0 4
-7 15 -16 25 -9 10 -20 37 -25 61 -14 62 -31 82 -107 132 -59 40 -77 46 -157
57 -49 6 -107 18 -129 25 -29 11 -92 14 -235 14 -208 -1 -225 2 -327 53 -27
14 -68 30 -91 36 -30 8 -47 21 -62 44 -39 64 -53 70 -113 57 -51 -12 -59 -11
-127 16 -56 22 -80 38 -104 69 -17 22 -81 92 -142 155 -61 63 -117 131 -125
150 -7 19 -41 73 -75 120 -35 47 -75 109 -90 138 -15 28 -31 52 -36 52 -5 0
-9 6 -9 13 0 7 -20 23 -44 35 -25 11 -75 50 -113 85 -79 75 -290 197 -339 197
-8 0 -34 18 -57 40 -79 72 -137 79 -217 25 -57 -38 -79 -41 -190 -25 -85 12
-133 -1 -187 -51 -24 -21 -49 -39 -57 -39 -8 0 -20 16 -26 35 -7 22 -30 50
-58 73 -26 20 -81 71 -122 113 -70 71 -78 77 -129 83 -30 4 -66 13 -80 20 -14
8 -51 17 -81 21 -30 3 -72 11 -94 16 -54 14 -107 3 -157 -34 -39 -29 -51 -32
-119 -33 -41 -1 -112 -5 -157 -9 -54 -5 -98 -3 -132 5 -51 12 -137 68 -193
125 -23 22 -40 29 -97 35 -86 9 -186 -1 -228 -23 -18 -9 -46 -17 -64 -17 -17
0 -59 -7 -93 -16 -77 -20 -217 -16 -224 6 -9 31 -110 117 -178 152 -78 41
-155 54 -213 37z m170 -86 c32 -16 82 -55 124 -98 39 -40 85 -77 104 -83 43
-15 151 -15 188 -1 15 6 57 15 93 19 36 5 99 20 140 34 50 17 97 26 139 26
l64 0 73 -70 c103 -100 140 -114 289 -114 66 0 145 2 175 3 57 3 117 -16 140
-44 8 -10 11 -31 7 -62 -3 -30 0 -61 10 -85 14 -36 14 -38 -10 -64 -14 -15
-33 -56 -43 -91 -15 -57 -24 -71 -76 -117 -32 -29 -58 -60 -58 -70 0 -9 15
-25 33 -36 41 -25 185 -70 226 -70 41 0 123 -50 192 -118 63 -60 72 -87 84
-242 8 -110 34 -155 115 -203 93 -54 126 -67 190 -78 74 -12 453 -137 552
-182 42 -19 100 -53 130 -75 71 -53 226 -222 240 -264 6 -18 38 -64 70 -101
32 -38 72 -95 88 -126 37 -74 146 -176 241 -226 49 -26 110 -73 195 -152 82
-77 142 -124 181 -143 60 -28 113 -73 113 -95 0 -7 -11 -16 -25 -19 -13 -3
-35 -20 -47 -37 -13 -17 -44 -42 -70 -55 -58 -29 -88 -67 -88 -110 0 -30 -3
-34 -25 -34 -18 0 -46 21 -102 80 -64 67 -86 83 -142 104 -79 29 -207 40 -428
37 -90 -2 -183 2 -225 10 -65 11 -80 18 -136 66 -50 42 -71 53 -98 53 -38 0
-102 -29 -124 -55 -7 -9 -35 -25 -62 -37 -62 -26 -95 -66 -103 -123 -7 -41 -3
-51 39 -122 36 -60 46 -87 46 -118 -2 -66 12 -168 25 -195 7 -14 22 -34 34
-44 12 -11 21 -24 21 -31 0 -18 31 -41 75 -55 22 -7 80 -32 130 -57 83 -40 95
-44 160 -42 66 2 115 -12 115 -33 0 -4 13 -22 29 -40 15 -18 45 -68 67 -111
38 -77 38 -77 19 -96 -11 -11 -65 -36 -120 -55 -97 -35 -145 -68 -145 -101 0
-21 59 -65 86 -65 31 0 84 -26 84 -42 0 -7 -12 -8 -37 -3 -21 4 -56 7 -78 6
-22 -1 -57 6 -77 15 -68 31 -120 -9 -158 -122 -11 -31 -25 -62 -30 -69 -12
-14 19 -145 46 -197 10 -20 13 -42 9 -68 -4 -23 -2 -41 4 -45 6 -3 11 -19 11
-34 0 -43 20 -90 41 -96 10 -4 19 -15 19 -25 0 -24 -62 -90 -84 -90 -23 0 -93
-37 -138 -72 -66 -52 -48 -85 92 -168 70 -42 113 -83 151 -141 23 -37 44 -53
96 -79 37 -17 83 -45 102 -62 19 -17 62 -43 95 -59 33 -16 83 -50 110 -77 83
-80 185 -161 242 -194 30 -16 76 -50 104 -75 48 -43 49 -45 43 -88 -5 -42 -4
-45 26 -62 34 -20 50 -57 34 -82 -17 -27 -76 -34 -138 -17 -51 15 -58 15 -89
1 -18 -9 -44 -27 -57 -41 -31 -33 -52 -32 -45 4 4 16 1 35 -6 45 -17 22 -85
39 -109 27 -20 -11 -69 -92 -69 -114 0 -45 -145 -120 -235 -122 -136 -2 -225
-46 -225 -112 0 -43 28 -71 89 -87 60 -16 96 -42 82 -59 -6 -6 -12 -23 -14
-36 -2 -14 -9 -36 -14 -50 -7 -16 -7 -29 -1 -37 5 -7 9 -22 7 -35 -1 -13 1
-30 5 -39 4 -9 6 -20 5 -25 -1 -5 4 -21 11 -37 12 -25 11 -29 -9 -51 -23 -25
-27 -77 -8 -103 5 -7 7 -13 3 -13 -4 0 0 -10 8 -22 7 -13 17 -43 20 -68 7 -45
65 -148 115 -202 14 -16 35 -28 50 -28 33 0 61 -27 61 -59 0 -15 8 -38 18 -51
12 -19 17 -44 17 -99 -1 -79 -14 -101 -62 -101 -13 0 -29 -10 -39 -25 -14 -22
-15 -35 -5 -108 16 -111 55 -194 101 -216 31 -15 35 -21 32 -50 -1 -19 -9 -45
-17 -60 -8 -14 -19 -38 -24 -52 -7 -19 -27 -35 -65 -53 -30 -14 -61 -26 -69
-26 -8 0 -26 -9 -40 -20 -14 -11 -33 -20 -44 -20 -10 0 -38 -10 -63 -21 -35
-16 -56 -19 -96 -14 -37 4 -63 2 -89 -9 -21 -9 -53 -16 -72 -16 -48 0 -66 -12
-103 -70 -33 -52 -72 -80 -110 -80 -12 0 -35 -8 -51 -17 -28 -17 -30 -17 -50
4 -12 12 -36 49 -53 84 -28 56 -36 64 -72 74 -22 7 -67 26 -100 43 -32 17 -72
34 -89 38 -16 4 -51 24 -76 45 -26 21 -65 45 -87 54 -23 10 -57 37 -81 65 -30
36 -51 51 -76 56 -19 3 -52 18 -73 33 -49 36 -191 121 -200 121 -12 0 -180
102 -268 163 -116 81 -133 108 -138 232 -13 308 -22 340 -112 394 -76 47 -82
56 -75 131 1 6 13 10 27 10 29 0 95 64 115 112 14 35 -4 82 -63 160 -27 37
-36 57 -32 74 8 30 -24 97 -72 152 -37 43 -60 51 -94 30 -28 -18 -32 -6 -15
35 9 21 15 67 15 109 0 62 -4 79 -25 111 -14 20 -29 37 -34 37 -13 0 -131 254
-131 282 0 35 -89 168 -172 257 -97 104 -128 172 -137 303 l-6 78 256 -7 c140
-3 267 -3 282 1 15 3 57 33 93 66 36 33 76 63 89 66 30 7 90 -32 109 -71 26
-54 61 -78 121 -83 70 -6 89 6 155 102 l52 76 74 -7 c66 -5 78 -3 129 22 77
37 231 184 245 233 18 66 12 96 -29 157 -45 65 -43 43 -21 292 12 127 37 188
116 275 38 42 76 99 107 161 33 68 62 110 96 142 58 54 93 129 94 198 1 46 -2
52 -44 92 -40 37 -51 43 -114 50 -166 21 -209 14 -475 -80 l-105 -37 -130 5
c-78 3 -152 12 -185 22 -116 35 -132 30 -287 -102 -77 -66 -109 -83 -158 -83
-100 0 -204 50 -309 150 -87 82 -125 94 -301 95 -119 1 -159 5 -192 19 l-42
18 24 46 c13 26 51 77 84 114 34 36 61 73 61 81 0 32 -318 207 -405 223 -88
16 -122 39 -171 116 -26 40 -66 98 -89 128 -23 30 -57 82 -74 116 -35 66 -175
248 -277 358 -35 38 -64 72 -64 76 0 4 -65 65 -145 135 -80 70 -144 133 -142
139 2 6 32 18 68 27 101 26 151 55 232 134 68 67 82 88 142 212 37 76 84 188
105 248 21 61 57 155 80 210 23 55 56 134 74 176 42 102 105 217 197 358 71
108 176 301 164 301 -3 0 6 22 20 50 24 46 77 115 146 186 66 70 148 82 240
37z m-1883 -1859 c32 -9 86 -37 121 -62 64 -46 65 -46 139 -44 l75 2 46 -42
c26 -24 94 -83 152 -133 59 -49 117 -105 130 -124 13 -19 58 -72 101 -118 85
-92 184 -224 218 -293 29 -58 108 -170 121 -170 5 0 9 -5 9 -11 0 -6 6 -16 13
-24 6 -7 30 -42 52 -78 44 -73 77 -93 192 -121 35 -9 86 -27 114 -42 28 -14
60 -27 70 -29 27 -5 127 -68 133 -83 3 -7 -13 -36 -35 -65 -43 -54 -145 -245
-165 -309 -14 -45 -12 -181 5 -268 7 -36 19 -98 27 -138 8 -40 14 -102 14
-139 0 -60 -4 -72 -36 -119 -50 -72 -43 -100 31 -137 64 -31 81 -54 88 -124
l6 -52 -60 -47 c-32 -26 -59 -51 -59 -55 0 -15 -62 -80 -89 -94 -18 -9 -82
-15 -196 -18 -146 -5 -180 -9 -241 -30 -39 -14 -103 -30 -143 -37 -94 -16
-115 -35 -106 -93 9 -50 38 -112 70 -147 13 -14 49 -76 81 -139 76 -149 81
-152 196 -122 122 31 132 18 30 -40 -31 -18 -98 -58 -147 -89 -50 -31 -120
-73 -156 -92 -82 -46 -361 -212 -414 -248 -59 -39 -211 -132 -280 -170 -33
-18 -82 -49 -108 -68 -46 -33 -51 -34 -108 -29 -32 4 -76 14 -96 23 -21 9 -58
19 -83 22 -41 7 -47 11 -72 57 -14 27 -41 61 -60 75 -18 14 -50 42 -72 62 -21
20 -65 50 -97 66 -77 39 -197 124 -275 195 -35 31 -71 57 -79 57 -25 0 -65 46
-65 76 0 15 -9 42 -20 60 l-21 33 21 50 c23 51 28 103 16 156 -4 17 -9 40 -12
53 -3 16 -23 32 -68 54 -74 36 -103 33 -128 -12 -9 -16 -21 -30 -26 -30 -16 0
-250 196 -281 236 -12 15 -21 39 -21 55 0 43 50 94 107 109 77 21 146 55 175
86 23 24 55 92 58 122 3 26 16 65 40 117 15 33 56 122 90 197 l63 136 -5 137
c-3 78 -1 154 5 178 10 44 42 87 63 87 7 0 39 30 71 67 56 65 180 189 236 238
43 38 37 72 -25 132 -38 36 -61 69 -81 119 -16 38 -46 87 -66 109 -24 26 -42
58 -50 89 -6 27 -41 98 -76 157 -36 59 -65 112 -65 119 0 21 61 135 81 153 12
9 36 17 55 17 43 0 108 25 158 62 22 15 44 28 50 28 13 0 56 41 56 54 0 15 42
56 58 56 8 0 28 7 45 15 18 8 57 23 87 34 84 31 230 180 296 302 31 55 38 57
122 33z m1648 -1706 c43 -20 67 -22 199 -23 176 -1 214 -13 301 -95 105 -100
209 -150 309 -150 49 0 81 17 158 83 155 132 171 137 287 102 33 -10 107 -19
185 -22 l130 -5 105 37 c265 94 309 102 473 81 81 -11 94 -27 77 -103 -15 -64
-34 -97 -86 -145 -33 -30 -61 -73 -97 -147 -35 -70 -71 -125 -111 -169 -79
-87 -104 -148 -116 -275 -22 -249 -24 -227 21 -292 41 -61 47 -91 29 -157 -13
-45 -91 -117 -168 -155 -48 -24 -60 -25 -131 -19 l-78 6 -34 -38 c-19 -20 -50
-61 -69 -89 -33 -50 -37 -52 -80 -53 -42 0 -48 4 -88 50 -58 67 -126 114 -157
106 -12 -3 -53 -33 -89 -66 -36 -33 -78 -63 -93 -66 -15 -4 -143 -4 -285 -1
l-259 7 -36 -33 c-36 -33 -36 -34 -34 -109 1 -51 10 -98 27 -144 30 -84 39
-98 118 -182 77 -82 166 -215 166 -250 0 -14 25 -79 57 -144 31 -65 53 -121
49 -125 -3 -4 -97 -2 -209 4 -175 10 -211 14 -267 36 -36 14 -88 28 -115 32
-188 24 -254 80 -290 240 -36 162 -86 382 -100 436 -8 30 -15 67 -15 82 0 15
-10 37 -21 48 -18 18 -29 20 -73 15 -28 -4 -66 -12 -85 -18 -75 -24 -151 -35
-165 -24 -7 6 -35 52 -61 101 -26 50 -64 113 -85 140 -82 109 -78 119 70 141
25 3 68 18 95 32 47 25 61 27 232 32 l181 5 44 31 c23 17 56 50 71 73 16 23
53 57 82 76 73 46 80 61 65 143 -21 113 -22 114 -85 149 -33 17 -61 36 -63 42
-2 6 7 25 20 43 21 30 23 43 22 143 0 61 -11 175 -23 255 -24 159 -22 261 7
318 20 38 25 39 88 10z m3186 -760 c35 -9 53 -9 72 0 24 10 29 7 77 -48 43
-50 63 -63 123 -86 53 -21 86 -42 131 -85 33 -31 84 -69 114 -84 29 -14 92
-55 140 -89 48 -35 127 -89 175 -121 48 -32 110 -84 139 -117 36 -41 87 -81
167 -131 63 -39 137 -86 164 -104 26 -18 59 -33 73 -33 14 0 40 -15 63 -37 31
-30 43 -52 55 -98 12 -51 21 -66 62 -100 71 -60 240 -231 312 -315 82 -96 102
-105 174 -81 75 26 96 38 137 76 32 30 42 33 110 38 56 3 91 12 140 36 61 29
69 30 120 21 114 -21 142 -23 180 -10 65 21 105 7 180 -66 36 -35 84 -89 106
-119 71 -102 95 -129 218 -255 172 -176 198 -217 202 -320 1 -30 5 -108 9
-174 l8 -118 -33 -72 c-19 -39 -47 -99 -63 -134 -25 -53 -28 -66 -19 -88 7
-13 20 -27 29 -31 10 -3 32 -18 48 -33 25 -22 146 -74 221 -95 11 -3 36 -19
55 -36 19 -17 84 -68 145 -114 61 -47 132 -107 157 -135 45 -49 47 -54 47
-111 0 -74 12 -98 89 -174 34 -33 61 -67 61 -76 0 -9 -9 -24 -21 -35 -12 -10
-33 -39 -47 -64 -24 -39 -27 -57 -29 -148 -3 -132 -8 -141 -65 -124 -24 7 -61
17 -83 22 -22 6 -71 19 -110 30 -38 11 -124 31 -190 45 -216 45 -251 55 -415
125 -244 105 -307 138 -343 185 -17 22 -36 45 -43 51 -7 6 -22 32 -34 58 -19
46 -53 81 -159 170 -65 55 -71 53 -217 -62 -93 -73 -120 -75 -238 -22 -36 17
-73 30 -81 30 -22 0 -102 -68 -126 -107 -29 -47 -22 -94 16 -112 17 -7 53 -35
80 -62 53 -51 221 -151 281 -168 24 -7 53 -6 89 1 47 9 59 8 91 -9 21 -11 47
-36 59 -56 38 -68 106 -146 134 -152 26 -6 151 -98 183 -137 10 -11 15 -24 12
-30 -3 -5 -1 -29 6 -52 l11 -42 -64 -67 c-36 -37 -70 -67 -76 -67 -5 0 -34 24
-63 53 -59 59 -126 114 -208 170 -96 65 -130 99 -134 134 -5 45 -21 62 -93 95
-34 15 -70 40 -80 54 -10 15 -47 58 -83 96 -61 65 -70 71 -150 95 -126 38
-177 40 -237 9 -27 -13 -65 -41 -82 -62 -31 -34 -33 -41 -27 -86 6 -44 3 -54
-30 -108 -20 -33 -43 -60 -50 -60 -7 0 -25 11 -41 24 -54 45 -206 135 -257
152 -28 9 -58 22 -66 29 -8 7 -34 22 -57 34 -44 22 -63 46 -63 79 0 11 -28 47
-62 81 -57 55 -67 61 -104 61 -33 0 -57 -11 -124 -55 -45 -30 -89 -55 -96 -55
-8 0 -16 0 -19 0 -3 0 -20 -7 -37 -16 -25 -13 -45 -15 -97 -9 -113 12 -154 11
-268 -11 -106 -20 -130 -19 -149 12 -10 14 -18 40 -19 58 -1 18 -4 37 -7 42
-3 5 -5 27 -4 49 1 36 4 40 35 46 51 11 59 25 67 124 5 78 3 97 -15 143 -12
29 -21 66 -21 81 0 37 -50 81 -90 81 -24 0 -36 12 -84 83 -45 66 -56 91 -56
123 0 22 -7 50 -16 62 -24 34 -14 63 25 76 60 20 61 38 7 96 l-48 51 4 72 c3
40 10 86 18 103 28 64 -5 111 -98 139 -34 10 -62 24 -62 31 0 19 116 52 202
57 57 4 86 11 107 26 16 12 33 21 37 21 4 0 27 9 51 21 40 19 43 24 43 59 0
48 13 57 34 25 15 -22 23 -25 79 -25 55 0 67 4 100 31 37 30 37 30 134 25 111
-5 156 6 185 44 26 36 15 108 -23 150 -16 17 -29 38 -29 47 0 44 -87 136 -200
212 -48 33 -161 125 -220 181 -25 24 -77 57 -115 75 -39 18 -84 43 -100 57
-32 26 -92 64 -140 88 -16 8 -36 27 -42 41 -24 49 -88 110 -168 157 -44 27
-81 56 -83 65 -3 17 63 53 133 74 39 11 124 133 125 180 0 26 -5 33 -30 42
-22 7 -32 18 -36 41 -4 17 -11 33 -15 36 -5 3 -9 29 -9 57 0 29 -6 62 -14 73
-8 11 -24 48 -35 82 -19 55 -20 65 -7 90 7 15 17 43 21 62 13 64 29 73 120 66
44 -4 101 -12 127 -18z m-3372 -1691 c84 -93 110 -107 215 -123 52 -8 118 -23
147 -35 60 -23 296 -48 467 -49 129 0 141 -8 141 -87 0 -37 -8 -69 -25 -103
-31 -61 -31 -70 0 -105 26 -27 61 -31 107 -11 27 12 78 -66 78 -118 0 -34 8
-51 45 -96 78 -95 74 -125 -23 -161 -41 -15 -72 -71 -72 -133 0 -61 -6 -72
-54 -105 -53 -36 -125 -61 -206 -71 -36 -5 -78 -12 -93 -16 -24 -5 -34 -1 -65
29 -20 19 -56 46 -79 61 -23 14 -53 40 -65 57 -13 17 -81 76 -153 132 -71 55
-149 116 -172 134 -23 19 -77 60 -120 92 -122 90 -203 161 -215 186 -8 17 -6
28 7 49 13 20 16 38 12 70 -7 46 2 65 55 122 28 30 28 33 26 125 -1 52 2 106
6 121 6 21 3 33 -13 54 -12 15 -21 36 -20 48 0 20 0 20 12 2 7 -11 32 -42 57
-69z m5930 -1561 c0 -2 -8 -10 -17 -17 -16 -13 -17 -12 -4 4 13 16 21 21 21
13z m-70 -49 c0 -2 -15 -16 -32 -33 l-33 -29 29 33 c28 30 36 37 36 29z m-390
-40 c0 -2 -15 -16 -32 -33 l-33 -29 29 33 c28 30 36 37 36 29z m-1164 -185 c7
-4 28 -27 48 -51 33 -40 36 -48 31 -86 l-7 -41 74 -34 c40 -18 83 -41 96 -51
12 -9 46 -23 75 -29 60 -14 182 -82 247 -139 l45 -39 -34 -19 c-18 -10 -45
-27 -60 -39 -14 -11 -45 -26 -69 -33 -79 -23 -152 -111 -138 -168 4 -16 31
-49 64 -78 31 -27 82 -77 112 -110 30 -33 78 -82 105 -110 106 -105 155 -168
166 -209 8 -30 28 -57 73 -101 34 -34 77 -88 95 -120 43 -78 72 -116 145 -193
34 -34 70 -77 81 -95 11 -18 30 -43 43 -55 12 -13 25 -36 29 -52 8 -41 28 -54
92 -60 l55 -5 58 -76 c32 -42 97 -110 145 -150 47 -41 124 -110 172 -153 47
-43 117 -103 154 -133 37 -30 84 -79 105 -110 l36 -55 -27 -50 c-26 -45 -52
-132 -64 -204 -4 -27 1 -36 38 -67 l42 -37 -13 -40 -13 -39 89 -89 c78 -78 95
-90 134 -97 38 -6 56 -18 115 -75 63 -62 141 -122 217 -168 41 -25 41 -38 3
-94 -19 -27 -35 -63 -35 -78 0 -62 78 -116 205 -145 44 -9 90 -21 103 -26 13
-5 32 -9 43 -9 26 0 145 -64 186 -101 37 -32 89 -49 166 -53 30 -2 65 -11 81
-21 15 -10 42 -25 59 -34 41 -20 43 -43 9 -111 -28 -58 -29 -58 -100 -44 -18
3 -53 1 -77 -6 -60 -17 -92 -7 -112 34 -9 19 -25 37 -37 40 -21 5 -78 -23
-126 -63 -22 -17 -23 -22 -12 -40 21 -35 14 -56 -25 -79 -41 -23 -113 -89
-113 -103 0 -17 -22 -9 -41 15 -27 35 -67 42 -93 17 -28 -27 -34 -26 -62 4
-21 23 -30 25 -119 25 -92 0 -96 -1 -105 -25 -5 -13 -25 -35 -45 -47 -19 -13
-38 -34 -42 -47 -6 -25 -56 -51 -98 -51 -14 0 -34 -5 -44 -12 -15 -9 -24 -8
-45 5 -35 24 -57 21 -134 -13 -57 -26 -74 -30 -118 -24 -50 6 -52 5 -106 -43
-31 -26 -84 -63 -119 -81 -192 -97 -298 -200 -343 -331 -11 -30 -10 -43 6 -90
25 -70 52 -124 72 -140 27 -22 18 -44 -36 -97 -73 -71 -124 -156 -130 -219 -5
-49 -15 -76 -64 -165 -13 -24 -24 -56 -24 -70 0 -14 -18 -64 -40 -110 -53
-108 -154 -212 -252 -258 -36 -17 -73 -41 -82 -54 -19 -26 -21 -85 -5 -139 9
-29 9 -53 0 -101 -23 -116 -54 -138 -206 -146 -56 -2 -118 -2 -138 2 -43 8
-134 81 -170 135 -20 30 -40 44 -82 60 -30 12 -77 32 -103 45 -43 22 -64 24
-253 31 -179 6 -210 5 -237 -9 -47 -24 -92 -20 -147 15 -58 37 -107 47 -141
28 -14 -7 -47 -41 -74 -74 -44 -57 -54 -64 -120 -85 -64 -21 -78 -22 -117 -12
-47 13 -76 5 -86 -22 -3 -8 -24 -20 -45 -27 -22 -6 -59 -31 -83 -54 -85 -82
-270 -156 -394 -157 -115 -2 -248 65 -312 156 l-25 35 17 86 c22 112 13 195
-33 307 -19 49 -10 166 23 300 14 53 25 112 25 130 0 19 4 38 8 43 5 6 17 56
28 113 l19 102 112 103 c62 56 128 122 145 147 30 40 33 52 32 110 -1 85 -35
152 -122 236 -64 63 -83 73 -287 154 -44 18 -87 39 -96 48 -18 18 -51 153 -68
272 -39 283 -38 255 -27 529 5 126 12 190 21 205 23 36 43 175 49 341 4 88 11
232 16 320 5 88 9 212 10 276 0 98 -3 118 -17 131 -29 24 -53 29 -92 17 -30
-9 -44 -7 -83 10 -51 22 -60 41 -33 71 20 22 28 66 17 86 -8 14 -80 68 -197
148 -172 117 -197 140 -231 205 -18 35 -42 74 -53 85 -19 22 -101 162 -101
175 0 16 -97 171 -137 218 -24 29 -66 99 -93 155 -27 57 -59 117 -70 134 -29
44 -16 51 120 63 63 6 140 15 171 21 143 26 211 28 269 8 153 -53 239 -62 286
-32 16 11 26 11 52 2 28 -11 37 -10 68 7 20 11 52 38 70 61 19 23 48 47 64 54
16 6 40 29 54 51 15 22 34 39 45 39 27 0 68 36 75 66 5 17 19 30 44 41 20 8
44 21 52 28 8 7 48 15 89 17 72 4 75 5 108 43 34 40 77 61 149 74 53 9 111 46
129 80 20 40 36 50 96 62 48 10 94 16 264 35 32 4 59 14 75 28 32 29 124 76
149 76 25 0 50 37 86 129 24 59 36 78 67 97 21 13 38 30 38 38 0 26 25 38 54
24 21 -9 34 -9 60 0 25 9 52 10 110 2 l76 -11 87 41 c47 23 116 62 152 86 71
47 70 47 87 36z m801 -180 c-11 -12 -18 -39 -19 -78 l-2 -59 -3 59 c-3 45 0
63 13 77 9 11 19 19 22 19 3 0 -2 -8 -11 -18z m344 -19 c13 -16 12 -17 -3 -4
-10 7 -18 15 -18 17 0 8 8 3 21 -13z m30 -40 c13 -16 12 -17 -3 -4 -10 7 -18
15 -18 17 0 8 8 3 21 -13z m60 -60 c13 -16 12 -17 -3 -4 -10 7 -18 15 -18 17
0 8 8 3 21 -13z m1604 -59 c168 -45 163 -44 120 -38 -36 5 -103 22 -175 45
-46 14 -5 9 55 -7z m-1501 -28 c15 -4 26 -9 24 -11 -8 -9 -76 16 -89 32 -13
15 -12 15 11 1 14 -9 38 -19 54 -22z m61 -36 c10 -11 16 -20 13 -20 -3 0 -13
9 -23 20 -10 11 -16 20 -13 20 3 0 13 -9 23 -20z m136 -177 c13 -16 12 -17 -3
-4 -10 7 -18 15 -18 17 0 8 8 3 21 -13z m134 -93 c10 -11 16 -20 13 -20 -3 0
-13 9 -23 20 -10 11 -16 20 -13 20 3 0 13 -9 23 -20z m115 -107 c0 -8 -9 0
-50 45 l-45 47 48 -45 c26 -24 47 -45 47 -47z m41 -30 c13 -16 12 -17 -3 -4
-10 7 -18 15 -18 17 0 8 8 3 21 -13z m1259 -88 c30 -30 52 -55 49 -55 -2 0
-29 25 -59 55 -30 30 -52 55 -49 55 2 0 29 -25 59 -55z m-1999 -652 c13 -16
12 -17 -3 -4 -10 7 -18 15 -18 17 0 8 8 3 21 -13z m39 -48 c13 -14 21 -25 18
-25 -2 0 -15 11 -28 25 -13 14 -21 25 -18 25 2 0 15 -11 28 -25z m2515 -245
c10 -11 16 -20 13 -20 -3 0 -13 9 -23 20 -10 11 -16 20 -13 20 3 0 13 -9 23
-20z m-2135 -130 c6 -11 8 -20 6 -20 -3 0 -10 9 -16 20 -6 11 -8 20 -6 20 3 0
10 -9 16 -20z m2330 -67 c0 -8 -9 0 -50 45 l-45 47 48 -45 c26 -24 47 -45 47
-47z m340 -288 c30 -30 52 -55 49 -55 -2 0 -29 25 -59 55 -30 30 -52 55 -49
55 2 0 29 -25 59 -55z m-40 -288 c0 -2 -15 -16 -32 -33 l-33 -29 29 33 c28 30
36 37 36 29z m-262 -257 c-22 -30 -35 -41 -22 -17 9 16 36 47 41 47 2 0 -6
-13 -19 -30z m-37 -71 c-5 -13 -10 -19 -10 -12 -1 15 10 45 15 40 3 -2 0 -15
-5 -28z m-20 -52 c-10 -9 -11 -8 -5 6 3 10 9 15 12 12 3 -3 0 -11 -7 -18z
m-1640 -94 c13 -16 12 -17 -3 -4 -10 7 -18 15 -18 17 0 8 8 3 21 -13z m1693
-118 c7 -72 0 -62 -12 18 -5 32 -6 55 -2 50 4 -4 10 -35 14 -68z m171 -175
c10 -11 16 -20 13 -20 -3 0 -13 9 -23 20 -10 11 -16 20 -13 20 3 0 13 -9 23
-20z m-1378 -122 c-3 -7 -5 -2 -5 12 0 14 2 19 5 13 2 -7 2 -19 0 -25z m1039
-303 c-11 -8 -27 -15 -35 -15 -8 0 -29 -12 -45 -27 l-31 -28 27 30 c15 16 42
34 60 41 44 16 46 16 24 -1z"/>
<path d="M6316 8804 c-73 -22 -95 -35 -96 -56 0 -11 3 -11 86 14 48 14 79 28
85 41 6 10 9 20 7 22 -2 1 -39 -8 -82 -21z"/>
<path d="M5888 8793 c-14 -16 -18 -38 -18 -106 l0 -87 -55 0 c-49 0 -55 2 -55
20 0 12 -12 33 -26 47 l-27 27 -29 -33 c-23 -26 -28 -40 -26 -69 3 -35 5 -37
41 -40 20 -2 37 -7 37 -12 0 -16 -54 -51 -73 -46 -26 7 -16 -16 16 -34 23 -13
28 -13 46 4 11 10 26 34 33 52 12 33 14 34 68 34 57 1 494 1 590 0 l56 0 -4
-34 c-3 -27 1 -37 24 -55 49 -38 111 -13 136 55 l12 34 131 0 c131 0 132 0
143 25 7 14 12 27 12 29 0 1 -25 20 -55 41 -30 20 -55 39 -55 41 0 2 25 11 55
20 48 15 75 38 61 52 -9 8 -151 -39 -163 -56 -22 -27 -15 -49 17 -61 17 -5 40
-17 52 -26 21 -14 13 -15 -99 -15 l-121 0 11 30 c9 23 8 36 -6 65 -9 19 -20
35 -25 35 -4 0 -30 -29 -56 -65 l-48 -65 -60 0 c-54 0 -66 4 -119 41 -32 23
-59 43 -59 45 0 2 25 11 55 20 48 15 75 38 61 52 -9 8 -151 -39 -163 -56 -22
-27 -15 -49 17 -61 17 -5 40 -17 52 -26 21 -14 15 -15 -85 -15 l-108 0 -11 30
c-8 25 -13 29 -25 19 -8 -7 -12 -21 -10 -31 5 -16 -2 -18 -59 -18 l-63 0 -3
106 c-3 102 -4 105 -20 87z m706 -139 c9 -23 -21 -54 -51 -54 l-24 0 27 35
c29 39 39 43 48 19z m-866 -37 c3 -12 -3 -17 -22 -17 -25 0 -35 18 -19 34 12
12 38 2 41 -17z m843 -77 c36 -20 18 -50 -30 -50 -27 0 -55 25 -48 44 7 18 48
21 78 6z"/>
<path d="M5410 8699 c-14 -14 -39 -33 -57 -42 -30 -16 -55 -69 -39 -84 3 -4
31 -7 61 -7 30 -1 55 -4 55 -8 0 -5 36 -8 80 -8 71 0 81 2 91 21 15 29 16 86
1 101 -18 18 -34 -9 -26 -44 l6 -28 -60 0 -60 0 -14 63 -14 62 -24 -26z m4
-65 c10 -27 7 -30 -29 -26 -40 5 -44 14 -12 30 30 15 34 14 41 -4z"/>
<path d="M5534 8499 c-16 -26 42 -45 75 -24 11 6 10 10 -5 18 -26 15 -62 18
-70 6z"/>
<path d="M6013 8497 c-9 -15 15 -33 43 -32 30 2 43 19 23 31 -18 11 -59 12
-66 1z"/>
<path d="M2357 10512 c-10 -10 -16 -32 -14 -50 1 -18 2 -32 3 -32 0 0 15 7 32
16 38 19 41 34 7 34 -14 0 -25 5 -25 10 0 6 9 10 20 10 11 0 20 7 20 15 0 21
-23 19 -43 -3z"/>
<path d="M2825 10415 l-47 -65 -59 0 -58 0 -3 38 c-3 34 -6 37 -35 40 -37 4
-74 -17 -93 -53 -12 -22 -20 -25 -67 -25 -51 0 -55 2 -65 30 -8 25 -13 29 -25
19 -8 -7 -12 -21 -10 -31 5 -17 -3 -18 -104 -18 -97 0 -109 -2 -119 -19 -14
-27 -14 -28 21 -35 35 -7 35 -25 -2 -43 -63 -33 -117 3 -106 70 l6 32 -14 -30
c-8 -16 -14 -45 -15 -62 -1 -98 150 -96 197 2 17 35 17 35 82 36 36 0 94 0
129 -1 35 -1 69 4 77 10 10 8 25 4 64 -17 48 -26 52 -27 62 -10 7 13 23 17 62
17 l52 0 0 -36 c0 -28 6 -41 27 -57 24 -18 32 -19 67 -9 29 9 43 21 55 46 9
19 16 39 16 45 0 7 27 11 74 11 l74 0 10 41 c7 27 7 50 1 66 -13 36 -34 23
-32 -21 l2 -36 -73 0 -74 0 11 30 c9 23 8 36 -6 65 -9 19 -21 35 -25 35 -5 0
-30 -29 -57 -65z m59 -11 c9 -23 -21 -54 -51 -54 l-24 0 27 35 c29 39 39 43
48 19z m-258 -28 c3 -8 4 -24 2 -35 l-3 -20 -33 20 c-26 17 -30 24 -21 35 15
18 48 18 55 0z m240 -91 c19 -15 19 -15 0 -30 -25 -19 -51 -19 -70 1 -27 27
-18 44 24 44 14 0 35 -7 46 -15z"/>
<path d="M3024 10249 c-10 -17 23 -46 38 -31 8 8 8 15 -2 27 -15 18 -26 19
-36 4z"/>
<path d="M2074 10159 c-8 -14 6 -30 24 -27 10 1 22 -1 28 -5 7 -4 17 0 23 7 9
11 9 16 -1 22 -18 12 -67 13 -74 3z"/>
<path d="M5401 10297 c-8 -16 -8 -32 -1 -57 5 -19 10 -59 10 -87 l0 -53 -60 0
c-45 0 -62 4 -65 15 -16 49 -14 48 -31 34 -8 -7 -13 -21 -11 -31 5 -16 -2 -18
-53 -18 l-59 0 -32 57 c-30 53 -33 55 -42 35 -7 -16 -6 -30 4 -50 7 -15 15
-31 17 -35 2 -5 -20 -7 -49 -6 -51 3 -54 2 -54 -21 l0 -25 228 -2 228 -3 10
28 c6 15 9 56 6 94 -3 38 -2 70 4 73 12 8 12 45 0 45 -5 0 -16 6 -24 14 -12
13 -16 12 -26 -7z"/>
<path d="M5242 10237 c-10 -11 -9 -17 3 -27 24 -20 45 4 24 26 -14 13 -17 13
-27 1z"/>
<path d="M4831 10183 c-16 -32 -31 -100 -25 -117 5 -12 20 -16 60 -16 49 0 55
2 64 26 17 44 12 71 -21 98 -36 30 -64 33 -78 9z m51 -35 c8 -7 18 -21 21 -30
5 -15 0 -18 -28 -18 -37 0 -38 2 -29 38 7 25 14 27 36 10z"/>
<path d="M9199 7838 c-11 -17 -13 -51 -9 -138 l5 -115 18 32 c13 25 17 56 17
138 0 58 -4 105 -9 105 -5 0 -15 -10 -22 -22z"/>
<path d="M9054 7742 c-9 -6 -45 -66 -81 -135 -11 -20 -13 -44 -7 -94 6 -59 8
-65 20 -48 8 11 14 44 14 77 l0 58 69 0 69 0 6 35 c8 39 -10 73 -49 99 -28 18
-27 18 -41 8z m54 -69 c14 -23 14 -23 -32 -23 -35 0 -45 3 -40 13 25 44 47 47
72 10z"/>
<path d="M9488 7723 c-16 -15 -15 -18 23 -35 22 -10 38 -22 34 -28 -3 -6 -47
-10 -101 -10 -91 0 -95 1 -106 25 -22 49 -46 13 -26 -41 11 -30 10 -36 -12
-59 -14 -15 -34 -25 -52 -25 -25 0 -27 -2 -18 -19 25 -48 73 -32 105 35 l16
34 91 0 c70 0 96 4 109 16 10 9 39 19 64 22 31 3 49 11 56 23 8 15 6 19 -8 19
-10 0 -47 14 -81 30 -75 35 -73 35 -94 13z"/>
<path d="M9514 7555 c-9 -23 4 -33 41 -33 41 0 56 16 29 31 -29 16 -65 17 -70
2z"/>
<path d="M9541 7496 c-8 -10 -7 -17 3 -26 17 -13 36 -6 36 15 0 19 -27 26 -39
11z"/>
<path d="M8765 3564 c-5 -1 -42 -12 -81 -24 -43 -12 -74 -27 -78 -37 -4 -9 -5
-18 -2 -20 2 -2 38 6 80 18 50 14 81 29 87 42 11 20 10 26 -6 21z"/>
<path d="M7489 3528 c-11 -17 -13 -51 -9 -138 l5 -115 18 32 c13 25 17 56 17
138 0 58 -4 105 -9 105 -5 0 -15 -10 -22 -22z"/>
<path d="M7707 3532 c-15 -16 -17 -35 -15 -128 l3 -109 308 -2 c290 -2 310 -1
340 17 41 25 54 25 62 0 6 -19 15 -20 159 -20 l153 0 11 25 c7 14 12 27 12 29
0 1 -25 20 -56 41 l-57 39 56 19 c48 16 77 40 63 54 -9 9 -152 -38 -163 -54
-21 -28 -15 -50 17 -62 17 -5 40 -17 52 -26 21 -14 14 -15 -89 -15 -96 0 -112
2 -107 15 4 10 0 15 -15 15 -11 0 -46 11 -77 25 -63 28 -84 31 -102 13 -9 -9
-2 -16 28 -29 64 -29 50 -39 -55 -39 l-95 0 0 28 c0 15 -5 34 -10 42 -8 13
-11 13 -25 -1 -12 -12 -14 -21 -6 -42 10 -24 8 -27 -13 -27 -17 0 -27 10 -41
40 -16 35 -20 39 -33 27 -11 -11 -11 -19 -3 -35 16 -30 14 -32 -22 -32 -30 0
-36 5 -52 40 -16 35 -20 39 -33 27 -11 -11 -11 -19 -3 -35 6 -11 11 -23 11
-26 0 -3 -40 -6 -90 -6 l-89 0 -3 106 c-3 103 -4 106 -21 86z"/>
<path d="M7311 3436 c-18 -21 15 -44 34 -25 13 13 12 16 -4 26 -15 10 -22 9
-30 -1z"/>
<path d="M7390 3385 c-10 -12 -10 -21 -1 -41 20 -44 14 -72 -19 -89 -42 -22
-67 -19 -86 10 -11 17 -14 37 -10 62 l5 38 -15 -34 c-22 -49 -15 -100 18 -124
24 -18 32 -19 65 -9 70 21 78 32 78 111 0 75 -13 103 -35 76z"/>
<path d="M7606 3374 c-4 -9 -1 -32 6 -50 11 -30 10 -36 -12 -59 -14 -15 -34
-25 -52 -25 -25 0 -27 -2 -18 -19 13 -26 47 -36 66 -20 23 19 54 84 54 113 0
28 -19 76 -31 76 -4 0 -10 -7 -13 -16z"/>
<path d="M8291 3247 c-15 -19 4 -35 42 -35 33 1 43 13 27 34 -9 10 -16 11 -25
4 -7 -6 -15 -6 -22 1 -7 7 -14 5 -22 -4z"/>
<path d="M8320 3190 c-13 -8 -13 -11 2 -27 14 -13 20 -15 30 -5 17 17 -11 45
-32 32z"/>
</g>
</svg>
