<?xml version="1.0" standalone="no"?>
<!DOCTYPE svg PUBLIC "-//W3C//DTD SVG 20010904//EN"
 "http://www.w3.org/TR/2001/REC-SVG-20010904/DTD/svg10.dtd">
<svg version="1.0" xmlns="http://www.w3.org/2000/svg"
 width="450.000000pt" height="288.000000pt" viewBox="0 0 450.000000 288.000000"
 preserveAspectRatio="xMidYMid meet">

<g transform="translate(0.000000,288.000000) scale(0.100000,-0.100000)"
fill="#000000" stroke="none">
<path d="M2206 2624 c-27 -14 -62 -34 -79 -46 -26 -19 -37 -20 -125 -14 -101
8 -170 26 -214 57 -54 39 -109 15 -182 -80 -26 -33 -98 -103 -161 -156 -63
-53 -116 -104 -120 -114 -8 -25 11 -70 43 -104 23 -24 29 -44 42 -133 9 -58
14 -107 11 -109 -2 -3 -39 -5 -80 -5 -42 0 -101 -6 -131 -14 -49 -13 -61 -13
-109 1 -65 18 -115 12 -149 -19 -27 -26 -66 -104 -76 -158 -4 -19 -10 -42 -12
-51 -13 -45 -170 -16 -232 43 -71 67 -104 84 -198 102 -106 21 -121 17 -159
-43 -25 -41 -55 -140 -55 -185 0 -26 -2 -33 -34 -93 -9 -17 -16 -40 -16 -50 0
-27 39 -61 78 -69 18 -4 32 -10 32 -15 0 -5 -1 -9 -2 -9 -2 -1 -21 -3 -43 -6
-50 -7 -57 -14 -80 -65 -19 -41 -19 -41 4 -84 13 -24 43 -67 67 -95 43 -50 54
-82 34 -95 -5 -3 -10 -14 -10 -25 0 -23 48 -42 160 -66 47 -9 94 -26 106 -36
13 -12 36 -18 66 -18 l45 0 7 -52 c4 -29 12 -58 17 -65 6 -6 12 -27 14 -46 4
-48 28 -94 80 -152 57 -64 69 -101 61 -181 l-6 -63 37 -28 c33 -26 43 -28 122
-28 118 1 188 28 239 95 46 61 72 64 118 15 18 -19 41 -35 50 -35 10 0 27 -9
38 -19 19 -18 26 -18 73 -8 28 7 55 15 59 20 15 15 34 6 49 -23 9 -18 27 -32
43 -36 15 -4 29 -10 32 -13 3 -4 23 -11 45 -16 35 -9 40 -15 48 -47 8 -33 13
-38 38 -38 22 0 32 7 44 30 8 16 40 48 71 72 43 32 64 57 91 112 l36 71 -7
105 c-9 145 -8 146 204 243 102 47 161 54 322 38 138 -13 245 -4 448 39 74 16
137 27 141 24 8 -4 22 26 15 33 -2 2 -33 -3 -70 -11 -80 -19 -269 -52 -349
-62 -32 -3 -122 -1 -200 6 -170 15 -200 10 -353 -57 -175 -78 -208 -124 -186
-262 11 -65 11 -67 -25 -143 -29 -64 -46 -85 -89 -118 -30 -22 -61 -54 -69
-71 -16 -31 -35 -31 -35 -1 0 30 -28 59 -64 66 -19 4 -39 13 -46 21 -7 8 -20
15 -29 15 -9 1 -25 15 -36 33 -23 36 -49 45 -73 24 -9 -8 -35 -19 -58 -24 -34
-8 -44 -7 -63 9 -13 10 -29 18 -36 18 -6 0 -20 9 -31 21 -25 28 -67 49 -98 49
-18 0 -34 -13 -60 -48 -19 -26 -45 -53 -58 -60 -89 -46 -210 -56 -265 -22 -37
22 -37 21 -22 74 16 58 -3 113 -68 191 -56 69 -83 118 -83 156 0 12 -9 36 -20
54 -16 25 -18 38 -10 64 15 52 5 61 -61 61 -48 0 -61 4 -71 20 -8 13 -24 20
-43 20 -33 0 -134 23 -179 40 -22 8 -26 14 -18 22 24 24 12 63 -41 128 -78 99
-84 112 -61 151 13 22 30 36 54 41 108 27 121 57 35 83 -68 19 -83 42 -59 88
9 17 21 40 25 49 5 10 9 35 9 56 0 53 23 126 55 174 26 39 28 40 68 34 23 -4
62 -10 87 -13 47 -6 84 -28 160 -99 48 -44 71 -52 187 -61 l72 -5 16 58 c33
120 47 153 71 177 33 33 68 38 127 19 42 -13 57 -14 115 -2 37 8 105 14 152
14 83 1 85 2 89 26 2 14 -2 70 -9 125 -11 85 -17 104 -40 130 -29 31 -50 67
-50 84 0 5 55 55 123 110 67 56 133 118 146 139 38 58 63 83 95 97 26 11 33
10 64 -12 48 -32 120 -51 229 -59 l91 -6 59 35 c89 55 137 69 210 62 79 -8
214 -43 323 -84 146 -55 246 -89 304 -102 44 -10 71 -25 133 -77 49 -40 85
-80 98 -106 28 -58 69 -76 173 -76 99 0 123 -10 214 -85 36 -29 131 -99 212
-155 80 -56 146 -108 146 -115 0 -8 -5 -26 -10 -41 -6 -15 -20 -67 -30 -116
-17 -75 -18 -93 -7 -114 12 -23 15 -16 36 96 13 66 32 137 42 157 10 20 18 38
16 39 -1 1 -67 46 -147 99 -80 54 -185 130 -235 169 -49 40 -103 77 -118 84
-15 7 -71 12 -123 12 -87 0 -97 2 -119 25 -14 13 -25 33 -25 43 0 32 -184 182
-224 182 -12 0 -73 19 -136 41 -382 136 -433 149 -553 149 -68 0 -91 -5 -131
-26z"/>
<path d="M2288 2223 c7 -3 16 -2 19 1 4 3 -2 6 -13 5 -11 0 -14 -3 -6 -6z"/>
<path d="M2248 2203 c7 -3 16 -2 19 1 4 3 -2 6 -13 5 -11 0 -14 -3 -6 -6z"/>
<path d="M2500 2095 c0 -8 7 -15 16 -15 14 0 14 3 4 15 -7 8 -14 15 -16 15 -2
0 -4 -7 -4 -15z"/>
<path d="M2568 2103 c7 -3 16 -2 19 1 4 3 -2 6 -13 5 -11 0 -14 -3 -6 -6z"/>
<path d="M2420 2090 c0 -5 5 -10 10 -10 6 0 10 5 10 10 0 6 -4 10 -10 10 -5 0
-10 -4 -10 -10z"/>
<path d="M2078 2053 c7 -3 16 -2 19 1 4 3 -2 6 -13 5 -11 0 -14 -3 -6 -6z"/>
<path d="M2378 2053 c6 -2 18 -2 25 0 6 3 1 5 -13 5 -14 0 -19 -2 -12 -5z"/>
<path d="M2935 1709 c-11 -17 1 -21 15 -4 8 9 8 15 2 15 -6 0 -14 -5 -17 -11z"/>
<path d="M2300 1680 c0 -5 5 -10 10 -10 6 0 10 5 10 10 0 6 -4 10 -10 10 -5 0
-10 -4 -10 -10z"/>
<path d="M3015 1671 c-3 -5 -1 -12 5 -16 5 -3 10 1 10 9 0 18 -6 21 -15 7z"/>
<path d="M1021 1654 c0 -11 3 -14 6 -6 3 7 2 16 -1 19 -3 4 -6 -2 -5 -13z"/>
<path d="M2900 1654 c0 -8 5 -12 10 -9 6 3 10 10 10 16 0 5 -4 9 -10 9 -5 0
-10 -7 -10 -16z"/>
<path d="M2980 1660 c0 -5 5 -10 10 -10 6 0 10 5 10 10 0 6 -4 10 -10 10 -5 0
-10 -4 -10 -10z"/>
<path d="M2286 1645 c-3 -8 -3 -22 0 -30 5 -12 1 -13 -24 -4 -43 15 -72 -2
-72 -41 0 -17 5 -30 11 -30 6 0 9 9 6 20 -7 27 11 36 27 14 13 -17 15 -17 49
-1 44 21 51 31 43 63 -7 27 -31 32 -40 9z"/>
<path d="M1164 1635 c-4 -10 -20 -15 -50 -15 -24 0 -44 -3 -44 -7 0 -5 29 -6
65 -5 60 3 64 5 55 23 -13 23 -19 24 -26 4z"/>
<path d="M1230 1635 c7 -8 20 -15 29 -15 13 1 13 3 -3 15 -26 19 -42 19 -26 0z"/>
<path d="M953 1630 c4 -17 47 -27 47 -11 0 6 -7 8 -16 4 -9 -3 -20 0 -26 8 -8
12 -9 11 -5 -1z"/>
<path d="M2788 1628 c6 -6 18 -8 28 -6 14 3 12 5 -9 10 -19 3 -25 2 -19 -4z"/>
<path d="M1610 1489 c0 -5 9 -9 20 -9 11 0 20 4 20 8 0 4 -9 8 -20 9 -11 1
-20 -2 -20 -8z"/>
<path d="M1617 1454 c-12 -12 -8 -44 5 -44 9 0 9 -3 1 -11 -7 -7 -20 -6 -44 4
-22 9 -43 11 -57 6 -19 -7 -22 -15 -21 -56 2 -44 2 -45 8 -14 8 43 24 49 39
16 13 -28 27 -32 39 -11 4 7 22 17 38 23 27 9 30 14 30 49 0 37 -19 56 -38 38z
m-42 -84 c3 -5 2 -10 -4 -10 -5 0 -13 5 -16 10 -3 6 -2 10 4 10 5 0 13 -4 16
-10z"/>
<path d="M1725 1391 c-9 -16 3 -31 26 -31 14 0 19 6 17 17 -4 20 -33 29 -43
14z"/>
<path d="M595 1310 c14 -6 16 -9 5 -10 -8 -1 -4 -6 10 -10 30 -9 106 -13 97
-4 -3 3 -21 6 -41 6 -20 0 -37 6 -40 14 -3 8 -16 14 -28 13 -22 0 -22 -1 -3
-9z"/>
<path d="M400 1298 c0 -11 8 -18 20 -18 11 0 20 5 20 11 0 5 -5 7 -11 3 -6 -3
-15 0 -20 7 -7 11 -9 10 -9 -3z"/>
<path d="M720 1300 c0 -5 4 -10 9 -10 6 0 13 5 16 10 3 6 -1 10 -9 10 -9 0
-16 -4 -16 -10z"/>
<path d="M465 1289 c-13 -5 6 -8 49 -8 38 -1 66 2 62 6 -9 10 -88 11 -111 2z"/>
<path d="M313 1256 c5 -15 37 -20 49 -8 6 6 -1 11 -22 14 -19 3 -29 1 -27 -6z"/>
<path d="M3443 1018 c-27 -13 -29 -30 -8 -48 8 -7 12 -16 9 -21 -8 -13 -58
-11 -72 3 -9 9 -12 8 -12 -4 0 -9 7 -19 16 -22 25 -10 72 -7 79 4 4 7 12 7 18
2 10 -6 83 -8 130 -3 11 1 8 31 -3 31 -5 0 -10 -4 -10 -10 0 -14 -28 -12 -33
3 -3 9 -11 9 -37 0 -31 -12 -36 -11 -57 9 -28 26 -29 35 -3 43 11 3 20 11 20
16 0 11 -9 11 -37 -3z"/>
<path d="M3195 1009 c-4 -6 -5 -12 -2 -15 2 -3 7 2 10 11 7 17 1 20 -8 4z"/>
<path d="M3814 1006 c-3 -8 -1 -23 5 -33 9 -15 10 -13 11 15 0 34 -7 42 -16
18z"/>
<path d="M3671 972 c-15 -21 -13 -37 4 -37 6 0 16 -4 23 -8 12 -8 77 9 96 25
9 7 -34 28 -60 28 -24 0 -16 -20 9 -21 22 0 22 0 -2 -10 -32 -12 -49 -6 -53
21 -3 21 -3 21 -17 2z"/>
<path d="M3970 981 c0 -6 5 -13 10 -16 18 -11 10 -26 -10 -20 -12 4 -20 2 -20
-5 0 -18 31 -24 47 -8 12 12 13 20 4 37 -12 21 -31 29 -31 12z"/>
<path d="M1004 944 c9 -8 20 -12 26 -9 15 9 2 25 -21 25 -19 0 -19 -1 -5 -16z"/>
<path d="M3866 952 c-4 -8 -16 -10 -28 -6 -14 4 -19 2 -16 -7 5 -15 30 -20 48
-9 7 4 10 14 8 21 -3 10 -6 10 -12 1z"/>
<path d="M930 942 c0 -13 43 -26 62 -19 7 3 2 6 -12 6 -15 1 -31 6 -38 13 -9
9 -12 9 -12 0z"/>
<path d="M3921 931 c0 -13 -9 -30 -18 -37 -17 -13 -17 -13 0 -14 21 0 30 20
24 52 l-4 23 -2 -24z"/>
<path d="M1052 928 c-9 -4 27 -7 81 -7 53 -1 97 2 97 7 0 9 -155 9 -178 0z"/>
<path d="M3742 899 c2 -6 8 -10 13 -10 5 0 11 4 13 10 2 6 -4 11 -13 11 -9 0
-15 -5 -13 -11z"/>
<path d="M3850 906 c0 -2 7 -6 15 -10 8 -3 15 -1 15 4 0 6 -7 10 -15 10 -8 0
-15 -2 -15 -4z"/>
<path d="M808 888 c5 -5 16 -8 23 -6 8 3 3 7 -10 11 -17 4 -21 3 -13 -5z"/>
<path d="M1970 765 c0 -9 7 -18 15 -22 24 -9 27 1 5 20 -17 14 -20 15 -20 2z"/>
<path d="M1880 758 c0 -12 7 -18 23 -17 15 0 17 2 7 6 -8 3 -18 11 -22 17 -5
7 -8 4 -8 -6z"/>
<path d="M1520 750 c0 -5 9 -10 21 -10 11 0 17 5 14 10 -3 6 -13 10 -21 10 -8
0 -14 -4 -14 -10z"/>
<path d="M1636 752 c-3 -5 8 -6 25 -4 16 2 29 6 29 8 0 8 -49 4 -54 -4z"/>
<path d="M1755 750 c3 -5 13 -10 21 -10 8 0 14 5 14 10 0 6 -9 10 -21 10 -11
0 -17 -4 -14 -10z"/>
<path d="M1520 720 c-13 -8 -12 -10 3 -10 9 0 17 5 17 10 0 12 -1 12 -20 0z"/>
<path d="M1760 720 c-9 -6 -10 -10 -3 -10 6 0 15 5 18 10 8 12 4 12 -15 0z"/>
<path d="M1838 713 c6 -2 18 -2 25 0 6 3 1 5 -13 5 -14 0 -19 -2 -12 -5z"/>
</g>
</svg>
