<?xml version="1.0" standalone="no"?>
<!DOCTYPE svg PUBLIC "-//W3C//DTD SVG 20010904//EN"
 "http://www.w3.org/TR/2001/REC-SVG-20010904/DTD/svg10.dtd">
<svg version="1.0" xmlns="http://www.w3.org/2000/svg"
 width="304.000000pt" height="412.000000pt" viewBox="0 0 304.000000 412.000000"
 preserveAspectRatio="xMidYMid meet">

<g transform="translate(0.000000,412.000000) scale(0.100000,-0.100000)"
fill="#000000" stroke="none">
<path d="M1030 3925 c0 -61 -26 -108 -97 -176 -66 -64 -131 -107 -254 -168
-49 -24 -135 -81 -200 -133 -63 -50 -124 -95 -136 -101 -26 -12 -29 -36 -9
-75 9 -19 16 -87 20 -222 10 -304 9 -297 68 -361 59 -64 85 -112 98 -180 9
-44 7 -55 -10 -79 -16 -22 -20 -44 -20 -108 0 -72 2 -82 25 -103 13 -13 25
-31 24 -39 0 -27 -63 -87 -141 -134 -72 -44 -78 -50 -78 -81 0 -28 5 -35 32
-44 39 -14 68 -39 68 -60 0 -8 -12 -27 -26 -42 -38 -39 -43 -81 -22 -174 10
-44 32 -141 47 -216 16 -74 39 -175 50 -223 26 -107 26 -108 1 -136 -33 -38
-26 -64 29 -101 55 -38 64 -62 54 -134 -4 -36 -2 -46 11 -51 15 -6 15 -9 1
-30 -20 -30 -19 -68 2 -100 13 -21 14 -30 5 -45 -16 -25 -15 -98 2 -129 10
-18 11 -30 4 -43 -8 -16 -3 -26 28 -58 37 -38 40 -39 110 -39 45 0 75 -5 82
-12 5 -7 13 -38 17 -68 7 -56 41 -140 57 -140 5 0 22 7 38 15 26 14 33 13 70
-1 33 -13 59 -15 124 -10 55 5 92 3 108 -5 20 -9 32 -8 59 6 20 11 53 17 84
16 45 -1 53 2 65 24 17 32 21 31 48 -5 16 -22 31 -30 52 -30 26 0 30 4 30 29
0 16 -7 34 -15 41 -27 22 -18 40 20 40 29 0 36 -4 41 -25 3 -14 19 -34 34 -45
26 -19 39 -20 137 -14 93 6 118 4 179 -15 39 -11 94 -21 122 -21 l51 0 6 44
c4 25 4 49 0 55 -4 7 6 14 24 17 30 6 31 8 31 63 0 31 -7 97 -14 146 -13 84
-12 93 5 127 15 29 19 59 19 140 0 96 19 188 39 188 4 0 16 8 27 18 11 10 32
22 47 26 22 5 27 12 27 36 0 28 3 30 35 30 30 0 35 3 35 24 0 50 18 71 101
120 46 27 91 55 100 62 22 20 107 44 154 44 49 1 91 29 81 55 -9 26 12 45 50
45 24 0 34 5 39 20 10 32 -4 79 -35 113 -32 37 -36 51 -26 89 11 37 0 63 -30
76 -41 19 -69 14 -137 -23 -53 -29 -69 -34 -90 -26 -18 7 -24 15 -21 28 3 10
-1 31 -9 46 -9 18 -13 43 -10 67 4 29 -3 56 -32 121 -20 46 -41 107 -47 134
-5 28 -16 69 -24 93 -8 23 -14 61 -14 84 0 39 -1 40 -27 34 -90 -21 -96 -20
-138 23 l-39 41 -138 0 c-138 0 -139 0 -206 34 -49 25 -84 52 -124 98 -30 35
-69 70 -84 78 -39 20 -55 42 -110 149 -35 69 -57 99 -86 119 -22 15 -93 72
-159 126 l-119 99 44 81 c24 45 75 140 113 211 38 72 96 175 129 230 l59 100
4 94 c3 97 -14 187 -47 244 l-16 27 -238 0 -238 0 0 -45z m470 -2 c50 -110 65
-237 35 -309 -8 -19 -41 -78 -74 -132 -32 -53 -73 -125 -91 -159 -17 -35 -36
-63 -42 -63 -5 0 -24 12 -42 27 -55 46 -89 55 -159 43 -67 -13 -60 -16 -109
53 -24 34 -91 63 -190 81 l-88 16 -49 -32 c-129 -85 -141 -91 -166 -80 -13 6
-28 19 -34 30 -8 16 0 26 59 70 37 28 104 69 148 91 113 57 166 92 245 163 79
71 107 119 107 183 l0 45 218 0 219 0 13 -27z m-696 -483 c15 -5 53 -14 86
-19 63 -10 87 -27 130 -89 l22 -34 82 7 81 7 56 -42 57 -42 -64 -123 c-35 -67
-64 -125 -64 -128 0 -6 234 -201 289 -241 31 -23 51 -51 86 -122 28 -57 56
-101 75 -116 66 -49 120 -101 120 -114 0 -17 0 -17 -43 1 -20 8 -41 15 -46 15
-6 0 -22 -21 -37 -46 -31 -53 -70 -74 -139 -74 -42 0 -50 4 -92 50 -56 61 -92
71 -152 41 -51 -27 -72 -58 -83 -127 -5 -31 -17 -65 -28 -76 -19 -21 -20 -21
-42 -2 -13 10 -26 23 -29 28 -4 5 -20 6 -35 2 -16 -3 -125 -6 -243 -6 l-214 1
-33 37 c-29 33 -33 44 -34 95 0 44 5 66 21 88 18 25 20 38 14 94 -8 70 -36
124 -108 208 -36 43 -38 48 -47 153 -6 60 -14 177 -19 259 -5 83 -12 159 -15
170 -6 17 3 28 49 59 55 38 56 39 70 19 8 -11 28 -26 45 -33 29 -12 35 -9 128
48 103 64 115 68 156 52z m572 -1122 c36 -51 50 -58 124 -58 78 0 121 20 155
72 20 29 31 38 43 33 9 -4 43 -16 74 -26 31 -10 84 -32 117 -49 59 -29 64 -30
200 -30 l139 0 35 -35 c34 -34 35 -38 30 -93 -7 -80 -36 -140 -70 -148 -16 -4
-50 -18 -78 -31 -42 -19 -66 -23 -151 -23 -101 0 -191 -12 -229 -29 -11 -5
-41 -17 -67 -27 -27 -9 -48 -19 -48 -21 0 -15 39 -75 71 -110 47 -51 49 -73 8
-107 -27 -23 -39 -26 -114 -26 -124 0 -199 39 -289 148 l-49 59 -116 12 c-158
16 -162 21 -131 143 12 46 10 122 -5 165 -11 35 19 40 56 9 17 -14 37 -26 44
-26 26 0 64 64 73 123 10 62 31 92 77 111 44 18 70 9 101 -36z m1054 -160 c0
-18 5 -51 11 -73 6 -22 16 -62 23 -90 7 -27 16 -59 21 -70 4 -11 19 -47 33
-80 14 -34 27 -86 29 -120 8 -142 3 -129 54 -139 44 -8 52 -6 114 28 60 34 69
37 95 26 27 -11 28 -15 27 -69 -2 -52 1 -61 31 -95 32 -37 43 -85 20 -87 -28
-1 -47 -8 -72 -24 -29 -19 -31 -26 -14 -43 20 -20 -19 -39 -94 -44 -55 -4 -79
-12 -121 -38 -29 -18 -83 -51 -120 -72 -81 -46 -86 -44 -118 42 l-21 58 -56 5
c-32 4 -102 6 -157 7 -92 0 -101 2 -120 24 -11 13 -42 40 -70 61 -27 21 -80
70 -117 109 -80 84 -86 111 -37 162 38 39 35 53 -31 128 -28 32 -50 61 -50 66
0 9 36 27 105 52 26 10 88 16 175 17 113 2 141 6 175 24 22 11 58 26 80 32 48
14 83 67 85 130 2 60 13 77 56 91 60 18 64 17 64 -18z m-1614 3 l171 -1 19
-55 c18 -53 18 -58 1 -123 -22 -85 -22 -125 1 -145 12 -11 55 -20 132 -28
l115 -12 35 -41 c113 -135 173 -166 320 -166 l100 0 0 -26 c0 -16 16 -42 44
-72 24 -26 53 -58 64 -72 11 -14 50 -47 86 -75 36 -27 68 -57 71 -67 5 -13 27
-17 133 -22 199 -11 200 -11 214 -57 6 -22 22 -51 35 -65 19 -21 22 -32 17
-65 -6 -36 -9 -39 -40 -39 -31 0 -34 -3 -34 -30 0 -20 -6 -33 -17 -37 -34 -13
-92 -65 -104 -95 -6 -16 -12 -43 -13 -59 -1 -32 -4 -33 -45 -24 -20 4 -45 -1
-82 -19 -37 -19 -69 -26 -108 -26 l-56 0 -84 81 -83 80 -107 -2 c-72 -1 -125
4 -166 15 -39 11 -76 15 -107 10 -48 -6 -48 -6 -48 23 0 16 7 39 16 52 15 20
15 30 4 75 -11 45 -10 57 4 84 9 17 16 45 16 63 l0 32 -61 -6 c-75 -7 -103
-28 -95 -72 7 -39 -27 -141 -45 -136 -85 25 -90 25 -98 12 -11 -17 -41 -16
-126 4 -62 15 -86 16 -200 5 -130 -12 -195 -4 -180 20 4 6 -3 54 -15 108 -43
196 -89 409 -105 486 l-15 79 27 34 c57 72 56 69 37 98 -9 14 -36 37 -60 51
-24 14 -44 30 -44 35 0 5 36 30 80 55 51 30 91 62 112 90 35 45 47 52 88 49
14 -2 102 -3 196 -4z m477 -937 c3 -4 -1 -24 -10 -46 -11 -27 -14 -55 -9 -91
4 -40 1 -66 -15 -106 -18 -50 -19 -55 -3 -72 14 -15 26 -17 78 -12 41 3 78 0
113 -10 38 -11 76 -14 145 -10 l93 6 78 -74 c42 -41 77 -77 77 -80 0 -4 -24
-16 -53 -28 -51 -21 -55 -26 -92 -101 -21 -44 -48 -91 -60 -105 -18 -24 -23
-25 -46 -15 -20 9 -44 9 -93 2 -48 -8 -75 -8 -94 0 -15 6 -75 11 -133 12 -99
1 -108 3 -150 30 -24 17 -57 42 -74 57 -29 26 -36 28 -160 33 -223 9 -257 15
-287 44 -33 32 -34 46 -8 79 25 32 25 49 0 63 -15 8 -18 17 -14 40 4 16 3 49
0 72 -6 37 -13 48 -51 73 -25 17 -45 38 -45 48 0 21 -1 21 46 1 25 -11 52 -14
83 -10 25 3 55 6 66 7 11 0 44 5 73 11 46 10 65 8 143 -12 78 -20 94 -21 133
-10 37 10 48 9 74 -4 17 -9 35 -16 41 -16 5 0 17 24 27 53 9 28 22 63 29 77 9
18 10 31 3 43 -16 30 10 50 73 56 9 0 18 -2 22 -5z m870 -488 c13 -20 4 -110
-15 -149 -19 -38 -19 -42 -2 -166 10 -70 15 -135 11 -144 -3 -9 -22 -19 -41
-23 -38 -7 -43 -13 -25 -31 6 -6 9 -26 7 -44 -3 -29 -7 -34 -31 -37 -15 -2
-63 8 -106 23 -42 14 -86 25 -97 24 -10 -1 -43 -1 -72 -1 -50 2 -52 3 -46 27
5 19 -1 31 -24 55 -36 35 -46 37 -90 10 -22 -14 -50 -20 -88 -20 l-56 0 6 -32
c3 -17 14 -40 23 -50 9 -10 13 -21 9 -26 -4 -4 -25 13 -47 38 l-39 45 -25 -30
c-14 -16 -25 -33 -25 -37 0 -4 -15 -4 -34 -1 -19 3 -50 0 -71 -7 -55 -18 -254
-21 -287 -4 -32 17 -72 18 -98 4 -17 -9 -22 -5 -39 27 -10 21 -22 63 -26 93
-4 30 -12 61 -17 67 -7 8 -37 13 -81 13 -63 0 -74 3 -99 27 -21 20 -28 36 -28
64 0 21 -4 41 -10 44 -14 9 -12 89 2 103 16 16 83 15 142 -3 31 -9 90 -15 159
-15 102 0 111 -2 131 -23 11 -13 39 -36 61 -53 38 -27 47 -29 165 -36 69 -3
136 -9 150 -13 14 -3 52 -2 84 3 45 7 67 6 92 -4 19 -8 38 -14 43 -14 10 0
103 159 115 196 10 32 137 84 207 84 36 0 73 8 100 20 45 20 96 19 112 -4z"/>
<path d="M1343 3811 c-33 -28 -38 -62 -12 -94 28 -37 83 -35 112 5 25 34 17
68 -22 91 -36 21 -50 21 -78 -2z"/>
<path d="M1172 3650 c0 -14 2 -19 5 -12 2 6 2 18 0 25 -3 6 -5 1 -5 -13z"/>
<path d="M1250 3630 c0 -22 5 -40 10 -40 6 0 10 18 10 40 0 22 -4 40 -10 40
-5 0 -10 -18 -10 -40z"/>
<path d="M1310 3660 c0 -5 5 -10 10 -10 6 0 10 5 10 10 0 6 -4 10 -10 10 -5 0
-10 -4 -10 -10z"/>
<path d="M1327 3623 c4 -11 -3 -24 -23 -40 -16 -12 -23 -23 -16 -23 21 0 62
47 56 64 -3 9 -10 16 -15 16 -4 0 -6 -7 -2 -17z"/>
<path d="M1220 3616 c0 -9 -7 -16 -15 -16 -8 0 -15 5 -15 10 0 6 -4 10 -10 10
-5 0 -10 -11 -10 -24 0 -13 -7 -27 -16 -30 -21 -8 -45 11 -37 30 3 8 0 14 -6
14 -19 0 -12 -49 9 -60 21 -11 60 1 60 19 0 5 14 11 30 15 29 5 40 28 20 41
-5 3 -10 -1 -10 -9z"/>
<path d="M1010 2800 c0 -33 4 -60 10 -60 6 0 10 27 10 60 0 33 -4 60 -10 60
-6 0 -10 -27 -10 -60z"/>
<path d="M700 2795 c0 -30 5 -55 10 -55 6 0 10 25 10 55 0 30 -4 55 -10 55 -5
0 -10 -25 -10 -55z"/>
<path d="M1080 2840 c0 -5 5 -10 10 -10 6 0 10 5 10 10 0 6 -4 10 -10 10 -5 0
-10 -4 -10 -10z"/>
<path d="M797 2834 c-3 -4 0 -19 8 -35 18 -34 7 -43 -36 -34 -24 6 -30 4 -27
-6 3 -9 23 -14 59 -15 30 -1 80 -3 113 -5 48 -3 61 -1 70 13 9 15 4 24 -27 55
-37 37 -39 37 -53 19 -7 -11 -14 -30 -14 -43 0 -39 -36 -29 -60 17 -22 42 -23
44 -33 34z m138 -54 c-5 -8 -11 -8 -17 -2 -6 6 -7 16 -3 22 5 8 11 8 17 2 6
-6 7 -16 3 -22z"/>
<path d="M1199 2801 c-39 -40 -38 -74 5 -117 41 -41 68 -43 113 -8 44 34 47
87 5 127 -39 37 -84 36 -123 -2z"/>
<path d="M600 2800 c0 -5 5 -10 10 -10 6 0 10 5 10 10 0 6 -4 10 -10 10 -5 0
-10 -4 -10 -10z"/>
<path d="M1095 2789 c6 -18 1 -28 -26 -50 -45 -36 -30 -50 16 -14 28 20 35 33
33 53 -2 14 -9 27 -17 30 -10 3 -11 -2 -6 -19z"/>
<path d="M653 2780 c3 -11 -3 -30 -12 -41 -15 -18 -21 -20 -39 -10 -12 6 -22
21 -22 32 0 12 -5 19 -12 16 -35 -12 12 -75 53 -72 31 2 63 46 54 74 -8 27
-29 28 -22 1z"/>
<path d="M1620 2225 c0 -8 4 -15 10 -15 5 0 7 7 4 15 -4 8 -8 15 -10 15 -2 0
-4 -7 -4 -15z"/>
<path d="M1691 2198 l-1 -48 50 0 c28 0 50 4 50 9 0 13 -52 53 -59 45 -3 -3 2
-10 12 -15 26 -15 20 -31 -10 -27 -24 3 -29 9 -34 43 l-6 40 -2 -47z"/>
<path d="M1730 2229 c0 -5 5 -7 10 -4 6 3 10 8 10 11 0 2 -4 4 -10 4 -5 0 -10
-5 -10 -11z"/>
<path d="M1617 2180 c-7 -23 -8 -24 -21 -7 -19 25 -24 21 -22 -15 1 -29 -2
-33 -26 -36 -16 -2 -28 1 -28 7 0 6 -4 11 -10 11 -22 0 -8 -19 20 -29 36 -12
57 -6 65 20 4 13 16 19 34 19 15 0 32 5 38 11 13 13 6 39 -9 39 -6 0 -8 -7 -4
-15 3 -9 0 -15 -9 -15 -7 0 -15 8 -17 18 -3 13 -5 11 -11 -8z"/>
<path d="M1541 2064 c-37 -31 -39 -54 -8 -88 36 -40 63 -42 97 -7 17 16 30 38
30 49 0 22 -53 72 -75 72 -7 0 -27 -12 -44 -26z"/>
<path d="M2252 1710 c-31 -29 -29 -73 4 -99 35 -27 59 -26 89 4 33 32 32 68
-1 94 -34 27 -64 27 -92 1z"/>
<path d="M2190 1525 c0 -25 5 -45 10 -45 6 0 10 20 10 45 0 25 -4 45 -10 45
-5 0 -10 -20 -10 -45z"/>
<path d="M2123 1524 c-4 -11 1 -22 13 -31 19 -14 19 -14 0 -29 -27 -19 -15
-27 12 -8 24 17 29 53 10 72 -16 16 -27 15 -35 -4z m37 -8 c0 -3 -4 -8 -10
-11 -5 -3 -10 -1 -10 4 0 6 5 11 10 11 6 0 10 -2 10 -4z"/>
<path d="M2057 1506 c3 -15 -1 -25 -11 -29 -22 -9 -46 2 -46 20 0 8 -4 11 -10
8 -12 -7 -12 -16 -2 -31 25 -39 101 -10 88 34 -10 29 -24 28 -19 -2z"/>
<path d="M2256 1506 c4 -19 1 -26 -15 -31 -12 -3 -21 -11 -21 -16 0 -13 12
-11 38 7 13 9 47 16 85 17 56 2 62 4 65 25 2 12 -1 22 -7 22 -6 0 -11 -7 -11
-15 0 -8 -4 -15 -10 -15 -5 0 -10 5 -10 12 0 9 -3 9 -12 0 -16 -16 -28 -15
-28 3 0 8 -4 15 -10 15 -5 0 -10 -7 -10 -15 0 -8 -7 -15 -15 -15 -9 0 -18 7
-21 15 -10 25 -25 17 -18 -9z"/>
<path d="M1047 1527 c-3 -8 3 -14 16 -15 12 0 17 2 12 6 -6 4 -13 11 -16 15
-4 4 -9 2 -12 -6z"/>
<path d="M1177 1533 c-11 -10 -8 -83 3 -83 6 0 10 20 10 45 0 46 -2 50 -13 38z"/>
<path d="M1343 1490 c0 -25 2 -35 4 -22 2 12 2 32 0 45 -2 12 -4 2 -4 -23z"/>
<path d="M1134 1490 c4 -22 2 -30 -9 -30 -8 0 -18 7 -23 16 -8 15 -10 14 -16
-1 -6 -17 -7 -17 -21 1 -8 11 -15 14 -15 7 0 -7 -7 -13 -15 -13 -8 0 -15 6
-15 13 0 6 -5 4 -11 -5 -5 -10 -19 -18 -29 -18 -12 0 -20 7 -20 18 -1 16 -1
16 -11 0 -5 -10 -16 -18 -24 -18 -8 0 -19 8 -24 18 -9 15 -10 15 -11 0 0 -9
-12 -26 -27 -37 -14 -12 -24 -24 -20 -27 7 -8 47 14 47 26 0 18 43 10 67 -12
13 -12 26 -18 30 -14 4 4 1 11 -6 15 -25 16 9 24 90 22 l79 -2 -2 36 c-2 19
-7 35 -12 35 -5 0 -6 -13 -2 -30z"/>
<path d="M1236 1476 c5 -14 -20 -46 -37 -46 -6 0 -7 -5 -4 -10 4 -6 17 -3 35
10 15 11 42 20 60 20 24 0 31 4 28 17 -4 22 -28 29 -28 9 0 -20 -14 -21 -30
-1 -16 19 -31 20 -24 1z"/>
<path d="M1389 1411 c-34 -35 -36 -50 -9 -84 28 -36 54 -42 90 -20 53 31 49
96 -7 122 -35 16 -41 14 -74 -18z"/>
<path d="M837 894 c-4 -4 -7 -14 -7 -23 0 -14 2 -14 10 -1 8 12 10 12 10 1 0
-8 3 -12 6 -8 3 3 2 13 -3 22 -5 8 -12 12 -16 9z"/>
<path d="M1065 893 c-27 -7 -36 -23 -24 -44 5 -10 9 -20 9 -23 0 -11 -86 -6
-98 6 -9 9 -12 8 -12 -5 0 -9 10 -19 23 -22 18 -4 179 -1 210 4 11 2 8 41 -3
41 -5 0 -10 -7 -10 -15 0 -8 -7 -15 -15 -15 -8 0 -15 7 -15 15 0 8 -4 15 -10
15 -5 0 -10 -7 -10 -15 0 -23 -27 -18 -45 8 -14 20 -14 23 5 31 11 5 20 13 20
18 0 4 -1 7 -2 7 -2 -1 -12 -4 -23 -6z"/>
<path d="M674 834 c5 -16 0 -26 -20 -38 -14 -10 -23 -20 -20 -23 2 -3 18 4 35
16 31 22 51 20 85 -8 18 -15 19 -15 13 1 -7 19 20 28 75 23 38 -3 59 18 38 39
-7 7 -10 4 -10 -10 -1 -18 -1 -18 -14 -1 -7 9 -16 17 -20 17 -3 0 -6 -8 -6
-17 -1 -17 -1 -17 -14 0 -12 15 -14 16 -20 2 -7 -19 -46 -20 -46 0 0 8 -4 15
-10 15 -5 0 -10 -7 -10 -15 0 -20 -19 -19 -43 3 -19 16 -19 16 -13 -4z"/>
<path d="M1240 768 c-28 -31 -26 -72 6 -97 35 -27 59 -26 89 4 31 30 32 65 2
93 -30 28 -71 28 -97 0z"/>
<path d="M1814 415 c1 -39 5 -50 18 -50 9 0 26 -9 37 -19 12 -11 24 -16 28
-12 4 4 1 11 -7 16 -13 8 -12 10 3 10 30 0 57 19 51 35 -8 19 -24 20 -24 1 0
-7 -11 -16 -25 -18 -20 -4 -25 -1 -25 16 -1 19 -2 19 -11 4 -18 -32 -38 -21
-42 25 -4 38 -4 37 -3 -8z"/>
<path d="M1961 423 c-2 -52 7 -63 49 -63 22 0 42 5 45 11 9 13 -23 49 -43 49
-12 0 -11 -4 4 -21 19 -21 19 -21 -11 -17 -25 2 -31 8 -36 38 l-6 35 -2 -32z"/>
<path d="M1770 395 c0 -15 -9 -29 -22 -36 -13 -7 -18 -14 -11 -16 18 -6 53 29
53 54 0 13 -4 23 -10 23 -5 0 -10 -11 -10 -25z"/>
<path d="M1920 340 c0 -5 5 -10 11 -10 5 0 7 5 4 10 -3 6 -8 10 -11 10 -2 0
-4 -4 -4 -10z"/>
<path d="M2006 335 c4 -8 10 -12 15 -9 14 8 10 24 -6 24 -9 0 -12 -6 -9 -15z"/>
</g>
</svg>
