<?xml version="1.0" standalone="no"?>
<!DOCTYPE svg PUBLIC "-//W3C//DTD SVG 20010904//EN"
 "http://www.w3.org/TR/2001/REC-SVG-20010904/DTD/svg10.dtd">
<svg version="1.0" xmlns="http://www.w3.org/2000/svg"
 width="1200.000000pt" height="1181.000000pt" viewBox="0 0 1200.000000 1181.000000"
 preserveAspectRatio="xMidYMid meet">

<g transform="translate(0.000000,1181.000000) scale(0.100000,-0.100000)"
fill="#000000" stroke="none">
<path d="M7872 11278 l-33 -33 -102 1 c-96 1 -99 1 -42 -8 95 -14 141 -6 181
33 28 27 38 31 52 23 16 -10 132 -166 170 -227 30 -49 44 -63 26 -27 -9 19
-31 53 -48 75 -18 22 -47 63 -66 90 -40 61 -80 105 -95 105 -6 0 -25 -15 -43
-32z"/>
<path d="M7578 11233 c12 -2 30 -2 40 0 9 3 -1 5 -23 4 -22 0 -30 -2 -17 -4z"/>
<path d="M7435 11177 c-191 -101 -356 -229 -548 -426 -70 -72 -131 -131 -134
-131 -4 0 -53 27 -109 61 -57 33 -124 67 -150 75 -62 18 -158 18 -223 -2 -62
-18 -132 -81 -130 -116 l2 -23 4 23 c13 67 121 122 238 122 86 0 139 -19 259
-89 56 -34 106 -61 110 -61 5 0 60 54 124 121 193 201 366 336 567 441 60 32
106 58 100 58 -5 0 -55 -24 -110 -53z"/>
<path d="M8155 10970 c9 -16 18 -30 21 -30 2 0 -2 14 -11 30 -9 17 -18 30 -21
30 -2 0 2 -13 11 -30z"/>
<path d="M8183 10923 c30 -55 90 -153 94 -153 5 0 7 -4 -47 88 -23 39 -44 72
-47 72 -2 0 -2 -3 0 -7z"/>
<path d="M8301 10723 c144 -240 350 -563 423 -663 130 -180 189 -250 328 -387
l123 -122 89 -26 c48 -14 96 -25 105 -24 20 1 19 1 -99 34 l-95 26 -128 127
c-201 198 -403 482 -721 1010 -21 34 -40 62 -43 62 -2 0 6 -17 18 -37z"/>
<path d="M6131 10586 c0 -11 -7 -27 -15 -35 -8 -9 -17 -29 -20 -46 l-6 -30 11
30 c6 17 18 38 26 47 8 9 13 25 10 35 -4 17 -5 17 -6 -1z"/>
<path d="M5258 10523 c45 -2 119 -2 165 0 45 1 8 3 -83 3 -91 0 -128 -2 -82
-3z"/>
<path d="M5148 10513 c7 -3 16 -2 19 1 4 3 -2 6 -13 5 -11 0 -14 -3 -6 -6z"/>
<path d="M5528 10513 c12 -2 32 -2 45 0 12 2 2 4 -23 4 -25 0 -35 -2 -22 -4z"/>
<path d="M5070 10495 c-19 -7 -28 -13 -20 -13 8 0 31 6 50 13 19 7 28 13 20
13 -8 0 -31 -6 -50 -13z"/>
<path d="M5618 10503 c12 -2 30 -2 40 0 9 3 -1 5 -23 4 -22 0 -30 -2 -17 -4z"/>
<path d="M5693 10493 c9 -2 25 -2 35 0 9 3 1 5 -18 5 -19 0 -27 -2 -17 -5z"/>
<path d="M5763 10483 c9 -2 25 -2 35 0 9 3 1 5 -18 5 -19 0 -27 -2 -17 -5z"/>
<path d="M4931 10445 c-122 -50 -142 -69 -170 -156 -13 -41 -32 -90 -42 -110
-21 -43 -98 -114 -179 -166 -88 -57 -100 -67 -45 -37 71 39 144 94 191 146 39
42 65 95 95 197 15 52 47 75 164 122 44 17 82 33 84 35 12 11 -22 0 -98 -31z"/>
<path d="M5838 10473 c12 -2 30 -2 40 0 9 3 -1 5 -23 4 -22 0 -30 -2 -17 -4z"/>
<path d="M5923 10463 c15 -2 37 -2 50 0 12 2 0 4 -28 4 -27 0 -38 -2 -22 -4z"/>
<path d="M6040 10460 l-45 -7 42 -1 c23 -1 45 3 48 8 3 6 5 9 3 8 -2 0 -23 -4
-48 -8z"/>
<path d="M4410 9935 c-14 -8 -20 -14 -14 -15 5 0 19 7 30 15 24 18 16 19 -16
0z"/>
<path d="M4340 9905 c-14 -8 -20 -14 -15 -14 6 0 21 6 35 14 14 8 21 14 15 14
-5 0 -21 -6 -35 -14z"/>
<path d="M4263 9875 c-18 -8 -33 -20 -33 -27 0 -9 2 -10 8 -2 4 7 23 19 42 27
19 9 31 16 25 16 -5 0 -25 -6 -42 -14z"/>
<path d="M4220 9820 c-9 -6 -10 -10 -3 -10 6 0 15 5 18 10 8 12 4 12 -15 0z"/>
<path d="M4120 9794 c-16 -10 -18 -13 -5 -8 11 4 36 10 55 14 34 8 34 8 5 8
-16 1 -41 -6 -55 -14z"/>
<path d="M4035 9759 c-22 -10 -29 -16 -15 -13 28 7 80 33 65 33 -5 0 -28 -9
-50 -20z"/>
<path d="M3945 9725 c-25 -12 -26 -14 -5 -9 28 7 60 23 45 23 -5 0 -23 -6 -40
-14z"/>
<path d="M3870 9695 c-14 -8 -20 -14 -15 -14 6 0 21 6 35 14 14 8 21 14 15 14
-5 0 -21 -6 -35 -14z"/>
<path d="M3775 9655 c-27 -13 -45 -23 -40 -24 6 0 33 11 60 24 28 13 46 23 40
24 -5 0 -32 -11 -60 -24z"/>
<path d="M3675 9615 c-25 -12 -26 -14 -5 -9 28 7 60 23 45 23 -5 0 -23 -6 -40
-14z"/>
<path d="M3395 9520 c-126 -43 -225 -79 -220 -79 13 -1 455 146 463 154 11 11
-19 2 -243 -75z"/>
<path d="M9435 9484 c28 -7 57 -13 65 -13 8 0 -7 7 -35 15 -27 7 -57 13 -65
13 -8 0 8 -7 35 -15z"/>
<path d="M9528 9463 c7 -3 16 -2 19 1 4 3 -2 6 -13 5 -11 0 -14 -3 -6 -6z"/>
<path d="M9575 9450 c11 -5 27 -9 35 -9 9 0 8 4 -5 9 -11 5 -27 9 -35 9 -9 0
-8 -4 5 -9z"/>
<path d="M3072 9413 c-24 -8 -41 -17 -39 -19 4 -5 97 26 97 32 0 6 -11 4 -58
-13z"/>
<path d="M9680 9415 c14 -8 30 -14 35 -14 6 0 -1 6 -15 14 -14 8 -29 14 -35
14 -5 0 1 -6 15 -14z"/>
<path d="M2980 9391 c-5 -11 -19 -23 -31 -26 -11 -4 -18 -9 -16 -11 8 -8 57
19 57 32 0 7 8 15 18 17 16 4 16 5 0 6 -10 0 -22 -8 -28 -18z"/>
<path d="M9730 9397 c0 -3 24 -19 53 -35 85 -49 287 -203 390 -298 52 -49 150
-146 217 -216 l122 -128 -49 -21 c-26 -11 -163 -63 -303 -116 -140 -52 -338
-130 -440 -173 -102 -43 -332 -139 -512 -215 l-328 -136 -277 -64 c-153 -35
-390 -91 -528 -125 -407 -99 -661 -155 -999 -220 -478 -92 -605 -130 -695
-207 -23 -19 -44 -34 -46 -31 -2 2 -20 41 -39 86 -39 92 -87 166 -111 176 -9
3 -29 6 -43 6 -34 0 -117 48 -156 89 -16 16 -54 67 -85 113 -32 46 -72 91 -90
102 -33 19 -36 19 -175 1 -77 -10 -146 -20 -153 -22 -7 -3 -23 -24 -37 -48
-31 -52 -103 -118 -198 -181 l-70 -47 -149 149 c-82 82 -149 151 -149 154 0 3
54 39 120 80 66 41 120 79 120 83 0 9 -87 134 -99 141 -4 3 -84 -13 -177 -34
-249 -58 -351 -67 -516 -46 -73 9 -145 19 -159 21 -14 2 -40 -5 -58 -16 -18
-11 -50 -19 -76 -19 -35 0 -45 -4 -50 -21 -6 -18 -8 -19 -23 -5 -12 10 -22 12
-34 5 -12 -6 -19 -5 -25 3 -16 25 -52 39 -73 28 -14 -8 -37 -3 -96 21 -42 17
-91 33 -109 36 -36 6 -170 -26 -348 -84 l-109 -35 -181 4 -182 3 -50 33 c-49
32 -52 32 -130 27 l-80 -6 -59 40 -59 40 -41 -21 c-22 -11 -81 -60 -131 -108
-50 -48 -110 -97 -134 -110 -24 -12 -101 -57 -170 -99 -69 -43 -153 -92 -186
-109 -68 -36 -193 -134 -357 -279 -117 -103 -233 -193 -250 -193 -6 0 -7 24
-4 58 4 38 -1 25 -14 -43 -11 -55 -18 -104 -16 -110 2 -5 6 8 10 30 7 35 15
45 75 83 36 24 118 88 181 144 151 132 325 272 358 289 42 20 361 208 420 247
29 19 72 56 95 82 52 57 133 120 155 120 10 0 42 -17 72 -37 54 -37 56 -38
141 -34 81 3 89 1 130 -26 42 -28 43 -28 231 -31 188 -3 190 -3 281 27 108 35
311 91 333 91 8 0 58 -16 111 -36 68 -25 102 -34 112 -27 17 10 58 -6 71 -27
6 -9 13 -9 28 -1 17 9 23 8 31 -6 10 -17 12 -16 31 6 16 18 27 22 48 18 19 -4
40 1 61 14 38 23 81 24 216 4 180 -26 263 -19 535 44 l165 38 42 -58 c24 -32
44 -63 45 -68 4 -13 -227 -159 -261 -165 -14 -3 -116 -22 -226 -42 -110 -20
-210 -40 -222 -45 -12 -4 -36 -35 -55 -71 -52 -98 -100 -122 -323 -158 -172
-28 -184 -27 -216 19 l-27 38 -78 -38 c-110 -54 -235 -98 -300 -105 -46 -6
-59 -12 -78 -38 -13 -17 -29 -47 -37 -66 -7 -19 -34 -61 -59 -95 -139 -181
-169 -243 -170 -342 0 -76 -11 -97 -32 -63 -7 11 -19 20 -27 20 -15 0 -159
-75 -274 -143 l-68 -40 24 -26 c14 -14 30 -37 37 -50 14 -27 61 -164 57 -166
-1 -1 -24 -10 -52 -20 -80 -30 -129 -85 -178 -200 -41 -95 -46 -102 -98 -133
-41 -25 -61 -32 -84 -27 -97 19 -204 16 -365 -9 -180 -29 -361 -43 -405 -32
l-28 7 23 24 22 23 -60 79 c-71 93 -175 194 -292 285 -83 64 -86 68 -119 152
-19 47 -36 84 -38 82 -2 -2 11 -41 29 -86 33 -82 33 -83 148 -175 135 -110
200 -175 270 -270 l51 -70 -25 -20 c-25 -20 -25 -21 -6 -33 11 -6 33 -12 50
-12 16 0 30 -5 30 -10 0 -18 51 -60 72 -60 50 0 126 -63 106 -87 -8 -10 -7
-13 3 -13 11 0 11 -2 -1 -10 -13 -9 -12 -12 4 -25 23 -17 40 -20 31 -5 -3 6
-14 10 -23 10 -13 0 -13 2 4 15 12 9 14 14 6 15 -8 0 -11 7 -8 18 3 9 -3 26
-12 37 -19 23 -84 55 -111 55 -16 0 -61 38 -61 52 0 3 42 8 93 11 84 6 205 22
346 47 77 14 178 12 239 -3 49 -13 53 -13 94 11 58 34 95 69 102 98 13 51 72
159 106 195 23 24 54 43 93 55 31 10 57 23 57 31 0 27 -61 177 -85 208 l-25
33 78 45 c42 24 114 64 159 88 l82 43 23 -22 c13 -12 46 -26 74 -32 27 -5 82
-19 123 -30 41 -11 94 -20 119 -20 28 0 58 -9 86 -25 29 -17 120 -43 285 -80
278 -63 387 -90 453 -111 43 -14 53 -14 105 1 66 19 124 50 200 106 29 22 62
39 75 39 17 1 14 4 -15 14 -47 17 -106 62 -117 90 -5 11 -9 15 -9 8 -2 -26 20
-52 64 -78 25 -14 45 -27 45 -29 0 -2 -39 -30 -88 -62 -55 -37 -111 -66 -150
-77 -58 -16 -67 -16 -110 -2 -66 21 -210 57 -470 115 -150 34 -237 59 -266 76
-28 17 -58 25 -88 25 -24 0 -78 9 -119 20 -41 12 -91 24 -113 27 l-38 6 4 91
c3 85 6 96 43 156 21 36 64 98 94 139 31 41 74 108 96 150 l40 76 56 7 c74 9
161 39 282 96 89 41 100 44 109 29 5 -9 19 -28 31 -42 l22 -24 130 19 c273 41
330 66 385 173 l35 66 185 35 c102 19 210 40 240 45 l55 10 150 -150 c108
-108 146 -152 137 -158 -7 -4 -49 -16 -93 -26 -43 -10 -77 -20 -74 -23 2 -2
46 6 96 18 75 19 108 34 178 80 81 54 177 144 212 199 16 25 79 39 245 56 67
6 72 5 103 -21 18 -15 54 -59 80 -98 83 -122 177 -196 249 -196 42 0 74 -40
132 -164 l51 -109 -22 -23 c-12 -13 -55 -50 -96 -81 -40 -32 -73 -62 -73 -66
0 -5 25 -47 55 -93 30 -46 62 -98 70 -115 l17 -31 -86 -128 c-93 -137 -116
-183 -116 -229 l0 -30 -64 30 c-36 17 -86 31 -117 34 l-54 4 55 -10 c66 -11
136 -44 385 -179 234 -126 396 -227 542 -336 159 -120 175 -142 218 -305 66
-248 104 -367 150 -471 49 -110 74 -142 145 -190 103 -70 163 -153 191 -263
10 -39 9 -49 -2 -56 -18 -11 -1 -10 26 1 11 5 15 9 9 9 -7 1 -17 22 -23 47
-14 54 -53 135 -87 180 -13 18 -55 52 -93 78 -87 57 -109 86 -165 217 -43 98
-70 186 -147 474 l-32 120 -66 66 c-118 118 -370 282 -703 460 -153 81 -158
85 -158 116 0 48 14 76 111 224 l90 137 -17 34 c-9 18 -42 71 -72 118 l-55 85
48 40 c26 22 84 73 129 114 140 129 229 159 776 265 357 69 457 90 803 173
152 36 280 63 283 60 15 -14 34 -142 40 -262 7 -147 13 -173 54 -238 35 -56
93 -88 269 -146 67 -23 131 -46 141 -51 11 -6 77 -26 146 -45 70 -19 129 -36
130 -38 2 -2 -8 -30 -21 -63 -37 -90 -34 -163 10 -251 40 -79 59 -100 101
-109 24 -5 41 3 104 50 51 38 85 56 105 56 17 0 41 9 54 19 l25 19 19 -39 c10
-21 47 -69 82 -107 35 -37 73 -89 85 -114 12 -26 37 -57 56 -70 40 -27 54 -64
51 -133 l-2 -50 40 3 c22 2 73 14 113 28 89 30 90 30 114 -1 12 -16 30 -25 47
-25 74 0 187 -92 233 -191 21 -45 26 -48 58 -47 34 1 34 1 4 5 -24 3 -35 12
-51 46 -47 96 -172 197 -244 197 -17 0 -32 9 -43 25 -20 31 -28 31 -118 1 -40
-13 -90 -27 -112 -31 l-39 -6 7 48 c8 64 -7 105 -50 138 -19 14 -44 45 -55 68
-12 23 -40 62 -64 87 -62 66 -115 140 -115 161 0 24 -9 24 -40 -1 -14 -11 -39
-20 -55 -20 -21 0 -55 -18 -108 -56 -61 -44 -82 -55 -102 -50 -34 9 -61 40
-97 113 -27 55 -30 70 -26 130 2 45 12 87 30 124 l25 56 -74 18 c-87 20 -164
44 -360 114 -173 61 -212 81 -248 123 -50 59 -62 102 -69 248 -3 74 -13 166
-21 204 -8 38 -14 71 -12 72 4 5 168 44 422 103 l260 59 480 202 c264 111 581
240 705 286 124 47 276 105 338 130 l114 46 36 -33 c20 -19 -36 42 -124 135
-198 210 -337 336 -491 448 -113 83 -213 146 -213 135z"/>
<path d="M2880 9335 c-14 -8 -20 -14 -15 -14 6 0 21 6 35 14 14 8 21 14 15 14
-5 0 -21 -6 -35 -14z"/>
<path d="M2780 9290 c-30 -16 -50 -29 -45 -29 6 0 35 13 65 29 30 16 51 29 45
29 -5 0 -35 -13 -65 -29z"/>
<path d="M6223 9310 c-17 -18 -5 -210 15 -232 28 -33 120 -18 142 22 16 29 6
63 -31 105 l-31 35 24 9 c13 5 43 15 66 21 36 11 61 35 49 47 -3 2 -37 -8 -76
-23 -95 -35 -113 -71 -55 -109 30 -20 46 -55 32 -72 -6 -7 -32 -13 -59 -13
-58 0 -58 0 -62 133 -1 66 -5 85 -14 77z"/>
<path d="M6793 9308 c-11 -15 8 -254 20 -242 10 10 9 254 -2 254 -5 0 -13 -6
-18 -12z"/>
<path d="M2635 9225 c-38 -19 -123 -57 -188 -85 l-118 -50 -61 25 c-34 14 -63
23 -65 21 -2 -2 25 -15 61 -30 l65 -26 118 50 c135 58 283 128 268 128 -5 0
-41 -15 -80 -33z"/>
<path d="M1901 9229 c37 -5 104 -22 150 -38 95 -34 121 -35 32 -1 -87 32 -162
50 -208 49 -31 -1 -25 -3 26 -10z"/>
<path d="M1790 9223 c-22 -8 -58 -42 -92 -88 -21 -27 -14 -23 20 15 27 29 65
60 83 66 19 7 27 12 19 12 -8 0 -22 -2 -30 -5z"/>
<path d="M6534 9216 c-4 -10 6 -30 30 -56 20 -23 34 -45 31 -50 -4 -6 -26 -10
-51 -10 -39 0 -44 3 -44 22 0 16 -3 19 -11 11 -19 -19 -6 -57 22 -67 36 -12
76 0 94 28 14 21 14 28 2 58 -8 18 -26 44 -40 57 -23 21 -27 22 -33 7z"/>
<path d="M6061 9196 c-9 -10 -8 -16 3 -25 10 -9 16 -8 25 3 9 10 8 16 -3 25
-10 9 -16 8 -25 -3z"/>
<path d="M2160 9150 c8 -5 20 -10 25 -10 6 0 3 5 -5 10 -8 5 -19 10 -25 10 -5
0 -3 -5 5 -10z"/>
<path d="M6137 9117 c-3 -7 1 -21 9 -32 37 -50 0 -95 -77 -95 -56 0 -73 16
-67 65 5 41 -4 45 -20 10 -18 -39 -14 -63 13 -90 40 -41 148 -26 174 23 14 27
14 75 -1 107 -12 28 -23 32 -31 12z"/>
<path d="M6714 9117 c-3 -10 -2 -23 5 -30 21 -21 12 -54 -24 -86 -20 -17 -43
-31 -51 -31 -8 0 -12 -4 -9 -10 13 -22 63 -10 89 21 30 35 36 102 12 135 -14
18 -15 18 -22 1z"/>
<path d="M1654 9076 c-3 -8 -4 -27 -2 -43 3 -23 5 -20 9 15 5 43 2 53 -7 28z"/>
<path d="M1640 8983 c0 -10 -27 -38 -60 -63 -56 -41 -77 -61 -47 -44 46 28
117 92 117 106 0 10 -2 18 -5 18 -3 0 -5 -8 -5 -17z"/>
<path d="M1020 8914 c0 -3 17 -33 38 -67 26 -43 39 -76 43 -116 l6 -56 2 51
c1 42 -5 61 -38 115 -34 55 -37 65 -22 71 12 5 11 7 -6 7 -13 1 -23 -2 -23 -5z"/>
<path d="M1098 8903 c12 -2 30 -2 40 0 9 3 -1 5 -23 4 -22 0 -30 -2 -17 -4z"/>
<path d="M1218 8884 c44 -11 71 -13 90 -6 24 8 22 9 -18 9 -25 -1 -65 2 -90 6
-30 5 -25 2 18 -9z"/>
<path d="M1405 8885 c91 -17 127 -17 50 1 -33 7 -73 13 -90 13 -16 -1 2 -7 40
-14z"/>
<path d="M1114 8555 c0 -49 1 -71 3 -48 2 23 2 64 0 90 -2 26 -3 8 -3 -42z"/>
<path d="M10655 8570 c38 -38 72 -70 74 -70 3 0 -26 32 -64 70 -38 39 -72 70
-74 70 -3 0 26 -31 64 -70z"/>
<path d="M10805 8410 c44 -44 82 -80 85 -80 2 0 -31 36 -75 80 -44 44 -82 80
-85 80 -2 0 31 -36 75 -80z"/>
<path d="M1124 8345 c0 -60 1 -84 3 -52 2 32 2 81 0 110 -2 29 -3 3 -3 -58z"/>
<path d="M10940 8265 c30 -30 57 -55 59 -55 3 0 -19 25 -49 55 -30 30 -57 55
-59 55 -3 0 19 -25 49 -55z"/>
<path d="M1112 8200 c0 -19 2 -27 5 -17 2 9 2 25 0 35 -3 9 -5 1 -5 -18z"/>
<path d="M11034 8157 c21 -26 40 -47 43 -47 7 0 -56 78 -70 87 -6 4 6 -14 27
-40z"/>
<path d="M1118 8025 c2 -66 5 -124 7 -130 7 -20 3 191 -4 220 -4 17 -6 -24 -3
-90z"/>
<path d="M11097 8078 c10 -13 55 -66 98 -118 80 -97 124 -146 94 -105 -31 44
-201 245 -207 245 -3 0 4 -10 15 -22z"/>
<path d="M1133 7805 c0 -38 2 -53 4 -32 2 20 2 52 0 70 -2 17 -4 1 -4 -38z"/>
<path d="M11300 7821 c0 -3 44 -47 97 -98 l98 -91 -51 -54 c-55 -57 -84 -96
-84 -113 0 -5 9 6 21 25 11 19 44 59 72 88 l52 53 -102 98 c-57 53 -103 95
-103 92z"/>
<path d="M1143 7685 c0 -27 2 -38 4 -22 2 15 2 37 0 50 -2 12 -4 0 -4 -28z"/>
<path d="M1153 7590 c0 -25 2 -35 4 -22 2 12 2 32 0 45 -2 12 -4 2 -4 -23z"/>
<path d="M4910 7616 c-149 -55 -406 -230 -394 -269 4 -12 -10 -34 -40 -68 -37
-42 -46 -58 -46 -89 0 -20 -9 -63 -20 -95 -11 -32 -19 -72 -19 -89 1 -25 3
-23 9 14 5 25 15 65 24 89 9 24 16 60 16 81 0 31 7 45 46 81 32 32 44 50 41
66 -9 48 233 215 398 274 28 10 43 18 35 18 -8 0 -31 -6 -50 -13z"/>
<path d="M9944 7557 c-11 -30 1 -203 15 -221 17 -21 85 -21 105 0 19 18 20 47
5 76 -9 16 -13 18 -19 7 -5 -7 -4 -22 2 -32 11 -21 -3 -37 -34 -37 -44 0 -48
8 -48 104 0 92 -12 139 -26 103z"/>
<path d="M10117 7562 c-3 -4 -2 -56 2 -115 7 -116 12 -127 64 -127 20 0 30 -7
37 -25 13 -34 58 -75 81 -75 23 0 24 13 2 47 -16 24 -16 26 2 39 10 8 35 14
55 14 44 0 60 15 60 55 0 37 -16 68 -24 45 -2 -8 -4 -26 -3 -40 2 -22 -3 -25
-42 -31 -45 -6 -71 -28 -71 -61 0 -24 -17 -23 -30 3 -10 17 -7 23 14 40 30 24
33 56 10 101 -16 30 -17 31 -31 13 -7 -11 -19 -37 -25 -57 -8 -29 -16 -38 -33
-38 -38 0 -45 19 -45 122 0 86 -8 116 -23 90z m148 -172 c8 -24 -1 -40 -21
-40 -15 0 -18 18 -8 44 8 22 21 20 29 -4z"/>
<path d="M1162 7520 c0 -14 2 -19 5 -12 2 6 2 18 0 25 -3 6 -5 1 -5 -13z"/>
<path d="M9825 7470 c-4 -7 7 -27 29 -49 44 -45 45 -57 6 -66 -38 -8 -68 1
-73 23 -3 15 -5 15 -12 -2 -13 -29 8 -51 51 -54 83 -6 106 61 42 125 -25 24
-38 31 -43 23z"/>
<path d="M11341 7404 c0 -11 3 -14 6 -6 3 7 2 16 -1 19 -3 4 -6 -2 -5 -13z"/>
<path d="M4211 7396 c-8 -10 -9 -44 -1 -126 5 -62 12 -115 15 -118 3 -3 5 54
5 126 0 73 -2 132 -4 132 -2 0 -9 -6 -15 -14z"/>
<path d="M3855 7377 c-101 -36 -105 -46 -50 -110 53 -62 45 -87 -30 -87 -39 0
-47 9 -71 78 -10 28 -22 52 -26 52 -13 0 -9 -35 8 -75 18 -44 10 -55 -44 -55
-25 0 -35 5 -41 23 -8 21 -9 21 -17 3 -4 -10 -3 -26 3 -35 12 -20 89 -27 109
-10 11 9 18 9 26 1 15 -15 83 -16 109 -2 10 6 19 17 19 25 0 21 9 19 35 -9 22
-23 28 -25 140 -24 109 1 117 2 131 23 15 23 10 75 -6 75 -13 0 -19 -26 -10
-40 5 -8 6 -18 4 -22 -9 -14 -43 -8 -54 10 -10 16 -10 16 -20 0 -6 -10 -20
-18 -30 -18 -10 0 -24 8 -30 18 -10 16 -10 16 -20 0 -7 -12 -23 -18 -44 -18
-29 0 -41 9 -94 73 l-61 74 57 18 c59 18 82 31 82 46 0 12 -5 11 -75 -14z"/>
<path d="M3645 7380 c-11 -17 5 -32 21 -19 7 6 11 15 8 20 -7 12 -21 11 -29
-1z"/>
<path d="M11332 7350 c0 -19 2 -27 5 -17 2 9 2 25 0 35 -3 9 -5 1 -5 -18z"/>
<path d="M4065 7360 c-4 -6 -3 -16 3 -22 6 -6 12 -6 17 2 4 6 3 16 -3 22 -6 6
-12 6 -17 -2z"/>
<path d="M1967 7336 c-4 -9 0 -31 8 -50 21 -50 19 -63 -11 -69 -35 -6 -64 2
-64 19 0 8 -4 14 -10 14 -14 0 -13 -43 2 -58 17 -17 84 -15 101 3 13 13 16 13
27 0 14 -17 63 -20 90 -5 13 7 21 7 25 0 3 -5 28 -10 55 -10 27 0 52 5 55 10
4 7 12 7 25 0 24 -13 83 -13 96 0 6 6 20 6 41 -2 25 -9 35 -9 47 1 20 17 20
50 0 79 -21 31 -39 28 -70 -13 -23 -30 -32 -35 -69 -35 -36 0 -44 4 -49 23
l-7 22 -9 -22 c-8 -20 -17 -23 -60 -23 -43 0 -52 3 -60 23 l-9 22 -7 -22 c-5
-19 -14 -23 -44 -23 -37 0 -38 2 -60 58 -27 68 -35 79 -43 58z m477 -102 c8
-22 5 -24 -22 -17 -12 3 -22 12 -22 19 0 20 37 17 44 -2z"/>
<path d="M4040 7304 c0 -9 5 -14 12 -12 18 6 21 28 4 28 -9 0 -16 -7 -16 -16z"/>
<path d="M4085 7311 c-7 -12 12 -24 25 -16 11 7 4 25 -10 25 -5 0 -11 -4 -15
-9z"/>
<path d="M11323 7225 c0 -38 2 -53 4 -32 2 20 2 52 0 70 -2 17 -4 1 -4 -38z"/>
<path d="M5445 7270 c-4 -6 -3 -16 3 -22 6 -6 12 -6 17 2 4 6 3 16 -3 22 -6 6
-12 6 -17 -2z"/>
<path d="M10034 7269 c-10 -17 13 -36 27 -22 12 12 4 33 -11 33 -5 0 -12 -5
-16 -11z"/>
<path d="M10374 7269 c-10 -17 13 -36 27 -22 12 12 4 33 -11 33 -5 0 -12 -5
-16 -11z"/>
<path d="M5280 7257 c0 -7 14 -26 30 -42 17 -16 30 -37 30 -47 0 -15 -8 -18
-45 -18 -38 0 -47 4 -54 22 l-8 22 -5 -22 c-7 -26 10 -50 37 -52 63 -6 95 13
95 55 0 14 -14 40 -31 60 -32 37 -49 44 -49 22z"/>
<path d="M1101 7214 c-7 -25 -10 -48 -8 -51 3 -2 10 17 16 43 7 25 10 48 8 51
-3 2 -10 -17 -16 -43z"/>
<path d="M5566 7211 c-4 -6 -2 -19 3 -29 6 -11 7 -22 4 -26 -13 -12 -81 -6
-93 9 -21 25 -30 -3 -12 -35 15 -25 15 -30 -1 -54 -10 -14 -34 -35 -55 -45
l-37 -20 36 -1 c42 0 65 21 79 71 9 30 14 34 45 35 44 1 58 14 58 54 0 34 -16
59 -27 41z"/>
<path d="M3507 7198 c-2 -7 2 -21 10 -30 25 -28 8 -65 -44 -98 l-47 -30 36 0
c41 0 72 30 83 81 10 47 -24 115 -38 77z"/>
<path d="M1076 7124 c-4 -14 -5 -28 -3 -31 3 -2 8 8 11 23 4 14 5 28 3 31 -3
2 -8 -8 -11 -23z"/>
<path d="M11311 7134 c0 -11 3 -14 6 -6 3 7 2 16 -1 19 -3 4 -6 -2 -5 -13z"/>
<path d="M2094 7129 c-3 -6 -1 -16 4 -21 13 -13 45 8 36 23 -7 12 -31 11 -40
-2z"/>
<path d="M2204 7129 c-10 -17 13 -36 27 -22 12 12 4 33 -11 33 -5 0 -12 -5
-16 -11z"/>
<path d="M2255 7130 c-11 -17 5 -32 21 -19 7 6 11 15 8 20 -7 12 -21 11 -29
-1z"/>
<path d="M1050 7031 c-10 -41 -9 -59 6 -110 9 -34 19 -60 21 -57 2 2 -3 29
-12 61 -14 47 -15 65 -6 102 7 25 10 47 8 50 -3 2 -10 -18 -17 -46z"/>
<path d="M11291 7064 c0 -11 3 -14 6 -6 3 7 2 16 -1 19 -3 4 -6 -2 -5 -13z"/>
<path d="M5535 7061 c-7 -12 12 -24 25 -16 11 7 4 25 -10 25 -5 0 -11 -4 -15
-9z"/>
<path d="M5585 7061 c-7 -12 12 -24 25 -16 11 7 4 25 -10 25 -5 0 -11 -4 -15
-9z"/>
<path d="M11281 7024 c0 -11 3 -14 6 -6 3 7 2 16 -1 19 -3 4 -6 -2 -5 -13z"/>
<path d="M11271 6984 c0 -11 3 -14 6 -6 3 7 2 16 -1 19 -3 4 -6 -2 -5 -13z"/>
<path d="M11262 6940 c0 -14 2 -19 5 -12 2 6 2 18 0 25 -3 6 -5 1 -5 -13z"/>
<path d="M11252 6885 c0 -16 2 -22 5 -12 2 9 2 23 0 30 -3 6 -5 -1 -5 -18z"/>
<path d="M4573 6843 c9 -2 25 -2 35 0 9 3 1 5 -18 5 -19 0 -27 -2 -17 -5z"/>
<path d="M4650 6834 c14 -3 42 -9 62 -14 l36 -10 -25 -62 c-39 -98 -79 -171
-103 -193 -54 -48 -135 -192 -154 -275 -4 -14 -24 -37 -45 -51 -28 -20 -43
-40 -55 -75 -25 -73 -21 -109 15 -141 38 -35 128 -83 154 -82 11 0 -1 7 -26
16 -26 8 -68 32 -95 52 -57 43 -65 73 -39 152 13 38 26 56 61 80 35 24 44 36
44 59 0 53 132 270 164 270 6 0 45 -20 86 -45 68 -41 81 -45 135 -43 l60 1
-65 6 c-53 5 -79 14 -137 50 l-72 43 28 57 c31 61 83 183 78 186 -13 10 -76
25 -101 24 -26 -2 -27 -2 -6 -5z"/>
<path d="M11244 6725 c0 -66 1 -92 3 -57 2 34 2 88 0 120 -2 31 -3 3 -3 -63z"/>
<path d="M5733 6673 c20 -2 54 -2 75 0 20 2 3 4 -38 4 -41 0 -58 -2 -37 -4z"/>
<path d="M5668 6663 c7 -3 16 -2 19 1 4 3 -2 6 -13 5 -11 0 -14 -3 -6 -6z"/>
<path d="M5455 6635 c32 -15 88 -18 119 -6 12 4 -4 7 -40 7 -32 -1 -70 2 -84
6 -19 6 -18 4 5 -7z"/>
<path d="M5260 6629 c-69 -4 -137 -13 -150 -19 -23 -9 -23 -10 7 -4 17 3 91 9
163 13 72 5 133 11 137 15 3 3 -2 5 -13 5 -10 -1 -75 -6 -144 -10z"/>
<path d="M5063 6593 c-20 -7 -15 -43 12 -93 30 -57 32 -46 3 15 -19 38 -20 49
-10 65 7 11 11 20 10 19 -2 0 -9 -3 -15 -6z"/>
<path d="M8066 6552 c-12 -19 6 -223 21 -238 19 -19 78 -18 97 2 24 23 19 94
-6 94 -6 0 -8 -14 -4 -36 l7 -35 -43 3 -43 3 -3 100 c-3 93 -12 130 -26 107z"/>
<path d="M7956 6541 c-3 -5 1 -14 8 -20 16 -13 32 2 21 19 -8 12 -22 13 -29 1z"/>
<path d="M11150 6480 c-30 -16 -51 -29 -47 -30 10 0 107 49 107 55 0 7 1 7
-60 -25z"/>
<path d="M7801 6476 c-9 -10 -9 -16 -1 -21 17 -10 37 12 24 25 -8 8 -15 6 -23
-4z"/>
<path d="M7851 6476 c-9 -10 -9 -16 -1 -21 17 -10 37 12 24 25 -8 8 -15 6 -23
-4z"/>
<path d="M4931 6466 c2 -2 22 -6 44 -9 28 -5 34 -4 20 3 -19 8 -73 14 -64 6z"/>
<path d="M7950 6450 c-6 -12 -10 -33 -8 -48 2 -22 9 -28 36 -30 53 -5 32 -27
-30 -30 -53 -3 -56 -2 -68 27 -16 38 -36 45 -60 21 -39 -39 -20 -90 32 -90 41
0 36 -35 -9 -59 -29 -15 -105 -14 -127 2 -14 10 -17 23 -14 51 4 33 3 36 -9
20 -19 -26 -16 -78 5 -97 60 -54 192 -13 192 59 0 18 7 22 50 26 62 6 90 29
90 75 0 73 -54 122 -80 73z m48 -34 c3 -13 -1 -17 -14 -14 -11 2 -20 11 -22
22 -3 13 1 17 14 14 11 -2 20 -11 22 -22z m-138 -61 c11 -13 8 -15 -14 -15
-16 0 -26 5 -26 15 0 8 6 15 14 15 7 0 19 -7 26 -15z"/>
<path d="M5020 6447 c0 -7 92 -38 98 -33 2 3 -1 13 -7 23 -7 11 -11 13 -11 4
0 -13 -22 -11 -64 5 -9 3 -16 4 -16 1z"/>
<path d="M10985 6420 c-13 -5 -14 -9 -5 -9 8 0 24 4 35 9 13 5 14 9 5 9 -8 0
-24 -4 -35 -9z"/>
<path d="M10938 6403 c7 -3 16 -2 19 1 4 3 -2 6 -13 5 -11 0 -14 -3 -6 -6z"/>
<path d="M10850 6375 c-14 -8 -20 -14 -15 -14 6 0 21 6 35 14 14 8 21 14 15
14 -5 0 -21 -6 -35 -14z"/>
<path d="M10538 6225 c-135 -68 -249 -128 -251 -132 -4 -7 501 243 512 253 18
17 -48 -14 -261 -121z"/>
<path d="M8155 6250 c-3 -6 1 -13 10 -16 19 -8 30 0 20 15 -8 14 -22 14 -30 1z"/>
<path d="M9907 6105 c-36 -45 -29 -45 12 0 17 19 28 35 24 35 -5 0 -21 -16
-36 -35z"/>
<path d="M1418 6114 c-38 -20 -36 -28 2 -9 17 9 30 18 30 20 0 7 -1 6 -32 -11z"/>
<path d="M10013 6113 c9 -2 23 -2 30 0 6 3 -1 5 -18 5 -16 0 -22 -2 -12 -5z"/>
<path d="M10093 6103 c9 -2 23 -2 30 0 6 3 -1 5 -18 5 -16 0 -22 -2 -12 -5z"/>
<path d="M1270 6035 c-47 -24 -82 -44 -77 -44 10 -1 167 78 167 84 0 7 4 9
-90 -40z"/>
<path d="M9844 6054 c-18 -14 -18 -15 4 -4 12 6 22 13 22 15 0 8 -5 6 -26 -11z"/>
<path d="M9794 6024 c-18 -14 -18 -15 4 -4 12 6 22 13 22 15 0 8 -5 6 -26 -11z"/>
<path d="M1150 5980 c-8 -5 -10 -10 -5 -10 6 0 17 5 25 10 8 5 11 10 5 10 -5
0 -17 -5 -25 -10z"/>
<path d="M9683 5944 l-48 -46 45 37 c60 51 65 55 58 55 -3 0 -28 -21 -55 -46z"/>
<path d="M3466 5951 c-3 -5 0 -14 8 -20 10 -8 16 -8 25 2 6 8 8 17 4 20 -9 10
-31 9 -37 -2z"/>
<path d="M998 5933 c6 -2 18 -2 25 0 6 3 1 5 -13 5 -14 0 -19 -2 -12 -5z"/>
<path d="M898 5923 c12 -2 32 -2 45 0 12 2 2 4 -23 4 -25 0 -35 -2 -22 -4z"/>
<path d="M1793 5915 c-6 -18 24 -65 150 -237 47 -65 107 -155 134 -202 28 -50
56 -87 68 -90 11 -3 48 -6 81 -6 34 0 78 -7 99 -15 33 -15 42 -14 93 1 95 28
119 32 136 22 11 -6 15 -16 11 -29 -4 -11 2 -33 13 -52 16 -25 40 -114 42
-156 1 -3 11 7 24 23 l24 29 36 -28 35 -27 36 22 c42 26 84 20 47 -6 -30 -21
-19 -34 26 -33 l37 2 -40 6 c-38 6 -39 7 -17 19 27 16 28 29 2 37 -13 4 -34
-1 -56 -14 l-35 -21 -36 27 -35 27 -19 -23 c-21 -25 -23 -23 -34 44 -4 22 -16
55 -27 74 -17 26 -19 37 -10 51 9 14 8 21 -4 31 -21 17 -60 14 -141 -11 -66
-20 -73 -20 -108 -6 -22 9 -66 16 -106 16 -81 0 -77 -3 -156 125 -30 50 -90
137 -132 195 -137 185 -147 204 -113 213 16 4 16 5 -1 6 -10 0 -20 -6 -24 -14z"/>
<path d="M3566 5921 c-3 -5 1 -14 8 -20 16 -13 32 2 21 19 -8 12 -22 13 -29 1z"/>
<path d="M3615 5920 c-11 -17 5 -32 21 -19 7 6 11 15 8 20 -7 12 -21 11 -29
-1z"/>
<path d="M4578 5923 c12 -2 32 -2 45 0 12 2 2 4 -23 4 -25 0 -35 -2 -22 -4z"/>
<path d="M707 5913 c18 -2 50 -2 70 0 21 2 7 4 -32 4 -38 0 -55 -2 -38 -4z"/>
<path d="M3211 5906 c-9 -10 -9 -16 -1 -21 17 -10 37 12 24 25 -8 8 -15 6 -23
-4z"/>
<path d="M3255 5910 c-10 -17 12 -37 25 -24 8 8 6 15 -4 23 -10 9 -16 9 -21 1z"/>
<path d="M4683 5913 c20 -2 37 -6 37 -9 0 -3 -11 -26 -24 -52 -32 -63 -50
-163 -41 -235 7 -69 14 -66 -170 -95 -133 -22 -208 -41 -206 -54 1 -5 2 -113
3 -240 l2 -233 6 239 5 240 30 8 c17 5 86 17 155 29 69 11 140 25 158 30 l33
11 -6 62 c-8 76 9 174 41 238 13 26 24 52 24 58 0 5 -19 9 -42 8 l-43 -1 38
-4z"/>
<path d="M583 5903 c9 -2 25 -2 35 0 9 3 1 5 -18 5 -19 0 -27 -2 -17 -5z"/>
<path d="M516 5892 c-3 -5 14 -26 37 -48 l42 -39 -39 42 c-33 36 -36 42 -20
46 16 4 16 5 2 6 -9 0 -19 -3 -22 -7z"/>
<path d="M9620 5870 c-6 -11 -8 -20 -6 -20 3 0 10 9 16 20 6 11 8 20 6 20 -3
0 -10 -9 -16 -20z"/>
<path d="M3455 5840 c-9 -17 -13 -40 -10 -51 6 -18 3 -20 -32 -17 -29 2 -38 7
-37 21 2 21 6 21 -41 -3 -27 -14 -59 -20 -101 -20 -82 0 -94 5 -94 44 0 24 -3
27 -10 16 -5 -8 -10 -28 -10 -43 0 -23 7 -31 37 -44 44 -18 125 -13 171 11 27
14 31 14 36 0 5 -12 21 -15 78 -14 40 1 93 1 118 0 32 -1 48 4 57 16 17 23 17
55 0 78 -13 18 -14 18 -21 1 -3 -10 -1 -24 5 -31 17 -21 1 -34 -41 -34 -39 0
-39 0 -33 35 10 65 -43 90 -72 35z m53 -28 c3 -16 -2 -22 -17 -22 -26 0 -36
17 -20 36 16 19 33 13 37 -14z"/>
<path d="M9546 5773 c-6 -14 -5 -15 5 -6 7 7 10 15 7 18 -3 3 -9 -2 -12 -12z"/>
<path d="M9526 5735 c-9 -26 -7 -32 5 -12 6 10 9 21 6 23 -2 3 -7 -2 -11 -11z"/>
<path d="M758 5733 c7 -3 16 -2 19 1 4 3 -2 6 -13 5 -11 0 -14 -3 -6 -6z"/>
<path d="M800 5706 c0 -2 8 -10 18 -17 15 -13 16 -12 3 4 -13 16 -21 21 -21
13z"/>
<path d="M5454 5679 c-10 -17 13 -36 27 -22 12 12 4 33 -11 33 -5 0 -12 -5
-16 -11z"/>
<path d="M9475 5659 c-4 -6 -5 -12 -2 -15 2 -3 7 2 10 11 7 17 1 20 -8 4z"/>
<path d="M5843 5610 c-15 -43 -21 -50 -44 -50 -15 0 -32 7 -39 15 -21 26 -34
1 -17 -31 21 -40 2 -75 -55 -103 l-43 -21 43 0 c37 0 45 4 62 33 11 17 20 41
20 53 0 17 5 20 31 16 20 -3 33 -12 39 -27 8 -22 65 -75 80 -75 18 0 21 22 5
40 -28 31 -15 54 33 61 23 3 47 10 54 17 8 8 18 7 40 -4 36 -19 58 -5 58 37 0
27 -22 59 -40 59 -5 0 -22 -16 -37 -35 -19 -24 -36 -35 -54 -35 -37 0 -79 -36
-79 -67 0 -29 -17 -27 -38 5 -13 20 -12 22 11 31 14 5 27 21 31 35 7 28 -16
96 -33 96 -6 0 -18 -22 -28 -50z m47 -37 c0 -7 -9 -13 -20 -13 -21 0 -25 15
-13 46 6 16 7 16 20 -2 7 -10 13 -24 13 -31z m198 -1 c4 -25 -6 -28 -33 -9
-10 8 -15 19 -11 26 12 19 41 8 44 -17z"/>
<path d="M860 5620 c6 -11 13 -20 16 -20 2 0 0 9 -6 20 -6 11 -13 20 -16 20
-2 0 0 -9 6 -20z"/>
<path d="M5577 5615 c-4 -8 -2 -17 3 -20 6 -4 10 -13 10 -21 0 -20 -68 -18
-92 2 -16 16 -18 15 -24 0 -4 -10 -2 -22 5 -29 29 -29 -8 -92 -69 -116 -23 -9
-21 -10 16 -10 46 -1 69 22 80 77 5 24 10 28 33 24 16 -2 36 4 50 15 20 17 23
25 17 56 -7 38 -20 48 -29 22z"/>
<path d="M9456 5615 c-9 -26 -7 -32 5 -12 6 10 9 21 6 23 -2 3 -7 -2 -11 -11z"/>
<path d="M9419 5533 c-8 -9 -27 -24 -44 -35 -16 -10 -24 -18 -17 -18 12 0 93
69 81 70 -4 0 -13 -7 -20 -17z"/>
<path d="M911 5494 c0 -11 3 -14 6 -6 3 7 2 16 -1 19 -3 4 -6 -2 -5 -13z"/>
<path d="M5555 5470 c-8 -13 4 -32 16 -25 12 8 12 35 0 35 -6 0 -13 -4 -16
-10z"/>
<path d="M5595 5470 c-3 -6 1 -13 10 -16 19 -8 30 0 20 15 -8 14 -22 14 -30 1z"/>
<path d="M9318 5473 c7 -3 16 -2 19 1 4 3 -2 6 -13 5 -11 0 -14 -3 -6 -6z"/>
<path d="M9230 5413 l-55 -58 58 55 c53 50 62 60 54 60 -1 0 -27 -26 -57 -57z"/>
<path d="M912 5400 c0 -14 2 -19 5 -12 2 6 2 18 0 25 -3 6 -5 1 -5 -13z"/>
<path d="M9149 5343 c-13 -16 -12 -17 4 -4 9 7 17 15 17 17 0 8 -8 3 -21 -13z"/>
<path d="M9100 5309 c-22 -18 -22 -19 -3 -10 12 6 25 16 28 21 9 15 3 12 -25
-11z"/>
<path d="M9035 5280 c-13 -6 -15 -9 -5 -9 8 0 22 4 30 9 18 12 2 12 -25 0z"/>
<path d="M824 5218 l-29 -33 33 29 c30 28 37 36 29 36 -2 0 -16 -15 -33 -32z"/>
<path d="M8928 5243 c7 -3 16 -2 19 1 4 3 -2 6 -13 5 -11 0 -14 -3 -6 -6z"/>
<path d="M8858 5223 c7 -3 16 -2 19 1 4 3 -2 6 -13 5 -11 0 -14 -3 -6 -6z"/>
<path d="M8818 5213 c7 -3 16 -2 19 1 4 3 -2 6 -13 5 -11 0 -14 -3 -6 -6z"/>
<path d="M8778 5203 c7 -3 16 -2 19 1 4 3 -2 6 -13 5 -11 0 -14 -3 -6 -6z"/>
<path d="M8738 5193 c7 -3 16 -2 19 1 4 3 -2 6 -13 5 -11 0 -14 -3 -6 -6z"/>
<path d="M8698 5183 c7 -3 16 -2 19 1 4 3 -2 6 -13 5 -11 0 -14 -3 -6 -6z"/>
<path d="M8658 5173 c7 -3 16 -2 19 1 4 3 -2 6 -13 5 -11 0 -14 -3 -6 -6z"/>
<path d="M688 5163 c7 -3 16 -2 19 1 4 3 -2 6 -13 5 -11 0 -14 -3 -6 -6z"/>
<path d="M8618 5163 c7 -3 16 -2 19 1 4 3 -2 6 -13 5 -11 0 -14 -3 -6 -6z"/>
<path d="M628 5153 c6 -2 18 -2 25 0 6 3 1 5 -13 5 -14 0 -19 -2 -12 -5z"/>
<path d="M8578 5153 c7 -3 16 -2 19 1 4 3 -2 6 -13 5 -11 0 -14 -3 -6 -6z"/>
<path d="M585 5140 c-3 -6 1 -7 9 -4 18 7 21 14 7 14 -6 0 -13 -4 -16 -10z"/>
<path d="M2905 5143 c11 -3 33 -16 48 -29 16 -13 34 -24 41 -24 15 0 106 -82
106 -96 0 -5 19 -16 43 -24 29 -11 43 -21 45 -36 2 -16 13 -24 38 -28 42 -8
45 -35 9 -78 -14 -16 -25 -36 -25 -43 0 -18 31 -35 64 -35 28 0 32 -10 16 -41
-7 -12 -21 -19 -40 -19 -17 0 -30 -1 -30 -3 0 -11 41 -85 52 -94 7 -6 35 -13
62 -17 60 -7 64 -11 42 -35 -24 -26 -12 -42 24 -35 26 6 30 3 44 -30 l15 -36
183 7 182 6 -15 -24 c-71 -108 -288 -546 -345 -696 -13 -34 -26 -91 -30 -127
-6 -62 -8 -65 -28 -54 -18 9 -17 7 4 -13 l25 -24 6 65 c4 36 12 85 19 110 22
86 283 623 357 736 17 26 67 32 388 44 127 4 349 20 495 34 399 38 672 58 681
49 4 -4 10 -30 12 -58 l3 -50 2 57 c2 45 6 57 20 61 52 13 -309 -11 -718 -48
-146 -13 -300 -27 -342 -31 l-77 -6 -4 63 -3 64 -2 -62 -2 -63 -89 0 c-50 0
-145 -4 -213 -9 -68 -6 -209 -12 -315 -15 l-192 -6 -11 36 c-12 34 -14 36 -47
31 l-35 -6 16 24 c9 13 16 29 16 34 0 5 -28 13 -62 18 -59 7 -64 10 -80 43
-22 45 -22 50 0 50 23 0 47 27 55 61 6 24 4 26 -18 21 -31 -6 -75 5 -75 19 0
6 12 26 26 44 34 45 29 76 -13 88 -17 5 -33 18 -36 28 -3 11 -21 26 -40 34
-32 13 -137 110 -137 126 0 4 -8 5 -18 2 -10 -2 -27 6 -41 21 -15 16 -34 26
-50 25 -21 -1 -22 -2 -6 -6z"/>
<path d="M8538 5143 c7 -3 16 -2 19 1 4 3 -2 6 -13 5 -11 0 -14 -3 -6 -6z"/>
<path d="M8498 5133 c7 -3 16 -2 19 1 4 3 -2 6 -13 5 -11 0 -14 -3 -6 -6z"/>
<path d="M8458 5123 c7 -3 16 -2 19 1 4 3 -2 6 -13 5 -11 0 -14 -3 -6 -6z"/>
<path d="M561 5104 c0 -11 3 -14 6 -6 3 7 2 16 -1 19 -3 4 -6 -2 -5 -13z"/>
<path d="M8418 5113 c7 -3 16 -2 19 1 4 3 -2 6 -13 5 -11 0 -14 -3 -6 -6z"/>
<path d="M8378 5103 c7 -3 16 -2 19 1 4 3 -2 6 -13 5 -11 0 -14 -3 -6 -6z"/>
<path d="M8338 5093 c7 -3 16 -2 19 1 4 3 -2 6 -13 5 -11 0 -14 -3 -6 -6z"/>
<path d="M8228 5063 c7 -3 16 -2 19 1 4 3 -2 6 -13 5 -11 0 -14 -3 -6 -6z"/>
<path d="M8188 5053 c7 -3 16 -2 19 1 4 3 -2 6 -13 5 -11 0 -14 -3 -6 -6z"/>
<path d="M615 5030 c10 -11 20 -20 23 -20 3 0 -3 9 -13 20 -10 11 -20 20 -23
20 -3 0 3 -9 13 -20z"/>
<path d="M8118 5033 c7 -3 16 -2 19 1 4 3 -2 6 -13 5 -11 0 -14 -3 -6 -6z"/>
<path d="M8078 5023 c7 -3 16 -2 19 1 4 3 -2 6 -13 5 -11 0 -14 -3 -6 -6z"/>
<path d="M8008 5003 c7 -3 16 -2 19 1 4 3 -2 6 -13 5 -11 0 -14 -3 -6 -6z"/>
<path d="M695 4970 c10 -11 20 -20 23 -20 3 0 -3 9 -13 20 -10 11 -20 20 -23
20 -3 0 3 -9 13 -20z"/>
<path d="M4273 4915 c0 -44 2 -61 4 -37 2 23 2 59 0 80 -2 20 -4 1 -4 -43z"/>
<path d="M7938 4983 c7 -3 16 -2 19 1 4 3 -2 6 -13 5 -11 0 -14 -3 -6 -6z"/>
<path d="M1938 4935 c-38 -13 -72 -27 -78 -30 -20 -12 -9 -49 25 -82 57 -55
45 -83 -36 -83 -27 0 -39 4 -39 14 0 24 -34 58 -52 51 -19 -8 -40 -59 -32 -80
4 -8 19 -15 34 -15 16 0 32 -5 35 -10 7 -11 -44 -65 -80 -87 -18 -11 -17 -12
11 -12 35 -1 56 18 79 72 8 20 19 36 23 36 34 -6 75 4 93 22 26 26 21 65 -16
113 -14 18 -25 35 -25 39 0 3 24 13 53 22 50 17 86 39 76 49 -2 2 -34 -6 -71
-19z m-160 -167 c17 -17 15 -28 -7 -28 -22 0 -35 15 -26 30 8 13 18 13 33 -2z"/>
<path d="M2277 4954 c-9 -9 4 -215 14 -234 5 -9 9 39 9 113 0 116 -4 139 -23
121z"/>
<path d="M7838 4953 c7 -3 16 -2 19 1 4 3 -2 6 -13 5 -11 0 -14 -3 -6 -6z"/>
<path d="M843 4943 c26 -2 68 -2 95 0 26 2 4 3 -48 3 -52 0 -74 -1 -47 -3z"/>
<path d="M750 4930 c-8 -5 -10 -10 -5 -10 6 0 17 5 25 10 8 5 11 10 5 10 -5 0
-17 -5 -25 -10z"/>
<path d="M7730 4925 c-19 -7 -28 -13 -20 -13 8 0 31 6 50 13 19 7 28 13 20 13
-8 0 -31 -6 -50 -13z"/>
<path d="M971 4894 c0 -11 3 -14 6 -6 3 7 2 16 -1 19 -3 4 -6 -2 -5 -13z"/>
<path d="M961 4844 c0 -11 3 -14 6 -6 3 7 2 16 -1 19 -3 4 -6 -2 -5 -13z"/>
<path d="M1590 4798 c-11 -18 -19 -44 -18 -58 2 -20 9 -26 36 -28 41 -4 62 12
62 47 0 25 -35 71 -53 71 -4 0 -16 -15 -27 -32z m60 -45 c0 -8 -12 -13 -30
-13 -22 0 -30 5 -30 18 0 31 21 44 42 25 10 -9 18 -22 18 -30z"/>
<path d="M4278 4770 c-18 -158 -18 -158 -3 -90 9 36 14 85 13 110 -3 42 -4 41
-10 -20z"/>
<path d="M954 4725 c0 -55 1 -76 3 -47 2 29 2 74 0 100 -2 26 -3 2 -3 -53z"/>
<path d="M2206 4801 c-4 -6 -2 -19 3 -29 6 -11 7 -22 4 -26 -13 -12 -72 -6
-88 11 -14 13 -18 14 -25 2 -6 -8 -4 -19 6 -30 29 -32 7 -76 -54 -109 l-37
-19 37 -1 c41 0 72 29 83 79 5 24 11 28 42 29 45 2 56 12 56 52 0 34 -16 59
-27 41z"/>
<path d="M7330 4790 c-8 -5 -10 -10 -5 -10 6 0 17 5 25 10 8 5 11 10 5 10 -5
0 -17 -5 -25 -10z"/>
<path d="M7275 4770 c-13 -6 -15 -9 -5 -9 8 0 22 4 30 9 18 12 2 12 -25 0z"/>
<path d="M7228 4753 c7 -3 16 -2 19 1 4 3 -2 6 -13 5 -11 0 -14 -3 -6 -6z"/>
<path d="M7188 4743 c7 -3 16 -2 19 1 4 3 -2 6 -13 5 -11 0 -14 -3 -6 -6z"/>
<path d="M7138 4733 c7 -3 16 -2 19 1 4 3 -2 6 -13 5 -11 0 -14 -3 -6 -6z"/>
<path d="M7078 4723 c6 -2 18 -2 25 0 6 3 1 5 -13 5 -14 0 -19 -2 -12 -5z"/>
<path d="M7013 4713 c9 -2 23 -2 30 0 6 3 -1 5 -18 5 -16 0 -22 -2 -12 -5z"/>
<path d="M5943 4703 c9 -2 25 -2 35 0 9 3 1 5 -18 5 -19 0 -27 -2 -17 -5z"/>
<path d="M6948 4703 c6 -2 18 -2 25 0 6 3 1 5 -13 5 -14 0 -19 -2 -12 -5z"/>
<path d="M6018 4693 c6 -2 18 -2 25 0 6 3 1 5 -13 5 -14 0 -19 -2 -12 -5z"/>
<path d="M6898 4693 c7 -3 16 -2 19 1 4 3 -2 6 -13 5 -11 0 -14 -3 -6 -6z"/>
<path d="M6068 4683 c6 -2 18 -2 25 0 6 3 1 5 -13 5 -14 0 -19 -2 -12 -5z"/>
<path d="M6848 4683 c7 -3 16 -2 19 1 4 3 -2 6 -13 5 -11 0 -14 -3 -6 -6z"/>
<path d="M5828 4673 c7 -3 16 -2 19 1 4 3 -2 6 -13 5 -11 0 -14 -3 -6 -6z"/>
<path d="M6118 4673 c7 -3 16 -2 19 1 4 3 -2 6 -13 5 -11 0 -14 -3 -6 -6z"/>
<path d="M6808 4673 c7 -3 16 -2 19 1 4 3 -2 6 -13 5 -11 0 -14 -3 -6 -6z"/>
<path d="M2190 4655 c-10 -12 -9 -16 5 -21 23 -9 40 10 22 25 -11 9 -17 8 -27
-4z"/>
<path d="M6158 4663 c7 -3 16 -2 19 1 4 3 -2 6 -13 5 -11 0 -14 -3 -6 -6z"/>
<path d="M5758 4653 c7 -3 16 -2 19 1 4 3 -2 6 -13 5 -11 0 -14 -3 -6 -6z"/>
<path d="M6198 4653 c7 -3 16 -2 19 1 4 3 -2 6 -13 5 -11 0 -14 -3 -6 -6z"/>
<path d="M5718 4643 c7 -3 16 -2 19 1 4 3 -2 6 -13 5 -11 0 -14 -3 -6 -6z"/>
<path d="M6708 4643 c7 -3 16 -2 19 1 4 3 -2 6 -13 5 -11 0 -14 -3 -6 -6z"/>
<path d="M910 4626 c0 -8 -6 -17 -12 -19 -10 -4 -10 -8 1 -15 12 -9 12 -13 2
-26 -12 -14 -10 -16 10 -15 13 0 19 3 13 5 -7 3 -10 22 -8 44 2 22 1 40 -1 40
-3 0 -5 -6 -5 -14z"/>
<path d="M6288 4633 c7 -3 16 -2 19 1 4 3 -2 6 -13 5 -11 0 -14 -3 -6 -6z"/>
<path d="M6658 4633 c7 -3 16 -2 19 1 4 3 -2 6 -13 5 -11 0 -14 -3 -6 -6z"/>
<path d="M937 4619 c7 -7 15 -10 18 -7 3 3 -2 9 -12 12 -14 6 -15 5 -6 -5z"/>
<path d="M6328 4623 c6 -2 18 -2 25 0 6 3 1 5 -13 5 -14 0 -19 -2 -12 -5z"/>
<path d="M6618 4623 c7 -3 16 -2 19 1 4 3 -2 6 -13 5 -11 0 -14 -3 -6 -6z"/>
<path d="M6383 4613 c9 -2 23 -2 30 0 6 3 -1 5 -18 5 -16 0 -22 -2 -12 -5z"/>
<path d="M6568 4613 c7 -3 16 -2 19 1 4 3 -2 6 -13 5 -11 0 -14 -3 -6 -6z"/>
<path d="M6463 4603 c15 -2 39 -2 55 0 15 2 2 4 -28 4 -30 0 -43 -2 -27 -4z"/>
<path d="M5518 4593 c7 -3 16 -2 19 1 4 3 -2 6 -13 5 -11 0 -14 -3 -6 -6z"/>
<path d="M5448 4573 c7 -3 16 -2 19 1 4 3 -2 6 -13 5 -11 0 -14 -3 -6 -6z"/>
<path d="M968 4563 c6 -2 18 -2 25 0 6 3 1 5 -13 5 -14 0 -19 -2 -12 -5z"/>
<path d="M1030 4531 c0 -10 19 -25 25 -20 1 2 -3 10 -11 17 -8 7 -14 8 -14 3z"/>
<path d="M1108 4493 c7 -3 16 -2 19 1 4 3 -2 6 -13 5 -11 0 -14 -3 -6 -6z"/>
<path d="M1150 4480 c8 -5 20 -10 25 -10 6 0 3 5 -5 10 -8 5 -19 10 -25 10 -5
0 -3 -5 5 -10z"/>
<path d="M1230 4450 c8 -5 20 -10 25 -10 6 0 3 5 -5 10 -8 5 -19 10 -25 10 -5
0 -3 -5 5 -10z"/>
<path d="M1280 4430 c8 -5 20 -10 25 -10 6 0 3 5 -5 10 -8 5 -19 10 -25 10 -5
0 -3 -5 5 -10z"/>
<path d="M5403 4390 c0 -25 2 -35 4 -22 2 12 2 32 0 45 -2 12 -4 2 -4 -23z"/>
<path d="M1360 4395 c14 -8 30 -14 35 -14 6 0 -1 6 -15 14 -14 8 -29 14 -35
14 -5 0 1 -6 15 -14z"/>
<path d="M1451 4356 c10 -9 309 -156 309 -151 0 5 -296 155 -307 155 -3 0 -4
-2 -2 -4z"/>
<path d="M5412 4320 c0 -14 2 -19 5 -12 2 6 2 18 0 25 -3 6 -5 1 -5 -13z"/>
<path d="M5427 4235 c3 -33 7 -62 9 -64 8 -9 2 85 -6 104 -5 12 -6 -4 -3 -40z"/>
<path d="M5417 4153 c-11 -11 -8 -39 8 -69 9 -18 15 -23 15 -12 0 9 -5 20 -11
24 -6 3 -9 19 -7 35 5 31 5 32 -5 22z"/>
<path d="M1980 4090 c8 -5 20 -10 25 -10 6 0 3 5 -5 10 -8 5 -19 10 -25 10 -5
0 -3 -5 5 -10z"/>
<path d="M2028 4073 c7 -3 16 -2 19 1 4 3 -2 6 -13 5 -11 0 -14 -3 -6 -6z"/>
<path d="M2068 4063 c6 -2 18 -2 25 0 6 3 1 5 -13 5 -14 0 -19 -2 -12 -5z"/>
<path d="M2150 4025 c19 -19 36 -35 39 -35 3 0 -10 16 -29 35 -19 19 -36 35
-39 35 -3 0 10 -16 29 -35z"/>
<path d="M5442 4025 c0 -16 2 -22 5 -12 2 9 2 23 0 30 -3 6 -5 -1 -5 -18z"/>
<path d="M5452 3910 c0 -14 2 -19 5 -12 2 6 2 18 0 25 -3 6 -5 1 -5 -13z"/>
<path d="M2255 3870 c9 -16 18 -30 21 -30 2 0 -2 14 -11 30 -9 17 -18 30 -21
30 -2 0 2 -13 11 -30z"/>
<path d="M5463 3835 c0 -27 2 -38 4 -22 2 15 2 37 0 50 -2 12 -4 0 -4 -28z"/>
<path d="M2314 3783 c11 -13 29 -22 40 -22 20 1 20 2 1 6 -11 3 -29 12 -40 22
-20 16 -20 16 -1 -6z"/>
<path d="M2398 3753 c7 -3 16 -2 19 1 4 3 -2 6 -13 5 -11 0 -14 -3 -6 -6z"/>
<path d="M5471 3695 c0 -33 3 -66 7 -73 5 -7 7 16 4 50 -5 85 -10 96 -11 23z"/>
<path d="M2450 3736 c0 -2 8 -10 18 -17 15 -13 16 -12 3 4 -13 16 -21 21 -21
13z"/>
<path d="M2497 3699 c7 -7 15 -10 18 -7 3 3 -2 9 -12 12 -14 6 -15 5 -6 -5z"/>
<path d="M2538 3683 c7 -3 16 -2 19 1 4 3 -2 6 -13 5 -11 0 -14 -3 -6 -6z"/>
<path d="M2583 3673 c9 -2 23 -2 30 0 6 3 -1 5 -18 5 -16 0 -22 -2 -12 -5z"/>
<path d="M2698 3663 c23 -2 59 -2 80 0 20 2 1 4 -43 4 -44 0 -61 -2 -37 -4z"/>
<path d="M2938 3653 c18 -2 45 -2 60 0 15 2 0 4 -33 4 -33 0 -45 -2 -27 -4z"/>
<path d="M3063 3643 c9 -2 25 -2 35 0 9 3 1 5 -18 5 -19 0 -27 -2 -17 -5z"/>
<path d="M3138 3633 c6 -2 18 -2 25 0 6 3 1 5 -13 5 -14 0 -19 -2 -12 -5z"/>
<path d="M3238 3613 c7 -3 16 -2 19 1 4 3 -2 6 -13 5 -11 0 -14 -3 -6 -6z"/>
<path d="M3310 3590 c8 -5 20 -10 25 -10 6 0 3 5 -5 10 -8 5 -19 10 -25 10 -5
0 -3 -5 5 -10z"/>
<path d="M5491 3584 c0 -11 3 -14 6 -6 3 7 2 16 -1 19 -3 4 -6 -2 -5 -13z"/>
<path d="M5502 3535 c0 -16 2 -22 5 -12 2 9 2 23 0 30 -3 6 -5 -1 -5 -18z"/>
<path d="M3421 3462 c0 -18 9 -52 20 -75 31 -61 100 -177 106 -177 3 0 -5 17
-17 38 -63 105 -95 170 -101 207 -6 38 -7 38 -8 7z"/>
<path d="M5511 3464 c0 -11 3 -14 6 -6 3 7 2 16 -1 19 -3 4 -6 -2 -5 -13z"/>
<path d="M5502 3390 c0 -14 2 -19 5 -12 2 6 2 18 0 25 -3 6 -5 1 -5 -13z"/>
<path d="M5491 3353 c-1 -6 -4 -20 -7 -30 -5 -17 -5 -17 6 0 6 10 9 23 6 30
-3 9 -5 9 -5 0z"/>
<path d="M5454 3268 c-32 -63 -115 -154 -234 -257 -66 -57 -120 -106 -120
-109 0 -3 10 4 23 15 12 11 67 59 123 107 101 87 187 183 218 244 9 17 14 32
12 32 -3 0 -13 -15 -22 -32z"/>
<path d="M3565 3170 c9 -16 18 -30 21 -30 2 0 -2 14 -11 30 -9 17 -18 30 -21
30 -2 0 2 -13 11 -30z"/>
<path d="M3615 3080 c14 -27 28 -50 30 -50 3 0 -6 23 -20 50 -14 28 -28 50
-30 50 -3 0 6 -22 20 -50z"/>
<path d="M3621 2989 c-6 -18 -11 -41 -10 -53 0 -12 6 2 14 29 15 57 13 72 -4
24z"/>
<path d="M5064 2878 l-19 -23 23 19 c21 18 27 26 19 26 -2 0 -12 -10 -23 -22z"/>
<path d="M3612 2865 c0 -16 2 -22 5 -12 2 9 2 23 0 30 -3 6 -5 -1 -5 -18z"/>
<path d="M4991 2822 l-43 -38 30 -60 c31 -60 142 -177 212 -223 l35 -22 -35
28 c-93 74 -174 161 -202 217 l-30 59 44 38 c23 21 41 38 38 38 -3 0 -25 -17
-49 -37z"/>
<path d="M4388 2844 c-5 -4 -8 -53 -8 -108 0 -123 11 -146 70 -146 21 0 71 13
112 29 40 15 81 31 91 34 9 4 17 11 17 17 0 5 -8 10 -17 10 -10 0 -48 10 -85
22 -55 18 -70 19 -82 8 -23 -18 -21 -43 2 -32 10 6 32 5 57 -2 l40 -12 -30
-16 c-39 -21 -98 -32 -124 -23 -19 6 -21 15 -22 88 -1 91 -10 143 -21 131z"/>
<path d="M3642 2791 c12 -22 24 -38 26 -36 5 4 -37 75 -44 75 -3 0 6 -18 18
-39z"/>
<path d="M4551 2806 c-9 -10 -8 -16 3 -25 10 -9 16 -8 25 3 9 10 8 16 -3 25
-10 9 -16 8 -25 -3z"/>
<path d="M4260 2766 c0 -20 12 -27 27 -15 9 9 17 8 27 0 10 -9 16 -9 21 -1 10
16 -2 24 -41 27 -22 1 -34 -3 -34 -11z"/>
<path d="M3672 2715 c0 -16 2 -22 5 -12 2 9 2 23 0 30 -3 6 -5 -1 -5 -18z"/>
<path d="M4296 2690 c-2 -8 -4 -26 -3 -40 2 -23 -1 -25 -40 -24 -29 0 -52 9
-77 28 -20 15 -36 22 -36 17 0 -6 -6 -11 -14 -11 -8 0 -26 -10 -41 -22 -24
-22 -25 -27 -19 -90 4 -38 11 -68 15 -68 5 0 9 32 9 70 0 63 2 70 20 70 13 0
20 -7 20 -19 0 -10 8 -29 18 -42 22 -26 51 -21 59 11 4 16 14 20 47 20 50 0
66 13 66 55 0 37 -16 68 -24 45z m-106 -97 c0 -29 -35 -8 -38 22 -4 30 -4 30
17 11 12 -11 21 -25 21 -33z"/>
<path d="M3680 2661 c0 -5 7 -12 16 -15 14 -5 15 -4 4 9 -14 17 -20 19 -20 6z"/>
<path d="M3713 2565 c0 -38 2 -53 4 -32 2 20 2 52 0 70 -2 17 -4 1 -4 -38z"/>
<path d="M3692 2434 c-6 -32 -10 -59 -8 -61 6 -6 28 95 24 108 -2 6 -9 -15
-16 -47z"/>
<path d="M5230 2476 c0 -11 47 -30 90 -37 25 -3 54 -9 65 -13 13 -5 11 -2 -5
8 -14 8 -40 15 -58 16 -18 0 -46 7 -62 15 -17 9 -30 13 -30 11z"/>
<path d="M5403 2340 c0 -44 3 -65 7 -50 4 14 4 48 0 75 -7 46 -7 44 -7 -25z"/>
<path d="M3634 2333 c21 -25 36 -30 36 -11 0 6 -3 8 -7 5 -3 -4 -16 1 -27 10
-21 18 -21 18 -2 -4z"/>
<path d="M3602 2314 c-7 -8 -8 -14 -3 -14 10 0 25 19 20 25 -2 1 -10 -3 -17
-11z"/>
<path d="M3560 2305 c-7 -9 -11 -17 -9 -20 3 -2 10 5 17 15 14 24 10 26 -8 5z"/>
<path d="M3561 2258 c-1 -14 7 -18 32 -18 42 0 52 -9 29 -27 -15 -13 -15 -13
6 -3 38 18 21 40 -33 40 -13 0 -26 6 -28 13 -3 7 -6 5 -6 -5z"/>
<path d="M5414 2065 c0 -93 2 -133 3 -88 2 45 2 122 0 170 -1 48 -3 12 -3 -82z"/>
<path d="M3563 2180 c-18 -11 -33 -28 -32 -37 0 -14 2 -13 9 5 5 12 13 22 18
22 9 0 50 29 42 30 -3 0 -20 -9 -37 -20z"/>
<path d="M3562 2115 c11 -13 18 -43 21 -85 l3 -65 2 66 c2 57 -1 68 -20 85
-23 19 -23 19 -6 -1z"/>
<path d="M3590 1953 c0 -25 140 -151 208 -186 39 -21 72 -36 72 -33 0 3 -26
19 -57 35 -77 39 -123 75 -178 139 -25 30 -45 50 -45 45z"/>
<path d="M5422 1870 c0 -14 2 -19 5 -12 2 6 2 18 0 25 -3 6 -5 1 -5 -13z"/>
<path d="M5432 1820 c0 -14 2 -19 5 -12 2 6 2 18 0 25 -3 6 -5 1 -5 -13z"/>
<path d="M5442 1770 c0 -14 2 -19 5 -12 2 6 2 18 0 25 -3 6 -5 1 -5 -13z"/>
<path d="M5452 1710 c0 -19 2 -27 5 -17 2 9 2 25 0 35 -3 9 -5 1 -5 -18z"/>
<path d="M3940 1684 c0 -3 21 -14 48 -26 26 -11 61 -32 77 -46 l30 -27 -30 32
c-26 27 -125 80 -125 67z"/>
<path d="M5463 1590 c0 -41 2 -58 4 -37 2 20 2 54 0 75 -2 20 -4 3 -4 -38z"/>
<path d="M4127 1583 c30 -4 31 -6 27 -41 -3 -35 -3 -35 5 -6 4 17 11 36 15 42
5 9 -5 12 -36 10 -36 -1 -37 -2 -11 -5z"/>
<path d="M4166 1475 c8 -37 14 -45 14 -19 0 10 -5 26 -10 34 -8 11 -9 7 -4
-15z"/>
<path d="M5452 1470 c0 -19 2 -27 5 -17 2 9 2 25 0 35 -3 9 -5 1 -5 -18z"/>
<path d="M4182 1395 c0 -22 3 -62 8 -90 6 -40 7 -43 8 -15 0 19 -3 60 -8 90
-6 48 -7 50 -8 15z"/>
<path d="M5450 1393 c0 -15 42 -124 47 -120 2 2 -8 33 -21 68 -14 35 -25 59
-26 52z"/>
<path d="M5502 1235 c0 -16 2 -22 5 -12 2 9 2 23 0 30 -3 6 -5 -1 -5 -18z"/>
<path d="M4183 1180 c0 -30 2 -43 4 -27 2 15 2 39 0 55 -2 15 -4 2 -4 -28z"/>
<path d="M5512 1115 c0 -16 2 -22 5 -12 2 9 2 23 0 30 -3 6 -5 -1 -5 -18z"/>
<path d="M4171 1083 c-1 -21 32 -53 54 -53 5 1 -1 7 -15 15 -14 7 -28 24 -31
37 -7 22 -7 22 -8 1z"/>
<path d="M5522 1050 c0 -19 2 -27 5 -17 2 9 2 25 0 35 -3 9 -5 1 -5 -18z"/>
<path d="M4240 1021 c0 -6 4 -13 10 -16 6 -3 7 1 4 9 -7 18 -14 21 -14 7z"/>
<path d="M5533 975 c0 -22 2 -30 4 -17 2 12 2 30 0 40 -3 9 -5 -1 -4 -23z"/>
<path d="M4275 960 c9 -16 18 -30 21 -30 2 0 -2 14 -11 30 -9 17 -18 30 -21
30 -2 0 2 -13 11 -30z"/>
<path d="M5543 895 c0 -22 2 -30 4 -17 2 12 2 30 0 40 -3 9 -5 -1 -4 -23z"/>
<path d="M4325 870 c14 -27 28 -50 30 -50 3 0 -6 23 -20 50 -14 28 -28 50 -30
50 -3 0 6 -22 20 -50z"/>
<path d="M5553 795 c0 -27 2 -38 4 -22 2 15 2 37 0 50 -2 12 -4 0 -4 -28z"/>
<path d="M4395 740 c19 -38 38 -70 40 -70 3 0 -11 32 -30 70 -19 39 -38 70
-40 70 -3 0 11 -31 30 -70z"/>
<path d="M5563 670 c0 -36 2 -50 4 -32 2 17 2 47 0 65 -2 17 -4 3 -4 -33z"/>
<path d="M4469 604 c11 -22 27 -47 36 -54 16 -13 8 1 -43 76 -7 11 -3 1 7 -22z"/>
<path d="M5313 613 c15 -2 39 -2 55 0 15 2 2 4 -28 4 -30 0 -43 -2 -27 -4z"/>
<path d="M5465 590 c110 -30 126 -32 50 -5 -38 13 -81 24 -95 24 -14 0 7 -9
45 -19z"/>
<path d="M4985 575 c-39 -17 -32 -17 30 0 30 8 40 14 25 14 -14 0 -38 -6 -55
-14z"/>
<path d="M5128 583 c17 -2 47 -2 65 0 17 2 3 4 -33 4 -36 0 -50 -2 -32 -4z"/>
<path d="M4918 553 c6 -2 18 -2 25 0 6 3 1 5 -13 5 -14 0 -19 -2 -12 -5z"/>
<path d="M4833 543 c15 -2 37 -2 50 0 12 2 0 4 -28 4 -27 0 -38 -2 -22 -4z"/>
<path d="M4544 526 c11 -9 24 -16 30 -16 12 0 7 5 -24 19 -24 11 -24 11 -6 -3z"/>
<path d="M4728 533 c12 -2 30 -2 40 0 9 3 -1 5 -23 4 -22 0 -30 -2 -17 -4z"/>
<path d="M4668 523 c7 -3 16 -2 19 1 4 3 -2 6 -13 5 -11 0 -14 -3 -6 -6z"/>
<path d="M4610 510 c-21 -7 -21 -8 -5 -9 11 0 27 4 35 9 18 11 5 11 -30 0z"/>
</g>
</svg>
