<svg id="Layer_1" data-name="Layer 1" xmlns="http://www.w3.org/2000/svg" viewBox="0 0 64 64"><title>Artboard 1</title><path d="M22,.06h3.37a3.11,3.11,0,0,0,.41.11c1.33.24,2.68.38,4,.73A23.61,23.61,0,0,1,46.55,29.2a23.34,23.34,0,0,1-22.3,17.9,23.39,23.39,0,0,1-10.52-2.18,2.32,2.32,0,0,0-2.85.45,8.7,8.7,0,0,1-1.33,1,9.94,9.94,0,0,1-8.29,1.17,1.55,1.55,0,0,1,0-.18c.05-.13.11-.26.17-.4A19,19,0,0,0,1.7,32.13,21.93,21.93,0,0,1,.39,20C2.26,10.06,8.13,3.7,17.77.84A38.19,38.19,0,0,1,22,.06ZM39.63,23.71A3.42,3.42,0,1,0,36.2,27.1,3.43,3.43,0,0,0,39.63,23.71Zm-12.58,0a3.4,3.4,0,1,0-3.42,3.39A3.4,3.4,0,0,0,27.05,23.71ZM7.68,23.66a3.4,3.4,0,1,0,3.42-3.38A3.41,3.41,0,0,0,7.68,23.66Z"/><path d="M64,40.73c-.19,1.21-.29,2.44-.59,3.62-.48,1.95-1.11,3.86-1.63,5.81A18.91,18.91,0,0,0,62.69,63c.07.15.12.3.21.52a9,9,0,0,1-3.93.41,9.9,9.9,0,0,1-5.8-2.62,2.3,2.3,0,0,0-2.8-.37A23.59,23.59,0,0,1,22.3,54.5c-.83-1-1.54-2.1-2.4-3.29,9.45.91,17.52-1.68,24-8.48s8.61-15,7.24-24.21a2.91,2.91,0,0,1,.46.19A22.83,22.83,0,0,1,63.73,35.9c.08.48.16,1,.23,1.46Z"/></svg>