<svg id="Layer_1" data-name="Layer 1" xmlns="http://www.w3.org/2000/svg" xmlns:xlink="http://www.w3.org/1999/xlink" viewBox="0 0 64 64"><defs><style>.cls-1{fill:url(#linear-gradient);}.cls-2{fill:url(#linear-gradient-2);}.cls-3{fill:url(#linear-gradient-3);}</style><linearGradient id="linear-gradient" x1="21.8" y1="47.28" x2="57.94" y2="47.28" gradientUnits="userSpaceOnUse"><stop offset="0" stop-color="#fd4755"/><stop offset="1" stop-color="#d2024e"/></linearGradient><linearGradient id="linear-gradient-2" x1="6.06" y1="17.43" x2="54.14" y2="17.43" gradientUnits="userSpaceOnUse"><stop offset="0" stop-color="#a2e62e"/><stop offset="0.12" stop-color="#97df30"/><stop offset="0.34" stop-color="#7acb36"/><stop offset="0.62" stop-color="#4aac3f"/><stop offset="0.96" stop-color="#09804c"/><stop offset="1" stop-color="#017b4e"/></linearGradient><linearGradient id="linear-gradient-3" x1="9.76" y1="32.48" x2="55.37" y2="32.48" gradientUnits="userSpaceOnUse"><stop offset="0" stop-color="#8aaadc" stop-opacity="0"/><stop offset="1" stop-color="#8aaadc"/></linearGradient></defs><title>iran</title><path class="cls-1" d="M56.21,51c-.24.24-.48.24-.72.48a1.87,1.87,0,0,0-.72,1.68c0,.73-.24,1.45-1,1.45h-.48c-3.37-.72-8.91.24-10.11-2.17s-2.41-2.89-3.61-2.89-2.41.72-4.09.72H35c-3.85,0-7.22-2.64-9.62-6.25-1.21-1.45-1.93-3.37-3.61-4.09H53.57c-.73,2.16,1.2,3.37,2.88,4.57a3,3,0,0,1,1.45,1.92A6.35,6.35,0,0,1,56.21,51Z"/><path class="cls-2" d="M54.05,21.89A11.91,11.91,0,0,1,53.33,25H10.49l.72-.72c.48-.48.24-1.44-.72-2.16C7.6,19.48,7.12,15.63,6.15,12c-.24-.72,0-1.21.73-1.69a1.82,1.82,0,0,1,1-.48c.48,0,.72,0,1,.48,1,1.45,1.93,1.93,2.89,1.93,1.2,0,2.17-.72,3.37-1.69a3.19,3.19,0,0,1,1.68-.72c.49,0,1,.48,1.45,2.17.72,4.33,5.53,7.22,10.11,7.22a9.31,9.31,0,0,0,5.53-1.69,12.21,12.21,0,0,1,7.46-2.88,12.37,12.37,0,0,1,7.94,3.12C51.16,19.24,54.77,19,54.05,21.89Z"/><path class="cls-3" d="M54.77,38a4.22,4.22,0,0,0-1.2,1.93H21.8a3.48,3.48,0,0,0-1.69-.49c-.48,0-1,.25-1.44.25H18c-1.21-.49-1.69-2.65-1.69-3.61-.24-2.17-1.2-2.89-2.65-4.1-2.16-1.68-5.29-3.61-3.12-7h42.6c-.73,1.69-1.45,3.37-1,5.3s-1,4.81,2.41,5.53C55.73,36.09,55.49,37.29,54.77,38Z"/></svg>