<svg id="Layer_1" data-name="Layer 1" xmlns="http://www.w3.org/2000/svg" xmlns:xlink="http://www.w3.org/1999/xlink" viewBox="0 0 64 64"><defs><style>.cls-1{fill:url(#linear-gradient);}.cls-2{fill:url(#linear-gradient-2);}.cls-3{fill:url(#linear-gradient-3);}.cls-4{fill:url(#linear-gradient-4);}.cls-5{fill:url(#linear-gradient-5);}.cls-6{fill:url(#linear-gradient-6);}.cls-7{fill:#c4573a;}.cls-8{fill:url(#linear-gradient-7);}.cls-9{fill:url(#linear-gradient-8);}.cls-10{fill:url(#linear-gradient-9);}.cls-11{fill:url(#linear-gradient-10);}</style><linearGradient id="linear-gradient" x1="15.23" y1="130.8" x2="55.65" y2="90.38" gradientTransform="matrix(1, 0, 0, -1, -0.17, 150.42)" gradientUnits="userSpaceOnUse"><stop offset="0" stop-color="#fee45a"/><stop offset="1" stop-color="#fe860a"/></linearGradient><linearGradient id="linear-gradient-2" x1="53.93" y1="113.08" x2="1.81" y2="150.11" gradientTransform="matrix(1, 0, 0, -1, -0.17, 150.42)" gradientUnits="userSpaceOnUse"><stop offset="0" stop-color="#fe860a" stop-opacity="0"/><stop offset="1" stop-color="#fe7701"/></linearGradient><linearGradient id="linear-gradient-3" x1="59.04" y1="124.35" x2="27.15" y2="90.73" xlink:href="#linear-gradient-2"/><linearGradient id="linear-gradient-4" x1="58.97" y1="116.46" x2="45" y2="135.58" xlink:href="#linear-gradient-2"/><linearGradient id="linear-gradient-5" x1="32.04" y1="99.74" x2="32.04" y2="90.58" xlink:href="#linear-gradient-2"/><linearGradient id="linear-gradient-6" x1="19.91" y1="134.26" x2="34.31" y2="119.86" gradientTransform="matrix(1, 0, 0, -1, -0.17, 150.42)" gradientUnits="userSpaceOnUse"><stop offset="0" stop-color="#eaf6ff"/><stop offset="0.26" stop-color="#dce8fa"/><stop offset="0.74" stop-color="#b8c4ed"/><stop offset="1" stop-color="#a2aee6"/></linearGradient><linearGradient id="linear-gradient-7" x1="39.88" y1="139.24" x2="54.64" y2="124.49" gradientTransform="matrix(1, 0, 0, -1, -0.17, 150.42)" gradientUnits="userSpaceOnUse"><stop offset="0" stop-color="#26a6fe"/><stop offset="1" stop-color="#192a7d"/></linearGradient><linearGradient id="linear-gradient-8" x1="44.05" y1="132.99" x2="44.05" y2="125.84" gradientTransform="matrix(1, 0, 0, -1, -0.17, 150.42)" gradientUnits="userSpaceOnUse"><stop offset="0" stop-color="#192a7d" stop-opacity="0"/><stop offset="1" stop-color="#192a7d"/></linearGradient><linearGradient id="linear-gradient-9" x1="50.57" y1="129.86" x2="41.27" y2="139.17" xlink:href="#linear-gradient-8"/><linearGradient id="linear-gradient-10" x1="40.56" y1="139.87" x2="51.73" y2="128.71" xlink:href="#linear-gradient-6"/></defs><title>supplier</title><path class="cls-1" d="M55.5,57.47H8.5a1.91,1.91,0,0,1-1.91-1.91V16.41A1.91,1.91,0,0,1,8.5,14.5h47a1.91,1.91,0,0,1,1.91,1.91V55.56a1.91,1.91,0,0,1-1.91,1.91Z"/><path class="cls-2" d="M57.41,16.41V55.56a1.91,1.91,0,0,1-1.91,1.91H49.26L18.47,26.68V14.5h37a1.91,1.91,0,0,1,1.91,1.91Z"/><path class="cls-3" d="M55.5,14.5H42.15a1.92,1.92,0,0,1,1.91,1.91V55.56a1.92,1.92,0,0,1-1.91,1.91H55.5a1.91,1.91,0,0,0,1.91-1.91V16.41A1.91,1.91,0,0,0,55.5,14.5Z"/><path class="cls-4" d="M57.41,16.41V39.72L38.3,20.61V14.5H55.5a1.91,1.91,0,0,1,1.91,1.91Z"/><path class="cls-5" d="M6.59,47.1v8.46A1.91,1.91,0,0,0,8.5,57.47h47a1.91,1.91,0,0,0,1.91-1.91V47.1Z"/><path class="cls-6" d="M20.43,27l0,0a2.67,2.67,0,0,0,2.79,0,2.72,2.72,0,0,1,2.83,0,2.76,2.76,0,0,0,2.83,0h0a1.81,1.81,0,0,1,1.29-.16.83.83,0,0,0,1-.81V14.89a.67.67,0,0,0-.67-.67H18.82a.67.67,0,0,0-.67.67V26a.83.83,0,0,0,1,.81,1.73,1.73,0,0,1,1.3.17Z"/><path class="cls-7" d="M12.05,46.1h1.22v4.09a.29.29,0,0,0,.3.3h2.19a.29.29,0,0,0,.3-.3V46.1h1.22a.47.47,0,0,0,.4-.72l-2.62-4a.48.48,0,0,0-.79,0l-2.62,4a.47.47,0,0,0,.4.72Z"/><path class="cls-7" d="M18.46,51.88H10.87a.19.19,0,0,0-.19.19v1.12a.19.19,0,0,0,.19.19h7.59a.19.19,0,0,0,.19-.19V52.07A.19.19,0,0,0,18.46,51.88Z"/><path class="cls-7" d="M50.54,47.6H46.77a.2.2,0,0,1-.19-.19V46.29a.2.2,0,0,1,.19-.19h3.77a.2.2,0,0,1,.19.19v1.12A.2.2,0,0,1,50.54,47.6Z"/><path class="cls-7" d="M55.32,50.49H46.77a.2.2,0,0,1-.19-.19V49.18a.2.2,0,0,1,.19-.19h8.55a.2.2,0,0,1,.19.19V50.3A.2.2,0,0,1,55.32,50.49Z"/><path class="cls-7" d="M52.73,53.38h-6a.2.2,0,0,1-.19-.19V52.07a.2.2,0,0,1,.19-.19h6a.2.2,0,0,1,.19.19v1.12A.2.2,0,0,1,52.73,53.38Z"/><circle class="cls-8" cx="44.06" cy="14.82" r="8.17"/><path class="cls-9" d="M35.89,14.92a8.17,8.17,0,0,0,16.34,0Z"/><path class="cls-10" d="M45.81,9.63a.58.58,0,0,0-.53-.34H42.9a.6.6,0,0,0-.59.59v7a1.22,1.22,0,0,0,.52,1l4.42,4.42A8.2,8.2,0,0,0,52.15,16Z"/><path class="cls-11" d="M49.48,15.09a.59.59,0,0,0-.59-.59H46a.18.18,0,0,1-.19-.18V9.78a.59.59,0,0,0-.59-.59H42.8a.6.6,0,0,0-.59.59v7a1.24,1.24,0,0,0,1.24,1.24h5.44a.6.6,0,0,0,.59-.59Z"/></svg>