<svg id="Layer_1" data-name="Layer 1" xmlns="http://www.w3.org/2000/svg" xmlns:xlink="http://www.w3.org/1999/xlink" viewBox="0 0 64 64"><defs><style>.cls-1{fill:url(#linear-gradient);}.cls-2{fill:url(#linear-gradient-2);}.cls-3{fill:url(#linear-gradient-3);}.cls-4{fill:url(#linear-gradient-4);}.cls-5{fill:url(#linear-gradient-5);}.cls-6{fill:url(#linear-gradient-6);}.cls-7{fill:url(#linear-gradient-7);}.cls-8{fill:url(#linear-gradient-8);}.cls-9{fill:url(#linear-gradient-9);}.cls-10{fill:url(#linear-gradient-10);}.cls-11{fill:url(#linear-gradient-11);}.cls-12{fill:url(#linear-gradient-12);}.cls-13{fill:url(#linear-gradient-13);}.cls-14{fill:url(#linear-gradient-14);}.cls-15{fill:url(#linear-gradient-15);}.cls-16{fill:url(#linear-gradient-16);}.cls-17{fill:url(#linear-gradient-17);}.cls-18{fill:url(#linear-gradient-18);}.cls-19{fill:url(#linear-gradient-19);}</style><linearGradient id="linear-gradient" x1="19.02" y1="-198.32" x2="40.97" y2="-220.27" gradientTransform="matrix(1, 0, 0, -1, -0.5, -186.24)" gradientUnits="userSpaceOnUse"><stop offset="0" stop-color="#f7e07d"/><stop offset="1" stop-color="#e69642"/></linearGradient><linearGradient id="linear-gradient-2" x1="27.77" y1="-204.79" x2="46.5" y2="-223.52" xlink:href="#linear-gradient"/><linearGradient id="linear-gradient-3" x1="47.39" y1="-224.12" x2="21.59" y2="-198.32" gradientTransform="matrix(1, 0, 0, -1, -0.5, -186.24)" gradientUnits="userSpaceOnUse"><stop offset="0" stop-color="#d52c1c" stop-opacity="0"/><stop offset="0.28" stop-color="#d12c1e" stop-opacity="0.28"/><stop offset="0.57" stop-color="#c42c23" stop-opacity="0.57"/><stop offset="0.87" stop-color="#af2b2c" stop-opacity="0.87"/><stop offset="1" stop-color="#a42b31"/></linearGradient><linearGradient id="linear-gradient-4" x1="28.28" y1="29.69" x2="37.55" y2="20.42" gradientUnits="userSpaceOnUse"><stop offset="0" stop-color="#e38523"/><stop offset="1" stop-color="#c4237c"/></linearGradient><linearGradient id="linear-gradient-5" x1="49.36" y1="-207.1" x2="60.6" y2="-211.31" xlink:href="#linear-gradient"/><linearGradient id="linear-gradient-6" x1="3.75" y1="-207.1" x2="14.99" y2="-211.31" xlink:href="#linear-gradient"/><linearGradient id="linear-gradient-7" x1="46.62" y1="-218.96" x2="57.7" y2="-223.11" xlink:href="#linear-gradient"/><linearGradient id="linear-gradient-8" x1="6.66" y1="-195.3" x2="17.74" y2="-199.45" xlink:href="#linear-gradient"/><linearGradient id="linear-gradient-9" x1="8.27" y1="-219.56" x2="16.24" y2="-222.55" xlink:href="#linear-gradient"/><linearGradient id="linear-gradient-10" x1="48.23" y1="-195.9" x2="56.2" y2="-198.89" xlink:href="#linear-gradient"/><linearGradient id="linear-gradient-11" x1="41.24" y1="-232.5" x2="32.08" y2="-223.34" xlink:href="#linear-gradient-3"/><linearGradient id="linear-gradient-12" x1="30.88" y1="-222.14" x2="33.62" y2="-224.88" gradientTransform="matrix(1, 0, 0, -1, -0.5, -186.24)" xlink:href="#linear-gradient-4"/><linearGradient id="linear-gradient-13" x1="32.37" y1="-220.49" x2="32.37" y2="-228.94" xlink:href="#linear-gradient-3"/><linearGradient id="linear-gradient-14" x1="32.37" y1="-229.92" x2="32.37" y2="-233.44" gradientTransform="matrix(1, 0, 0, -1, -0.5, -186.24)" gradientUnits="userSpaceOnUse"><stop offset="0" stop-color="#eef4ff"/><stop offset="1" stop-color="#cfe7fd"/></linearGradient><linearGradient id="linear-gradient-15" x1="25.17" y1="-240.75" x2="38.37" y2="-240.75" gradientTransform="matrix(1, 0, 0, -1, -0.5, -186.24)" gradientUnits="userSpaceOnUse"><stop offset="0" stop-color="#5a5a5a"/><stop offset="1" stop-color="#464646"/></linearGradient><linearGradient id="linear-gradient-16" x1="32.37" y1="-242.92" x2="32.37" y2="-240.69" gradientTransform="matrix(1, 0, 0, -1, -0.5, -186.24)" gradientUnits="userSpaceOnUse"><stop offset="0" stop-color="#464646" stop-opacity="0"/><stop offset="1" stop-color="#202020"/></linearGradient><linearGradient id="linear-gradient-17" x1="32.37" y1="-234.89" x2="32.37" y2="-239.04" xlink:href="#linear-gradient-14"/><linearGradient id="linear-gradient-18" x1="32.37" y1="-231.27" x2="32.37" y2="-234.89" gradientTransform="matrix(1, 0, 0, -1, -0.5, -186.24)" gradientUnits="userSpaceOnUse"><stop offset="0" stop-color="#8aaadc" stop-opacity="0"/><stop offset="1" stop-color="#8aaadc"/></linearGradient><linearGradient id="linear-gradient-19" x1="32.37" y1="-237.1" x2="32.37" y2="-239.55" xlink:href="#linear-gradient-18"/></defs><title>idea</title><path class="cls-1" d="M50.31,23.79A18.31,18.31,0,1,0,21.72,38.94a.07.07,0,0,1,0,.06,3.32,3.32,0,0,1,1.56,2.81v4.13H40.69V41.77A3.32,3.32,0,0,1,42.2,39l0,0A18.3,18.3,0,0,0,50.31,23.79Z"/><circle class="cls-2" cx="32" cy="23.97" r="12.4"/><path class="cls-3" d="M49.34,29.66,38.26,21c-.65-.5-1.46-1-2-1.4-1-.66-2.77-2.08-4.29-2a1.87,1.87,0,0,0-1.66,1.56V33a.91.91,0,0,0,.54.81l9.81,9.81v-1.9A3.32,3.32,0,0,1,42.2,39l0,0a18.31,18.31,0,0,0,7.09-9.29Z"/><path class="cls-4" d="M33.86,33.11c0,.68-.91,1-1.76,1s-1.76-.36-1.76-1.08V18.69c0-.72.88-1.08,1.76-1.08s1.75.36,1.75,1.08V33.11Z"/><path class="cls-5" d="M56.84,22.18H53a1.68,1.68,0,0,0,0,3.35h3.89a1.68,1.68,0,1,0,0-3.35Z"/><path class="cls-6" d="M12.72,23.86a1.68,1.68,0,0,0-1.67-1.68H7.16a1.68,1.68,0,1,0,0,3.35h3.89A1.67,1.67,0,0,0,12.72,23.86Z"/><path class="cls-7" d="M51.87,33.17a1.68,1.68,0,0,0-2.37,0,1.67,1.67,0,0,0,0,2.37l2.75,2.76a1.68,1.68,0,1,0,2.37-2.38Z"/><path class="cls-8" d="M11.75,9.42a1.68,1.68,0,0,0-2.37,2.37l2.75,2.75a1.68,1.68,0,1,0,2.37-2.37Z"/><path class="cls-9" d="M14.5,33.17a1.68,1.68,0,0,0-2.37,0L9.38,35.92a1.68,1.68,0,0,0,2.37,2.38l2.75-2.76A1.67,1.67,0,0,0,14.5,33.17Z"/><path class="cls-10" d="M49.5,14.54a1.67,1.67,0,0,0,2.37,0l2.75-2.75a1.68,1.68,0,1,0-2.37-2.37L49.5,12.17A1.67,1.67,0,0,0,49.5,14.54Z"/><path class="cls-11" d="M40.69,42.73l-6.34-6.34a3,3,0,0,0-5.3,1.94c0,.11,0,.21,0,.32a3,3,0,0,0,1.05,2l5.31,5.32h5.26Z"/><circle class="cls-12" cx="32" cy="38.27" r="3"/><path class="cls-13" d="M14.94,30.44a18.37,18.37,0,0,0,6.78,8.5.07.07,0,0,1,0,.06,3.32,3.32,0,0,1,1.56,2.81v4.13H40.69V41.77A3.32,3.32,0,0,1,42.2,39l0,0a18.32,18.32,0,0,0,6.81-8.52Z"/><path class="cls-14" d="M39.67,42.88H24.33a2.91,2.91,0,0,0,0,5.81H39.67a2.91,2.91,0,0,0,0-5.81Z"/><path class="cls-15" d="M23.51,52.39A9.4,9.4,0,0,0,32,58.52a9.4,9.4,0,0,0,8.49-6.13Z"/><path class="cls-16" d="M23.51,52.39A9.4,9.4,0,0,0,32,58.52a9.4,9.4,0,0,0,8.49-6.13Z"/><path class="cls-17" d="M39.67,48.69H24.33a2.91,2.91,0,0,0,0,5.81H39.67a2.91,2.91,0,0,0,0-5.81Z"/><path class="cls-18" d="M39.67,42.88H24.33a2.91,2.91,0,0,0,0,5.81H39.67a2.91,2.91,0,0,0,0-5.81Z"/><path class="cls-19" d="M39.67,48.69,32,48.41l-7.7.28a2.91,2.91,0,0,0,0,5.81H39.67a2.91,2.91,0,0,0,0-5.81Z"/></svg>