<svg id="Layer_1" data-name="Layer 1" xmlns="http://www.w3.org/2000/svg" xmlns:xlink="http://www.w3.org/1999/xlink" viewBox="0 0 64 64"><defs><style>.cls-1{fill:url(#linear-gradient);}.cls-2{fill:url(#linear-gradient-2);}.cls-3{fill:url(#linear-gradient-3);}.cls-4{fill:url(#linear-gradient-4);}.cls-5{fill:url(#linear-gradient-5);}.cls-6{fill:#7bacdf;}.cls-7{fill:url(#linear-gradient-6);}.cls-8{fill:url(#linear-gradient-7);}</style><linearGradient id="linear-gradient" x1="8.48" y1="-443.71" x2="37.3" y2="-414.89" gradientTransform="translate(-0.39 449.04)" gradientUnits="userSpaceOnUse"><stop offset="0" stop-color="#d0ebff"/><stop offset="1" stop-color="#9acefe"/></linearGradient><linearGradient id="linear-gradient-2" x1="52.08" y1="-401.53" x2="52.08" y2="-387.99" gradientTransform="translate(-0.39 449.04)" gradientUnits="userSpaceOnUse"><stop offset="0" stop-color="#8ac9fe" stop-opacity="0"/><stop offset="0.06" stop-color="#85c2f3" stop-opacity="0.06"/><stop offset="0.37" stop-color="#70a3c3" stop-opacity="0.37"/><stop offset="0.64" stop-color="#608ca0" stop-opacity="0.64"/><stop offset="0.86" stop-color="#577e8b" stop-opacity="0.86"/><stop offset="1" stop-color="#537983"/></linearGradient><linearGradient id="linear-gradient-3" x1="57.11" y1="-411.84" x2="40.6" y2="-411.84" xlink:href="#linear-gradient-2"/><linearGradient id="linear-gradient-4" x1="20.34" y1="-419.94" x2="44.16" y2="-396.13" xlink:href="#linear-gradient"/><linearGradient id="linear-gradient-5" x1="29.7" y1="-395.76" x2="29.7" y2="-388.3" xlink:href="#linear-gradient-2"/><linearGradient id="linear-gradient-6" x1="28.15" y1="19.74" x2="46.85" y2="38.44" gradientUnits="userSpaceOnUse"><stop offset="0" stop-color="#fff"/><stop offset="1" stop-color="#cfe7fd"/></linearGradient><linearGradient id="linear-gradient-7" x1="21.62" y1="36.37" x2="21.62" y2="37.56" gradientUnits="userSpaceOnUse"><stop offset="0" stop-color="#fd4755"/><stop offset="1" stop-color="#d2024e"/></linearGradient></defs><title>news</title><path class="cls-1" d="M57,9.09v42.8A5.16,5.16,0,0,1,51.89,57H17.26V9.09A2.13,2.13,0,0,1,19.39,7H54.9A2.14,2.14,0,0,1,57,9.09Z"/><path class="cls-2" d="M57,9.09V51.8a5.16,5.16,0,1,1-10.31.08V7H54.9A2.14,2.14,0,0,1,57,9.09Z"/><path class="cls-3" d="M46.3,14.15H41.07V57H51.88A5.16,5.16,0,0,0,57,51.89v-27Z"/><path class="cls-4" d="M46.73,51.89A5.16,5.16,0,0,0,51.89,57H12.11A5.16,5.16,0,0,1,7,51.89V15.41a2.13,2.13,0,0,1,2.13-2.13H44.6a2.13,2.13,0,0,1,2.13,2.13V51.89Z"/><path class="cls-5" d="M7,40V51.89A5.16,5.16,0,0,0,12.11,57H51.89a5.16,5.16,0,0,1-5.16-5.15V40Z"/><path class="cls-6" d="M11.23,21.15a1,1,0,0,0,.93,1H25a1,1,0,0,0,0-2H12.16A1,1,0,0,0,11.23,21.15Z"/><path class="cls-6" d="M11.23,17.24a1,1,0,0,0,.93,1H41.53a1,1,0,0,0,0-2H12.16A1,1,0,0,0,11.23,17.24Z"/><path class="cls-6" d="M11.23,25a1,1,0,0,0,.93,1h9.19a1,1,0,0,0,0-2H12.16A1,1,0,0,0,11.23,25Z"/><path class="cls-6" d="M11.23,28.94a1,1,0,0,0,.93,1H23.28a1,1,0,0,0,0-2H12.16A1,1,0,0,0,11.23,28.94Z"/><rect class="cls-7" x="28.56" y="20.15" width="13.9" height="13.9" rx="1.09"/><rect class="cls-8" x="11.23" y="35.95" width="20.77" height="2.08" rx="1.04"/><path class="cls-6" d="M11.23,40.93a.93.93,0,0,0,.93.92h8.9a.93.93,0,1,0,0-1.85h-8.9A.93.93,0,0,0,11.23,40.93Z"/><path class="cls-6" d="M22.93,40.93a.93.93,0,0,0,.93.92h1.58a.93.93,0,1,0,0-1.85H23.86A.93.93,0,0,0,22.93,40.93Z"/><path class="cls-6" d="M11.23,44.42a.93.93,0,0,0,.93.93h6.26a.93.93,0,0,0,0-1.85H12.16A.93.93,0,0,0,11.23,44.42Z"/><path class="cls-6" d="M22.93,44.42a.93.93,0,0,0,.93.93h1.58a.93.93,0,1,0,0-1.85H23.86A.93.93,0,0,0,22.93,44.42Z"/><path class="cls-6" d="M27.52,44.42a.93.93,0,0,0,.92.93h8a.93.93,0,1,0,0-1.85h-8a.92.92,0,0,0-.92.92Z"/><path class="cls-6" d="M39.22,44.42a.93.93,0,0,0,.92.93h1.59a.93.93,0,0,0,0-1.85H40.14A.92.92,0,0,0,39.22,44.42Z"/><path class="cls-6" d="M27.52,40.93a.92.92,0,0,0,.92.92h5.4a.93.93,0,0,0,0-1.85h-5.4a.93.93,0,0,0-.92.93Z"/><path class="cls-6" d="M39.22,40.93a.92.92,0,0,0,.92.92h1.59a.93.93,0,0,0,0-1.85H40.14A.93.93,0,0,0,39.22,40.93Z"/></svg>