<svg id="Layer_1" data-name="Layer 1" xmlns="http://www.w3.org/2000/svg" xmlns:xlink="http://www.w3.org/1999/xlink" viewBox="0 0 64 64"><defs><style>.cls-1{fill:url(#linear-gradient);}.cls-2{fill:url(#linear-gradient-2);}.cls-3{fill:url(#linear-gradient-3);}.cls-4{fill:url(#linear-gradient-4);}.cls-5{fill:url(#linear-gradient-5);}.cls-6{fill:url(#linear-gradient-6);}.cls-7{fill:url(#linear-gradient-7);}.cls-8{fill:url(#linear-gradient-8);}.cls-9{fill:url(#linear-gradient-9);}.cls-10{fill:url(#linear-gradient-10);}.cls-11{fill:url(#linear-gradient-11);}.cls-12{fill:url(#linear-gradient-12);}.cls-13{fill:url(#linear-gradient-13);}.cls-14{fill:url(#linear-gradient-14);}</style><linearGradient id="linear-gradient" x1="29.4" y1="293.42" x2="43.06" y2="269.82" gradientTransform="matrix(1, 0, 0, -1, -0.5, 318.75)" gradientUnits="userSpaceOnUse"><stop offset="0" stop-color="#5a5a5a"/><stop offset="1" stop-color="#464646"/></linearGradient><linearGradient id="linear-gradient-2" x1="32.37" y1="279.32" x2="32.37" y2="270.14" gradientTransform="matrix(1, 0, 0, -1, -0.5, 318.75)" gradientUnits="userSpaceOnUse"><stop offset="0" stop-color="#464646" stop-opacity="0"/><stop offset="1" stop-color="#202020"/></linearGradient><linearGradient id="linear-gradient-3" x1="28.42" y1="286.2" x2="19.69" y2="287.05" xlink:href="#linear-gradient-2"/><linearGradient id="linear-gradient-4" x1="32.37" y1="269.87" x2="32.37" y2="292.31" gradientTransform="matrix(1, 0, 0, -1, -0.5, 318.75)" gradientUnits="userSpaceOnUse"><stop offset="0" stop-color="#464646" stop-opacity="0"/><stop offset="0.03" stop-color="#454545" stop-opacity="0.03"/><stop offset="0.64" stop-color="#2a2a2a" stop-opacity="0.64"/><stop offset="1" stop-color="#202020"/></linearGradient><linearGradient id="linear-gradient-5" x1="29.98" y1="299.69" x2="39.94" y2="282.48" xlink:href="#linear-gradient"/><linearGradient id="linear-gradient-6" x1="22.91" y1="290.74" x2="20.18" y2="284.25" xlink:href="#linear-gradient-2"/><linearGradient id="linear-gradient-7" x1="413.17" y1="290.74" x2="410.43" y2="284.25" gradientTransform="translate(456.28 318.75) rotate(180)" xlink:href="#linear-gradient-2"/><linearGradient id="linear-gradient-8" x1="32.88" y1="283.75" x2="27.19" y2="291.95" xlink:href="#linear-gradient-4"/><linearGradient id="linear-gradient-9" x1="13.85" y1="286.02" x2="32.31" y2="286.02" gradientTransform="matrix(1, 0, 0, -1, -0.5, 318.75)" gradientUnits="userSpaceOnUse"><stop offset="0" stop-color="#f7e07d"/><stop offset="1" stop-color="#e69642"/></linearGradient><linearGradient id="linear-gradient-10" x1="14.95" y1="266.73" x2="20.05" y2="266.73" xlink:href="#linear-gradient-9"/><linearGradient id="linear-gradient-11" x1="17.36" y1="264.36" x2="17.36" y2="269.93" gradientTransform="matrix(1, 0, 0, -1, -0.5, 318.75)" gradientUnits="userSpaceOnUse"><stop offset="0" stop-color="#d52c1c" stop-opacity="0"/><stop offset="0.28" stop-color="#d12c1e" stop-opacity="0.28"/><stop offset="0.57" stop-color="#c42c23" stop-opacity="0.57"/><stop offset="0.87" stop-color="#af2b2c" stop-opacity="0.87"/><stop offset="1" stop-color="#a42b31"/></linearGradient><linearGradient id="linear-gradient-12" x1="15.11" y1="274.8" x2="19.48" y2="270.42" xlink:href="#linear-gradient-9"/><linearGradient id="linear-gradient-13" x1="19.51" y1="270.64" x2="15.15" y2="275" xlink:href="#linear-gradient-9"/><linearGradient id="linear-gradient-14" x1="17.36" y1="271.46" x2="17.36" y2="267.35" xlink:href="#linear-gradient-11"/></defs><title>online-learning</title><path class="cls-1" d="M11.59,18.65V38.8a4.52,4.52,0,0,0,2.65,4.12,42.84,42.84,0,0,0,35.52,0,4.52,4.52,0,0,0,2.65-4.12V18.65Z"/><path class="cls-2" d="M11.59,36.76v2a4.52,4.52,0,0,0,2.65,4.12,42.84,42.84,0,0,0,35.52,0,4.52,4.52,0,0,0,2.65-4.12v-2Z"/><path class="cls-3" d="M17.78,44.33a42.8,42.8,0,0,0,32-1.41,4.52,4.52,0,0,0,2.65-4.12V18.65H17.78Z"/><path class="cls-4" d="M11.59,18.65v7.69L32,46.77a43.33,43.33,0,0,0,17.74-3.85,4.52,4.52,0,0,0,2.65-4.12V18.65Z"/><path class="cls-5" d="M28.47,10.18,5.9,20.24a2,2,0,0,0,0,3.57L28.47,33.88a8.68,8.68,0,0,0,7.06,0L58.1,23.81a2,2,0,0,0,0-3.57L35.53,10.18A8.6,8.6,0,0,0,28.47,10.18Z"/><path class="cls-6" d="M40.45,31.69l-4.91,2.19a8.73,8.73,0,0,1-7.08,0L5.9,23.81a2,2,0,0,1,0-3.57l4.44-2Z"/><path class="cls-7" d="M23.55,31.69l4.91,2.19a8.73,8.73,0,0,0,7.08,0L58.1,23.81a2,2,0,0,0,0-3.57l-4.44-2L23.55,31.69Z"/><path class="cls-8" d="M33.22,21.52,16.76,28.65l11.71,5.23a8.68,8.68,0,0,0,7.06,0l6.95-3.1Z"/><path class="cls-9" d="M17,42.48a1.34,1.34,0,0,1-1.34-1.34V30.62a4.22,4.22,0,0,1,2.5-3.84l13.31-5.94a1.34,1.34,0,0,1,1.08,2.45L19.23,29.22a1.55,1.55,0,0,0-.91,1.4V41.14A1.33,1.33,0,0,1,17,42.48Z"/><path class="cls-10" d="M17.5,54.58H16.36A1.57,1.57,0,0,1,14.79,53V47.38h4.28V53A1.57,1.57,0,0,1,17.5,54.58Z"/><path class="cls-11" d="M19.07,53V47.38H14.79v1.94L19,53.51A1.39,1.39,0,0,0,19.07,53Z"/><circle class="cls-12" cx="16.93" cy="45.13" r="4.74"/><path class="cls-13" d="M19.55,42.6A1.44,1.44,0,0,1,18.38,44l-.87.16a.16.16,0,0,0-.13.16v1.94h0a1.69,1.69,0,0,1-.78,1.4,1.49,1.49,0,0,1-2.09-.18,1.5,1.5,0,0,1,.58-2,1.77,1.77,0,0,1,1.34-.3V43a.3.3,0,0,1,.24-.28l2.47-.45a.34.34,0,0,1,.41.33Z"/><path class="cls-14" d="M12.26,45.93a4.74,4.74,0,0,0,9.34,0Z"/></svg>