<svg id="Layer_1" data-name="Layer 1" xmlns="http://www.w3.org/2000/svg" viewBox="0 0 64 64"><title>Artboard 1</title><path d="M32,29.76c-9.7,0-19.4,0-29.1,0-1.83,0-3-.92-2.92-2.94.11-2.36,0-4.72,0-7.08a13.81,13.81,0,0,1,3.63-9.53c2-2.17,3.94-4.32,5.89-6.49a5.93,5.93,0,0,1,4.65-2q18.3,0,36.61,0a5.89,5.89,0,0,1,4.91,2.36c1.68,2.12,3.39,4.23,5.09,6.34A14,14,0,0,1,64,19.47c0,2.59,0,5.18,0,7.78a2.28,2.28,0,0,1-2.53,2.51ZM23.6,27.49c0-2.9,0-5.72,0-8.55a15.74,15.74,0,0,1,.08-1.68A33,33,0,0,1,26,8.65c.62-1.56,1.3-3.09,2-4.7-1.31,0-2.56,0-3.82,0a.92.92,0,0,0-.93.54,29.17,29.17,0,0,0-4.16,14.86c0,2.46,0,4.91,0,7.37v.78ZM37.16,4C38,6.05,38.87,8,39.64,10.07a26.43,26.43,0,0,1,1.93,10.74c-.1,2,0,4,0,6v.7h4.56c-.07-3.71,0-7.39-.26-11a27,27,0,0,0-4.05-12A.92.92,0,0,0,41.18,4C39.85,3.93,38.52,4,37.16,4Z"/><path d="M5.64,33.15H59.51v22A6.75,6.75,0,0,1,52.4,62.3h-12v-.82c0-3.9,0-7.8,0-11.71a7.84,7.84,0,0,0-15.68,0c-.05,3.88,0,7.76,0,11.64v.88h-12a6.74,6.74,0,0,1-7-7V33.15Z"/></svg>